<svg height="1200" node-id="1" sillyvg="true" template-height="1200" template-width="1200" version="1.1" viewBox="0 0 1200 1200" width="1200" xmlns="http://www.w3.org/2000/svg" xmlns:xlink="http://www.w3.org/1999/xlink"><defs node-id="84"><linearGradient gradientUnits="userSpaceOnUse" id="未命名的渐变_18" node-id="5" spreadMethod="pad" x1="603.64" x2="603.64" y1="724.31" y2="1110.19"><stop offset="0" stop-color="#ae4f2d"></stop><stop offset="0.26" stop-color="#ab4e2c"></stop><stop offset="0.43" stop-color="#a24a2b"></stop><stop offset="0.58" stop-color="#934428"></stop><stop offset="0.71" stop-color="#7e3b23"></stop><stop offset="0.84" stop-color="#632f1d"></stop><stop offset="0.95" stop-color="#422117"></stop><stop offset="1" stop-color="#301913"></stop></linearGradient><linearGradient gradientUnits="userSpaceOnUse" id="未命名的渐变_17" node-id="16" spreadMethod="pad" x1="431.59" x2="431.59" y1="389" y2="839"><stop offset="0" stop-color="#dd8c2c"></stop><stop offset="0.14" stop-color="#d27e2c"></stop><stop offset="0.47" stop-color="#be642d"></stop><stop offset="0.77" stop-color="#b2552d"></stop><stop offset="1" stop-color="#ae4f2d"></stop></linearGradient><linearGradient gradientUnits="userSpaceOnUse" id="未命名的渐变_15" node-id="24" spreadMethod="pad" x1="772.06" x2="772.06" y1="387" y2="839"><stop offset="0" stop-color="#dd8c2c"></stop><stop offset="0.22" stop-color="#cb752c"></stop><stop offset="0.49" stop-color="#bb602d"></stop><stop offset="0.75" stop-color="#b1532d"></stop><stop offset="1" stop-color="#ae4f2d"></stop></linearGradient><clipPath id="clip-path" node-id="14"><path d="M 549.87 806.28 C 549.87 806.28 160.06 456.65 280.35 226.00 C 292.66 202.40 312.35 181.90 337.94 167.81 C 384.57 142.12 462.94 129.46 517.85 279.81 C 517.85 279.81 588.17 508.56 609.85 787.81" fill="#000000" fill-rule="nonzero" node-id="129" stroke="none" target-height="676.82" target-width="449.78998" target-x="160.06" target-y="129.46"></path></clipPath><clipPath id="clip-path-2" node-id="22"><path d="M 732.69 781.13 C 732.69 781.13 1009.69 373.13 865.11 207.92 C 849.86 190.50 828.75 176.86 803.51 169.49 C 754.35 155.15 675.04 158.75 652.51 316.71 C 652.51 316.71 634.07 486.08 674.70 772.42" fill="#000000" fill-rule="nonzero" node-id="133" stroke="none" target-height="625.98" target-width="375.62" target-x="634.07" target-y="155.15"></path></clipPath></defs><path d="M 0.00 0.00 L 1200.00 0.00 L 1200.00 1200.00 L 0.00 1200.00 Z" fill="#fff9eb" fill-rule="nonzero" node-id="137" stroke="none" target-height="1200" target-width="1200" target-x="0" target-y="0"></path><path d="M 681.91 1084.68 C 780.03 1063.36 770.75 1001.01 760.83 966.56 C 757.43 954.48 757.83 941.65 762.00 929.81 C 771.60 902.06 774.00 878.07 772.62 858.03 C 769.63 816.09 738.35 781.62 696.89 774.59 C 395.89 722.77 493.89 1004.16 493.89 1004.16 C 493.89 1004.16 529.59 1062.69 577.04 1086.06 C 577.00 1086.06 646.83 1101.84 681.91 1084.68 Z" fill="#fffbf3" fill-rule="nonzero" node-id="139" stroke="#333333" stroke-linecap="round" stroke-width="14" target-height="379.06995" target-width="384.14" target-x="395.89" target-y="722.77"></path><path d="M 710.35 911.26 C 717.35 906.26 731.18 904.51 739.28 910.38" fill="#ffffff" fill-rule="nonzero" node-id="141" stroke="#333333" stroke-linecap="round" stroke-width="7.74" target-height="6.75" target-width="28.930054" target-x="710.35" target-y="904.51"></path><path d="M 619.12 919.63 C 628.12 911.21 647.24 908.79 656.45 913.14" fill="#ffffff" fill-rule="nonzero" node-id="143" stroke="#333333" stroke-linecap="round" stroke-width="7.74" target-height="10.840027" target-width="37.330017" target-x="619.12" target-y="908.79"></path><path d="M 671.88 952.91 C 672.67 957.44 662.53 955.24 650.30 957.02 C 638.07 958.80 628.37 963.87 627.59 959.35 C 626.81 954.83 635.73 946.80 648.00 945.00 C 660.27 943.20 671.09 948.39 671.88 952.91 Z" fill="#352415" fill-rule="nonzero" node-id="145" stroke="none" target-height="20.669983" target-width="45.859985" target-x="626.81" target-y="943.2"></path><path d="M 748.00 948.11 C 748.22 952.06 739.75 947.97 729.09 948.37 C 718.43 948.77 709.60 953.51 709.38 949.56 C 709.16 945.61 717.63 938.27 728.29 937.87 C 738.95 937.47 747.78 944.15 748.00 948.11 Z" fill="#352415" fill-rule="nonzero" node-id="147" stroke="none" target-height="16.04004" target-width="39.059998" target-x="709.16" target-y="937.47"></path><path d="M 684.62 1025.13 C 693.15 1026.01 701.12 1025.50 708.06 1022.41" fill="#ffffff" fill-rule="nonzero" node-id="149" stroke="#333333" stroke-linecap="round" stroke-width="7.74" target-height="3.6000366" target-width="23.440002" target-x="684.62" target-y="1022.41"></path><path d="M 697.83 1101.89 C 765.21 1079.97 762.17 1028.89 762.17 1028.89 C 746.82 1071.75 675.82 1074.35 645.49 1073.44 C 629.98 1073.06 614.75 1069.20 600.92 1062.16 C 549.00 1035.43 542.43 977.00 542.43 977.00 C 524.81 859.16 630.63 837.15 630.63 837.15 C 630.63 837.15 769.09 803.43 773.35 887.36 C 773.35 887.36 808.05 800.30 738.68 751.53 C 719.91 738.35 697.85 728.00 675.00 725.87 C 615.38 720.24 445.65 721.09 426.72 885.93 C 426.72 885.93 406.72 1017.86 514.00 1080.15 C 514.00 1080.15 569.00 1118.37 665.19 1108.59 C 676.28 1107.52 687.22 1105.27 697.83 1101.89 Z" fill="url(#未命名的渐变_18)" fill-rule="nonzero" node-id="151" stroke="#333333" stroke-linecap="round" stroke-width="14" target-height="398.13" target-width="401.33" target-x="406.72" target-y="720.24"></path><g node-id="251"><g clip-path="url(#clip-path)" group-id="1" id="sillyvg_g_0" node-id="153"><path d="M 199.00 389.00 L 576.34 389.00 L 664.17 806.28 L 471.00 839.00 L 199.00 389.00 Z" fill="url(#未命名的渐变_17)" fill-rule="nonzero" group-id="1" node-id="155" stroke="none" target-height="450" target-width="465.16998" target-x="199" target-y="389"></path></g></g><path d="M 549.87 806.28 C 549.87 806.28 160.06 456.65 280.35 226.00 C 292.66 202.40 312.35 181.90 337.94 167.81 C 384.57 142.12 462.94 129.46 517.85 279.81 C 517.85 279.81 588.17 508.56 609.85 787.81" fill="none" node-id="158" stroke="#333333" stroke-linecap="round" stroke-width="14" target-height="676.82" target-width="449.78998" target-x="160.06" target-y="129.46"></path><path d="M 732.69 781.13 C 732.69 781.13 1009.69 373.13 865.11 207.92 C 849.86 190.50 828.75 176.86 803.51 169.49 C 754.35 155.15 675.04 158.75 652.51 316.71 C 652.51 316.71 634.07 486.08 674.70 772.42" fill="#ffffff" fill-opacity="0.17" fill-rule="nonzero" group-id="2" node-id="162" stroke="none" target-height="625.98" target-width="375.62" target-x="634.07" target-y="155.15"></path><path d="M 732.69 781.13 C 732.69 781.13 1009.69 373.13 865.11 207.92 C 849.86 190.50 828.75 176.86 803.51 169.49 C 754.35 155.15 675.04 158.75 652.51 316.71 C 652.51 316.71 634.07 486.08 674.70 772.42" fill="none" group-id="3" node-id="167" stroke="#333333" stroke-linecap="round" stroke-opacity="0.17" stroke-width="14" target-height="625.98" target-width="375.62" target-x="634.07" target-y="155.15"></path><g clip-path="url(#clip-path-2)" group-id="4" id="sillyvg_g_1" node-id="170"><path d="M 629.65 387.00 L 925.00 387.00 L 844.19 839.00 L 619.12 819.00 L 629.65 387.00 Z" fill="url(#未命名的渐变_15)" fill-rule="nonzero" group-id="4" node-id="172" stroke="none" target-height="452" target-width="305.88" target-x="619.12" target-y="387"></path></g><path d="M 732.69 781.13 C 732.69 781.13 1009.69 373.13 865.11 207.92 C 849.86 190.50 828.75 176.86 803.51 169.49 C 754.35 155.15 675.04 158.75 652.51 316.71 C 652.51 316.71 634.07 486.08 674.70 772.42" fill="none" node-id="175" stroke="#333333" stroke-linecap="round" stroke-width="14" target-height="625.98" target-width="375.62" target-x="634.07" target-y="155.15"></path><path d="M 501.43 759.05 C 464.02 782.84 434.06 822.05 426.73 885.93 C 426.73 885.93 406.73 1017.86 514.01 1080.15 C 514.01 1080.15 569.01 1118.37 665.20 1108.59 C 676.28 1107.52 687.22 1105.27 697.83 1101.89 C 765.21 1079.97 762.17 1028.89 762.17 1028.89 C 746.82 1071.75 675.82 1074.35 645.49 1073.44 C 629.98 1073.06 614.75 1069.20 600.92 1062.16 C 549.00 1035.43 542.43 977.00 542.43 977.00 C 524.81 859.16 630.63 837.15 630.63 837.15 C 630.63 837.15 769.09 803.43 773.35 887.36 C 773.35 887.36 805.00 807.96 747.43 758.36" fill="none" node-id="177" stroke="#333333" stroke-linecap="round" stroke-width="14" target-height="360.01" target-width="398.27" target-x="406.73" target-y="758.36"></path><path d="M 667.00 725.21 C 646.35 723.76 625.60 724.05 605.00 726.10" fill="none" node-id="179" stroke="#333333" stroke-linecap="round" stroke-width="14" target-height="2.3399658" target-width="62" target-x="605" target-y="723.76"></path><path d="M 583.00 668.00 C 583.00 672.42 579.42 676.00 575.00 676.00 C 570.58 676.00 567.00 672.42 567.00 668.00 C 567.00 663.58 570.58 660.00 575.00 660.00 C 579.42 660.00 583.00 663.58 583.00 668.00 Z" fill="#ffdec0" fill-rule="nonzero" node-id="181" stroke="#2a1314" stroke-linecap="round" stroke-width="6" target-height="16" target-width="16" target-x="567" target-y="660"></path><path d="M 860.50 367.00 C 860.50 375.01 854.01 381.50 846.00 381.50 C 837.99 381.50 831.50 375.01 831.50 367.00 C 831.50 358.99 837.99 352.50 846.00 352.50 C 854.01 352.50 860.50 358.99 860.50 367.00 Z" fill="#fff5e1" fill-rule="nonzero" node-id="183" stroke="#301913" stroke-linecap="round" stroke-width="5" target-height="29" target-width="29" target-x="831.5" target-y="352.5"></path><path d="M 708.50 456.50 C 708.50 463.13 703.13 468.50 696.50 468.50 C 689.87 468.50 684.50 463.13 684.50 456.50 C 684.50 449.87 689.87 444.50 696.50 444.50 C 703.13 444.50 708.50 449.87 708.50 456.50 Z" fill="#fff5e1" fill-rule="nonzero" node-id="185" stroke="#301913" stroke-linecap="round" stroke-width="5" target-height="24" target-width="24" target-x="684.5" target-y="444.5"></path><path d="M 895.50 423.50 C 895.50 431.78 888.78 438.50 880.50 438.50 C 872.22 438.50 865.50 431.78 865.50 423.50 C 865.50 415.22 872.22 408.50 880.50 408.50 C 888.78 408.50 895.50 415.22 895.50 423.50 Z" fill="#fff5e1" fill-rule="nonzero" node-id="187" stroke="#301913" stroke-linecap="round" stroke-width="5" target-height="30" target-width="30" target-x="865.5" target-y="408.5"></path><path d="M 859.50 541.50 C 859.50 549.23 853.23 555.50 845.50 555.50 C 837.77 555.50 831.50 549.23 831.50 541.50 C 831.50 533.77 837.77 527.50 845.50 527.50 C 853.23 527.50 859.50 533.77 859.50 541.50 Z" fill="#fff5e1" fill-rule="nonzero" node-id="189" stroke="#301913" stroke-linecap="round" stroke-width="5" target-height="28" target-width="28" target-x="831.5" target-y="527.5"></path><path d="M 539.00 495.00 C 539.00 503.84 531.84 511.00 523.00 511.00 C 514.16 511.00 507.00 503.84 507.00 495.00 C 507.00 486.16 514.16 479.00 523.00 479.00 C 531.84 479.00 539.00 486.16 539.00 495.00 Z" fill="#fff5e1" fill-rule="nonzero" node-id="191" stroke="#301913" stroke-linecap="round" stroke-width="5" target-height="32" target-width="32" target-x="507" target-y="479"></path><path d="M 577.00 596.00 C 577.00 604.28 570.28 611.00 562.00 611.00 C 553.72 611.00 547.00 604.28 547.00 596.00 C 547.00 587.72 553.72 581.00 562.00 581.00 C 570.28 581.00 577.00 587.72 577.00 596.00 Z" fill="#fff5e1" fill-rule="nonzero" node-id="193" stroke="#301913" stroke-linecap="round" stroke-width="5" target-height="30" target-width="30" target-x="547" target-y="581"></path><path d="M 739.50 390.50 C 739.50 398.23 733.23 404.50 725.50 404.50 C 717.77 404.50 711.50 398.23 711.50 390.50 C 711.50 382.77 717.77 376.50 725.50 376.50 C 733.23 376.50 739.50 382.77 739.50 390.50 Z" fill="#fff5e1" fill-rule="nonzero" node-id="195" stroke="#301913" stroke-linecap="round" stroke-width="5" target-height="28" target-width="28" target-x="711.5" target-y="376.5"></path><path d="M 431.00 624.00 C 431.00 631.73 424.73 638.00 417.00 638.00 C 409.27 638.00 403.00 631.73 403.00 624.00 C 403.00 616.27 409.27 610.00 417.00 610.00 C 424.73 610.00 431.00 616.27 431.00 624.00 Z" fill="#fff5e1" fill-rule="nonzero" node-id="197" stroke="#301913" stroke-linecap="round" stroke-width="5" target-height="28" target-width="28" target-x="403" target-y="610"></path><path d="M 883.50 337.50 C 883.50 343.58 878.58 348.50 872.50 348.50 C 866.42 348.50 861.50 343.58 861.50 337.50 C 861.50 331.42 866.42 326.50 872.50 326.50 C 878.58 326.50 883.50 331.42 883.50 337.50 Z" fill="#fff5e1" fill-rule="nonzero" node-id="199" stroke="#301913" stroke-linecap="round" stroke-width="5" target-height="22" target-width="22" target-x="861.5" target-y="326.5"></path><path d="M 573.00 541.00 C 573.00 547.08 568.08 552.00 562.00 552.00 C 555.92 552.00 551.00 547.08 551.00 541.00 C 551.00 534.92 555.92 530.00 562.00 530.00 C 568.08 530.00 573.00 534.92 573.00 541.00 Z" fill="#fff5e1" fill-rule="nonzero" node-id="201" stroke="#301913" stroke-linecap="round" stroke-width="5" target-height="22" target-width="22" target-x="551" target-y="530"></path><path d="M 675.00 535.00 C 675.00 541.08 670.08 546.00 664.00 546.00 C 657.92 546.00 653.00 541.08 653.00 535.00 C 653.00 528.92 657.92 524.00 664.00 524.00 C 670.08 524.00 675.00 528.92 675.00 535.00 Z" fill="#fff5e1" fill-rule="nonzero" node-id="203" stroke="#301913" stroke-linecap="round" stroke-width="5" target-height="22" target-width="22" target-x="653" target-y="524"></path><path d="M 553.00 446.00 C 553.00 452.08 548.08 457.00 542.00 457.00 C 535.92 457.00 531.00 452.08 531.00 446.00 C 531.00 439.92 535.92 435.00 542.00 435.00 C 548.08 435.00 553.00 439.92 553.00 446.00 Z" fill="#fff5e1" fill-rule="nonzero" node-id="205" stroke="#301913" stroke-linecap="round" stroke-width="5" target-height="22" target-width="22" target-x="531" target-y="435"></path><path d="M 832.00 607.00 C 832.00 613.08 827.08 618.00 821.00 618.00 C 814.92 618.00 810.00 613.08 810.00 607.00 C 810.00 600.92 814.92 596.00 821.00 596.00 C 827.08 596.00 832.00 600.92 832.00 607.00 Z" fill="#fff5e1" fill-rule="nonzero" node-id="207" stroke="#301913" stroke-linecap="round" stroke-width="5" target-height="22" target-width="22" target-x="810" target-y="596"></path><path d="M 672.50 414.50 C 672.50 420.58 667.58 425.50 661.50 425.50 C 655.42 425.50 650.50 420.58 650.50 414.50 C 650.50 408.42 655.42 403.50 661.50 403.50 C 667.58 403.50 672.50 408.42 672.50 414.50 Z" fill="#fff5e1" fill-rule="nonzero" node-id="209" stroke="#301913" stroke-linecap="round" stroke-width="5" target-height="22" target-width="22" target-x="650.5" target-y="403.5"></path><path d="M 782.50 266.50 C 782.50 270.92 778.92 274.50 774.50 274.50 C 770.08 274.50 766.50 270.92 766.50 266.50 C 766.50 262.08 770.08 258.50 774.50 258.50 C 778.92 258.50 782.50 262.08 782.50 266.50 Z" fill="#fff5e1" fill-rule="nonzero" node-id="211" stroke="#301913" stroke-linecap="round" stroke-width="5" target-height="16" target-width="16" target-x="766.5" target-y="258.5"></path><path d="M 869.00 472.00 C 869.00 476.42 865.42 480.00 861.00 480.00 C 856.58 480.00 853.00 476.42 853.00 472.00 C 853.00 467.58 856.58 464.00 861.00 464.00 C 865.42 464.00 869.00 467.58 869.00 472.00 Z" fill="#fff5e1" fill-rule="nonzero" node-id="213" stroke="#301913" stroke-linecap="round" stroke-width="5" target-height="16" target-width="16" target-x="853" target-y="464"></path><path d="M 712.50 309.50 C 712.50 313.92 708.92 317.50 704.50 317.50 C 700.08 317.50 696.50 313.92 696.50 309.50 C 696.50 305.08 700.08 301.50 704.50 301.50 C 708.92 301.50 712.50 305.08 712.50 309.50 Z" fill="#fff5e1" fill-rule="nonzero" node-id="215" stroke="#301913" stroke-linecap="round" stroke-width="5" target-height="16" target-width="16" target-x="696.5" target-y="301.5"></path><path d="M 847.00 495.00 C 847.00 499.42 843.42 503.00 839.00 503.00 C 834.58 503.00 831.00 499.42 831.00 495.00 C 831.00 490.58 834.58 487.00 839.00 487.00 C 843.42 487.00 847.00 490.58 847.00 495.00 Z" fill="#fff5e1" fill-rule="nonzero" node-id="217" stroke="#301913" stroke-linecap="round" stroke-width="5" target-height="16" target-width="16" target-x="831" target-y="487"></path><path d="M 689.00 587.00 C 689.00 591.42 685.42 595.00 681.00 595.00 C 676.58 595.00 673.00 591.42 673.00 587.00 C 673.00 582.58 676.58 579.00 681.00 579.00 C 685.42 579.00 689.00 582.58 689.00 587.00 Z" fill="#fff5e1" fill-rule="nonzero" node-id="219" stroke="#301913" stroke-linecap="round" stroke-width="5" target-height="16" target-width="16" target-x="673" target-y="579"></path><path d="M 389.00 588.00 C 389.00 592.42 385.42 596.00 381.00 596.00 C 376.58 596.00 373.00 592.42 373.00 588.00 C 373.00 583.58 376.58 580.00 381.00 580.00 C 385.42 580.00 389.00 583.58 389.00 588.00 Z" fill="#fff5e1" fill-rule="nonzero" node-id="221" stroke="#301913" stroke-linecap="round" stroke-width="5" target-height="16" target-width="16" target-x="373" target-y="580"></path><path d="M 349.00 529.00 C 349.00 533.42 345.42 537.00 341.00 537.00 C 336.58 537.00 333.00 533.42 333.00 529.00 C 333.00 524.58 336.58 521.00 341.00 521.00 C 345.42 521.00 349.00 524.58 349.00 529.00 Z" fill="#fff5e1" fill-rule="nonzero" node-id="223" stroke="#301913" stroke-linecap="round" stroke-width="5" target-height="16" target-width="16" target-x="333" target-y="521"></path><path d="M 324.00 415.00 C 324.00 421.63 318.63 427.00 312.00 427.00 C 305.37 427.00 300.00 421.63 300.00 415.00 C 300.00 408.37 305.37 403.00 312.00 403.00 C 318.63 403.00 324.00 408.37 324.00 415.00 Z" fill="#fff5e1" fill-rule="nonzero" node-id="225" stroke="#301913" stroke-linecap="round" stroke-width="5" target-height="24" target-width="24" target-x="300" target-y="403"></path><path d="M 525.00 406.00 C 525.00 410.42 521.42 414.00 517.00 414.00 C 512.58 414.00 509.00 410.42 509.00 406.00 C 509.00 401.58 512.58 398.00 517.00 398.00 C 521.42 398.00 525.00 401.58 525.00 406.00 Z" fill="#fff5e1" fill-rule="nonzero" node-id="227" stroke="#301913" stroke-linecap="round" stroke-width="5" target-height="16" target-width="16" target-x="509" target-y="398"></path><path d="M 689.00 495.00 C 689.00 499.42 685.42 503.00 681.00 503.00 C 676.58 503.00 673.00 499.42 673.00 495.00 C 673.00 490.58 676.58 487.00 681.00 487.00 C 685.42 487.00 689.00 490.58 689.00 495.00 Z" fill="#fff5e1" fill-rule="nonzero" node-id="229" stroke="#301913" stroke-linecap="round" stroke-width="5" target-height="16" target-width="16" target-x="673" target-y="487"></path><path d="M 497.00 336.00 C 497.00 340.42 493.42 344.00 489.00 344.00 C 484.58 344.00 481.00 340.42 481.00 336.00 C 481.00 331.58 484.58 328.00 489.00 328.00 C 493.42 328.00 497.00 331.58 497.00 336.00 Z" fill="#fff5e1" fill-rule="nonzero" node-id="231" stroke="#301913" stroke-linecap="round" stroke-width="5" target-height="16" target-width="16" target-x="481" target-y="328"></path><path d="M 374.00 487.00 C 374.00 491.42 370.42 495.00 366.00 495.00 C 361.58 495.00 358.00 491.42 358.00 487.00 C 358.00 482.58 361.58 479.00 366.00 479.00 C 370.42 479.00 374.00 482.58 374.00 487.00 Z" fill="#fff5e1" fill-rule="nonzero" node-id="233" stroke="#301913" stroke-linecap="round" stroke-width="5" target-height="16" target-width="16" target-x="358" target-y="479"></path><path d="M 381.00 258.00 C 381.00 262.42 377.42 266.00 373.00 266.00 C 368.58 266.00 365.00 262.42 365.00 258.00 C 365.00 253.58 368.58 250.00 373.00 250.00 C 377.42 250.00 381.00 253.58 381.00 258.00 Z" fill="#fff5e1" fill-rule="nonzero" node-id="235" stroke="#301913" stroke-linecap="round" stroke-width="5" target-height="16" target-width="16" target-x="365" target-y="250"></path><path d="M 445.50 391.00 C 445.50 399.01 439.01 405.50 431.00 405.50 C 422.99 405.50 416.50 399.01 416.50 391.00 C 416.50 382.99 422.99 376.50 431.00 376.50 C 439.01 376.50 445.50 382.99 445.50 391.00 Z" fill="#fff5e1" fill-rule="nonzero" node-id="237" stroke="#301913" stroke-linecap="round" stroke-width="5" target-height="29" target-width="29" target-x="416.5" target-y="376.5"></path><path d="M 395.00 549.50 C 395.00 557.51 388.51 564.00 380.50 564.00 C 372.49 564.00 366.00 557.51 366.00 549.50 C 366.00 541.49 372.49 535.00 380.50 535.00 C 388.51 535.00 395.00 541.49 395.00 549.50 Z" fill="#fff5e1" fill-rule="nonzero" node-id="239" stroke="#301913" stroke-linecap="round" stroke-width="5" target-height="29" target-width="29" target-x="366" target-y="535"></path><path d="M 331.00 473.50 C 331.00 481.51 324.51 488.00 316.50 488.00 C 308.49 488.00 302.00 481.51 302.00 473.50 C 302.00 465.49 308.49 459.00 316.50 459.00 C 324.51 459.00 331.00 465.49 331.00 473.50 Z" fill="#fff5e1" fill-rule="nonzero" node-id="241" stroke="#301913" stroke-linecap="round" stroke-width="5" target-height="29" target-width="29" target-x="302" target-y="459"></path><path d="M 366.00 317.00 C 366.00 323.08 361.08 328.00 355.00 328.00 C 348.92 328.00 344.00 323.08 344.00 317.00 C 344.00 310.92 348.92 306.00 355.00 306.00 C 361.08 306.00 366.00 310.92 366.00 317.00 Z" fill="#fff5e1" fill-rule="nonzero" node-id="243" stroke="#301913" stroke-linecap="round" stroke-width="5" target-height="22" target-width="22" target-x="344" target-y="306"></path><path d="M 315.00 365.00 C 315.00 371.08 310.08 376.00 304.00 376.00 C 297.92 376.00 293.00 371.08 293.00 365.00 C 293.00 358.92 297.92 354.00 304.00 354.00 C 310.08 354.00 315.00 358.92 315.00 365.00 Z" fill="#fff5e1" fill-rule="nonzero" node-id="245" stroke="#301913" stroke-linecap="round" stroke-width="5" target-height="22" target-width="22" target-x="293" target-y="354"></path><path d="M 549.87 806.28 C 549.87 806.28 160.06 456.65 280.35 226.00 C 292.66 202.40 312.35 181.90 337.94 167.81 C 384.57 142.12 462.94 129.46 517.85 279.81 C 517.85 279.81 588.17 508.56 609.85 787.81" fill="none" node-id="247" stroke="#333333" stroke-linecap="round" stroke-width="14" target-height="676.82" target-width="449.78998" target-x="160.06" target-y="129.46"></path><path d="M 732.69 781.13 C 732.69 781.13 1009.69 373.13 865.11 207.92 C 849.86 190.50 828.75 176.86 803.51 169.49 C 754.35 155.15 675.04 158.75 652.51 316.71 C 652.51 316.71 634.07 486.08 674.70 772.42" fill="none" node-id="249" stroke="#333333" stroke-linecap="round" stroke-width="14" target-height="625.98" target-width="375.62" target-x="634.07" target-y="155.15"></path></svg>