<svg height="1200" node-id="1" sillyvg="true" template-height="1200" template-width="1200" version="1.1" viewBox="0 0 1200 1200" width="1200" xmlns="http://www.w3.org/2000/svg" xmlns:xlink="http://www.w3.org/1999/xlink"><defs node-id="131"><linearGradient gradientUnits="userSpaceOnUse" id="未命名的渐变_10" node-id="5" spreadMethod="pad" x1="456.57" x2="456.57" y1="152.06" y2="806.28"><stop offset="0" stop-color="#bde897"></stop><stop offset="0.08" stop-color="#b7e89e"></stop><stop offset="0.41" stop-color="#a3e6b4"></stop><stop offset="0.72" stop-color="#97e5c1"></stop><stop offset="1" stop-color="#93e5c6"></stop></linearGradient><linearGradient gradientUnits="userSpaceOnUse" id="未命名的渐变_10-2" node-id="11" spreadMethod="pad" x1="800.6" x2="800.6" y1="164.08" y2="781.13"><stop offset="0" stop-color="#bde897"></stop><stop offset="0.08" stop-color="#b7e89e"></stop><stop offset="0.41" stop-color="#a3e6b4"></stop><stop offset="0.72" stop-color="#97e5c1"></stop><stop offset="1" stop-color="#93e5c6"></stop></linearGradient><linearGradient gradientUnits="userSpaceOnUse" id="未命名的渐变_10-3" node-id="12" spreadMethod="pad" x1="865.97" x2="865.97" y1="143.64" y2="198.78"><stop offset="0" stop-color="#bde897"></stop><stop offset="0.08" stop-color="#b7e89e"></stop><stop offset="0.41" stop-color="#a3e6b4"></stop><stop offset="0.72" stop-color="#97e5c1"></stop><stop offset="1" stop-color="#93e5c6"></stop></linearGradient><linearGradient gradientUnits="userSpaceOnUse" id="未命名的渐变_10-4" node-id="13" spreadMethod="pad" x1="917.67" x2="917.67" y1="219.1" y2="247.26"><stop offset="0" stop-color="#bde897"></stop><stop offset="0.08" stop-color="#b7e89e"></stop><stop offset="0.41" stop-color="#a3e6b4"></stop><stop offset="0.72" stop-color="#97e5c1"></stop><stop offset="1" stop-color="#93e5c6"></stop></linearGradient><linearGradient gradientUnits="userSpaceOnUse" id="未命名的渐变_10-5" node-id="14" spreadMethod="pad" x1="738.77" x2="738.77" y1="139.77" y2="189.11"><stop offset="0" stop-color="#bde897"></stop><stop offset="0.08" stop-color="#b7e89e"></stop><stop offset="0.41" stop-color="#a3e6b4"></stop><stop offset="0.72" stop-color="#97e5c1"></stop><stop offset="1" stop-color="#93e5c6"></stop></linearGradient><linearGradient gradientUnits="userSpaceOnUse" id="未命名的渐变_10-6" node-id="15" spreadMethod="pad" x1="837.43" x2="837.43" y1="267.46" y2="299.39"><stop offset="0" stop-color="#bde897"></stop><stop offset="0.08" stop-color="#b7e89e"></stop><stop offset="0.41" stop-color="#a3e6b4"></stop><stop offset="0.72" stop-color="#97e5c1"></stop><stop offset="1" stop-color="#93e5c6"></stop></linearGradient><linearGradient gradientUnits="userSpaceOnUse" id="未命名的渐变_10-7" node-id="16" spreadMethod="pad" x1="799.22" x2="799.22" y1="108.98" y2="185.4"><stop offset="0" stop-color="#bde897"></stop><stop offset="0.08" stop-color="#b7e89e"></stop><stop offset="0.41" stop-color="#a3e6b4"></stop><stop offset="0.72" stop-color="#97e5c1"></stop><stop offset="1" stop-color="#93e5c6"></stop></linearGradient><linearGradient gradientUnits="userSpaceOnUse" id="未命名的渐变_10-8" node-id="17" spreadMethod="pad" x1="930.3" x2="930.3" y1="336.15" y2="360.33"><stop offset="0" stop-color="#bde897"></stop><stop offset="0.08" stop-color="#b7e89e"></stop><stop offset="0.41" stop-color="#a3e6b4"></stop><stop offset="0.72" stop-color="#97e5c1"></stop><stop offset="1" stop-color="#93e5c6"></stop></linearGradient><linearGradient gradientUnits="userSpaceOnUse" id="未命名的渐变_10-9" node-id="18" spreadMethod="pad" x1="917.24" x2="917.24" y1="434.82" y2="445.46"><stop offset="0" stop-color="#bde897"></stop><stop offset="0.08" stop-color="#b7e89e"></stop><stop offset="0.41" stop-color="#a3e6b4"></stop><stop offset="0.72" stop-color="#97e5c1"></stop><stop offset="1" stop-color="#93e5c6"></stop></linearGradient><linearGradient gradientUnits="userSpaceOnUse" id="未命名的渐变_10-10" node-id="19" spreadMethod="pad" x1="811.8" x2="811.8" y1="472.54" y2="501.56"><stop offset="0" stop-color="#bde897"></stop><stop offset="0.08" stop-color="#b7e89e"></stop><stop offset="0.41" stop-color="#a3e6b4"></stop><stop offset="0.72" stop-color="#97e5c1"></stop><stop offset="1" stop-color="#93e5c6"></stop></linearGradient><linearGradient gradientUnits="userSpaceOnUse" id="未命名的渐变_10-11" node-id="20" spreadMethod="pad" x1="750.33" x2="750.33" y1="348.72" y2="375.81"><stop offset="0" stop-color="#bde897"></stop><stop offset="0.08" stop-color="#b7e89e"></stop><stop offset="0.41" stop-color="#a3e6b4"></stop><stop offset="0.72" stop-color="#97e5c1"></stop><stop offset="1" stop-color="#93e5c6"></stop></linearGradient><linearGradient gradientUnits="userSpaceOnUse" id="未命名的渐变_10-12" node-id="21" spreadMethod="pad" x1="683.63" x2="683.63" y1="214.26" y2="267.46"><stop offset="0" stop-color="#bde897"></stop><stop offset="0.08" stop-color="#b7e89e"></stop><stop offset="0.41" stop-color="#a3e6b4"></stop><stop offset="0.72" stop-color="#97e5c1"></stop><stop offset="1" stop-color="#93e5c6"></stop></linearGradient><linearGradient gradientUnits="userSpaceOnUse" id="未命名的渐变_10-13" node-id="22" spreadMethod="pad" x1="657.02" x2="657.02" y1="337.11" y2="360.33"><stop offset="0" stop-color="#bde897"></stop><stop offset="0.08" stop-color="#b7e89e"></stop><stop offset="0.41" stop-color="#a3e6b4"></stop><stop offset="0.72" stop-color="#97e5c1"></stop><stop offset="1" stop-color="#93e5c6"></stop></linearGradient><linearGradient gradientUnits="userSpaceOnUse" id="未命名的渐变_10-14" node-id="23" spreadMethod="pad" x1="661.38" x2="661.38" y1="439.65" y2="478.35"><stop offset="0" stop-color="#bde897"></stop><stop offset="0.08" stop-color="#b7e89e"></stop><stop offset="0.41" stop-color="#a3e6b4"></stop><stop offset="0.72" stop-color="#97e5c1"></stop><stop offset="1" stop-color="#93e5c6"></stop></linearGradient><linearGradient gradientUnits="userSpaceOnUse" id="未命名的渐变_10-15" node-id="24" spreadMethod="pad" x1="877.1" x2="877.1" y1="549.93" y2="560.57"><stop offset="0" stop-color="#bde897"></stop><stop offset="0.08" stop-color="#b7e89e"></stop><stop offset="0.41" stop-color="#a3e6b4"></stop><stop offset="0.72" stop-color="#97e5c1"></stop><stop offset="1" stop-color="#93e5c6"></stop></linearGradient><linearGradient gradientUnits="userSpaceOnUse" id="未命名的渐变_10-17" node-id="26" spreadMethod="pad" x1="819.6" x2="819.6" y1="670.85" y2="671.17"><stop offset="0" stop-color="#bde897"></stop><stop offset="0.08" stop-color="#b7e89e"></stop><stop offset="0.41" stop-color="#a3e6b4"></stop><stop offset="0.72" stop-color="#97e5c1"></stop><stop offset="1" stop-color="#93e5c6"></stop></linearGradient><linearGradient gradientUnits="userSpaceOnUse" id="未命名的渐变_10-18" node-id="27" spreadMethod="pad" x1="670.85" x2="670.85" y1="555.09" y2="570.24"><stop offset="0" stop-color="#bde897"></stop><stop offset="0.08" stop-color="#b7e89e"></stop><stop offset="0.41" stop-color="#a3e6b4"></stop><stop offset="0.72" stop-color="#97e5c1"></stop><stop offset="1" stop-color="#93e5c6"></stop></linearGradient><linearGradient gradientUnits="userSpaceOnUse" id="未命名的渐变_10-19" node-id="28" spreadMethod="pad" x1="685.51" x2="685.51" y1="670.2" y2="696"><stop offset="0" stop-color="#bde897"></stop><stop offset="0.08" stop-color="#b7e89e"></stop><stop offset="0.41" stop-color="#a3e6b4"></stop><stop offset="0.72" stop-color="#97e5c1"></stop><stop offset="1" stop-color="#93e5c6"></stop></linearGradient><linearGradient gradientUnits="userSpaceOnUse" id="未命名的渐变_10-20" node-id="29" spreadMethod="pad" x1="752.26" x2="752.26" y1="550.02" y2="576.05"><stop offset="0" stop-color="#bde897"></stop><stop offset="0.08" stop-color="#b7e89e"></stop><stop offset="0.41" stop-color="#a3e6b4"></stop><stop offset="0.72" stop-color="#97e5c1"></stop><stop offset="1" stop-color="#93e5c6"></stop></linearGradient><linearGradient gradientUnits="userSpaceOnUse" id="未命名的渐变_10-21" node-id="30" spreadMethod="pad" x1="838.72" x2="838.72" y1="375.81" y2="397.09"><stop offset="0" stop-color="#bde897"></stop><stop offset="0.08" stop-color="#b7e89e"></stop><stop offset="0.41" stop-color="#a3e6b4"></stop><stop offset="0.72" stop-color="#97e5c1"></stop><stop offset="1" stop-color="#93e5c6"></stop></linearGradient><linearGradient gradientUnits="userSpaceOnUse" id="未命名的渐变_10-22" node-id="31" spreadMethod="pad" x1="473.87" x2="473.87" y1="126.23" y2="198.78"><stop offset="0" stop-color="#bde897"></stop><stop offset="0.08" stop-color="#b7e89e"></stop><stop offset="0.41" stop-color="#a3e6b4"></stop><stop offset="0.72" stop-color="#97e5c1"></stop><stop offset="1" stop-color="#93e5c6"></stop></linearGradient><linearGradient gradientUnits="userSpaceOnUse" id="未命名的渐变_10-23" node-id="32" spreadMethod="pad" x1="536.59" x2="536.59" y1="260.69" y2="290.68"><stop offset="0" stop-color="#bde897"></stop><stop offset="0.08" stop-color="#b7e89e"></stop><stop offset="0.41" stop-color="#a3e6b4"></stop><stop offset="0.72" stop-color="#97e5c1"></stop><stop offset="1" stop-color="#93e5c6"></stop></linearGradient><linearGradient gradientUnits="userSpaceOnUse" id="未命名的渐变_10-24" node-id="33" spreadMethod="pad" x1="477.9" x2="477.9" y1="375.81" y2="417.08"><stop offset="0" stop-color="#bde897"></stop><stop offset="0.08" stop-color="#b7e89e"></stop><stop offset="0.41" stop-color="#a3e6b4"></stop><stop offset="0.72" stop-color="#97e5c1"></stop><stop offset="1" stop-color="#93e5c6"></stop></linearGradient><linearGradient gradientUnits="userSpaceOnUse" id="未命名的渐变_10-25" node-id="34" spreadMethod="pad" x1="401.16" x2="401.16" y1="310.99" y2="337.11"><stop offset="0" stop-color="#bde897"></stop><stop offset="0.08" stop-color="#b7e89e"></stop><stop offset="0.41" stop-color="#a3e6b4"></stop><stop offset="0.72" stop-color="#97e5c1"></stop><stop offset="1" stop-color="#93e5c6"></stop></linearGradient><linearGradient gradientUnits="userSpaceOnUse" id="未命名的渐变_10-26" node-id="35" spreadMethod="pad" x1="466.94" x2="466.94" y1="510.27" y2="545.09"><stop offset="0" stop-color="#bde897"></stop><stop offset="0.08" stop-color="#b7e89e"></stop><stop offset="0.41" stop-color="#a3e6b4"></stop><stop offset="0.72" stop-color="#97e5c1"></stop><stop offset="1" stop-color="#93e5c6"></stop></linearGradient><linearGradient gradientUnits="userSpaceOnUse" id="未命名的渐变_10-27" node-id="36" spreadMethod="pad" x1="545.54" x2="545.54" y1="606.68" y2="641.5"><stop offset="0" stop-color="#bde897"></stop><stop offset="0.08" stop-color="#b7e89e"></stop><stop offset="0.41" stop-color="#a3e6b4"></stop><stop offset="0.72" stop-color="#97e5c1"></stop><stop offset="1" stop-color="#93e5c6"></stop></linearGradient><linearGradient gradientUnits="userSpaceOnUse" id="未命名的渐变_10-28" node-id="37" spreadMethod="pad" x1="603.34" x2="603.34" y1="493.82" y2="538.32"><stop offset="0" stop-color="#bde897"></stop><stop offset="0.08" stop-color="#b7e89e"></stop><stop offset="0.41" stop-color="#a3e6b4"></stop><stop offset="0.72" stop-color="#97e5c1"></stop><stop offset="1" stop-color="#93e5c6"></stop></linearGradient><linearGradient gradientUnits="userSpaceOnUse" id="未命名的渐变_10-29" node-id="38" spreadMethod="pad" x1="570.37" x2="570.37" y1="362.26" y2="396.44"><stop offset="0" stop-color="#bde897"></stop><stop offset="0.08" stop-color="#b7e89e"></stop><stop offset="0.41" stop-color="#a3e6b4"></stop><stop offset="0.72" stop-color="#97e5c1"></stop><stop offset="1" stop-color="#93e5c6"></stop></linearGradient><linearGradient gradientUnits="userSpaceOnUse" id="未命名的渐变_10-30" node-id="39" spreadMethod="pad" x1="620.27" x2="620.27" y1="631.19" y2="685.31"><stop offset="0" stop-color="#bde897"></stop><stop offset="0.08" stop-color="#b7e89e"></stop><stop offset="0.41" stop-color="#a3e6b4"></stop><stop offset="0.72" stop-color="#97e5c1"></stop><stop offset="1" stop-color="#93e5c6"></stop></linearGradient><linearGradient gradientUnits="userSpaceOnUse" id="未命名的渐变_10-31" node-id="40" spreadMethod="pad" x1="493.06" x2="493.06" y1="716.31" y2="730.82"><stop offset="0" stop-color="#bde897"></stop><stop offset="0.08" stop-color="#b7e89e"></stop><stop offset="0.41" stop-color="#a3e6b4"></stop><stop offset="0.72" stop-color="#97e5c1"></stop><stop offset="1" stop-color="#93e5c6"></stop></linearGradient><linearGradient gradientUnits="userSpaceOnUse" id="未命名的渐变_10-32" node-id="41" spreadMethod="pad" x1="420.02" x2="420.02" y1="641.5" y2="655.37"><stop offset="0" stop-color="#bde897"></stop><stop offset="0.08" stop-color="#b7e89e"></stop><stop offset="0.41" stop-color="#a3e6b4"></stop><stop offset="0.72" stop-color="#97e5c1"></stop><stop offset="1" stop-color="#93e5c6"></stop></linearGradient><linearGradient gradientUnits="userSpaceOnUse" id="未命名的渐变_10-33" node-id="42" spreadMethod="pad" x1="339.73" x2="339.73" y1="501.56" y2="538.32"><stop offset="0" stop-color="#bde897"></stop><stop offset="0.08" stop-color="#b7e89e"></stop><stop offset="0.41" stop-color="#a3e6b4"></stop><stop offset="0.72" stop-color="#97e5c1"></stop><stop offset="1" stop-color="#93e5c6"></stop></linearGradient><linearGradient gradientUnits="userSpaceOnUse" id="未命名的渐变_10-34" node-id="43" spreadMethod="pad" x1="284.27" x2="284.27" y1="375.81" y2="417.08"><stop offset="0" stop-color="#bde897"></stop><stop offset="0.08" stop-color="#b7e89e"></stop><stop offset="0.41" stop-color="#a3e6b4"></stop><stop offset="0.72" stop-color="#97e5c1"></stop><stop offset="1" stop-color="#93e5c6"></stop></linearGradient><linearGradient gradientUnits="userSpaceOnUse" id="未命名的渐变_10-35" node-id="44" spreadMethod="pad" x1="280.73" x2="280.73" y1="233.61" y2="275.69"><stop offset="0" stop-color="#bde897"></stop><stop offset="0.08" stop-color="#b7e89e"></stop><stop offset="0.41" stop-color="#a3e6b4"></stop><stop offset="0.72" stop-color="#97e5c1"></stop><stop offset="1" stop-color="#93e5c6"></stop></linearGradient><linearGradient gradientUnits="userSpaceOnUse" id="未命名的渐变_10-36" node-id="45" spreadMethod="pad" x1="351.34" x2="351.34" y1="126.23" y2="198.78"><stop offset="0" stop-color="#bde897"></stop><stop offset="0.08" stop-color="#b7e89e"></stop><stop offset="0.41" stop-color="#a3e6b4"></stop><stop offset="0.72" stop-color="#97e5c1"></stop><stop offset="1" stop-color="#93e5c6"></stop></linearGradient></defs><path d="M 0.00 0.00 L 1200.00 0.00 L 1200.00 1200.00 L 0.00 1200.00 Z" fill="#ffedf7" fill-rule="nonzero" node-id="554" stroke="none" target-height="1200" target-width="1200" target-x="0" target-y="0"></path><path d="M 704.91 1084.68 C 803.03 1063.36 793.75 1001.01 783.83 966.56 C 780.43 954.48 780.83 941.65 785.00 929.81 C 794.60 902.06 797.00 878.07 795.62 858.03 C 792.63 816.09 761.35 781.62 719.89 774.59 C 418.89 722.77 516.89 1004.16 516.89 1004.16 C 516.89 1004.16 552.59 1062.69 600.04 1086.06 C 600.00 1086.06 669.83 1101.84 704.91 1084.68 Z" fill="#fffbf3" fill-rule="nonzero" node-id="556" stroke="none" target-height="379.06995" target-width="384.14" target-x="418.89" target-y="722.77"></path><path d="M 659.21 1099.68 C 629.03 1099.68 600.30 1093.32 598.43 1092.89 C 597.89 1092.77 597.37 1092.59 596.88 1092.34 C 548.17 1068.34 512.34 1010.27 510.88 1007.81 C 510.62 1007.38 510.41 1006.93 510.25 1006.46 C 502.74 983.17 497.86 959.11 495.72 934.73 C 491.03 881.40 501.72 837.67 526.72 808.25 C 563.06 765.38 628.47 751.74 721.13 767.69 C 765.81 775.20 799.51 812.35 802.65 857.55 C 804.29 881.22 800.59 906.30 791.65 932.09 C 787.96 942.57 787.61 953.93 790.65 964.62 C 794.10 976.62 804.65 1013.14 786.11 1044.14 C 772.52 1066.91 746.00 1082.79 707.29 1091.34 C 693.81 1097.65 676.28 1099.68 659.21 1099.68 Z M 602.31 1079.41 C 610.00 1081.04 671.31 1093.33 701.83 1078.41 C 702.34 1078.16 702.87 1077.98 703.42 1077.86 C 738.63 1070.21 762.42 1056.46 774.00 1036.99 C 787.80 1013.87 782.38 986.84 777.10 968.52 C 773.26 955.05 773.69 940.73 778.35 927.52 C 786.66 903.52 790.11 880.29 788.60 858.52 C 785.90 819.77 756.98 787.93 718.67 781.52 C 631.26 766.52 570.26 778.52 537.34 817.30 C 484.84 879.19 519.91 991.18 523.19 1001.18 C 527.17 1007.44 560.24 1058.27 602.31 1079.41 Z" fill="#333333" fill-rule="nonzero" node-id="558" stroke="none" target-height="347.94006" target-width="319.81003" target-x="484.84" target-y="751.74"></path><path d="M 733.35 911.26 C 740.35 906.26 754.18 904.51 762.28 910.38" fill="#ffffff" fill-rule="nonzero" node-id="560" stroke="none" target-height="6.75" target-width="28.930054" target-x="733.35" target-y="904.51"></path><path d="M 733.35 915.13 C 731.68 915.12 730.20 914.04 729.68 912.45 C 729.17 910.86 729.74 909.11 731.09 908.13 C 739.33 902.22 755.09 900.40 764.54 907.25 C 765.72 908.04 766.37 909.40 766.24 910.81 C 766.11 912.22 765.22 913.45 763.93 914.01 C 762.63 914.58 761.13 914.39 760.01 913.52 C 753.52 908.82 741.56 910.14 735.61 914.41 C 734.95 914.88 734.16 915.13 733.35 915.13 Z" fill="#333333" fill-rule="nonzero" node-id="562" stroke="none" target-height="14.72998" target-width="37.200012" target-x="729.17" target-y="900.4"></path><path d="M 642.12 919.63 C 651.12 911.21 670.24 908.79 679.45 913.14" fill="#ffffff" fill-rule="nonzero" node-id="564" stroke="none" target-height="10.840027" target-width="37.330017" target-x="642.12" target-y="908.79"></path><path d="M 642.12 923.50 C 640.53 923.50 639.10 922.53 638.52 921.05 C 637.94 919.57 638.32 917.88 639.48 916.80 C 650.06 906.95 670.90 904.80 681.10 909.64 C 683.03 910.55 683.86 912.86 682.95 914.80 C 682.03 916.73 679.72 917.55 677.79 916.64 C 670.03 912.98 652.62 915.15 644.79 922.47 C 644.07 923.15 643.11 923.52 642.12 923.50 Z" fill="#333333" fill-rule="nonzero" node-id="566" stroke="none" target-height="18.720032" target-width="45.919983" target-x="637.94" target-y="904.8"></path><path d="M 690.88 952.91 C 691.67 957.44 681.53 955.24 669.30 957.02 C 657.07 958.80 647.37 963.87 646.59 959.35 C 645.81 954.83 654.73 946.80 667.00 945.00 C 679.27 943.20 690.09 948.39 690.88 952.91 Z" fill="#352415" fill-rule="nonzero" node-id="568" stroke="none" target-height="20.669983" target-width="45.859985" target-x="645.81" target-y="943.2"></path><path d="M 767.00 948.11 C 767.22 952.06 758.75 947.97 748.09 948.37 C 737.43 948.77 728.60 953.51 728.38 949.56 C 728.16 945.61 736.63 938.27 747.29 937.87 C 757.95 937.47 766.78 944.15 767.00 948.11 Z" fill="#352415" fill-rule="nonzero" node-id="570" stroke="none" target-height="16.04004" target-width="39.059998" target-x="728.16" target-y="937.47"></path><path d="M 703.62 1025.13 C 712.15 1026.01 720.12 1025.50 727.06 1022.41" fill="#ffffff" fill-rule="nonzero" node-id="572" stroke="none" target-height="3.6000366" target-width="23.440002" target-x="703.62" target-y="1022.41"></path><path d="M 710.69 1029.38 C 708.19 1029.37 705.69 1029.24 703.21 1028.98 C 701.08 1028.76 699.54 1026.85 699.77 1024.73 C 699.99 1022.60 701.89 1021.06 704.02 1021.28 C 712.79 1022.19 719.81 1021.41 725.48 1018.88 C 726.74 1018.31 728.21 1018.47 729.33 1019.28 C 730.45 1020.09 731.06 1021.44 730.91 1022.82 C 730.76 1024.19 729.90 1025.39 728.63 1025.95 C 722.96 1028.35 716.85 1029.52 710.69 1029.38 Z" fill="#333333" fill-rule="nonzero" node-id="574" stroke="none" target-height="11.210022" target-width="31.52002" target-x="699.54" target-y="1018.31"></path><path d="M 720.83 1101.89 C 788.21 1079.97 785.17 1028.89 785.17 1028.89 C 769.82 1071.75 698.82 1074.35 668.49 1073.44 C 652.98 1073.06 637.75 1069.20 623.92 1062.16 C 572.00 1035.43 565.43 977.00 565.43 977.00 C 547.81 859.16 653.63 837.15 653.63 837.15 C 653.63 837.15 792.09 803.43 796.35 887.36 C 796.35 887.36 831.05 800.30 761.68 751.53 C 742.91 738.35 720.85 728.00 698.00 725.87 C 638.38 720.24 468.65 721.09 449.72 885.93 C 449.72 885.93 429.72 1017.86 537.00 1080.15 C 537.00 1080.15 592.00 1118.37 688.19 1108.59 C 699.28 1107.52 710.22 1105.27 720.83 1101.89 Z" fill="#93e5c6" fill-rule="nonzero" node-id="576" stroke="none" target-height="398.13" target-width="401.33" target-x="429.72" target-y="720.24"></path><path d="M 656.78 1117.21 C 581.11 1117.21 537.45 1088.91 533.27 1086.07 C 487.76 1059.56 457.68 1016.35 446.27 961.07 C 437.89 920.45 442.38 887.69 442.77 884.99 C 447.33 845.44 460.77 812.16 482.77 786.06 C 501.29 764.06 525.96 747.06 556.10 735.42 C 612.58 713.68 674.62 716.61 698.67 718.88 C 720.40 720.93 743.58 730.24 765.67 745.80 C 796.00 767.13 812.00 798.92 812.00 837.75 C 811.99 855.56 808.89 873.24 802.85 890.00 C 801.63 893.05 798.45 894.84 795.20 894.31 C 791.96 893.77 789.53 891.04 789.36 887.76 C 788.57 872.16 782.76 860.53 771.61 852.21 C 735.17 825.00 656.08 843.78 655.28 844.00 L 655.06 844.00 C 637.42 848.57 621.01 856.98 607.00 868.63 C 577.12 893.80 565.46 929.92 572.35 976.00 L 572.35 976.26 C 572.42 976.79 579.25 1031.34 627.10 1055.99 C 640.01 1062.53 654.21 1066.12 668.67 1066.50 C 697.10 1067.35 764.73 1065.17 778.55 1026.58 C 779.67 1023.45 782.84 1021.53 786.13 1022.00 C 789.43 1022.48 791.93 1025.20 792.13 1028.52 C 792.13 1029.12 792.90 1043.33 784.51 1060.30 C 776.93 1075.65 760.09 1096.48 722.97 1108.56 L 722.97 1108.56 C 711.88 1112.09 700.45 1114.44 688.87 1115.56 C 678.21 1116.65 667.50 1117.20 656.78 1117.21 Z M 663.65 731.28 C 593.98 731.28 472.26 751.11 456.65 886.72 C 456.65 886.81 456.65 886.89 456.65 886.98 C 456.65 887.29 451.93 919.57 460.09 958.72 C 470.90 1010.56 497.96 1049.38 540.53 1074.10 C 540.69 1074.19 540.85 1074.30 541.01 1074.41 C 541.47 1074.72 583.68 1103.17 657.36 1103.17 C 667.42 1103.16 677.48 1102.65 687.49 1101.63 C 698.08 1100.60 708.53 1098.46 718.67 1095.23 L 718.67 1095.23 C 745.82 1086.39 760.61 1072.61 768.67 1059.92 C 759.49 1066.09 747.99 1070.91 734.18 1074.40 C 710.52 1080.34 685.29 1080.98 668.30 1080.47 C 651.75 1080.04 635.50 1075.95 620.73 1068.47 C 566.84 1040.65 559.00 982.00 558.49 977.94 C 548.96 913.94 574.95 877.13 598.49 857.53 C 623.19 836.92 649.80 830.84 652.13 830.34 C 656.91 829.19 738.63 810.10 780.02 840.94 C 786.77 845.90 792.32 852.30 796.27 859.68 C 797.45 852.28 798.03 844.80 798.00 837.31 C 797.88 802.96 784.30 776.03 757.63 757.31 C 737.48 743.15 716.63 734.70 697.32 732.88 C 688.89 732.00 677.27 731.28 663.65 731.28 Z" fill="#333333" fill-rule="nonzero" node-id="578" stroke="none" target-height="403.52997" target-width="374.11" target-x="437.89" target-y="713.68"></path><path d="M 572.87 806.28 C 572.87 806.28 183.06 456.65 303.35 226.00 C 315.66 202.40 335.35 181.90 360.94 167.81 C 407.57 142.12 485.94 129.46 540.85 279.81 C 540.85 279.81 611.17 508.56 632.85 787.81" fill="url(#未命名的渐变_10)" fill-rule="nonzero" node-id="580" stroke="none" target-height="676.82" target-width="449.78998" target-x="183.06" target-y="129.46"></path><path d="M 572.86 813.28 C 571.14 813.28 569.47 812.64 568.19 811.49 C 567.19 810.61 469.19 722.22 387.29 606.69 C 339.00 538.58 305.59 474.43 288.00 416.00 C 265.75 342.07 268.82 277.07 297.13 222.79 C 310.45 197.26 331.34 176.14 357.55 161.70 C 389.48 144.12 421.28 140.42 449.55 151.00 C 489.31 165.90 522.25 208.45 547.45 277.47 L 547.57 277.81 C 548.27 280.11 618.37 510.51 639.85 787.35 C 640.15 791.22 637.26 794.59 633.39 794.89 C 629.52 795.19 626.15 792.30 625.85 788.43 C 604.74 516.37 536.44 289.43 534.20 282.09 C 510.47 217.19 480.32 177.50 444.60 164.09 C 420.00 154.89 393.00 158.20 364.32 174.00 C 340.53 187.10 321.59 206.22 309.55 229.30 C 283.00 280.20 280.26 341.63 301.38 411.89 C 318.51 468.83 351.21 531.59 398.58 598.42 C 479.58 712.72 576.58 800.22 577.58 801.09 C 579.74 803.03 580.48 806.10 579.44 808.81 C 578.40 811.51 575.80 813.30 572.90 813.30 Z" fill="#333333" fill-rule="nonzero" node-id="582" stroke="none" target-height="672.88" target-width="374.40002" target-x="265.75" target-y="140.42"></path><path d="M 755.69 781.13 C 755.69 781.13 1032.69 373.13 888.11 207.92 C 872.86 190.50 851.75 176.86 826.51 169.49 C 777.35 155.15 698.04 158.75 675.51 316.71 C 675.51 316.71 657.07 486.08 697.70 772.42" fill="url(#未命名的渐变_10-2)" fill-rule="nonzero" node-id="584" stroke="none" target-height="625.98" target-width="375.61993" target-x="657.07" target-y="155.15"></path><path d="M 755.69 788.13 C 753.10 788.13 750.71 786.70 749.50 784.40 C 748.29 782.11 748.44 779.33 749.90 777.19 C 750.59 776.19 819.44 674.19 869.75 553.60 C 899.16 483.08 916.56 420.12 921.47 366.46 C 927.47 300.46 914.47 248.70 882.84 212.53 C 867.99 195.53 847.84 183.01 824.55 176.21 C 793.91 167.27 767.26 169.90 745.35 184.02 C 713.35 204.66 692.14 249.60 682.41 317.57 C 681.87 322.74 664.99 492.40 704.58 771.44 C 705.13 775.27 702.48 778.82 698.65 779.37 C 694.82 779.92 691.27 777.27 690.72 773.44 C 669.72 625.14 664.72 508.78 664.32 437.27 C 663.85 359.63 668.45 316.42 668.50 315.99 L 668.50 315.76 C 678.83 243.51 702.12 195.24 737.74 172.29 C 762.85 156.11 794.21 152.83 828.44 162.81 C 854.29 170.36 876.73 184.37 893.35 203.35 C 927.64 242.54 941.78 297.89 935.35 367.87 C 930.35 422.97 912.53 487.35 882.54 559.22 C 831.73 681.07 762.18 784.00 761.49 785.06 C 760.19 786.98 758.01 788.13 755.69 788.13 Z" fill="#333333" fill-rule="nonzero" node-id="586" stroke="none" target-height="635.3" target-width="277.93005" target-x="663.85" target-y="152.83"></path><path d="M 856.30 198.78 L 875.64 143.64" fill="url(#未命名的渐变_10-3)" fill-rule="nonzero" node-id="588" stroke="none" target-height="55.14" target-width="19.340027" target-x="856.3" target-y="143.64"></path><path d="M 856.30 202.65 C 855.86 202.65 855.43 202.58 855.02 202.43 C 854.05 202.09 853.26 201.38 852.81 200.46 C 852.37 199.53 852.31 198.47 852.65 197.50 L 872.00 142.36 C 872.71 140.34 874.92 139.28 876.93 139.99 C 878.95 140.69 880.02 142.90 879.31 144.92 L 860.00 200.06 C 859.45 201.63 857.96 202.67 856.30 202.65 Z" fill="#333333" fill-rule="nonzero" node-id="590" stroke="none" target-height="63.39" target-width="27.710022" target-x="852.31" target-y="139.28"></path><path d="M 893.92 247.26 L 941.42 219.10" fill="url(#未命名的渐变_10-4)" fill-rule="nonzero" node-id="592" stroke="none" target-height="28.159988" target-width="47.5" target-x="893.92" target-y="219.1"></path><path d="M 893.92 251.13 C 892.17 251.14 890.63 249.98 890.16 248.30 C 889.69 246.61 890.42 244.82 891.92 243.93 L 939.43 215.77 C 941.27 214.68 943.64 215.29 944.74 217.12 C 945.83 218.96 945.22 221.34 943.38 222.43 L 895.87 250.59 C 895.28 250.94 894.61 251.13 893.92 251.13 Z" fill="#333333" fill-rule="nonzero" node-id="594" stroke="none" target-height="36.460007" target-width="56.140015" target-x="889.69" target-y="214.68"></path><path d="M 751.82 189.11 L 725.71 139.77" fill="url(#未命名的渐变_10-5)" fill-rule="nonzero" node-id="596" stroke="none" target-height="49.339996" target-width="26.109985" target-x="725.71" target-y="139.77"></path><path d="M 751.83 193.00 C 750.39 193.00 749.08 192.21 748.40 190.94 L 722.29 141.60 C 721.61 140.38 721.65 138.88 722.39 137.69 C 723.13 136.50 724.45 135.81 725.84 135.86 C 727.24 135.92 728.50 136.73 729.13 137.98 L 755.24 187.32 C 755.87 188.52 755.83 189.96 755.14 191.12 C 754.44 192.28 753.19 193.00 751.83 193.00 Z" fill="#333333" fill-rule="nonzero" node-id="598" stroke="none" target-height="57.190002" target-width="34.26001" target-x="721.61" target-y="135.81"></path><path d="M 832.11 299.39 L 842.76 267.46" fill="url(#未命名的渐变_10-6)" fill-rule="nonzero" node-id="600" stroke="none" target-height="31.930023" target-width="10.650024" target-x="832.11" target-y="267.46"></path><path d="M 832.12 303.26 C 831.70 303.26 831.29 303.19 830.89 303.06 C 828.86 302.38 827.77 300.19 828.44 298.16 L 839.08 266.24 C 839.76 264.21 841.95 263.11 843.98 263.79 C 846.01 264.47 847.11 266.66 846.43 268.69 L 835.79 300.61 C 835.26 302.19 833.79 303.26 832.12 303.26 Z" fill="#333333" fill-rule="nonzero" node-id="602" stroke="none" target-height="40.150024" target-width="19.339966" target-x="827.77" target-y="263.11"></path><path d="M 795.36 185.40 L 803.09 108.98" fill="url(#未命名的渐变_10-7)" fill-rule="nonzero" node-id="604" stroke="none" target-height="76.41999" target-width="7.7300415" target-x="795.36" target-y="108.98"></path><path d="M 795.36 189.27 C 795.23 189.28 795.10 189.28 794.97 189.27 C 793.95 189.17 793.01 188.66 792.36 187.87 C 791.71 187.07 791.40 186.05 791.51 185.03 L 799.24 108.61 C 799.48 106.50 801.37 104.98 803.48 105.20 C 805.58 105.41 807.13 107.28 806.94 109.39 L 799.21 185.81 C 799.00 187.78 797.34 189.27 795.36 189.27 Z" fill="#333333" fill-rule="nonzero" node-id="606" stroke="none" target-height="84.299995" target-width="15.72998" target-x="791.4" target-y="104.98"></path><path d="M 906.60 360.33 L 954.00 336.15" fill="url(#未命名的渐变_10-8)" fill-rule="nonzero" node-id="608" stroke="none" target-height="24.179993" target-width="47.400024" target-x="906.6" target-y="336.15"></path><path d="M 906.60 364.20 C 904.81 364.20 903.25 362.98 902.83 361.23 C 902.41 359.49 903.24 357.69 904.84 356.88 L 952.24 332.70 C 953.48 332.03 954.98 332.07 956.17 332.83 C 957.36 333.58 958.04 334.93 957.96 336.33 C 957.87 337.74 957.03 338.98 955.76 339.59 L 908.36 363.78 C 907.81 364.05 907.21 364.20 906.60 364.20 Z" fill="#333333" fill-rule="nonzero" node-id="610" stroke="none" target-height="32.170013" target-width="55.630005" target-x="902.41" target-y="332.03"></path><path d="M 892.09 445.46 L 942.39 434.82" fill="url(#未命名的渐变_10-9)" fill-rule="nonzero" node-id="612" stroke="none" target-height="10.639984" target-width="50.299988" target-x="892.09" target-y="434.82"></path><path d="M 892.09 449.33 C 890.10 449.34 888.43 447.84 888.22 445.86 C 888.02 443.88 889.34 442.07 891.29 441.67 L 941.59 431.00 C 942.96 430.67 944.40 431.11 945.35 432.15 C 946.30 433.19 946.61 434.66 946.16 436.00 C 945.71 437.33 944.57 438.32 943.19 438.57 L 892.89 449.21 C 892.63 449.28 892.36 449.32 892.09 449.33 Z" fill="#333333" fill-rule="nonzero" node-id="614" stroke="none" target-height="18.669983" target-width="58.589966" target-x="888.02" target-y="430.67"></path><path d="M 814.70 501.56 L 808.90 472.54" fill="url(#未命名的渐变_10-10)" fill-rule="nonzero" node-id="616" stroke="none" target-height="29.019989" target-width="5.799988" target-x="808.9" target-y="472.54"></path><path d="M 814.70 505.43 C 812.86 505.43 811.27 504.13 810.91 502.32 L 805.10 473.32 C 804.68 471.22 806.04 469.18 808.14 468.77 C 810.23 468.35 812.27 469.70 812.69 471.80 L 818.50 500.80 C 818.74 501.94 818.44 503.12 817.71 504.02 C 816.97 504.92 815.86 505.44 814.70 505.43 Z" fill="#333333" fill-rule="nonzero" node-id="618" stroke="none" target-height="37.089996" target-width="14.059998" target-x="804.68" target-y="468.35"></path><path d="M 758.60 375.81 L 742.06 348.72" fill="url(#未命名的渐变_10-11)" fill-rule="nonzero" node-id="620" stroke="none" target-height="27.089996" target-width="16.539978" target-x="742.06" target-y="348.72"></path><path d="M 758.60 379.68 C 757.25 379.68 755.99 378.98 755.29 377.82 L 738.75 350.74 C 737.80 348.93 738.42 346.69 740.17 345.63 C 741.92 344.57 744.20 345.06 745.36 346.74 L 761.90 373.83 C 762.62 375.03 762.65 376.52 761.97 377.74 C 761.28 378.96 760.00 379.71 758.60 379.72 Z" fill="#333333" fill-rule="nonzero" node-id="622" stroke="none" target-height="35.149994" target-width="24.850037" target-x="737.8" target-y="344.57"></path><path d="M 704.42 267.46 L 662.83 214.26" fill="url(#未命名的渐变_10-12)" fill-rule="nonzero" node-id="624" stroke="none" target-height="53.199997" target-width="41.589966" target-x="662.83" target-y="214.26"></path><path d="M 704.43 271.33 C 703.26 271.32 702.15 270.77 701.43 269.85 L 659.83 216.64 C 658.94 215.55 658.70 214.07 659.22 212.76 C 659.74 211.45 660.92 210.53 662.32 210.34 C 663.71 210.16 665.09 210.75 665.93 211.88 L 707.52 265.08 C 708.84 266.76 708.54 269.19 706.86 270.51 C 706.17 271.06 705.31 271.34 704.43 271.33 Z" fill="#333333" fill-rule="nonzero" node-id="626" stroke="none" target-height="61.179993" target-width="50.140015" target-x="658.7" target-y="210.16"></path><path d="M 683.14 360.33 L 630.91 337.11" fill="url(#未命名的渐变_10-13)" fill-rule="nonzero" node-id="628" stroke="none" target-height="23.220001" target-width="52.23004" target-x="630.91" target-y="337.11"></path><path d="M 683.14 364.20 C 682.60 364.20 682.07 364.08 681.57 363.87 L 629.33 340.65 C 628.06 340.09 627.20 338.89 627.05 337.52 C 626.90 336.14 627.51 334.79 628.63 333.98 C 629.75 333.17 631.22 333.01 632.48 333.58 L 684.71 356.79 C 686.38 357.53 687.31 359.34 686.93 361.13 C 686.55 362.92 684.97 364.20 683.14 364.20 Z" fill="#333333" fill-rule="nonzero" node-id="630" stroke="none" target-height="31.190002" target-width="60.409973" target-x="626.9" target-y="333.01"></path><path d="M 683.14 478.35 L 639.61 439.65" fill="url(#未命名的渐变_10-14)" fill-rule="nonzero" node-id="632" stroke="none" target-height="38.700012" target-width="43.53003" target-x="639.61" target-y="439.65"></path><path d="M 683.14 482.22 C 682.19 482.21 681.28 481.86 680.57 481.22 L 637.00 442.54 C 635.91 441.64 635.40 440.21 635.67 438.82 C 635.93 437.43 636.94 436.30 638.29 435.87 C 639.64 435.44 641.12 435.78 642.14 436.76 L 685.67 475.45 C 686.88 476.52 687.30 478.22 686.73 479.72 C 686.15 481.23 684.71 482.22 683.10 482.22 Z" fill="#333333" fill-rule="nonzero" node-id="634" stroke="none" target-height="46.78" target-width="51.899963" target-x="635.4" target-y="435.44"></path><path d="M 856.30 560.57 L 897.89 549.93" fill="url(#未命名的渐变_10-15)" fill-rule="nonzero" node-id="636" stroke="none" target-height="10.640015" target-width="41.590027" target-x="856.3" target-y="549.93"></path><path d="M 856.29 564.44 C 854.34 564.44 852.70 562.98 852.46 561.05 C 852.21 559.11 853.45 557.30 855.34 556.82 L 896.93 546.18 C 899.00 545.65 901.11 546.90 901.64 548.97 C 902.17 551.04 900.92 553.15 898.85 553.68 L 857.26 564.32 C 856.94 564.40 856.62 564.44 856.29 564.44 Z" fill="#333333" fill-rule="nonzero" node-id="638" stroke="none" target-height="18.789978" target-width="49.95996" target-x="852.21" target-y="545.65"></path><path d="M 801.29 671.17 L 837.92 670.85" fill="url(#未命名的渐变_10-17)" fill-rule="nonzero" node-id="640" stroke="none" target-height="0.32000732" target-width="36.630005" target-x="801.29" target-y="670.85"></path><path d="M 801.29 675.00 C 799.15 675.00 797.42 673.27 797.42 671.13 C 797.42 668.99 799.15 667.26 801.29 667.26 L 837.92 666.94 L 837.92 666.94 C 840.06 666.94 841.79 668.67 841.79 670.81 C 841.79 672.95 840.06 674.68 837.92 674.68 L 801.29 675.00 Z" fill="#333333" fill-rule="nonzero" node-id="642" stroke="none" target-height="8.059998" target-width="44.369995" target-x="797.42" target-y="666.94"></path><path d="M 692.82 570.24 L 648.89 555.09" fill="url(#未命名的渐变_10-18)" fill-rule="nonzero" node-id="644" stroke="none" target-height="15.149963" target-width="43.929993" target-x="648.89" target-y="555.09"></path><path d="M 692.82 574.11 C 692.39 574.11 691.96 574.04 691.55 573.90 L 647.63 558.75 C 645.61 558.05 644.53 555.85 645.23 553.83 C 645.93 551.81 648.13 550.73 650.15 551.43 L 694.08 566.59 C 695.85 567.21 696.92 569.02 696.61 570.88 C 696.30 572.73 694.70 574.10 692.82 574.11 Z" fill="#333333" fill-rule="nonzero" node-id="646" stroke="none" target-height="23.380005" target-width="52.389954" target-x="644.53" target-y="550.73"></path><path d="M 704.42 696.00 L 666.59 670.20" fill="url(#未命名的渐变_10-19)" fill-rule="nonzero" node-id="648" stroke="none" target-height="25.799988" target-width="37.829956" target-x="666.59" target-y="670.2"></path><path d="M 704.42 699.87 C 703.65 699.87 702.89 699.64 702.25 699.20 L 664.41 673.40 C 663.22 672.64 662.53 671.30 662.62 669.88 C 662.71 668.47 663.56 667.23 664.84 666.63 C 666.12 666.03 667.63 666.18 668.77 667.01 L 706.60 692.80 C 708.01 693.76 708.62 695.52 708.12 697.14 C 707.62 698.76 706.12 699.87 704.42 699.87 Z" fill="#333333" fill-rule="nonzero" node-id="650" stroke="none" target-height="33.839966" target-width="46.089966" target-x="662.53" target-y="666.03"></path><path d="M 762.47 576.05 L 742.06 550.02" fill="url(#未命名的渐变_10-20)" fill-rule="nonzero" node-id="652" stroke="none" target-height="26.029968" target-width="20.409973" target-x="742.06" target-y="550.02"></path><path d="M 762.47 579.92 C 761.28 579.92 760.16 579.38 759.42 578.44 L 739.00 552.40 C 737.77 550.71 738.10 548.36 739.74 547.07 C 741.38 545.78 743.75 546.03 745.09 547.63 L 765.50 573.63 C 766.40 574.79 766.57 576.36 765.94 577.69 C 765.30 579.01 763.97 579.87 762.50 579.89 Z" fill="#333333" fill-rule="nonzero" node-id="654" stroke="none" target-height="34.139954" target-width="28.799988" target-x="737.77" target-y="545.78"></path><path d="M 826.31 397.09 L 851.14 375.81" fill="url(#未命名的渐变_10-21)" fill-rule="nonzero" node-id="656" stroke="none" target-height="21.279999" target-width="24.830017" target-x="826.31" target-y="375.81"></path><path d="M 826.31 401.00 C 824.69 401.00 823.24 399.99 822.68 398.47 C 822.11 396.95 822.56 395.24 823.79 394.19 L 848.62 372.91 C 850.26 371.72 852.54 371.99 853.85 373.53 C 855.16 375.07 855.06 377.37 853.62 378.79 L 828.83 400.00 C 828.14 400.62 827.24 400.98 826.31 401.00 Z" fill="#333333" fill-rule="nonzero" node-id="658" stroke="none" target-height="29.279999" target-width="33.049988" target-x="822.11" target-y="371.72"></path><path d="M 465.49 198.78 L 482.26 126.23" fill="url(#未命名的渐变_10-22)" fill-rule="nonzero" node-id="660" stroke="none" target-height="72.549995" target-width="16.77002" target-x="465.49" target-y="126.23"></path><path d="M 465.49 202.65 C 465.20 202.65 464.91 202.62 464.62 202.55 C 462.54 202.07 461.24 199.99 461.72 197.91 L 478.49 125.36 C 479.11 123.46 481.09 122.35 483.04 122.80 C 484.99 123.25 486.28 125.12 486.00 127.10 L 469.23 199.65 C 468.83 201.39 467.28 202.64 465.49 202.65 Z" fill="#333333" fill-rule="nonzero" node-id="662" stroke="none" target-height="80.299995" target-width="25.040009" target-x="461.24" target-y="122.35"></path><path d="M 518.69 290.68 L 554.49 260.69" fill="url(#未命名的渐变_10-23)" fill-rule="nonzero" node-id="664" stroke="none" target-height="29.98999" target-width="35.799988" target-x="518.69" target-y="260.69"></path><path d="M 518.70 294.55 C 517.07 294.55 515.61 293.54 515.05 292.00 C 514.50 290.47 514.96 288.76 516.21 287.71 L 552.00 257.71 C 553.64 256.33 556.08 256.54 557.47 258.18 C 558.85 259.81 558.64 262.26 557.00 263.64 L 521.21 293.64 C 520.51 294.23 519.62 294.55 518.70 294.55 Z" fill="#333333" fill-rule="nonzero" node-id="666" stroke="none" target-height="38.22" target-width="44.349976" target-x="514.5" target-y="256.33"></path><path d="M 473.87 417.08 L 481.93 375.81" fill="url(#未命名的渐变_10-24)" fill-rule="nonzero" node-id="668" stroke="none" target-height="41.26999" target-width="8.059998" target-x="473.87" target-y="375.81"></path><path d="M 473.88 421.00 C 473.63 421.00 473.38 420.98 473.13 420.93 C 472.12 420.73 471.23 420.15 470.66 419.29 C 470.09 418.44 469.88 417.40 470.08 416.39 L 478.14 375.12 C 478.35 373.71 479.32 372.54 480.66 372.06 C 481.99 371.58 483.49 371.87 484.55 372.82 C 485.61 373.76 486.06 375.22 485.73 376.60 L 477.67 417.87 C 477.32 419.68 475.73 421.00 473.88 421.00 Z" fill="#333333" fill-rule="nonzero" node-id="670" stroke="none" target-height="49.420013" target-width="16.179993" target-x="469.88" target-y="371.58"></path><path d="M 422.93 337.11 L 379.40 310.99" fill="url(#未命名的渐变_10-25)" fill-rule="nonzero" node-id="672" stroke="none" target-height="26.119995" target-width="43.53" target-x="379.4" target-y="310.99"></path><path d="M 422.92 341.00 C 422.22 341.01 421.52 340.82 420.92 340.45 L 377.39 314.33 C 375.56 313.23 374.97 310.85 376.07 309.01 C 377.18 307.18 379.56 306.60 381.39 307.70 L 424.92 333.82 C 426.40 334.72 427.11 336.50 426.64 338.17 C 426.18 339.84 424.66 341.00 422.92 341.00 Z" fill="#333333" fill-rule="nonzero" node-id="674" stroke="none" target-height="34.410004" target-width="52.139984" target-x="374.97" target-y="306.6"></path><path d="M 495.48 545.09 L 438.40 510.27" fill="url(#未命名的渐变_10-26)" fill-rule="nonzero" node-id="676" stroke="none" target-height="34.820038" target-width="57.080017" target-x="438.4" target-y="510.27"></path><path d="M 495.47 549.00 C 494.76 549.00 494.07 548.80 493.47 548.44 L 436.40 513.61 C 435.13 512.94 434.33 511.62 434.33 510.18 C 434.33 508.74 435.13 507.43 436.40 506.76 C 437.68 506.09 439.22 506.18 440.40 507.00 L 497.47 541.83 C 498.94 542.73 499.64 544.50 499.18 546.17 C 498.71 547.84 497.20 548.99 495.47 549.00 Z" fill="#333333" fill-rule="nonzero" node-id="678" stroke="none" target-height="42.910004" target-width="65.31003" target-x="434.33" target-y="506.09"></path><path d="M 536.59 641.50 L 554.49 606.68" fill="url(#未命名的渐变_10-27)" fill-rule="nonzero" node-id="680" stroke="none" target-height="34.820007" target-width="17.899963" target-x="536.59" target-y="606.68"></path><path d="M 536.59 645.38 C 535.24 645.38 533.99 644.68 533.29 643.53 C 532.59 642.37 532.53 640.94 533.15 639.74 L 551.00 604.91 C 551.98 603.01 554.31 602.26 556.21 603.24 C 558.12 604.21 558.87 606.55 557.89 608.45 L 540.00 643.27 C 539.35 644.55 538.03 645.37 536.59 645.38 Z" fill="#333333" fill-rule="nonzero" node-id="682" stroke="none" target-height="43.119995" target-width="26.339966" target-x="532.53" target-y="602.26"></path><path d="M 586.41 538.32 L 620.27 493.82" fill="url(#未命名的渐变_10-28)" fill-rule="nonzero" node-id="684" stroke="none" target-height="44.5" target-width="33.860046" target-x="586.41" target-y="493.82"></path><path d="M 586.41 542.19 C 584.94 542.19 583.60 541.36 582.95 540.04 C 582.29 538.72 582.44 537.15 583.33 535.98 L 617.19 491.48 C 618.01 490.32 619.39 489.70 620.80 489.86 C 622.21 490.02 623.42 490.95 623.95 492.26 C 624.48 493.58 624.24 495.08 623.34 496.17 L 589.49 540.66 C 588.76 541.63 587.62 542.19 586.41 542.19 Z" fill="#333333" fill-rule="nonzero" node-id="686" stroke="none" target-height="52.48999" target-width="42.190002" target-x="582.29" target-y="489.7"></path><path d="M 554.49 396.44 L 586.25 362.26" fill="url(#未命名的渐变_10-29)" fill-rule="nonzero" node-id="688" stroke="none" target-height="34.179993" target-width="31.76001" target-x="554.49" target-y="362.26"></path><path d="M 554.48 400.31 C 552.94 400.32 551.54 399.40 550.93 397.99 C 550.31 396.58 550.60 394.93 551.65 393.81 L 583.41 359.63 C 584.87 358.06 587.31 357.97 588.88 359.43 C 590.45 360.89 590.54 363.33 589.08 364.90 L 557.32 399.08 C 556.59 399.87 555.56 400.31 554.48 400.31 Z" fill="#333333" fill-rule="nonzero" node-id="690" stroke="none" target-height="42.350006" target-width="40.22998" target-x="550.31" target-y="357.97"></path><path d="M 609.62 685.31 L 630.91 631.19" fill="url(#未命名的渐变_10-30)" fill-rule="nonzero" node-id="692" stroke="none" target-height="54.119995" target-width="21.289978" target-x="609.62" target-y="631.19"></path><path d="M 609.62 689.18 C 608.34 689.19 607.14 688.56 606.41 687.50 C 605.69 686.44 605.54 685.09 606.02 683.90 L 627.31 629.77 C 628.14 627.85 630.34 626.93 632.28 627.70 C 634.23 628.46 635.21 630.63 634.51 632.60 L 613.22 686.73 C 612.64 688.21 611.21 689.19 609.62 689.18 Z" fill="#333333" fill-rule="nonzero" node-id="694" stroke="none" target-height="62.26001" target-width="29.670044" target-x="605.54" target-y="626.93"></path><path d="M 518.69 716.31 L 467.42 730.82" fill="url(#未命名的渐变_10-31)" fill-rule="nonzero" node-id="696" stroke="none" target-height="14.51001" target-width="51.26999" target-x="467.42" target-y="716.31"></path><path d="M 467.42 734.69 C 465.49 734.68 463.87 733.26 463.60 731.35 C 463.34 729.44 464.52 727.63 466.37 727.10 L 517.64 712.59 C 519.70 712.01 521.84 713.20 522.42 715.26 C 523.00 717.32 521.81 719.46 519.75 720.04 L 468.48 734.55 C 468.13 734.65 467.78 734.69 467.42 734.69 Z" fill="#333333" fill-rule="nonzero" node-id="698" stroke="none" target-height="22.679993" target-width="59.660004" target-x="463.34" target-y="712.01"></path><path d="M 438.40 641.50 L 401.64 655.37" fill="url(#未命名的渐变_10-32)" fill-rule="nonzero" node-id="700" stroke="none" target-height="13.869995" target-width="36.75998" target-x="401.64" target-y="641.5"></path><path d="M 401.65 659.24 C 399.78 659.24 398.18 657.91 397.84 656.07 C 397.51 654.23 398.53 652.41 400.28 651.75 L 437.00 637.88 C 438.98 637.19 441.16 638.20 441.90 640.17 C 442.64 642.13 441.68 644.33 439.73 645.12 L 403.00 659.00 C 402.57 659.16 402.11 659.24 401.65 659.24 Z" fill="#333333" fill-rule="nonzero" node-id="702" stroke="none" target-height="22.049988" target-width="45.130005" target-x="397.51" target-y="637.19"></path><path d="M 361.02 501.56 L 318.45 538.32" fill="url(#未命名的渐变_10-33)" fill-rule="nonzero" node-id="704" stroke="none" target-height="36.76001" target-width="42.569977" target-x="318.45" target-y="501.56"></path><path d="M 318.45 542.19 C 316.83 542.19 315.39 541.19 314.82 539.67 C 314.26 538.15 314.70 536.45 315.92 535.39 L 358.49 498.63 C 360.11 497.23 362.55 497.41 363.95 499.03 C 365.35 500.65 365.17 503.09 363.55 504.49 L 321.00 541.25 C 320.29 541.86 319.39 542.20 318.45 542.19 Z" fill="#333333" fill-rule="nonzero" node-id="706" stroke="none" target-height="44.97" target-width="51.089996" target-x="314.26" target-y="497.23"></path><path d="M 312.00 417.08 L 256.54 375.81" fill="url(#未命名的渐变_10-34)" fill-rule="nonzero" node-id="708" stroke="none" target-height="41.26999" target-width="55.45999" target-x="256.54" target-y="375.81"></path><path d="M 312.00 421.00 C 311.17 421.00 310.36 420.73 309.69 420.23 L 254.23 378.96 C 252.52 377.68 252.16 375.26 253.44 373.55 C 254.71 371.83 257.14 371.47 258.85 372.75 L 314.31 414.00 C 315.67 414.99 316.24 416.75 315.71 418.34 C 315.18 419.94 313.68 421.01 312.00 421.00 Z" fill="#333333" fill-rule="nonzero" node-id="710" stroke="none" target-height="49.54001" target-width="64.07999" target-x="252.16" target-y="371.47"></path><path d="M 318.45 275.69 L 243.00 233.61" fill="url(#未命名的渐变_10-35)" fill-rule="nonzero" node-id="712" stroke="none" target-height="42.08" target-width="75.45001" target-x="243" target-y="233.61"></path><path d="M 318.45 279.56 C 317.79 279.56 317.14 279.39 316.57 279.07 L 241.12 237.00 C 239.86 236.36 239.05 235.08 239.01 233.66 C 238.97 232.25 239.71 230.92 240.93 230.21 C 242.15 229.50 243.67 229.51 244.88 230.24 L 320.34 272.32 C 321.88 273.18 322.64 274.97 322.20 276.68 C 321.76 278.38 320.21 279.57 318.45 279.57 Z" fill="#333333" fill-rule="nonzero" node-id="714" stroke="none" target-height="50.070007" target-width="83.67001" target-x="238.97" target-y="229.5"></path><path d="M 361.02 198.78 L 341.67 126.23" fill="url(#未命名的渐变_10-36)" fill-rule="nonzero" node-id="716" stroke="none" target-height="72.549995" target-width="19.349976" target-x="341.67" target-y="126.23"></path><path d="M 361.00 202.65 C 359.25 202.65 357.72 201.47 357.27 199.78 L 337.92 127.23 C 337.37 125.16 338.59 123.04 340.66 122.49 C 342.73 121.94 344.85 123.16 345.40 125.23 L 364.74 197.79 C 365.01 198.78 364.87 199.84 364.36 200.73 C 363.84 201.61 362.99 202.26 362.00 202.52 C 361.67 202.61 361.34 202.65 361.00 202.65 Z" fill="#333333" fill-rule="nonzero" node-id="718" stroke="none" target-height="80.70999" target-width="27.640015" target-x="337.37" target-y="121.94"></path></svg>