<svg height="1200" node-id="1" sillyvg="true" template-height="1200" template-width="1200" version="1.1" viewBox="0 0 1200 1200" width="1200" xmlns="http://www.w3.org/2000/svg" xmlns:xlink="http://www.w3.org/1999/xlink"><defs node-id="37"><linearGradient gradientUnits="userSpaceOnUse" id="未命名的渐变_23-2" node-id="9" spreadMethod="pad" x1="456.57" x2="456.57" y1="150.06" y2="804.28"><stop offset="0" stop-color="#7f1dcc"></stop><stop offset="0.63" stop-color="#3070ec"></stop><stop offset="1" stop-color="#00a4ff"></stop></linearGradient><linearGradient gradientUnits="userSpaceOnUse" id="未命名的渐变_23" node-id="5" spreadMethod="pad" x1="800.6" x2="800.6" y1="162.08" y2="779.13"><stop offset="0" stop-color="#7f1dcc"></stop><stop offset="0.63" stop-color="#3070ec"></stop><stop offset="1" stop-color="#00a4ff"></stop></linearGradient><clipPath id="clip-path" node-id="10"><path d="M 755.69 779.13 C 755.69 779.13 1032.69 371.13 888.11 205.92 C 872.86 188.50 851.75 174.86 826.51 167.49 C 777.35 153.15 698.04 156.75 675.51 314.71 C 675.51 314.71 657.07 484.08 697.70 770.42" fill="#000000" fill-rule="nonzero" node-id="56" stroke="none" target-height="625.98" target-width="375.61993" target-x="657.07" target-y="153.15"></path></clipPath></defs><path d="M 0.00 0.00 L 1200.00 0.00 L 1200.00 1200.00 L 0.00 1200.00 Z" fill="#d7e5ff" fill-rule="nonzero" node-id="60" stroke="none" target-height="1200" target-width="1200" target-x="0" target-y="0"></path><path d="M 704.91 1082.68 C 803.00 1061.36 793.75 999.00 783.83 964.56 C 780.43 952.48 780.83 939.65 785.00 927.81 C 794.60 900.06 797.00 876.07 795.62 856.03 C 792.63 814.09 761.35 779.62 719.89 772.59 C 418.89 720.77 516.89 1002.16 516.89 1002.16 C 516.89 1002.16 552.59 1060.69 600.04 1084.06 C 600.00 1084.06 669.83 1099.84 704.91 1082.68 Z" fill="#fffbf3" fill-rule="nonzero" node-id="62" stroke="#333333" stroke-linecap="round" stroke-width="14" target-height="379.06995" target-width="384.11" target-x="418.89" target-y="720.77"></path><path d="M 733.35 909.26 C 740.35 904.26 754.18 902.51 762.28 908.38" fill="#ffffff" fill-rule="nonzero" node-id="64" stroke="#333333" stroke-linecap="round" stroke-width="7.74" target-height="6.75" target-width="28.930054" target-x="733.35" target-y="902.51"></path><path d="M 642.12 917.63 C 651.12 909.21 670.24 906.79 679.45 911.14" fill="#ffffff" fill-rule="nonzero" node-id="66" stroke="#333333" stroke-linecap="round" stroke-width="7.74" target-height="10.840027" target-width="37.330017" target-x="642.12" target-y="906.79"></path><path d="M 703.62 1023.13 C 712.15 1024.01 720.12 1023.50 727.06 1020.41" fill="#ffffff" fill-rule="nonzero" node-id="68" stroke="#333333" stroke-linecap="round" stroke-width="7.74" target-height="3.6000366" target-width="23.440002" target-x="703.62" target-y="1020.41"></path><path d="M 720.83 1099.89 C 788.21 1077.97 785.17 1026.89 785.17 1026.89 C 769.82 1069.75 698.82 1072.35 668.49 1071.44 C 652.98 1071.06 637.75 1067.20 623.92 1060.16 C 572.00 1033.43 565.43 975.00 565.43 975.00 C 547.81 857.16 653.63 835.15 653.63 835.15 C 653.63 835.15 792.09 801.43 796.35 885.36 C 796.35 885.36 831.05 798.30 761.68 749.53 C 742.91 736.35 720.85 726.00 698.00 723.87 C 638.38 718.24 468.65 719.09 449.72 883.93 C 449.72 883.93 429.72 1015.86 537.00 1078.15 C 537.00 1078.15 592.00 1116.37 688.19 1106.59 C 699.28 1105.52 710.22 1103.27 720.83 1099.89 Z" fill="#00a4ff" fill-rule="nonzero" node-id="70" stroke="#333333" stroke-linecap="round" stroke-width="14" target-height="398.13" target-width="401.33" target-x="429.72" target-y="718.24"></path><path d="M 572.87 804.28 C 572.87 804.28 183.06 454.65 303.35 224.00 C 315.66 200.40 335.35 179.90 360.94 165.81 C 407.57 140.12 485.94 127.46 540.85 277.81 C 540.85 277.81 611.17 506.56 632.85 785.81" fill="url(#未命名的渐变_23-2)" fill-rule="nonzero" node-id="72" stroke="none" target-height="676.82" target-width="449.78998" target-x="183.06" target-y="127.46"></path><path d="M 572.87 804.28 C 572.87 804.28 183.06 454.65 303.35 224.00 C 315.66 200.40 335.35 179.90 360.94 165.81 C 407.57 140.12 485.94 127.46 540.85 277.81 C 540.85 277.81 611.17 506.56 632.85 785.81" fill="none" node-id="74" stroke="#333333" stroke-linecap="round" stroke-width="14" target-height="676.82" target-width="449.78998" target-x="183.06" target-y="127.46"></path><path d="M 755.69 779.13 C 755.69 779.13 1032.69 371.13 888.11 205.92 C 872.86 188.50 851.75 174.86 826.51 167.49 C 777.35 153.15 698.04 156.75 675.51 314.71 C 675.51 314.71 657.07 484.08 697.70 770.42" fill="url(#未命名的渐变_23)" fill-rule="nonzero" node-id="76" stroke="none" target-height="625.98" target-width="375.61993" target-x="657.07" target-y="153.15"></path><g node-id="115"><g clip-path="url(#clip-path)" group-id="1" id="sillyvg_g_0" node-id="78"><path d="M 728.00 129.55 C 784.00 140.00 905.79 250.67 771.80 354.91 C 771.80 354.91 741.44 377.28 713.36 380.72 C 713.36 380.72 917.20 416.43 916.00 253.00 C 916.00 253.00 925.00 117.00 728.00 129.55 Z" fill="#fffa9f" fill-rule="nonzero" group-id="1" node-id="80" stroke="#333333" stroke-linecap="round" stroke-width="8" target-height="299.43" target-width="211.64001" target-x="713.36" target-y="117"></path></g></g><path d="M 755.69 779.13 C 755.69 779.13 1032.69 371.13 888.11 205.92 C 872.86 188.50 851.75 174.86 826.51 167.49 C 777.35 153.15 698.04 156.75 675.51 314.71 C 675.51 314.71 657.07 484.08 697.70 770.42" fill="none" node-id="83" stroke="#333333" stroke-linecap="round" stroke-width="14" target-height="625.98" target-width="375.61993" target-x="657.07" target-y="153.15"></path><path d="M 527.89 509.39 L 545.25 518.34 L 528.34 528.12 L 519.38 549.61 L 509.61 528.57 L 492.25 519.61 L 509.16 509.83 L 518.12 487.65 L 527.89 509.39 Z" fill="#e7c5ff" fill-rule="nonzero" node-id="85" stroke="#333333" stroke-linecap="round" stroke-width="8" target-height="61.95999" target-width="53" target-x="492.25" target-y="487.65"></path><path d="M 840.89 478.39 L 858.25 487.34 L 841.34 497.12 L 832.38 518.61 L 822.61 497.57 L 805.25 488.61 L 822.16 478.83 L 831.12 456.65 L 840.89 478.39 Z" fill="#a1fbff" fill-rule="nonzero" node-id="87" stroke="#333333" stroke-linecap="round" stroke-width="8" target-height="61.95999" target-width="53" target-x="805.25" target-y="456.65"></path><path d="M 737.69 571.55 L 760.36 583.25 L 738.28 596.03 L 726.58 624.10 L 713.81 596.61 L 691.14 584.91 L 713.22 572.14 L 724.92 543.17 L 737.69 571.55 Z" fill="#e7c5ff" fill-rule="nonzero" node-id="89" stroke="#333333" stroke-linecap="round" stroke-width="8" target-height="80.92999" target-width="69.21997" target-x="691.14" target-y="543.17"></path><path d="M 504.69 875.55 L 527.36 887.25 L 505.28 900.03 L 493.58 928.10 L 480.81 900.61 L 458.14 888.91 L 480.22 876.14 L 491.92 847.17 L 504.69 875.55 Z" fill="#fffa9f" fill-rule="nonzero" node-id="91" stroke="#333333" stroke-linecap="round" stroke-width="8" target-height="80.92999" target-width="69.21997" target-x="458.14" target-y="847.17"></path><path d="M 360.61 418.68 L 377.42 427.35 L 361.04 436.82 L 352.36 457.64 L 342.89 437.26 L 326.08 428.58 L 342.46 419.11 L 351.13 397.63 L 360.61 418.68 Z" fill="#fffa9f" fill-rule="nonzero" node-id="93" stroke="#333333" stroke-linecap="round" stroke-width="8" target-height="60.01001" target-width="51.340027" target-x="326.08" target-y="397.63"></path><path d="M 564.61 1004.68 L 581.42 1013.35 L 565.04 1022.83 L 556.36 1043.64 L 546.89 1023.26 L 530.08 1014.58 L 546.46 1005.11 L 555.13 983.63 L 564.61 1004.68 Z" fill="#76ffa0" fill-rule="nonzero" node-id="95" stroke="#333333" stroke-linecap="round" stroke-width="8" target-height="60.01001" target-width="51.339966" target-x="530.08" target-y="983.63"></path><path d="M 565.92 676.29 L 594.71 691.15 L 566.66 707.38 L 551.80 743.03 L 535.58 708.12 L 506.79 693.26 L 534.84 677.04 L 549.70 640.24 L 565.92 676.29 Z" fill="#a1fbff" fill-rule="nonzero" node-id="97" stroke="#333333" stroke-linecap="round" stroke-width="8" target-height="102.79004" target-width="87.92001" target-x="506.79" target-y="640.24"></path><path d="M 651.29 993.97 L 671.31 1004.30 L 651.81 1015.58 L 641.48 1040.36 L 630.21 1016.09 L 610.19 1005.76 L 629.69 994.49 L 640.02 968.91 L 651.29 993.97 Z" fill="none" node-id="99" stroke="#333333" stroke-linecap="round" stroke-width="8" target-height="71.45001" target-width="61.119995" target-x="610.19" target-y="968.91"></path><path d="M 473.07 271.13 L 504.04 287.12 L 473.87 304.57 L 457.88 342.92 L 440.43 305.37 L 409.46 289.38 L 439.63 271.93 L 455.62 232.35 L 473.07 271.13 Z" fill="#ffccdc" fill-rule="nonzero" node-id="101" stroke="#333333" stroke-linecap="round" stroke-width="8" target-height="110.57001" target-width="94.58002" target-x="409.46" target-y="232.35"></path><path d="M 685.03 959.54 L 684.86 960.48 L 684.24 961.44 L 683.02 962.47 L 680.74 963.68 L 677.42 964.80 L 673.74 965.57 L 669.41 966.03 L 665.06 966.07 L 661.32 965.73 L 657.89 965.00 L 655.49 964.06 L 654.16 963.18 L 653.43 962.29 L 653.15 961.37 L 653.32 960.43 L 653.94 959.47 L 655.16 958.44 L 657.44 957.23 L 660.77 956.11 L 664.44 955.34 L 668.77 954.88 L 673.12 954.84 L 676.86 955.18 L 680.29 955.91 L 682.70 956.85 L 684.03 957.73 L 684.75 958.62 L 685.03 959.54 Z" fill="#352415" fill-rule="nonzero" group-id="2" node-id="105" stroke="none" target-height="11.22998" target-width="31.880005" target-x="653.15" target-y="954.84"></path><path d="M 761.06 951.94 L 760.90 952.90 L 760.36 953.86 L 759.31 954.86 L 757.30 956.06 L 754.40 957.15 L 751.17 957.89 L 747.37 958.32 L 743.55 958.33 L 740.26 957.97 L 737.25 957.22 L 735.12 956.26 L 733.96 955.38 L 733.30 954.49 L 733.04 953.56 L 733.20 952.60 L 733.74 951.64 L 734.79 950.64 L 736.80 949.44 L 739.70 948.35 L 742.93 947.61 L 746.73 947.18 L 750.55 947.17 L 753.84 947.53 L 756.85 948.28 L 758.98 949.24 L 760.14 950.12 L 760.79 951.01 L 761.06 951.94 Z" fill="#352415" fill-rule="nonzero" group-id="3" node-id="110" stroke="none" target-height="11.160034" target-width="28.02002" target-x="733.04" target-y="947.17"></path><path d="M 764.38 973.14 C 767.56 981.26 766.93 990.39 762.67 998.00 C 750.77 1018.39 720.44 1022.59 720.44 1022.59 C 766.00 1017.00 801.00 1002.00 812.00 984.00 C 817.74 974.52 819.08 963.02 815.65 952.48 C 810.65 937.34 796.29 935.93 787.74 937.00 C 781.37 937.80 775.41 940.60 770.74 945.00 C 770.74 945.00 758.11 956.23 764.38 973.14 Z" fill="#cff6ff" fill-rule="nonzero" node-id="113" stroke="#333333" stroke-linecap="round" stroke-width="8" target-height="86.660034" target-width="98.640015" target-x="720.44" target-y="935.93"></path></svg>