<svg height="1200" node-id="1" sillyvg="true" template-height="1200" template-width="1200" version="1.1" viewBox="0 0 1200 1200" width="1200" xmlns="http://www.w3.org/2000/svg" xmlns:xlink="http://www.w3.org/1999/xlink"><defs node-id="107"><clipPath id="clip-path" node-id="5"><path d="M 693.83 1101.89 C 761.21 1079.97 758.17 1028.89 758.17 1028.89 C 742.82 1071.75 671.82 1074.35 641.49 1073.44 C 625.98 1073.06 610.75 1069.20 596.92 1062.16 C 545.00 1035.43 538.43 977.00 538.43 977.00 C 520.81 859.16 626.63 837.15 626.63 837.15 C 626.63 837.15 765.09 803.43 769.35 887.36 C 769.35 887.36 804.05 800.30 734.68 751.53 C 715.91 738.35 693.85 728.00 671.00 725.87 C 611.38 720.24 441.65 721.09 422.72 885.93 C 422.72 885.93 402.72 1017.86 510.00 1080.15 C 510.00 1080.15 565.00 1118.37 661.19 1108.59 C 672.28 1107.52 683.22 1105.27 693.83 1101.89 Z" fill="#000000" fill-rule="nonzero" node-id="110" stroke="none" target-height="398.13" target-width="401.33" target-x="402.72" target-y="720.24"></path></clipPath><clipPath id="clip-path-2" node-id="7"><path d="M 545.87 806.28 C 545.87 806.28 156.06 456.65 276.35 226.00 C 288.66 202.40 308.35 181.90 333.94 167.81 C 380.57 142.12 458.94 129.46 513.85 279.81 C 513.85 279.81 584.17 508.56 605.85 787.81" fill="#000000" fill-rule="nonzero" node-id="114" stroke="none" target-height="676.82" target-width="449.78998" target-x="156.06" target-y="129.46"></path></clipPath><clipPath id="clip-path-3" node-id="9"><path d="M 728.69 781.13 C 728.69 781.13 1005.69 373.13 861.11 207.92 C 845.86 190.50 824.75 176.86 799.51 169.49 C 750.35 155.15 671.04 158.75 648.51 316.71 C 648.51 316.71 630.07 486.08 670.70 772.42" fill="#000000" fill-rule="nonzero" node-id="118" stroke="none" target-height="625.98" target-width="375.62" target-x="630.07" target-y="155.15"></path></clipPath></defs><path d="M 0.00 0.00 L 1200.00 0.00 L 1200.00 1200.00 L 0.00 1200.00 Z" fill="#e3e7ff" fill-rule="nonzero" node-id="122" stroke="none" target-height="1200" target-width="1200" target-x="0" target-y="0"></path><path d="M 677.91 1084.68 C 776.03 1063.36 766.75 1001.01 756.83 966.56 C 753.43 954.48 753.83 941.65 758.00 929.81 C 767.60 902.06 770.00 878.07 768.62 858.03 C 765.63 816.09 734.35 781.62 692.89 774.59 C 391.89 722.77 489.89 1004.16 489.89 1004.16 C 489.89 1004.16 525.59 1062.69 573.04 1086.06 C 573.00 1086.06 642.83 1101.84 677.91 1084.68 Z" fill="#fffbf3" fill-rule="nonzero" node-id="124" stroke="#333333" stroke-linecap="round" stroke-width="14" target-height="379.06995" target-width="384.14" target-x="391.89" target-y="722.77"></path><path d="M 706.35 911.26 C 713.35 906.26 727.18 904.51 735.28 910.38" fill="#ffffff" fill-rule="nonzero" node-id="126" stroke="#333333" stroke-linecap="round" stroke-width="7.74" target-height="6.75" target-width="28.930054" target-x="706.35" target-y="904.51"></path><path d="M 615.12 919.63 C 624.12 911.21 643.24 908.79 652.45 913.14" fill="#ffffff" fill-rule="nonzero" node-id="128" stroke="#333333" stroke-linecap="round" stroke-width="7.74" target-height="10.840027" target-width="37.330017" target-x="615.12" target-y="908.79"></path><path d="M 666.62 1025.13 C 675.15 1026.01 683.12 1025.50 690.06 1022.41" fill="#ffffff" fill-rule="nonzero" node-id="130" stroke="#333333" stroke-linecap="round" stroke-width="7.74" target-height="3.6000366" target-width="23.440002" target-x="666.62" target-y="1022.41"></path><path d="M 693.83 1101.89 C 761.21 1079.97 758.17 1028.89 758.17 1028.89 C 742.82 1071.75 671.82 1074.35 641.49 1073.44 C 625.98 1073.06 610.75 1069.20 596.92 1062.16 C 545.00 1035.43 538.43 977.00 538.43 977.00 C 520.81 859.16 626.63 837.15 626.63 837.15 C 626.63 837.15 765.09 803.43 769.35 887.36 C 769.35 887.36 804.05 800.30 734.68 751.53 C 715.91 738.35 693.85 728.00 671.00 725.87 C 611.38 720.24 441.65 721.09 422.72 885.93 C 422.72 885.93 402.72 1017.86 510.00 1080.15 C 510.00 1080.15 565.00 1118.37 661.19 1108.59 C 672.28 1107.52 683.22 1105.27 693.83 1101.89 Z" fill="#d2f1ff" fill-rule="nonzero" node-id="132" stroke="none" target-height="398.13" target-width="401.33" target-x="402.72" target-y="720.24"></path><g node-id="321"><g clip-path="url(#clip-path)" group-id="1" id="sillyvg_g_0" node-id="134"><path d="M 459.46 931.81 L 473.58 932.89 C 476.16 933.09 478.41 934.73 479.38 937.14 C 480.35 939.54 479.87 942.29 478.14 944.22 L 468.69 954.77 C 467.20 956.44 466.62 958.74 467.14 960.92 L 470.48 974.69 C 471.09 977.21 470.22 979.86 468.24 981.52 C 466.25 983.18 463.49 983.57 461.12 982.52 L 448.12 976.80 C 446.07 975.89 443.71 976.05 441.80 977.23 L 429.73 984.66 C 427.52 986.02 424.74 986.00 422.54 984.63 C 420.35 983.25 419.13 980.75 419.39 978.17 L 420.83 964.08 C 421.06 961.85 420.17 959.65 418.47 958.20 L 407.71 949.00 C 405.74 947.32 404.89 944.66 405.53 942.15 C 406.17 939.63 408.17 937.70 410.71 937.16 L 424.56 934.16 C 426.75 933.69 428.56 932.17 429.42 930.10 L 434.81 917.00 C 435.80 914.60 438.07 912.98 440.66 912.81 C 443.24 912.64 445.70 913.95 447.00 916.20 L 454.12 928.45 C 455.24 930.38 457.24 931.63 459.46 931.81 Z" fill="#ffe1e1" fill-rule="nonzero" group-id="1" node-id="136" stroke="#333333" stroke-linecap="round" stroke-width="8" target-height="73.380005" target-width="75.45999" target-x="404.89" target-y="912.64"></path><path d="M 544.46 865.81 L 558.58 866.89 C 561.16 867.09 563.41 868.73 564.38 871.14 C 565.35 873.54 564.87 876.29 563.14 878.22 L 553.69 888.77 C 552.20 890.44 551.62 892.74 552.14 894.92 L 555.48 908.69 C 556.09 911.21 555.22 913.86 553.24 915.52 C 551.25 917.18 548.49 917.57 546.12 916.52 L 533.12 910.80 C 531.07 909.89 528.71 910.05 526.80 911.23 L 514.73 918.66 C 512.52 920.02 509.74 920.00 507.54 918.63 C 505.35 917.25 504.13 914.75 504.39 912.17 L 505.83 898.08 C 506.06 895.85 505.17 893.65 503.47 892.20 L 492.71 883.00 C 490.74 881.32 489.89 878.66 490.53 876.15 C 491.17 873.63 493.17 871.70 495.71 871.16 L 509.56 868.16 C 511.75 867.69 513.56 866.17 514.42 864.10 L 519.81 851.00 C 520.80 848.60 523.07 846.98 525.66 846.81 C 528.24 846.64 530.70 847.95 532.00 850.20 L 539.12 862.45 C 540.24 864.38 542.24 865.63 544.46 865.81 Z" fill="#ffe1e1" fill-rule="nonzero" group-id="1" node-id="138" stroke="#333333" stroke-linecap="round" stroke-width="8" target-height="73.380005" target-width="75.45996" target-x="489.89" target-y="846.64"></path><path d="M 661.46 719.81 L 675.58 720.89 C 678.16 721.09 680.41 722.73 681.38 725.14 C 682.35 727.54 681.87 730.29 680.14 732.22 L 670.69 742.77 C 669.20 744.44 668.62 746.74 669.14 748.92 L 672.48 762.69 C 673.09 765.21 672.22 767.86 670.24 769.52 C 668.25 771.18 665.49 771.57 663.12 770.52 L 650.12 764.80 C 648.07 763.89 645.71 764.05 643.80 765.23 L 631.73 772.66 C 629.52 774.02 626.74 774.00 624.54 772.63 C 622.35 771.25 621.13 768.75 621.39 766.17 L 622.83 752.08 C 623.06 749.85 622.17 747.65 620.47 746.20 L 609.71 737.00 C 607.74 735.32 606.89 732.66 607.53 730.15 C 608.17 727.63 610.17 725.70 612.71 725.16 L 626.56 722.16 C 628.75 721.69 630.56 720.17 631.42 718.10 L 636.81 705.00 C 637.80 702.60 640.07 700.98 642.66 700.81 C 645.24 700.64 647.70 701.95 649.00 704.20 L 656.12 716.45 C 657.24 718.38 659.24 719.63 661.46 719.81 Z" fill="#ffe1e1" fill-rule="nonzero" group-id="1" node-id="140" stroke="#333333" stroke-linecap="round" stroke-width="8" target-height="73.380005" target-width="75.45996" target-x="606.89" target-y="700.64"></path><path d="M 638.46 784.81 L 652.58 785.89 C 655.16 786.09 657.41 787.73 658.38 790.14 C 659.35 792.54 658.87 795.29 657.14 797.22 L 647.69 807.77 C 646.20 809.44 645.62 811.74 646.14 813.92 L 649.48 827.69 C 650.09 830.21 649.22 832.86 647.24 834.52 C 645.25 836.18 642.49 836.57 640.12 835.52 L 627.12 829.80 C 625.07 828.89 622.71 829.05 620.80 830.23 L 608.73 837.66 C 606.52 839.02 603.74 839.00 601.54 837.63 C 599.35 836.25 598.13 833.75 598.39 831.17 L 599.83 817.08 C 600.06 814.85 599.17 812.65 597.47 811.20 L 586.71 802.00 C 584.74 800.32 583.89 797.66 584.53 795.15 C 585.17 792.63 587.17 790.70 589.71 790.16 L 603.56 787.16 C 605.75 786.69 607.56 785.17 608.42 783.10 L 613.81 770.00 C 614.80 767.60 617.07 765.98 619.66 765.81 C 622.24 765.64 624.70 766.95 626.00 769.20 L 633.12 781.45 C 634.24 783.38 636.24 784.63 638.46 784.81 Z" fill="#ffb6b6" fill-rule="nonzero" group-id="1" node-id="142" stroke="#333333" stroke-linecap="round" stroke-width="8" target-height="73.380005" target-width="75.45996" target-x="583.89" target-y="765.64"></path><path d="M 706.78 798.84 L 716.78 808.84 C 718.61 810.67 719.24 813.39 718.41 815.84 C 717.57 818.29 715.42 820.05 712.85 820.39 L 698.80 822.24 C 696.58 822.54 694.65 823.91 693.63 825.90 L 687.19 838.52 C 686.01 840.83 683.62 842.26 681.03 842.23 C 678.44 842.19 676.10 840.69 674.98 838.35 L 668.88 825.57 C 667.92 823.54 666.02 822.12 663.80 821.77 L 649.80 819.55 C 647.24 819.15 645.13 817.32 644.36 814.84 C 643.60 812.37 644.31 809.67 646.19 807.89 L 656.46 798.13 C 658.08 796.58 658.82 794.34 658.46 792.13 L 656.25 778.13 C 655.86 775.57 656.96 773.01 659.08 771.53 C 661.20 770.04 663.98 769.89 666.25 771.13 L 678.70 777.89 C 680.67 778.96 683.04 778.99 685.03 777.97 L 697.66 771.55 C 699.97 770.38 702.75 770.62 704.82 772.17 C 706.90 773.72 707.91 776.31 707.44 778.86 L 704.86 792.79 C 704.46 795.00 705.18 797.27 706.78 798.84 Z" fill="#facfff" fill-rule="nonzero" group-id="1" node-id="144" stroke="#333333" stroke-linecap="round" stroke-width="8" target-height="72.369995" target-width="75.640015" target-x="643.6" target-y="769.89"></path><path d="M 755.78 821.84 L 765.78 831.84 C 767.61 833.67 768.24 836.39 767.41 838.84 C 766.57 841.29 764.42 843.05 761.85 843.39 L 747.80 845.24 C 745.58 845.54 743.65 846.91 742.63 848.90 L 736.19 861.52 C 735.01 863.83 732.62 865.26 730.03 865.23 C 727.44 865.19 725.10 863.69 723.98 861.35 L 717.88 848.57 C 716.92 846.54 715.02 845.12 712.80 844.77 L 698.80 842.55 C 696.24 842.15 694.13 840.32 693.36 837.84 C 692.60 835.37 693.31 832.67 695.19 830.89 L 705.46 821.13 C 707.08 819.58 707.82 817.34 707.46 815.13 L 705.25 801.13 C 704.86 798.57 705.96 796.01 708.08 794.53 C 710.20 793.04 712.98 792.89 715.25 794.13 L 727.70 800.89 C 729.67 801.96 732.04 801.99 734.03 800.97 L 746.66 794.55 C 748.97 793.38 751.75 793.62 753.82 795.17 C 755.90 796.72 756.91 799.31 756.44 801.86 L 753.86 815.79 C 753.46 818.00 754.18 820.27 755.78 821.84 Z" fill="#ffe1e1" fill-rule="nonzero" group-id="1" node-id="146" stroke="#333333" stroke-linecap="round" stroke-width="8" target-height="72.369995" target-width="75.640015" target-x="692.6" target-y="792.89"></path><path d="M 781.78 786.84 L 791.78 796.84 C 793.61 798.67 794.24 801.39 793.41 803.84 C 792.57 806.29 790.42 808.05 787.85 808.39 L 773.80 810.24 C 771.58 810.54 769.65 811.91 768.63 813.90 L 762.19 826.52 C 761.01 828.83 758.62 830.26 756.03 830.23 C 753.44 830.19 751.10 828.69 749.98 826.35 L 743.88 813.57 C 742.92 811.54 741.02 810.12 738.80 809.77 L 724.80 807.55 C 722.24 807.15 720.13 805.32 719.36 802.84 C 718.60 800.37 719.31 797.67 721.19 795.89 L 731.46 786.13 C 733.08 784.58 733.82 782.34 733.46 780.13 L 731.25 766.13 C 730.86 763.57 731.96 761.01 734.08 759.53 C 736.20 758.04 738.98 757.89 741.25 759.13 L 753.70 765.89 C 755.67 766.96 758.04 766.99 760.03 765.97 L 772.66 759.55 C 774.97 758.38 777.75 758.62 779.82 760.17 C 781.90 761.72 782.91 764.31 782.44 766.86 L 779.86 780.79 C 779.46 783.00 780.18 785.27 781.78 786.84 Z" fill="#ffe1e1" fill-rule="nonzero" group-id="1" node-id="148" stroke="#333333" stroke-linecap="round" stroke-width="8" target-height="72.369995" target-width="75.640015" target-x="718.6" target-y="757.89"></path><path d="M 469.28 871.09 L 461.34 882.82 C 459.89 884.97 457.34 886.10 454.77 885.75 C 452.21 885.40 450.06 883.62 449.24 881.16 L 444.77 867.71 C 444.06 865.59 442.35 863.95 440.20 863.33 L 426.59 859.39 C 424.10 858.67 422.24 856.61 421.78 854.06 C 421.32 851.51 422.35 848.93 424.43 847.39 L 435.83 838.97 C 437.64 837.64 438.67 835.51 438.60 833.27 L 438.13 819.11 C 438.05 816.52 439.44 814.11 441.72 812.89 C 444.00 811.67 446.78 811.85 448.89 813.35 L 460.42 821.59 C 462.24 822.90 464.58 823.22 466.69 822.46 L 480.00 817.63 C 482.44 816.75 485.16 817.33 487.03 819.13 C 488.89 820.92 489.58 823.62 488.80 826.09 L 484.52 839.59 C 483.85 841.73 484.26 844.06 485.64 845.83 L 494.34 857.01 C 495.93 859.06 496.22 861.83 495.09 864.17 C 493.96 866.50 491.59 867.99 489.00 868.00 L 474.83 868.10 C 472.60 868.13 470.53 869.25 469.28 871.09 Z" fill="#ffe1e1" fill-rule="nonzero" group-id="1" node-id="150" stroke="#333333" stroke-linecap="round" stroke-width="8" target-height="74.42999" target-width="74.899994" target-x="421.32" target-y="811.67"></path><path d="M 522.28 865.09 L 514.34 876.82 C 512.89 878.97 510.34 880.10 507.77 879.75 C 505.21 879.40 503.06 877.62 502.24 875.16 L 497.77 861.71 C 497.06 859.59 495.35 857.95 493.20 857.33 L 479.59 853.39 C 477.10 852.67 475.24 850.61 474.78 848.06 C 474.32 845.51 475.35 842.93 477.43 841.39 L 488.83 832.97 C 490.64 831.64 491.67 829.51 491.60 827.27 L 491.13 813.11 C 491.05 810.52 492.44 808.11 494.72 806.89 C 497.00 805.67 499.78 805.85 501.89 807.35 L 513.42 815.59 C 515.24 816.90 517.58 817.22 519.69 816.46 L 533.00 811.63 C 535.44 810.75 538.16 811.33 540.03 813.13 C 541.89 814.92 542.58 817.62 541.80 820.09 L 537.52 833.59 C 536.85 835.73 537.26 838.06 538.64 839.83 L 547.34 851.01 C 548.93 853.06 549.22 855.83 548.09 858.17 C 546.96 860.50 544.59 861.99 542.00 862.00 L 527.83 862.10 C 525.60 862.13 523.53 863.25 522.28 865.09 Z" fill="#facfff" fill-rule="nonzero" group-id="1" node-id="152" stroke="#333333" stroke-linecap="round" stroke-width="8" target-height="74.42999" target-width="74.89996" target-x="474.32" target-y="805.67"></path><path d="M 573.28 855.09 L 565.34 866.82 C 563.89 868.97 561.34 870.10 558.77 869.75 C 556.21 869.40 554.06 867.62 553.24 865.16 L 548.77 851.71 C 548.06 849.59 546.35 847.95 544.20 847.33 L 530.59 843.39 C 528.10 842.67 526.24 840.61 525.78 838.06 C 525.32 835.51 526.35 832.93 528.43 831.39 L 539.83 822.97 C 541.64 821.64 542.67 819.51 542.60 817.27 L 542.13 803.11 C 542.05 800.52 543.44 798.11 545.72 796.89 C 548.00 795.67 550.78 795.85 552.89 797.35 L 564.42 805.59 C 566.24 806.90 568.58 807.22 570.69 806.46 L 584.00 801.63 C 586.44 800.75 589.16 801.33 591.03 803.13 C 592.89 804.92 593.58 807.62 592.80 810.09 L 588.52 823.59 C 587.85 825.73 588.26 828.06 589.64 829.83 L 598.34 841.01 C 599.93 843.06 600.22 845.83 599.09 848.17 C 597.96 850.50 595.59 851.99 593.00 852.00 L 578.83 852.10 C 576.60 852.13 574.53 853.25 573.28 855.09 Z" fill="#ffe1e1" fill-rule="nonzero" group-id="1" node-id="154" stroke="#333333" stroke-linecap="round" stroke-width="8" target-height="74.42999" target-width="74.89996" target-x="525.32" target-y="795.67"></path><path d="M 482.28 813.09 L 474.34 824.82 C 472.89 826.97 470.34 828.10 467.77 827.75 C 465.21 827.40 463.06 825.62 462.24 823.16 L 457.77 809.71 C 457.06 807.59 455.35 805.95 453.20 805.33 L 439.59 801.39 C 437.10 800.67 435.24 798.61 434.78 796.06 C 434.32 793.51 435.35 790.93 437.43 789.39 L 448.83 780.97 C 450.64 779.64 451.67 777.51 451.60 775.27 L 451.13 761.11 C 451.05 758.52 452.44 756.11 454.72 754.89 C 457.00 753.67 459.78 753.85 461.89 755.35 L 473.42 763.59 C 475.24 764.90 477.58 765.22 479.69 764.46 L 493.00 759.63 C 495.44 758.75 498.16 759.33 500.03 761.13 C 501.89 762.92 502.58 765.62 501.80 768.09 L 497.52 781.59 C 496.85 783.73 497.26 786.06 498.64 787.83 L 507.34 799.01 C 508.93 801.06 509.22 803.83 508.09 806.17 C 506.96 808.50 504.59 809.99 502.00 810.00 L 487.83 810.10 C 485.60 810.13 483.53 811.25 482.28 813.09 Z" fill="#ffe1e1" fill-rule="nonzero" group-id="1" node-id="156" stroke="#333333" stroke-linecap="round" stroke-width="8" target-height="74.42999" target-width="74.899994" target-x="434.32" target-y="753.67"></path><path d="M 534.28 803.09 L 526.34 814.82 C 524.89 816.97 522.34 818.10 519.77 817.75 C 517.21 817.40 515.06 815.62 514.24 813.16 L 509.77 799.71 C 509.06 797.59 507.35 795.95 505.20 795.33 L 491.59 791.39 C 489.10 790.67 487.24 788.61 486.78 786.06 C 486.32 783.51 487.35 780.93 489.43 779.39 L 500.83 770.97 C 502.64 769.64 503.67 767.51 503.60 765.27 L 503.13 751.11 C 503.05 748.52 504.44 746.11 506.72 744.89 C 509.00 743.67 511.78 743.85 513.89 745.35 L 525.42 753.59 C 527.24 754.90 529.58 755.22 531.69 754.46 L 545.00 749.63 C 547.44 748.75 550.16 749.33 552.03 751.13 C 553.89 752.92 554.58 755.62 553.80 758.09 L 549.52 771.59 C 548.85 773.73 549.26 776.06 550.64 777.83 L 559.34 789.01 C 560.93 791.06 561.22 793.83 560.09 796.17 C 558.96 798.50 556.59 799.99 554.00 800.00 L 539.83 800.10 C 537.60 800.13 535.53 801.25 534.28 803.09 Z" fill="#ffe497" fill-rule="nonzero" group-id="1" node-id="158" stroke="#333333" stroke-linecap="round" stroke-width="8" target-height="74.42999" target-width="74.89996" target-x="486.32" target-y="743.67"></path><path d="M 486.71 870.62 L 498.71 863.12 C 500.91 861.75 503.69 861.75 505.90 863.11 C 508.10 864.48 509.34 866.97 509.09 869.55 L 507.73 883.66 C 507.51 885.89 508.41 888.08 510.12 889.52 L 521.00 898.64 C 522.98 900.31 523.85 902.95 523.23 905.47 C 522.61 907.99 520.62 909.93 518.09 910.49 L 504.26 913.56 C 502.07 914.04 500.26 915.57 499.42 917.65 L 494.10 930.78 C 493.13 933.18 490.87 934.82 488.29 935.02 C 485.70 935.21 483.24 933.91 481.92 931.68 L 474.74 919.47 C 473.60 917.54 471.59 916.29 469.35 916.13 L 455.22 915.13 C 452.64 914.95 450.38 913.31 449.40 910.91 C 448.42 908.52 448.89 905.77 450.60 903.83 L 460.00 893.22 C 461.49 891.54 462.05 889.24 461.51 887.07 L 458.09 873.32 C 457.46 870.80 458.32 868.15 460.30 866.47 C 462.28 864.80 465.04 864.39 467.42 865.43 L 480.42 871.09 C 482.47 871.97 484.82 871.80 486.71 870.62 Z" fill="#ffb6b6" fill-rule="nonzero" group-id="1" node-id="160" stroke="#333333" stroke-linecap="round" stroke-width="8" target-height="73.46002" target-width="75.42996" target-x="448.42" target-y="861.75"></path><path d="M 464.22 886.50 L 475.00 895.65 C 476.98 897.33 477.83 899.99 477.19 902.51 C 476.55 905.03 474.54 906.96 472.00 907.50 L 458.16 910.50 C 455.97 910.98 454.16 912.50 453.31 914.58 L 448.00 927.71 C 447.02 930.11 444.76 931.74 442.18 931.92 C 439.59 932.11 437.13 930.81 435.82 928.57 L 428.67 916.34 C 427.54 914.40 425.53 913.15 423.30 912.98 L 409.17 911.98 C 406.59 911.79 404.33 910.15 403.36 907.74 C 402.39 905.34 402.87 902.60 404.59 900.66 L 414.05 890.00 C 415.54 888.33 416.11 886.03 415.58 883.85 L 412.21 870.09 C 411.60 867.57 412.46 864.93 414.45 863.26 C 416.43 861.60 419.19 861.20 421.56 862.24 L 434.56 867.93 C 436.61 868.83 438.97 868.67 440.88 867.49 L 452.88 860.03 C 455.08 858.66 457.87 858.67 460.06 860.04 C 462.26 861.41 463.49 863.91 463.23 866.49 L 461.83 880.59 C 461.59 882.84 462.49 885.05 464.22 886.50 Z" fill="#e7ffc7" fill-rule="nonzero" group-id="1" node-id="162" stroke="#333333" stroke-linecap="round" stroke-width="8" target-height="73.45001" target-width="75.43997" target-x="402.39" target-y="858.66"></path><path d="M 477.81 956.78 L 490.35 950.18 C 492.64 948.97 495.42 949.18 497.52 950.70 C 499.62 952.22 500.67 954.81 500.23 957.36 L 497.83 971.36 C 497.47 973.57 498.22 975.81 499.83 977.36 L 509.98 987.25 C 511.83 989.06 512.50 991.77 511.70 994.23 C 510.89 996.69 508.76 998.49 506.20 998.86 L 492.20 1000.86 C 489.99 1001.18 488.07 1002.57 487.08 1004.58 L 480.81 1017.29 C 479.66 1019.61 477.30 1021.08 474.70 1021.08 C 472.11 1021.08 469.75 1019.61 468.60 1017.29 L 462.33 1004.58 C 461.34 1002.57 459.42 1001.18 457.20 1000.86 L 443.20 998.86 C 440.64 998.48 438.51 996.69 437.71 994.23 C 436.91 991.76 437.58 989.06 439.43 987.25 L 449.57 977.36 C 451.18 975.81 451.93 973.57 451.57 971.36 L 449.18 957.36 C 448.74 954.81 449.79 952.23 451.89 950.71 C 453.98 949.18 456.76 948.98 459.05 950.18 L 471.60 956.78 C 473.55 957.78 475.86 957.78 477.81 956.78 Z" fill="#facfff" fill-rule="nonzero" group-id="1" node-id="164" stroke="#333333" stroke-linecap="round" stroke-width="8" target-height="72.11005" target-width="75.59" target-x="436.91" target-y="948.97"></path><path d="M 541.46 962.81 L 555.58 963.89 C 558.16 964.09 560.41 965.73 561.38 968.14 C 562.35 970.54 561.87 973.29 560.14 975.22 L 550.69 985.77 C 549.20 987.44 548.62 989.74 549.14 991.92 L 552.48 1005.69 C 553.09 1008.21 552.22 1010.86 550.24 1012.52 C 548.25 1014.18 545.49 1014.57 543.12 1013.52 L 530.12 1007.80 C 528.07 1006.89 525.71 1007.05 523.80 1008.23 L 511.73 1015.66 C 509.52 1017.02 506.74 1017.00 504.54 1015.63 C 502.35 1014.25 501.13 1011.75 501.39 1009.17 L 502.83 995.08 C 503.06 992.85 502.17 990.65 500.47 989.20 L 489.71 980.00 C 487.74 978.32 486.89 975.66 487.53 973.15 C 488.17 970.63 490.17 968.70 492.71 968.16 L 506.56 965.16 C 508.75 964.69 510.56 963.17 511.42 961.10 L 516.81 948.00 C 517.80 945.60 520.07 943.98 522.66 943.81 C 525.24 943.64 527.70 944.95 529.00 947.20 L 536.12 959.45 C 537.24 961.38 539.24 962.63 541.46 962.81 Z" fill="#ffe1e1" fill-rule="nonzero" group-id="1" node-id="166" stroke="#333333" stroke-linecap="round" stroke-width="8" target-height="73.380005" target-width="75.45996" target-x="486.89" target-y="943.64"></path><path d="M 511.46 912.81 L 525.58 913.89 C 528.16 914.09 530.41 915.73 531.38 918.14 C 532.35 920.54 531.87 923.29 530.14 925.22 L 520.69 935.77 C 519.20 937.44 518.62 939.74 519.14 941.92 L 522.48 955.69 C 523.09 958.21 522.22 960.86 520.24 962.52 C 518.25 964.18 515.49 964.57 513.12 963.52 L 500.12 957.80 C 498.07 956.89 495.71 957.05 493.80 958.23 L 481.73 965.66 C 479.52 967.02 476.74 967.00 474.54 965.63 C 472.35 964.25 471.13 961.75 471.39 959.17 L 472.83 945.08 C 473.06 942.85 472.17 940.65 470.47 939.20 L 459.71 930.00 C 457.74 928.32 456.89 925.66 457.53 923.15 C 458.17 920.63 460.17 918.70 462.71 918.16 L 476.56 915.16 C 478.75 914.69 480.56 913.17 481.42 911.10 L 486.81 898.00 C 487.80 895.60 490.07 893.98 492.66 893.81 C 495.24 893.64 497.70 894.95 499.00 897.20 L 506.12 909.45 C 507.24 911.38 509.24 912.63 511.46 912.81 Z" fill="#d2caff" fill-rule="nonzero" group-id="1" node-id="168" stroke="#333333" stroke-linecap="round" stroke-width="8" target-height="73.380005" target-width="75.45996" target-x="456.89" target-y="893.64"></path><path d="M 512.46 1015.81 L 526.58 1016.89 C 529.16 1017.09 531.41 1018.73 532.38 1021.14 C 533.35 1023.54 532.87 1026.29 531.14 1028.22 L 521.69 1038.77 C 520.20 1040.44 519.62 1042.74 520.14 1044.92 L 523.48 1058.69 C 524.09 1061.21 523.22 1063.86 521.24 1065.52 C 519.25 1067.18 516.49 1067.57 514.12 1066.52 L 501.12 1060.80 C 499.07 1059.89 496.71 1060.05 494.80 1061.23 L 482.73 1068.66 C 480.52 1070.02 477.74 1070.00 475.54 1068.63 C 473.35 1067.25 472.13 1064.75 472.39 1062.17 L 473.83 1048.08 C 474.06 1045.85 473.17 1043.65 471.47 1042.20 L 460.67 1033.02 C 458.70 1031.34 457.85 1028.68 458.49 1026.17 C 459.13 1023.65 461.13 1021.72 463.67 1021.18 L 477.52 1018.18 C 479.71 1017.71 481.52 1016.19 482.38 1014.12 L 487.77 1001.02 C 488.76 998.63 491.02 997.00 493.60 996.82 C 496.19 996.65 498.65 997.95 499.95 1000.19 L 507.07 1012.44 C 508.20 1014.39 510.22 1015.65 512.46 1015.81 Z" fill="#ffb6b6" fill-rule="nonzero" group-id="1" node-id="170" stroke="#333333" stroke-linecap="round" stroke-width="8" target-height="73.369995" target-width="75.49997" target-x="457.85" target-y="996.65"></path><path d="M 558.46 1003.81 L 572.58 1004.89 C 575.16 1005.09 577.41 1006.73 578.38 1009.14 C 579.35 1011.54 578.87 1014.29 577.14 1016.22 L 567.69 1026.77 C 566.20 1028.44 565.62 1030.74 566.14 1032.92 L 569.48 1046.69 C 570.09 1049.21 569.22 1051.86 567.24 1053.52 C 565.25 1055.18 562.49 1055.57 560.12 1054.52 L 547.12 1048.80 C 545.07 1047.89 542.71 1048.05 540.80 1049.23 L 528.73 1056.66 C 526.52 1058.02 523.74 1058.00 521.54 1056.63 C 519.35 1055.25 518.13 1052.75 518.39 1050.17 L 519.83 1036.08 C 520.06 1033.85 519.17 1031.65 517.47 1030.20 L 506.67 1021.02 C 504.70 1019.34 503.85 1016.68 504.49 1014.17 C 505.13 1011.65 507.13 1009.72 509.67 1009.18 L 523.52 1006.18 C 525.71 1005.71 527.52 1004.19 528.38 1002.12 L 533.77 989.02 C 534.75 986.60 537.02 984.95 539.63 984.78 C 542.23 984.60 544.71 985.93 546.00 988.20 L 553.12 1000.45 C 554.24 1002.38 556.24 1003.63 558.46 1003.81 Z" fill="#facfff" fill-rule="nonzero" group-id="1" node-id="172" stroke="#333333" stroke-linecap="round" stroke-width="8" target-height="73.420044" target-width="75.49997" target-x="503.85" target-y="984.6"></path><path d="M 551.08 1059.80 L 563.33 1060.73 C 565.57 1060.90 567.52 1062.33 568.36 1064.41 C 569.20 1066.50 568.78 1068.88 567.28 1070.55 L 559.09 1079.70 C 557.79 1081.15 557.29 1083.14 557.75 1085.03 L 560.65 1096.97 C 561.17 1099.15 560.42 1101.44 558.69 1102.88 C 556.97 1104.32 554.58 1104.66 552.53 1103.76 L 541.29 1098.76 C 539.51 1097.98 537.46 1098.12 535.81 1099.14 L 525.35 1105.58 C 523.44 1106.78 521.01 1106.78 519.09 1105.58 C 517.18 1104.39 516.11 1102.21 516.35 1099.96 L 517.60 1087.74 C 517.81 1085.82 517.06 1083.91 515.60 1082.64 L 506.24 1074.64 C 504.52 1073.19 503.78 1070.88 504.33 1068.70 C 504.88 1066.52 506.62 1064.84 508.82 1064.37 L 520.82 1061.78 C 522.72 1061.37 524.30 1060.06 525.04 1058.26 L 529.70 1047.00 C 530.55 1044.92 532.51 1043.51 534.76 1043.36 C 537.00 1043.20 539.13 1044.34 540.26 1046.28 L 546.43 1056.90 C 547.41 1058.57 549.15 1059.65 551.08 1059.80 Z" fill="#ffe1e1" fill-rule="nonzero" group-id="1" node-id="174" stroke="#333333" stroke-linecap="round" stroke-width="8" target-height="63.58008" target-width="65.42001" target-x="503.78" target-y="1043.2"></path><path d="M 597.08 1063.80 L 609.33 1064.73 C 611.57 1064.90 613.52 1066.33 614.36 1068.41 C 615.20 1070.50 614.78 1072.88 613.28 1074.55 L 605.09 1083.70 C 603.79 1085.15 603.29 1087.14 603.75 1089.03 L 606.65 1100.97 C 607.17 1103.15 606.42 1105.44 604.69 1106.88 C 602.97 1108.32 600.58 1108.66 598.53 1107.76 L 587.29 1102.76 C 585.51 1101.98 583.46 1102.12 581.81 1103.14 L 571.35 1109.58 C 569.44 1110.78 567.01 1110.78 565.09 1109.58 C 563.18 1108.39 562.11 1106.21 562.35 1103.96 L 563.60 1091.74 C 563.81 1089.82 563.06 1087.91 561.60 1086.64 L 552.24 1078.64 C 550.52 1077.19 549.78 1074.88 550.33 1072.70 C 550.88 1070.52 552.62 1068.84 554.82 1068.37 L 566.82 1065.78 C 568.72 1065.37 570.30 1064.06 571.04 1062.26 L 575.70 1051.00 C 576.55 1048.92 578.51 1047.51 580.76 1047.36 C 583.00 1047.20 585.13 1048.34 586.26 1050.28 L 592.43 1060.90 C 593.41 1062.57 595.15 1063.65 597.08 1063.80 Z" fill="#ffe497" fill-rule="nonzero" group-id="1" node-id="176" stroke="#333333" stroke-linecap="round" stroke-width="8" target-height="63.58008" target-width="65.41998" target-x="549.78" target-y="1047.2"></path><path d="M 630.08 1046.80 L 642.33 1047.73 C 644.57 1047.90 646.52 1049.33 647.36 1051.41 C 648.20 1053.50 647.78 1055.88 646.28 1057.55 L 638.09 1066.70 C 636.79 1068.15 636.29 1070.14 636.75 1072.03 L 639.65 1083.97 C 640.17 1086.15 639.42 1088.44 637.69 1089.88 C 635.97 1091.32 633.58 1091.66 631.53 1090.76 L 620.29 1085.76 C 618.51 1084.98 616.46 1085.12 614.81 1086.14 L 604.35 1092.58 C 602.44 1093.78 600.01 1093.78 598.09 1092.58 C 596.18 1091.39 595.11 1089.21 595.35 1086.96 L 596.60 1074.74 C 596.81 1072.82 596.06 1070.91 594.60 1069.64 L 585.24 1061.64 C 583.52 1060.19 582.78 1057.88 583.33 1055.70 C 583.88 1053.52 585.62 1051.84 587.82 1051.37 L 599.82 1048.78 C 601.72 1048.37 603.30 1047.06 604.04 1045.26 L 608.70 1034.00 C 609.55 1031.92 611.51 1030.51 613.76 1030.36 C 616.00 1030.20 618.13 1031.34 619.26 1033.28 L 625.43 1043.90 C 626.41 1045.57 628.15 1046.65 630.08 1046.80 Z" fill="#ffe1e1" fill-rule="nonzero" group-id="1" node-id="178" stroke="#333333" stroke-linecap="round" stroke-width="8" target-height="63.58008" target-width="65.41998" target-x="582.78" target-y="1030.2"></path><path d="M 636.08 1089.80 L 648.33 1090.73 C 650.57 1090.90 652.52 1092.33 653.36 1094.41 C 654.20 1096.50 653.78 1098.88 652.28 1100.55 L 644.09 1109.70 C 642.79 1111.15 642.29 1113.14 642.75 1115.03 L 645.65 1126.97 C 646.17 1129.15 645.42 1131.44 643.69 1132.88 C 641.97 1134.32 639.58 1134.66 637.53 1133.76 L 626.29 1128.76 C 624.51 1127.98 622.46 1128.12 620.81 1129.14 L 610.35 1135.58 C 608.44 1136.78 606.01 1136.78 604.09 1135.58 C 602.18 1134.39 601.11 1132.21 601.35 1129.96 L 602.60 1117.74 C 602.81 1115.82 602.06 1113.91 600.60 1112.64 L 591.24 1104.64 C 589.52 1103.19 588.78 1100.88 589.33 1098.70 C 589.88 1096.52 591.62 1094.84 593.82 1094.37 L 605.82 1091.78 C 607.72 1091.37 609.30 1090.06 610.04 1088.26 L 614.70 1077.00 C 615.55 1074.92 617.51 1073.51 619.76 1073.36 C 622.00 1073.20 624.13 1074.34 625.26 1076.28 L 631.43 1086.90 C 632.41 1088.57 634.15 1089.65 636.08 1089.80 Z" fill="#ffe1e1" fill-rule="nonzero" group-id="1" node-id="180" stroke="#333333" stroke-linecap="round" stroke-width="8" target-height="63.58008" target-width="65.41998" target-x="588.78" target-y="1073.2"></path><path d="M 681.08 1063.80 L 693.33 1064.73 C 695.57 1064.90 697.52 1066.33 698.36 1068.41 C 699.20 1070.50 698.78 1072.88 697.28 1074.55 L 689.09 1083.70 C 687.79 1085.15 687.29 1087.14 687.75 1089.03 L 690.65 1100.97 C 691.17 1103.15 690.42 1105.44 688.69 1106.88 C 686.97 1108.32 684.58 1108.66 682.53 1107.76 L 671.29 1102.76 C 669.51 1101.98 667.46 1102.12 665.81 1103.14 L 655.35 1109.58 C 653.44 1110.78 651.01 1110.78 649.09 1109.58 C 647.18 1108.39 646.11 1106.21 646.35 1103.96 L 647.60 1091.74 C 647.81 1089.82 647.06 1087.91 645.60 1086.64 L 636.24 1078.64 C 634.52 1077.19 633.78 1074.88 634.33 1072.70 C 634.88 1070.52 636.62 1068.84 638.82 1068.37 L 650.82 1065.78 C 652.72 1065.37 654.30 1064.06 655.04 1062.26 L 659.70 1051.00 C 660.55 1048.92 662.51 1047.51 664.76 1047.36 C 667.00 1047.20 669.13 1048.34 670.26 1050.28 L 676.43 1060.90 C 677.41 1062.57 679.15 1063.65 681.08 1063.80 Z" fill="#ffb6b6" fill-rule="nonzero" group-id="1" node-id="182" stroke="#333333" stroke-linecap="round" stroke-width="8" target-height="63.58008" target-width="65.41998" target-x="633.78" target-y="1047.2"></path><path d="M 723.08 1057.80 L 735.33 1058.73 C 737.57 1058.90 739.52 1060.33 740.36 1062.41 C 741.20 1064.50 740.78 1066.88 739.28 1068.55 L 731.09 1077.70 C 729.79 1079.15 729.29 1081.14 729.75 1083.03 L 732.65 1094.97 C 733.17 1097.15 732.42 1099.44 730.69 1100.88 C 728.97 1102.32 726.58 1102.66 724.53 1101.76 L 713.29 1096.76 C 711.51 1095.98 709.46 1096.12 707.81 1097.14 L 697.35 1103.58 C 695.44 1104.78 693.01 1104.78 691.09 1103.58 C 689.18 1102.39 688.11 1100.21 688.35 1097.96 L 689.60 1085.74 C 689.81 1083.82 689.06 1081.91 687.60 1080.64 L 678.24 1072.64 C 676.52 1071.19 675.78 1068.88 676.33 1066.70 C 676.88 1064.52 678.62 1062.84 680.82 1062.37 L 692.82 1059.78 C 694.72 1059.37 696.30 1058.06 697.04 1056.26 L 701.70 1045.00 C 702.55 1042.92 704.51 1041.51 706.76 1041.36 C 709.00 1041.20 711.13 1042.34 712.26 1044.28 L 718.43 1054.90 C 719.41 1056.57 721.15 1057.65 723.08 1057.80 Z" fill="#facfff" fill-rule="nonzero" group-id="1" node-id="184" stroke="#333333" stroke-linecap="round" stroke-width="8" target-height="63.58008" target-width="65.41998" target-x="675.78" target-y="1041.2"></path></g></g><path d="M 693.83 1101.89 C 761.21 1079.97 758.17 1028.89 758.17 1028.89 C 742.82 1071.75 671.82 1074.35 641.49 1073.44 C 625.98 1073.06 610.75 1069.20 596.92 1062.16 C 545.00 1035.43 538.43 977.00 538.43 977.00 C 520.81 859.16 626.63 837.15 626.63 837.15 C 626.63 837.15 765.09 803.43 769.35 887.36 C 769.35 887.36 804.05 800.30 734.68 751.53 C 715.91 738.35 693.85 728.00 671.00 725.87 C 611.38 720.24 441.65 721.09 422.72 885.93 C 422.72 885.93 402.72 1017.86 510.00 1080.15 C 510.00 1080.15 565.00 1118.37 661.19 1108.59 C 672.28 1107.52 683.22 1105.27 693.83 1101.89 Z" fill="none" node-id="187" stroke="#333333" stroke-linecap="round" stroke-width="14" target-height="398.13" target-width="401.33" target-x="402.72" target-y="720.24"></path><path d="M 545.87 806.28 C 545.87 806.28 156.06 456.65 276.35 226.00 C 288.66 202.40 308.35 181.90 333.94 167.81 C 380.57 142.12 458.94 129.46 513.85 279.81 C 513.85 279.81 584.17 508.56 605.85 787.81" fill="#def9ff" fill-rule="nonzero" node-id="189" stroke="none" target-height="676.82" target-width="449.78998" target-x="156.06" target-y="129.46"></path><g clip-path="url(#clip-path-2)" group-id="2" id="sillyvg_g_1" node-id="191"><path d="M 557.43 763.73 L 571.56 764.81 C 574.15 765.00 576.40 766.65 577.37 769.06 C 578.33 771.46 577.85 774.21 576.11 776.14 L 566.66 786.69 C 565.17 788.36 564.59 790.66 565.12 792.84 L 568.46 806.61 C 569.07 809.13 568.20 811.78 566.22 813.44 C 564.23 815.10 561.47 815.49 559.10 814.44 L 546.10 808.72 C 544.05 807.81 541.68 807.97 539.77 809.15 L 527.71 816.58 C 525.50 817.94 522.72 817.92 520.52 816.55 C 518.33 815.17 517.11 812.67 517.37 810.09 L 518.85 796.00 C 519.08 793.77 518.19 791.57 516.48 790.12 L 505.69 780.94 C 503.72 779.26 502.87 776.60 503.51 774.09 C 504.15 771.57 506.15 769.64 508.69 769.10 L 522.54 766.10 C 524.73 765.63 526.55 764.11 527.40 762.04 L 532.79 748.94 C 533.78 746.55 536.04 744.92 538.62 744.74 C 541.21 744.57 543.67 745.87 544.97 748.11 L 552.10 760.36 C 553.22 762.29 555.21 763.55 557.43 763.73 Z" fill="#ffb6b6" fill-rule="nonzero" group-id="2" node-id="193" stroke="#333333" stroke-linecap="round" stroke-width="8" target-height="73.369995" target-width="75.46002" target-x="502.87" target-y="744.57"></path><path d="M 605.43 763.73 L 619.56 764.81 C 622.15 765.00 624.40 766.65 625.37 769.06 C 626.33 771.46 625.85 774.21 624.11 776.14 L 614.66 786.69 C 613.17 788.36 612.59 790.66 613.12 792.84 L 616.46 806.61 C 617.07 809.13 616.20 811.78 614.22 813.44 C 612.23 815.10 609.47 815.49 607.10 814.44 L 594.10 808.72 C 592.05 807.81 589.68 807.97 587.77 809.15 L 575.71 816.58 C 573.50 817.94 570.72 817.92 568.52 816.55 C 566.33 815.17 565.11 812.67 565.37 810.09 L 566.85 796.00 C 567.08 793.77 566.19 791.57 564.48 790.12 L 553.69 780.94 C 551.72 779.26 550.87 776.60 551.51 774.09 C 552.15 771.57 554.15 769.64 556.69 769.10 L 570.54 766.10 C 572.73 765.63 574.55 764.11 575.40 762.04 L 580.79 748.94 C 581.78 746.55 584.04 744.92 586.62 744.74 C 589.21 744.57 591.67 745.87 592.97 748.11 L 600.10 760.36 C 601.22 762.29 603.21 763.55 605.43 763.73 Z" fill="#ffe1e1" fill-rule="nonzero" group-id="2" node-id="195" stroke="#333333" stroke-linecap="round" stroke-width="8" target-height="73.369995" target-width="75.46002" target-x="550.87" target-y="744.57"></path><path d="M 486.62 679.47 L 499.94 674.64 C 502.38 673.76 505.10 674.34 506.97 676.13 C 508.84 677.92 509.53 680.62 508.75 683.09 L 504.48 696.60 C 503.81 698.74 504.23 701.07 505.61 702.83 L 514.32 714.00 C 515.92 716.05 516.21 718.82 515.08 721.16 C 513.95 723.49 511.59 724.98 509.00 725.00 L 494.83 725.12 C 492.59 725.14 490.50 726.26 489.24 728.12 L 481.31 739.86 C 479.86 742.01 477.31 743.14 474.74 742.79 C 472.18 742.44 470.03 740.66 469.21 738.20 L 464.72 724.77 C 464.01 722.64 462.30 721.00 460.15 720.38 L 446.54 716.46 C 444.05 715.75 442.19 713.68 441.73 711.13 C 441.27 708.59 442.29 706.00 444.37 704.46 L 455.77 696.00 C 457.58 694.67 458.61 692.54 458.53 690.30 L 458.05 676.14 C 457.96 673.55 459.35 671.14 461.64 669.91 C 463.92 668.69 466.70 668.87 468.81 670.37 L 480.34 678.60 C 482.16 679.90 484.51 680.23 486.62 679.47 Z" fill="#ffe1e1" fill-rule="nonzero" group-id="2" node-id="197" stroke="#333333" stroke-linecap="round" stroke-width="8" target-height="74.45001" target-width="74.94003" target-x="441.27" target-y="668.69"></path><path d="M 526.62 647.47 L 539.94 642.64 C 542.38 641.76 545.10 642.34 546.97 644.13 C 548.84 645.92 549.53 648.62 548.75 651.09 L 544.48 664.60 C 543.81 666.74 544.23 669.07 545.61 670.83 L 554.32 682.00 C 555.92 684.05 556.21 686.82 555.08 689.16 C 553.95 691.49 551.59 692.98 549.00 693.00 L 534.83 693.12 C 532.59 693.14 530.50 694.26 529.24 696.12 L 521.31 707.86 C 519.86 710.01 517.31 711.14 514.74 710.79 C 512.18 710.44 510.03 708.66 509.21 706.20 L 504.72 692.77 C 504.01 690.64 502.30 689.00 500.15 688.38 L 486.54 684.46 C 484.05 683.75 482.19 681.68 481.73 679.13 C 481.27 676.59 482.29 674.00 484.37 672.46 L 495.77 664.00 C 497.58 662.67 498.61 660.54 498.53 658.30 L 498.05 644.14 C 497.96 641.55 499.35 639.14 501.64 637.91 C 503.92 636.69 506.70 636.87 508.81 638.37 L 520.34 646.60 C 522.16 647.90 524.51 648.23 526.62 647.47 Z" fill="#ffe1e1" fill-rule="nonzero" group-id="2" node-id="199" stroke="#333333" stroke-linecap="round" stroke-width="8" target-height="74.45001" target-width="74.94003" target-x="481.27" target-y="636.69"></path><path d="M 508.32 621.45 L 522.17 624.45 C 524.71 624.99 526.72 626.92 527.36 629.44 C 528.00 631.96 527.15 634.62 525.17 636.30 L 514.37 645.47 C 512.66 646.92 511.78 649.11 512.00 651.34 L 513.44 665.44 C 513.70 668.02 512.47 670.52 510.28 671.90 C 508.08 673.27 505.30 673.28 503.09 671.92 L 491.00 664.47 C 489.09 663.30 486.73 663.14 484.68 664.04 L 471.68 669.76 C 469.31 670.80 466.55 670.41 464.56 668.75 C 462.58 667.08 461.71 664.44 462.32 661.92 L 465.66 648.16 C 466.19 645.98 465.62 643.68 464.12 642.01 L 454.68 631.45 C 452.95 629.52 452.47 626.77 453.44 624.37 C 454.41 621.96 456.66 620.32 459.24 620.12 L 473.37 619.05 C 475.60 618.88 477.60 617.62 478.73 615.69 L 485.86 603.44 C 487.17 601.20 489.63 599.90 492.21 600.08 C 494.80 600.26 497.05 601.88 498.04 604.28 L 503.43 617.38 C 504.28 619.47 506.11 620.99 508.32 621.45 Z" fill="#d2caff" fill-rule="nonzero" group-id="2" node-id="201" stroke="#333333" stroke-linecap="round" stroke-width="8" target-height="73.380005" target-width="75.53" target-x="452.47" target-y="599.9"></path><path d="M 541.79 595.78 L 554.33 589.18 C 556.62 587.97 559.40 588.18 561.50 589.70 C 563.60 591.22 564.65 593.81 564.21 596.36 L 561.81 610.36 C 561.45 612.57 562.19 614.81 563.81 616.36 L 573.95 626.25 C 575.80 628.06 576.47 630.76 575.67 633.23 C 574.87 635.69 572.74 637.48 570.18 637.86 L 556.18 639.86 C 553.96 640.18 552.04 641.57 551.05 643.58 L 544.78 656.29 C 543.64 658.61 541.27 660.09 538.68 660.09 C 536.09 660.09 533.72 658.61 532.58 656.29 L 526.30 643.58 C 525.31 641.57 523.40 640.18 521.18 639.86 L 507.18 637.86 C 504.62 637.48 502.49 635.69 501.69 633.23 C 500.89 630.76 501.56 628.06 503.41 626.25 L 513.55 616.36 C 515.17 614.81 515.91 612.57 515.55 610.36 L 513.15 596.36 C 512.71 593.81 513.76 591.22 515.86 589.70 C 517.96 588.18 520.74 587.97 523.03 589.18 L 535.57 595.78 C 537.52 596.78 539.84 596.78 541.79 595.78 Z" fill="#ffb6b6" fill-rule="nonzero" group-id="2" node-id="203" stroke="#333333" stroke-linecap="round" stroke-width="8" target-height="72.120056" target-width="75.579956" target-x="500.89" target-y="587.97"></path><path d="M 512.89 530.39 L 527.04 531.14 C 529.63 531.27 531.92 532.86 532.94 535.25 C 533.96 537.63 533.54 540.38 531.86 542.35 L 522.67 553.13 C 521.22 554.84 520.70 557.15 521.27 559.31 L 524.94 573.00 C 525.58 575.50 524.76 578.14 522.82 579.83 C 520.88 581.53 518.14 581.98 515.76 581.00 L 502.67 575.59 C 500.60 574.73 498.24 574.95 496.36 576.17 L 484.48 583.88 C 482.32 585.28 479.55 585.34 477.33 584.03 C 475.11 582.72 473.82 580.27 474.00 577.70 L 475.10 563.57 C 475.27 561.34 474.34 559.16 472.60 557.75 L 461.60 548.83 C 459.59 547.20 458.67 544.57 459.24 542.04 C 459.81 539.52 461.77 537.53 464.29 536.93 L 478.00 533.61 C 480.18 533.08 481.96 531.52 482.76 529.43 L 487.84 516.20 C 488.76 513.78 490.99 512.09 493.57 511.85 C 496.15 511.61 498.65 512.86 500.00 515.08 L 507.42 527.16 C 508.59 529.08 510.64 530.29 512.89 530.39 Z" fill="#ffe1e1" fill-rule="nonzero" group-id="2" node-id="205" stroke="#333333" stroke-linecap="round" stroke-width="8" target-height="73.73004" target-width="75.29001" target-x="458.67" target-y="511.61"></path><path d="M 454.62 536.47 L 467.94 531.64 C 470.38 530.76 473.10 531.34 474.97 533.13 C 476.84 534.92 477.53 537.62 476.75 540.09 L 472.48 553.60 C 471.81 555.74 472.23 558.07 473.61 559.83 L 482.32 571.00 C 483.92 573.05 484.21 575.82 483.08 578.16 C 481.95 580.49 479.59 581.98 477.00 582.00 L 462.83 582.12 C 460.59 582.14 458.50 583.26 457.24 585.12 L 449.31 596.86 C 447.86 599.01 445.31 600.14 442.74 599.79 C 440.18 599.44 438.03 597.66 437.21 595.20 L 432.72 581.77 C 432.01 579.64 430.30 578.00 428.15 577.38 L 414.54 573.46 C 412.05 572.75 410.19 570.68 409.73 568.13 C 409.27 565.59 410.29 563.00 412.37 561.46 L 423.77 553.00 C 425.58 551.67 426.61 549.54 426.53 547.30 L 426.05 533.14 C 425.96 530.55 427.35 528.14 429.64 526.91 C 431.92 525.69 434.70 525.87 436.81 527.37 L 448.34 535.60 C 450.16 536.90 452.51 537.23 454.62 536.47 Z" fill="#ffb6b6" fill-rule="nonzero" group-id="2" node-id="207" stroke="#333333" stroke-linecap="round" stroke-width="8" target-height="74.45001" target-width="74.94" target-x="409.27" target-y="525.69"></path><path d="M 348.20 474.00 L 361.40 479.14 C 363.82 480.08 365.49 482.32 365.71 484.90 C 365.93 487.48 364.67 489.97 362.45 491.31 L 350.34 498.65 C 348.42 499.81 347.20 501.84 347.07 504.08 L 346.26 518.23 C 346.12 520.82 344.51 523.11 342.12 524.12 C 339.72 525.14 336.96 524.70 335.00 523.00 L 324.26 513.75 C 322.57 512.28 320.26 511.75 318.09 512.32 L 304.39 515.91 C 301.88 516.56 299.22 515.74 297.53 513.78 C 295.83 511.83 295.39 509.08 296.39 506.69 L 301.88 493.63 C 302.74 491.56 302.54 489.21 301.33 487.32 L 293.67 475.40 C 292.25 473.21 292.21 470.41 293.55 468.17 C 294.90 465.94 297.40 464.67 300.00 464.90 L 314.12 466.08 C 316.35 466.27 318.53 465.34 319.95 463.61 L 328.95 452.61 C 330.59 450.60 333.23 449.70 335.75 450.29 C 338.28 450.87 340.26 452.84 340.85 455.36 L 344.00 469.19 C 344.52 471.39 346.09 473.19 348.20 474.00 Z" fill="#ffe1e1" fill-rule="nonzero" group-id="2" node-id="209" stroke="#333333" stroke-linecap="round" stroke-width="8" target-height="75.44" target-width="73.72" target-x="292.21" target-y="449.7"></path><path d="M 421.78 568.00 L 435.78 569.95 C 438.35 570.31 440.48 572.09 441.30 574.55 C 442.11 577.01 441.46 579.72 439.62 581.54 L 429.54 591.54 C 427.96 593.11 427.24 595.35 427.62 597.54 L 430.11 611.49 C 430.56 614.04 429.53 616.63 427.44 618.16 C 425.36 619.70 422.58 619.92 420.28 618.73 L 407.69 612.22 C 405.71 611.17 403.34 611.17 401.36 612.22 L 388.86 618.89 C 386.58 620.11 383.79 619.93 381.69 618.42 C 379.58 616.91 378.51 614.34 378.94 611.78 L 381.24 597.78 C 381.60 595.57 380.85 593.33 379.24 591.78 L 369.03 581.95 C 367.16 580.16 366.47 577.46 367.26 574.99 C 368.04 572.52 370.16 570.71 372.72 570.32 L 386.72 568.19 C 388.94 567.85 390.84 566.45 391.82 564.43 L 398.01 551.69 C 399.14 549.36 401.50 547.87 404.09 547.86 C 406.68 547.84 409.06 549.29 410.22 551.61 L 416.57 564.27 C 417.57 566.31 419.53 567.71 421.78 568.00 Z" fill="#ffe497" fill-rule="nonzero" group-id="2" node-id="211" stroke="#333333" stroke-linecap="round" stroke-width="8" target-height="72.26996" target-width="75.639984" target-x="366.47" target-y="547.84"></path><path d="M 384.78 513.00 L 398.78 514.95 C 401.35 515.31 403.48 517.09 404.30 519.55 C 405.11 522.01 404.46 524.72 402.62 526.54 L 392.54 536.54 C 390.96 538.11 390.24 540.35 390.62 542.54 L 393.11 556.49 C 393.56 559.04 392.53 561.63 390.44 563.16 C 388.36 564.70 385.58 564.92 383.28 563.73 L 370.69 557.22 C 368.71 556.17 366.34 556.17 364.36 557.22 L 351.86 563.89 C 349.58 565.11 346.79 564.93 344.69 563.42 C 342.58 561.91 341.51 559.34 341.94 556.78 L 344.24 542.78 C 344.60 540.57 343.85 538.33 342.24 536.78 L 332.03 526.95 C 330.16 525.16 329.47 522.46 330.26 519.99 C 331.04 517.52 333.16 515.71 335.72 515.32 L 349.72 513.19 C 351.94 512.85 353.84 511.45 354.82 509.43 L 361.01 496.69 C 362.14 494.36 364.50 492.87 367.09 492.86 C 369.68 492.84 372.06 494.29 373.22 496.61 L 379.57 509.27 C 380.57 511.31 382.53 512.71 384.78 513.00 Z" fill="#e7ffc7" fill-rule="nonzero" group-id="2" node-id="213" stroke="#333333" stroke-linecap="round" stroke-width="8" target-height="72.26999" target-width="75.639984" target-x="329.47" target-y="492.84"></path><path d="M 446.78 483.00 L 460.78 484.95 C 463.35 485.31 465.48 487.09 466.30 489.55 C 467.11 492.01 466.46 494.72 464.62 496.54 L 454.54 506.49 C 452.96 508.06 452.24 510.30 452.62 512.49 L 455.11 526.44 C 455.56 528.99 454.53 531.58 452.44 533.11 C 450.36 534.65 447.58 534.87 445.28 533.68 L 432.69 527.17 C 430.71 526.12 428.34 526.12 426.36 527.17 L 413.86 533.84 C 411.58 535.06 408.79 534.88 406.69 533.37 C 404.58 531.86 403.51 529.29 403.94 526.73 L 406.24 512.73 C 406.60 510.52 405.85 508.28 404.24 506.73 L 394.03 496.90 C 392.16 495.11 391.47 492.41 392.26 489.94 C 393.04 487.47 395.16 485.66 397.72 485.27 L 411.72 483.14 C 413.94 482.80 415.84 481.40 416.82 479.38 L 423.01 466.64 C 424.14 464.31 426.50 462.82 429.09 462.81 C 431.68 462.79 434.06 464.24 435.22 466.56 L 441.57 479.22 C 442.56 481.28 444.52 482.70 446.78 483.00 Z" fill="#facfff" fill-rule="nonzero" group-id="2" node-id="215" stroke="#333333" stroke-linecap="round" stroke-width="8" target-height="72.26999" target-width="75.639984" target-x="391.47" target-y="462.79"></path><path d="M 462.43 405.33 L 476.17 401.89 C 478.69 401.25 481.34 402.10 483.02 404.08 C 484.70 406.06 485.11 408.82 484.07 411.20 L 478.45 424.20 C 477.56 426.26 477.73 428.62 478.92 430.52 L 486.44 442.52 C 487.82 444.72 487.83 447.52 486.46 449.73 C 485.10 451.94 482.59 453.18 480.00 452.92 L 465.90 451.58 C 463.67 451.37 461.48 452.27 460.04 453.99 L 451.00 464.85 C 449.35 466.86 446.69 467.75 444.16 467.14 C 441.63 466.54 439.67 464.54 439.11 462.00 L 436.00 448.14 C 435.51 445.95 433.98 444.14 431.90 443.31 L 418.78 438.00 C 416.37 437.03 414.73 434.79 414.53 432.20 C 414.34 429.62 415.63 427.15 417.86 425.83 L 430.05 418.62 C 431.98 417.48 433.23 415.47 433.38 413.23 L 434.38 399.09 C 434.56 396.50 436.19 394.24 438.59 393.26 C 440.99 392.27 443.74 392.73 445.68 394.45 L 456.30 403.83 C 457.97 405.31 460.26 405.87 462.43 405.33 Z" fill="#e7ffc7" fill-rule="nonzero" group-id="2" node-id="217" stroke="#333333" stroke-linecap="round" stroke-width="8" target-height="75.48001" target-width="73.48999" target-x="414.34" target-y="392.27"></path><path d="M 397.20 441.00 L 410.40 446.14 C 412.82 447.08 414.49 449.32 414.71 451.90 C 414.93 454.48 413.67 456.97 411.45 458.31 L 399.34 465.65 C 397.42 466.81 396.20 468.84 396.07 471.08 L 395.26 485.23 C 395.12 487.82 393.51 490.11 391.12 491.12 C 388.72 492.14 385.96 491.70 384.00 490.00 L 373.26 480.75 C 371.57 479.28 369.26 478.75 367.09 479.32 L 353.39 482.91 C 350.88 483.56 348.22 482.74 346.53 480.78 C 344.83 478.83 344.39 476.08 345.39 473.69 L 350.88 460.63 C 351.74 458.56 351.54 456.21 350.33 454.32 L 342.67 442.40 C 341.25 440.21 341.21 437.41 342.55 435.17 C 343.90 432.94 346.40 431.67 349.00 431.90 L 363.12 433.08 C 365.35 433.27 367.53 432.34 368.95 430.61 L 377.95 419.61 C 379.59 417.60 382.23 416.70 384.75 417.29 C 387.28 417.87 389.26 419.84 389.85 422.36 L 393.00 436.19 C 393.52 438.39 395.09 440.19 397.20 441.00 Z" fill="#ffb6b6" fill-rule="nonzero" group-id="2" node-id="219" stroke="#333333" stroke-linecap="round" stroke-width="8" target-height="75.44" target-width="73.72" target-x="341.21" target-y="416.7"></path><path d="M 500.81 487.88 L 514.72 485.15 C 517.26 484.66 519.87 485.65 521.44 487.71 C 523.01 489.77 523.27 492.54 522.12 494.86 L 515.83 507.55 C 514.83 509.56 514.89 511.93 515.98 513.89 L 522.86 526.27 C 524.10 528.53 523.96 531.30 522.48 533.42 C 521.01 535.54 518.47 536.64 515.92 536.27 L 501.92 534.21 C 499.70 533.87 497.45 534.66 495.92 536.31 L 486.27 546.68 C 484.50 548.58 481.82 549.31 479.33 548.57 C 476.85 547.82 475.00 545.74 474.57 543.18 L 472.21 529.18 C 471.82 526.98 470.38 525.12 468.36 524.18 L 455.51 518.18 C 453.16 517.09 451.63 514.76 451.57 512.17 C 451.51 509.58 452.93 507.18 455.23 505.98 L 467.78 499.41 C 469.76 498.37 471.11 496.42 471.38 494.20 L 473.09 480.13 C 473.40 477.56 475.15 475.39 477.59 474.53 C 480.04 473.67 482.76 474.27 484.61 476.08 L 494.73 485.99 C 496.32 487.59 498.60 488.30 500.81 487.88 Z" fill="#ffb6b6" fill-rule="nonzero" group-id="2" node-id="221" stroke="#333333" stroke-linecap="round" stroke-width="8" target-height="75.639984" target-width="72.589966" target-x="451.51" target-y="473.67"></path><path d="M 563.21 486.46 L 577.29 488.00 C 579.86 488.29 582.05 490.01 582.94 492.45 C 583.82 494.88 583.24 497.61 581.45 499.48 L 571.63 509.70 C 570.08 511.32 569.42 513.59 569.87 515.79 L 572.72 529.67 C 573.24 532.21 572.28 534.82 570.23 536.41 C 568.19 538.00 565.42 538.29 563.09 537.16 L 550.34 531.00 C 548.32 530.03 545.95 530.11 544.00 531.21 L 531.69 538.21 C 529.44 539.49 526.65 539.38 524.51 537.93 C 522.36 536.47 521.23 533.93 521.58 531.36 L 523.51 517.36 C 523.83 515.13 523.03 512.88 521.36 511.36 L 510.90 501.81 C 508.98 500.07 508.22 497.38 508.94 494.89 C 509.66 492.40 511.74 490.53 514.29 490.08 L 528.23 487.58 C 530.44 487.19 532.31 485.73 533.23 483.69 L 539.08 470.79 C 540.15 468.43 542.46 466.88 545.06 466.79 C 547.65 466.71 550.06 468.10 551.28 470.39 L 558.00 482.90 C 559.05 484.87 561.00 486.20 563.21 486.46 Z" fill="#d2caff" fill-rule="nonzero" group-id="2" node-id="223" stroke="#333333" stroke-linecap="round" stroke-width="8" target-height="72.78" target-width="75.600006" target-x="508.22" target-y="466.71"></path><path d="M 529.21 428.46 L 543.29 430.00 C 545.86 430.29 548.05 432.01 548.94 434.45 C 549.82 436.88 549.24 439.61 547.45 441.48 L 537.63 451.70 C 536.08 453.32 535.42 455.59 535.87 457.79 L 538.72 471.67 C 539.24 474.21 538.28 476.82 536.23 478.41 C 534.19 480.00 531.42 480.29 529.09 479.16 L 516.34 473.00 C 514.32 472.03 511.95 472.11 510.00 473.21 L 497.69 480.21 C 495.44 481.49 492.65 481.38 490.51 479.93 C 488.36 478.47 487.23 475.93 487.58 473.36 L 489.51 459.36 C 489.83 457.13 489.03 454.88 487.36 453.36 L 476.90 443.81 C 474.98 442.07 474.22 439.38 474.94 436.89 C 475.66 434.40 477.74 432.53 480.29 432.08 L 494.23 429.58 C 496.44 429.19 498.31 427.73 499.23 425.69 L 505.08 412.79 C 506.15 410.43 508.46 408.88 511.06 408.79 C 513.65 408.71 516.06 410.10 517.28 412.39 L 524.00 424.90 C 525.05 426.87 527.00 428.20 529.21 428.46 Z" fill="#ffe1e1" fill-rule="nonzero" group-id="2" node-id="225" stroke="#333333" stroke-linecap="round" stroke-width="8" target-height="72.78" target-width="75.600006" target-x="474.22" target-y="408.71"></path><path d="M 432.79 600.78 L 445.33 594.18 C 447.62 592.97 450.40 593.18 452.50 594.70 C 454.60 596.22 455.65 598.81 455.21 601.36 L 452.81 615.36 C 452.45 617.57 453.19 619.81 454.81 621.36 L 464.95 631.25 C 466.80 633.06 467.47 635.76 466.67 638.23 C 465.87 640.69 463.74 642.48 461.18 642.86 L 447.18 644.86 C 444.96 645.18 443.04 646.57 442.05 648.58 L 435.78 661.29 C 434.64 663.61 432.27 665.09 429.68 665.09 C 427.09 665.09 424.72 663.61 423.58 661.29 L 417.30 648.58 C 416.31 646.57 414.40 645.18 412.18 644.86 L 398.18 642.86 C 395.62 642.48 393.49 640.69 392.69 638.23 C 391.89 635.76 392.56 633.06 394.41 631.25 L 404.55 621.36 C 406.17 619.81 406.91 617.57 406.55 615.36 L 404.15 601.36 C 403.71 598.81 404.76 596.22 406.86 594.70 C 408.96 593.18 411.74 592.97 414.03 594.18 L 426.57 600.78 C 428.52 601.78 430.84 601.78 432.79 600.78 Z" fill="#ffe1e1" fill-rule="nonzero" group-id="2" node-id="227" stroke="#333333" stroke-linecap="round" stroke-width="8" target-height="72.120056" target-width="75.57999" target-x="391.89" target-y="592.97"></path><path d="M 490.89 577.39 L 505.04 578.14 C 507.63 578.27 509.92 579.86 510.94 582.25 C 511.96 584.63 511.54 587.38 509.86 589.35 L 500.67 600.13 C 499.22 601.84 498.70 604.15 499.27 606.31 L 502.94 620.00 C 503.58 622.50 502.76 625.14 500.82 626.83 C 498.88 628.53 496.14 628.98 493.76 628.00 L 480.67 622.59 C 478.60 621.73 476.24 621.95 474.36 623.17 L 462.48 630.88 C 460.32 632.28 457.55 632.34 455.33 631.03 C 453.11 629.72 451.82 627.27 452.00 624.70 L 453.10 610.57 C 453.27 608.34 452.34 606.16 450.60 604.75 L 439.60 595.83 C 437.59 594.20 436.67 591.57 437.24 589.04 C 437.81 586.52 439.77 584.53 442.29 583.93 L 456.00 580.61 C 458.18 580.08 459.96 578.52 460.76 576.43 L 465.84 563.20 C 466.76 560.78 468.99 559.09 471.57 558.85 C 474.15 558.61 476.65 559.86 478.00 562.08 L 485.42 574.16 C 486.59 576.08 488.64 577.29 490.89 577.39 Z" fill="#facfff" fill-rule="nonzero" group-id="2" node-id="229" stroke="#333333" stroke-linecap="round" stroke-width="8" target-height="73.73004" target-width="75.28998" target-x="436.67" target-y="558.61"></path><path d="M 564.89 540.39 L 579.04 541.14 C 581.63 541.27 583.92 542.86 584.94 545.25 C 585.96 547.63 585.54 550.38 583.86 552.35 L 574.67 563.13 C 573.22 564.84 572.70 567.15 573.27 569.31 L 576.94 583.00 C 577.58 585.50 576.76 588.14 574.82 589.83 C 572.88 591.53 570.14 591.98 567.76 591.00 L 554.67 585.59 C 552.60 584.73 550.24 584.95 548.36 586.17 L 536.48 593.88 C 534.32 595.28 531.55 595.34 529.33 594.03 C 527.11 592.72 525.82 590.27 526.00 587.70 L 527.10 573.57 C 527.27 571.34 526.34 569.16 524.60 567.75 L 513.60 558.83 C 511.59 557.20 510.67 554.57 511.24 552.04 C 511.81 549.52 513.77 547.53 516.29 546.93 L 530.00 543.61 C 532.18 543.08 533.96 541.52 534.76 539.43 L 539.84 526.20 C 540.76 523.78 542.99 522.09 545.57 521.85 C 548.15 521.61 550.65 522.86 552.00 525.08 L 559.42 537.16 C 560.59 539.08 562.64 540.29 564.89 540.39 Z" fill="#ffe1e1" fill-rule="nonzero" group-id="2" node-id="231" stroke="#333333" stroke-linecap="round" stroke-width="8" target-height="73.73004" target-width="75.29001" target-x="510.67" target-y="521.61"></path><path d="M 584.32 632.45 L 598.17 635.45 C 600.71 635.99 602.72 637.92 603.36 640.44 C 604.00 642.96 603.15 645.62 601.17 647.30 L 590.37 656.47 C 588.66 657.92 587.78 660.11 588.00 662.34 L 589.44 676.44 C 589.70 679.02 588.47 681.52 586.28 682.90 C 584.08 684.27 581.30 684.28 579.09 682.92 L 567.00 675.47 C 565.09 674.30 562.73 674.14 560.68 675.04 L 547.68 680.76 C 545.31 681.80 542.55 681.41 540.56 679.75 C 538.58 678.08 537.71 675.44 538.32 672.92 L 541.66 659.16 C 542.19 656.98 541.62 654.68 540.12 653.01 L 530.68 642.45 C 528.95 640.52 528.47 637.77 529.44 635.37 C 530.41 632.96 532.66 631.32 535.24 631.12 L 549.37 630.05 C 551.60 629.88 553.60 628.62 554.73 626.69 L 561.86 614.44 C 563.17 612.20 565.63 610.90 568.21 611.08 C 570.80 611.26 573.05 612.88 574.04 615.28 L 579.43 628.38 C 580.28 630.47 582.11 631.99 584.32 632.45 Z" fill="#ffe1e1" fill-rule="nonzero" group-id="2" node-id="233" stroke="#333333" stroke-linecap="round" stroke-width="8" target-height="73.380005" target-width="75.53003" target-x="528.47" target-y="610.9"></path><path d="M 468.32 649.45 L 482.17 652.45 C 484.71 652.99 486.72 654.92 487.36 657.44 C 488.00 659.96 487.15 662.62 485.17 664.30 L 474.37 673.47 C 472.66 674.92 471.78 677.11 472.00 679.34 L 473.44 693.44 C 473.70 696.02 472.47 698.52 470.28 699.90 C 468.08 701.27 465.30 701.28 463.09 699.92 L 451.00 692.47 C 449.09 691.30 446.73 691.14 444.68 692.04 L 431.68 697.76 C 429.31 698.80 426.55 698.41 424.56 696.75 C 422.58 695.08 421.71 692.44 422.32 689.92 L 425.66 676.16 C 426.19 673.98 425.62 671.68 424.12 670.01 L 414.68 659.45 C 412.95 657.52 412.47 654.77 413.44 652.37 C 414.41 649.96 416.66 648.32 419.24 648.12 L 433.37 647.05 C 435.60 646.88 437.60 645.62 438.73 643.69 L 445.86 631.44 C 447.17 629.20 449.63 627.90 452.21 628.08 C 454.80 628.26 457.05 629.88 458.04 632.28 L 463.43 645.38 C 464.28 647.47 466.11 648.99 468.32 649.45 Z" fill="#ffe497" fill-rule="nonzero" group-id="2" node-id="235" stroke="#333333" stroke-linecap="round" stroke-width="8" target-height="73.380005" target-width="75.53" target-x="412.47" target-y="627.9"></path><path d="M 601.43 719.73 L 615.56 720.81 C 618.15 721.00 620.40 722.65 621.37 725.06 C 622.33 727.46 621.85 730.21 620.11 732.14 L 610.66 742.69 C 609.17 744.36 608.59 746.66 609.12 748.84 L 612.46 762.61 C 613.07 765.13 612.20 767.78 610.22 769.44 C 608.23 771.10 605.47 771.49 603.10 770.44 L 590.10 764.72 C 588.05 763.81 585.68 763.97 583.77 765.15 L 571.71 772.58 C 569.50 773.94 566.72 773.92 564.52 772.55 C 562.33 771.17 561.11 768.67 561.37 766.09 L 562.85 752.00 C 563.08 749.77 562.19 747.57 560.48 746.12 L 549.69 736.94 C 547.72 735.26 546.87 732.60 547.51 730.09 C 548.15 727.57 550.15 725.64 552.69 725.10 L 566.54 722.10 C 568.73 721.63 570.55 720.11 571.40 718.04 L 576.79 704.94 C 577.78 702.55 580.04 700.92 582.62 700.74 C 585.21 700.57 587.67 701.87 588.97 704.11 L 596.10 716.36 C 597.22 718.29 599.21 719.55 601.43 719.73 Z" fill="#facfff" fill-rule="nonzero" group-id="2" node-id="237" stroke="#333333" stroke-linecap="round" stroke-width="8" target-height="73.369995" target-width="75.46002" target-x="546.87" target-y="700.57"></path><path d="M 540.71 717.78 L 554.50 721.05 C 557.02 721.65 558.98 723.62 559.56 726.15 C 560.14 728.67 559.24 731.30 557.23 732.94 L 546.23 741.94 C 544.50 743.36 543.57 745.54 543.75 747.77 L 544.91 761.89 C 545.11 764.47 543.84 766.95 541.62 768.28 C 539.39 769.61 536.61 769.57 534.43 768.17 L 522.52 760.50 C 520.64 759.28 518.28 759.07 516.21 759.94 L 503.14 765.40 C 500.75 766.39 498.01 765.95 496.06 764.26 C 494.10 762.56 493.28 759.90 493.93 757.40 L 497.55 743.70 C 498.12 741.53 497.59 739.23 496.13 737.53 L 486.90 726.78 C 485.21 724.82 484.78 722.06 485.79 719.68 C 486.81 717.29 489.09 715.69 491.68 715.55 L 505.83 714.75 C 508.06 714.62 510.09 713.41 511.26 711.50 L 518.63 699.39 C 519.98 697.18 522.47 695.93 525.05 696.15 C 527.63 696.38 529.85 698.06 530.79 700.47 L 535.91 713.68 C 536.74 715.75 538.53 717.28 540.71 717.78 Z" fill="#ffe1e1" fill-rule="nonzero" group-id="2" node-id="239" stroke="#333333" stroke-linecap="round" stroke-width="8" target-height="73.67999" target-width="75.360016" target-x="484.78" target-y="695.93"></path><path d="M 566.62 670.39 L 579.94 665.56 C 582.38 664.68 585.10 665.26 586.97 667.05 C 588.84 668.84 589.53 671.54 588.75 674.01 L 584.48 687.52 C 583.81 689.66 584.23 691.99 585.61 693.75 L 594.32 704.93 C 595.92 706.97 596.21 709.75 595.08 712.08 C 593.96 714.42 591.60 715.91 589.01 715.93 L 574.84 716.05 C 572.60 716.06 570.50 717.19 569.25 719.05 L 561.32 730.79 C 559.87 732.94 557.32 734.07 554.75 733.72 C 552.19 733.37 550.04 731.59 549.22 729.13 L 544.73 715.69 C 544.02 713.57 542.31 711.93 540.16 711.31 L 526.55 707.39 C 524.07 706.67 522.21 704.61 521.75 702.06 C 521.29 699.52 522.31 696.93 524.38 695.39 L 535.77 686.97 C 537.58 685.64 538.61 683.51 538.53 681.27 L 538.05 667.11 C 537.96 664.52 539.35 662.11 541.64 660.88 C 543.92 659.66 546.70 659.84 548.81 661.34 L 560.34 669.57 C 562.17 670.86 564.52 671.16 566.62 670.39 Z" fill="#ffb6b6" fill-rule="nonzero" group-id="2" node-id="241" stroke="#333333" stroke-linecap="round" stroke-width="8" target-height="74.410034" target-width="74.920044" target-x="521.29" target-y="659.66"></path><path d="M 436.74 222.05 C 446.93 234.69 486.15 287.21 491.37 352.54 C 491.37 352.54 491.37 352.74 491.37 353.09 C 490.12 370.60 465.50 373.67 460.00 357.00 C 458.94 353.63 458.23 350.16 457.90 346.64 C 457.90 346.64 454.00 304.00 407.44 259.43 C 403.65 255.81 399.13 253.03 394.76 250.14 C 387.76 245.51 372.64 232.45 389.03 213.64 C 389.03 213.64 408.03 196.69 429.92 215.00 C 432.42 217.12 434.71 219.48 436.74 222.05 Z" fill="#ffffff" fill-rule="nonzero" group-id="2" node-id="243" stroke="#333333" stroke-linecap="round" stroke-width="8" target-height="176.98001" target-width="118.72998" target-x="372.64" target-y="196.69"></path><path d="M 506.15 407.79 C 506.15 417.73 498.09 425.79 488.15 425.79 C 478.21 425.79 470.15 417.73 470.15 407.79 C 470.15 397.85 478.21 389.79 488.15 389.79 C 498.09 389.79 506.15 397.85 506.15 407.79 Z" fill="#ffffff" fill-rule="nonzero" group-id="2" node-id="245" stroke="#333333" stroke-linecap="round" stroke-width="8" target-height="36" target-width="36" target-x="470.15" target-y="389.79"></path></g><path d="M 545.87 806.28 C 545.87 806.28 156.06 456.65 276.35 226.00 C 288.66 202.40 308.35 181.90 333.94 167.81 C 380.57 142.12 458.94 129.46 513.85 279.81 C 513.85 279.81 584.17 508.56 605.85 787.81" fill="none" node-id="248" stroke="#333333" stroke-linecap="round" stroke-width="14" target-height="676.82" target-width="449.78998" target-x="156.06" target-y="129.46"></path><path d="M 728.69 781.13 C 728.69 781.13 1005.69 373.13 861.11 207.92 C 845.86 190.50 824.75 176.86 799.51 169.49 C 750.35 155.15 671.04 158.75 648.51 316.71 C 648.51 316.71 630.07 486.08 670.70 772.42" fill="#def9ff" fill-rule="nonzero" node-id="250" stroke="none" target-height="625.98" target-width="375.62" target-x="630.07" target-y="155.15"></path><g clip-path="url(#clip-path-3)" group-id="3" id="sillyvg_g_2" node-id="252"><path d="M 845.82 254.21 C 845.82 254.21 877.00 328.00 856.33 400.53 L 856.11 401.03 C 848.84 417.03 824.71 411.27 825.42 393.74 C 825.61 390.21 826.17 386.70 827.08 383.28 C 827.08 383.28 837.64 336.98 806.53 282.54 C 803.90 278.00 801.02 273.61 797.90 269.39 C 792.96 262.60 783.38 245.08 805.30 233.20 C 805.30 233.20 832.32 222.70 845.82 254.21 Z" fill="#ffffff" fill-rule="nonzero" group-id="3" node-id="254" stroke="#333333" stroke-linecap="round" stroke-width="8" target-height="194.33" target-width="93.619995" target-x="783.38" target-y="222.7"></path><path d="M 728.64 768.80 L 740.92 775.87 C 743.16 777.17 744.47 779.63 744.30 782.21 C 744.14 784.79 742.52 787.06 740.13 788.06 L 727.05 793.50 C 725.00 794.37 723.50 796.20 723.05 798.38 L 720.12 812.24 C 719.58 814.77 717.64 816.77 715.14 817.41 C 712.63 818.05 709.97 817.21 708.29 815.24 L 699.00 804.50 C 697.54 802.80 695.34 801.93 693.11 802.16 L 679.02 803.66 C 676.44 803.93 673.93 802.72 672.55 800.53 C 671.16 798.34 671.14 795.55 672.49 793.34 L 679.88 781.25 C 681.05 779.34 681.20 776.97 680.28 774.93 L 674.53 762.00 C 673.47 759.63 673.85 756.87 675.51 754.88 C 677.16 752.88 679.81 752.00 682.33 752.60 L 696.11 755.89 C 698.29 756.41 700.59 755.82 702.25 754.32 L 712.77 744.83 C 714.69 743.09 717.43 742.60 719.84 743.55 C 722.25 744.51 723.90 746.75 724.11 749.33 L 725.25 763.46 C 725.44 765.69 726.70 767.68 728.64 768.80 Z" fill="#ffe1e1" fill-rule="nonzero" group-id="3" node-id="256" stroke="#333333" stroke-linecap="round" stroke-width="8" target-height="75.45001" target-width="73.329956" target-x="671.14" target-y="742.6"></path><path d="M 771.94 789.52 L 784.21 796.59 C 786.46 797.88 787.78 800.34 787.61 802.92 C 787.45 805.51 785.82 807.78 783.43 808.77 L 770.35 814.22 C 768.29 815.09 766.80 816.91 766.35 819.10 L 763.38 833.00 C 762.84 835.53 760.90 837.53 758.40 838.17 C 755.89 838.81 753.23 837.97 751.55 836.00 L 742.33 825.24 C 740.87 823.54 738.67 822.67 736.44 822.90 L 722.35 824.40 C 719.77 824.67 717.26 823.46 715.88 821.27 C 714.49 819.08 714.47 816.29 715.82 814.08 L 723.20 802.00 C 724.37 800.09 724.52 797.73 723.61 795.68 L 717.83 782.74 C 716.77 780.37 717.15 777.61 718.81 775.62 C 720.46 773.62 723.11 772.74 725.63 773.34 L 739.41 776.63 C 741.59 777.15 743.89 776.56 745.55 775.06 L 756.07 765.57 C 757.99 763.83 760.73 763.34 763.14 764.29 C 765.55 765.25 767.20 767.49 767.41 770.07 L 768.55 784.20 C 768.74 786.42 770.00 788.41 771.94 789.52 Z" fill="#ffe1e1" fill-rule="nonzero" group-id="3" node-id="258" stroke="#333333" stroke-linecap="round" stroke-width="8" target-height="75.46997" target-width="73.31006" target-x="714.47" target-y="763.34"></path><path d="M 701.13 662.23 L 715.23 663.62 C 717.81 663.87 720.02 665.57 720.93 667.99 C 721.85 670.42 721.30 673.15 719.53 675.04 L 709.85 685.39 C 708.32 687.03 707.70 689.31 708.18 691.50 L 711.18 705.34 C 711.73 707.87 710.80 710.50 708.78 712.11 C 706.75 713.73 703.99 714.06 701.64 712.96 L 688.81 706.96 C 686.78 706.01 684.41 706.12 682.48 707.25 L 670.26 714.41 C 668.02 715.72 665.24 715.65 663.08 714.22 C 660.91 712.80 659.74 710.27 660.06 707.70 L 661.81 693.64 C 662.09 691.42 661.26 689.20 659.58 687.71 L 649.00 678.29 C 647.07 676.57 646.28 673.90 646.97 671.40 C 647.65 668.90 649.70 667.01 652.24 666.52 L 666.15 663.84 C 668.38 663.42 670.25 661.92 671.15 659.84 L 676.83 646.84 C 677.87 644.46 680.16 642.89 682.75 642.77 C 685.34 642.65 687.77 644.01 689.02 646.28 L 695.87 658.68 C 696.93 660.66 698.90 661.99 701.13 662.23 Z" fill="#ffe1e1" fill-rule="nonzero" group-id="3" node-id="260" stroke="#333333" stroke-linecap="round" stroke-width="8" target-height="73.06995" target-width="75.56995" target-x="646.28" target-y="642.65"></path><path d="M 751.00 650.63 L 765.10 652.02 C 767.68 652.27 769.89 653.97 770.80 656.39 C 771.72 658.82 771.17 661.55 769.40 663.44 L 759.72 673.79 C 758.19 675.43 757.56 677.71 758.04 679.90 L 761.04 693.74 C 761.60 696.27 760.67 698.90 758.65 700.52 C 756.62 702.13 753.86 702.46 751.51 701.36 L 738.68 695.36 C 736.65 694.41 734.28 694.52 732.35 695.65 L 720.12 702.81 C 717.89 704.08 715.13 703.99 712.99 702.57 C 710.85 701.15 709.69 698.64 710.00 696.09 L 711.74 682.00 C 712.01 679.78 711.18 677.56 709.50 676.07 L 698.92 666.66 C 696.98 664.94 696.18 662.27 696.87 659.77 C 697.56 657.27 699.60 655.38 702.15 654.89 L 716.06 652.21 C 718.29 651.79 720.16 650.29 721.06 648.21 L 726.74 635.21 C 727.78 632.84 730.08 631.26 732.67 631.14 C 735.26 631.02 737.69 632.38 738.94 634.65 L 745.78 647.05 C 746.83 649.03 748.78 650.36 751.00 650.63 Z" fill="#facfff" fill-rule="nonzero" group-id="3" node-id="262" stroke="#333333" stroke-linecap="round" stroke-width="8" target-height="73.06" target-width="75.53998" target-x="696.18" target-y="631.02"></path><path d="M 745.75 619.26 L 756.95 627.94 C 759.03 629.52 760.02 632.15 759.50 634.70 C 758.98 637.26 757.05 639.29 754.52 639.94 L 740.82 643.55 C 738.65 644.12 736.91 645.72 736.15 647.83 L 731.36 661.16 C 730.48 663.60 728.30 665.33 725.73 665.62 C 723.15 665.92 720.63 664.73 719.23 662.55 L 711.56 650.63 C 710.34 648.75 708.28 647.58 706.04 647.51 L 691.88 647.00 C 689.29 646.92 686.97 645.37 685.90 643.02 C 684.83 640.66 685.18 637.90 686.82 635.89 L 695.82 624.89 C 697.24 623.15 697.71 620.83 697.08 618.68 L 693.08 605.08 C 692.36 602.59 693.11 599.91 695.02 598.16 C 696.93 596.41 699.66 595.89 702.08 596.83 L 715.28 601.96 C 717.37 602.77 719.72 602.51 721.58 601.25 L 733.29 593.25 C 735.43 591.79 738.21 591.68 740.47 592.95 C 742.72 594.22 744.06 596.66 743.92 599.25 L 743.12 613.39 C 742.96 615.66 743.94 617.87 745.75 619.26 Z" fill="#ffe1e1" fill-rule="nonzero" group-id="3" node-id="264" stroke="#333333" stroke-linecap="round" stroke-width="8" target-height="74.23999" target-width="75.19" target-x="684.83" target-y="591.68"></path><path d="M 787.00 610.55 L 801.16 610.01 C 803.75 609.90 806.18 611.28 807.43 613.56 C 808.67 615.84 808.50 618.63 807.00 620.75 L 798.81 632.31 C 797.52 634.14 797.21 636.49 797.98 638.59 L 802.86 651.89 C 803.75 654.32 803.19 657.05 801.40 658.93 C 799.62 660.80 796.92 661.51 794.45 660.74 L 780.92 656.52 C 778.78 655.86 776.45 656.29 774.69 657.67 L 763.55 666.42 C 761.51 668.02 758.75 668.32 756.41 667.20 C 754.08 666.09 752.58 663.74 752.55 661.15 L 752.35 647.00 C 752.33 644.76 751.21 642.67 749.35 641.42 L 737.58 633.54 C 735.43 632.10 734.28 629.56 734.62 626.98 C 734.96 624.41 736.73 622.26 739.19 621.43 L 752.61 616.89 C 754.73 616.17 756.36 614.45 756.98 612.30 L 760.84 598.67 C 761.55 596.18 763.61 594.31 766.15 593.84 C 768.70 593.37 771.29 594.39 772.84 596.46 L 781.31 607.82 C 782.65 609.61 784.77 610.63 787.00 610.55 Z" fill="#ffe497" fill-rule="nonzero" group-id="3" node-id="266" stroke="#333333" stroke-linecap="round" stroke-width="8" target-height="74.95001" target-width="74.38995" target-x="734.28" target-y="593.37"></path><path d="M 789.18 539.09 L 801.62 545.87 C 803.89 547.11 805.27 549.53 805.16 552.12 C 805.06 554.71 803.50 557.02 801.13 558.07 L 788.13 563.82 C 786.08 564.74 784.61 566.61 784.21 568.82 L 781.61 582.74 C 781.11 585.25 779.23 587.27 776.76 587.96 C 774.29 588.65 771.64 587.89 769.91 586.00 L 760.43 575.46 C 758.93 573.80 756.71 572.97 754.49 573.26 L 740.49 575.10 C 737.93 575.44 735.40 574.30 733.96 572.16 C 732.51 570.02 732.40 567.25 733.67 565.00 L 740.76 552.73 C 741.88 550.79 741.97 548.42 741.01 546.40 L 734.93 533.61 C 733.80 531.27 734.11 528.49 735.72 526.44 C 737.33 524.40 739.96 523.45 742.50 524.00 L 756.35 527.00 C 758.54 527.47 760.82 526.83 762.45 525.29 L 772.74 515.55 C 774.62 513.77 777.35 513.21 779.78 514.11 C 782.21 515.01 783.92 517.21 784.19 519.78 L 785.66 533.87 C 785.91 536.08 787.23 538.03 789.18 539.09 Z" fill="#ffe1e1" fill-rule="nonzero" group-id="3" node-id="268" stroke="#333333" stroke-linecap="round" stroke-width="8" target-height="75.44" target-width="72.869995" target-x="732.4" target-y="513.21"></path><path d="M 734.00 519.42 L 748.10 520.81 C 750.68 521.07 752.89 522.76 753.80 525.19 C 754.71 527.61 754.17 530.35 752.40 532.24 L 742.72 542.58 C 741.19 544.22 740.56 546.50 741.04 548.69 L 744.04 562.53 C 744.60 565.06 743.67 567.69 741.64 569.31 C 739.62 570.93 736.85 571.26 734.50 570.16 L 721.67 564.16 C 719.64 563.21 717.27 563.31 715.34 564.45 L 703.12 571.61 C 700.88 572.92 698.10 572.85 695.93 571.42 C 693.77 569.99 692.60 567.46 692.92 564.89 L 694.67 550.89 C 694.95 548.67 694.11 546.45 692.44 544.96 L 681.85 535.54 C 679.92 533.82 679.13 531.15 679.82 528.65 C 680.50 526.15 682.55 524.26 685.09 523.77 L 699.00 521.00 C 701.22 520.59 703.09 519.11 704.00 517.05 L 709.68 504.05 C 710.72 501.68 713.01 500.10 715.60 499.98 C 718.18 499.86 720.61 501.22 721.87 503.48 L 728.72 515.89 C 729.79 517.87 731.76 519.19 734.00 519.42 Z" fill="#facfff" fill-rule="nonzero" group-id="3" node-id="270" stroke="#333333" stroke-linecap="round" stroke-width="8" target-height="73.06" target-width="75.58002" target-x="679.13" target-y="499.86"></path><path d="M 690.00 418.11 L 699.68 428.45 C 701.45 430.34 701.99 433.07 701.08 435.50 C 700.17 437.92 697.97 439.62 695.39 439.88 L 681.29 441.28 C 679.06 441.50 677.08 442.80 676.00 444.77 L 669.16 457.17 C 667.91 459.44 665.48 460.80 662.89 460.69 C 660.30 460.57 658.00 458.99 656.96 456.62 L 651.28 443.62 C 650.37 441.56 648.50 440.08 646.28 439.67 L 632.38 437.00 C 629.84 436.51 627.79 434.62 627.11 432.12 C 626.42 429.62 627.21 426.95 629.14 425.23 L 639.72 415.82 C 641.41 414.34 642.27 412.13 642.00 409.90 L 640.25 395.84 C 639.92 393.27 641.09 390.73 643.25 389.31 C 645.42 387.88 648.20 387.81 650.44 389.12 L 662.67 396.27 C 664.60 397.40 666.97 397.51 669.00 396.56 L 681.82 390.56 C 684.16 389.46 686.93 389.78 688.96 391.40 C 690.98 393.01 691.92 395.64 691.36 398.17 L 688.36 412.01 C 687.87 414.19 688.49 416.47 690.00 418.11 Z" fill="#ffe1e1" fill-rule="nonzero" group-id="3" node-id="272" stroke="#333333" stroke-linecap="round" stroke-width="8" target-height="72.98999" target-width="75.57001" target-x="626.42" target-y="387.81"></path><path d="M 690.78 533.65 L 702.60 541.46 C 704.76 542.89 705.92 545.42 705.59 547.99 C 705.27 550.56 703.52 552.72 701.07 553.57 L 687.68 558.20 C 685.56 558.93 683.94 560.66 683.34 562.82 L 679.56 576.47 C 678.87 578.97 676.82 580.86 674.27 581.35 C 671.72 581.83 669.12 580.83 667.56 578.76 L 659.00 567.46 C 657.65 565.67 655.51 564.66 653.27 564.76 L 639.11 565.38 C 636.52 565.49 634.09 564.13 632.85 561.86 C 631.60 559.59 631.75 556.80 633.23 554.68 L 641.34 543.07 C 642.63 541.23 642.93 538.88 642.14 536.78 L 637.14 523.52 C 636.23 521.09 636.78 518.36 638.56 516.47 C 640.33 514.58 643.02 513.87 645.50 514.62 L 659.05 518.74 C 661.19 519.40 663.52 518.96 665.28 517.56 L 676.36 508.73 C 678.39 507.12 681.16 506.79 683.50 507.90 C 685.85 509.00 687.36 511.34 687.41 513.93 L 687.67 528.10 C 687.72 530.35 688.89 532.43 690.78 533.65 Z" fill="#d2caff" fill-rule="nonzero" group-id="3" node-id="274" stroke="#333333" stroke-linecap="round" stroke-width="8" target-height="75.04001" target-width="74.32001" target-x="631.6" target-y="506.79"></path><path d="M 681.15 468.06 L 693.00 475.88 C 695.17 477.31 696.33 479.85 696.00 482.43 C 695.67 485.01 693.89 487.17 691.43 488.00 L 678.00 492.62 C 675.88 493.35 674.26 495.08 673.67 497.24 L 669.89 510.89 C 669.20 513.39 667.15 515.28 664.60 515.77 C 662.05 516.25 659.45 515.25 657.89 513.18 L 649.35 501.87 C 648.00 500.09 645.86 499.08 643.62 499.17 L 629.47 499.80 C 626.88 499.92 624.45 498.56 623.20 496.28 C 621.95 494.01 622.10 491.22 623.59 489.10 L 631.70 477.49 C 632.98 475.65 633.28 473.30 632.49 471.20 L 627.49 457.93 C 626.59 455.51 627.13 452.78 628.90 450.89 C 630.67 449.00 633.36 448.28 635.84 449.03 L 649.40 453.16 C 651.56 453.85 653.93 453.41 655.70 452.00 L 666.78 443.18 C 668.81 441.57 671.58 441.24 673.92 442.35 C 676.27 443.45 677.78 445.79 677.83 448.38 L 678.09 462.54 C 678.15 464.77 679.29 466.83 681.15 468.06 Z" fill="#ffe1e1" fill-rule="nonzero" group-id="3" node-id="276" stroke="#333333" stroke-linecap="round" stroke-width="8" target-height="75.01001" target-width="74.380005" target-x="621.95" target-y="441.24"></path><path d="M 750.00 467.77 L 761.82 475.58 C 763.98 477.01 765.14 479.54 764.81 482.11 C 764.49 484.68 762.74 486.84 760.29 487.69 L 746.90 492.32 C 744.78 493.05 743.16 494.78 742.56 496.94 L 738.78 510.59 C 738.09 513.09 736.04 514.98 733.49 515.47 C 730.94 515.95 728.34 514.95 726.78 512.88 L 718.24 501.57 C 716.89 499.79 714.75 498.78 712.51 498.88 L 698.35 499.50 C 695.76 499.61 693.33 498.25 692.09 495.98 C 690.84 493.71 690.99 490.92 692.47 488.80 L 700.59 477.19 C 701.87 475.35 702.17 473.00 701.38 470.90 L 696.38 457.63 C 695.47 455.20 696.02 452.47 697.80 450.58 C 699.57 448.69 702.26 447.98 704.74 448.73 L 718.29 452.86 C 720.44 453.51 722.77 453.07 724.52 451.67 L 735.60 442.85 C 737.63 441.24 740.40 440.91 742.74 442.02 C 745.09 443.12 746.60 445.46 746.65 448.05 L 746.91 462.21 C 746.96 464.46 748.12 466.54 750.00 467.77 Z" fill="#ffe497" fill-rule="nonzero" group-id="3" node-id="278" stroke="#333333" stroke-linecap="round" stroke-width="8" target-height="75.04001" target-width="74.29999" target-x="690.84" target-y="440.91"></path><path d="M 824.64 421.50 L 838.52 424.33 C 841.06 424.85 843.09 426.76 843.75 429.27 C 844.41 431.77 843.59 434.44 841.63 436.14 L 830.94 445.44 C 829.25 446.91 828.39 449.12 828.65 451.34 L 830.25 465.42 C 830.53 467.99 829.34 470.49 827.16 471.89 C 824.99 473.28 822.22 473.33 820.00 472.00 L 807.85 464.71 C 805.93 463.56 803.57 463.42 801.53 464.35 L 788.63 470.22 C 786.27 471.30 783.51 470.94 781.50 469.30 C 779.50 467.66 778.60 465.02 779.18 462.50 L 782.36 448.69 C 782.86 446.51 782.26 444.22 780.75 442.57 L 771.18 432.12 C 769.43 430.21 768.92 427.47 769.86 425.06 C 770.79 422.64 773.02 420.97 775.60 420.74 L 789.72 419.50 C 791.95 419.30 793.94 418.02 795.05 416.07 L 802.05 403.74 C 803.33 401.49 805.77 400.15 808.36 400.30 C 810.95 400.45 813.23 402.05 814.24 404.43 L 819.78 417.48 C 820.64 419.54 822.46 421.04 824.64 421.50 Z" fill="#ffe1e1" fill-rule="nonzero" group-id="3" node-id="280" stroke="#333333" stroke-linecap="round" stroke-width="8" target-height="73.17999" target-width="75.48999" target-x="768.92" target-y="400.15"></path><path d="M 761.41 413.50 L 771.10 423.84 C 772.87 425.73 773.42 428.46 772.50 430.89 C 771.59 433.31 769.38 435.01 766.80 435.26 L 752.70 436.66 C 750.47 436.89 748.49 438.19 747.41 440.15 L 740.57 452.56 C 739.32 454.83 736.89 456.19 734.30 456.07 C 731.71 455.95 729.42 454.38 728.38 452.00 L 722.69 439.00 C 721.78 436.94 719.91 435.46 717.69 435.05 L 703.77 432.38 C 701.23 431.89 699.18 430.00 698.50 427.50 C 697.81 425.00 698.60 422.33 700.53 420.61 L 711.12 411.19 C 712.79 409.70 713.63 407.48 713.35 405.26 L 711.59 391.20 C 711.26 388.63 712.43 386.09 714.59 384.67 C 716.76 383.24 719.54 383.17 721.78 384.48 L 734.01 391.64 C 735.94 392.77 738.31 392.88 740.34 391.92 L 753.17 385.92 C 755.52 384.82 758.28 385.15 760.31 386.77 C 762.33 388.38 763.26 391.01 762.71 393.54 L 759.71 407.38 C 759.23 409.58 759.87 411.87 761.41 413.50 Z" fill="#e7ffc7" fill-rule="nonzero" group-id="3" node-id="282" stroke="#333333" stroke-linecap="round" stroke-width="8" target-height="73.01999" target-width="75.609985" target-x="697.81" target-y="383.17"></path><path d="M 796.63 481.53 L 810.35 485.07 C 812.88 485.71 814.82 487.73 815.35 490.29 C 815.88 492.85 814.91 495.48 812.84 497.07 L 801.69 505.80 C 799.92 507.18 798.95 509.34 799.09 511.58 L 799.96 525.72 C 800.12 528.31 798.79 530.76 796.54 532.04 C 794.29 533.33 791.51 533.23 789.36 531.78 L 777.61 523.87 C 775.75 522.62 773.40 522.36 771.31 523.18 L 758.13 528.38 C 755.72 529.31 753.00 528.79 751.09 527.06 C 749.19 525.32 748.43 522.65 749.13 520.17 L 753.00 506.51 C 753.62 504.36 753.13 502.04 751.71 500.31 L 742.71 489.38 C 741.06 487.38 740.69 484.62 741.75 482.26 C 742.81 479.89 745.12 478.34 747.71 478.24 L 761.87 477.74 C 764.11 477.66 766.17 476.48 767.37 474.59 L 775.00 462.64 C 776.40 460.48 778.90 459.30 781.46 459.59 C 784.02 459.88 786.19 461.59 787.08 464.00 L 791.94 477.31 C 792.72 479.40 794.47 480.98 796.63 481.53 Z" fill="#ffb6b6" fill-rule="nonzero" group-id="3" node-id="284" stroke="#333333" stroke-linecap="round" stroke-width="8" target-height="74.03003" target-width="75.19" target-x="740.69" target-y="459.3"></path><path d="M 853.54 521.18 L 865.54 528.68 C 867.74 530.05 868.97 532.55 868.71 535.13 C 868.45 537.71 866.75 539.92 864.33 540.83 L 851.06 545.83 C 848.96 546.62 847.39 548.39 846.85 550.56 L 843.43 564.31 C 842.80 566.82 840.80 568.76 838.27 569.32 C 835.74 569.87 833.12 568.93 831.50 566.91 L 822.67 555.84 C 821.28 554.08 819.11 553.13 816.87 553.29 L 802.73 554.29 C 800.15 554.47 797.68 553.17 796.38 550.93 C 795.07 548.70 795.15 545.91 796.57 543.75 L 804.38 531.92 C 805.61 530.05 805.85 527.69 805.00 525.62 L 799.69 512.49 C 798.72 510.09 799.19 507.34 800.92 505.41 C 802.64 503.47 805.31 502.68 807.81 503.37 L 821.47 507.14 C 823.63 507.73 825.94 507.23 827.66 505.79 L 838.50 496.67 C 840.48 495.00 843.24 494.61 845.62 495.65 C 847.99 496.69 849.56 498.99 849.68 501.58 L 850.32 515.73 C 850.43 517.97 851.63 520.00 853.54 521.18 Z" fill="#d2caff" fill-rule="nonzero" group-id="3" node-id="286" stroke="#333333" stroke-linecap="round" stroke-width="8" target-height="75.26001" target-width="73.89996" target-x="795.07" target-y="494.61"></path><path d="M 873.90 468.19 L 885.90 475.69 C 888.10 477.06 889.33 479.56 889.07 482.14 C 888.81 484.72 887.11 486.93 884.69 487.84 L 871.43 492.84 C 869.33 493.63 867.75 495.40 867.21 497.58 L 863.80 511.32 C 863.18 513.84 861.18 515.78 858.65 516.33 C 856.11 516.89 853.49 515.95 851.87 513.93 L 843.03 502.85 C 841.63 501.10 839.46 500.15 837.23 500.30 L 823.10 501.30 C 820.52 501.46 818.06 500.15 816.77 497.91 C 815.48 495.67 815.57 492.88 817.00 490.73 L 824.80 478.91 C 826.04 477.04 826.27 474.68 825.43 472.60 L 820.11 459.47 C 819.14 457.07 819.61 454.32 821.34 452.39 C 823.06 450.45 825.73 449.66 828.23 450.35 L 841.89 454.12 C 844.05 454.72 846.37 454.21 848.08 452.77 L 858.93 443.66 C 860.91 442.00 863.67 441.60 866.04 442.64 C 868.41 443.68 869.99 445.97 870.11 448.56 L 870.75 462.72 C 870.84 464.95 872.02 466.99 873.90 468.19 Z" fill="#ffe1e1" fill-rule="nonzero" group-id="3" node-id="288" stroke="#333333" stroke-linecap="round" stroke-width="8" target-height="75.29001" target-width="73.85004" target-x="815.48" target-y="441.6"></path><path d="M 686.54 568.00 L 700.70 567.46 C 703.29 567.36 705.71 568.75 706.94 571.03 C 708.17 573.30 708.01 576.09 706.51 578.20 L 698.32 589.76 C 697.03 591.59 696.72 593.94 697.49 596.04 L 702.37 609.34 C 703.26 611.76 702.70 614.48 700.93 616.36 C 699.15 618.24 696.47 618.95 694.00 618.20 L 680.43 614.00 C 678.29 613.34 675.96 613.77 674.20 615.15 L 663.06 623.90 C 661.02 625.50 658.26 625.80 655.92 624.68 C 653.59 623.57 652.09 621.22 652.06 618.63 L 651.88 604.47 C 651.86 602.23 650.74 600.15 648.88 598.90 L 637.09 591.00 C 634.94 589.56 633.79 587.02 634.13 584.44 C 634.47 581.87 636.24 579.72 638.70 578.89 L 652.12 574.35 C 654.24 573.63 655.87 571.91 656.49 569.76 L 660.35 556.13 C 661.06 553.64 663.12 551.77 665.66 551.30 C 668.21 550.83 670.80 551.85 672.35 553.92 L 680.82 565.28 C 682.16 567.07 684.30 568.09 686.54 568.00 Z" fill="#ffe1e1" fill-rule="nonzero" group-id="3" node-id="290" stroke="#333333" stroke-linecap="round" stroke-width="8" target-height="74.96997" target-width="74.380005" target-x="633.79" target-y="550.83"></path><path d="M 763.05 575.00 L 775.49 581.78 C 777.78 583.02 779.16 585.45 779.05 588.04 C 778.95 590.64 777.38 592.95 775.00 594.00 L 762.00 599.75 C 759.95 600.67 758.48 602.54 758.08 604.75 L 755.48 618.67 C 755.01 621.22 753.13 623.28 750.63 623.98 C 748.13 624.69 745.45 623.91 743.72 621.98 L 734.25 611.44 C 732.75 609.78 730.53 608.95 728.31 609.24 L 714.31 611.00 C 711.74 611.34 709.20 610.18 707.76 608.03 C 706.32 605.87 706.23 603.08 707.53 600.84 L 714.63 588.57 C 715.75 586.63 715.84 584.26 714.88 582.24 L 708.80 569.45 C 707.68 567.11 707.99 564.34 709.60 562.31 C 711.20 560.27 713.83 559.33 716.36 559.87 L 730.22 562.87 C 732.41 563.34 734.69 562.70 736.32 561.16 L 746.61 551.42 C 748.49 549.64 751.22 549.08 753.65 549.98 C 756.08 550.88 757.79 553.08 758.06 555.65 L 759.53 569.74 C 759.76 571.97 761.08 573.93 763.05 575.00 Z" fill="#e7ffc7" fill-rule="nonzero" group-id="3" node-id="292" stroke="#333333" stroke-linecap="round" stroke-width="8" target-height="75.609985" target-width="72.92999" target-x="706.23" target-y="549.08"></path><path d="M 831.77 570.56 L 844.21 577.34 C 846.49 578.58 847.86 581.00 847.76 583.59 C 847.65 586.18 846.09 588.48 843.72 589.53 L 830.72 595.29 C 828.67 596.21 827.20 598.08 826.80 600.29 L 824.20 614.22 C 823.73 616.77 821.85 618.83 819.35 619.53 C 816.86 620.23 814.18 619.45 812.45 617.52 L 803.00 607.00 C 801.50 605.33 799.28 604.51 797.06 604.80 L 783.00 606.59 C 780.43 606.93 777.89 605.78 776.46 603.62 C 775.02 601.47 774.93 598.68 776.23 596.44 L 783.32 584.17 C 784.44 582.23 784.53 579.86 783.57 577.84 L 777.52 565.00 C 776.41 562.66 776.72 559.89 778.33 557.86 C 779.94 555.83 782.56 554.88 785.09 555.42 L 798.94 558.42 C 801.13 558.88 803.41 558.24 805.04 556.70 L 815.33 547.00 C 817.21 545.22 819.94 544.66 822.37 545.56 C 824.80 546.46 826.51 548.66 826.78 551.24 L 828.25 565.33 C 828.50 567.54 829.81 569.50 831.77 570.56 Z" fill="#ffe1e1" fill-rule="nonzero" group-id="3" node-id="294" stroke="#333333" stroke-linecap="round" stroke-width="8" target-height="75.57001" target-width="72.92999" target-x="774.93" target-y="544.66"></path><path d="M 809.56 662.00 L 820.76 670.67 C 822.83 672.25 823.81 674.88 823.30 677.43 C 822.78 679.98 820.85 682.02 818.33 682.67 L 804.63 686.28 C 802.46 686.85 800.71 688.45 799.96 690.56 L 795.16 703.89 C 794.29 706.34 792.09 708.08 789.50 708.37 C 786.91 708.65 784.39 707.43 783.00 705.23 L 775.34 693.32 C 774.12 691.44 772.06 690.27 769.82 690.20 L 755.66 689.76 C 753.07 689.68 750.75 688.13 749.68 685.78 C 748.61 683.42 748.96 680.66 750.60 678.65 L 759.60 667.65 C 761.02 665.91 761.49 663.59 760.86 661.44 L 756.86 647.84 C 756.14 645.35 756.89 642.67 758.80 640.92 C 760.71 639.17 763.44 638.65 765.86 639.59 L 779.07 644.72 C 781.16 645.53 783.51 645.26 785.36 644.00 L 797.08 636.00 C 799.22 634.55 802.00 634.44 804.25 635.71 C 806.50 636.98 807.84 639.42 807.70 642.00 L 806.90 656.14 C 806.76 658.41 807.75 660.61 809.56 662.00 Z" fill="#ffe1e1" fill-rule="nonzero" group-id="3" node-id="296" stroke="#333333" stroke-linecap="round" stroke-width="8" target-height="74.21002" target-width="75.20001" target-x="748.61" target-y="634.44"></path><path d="M 697.59 627.25 L 708.79 635.93 C 710.87 637.51 711.85 640.14 711.33 642.70 C 710.81 645.25 708.88 647.29 706.35 647.93 L 692.65 651.54 C 690.49 652.11 688.74 653.71 687.98 655.82 L 683.19 669.16 C 682.31 671.60 680.13 673.32 677.55 673.62 C 674.98 673.91 672.46 672.72 671.06 670.54 L 663.39 658.62 C 662.18 656.74 660.12 655.57 657.88 655.50 L 643.71 655.00 C 641.12 654.92 638.80 653.37 637.73 651.02 C 636.66 648.66 637.01 645.90 638.65 643.89 L 647.65 632.89 C 649.07 631.16 649.54 628.83 648.92 626.68 L 644.92 613.08 C 644.20 610.59 644.95 607.91 646.86 606.16 C 648.77 604.41 651.50 603.89 653.92 604.83 L 667.12 609.96 C 669.21 610.78 671.57 610.51 673.42 609.25 L 685.13 601.25 C 687.27 599.79 690.05 599.68 692.31 600.95 C 694.56 602.22 695.90 604.66 695.76 607.25 L 694.96 621.40 C 694.80 623.67 695.79 625.86 697.59 627.25 Z" fill="#d2caff" fill-rule="nonzero" group-id="3" node-id="298" stroke="#333333" stroke-linecap="round" stroke-width="8" target-height="74.22998" target-width="75.19" target-x="636.66" target-y="599.68"></path><path d="M 787.32 748.10 L 799.60 755.17 C 801.85 756.46 803.17 758.92 803.00 761.51 C 802.83 764.09 801.21 766.36 798.82 767.36 L 785.74 772.80 C 783.69 773.68 782.20 775.50 781.74 777.68 L 778.81 791.54 C 778.27 794.07 776.33 796.07 773.83 796.71 C 771.32 797.35 768.66 796.51 766.98 794.54 L 757.76 783.78 C 756.30 782.08 754.10 781.21 751.87 781.45 L 737.74 783.00 C 735.16 783.28 732.65 782.07 731.27 779.88 C 729.88 777.69 729.86 774.90 731.21 772.69 L 738.59 760.59 C 739.76 758.68 739.91 756.31 738.99 754.27 L 733.22 741.33 C 732.14 738.96 732.51 736.19 734.16 734.18 C 735.82 732.18 738.47 731.29 741.00 731.90 L 754.78 735.18 C 756.96 735.70 759.26 735.11 760.92 733.61 L 771.44 724.12 C 773.36 722.38 776.11 721.89 778.52 722.85 C 780.93 723.80 782.58 726.05 782.79 728.63 L 783.92 742.75 C 784.10 744.98 785.37 746.99 787.32 748.10 Z" fill="#ffe1e1" fill-rule="nonzero" group-id="3" node-id="300" stroke="#333333" stroke-linecap="round" stroke-width="8" target-height="75.45996" target-width="73.31" target-x="729.86" target-y="721.89"></path><path d="M 730.39 722.13 L 741.39 731.03 C 743.41 732.65 744.33 735.28 743.77 737.81 C 743.20 740.34 741.25 742.33 738.73 742.94 L 725.00 746.28 C 722.82 746.81 721.04 748.38 720.24 750.47 L 715.19 763.71 C 714.27 766.15 712.04 767.85 709.45 768.09 C 706.86 768.33 704.35 767.07 703.00 764.85 L 695.57 752.79 C 694.40 750.88 692.36 749.67 690.12 749.56 L 676.00 748.84 C 673.41 748.71 671.12 747.12 670.10 744.75 C 669.07 742.37 669.48 739.61 671.16 737.64 L 680.33 726.84 C 681.78 725.13 682.30 722.82 681.72 720.66 L 678.00 707.00 C 677.32 704.50 678.12 701.83 680.07 700.11 C 682.01 698.40 684.76 697.94 687.16 698.93 L 700.26 704.32 C 702.33 705.17 704.69 704.95 706.57 703.73 L 718.45 696.00 C 720.62 694.58 723.41 694.52 725.64 695.84 C 727.87 697.16 729.15 699.64 728.95 702.22 L 727.87 716.35 C 727.71 718.57 728.65 720.73 730.39 722.13 Z" fill="#ffb6b6" fill-rule="nonzero" group-id="3" node-id="302" stroke="#333333" stroke-linecap="round" stroke-width="8" target-height="73.81" target-width="75.26001" target-x="669.07" target-y="694.52"></path><path d="M 775.22 689.57 L 789.32 690.96 C 791.90 691.21 794.11 692.91 795.02 695.33 C 795.94 697.76 795.39 700.49 793.62 702.38 L 783.94 712.73 C 782.41 714.37 781.78 716.65 782.26 718.84 L 785.26 732.68 C 785.82 735.21 784.89 737.84 782.87 739.46 C 780.84 741.07 778.08 741.40 775.73 740.30 L 762.90 734.30 C 760.87 733.35 758.50 733.46 756.57 734.59 L 744.34 741.75 C 742.10 743.05 739.32 742.97 737.16 741.53 C 735.00 740.10 733.85 737.57 734.18 735.00 L 735.93 721.00 C 736.20 718.78 735.37 716.56 733.69 715.07 L 723.10 705.66 C 721.17 703.94 720.38 701.27 721.07 698.77 C 721.75 696.27 723.80 694.38 726.34 693.89 L 740.25 691.21 C 742.48 690.79 744.35 689.29 745.25 687.21 L 750.93 674.21 C 751.97 671.84 754.27 670.26 756.86 670.14 C 759.45 670.02 761.88 671.38 763.13 673.65 L 769.97 686.05 C 771.04 688.01 773.00 689.32 775.22 689.57 Z" fill="#e7ffc7" fill-rule="nonzero" group-id="3" node-id="304" stroke="#333333" stroke-linecap="round" stroke-width="8" target-height="73.02997" target-width="75.56" target-x="720.38" target-y="670.02"></path></g><path d="M 728.69 781.13 C 728.69 781.13 1005.69 373.13 861.11 207.92 C 845.86 190.50 824.75 176.86 799.51 169.49 C 750.35 155.15 671.04 158.75 648.51 316.71 C 648.51 316.71 630.07 486.08 670.70 772.42" fill="none" node-id="307" stroke="#333333" stroke-linecap="round" stroke-width="14" target-height="625.98" target-width="375.62" target-x="630.07" target-y="155.15"></path><path d="M 638.55 943.26 L 640.43 943.51 L 642.15 944.08 L 643.74 944.97 L 645.16 946.14 L 646.36 947.54 L 647.35 949.19 L 648.07 950.99 L 648.49 952.92 L 648.61 955.03 L 648.38 957.13 L 647.85 959.04 L 647.04 960.79 L 645.96 962.38 L 644.68 963.72 L 643.21 964.81 L 641.57 965.62 L 639.82 966.09 L 637.93 966.24 L 636.05 965.99 L 634.33 965.42 L 632.73 964.53 L 631.32 963.36 L 630.12 961.96 L 629.12 960.31 L 628.41 958.51 L 627.98 956.58 L 627.86 954.47 L 628.10 952.37 L 628.62 950.46 L 629.43 948.71 L 630.52 947.12 L 631.79 945.78 L 633.27 944.69 L 634.91 943.88 L 636.65 943.41 L 638.55 943.26 Z" fill="#352415" fill-rule="nonzero" group-id="4" node-id="311" stroke="none" target-height="22.97998" target-width="20.75" target-x="627.86" target-y="943.26"></path><path d="M 719.59 936.77 L 721.47 937.01 L 723.19 937.58 L 724.78 938.48 L 726.20 939.65 L 727.40 941.05 L 728.39 942.70 L 729.11 944.49 L 729.53 946.42 L 729.65 948.53 L 729.42 950.63 L 728.89 952.54 L 728.08 954.29 L 727.00 955.89 L 725.72 957.22 L 724.25 958.31 L 722.61 959.12 L 720.86 959.60 L 718.97 959.74 L 717.09 959.50 L 715.37 958.93 L 713.77 958.03 L 712.36 956.86 L 711.16 955.46 L 710.16 953.81 L 709.45 952.02 L 709.02 950.08 L 708.90 947.98 L 709.14 945.88 L 709.66 943.97 L 710.47 942.22 L 711.56 940.62 L 712.83 939.29 L 714.31 938.20 L 715.95 937.39 L 717.70 936.91 L 719.59 936.77 Z" fill="#352415" fill-rule="nonzero" group-id="5" node-id="316" stroke="none" target-height="22.96997" target-width="20.75" target-x="708.9" target-y="936.77"></path><path d="M 846.00 450.00 C 846.00 459.94 837.94 468.00 828.00 468.00 C 818.06 468.00 810.00 459.94 810.00 450.00 C 810.00 440.06 818.06 432.00 828.00 432.00 C 837.94 432.00 846.00 440.06 846.00 450.00 Z" fill="#ffffff" fill-rule="nonzero" node-id="319" stroke="#333333" stroke-linecap="round" stroke-width="8" target-height="36" target-width="36" target-x="810" target-y="432"></path></svg>