<svg height="1200" node-id="1" sillyvg="true" template-height="1200" template-width="1200" version="1.1" viewBox="0 0 1200 1200" width="1200" xmlns="http://www.w3.org/2000/svg" xmlns:xlink="http://www.w3.org/1999/xlink"><defs node-id="29"></defs><path d="M 0.00 0.00 L 1200.00 0.00 L 1200.00 1200.00 L 0.00 1200.00 Z" fill="#efefef" fill-rule="nonzero" node-id="31" stroke="none" target-height="1200" target-width="1200" target-x="0" target-y="0"></path><path d="M 677.91 1084.68 C 776.03 1063.36 766.75 1001.01 756.83 966.56 C 753.43 954.48 753.83 941.65 758.00 929.81 C 767.60 902.06 770.00 878.07 768.62 858.03 C 765.63 816.09 734.35 781.62 692.89 774.59 C 391.89 722.77 489.89 1004.16 489.89 1004.16 C 489.89 1004.16 525.59 1062.69 573.04 1086.06 C 573.00 1086.06 642.83 1101.84 677.91 1084.68 Z" fill="#fffbf3" fill-rule="nonzero" node-id="33" stroke="#333333" stroke-linecap="round" stroke-width="14" target-height="379.06995" target-width="384.14" target-x="391.89" target-y="722.77"></path><path d="M 706.35 911.26 C 713.35 906.26 727.18 904.51 735.28 910.38" fill="#ffffff" fill-rule="nonzero" node-id="35" stroke="#333333" stroke-linecap="round" stroke-width="7.74" target-height="6.75" target-width="28.930054" target-x="706.35" target-y="904.51"></path><path d="M 615.12 919.63 C 624.12 911.21 643.24 908.79 652.45 913.14" fill="#ffffff" fill-rule="nonzero" node-id="37" stroke="#333333" stroke-linecap="round" stroke-width="7.74" target-height="10.840027" target-width="37.330017" target-x="615.12" target-y="908.79"></path><path d="M 666.62 1025.13 C 675.15 1026.01 683.12 1025.50 690.06 1022.41" fill="#ffffff" fill-rule="nonzero" node-id="39" stroke="#333333" stroke-linecap="round" stroke-width="7.74" target-height="3.6000366" target-width="23.440002" target-x="666.62" target-y="1022.41"></path><path d="M 295.00 331.00 C 295.00 331.00 202.00 291.00 160.00 227.00 C 160.00 227.00 165.00 273.00 144.00 303.00 C 144.00 303.00 214.00 362.00 288.00 379.00 Z" fill="#fffdf8" fill-rule="nonzero" node-id="41" stroke="#333333" stroke-linecap="round" stroke-width="8" target-height="152" target-width="151" target-x="144" target-y="227"></path><path d="M 693.83 1101.89 C 761.21 1079.97 758.17 1028.89 758.17 1028.89 C 742.82 1071.75 671.82 1074.35 641.49 1073.44 C 625.98 1073.06 610.75 1069.20 596.92 1062.16 C 545.00 1035.43 538.43 977.00 538.43 977.00 C 520.81 859.16 626.63 837.15 626.63 837.15 C 626.63 837.15 765.09 803.43 769.35 887.36 C 769.35 887.36 804.05 800.30 734.68 751.53 C 715.91 738.35 693.85 728.00 671.00 725.87 C 611.38 720.24 441.65 721.09 422.72 885.93 C 422.72 885.93 402.72 1017.86 510.00 1080.15 C 510.00 1080.15 565.00 1118.37 661.19 1108.59 C 672.28 1107.52 683.22 1105.27 693.83 1101.89 Z" fill="#95d3f9" fill-rule="nonzero" node-id="43" stroke="#333333" stroke-linecap="round" stroke-width="14" target-height="398.13" target-width="401.33" target-x="402.72" target-y="720.24"></path><path d="M 545.87 806.28 C 545.87 806.28 156.06 456.65 276.35 226.00 C 288.66 202.40 308.35 181.90 333.94 167.81 C 380.57 142.12 458.94 129.46 513.85 279.81 C 513.85 279.81 584.17 508.56 605.85 787.81" fill="#95d3f9" fill-rule="nonzero" node-id="45" stroke="#333333" stroke-linecap="round" stroke-width="14" target-height="676.82" target-width="449.78998" target-x="156.06" target-y="129.46"></path><path d="M 728.69 781.13 C 728.69 781.13 1005.69 373.13 861.11 207.92 C 845.86 190.50 824.75 176.86 799.51 169.49 C 750.35 155.15 671.04 158.75 648.51 316.71 C 648.51 316.71 630.07 486.08 670.70 772.42" fill="#95d3f9" fill-rule="nonzero" node-id="47" stroke="#333333" stroke-linecap="round" stroke-width="14" target-height="625.98" target-width="375.62" target-x="630.07" target-y="155.15"></path><g node-id="83"><path d="M 638.55 943.26 L 640.43 943.51 L 642.15 944.08 L 643.74 944.97 L 645.16 946.14 L 646.36 947.54 L 647.35 949.19 L 648.07 950.99 L 648.49 952.92 L 648.61 955.03 L 648.38 957.13 L 647.85 959.04 L 647.04 960.79 L 645.96 962.38 L 644.68 963.72 L 643.21 964.81 L 641.57 965.62 L 639.82 966.09 L 637.93 966.24 L 636.05 965.99 L 634.33 965.42 L 632.73 964.53 L 631.32 963.36 L 630.12 961.96 L 629.12 960.31 L 628.41 958.51 L 627.98 956.58 L 627.86 954.47 L 628.10 952.37 L 628.62 950.46 L 629.43 948.71 L 630.52 947.12 L 631.79 945.78 L 633.27 944.69 L 634.91 943.88 L 636.65 943.41 L 638.55 943.26 Z" fill="#352415" fill-rule="nonzero" group-id="1" node-id="51" stroke="none" target-height="22.97998" target-width="20.75" target-x="627.86" target-y="943.26"></path></g><g node-id="84"><path d="M 719.59 936.77 L 721.47 937.01 L 723.19 937.58 L 724.78 938.48 L 726.20 939.65 L 727.40 941.05 L 728.39 942.70 L 729.11 944.49 L 729.53 946.42 L 729.65 948.53 L 729.42 950.63 L 728.89 952.54 L 728.08 954.29 L 727.00 955.89 L 725.72 957.22 L 724.25 958.31 L 722.61 959.12 L 720.86 959.60 L 718.97 959.74 L 717.09 959.50 L 715.37 958.93 L 713.77 958.03 L 712.36 956.86 L 711.16 955.46 L 710.16 953.81 L 709.45 952.02 L 709.02 950.08 L 708.90 947.98 L 709.14 945.88 L 709.66 943.97 L 710.47 942.22 L 711.56 940.62 L 712.83 939.29 L 714.31 938.20 L 715.95 937.39 L 717.70 936.91 L 719.59 936.77 Z" fill="#352415" fill-rule="nonzero" group-id="2" node-id="56" stroke="none" target-height="22.96997" target-width="20.75" target-x="708.9" target-y="936.77"></path></g><path d="M 334.00 575.00 C 334.00 575.00 360.00 608.00 374.00 626.00 C 374.00 626.00 540.00 628.00 580.00 576.00 C 580.00 576.00 470.00 582.00 334.00 575.00 Z" fill="#fffdf8" fill-rule="nonzero" node-id="59" stroke="#333333" stroke-linecap="round" stroke-width="8" target-height="53" target-width="246" target-x="334" target-y="575"></path><path d="M 290.00 392.00 C 290.00 392.00 316.00 450.00 447.00 444.00 C 447.00 444.00 569.00 434.00 578.00 495.00 L 560.00 406.00 Z" fill="#fffdf8" fill-rule="nonzero" node-id="61" stroke="#333333" stroke-linecap="round" stroke-width="8" target-height="103" target-width="288" target-x="290" target-y="392"></path><path d="M 666.50 916.50 C 663.30 923.17 659.70 929.64 655.71 935.87 C 651.79 942.09 647.66 948.16 643.32 954.07 C 638.98 959.98 634.45 965.75 629.72 971.38 C 624.98 977.06 619.90 982.44 614.50 987.50 C 617.69 980.83 621.29 974.35 625.28 968.12 C 629.20 961.90 633.33 955.84 637.68 949.93 C 642.03 944.02 646.56 938.26 651.29 932.63 C 656.03 926.95 661.11 921.56 666.50 916.50 Z" fill="#333333" fill-rule="nonzero" node-id="63" stroke="none" target-height="71" target-width="52" target-x="614.5" target-y="916.5"></path><path d="M 635.05 556.00 L 639.05 615.00 C 639.05 615.00 799.05 602.00 868.05 534.00 L 884.05 487.17 C 884.05 487.17 833.00 551.00 635.05 556.00 Z" fill="#fffdf8" fill-rule="nonzero" node-id="65" stroke="#333333" stroke-linecap="round" stroke-width="8" target-height="127.82999" target-width="249" target-x="635.05" target-y="487.17"></path><path d="M 301.00 521.00 C 301.00 521.00 328.00 568.00 336.00 577.00 C 336.00 577.00 487.33 596.00 590.00 575.00 L 582.54 520.78 C 582.54 520.78 427.00 538.00 301.00 521.00 Z" fill="#fffdf8" fill-rule="nonzero" node-id="67" stroke="#333333" stroke-linecap="round" stroke-width="8" target-height="75.21997" target-width="289" target-x="301" target-y="520.78"></path><path d="M 649.45 435.00 C 649.45 435.00 724.00 532.28 854.00 566.64 L 830.00 628.00 C 830.00 628.00 674.00 567.00 641.29 471.88 Z" fill="#fffdf8" fill-rule="nonzero" node-id="69" stroke="#333333" stroke-linecap="round" stroke-width="8" target-height="193" target-width="212.71002" target-x="641.29" target-y="435"></path><path d="M 244.50 298.50 C 244.50 298.50 236.00 365.00 387.50 346.50 C 387.50 346.50 540.50 328.50 549.00 361.00 C 549.00 361.00 559.25 400.50 564.00 422.00 C 564.00 422.00 534.00 392.00 411.00 407.00 C 411.00 407.00 282.00 425.00 251.00 382.00 C 251.00 382.00 242.00 347.00 244.50 298.50 Z" fill="#fffdf8" fill-rule="nonzero" node-id="71" stroke="#333333" stroke-linecap="round" stroke-width="8" target-height="126.5" target-width="328" target-x="236" target-y="298.5"></path><path d="M 634.05 438.08 L 634.00 504.00 C 634.00 504.00 755.00 550.00 876.00 510.00 L 897.37 442.11 L 633.78 374.00 Z" fill="#fffdf8" fill-rule="nonzero" node-id="73" stroke="#333333" stroke-linecap="round" stroke-width="8" target-height="176" target-width="263.58997" target-x="633.78" target-y="374"></path><path d="M 278.00 473.00 C 278.00 473.00 452.00 484.00 573.00 468.00 L 584.00 530.00 C 584.00 530.00 403.00 555.00 301.00 520.00 Z" fill="#fffdf8" fill-rule="nonzero" node-id="75" stroke="#333333" stroke-linecap="round" stroke-width="8" target-height="87" target-width="306" target-x="278" target-y="468"></path><path d="M 634.05 382.00 L 634.05 468.00 C 634.05 468.00 840.05 505.00 886.05 431.00 Z" fill="#fffdf8" fill-rule="nonzero" node-id="77" stroke="#333333" stroke-linecap="round" stroke-width="8" target-height="123" target-width="252" target-x="634.05" target-y="382"></path><path d="M 399.15 661.37 C 399.15 661.37 531.00 638.00 588.00 562.00 L 600.00 652.00 C 600.00 652.00 545.00 698.00 430.67 699.35 Z" fill="#fffdf8" fill-rule="nonzero" node-id="79" stroke="#333333" stroke-linecap="round" stroke-width="8" target-height="137.34998" target-width="200.85" target-x="399.15" target-y="562"></path><path d="M 634.00 354.00 C 634.00 354.00 778.00 384.00 912.00 375.00 C 912.00 375.00 903.00 430.00 893.00 455.00 C 893.00 455.00 736.56 453.00 633.78 397.00 Z" fill="#fffdf8" fill-rule="nonzero" node-id="81" stroke="#333333" stroke-linecap="round" stroke-width="8" target-height="101" target-width="278.21997" target-x="633.78" target-y="354"></path></svg>