<svg height="1200" node-id="1" sillyvg="true" template-height="1200" template-width="1200" version="1.1" viewBox="0 0 1200 1200" width="1200" xmlns="http://www.w3.org/2000/svg" xmlns:xlink="http://www.w3.org/1999/xlink"><defs node-id="40"><linearGradient gradientUnits="userSpaceOnUse" id="未命名的渐变_4" node-id="5" spreadMethod="pad" x1="614.64" x2="614.64" y1="724.31" y2="1110.19"><stop offset="0" stop-color="#ceae89"></stop><stop offset="0.29" stop-color="#caaa85"></stop><stop offset="0.6" stop-color="#bf9d79"></stop><stop offset="0.92" stop-color="#ab8865"></stop><stop offset="1" stop-color="#a5815e"></stop></linearGradient></defs><path d="M 0.00 0.00 L 1200.00 0.00 L 1200.00 1200.00 L 0.00 1200.00 Z" fill="#eefffd" fill-rule="nonzero" node-id="55" stroke="none" target-height="1200" target-width="1200" target-x="0" target-y="0"></path><path d="M 692.91 1084.68 C 791.03 1063.36 781.75 1001.01 771.83 966.56 C 768.43 954.48 768.83 941.65 773.00 929.81 C 782.60 902.06 785.00 878.07 783.62 858.03 C 780.63 816.09 749.35 781.62 707.89 774.59 C 406.89 722.77 504.89 1004.16 504.89 1004.16 C 504.89 1004.16 540.59 1062.69 588.04 1086.06 C 588.00 1086.06 657.83 1101.84 692.91 1084.68 Z" fill="#fffbf3" fill-rule="nonzero" node-id="57" stroke="none" target-height="379.06995" target-width="384.14" target-x="406.89" target-y="722.77"></path><path d="M 647.21 1099.68 C 617.03 1099.68 588.30 1093.32 586.43 1092.89 C 585.89 1092.77 585.37 1092.59 584.88 1092.34 C 536.17 1068.34 500.34 1010.27 498.88 1007.81 C 498.62 1007.38 498.41 1006.93 498.25 1006.46 C 490.74 983.17 485.86 959.11 483.72 934.73 C 479.03 881.40 489.72 837.67 514.72 808.25 C 551.06 765.38 616.47 751.74 709.13 767.69 C 753.81 775.20 787.51 812.35 790.65 857.55 C 792.29 881.22 788.59 906.30 779.65 932.09 C 775.96 942.57 775.61 953.93 778.65 964.62 C 782.10 976.62 792.65 1013.14 774.11 1044.14 C 760.52 1066.91 734.00 1082.79 695.29 1091.34 C 681.81 1097.65 664.28 1099.68 647.21 1099.68 Z M 590.31 1079.41 C 598.00 1081.04 659.31 1093.33 689.83 1078.41 C 690.34 1078.16 690.87 1077.98 691.42 1077.86 C 726.63 1070.21 750.42 1056.46 762.00 1036.99 C 775.80 1013.87 770.38 986.84 765.10 968.52 C 761.26 955.05 761.69 940.73 766.35 927.52 C 774.66 903.52 778.11 880.29 776.60 858.52 C 773.90 819.77 744.98 787.93 706.67 781.52 C 619.26 766.52 558.26 778.52 525.34 817.30 C 472.84 879.19 507.91 991.18 511.19 1001.18 C 515.17 1007.44 548.24 1058.27 590.31 1079.41 Z" fill="#333333" fill-rule="nonzero" node-id="59" stroke="none" target-height="347.94006" target-width="319.81003" target-x="472.84" target-y="751.74"></path><path d="M 708.83 1101.89 C 776.21 1079.97 773.17 1028.89 773.17 1028.89 C 757.82 1071.75 686.82 1074.35 656.49 1073.44 C 640.98 1073.06 625.75 1069.20 611.92 1062.16 C 560.00 1035.43 553.43 977.00 553.43 977.00 C 535.81 859.16 641.63 837.15 641.63 837.15 C 641.63 837.15 780.09 803.43 784.35 887.36 C 784.35 887.36 819.05 800.30 749.68 751.53 C 730.91 738.35 708.85 728.00 686.00 725.87 C 626.38 720.24 456.65 721.09 437.72 885.93 C 437.72 885.93 417.72 1017.86 525.00 1080.15 C 525.00 1080.15 580.00 1118.37 676.19 1108.59 C 687.28 1107.52 698.22 1105.27 708.83 1101.89 Z" fill="url(#未命名的渐变_4)" fill-rule="nonzero" node-id="61" stroke="none" target-height="398.13" target-width="401.33" target-x="417.72" target-y="720.24"></path><path d="M 721.35 911.26 C 728.35 906.26 742.18 904.51 750.28 910.38" fill="#ffffff" fill-rule="nonzero" node-id="63" stroke="none" target-height="6.75" target-width="28.930054" target-x="721.35" target-y="904.51"></path><path d="M 721.35 915.13 C 719.68 915.12 718.20 914.04 717.68 912.45 C 717.17 910.86 717.74 909.11 719.09 908.13 C 727.33 902.22 743.09 900.40 752.54 907.25 C 753.72 908.04 754.37 909.40 754.24 910.81 C 754.11 912.22 753.22 913.45 751.93 914.01 C 750.63 914.58 749.13 914.39 748.01 913.52 C 741.52 908.82 729.56 910.14 723.61 914.41 C 722.95 914.88 722.16 915.13 721.35 915.13 Z" fill="#333333" fill-rule="nonzero" node-id="65" stroke="none" target-height="14.72998" target-width="37.200012" target-x="717.17" target-y="900.4"></path><path d="M 630.12 919.63 C 639.12 911.21 658.24 908.79 667.45 913.14" fill="#ffffff" fill-rule="nonzero" node-id="67" stroke="none" target-height="10.840027" target-width="37.330017" target-x="630.12" target-y="908.79"></path><path d="M 630.12 923.50 C 628.53 923.50 627.10 922.53 626.52 921.05 C 625.94 919.57 626.32 917.88 627.48 916.80 C 638.06 906.95 658.90 904.80 669.10 909.64 C 671.03 910.55 671.86 912.86 670.95 914.80 C 670.03 916.73 667.72 917.55 665.79 916.64 C 658.03 912.98 640.62 915.15 632.79 922.47 C 632.07 923.15 631.11 923.52 630.12 923.50 Z" fill="#333333" fill-rule="nonzero" node-id="69" stroke="none" target-height="18.720032" target-width="45.919983" target-x="625.94" target-y="904.8"></path><path d="M 678.88 952.91 C 679.67 957.44 669.53 955.24 657.30 957.02 C 645.07 958.80 635.37 963.87 634.59 959.35 C 633.81 954.83 642.73 946.80 655.00 945.00 C 667.27 943.20 678.09 948.39 678.88 952.91 Z" fill="#352415" fill-rule="nonzero" node-id="71" stroke="none" target-height="20.669983" target-width="45.859985" target-x="633.81" target-y="943.2"></path><path d="M 755.00 948.11 C 755.22 952.06 746.75 947.97 736.09 948.37 C 725.43 948.77 716.60 953.51 716.38 949.56 C 716.16 945.61 724.63 938.27 735.29 937.87 C 745.95 937.47 754.78 944.15 755.00 948.11 Z" fill="#352415" fill-rule="nonzero" node-id="73" stroke="none" target-height="16.04004" target-width="39.059998" target-x="716.16" target-y="937.47"></path><path d="M 644.78 1117.21 C 569.11 1117.21 525.45 1088.91 521.27 1086.07 C 475.76 1059.56 445.68 1016.35 434.27 961.07 C 425.89 920.45 430.38 887.69 430.77 884.99 C 435.33 845.44 448.77 812.16 470.77 786.06 C 489.29 764.06 513.96 747.06 544.10 735.42 C 600.58 713.68 662.62 716.61 686.67 718.88 C 708.40 720.93 731.58 730.24 753.67 745.80 C 784.00 767.13 800.00 798.92 800.00 837.75 C 799.99 855.56 796.89 873.24 790.85 890.00 C 789.63 893.05 786.45 894.84 783.20 894.31 C 779.96 893.77 777.53 891.04 777.36 887.76 C 776.57 872.16 770.76 860.53 759.61 852.21 C 723.17 825.00 644.08 843.78 643.28 844.00 L 643.06 844.00 C 625.42 848.57 609.01 856.98 595.00 868.63 C 565.12 893.80 553.46 929.92 560.35 976.00 L 560.35 976.26 C 560.42 976.79 567.25 1031.34 615.10 1055.99 C 628.01 1062.53 642.21 1066.12 656.67 1066.50 C 685.10 1067.35 752.73 1065.17 766.55 1026.58 C 767.67 1023.45 770.84 1021.53 774.13 1022.00 C 777.43 1022.48 779.93 1025.20 780.13 1028.52 C 780.13 1029.12 780.90 1043.33 772.51 1060.30 C 764.93 1075.65 748.09 1096.48 710.97 1108.56 L 710.97 1108.56 C 699.88 1112.09 688.45 1114.44 676.87 1115.56 C 666.21 1116.65 655.50 1117.20 644.78 1117.21 Z M 651.65 731.28 C 581.98 731.28 460.26 751.11 444.65 886.72 C 444.65 886.81 444.65 886.89 444.65 886.98 C 444.65 887.29 439.93 919.57 448.09 958.72 C 458.90 1010.56 485.96 1049.38 528.53 1074.10 C 528.69 1074.19 528.85 1074.30 529.01 1074.41 C 529.47 1074.72 571.68 1103.17 645.36 1103.17 C 655.42 1103.16 665.48 1102.65 675.49 1101.63 C 686.08 1100.60 696.53 1098.46 706.67 1095.23 L 706.67 1095.23 C 733.82 1086.39 748.61 1072.61 756.67 1059.92 C 747.49 1066.09 735.99 1070.91 722.18 1074.40 C 698.52 1080.34 673.29 1080.98 656.30 1080.47 C 639.75 1080.04 623.50 1075.95 608.73 1068.47 C 554.84 1040.65 547.00 982.00 546.49 977.94 C 536.96 913.94 562.95 877.13 586.49 857.53 C 611.19 836.92 637.80 830.84 640.13 830.34 C 644.91 829.19 726.63 810.10 768.02 840.94 C 774.77 845.90 780.32 852.30 784.27 859.68 C 785.45 852.28 786.03 844.80 786.00 837.31 C 785.88 802.96 772.30 776.03 745.63 757.31 C 725.48 743.15 704.63 734.70 685.32 732.88 C 676.89 732.00 665.27 731.28 651.65 731.28 Z" fill="#333333" fill-rule="nonzero" node-id="75" stroke="none" target-height="403.52997" target-width="374.11" target-x="425.89" target-y="713.68"></path><path d="M 681.62 1025.13 C 690.15 1026.01 698.12 1025.50 705.06 1022.41" fill="#ffffff" fill-rule="nonzero" node-id="77" stroke="none" target-height="3.6000366" target-width="23.440002" target-x="681.62" target-y="1022.41"></path><path d="M 688.69 1029.38 C 686.19 1029.37 683.69 1029.24 681.21 1028.98 C 679.08 1028.76 677.54 1026.85 677.77 1024.73 C 677.99 1022.60 679.89 1021.06 682.02 1021.28 C 690.79 1022.19 697.81 1021.41 703.48 1018.88 C 704.74 1018.31 706.21 1018.47 707.33 1019.28 C 708.45 1020.09 709.06 1021.44 708.91 1022.82 C 708.76 1024.19 707.90 1025.39 706.63 1025.95 C 700.96 1028.35 694.85 1029.52 688.69 1029.38 Z" fill="#333333" fill-rule="nonzero" node-id="79" stroke="none" target-height="11.210022" target-width="31.52002" target-x="677.54" target-y="1018.31"></path><path d="M 667.00 797.83 C 661.48 797.83 656.57 801.33 653.00 804.95 C 649.43 808.57 647.83 813.48 647.83 818.95 C 647.75 824.06 649.80 828.98 653.48 832.52 C 654.15 833.18 654.86 833.79 655.60 834.37 C 663.00 833.16 673.00 831.78 684.00 831.00 C 686.16 827.37 687.28 823.22 687.25 819.00 C 687.25 813.48 683.93 809.27 680.31 805.65 C 676.69 802.03 672.52 797.83 667.00 797.83 Z M 535.91 992.91 C 532.51 996.42 530.61 1001.11 530.60 1006.00 C 530.60 1011.00 532.34 1016.15 535.60 1019.40 C 538.86 1022.65 544.03 1023.45 549.00 1023.45 C 553.61 1023.45 558.02 1021.53 561.17 1018.17 C 562.63 1016.74 563.93 1015.15 565.03 1013.43 C 561.29 1005.84 558.29 997.91 556.08 989.74 C 553.80 988.96 551.41 988.58 549.00 988.61 C 544.00 988.61 539.17 989.66 535.91 992.91 Z M 564.00 1044.56 C 559.00 1044.56 554.77 1047.26 551.52 1050.56 C 548.27 1053.86 544.41 1058.07 544.41 1063.04 C 544.41 1068.01 548.16 1072.37 551.41 1075.62 C 554.66 1078.87 559.02 1082.47 563.99 1082.47 C 568.96 1082.47 574.13 1079.70 577.39 1076.47 C 580.65 1073.24 583.33 1068.04 583.33 1063.07 C 583.33 1058.10 581.16 1052.41 577.91 1049.15 C 574.66 1045.89 569.00 1044.56 564.00 1044.56 Z M 496.00 934.00 C 501.00 934.00 505.71 933.22 509.00 930.00 C 512.29 926.78 513.66 922.00 513.66 917.00 C 513.76 912.29 511.96 907.73 508.66 904.36 C 505.32 900.97 500.76 899.06 496.00 899.05 C 491.00 899.05 487.78 902.26 484.52 905.52 C 481.26 908.78 476.52 912.03 476.52 917.00 C 476.52 921.97 480.29 926.25 483.52 929.51 C 486.75 932.77 491.00 934.00 496.00 934.00 Z M 521.00 1051.17 C 516.00 1051.17 512.00 1052.49 508.75 1055.74 C 506.23 1058.27 503.69 1061.26 502.68 1064.74 C 509.71 1070.44 517.17 1075.60 525.00 1080.15 C 525.00 1080.15 527.00 1081.54 530.88 1083.71 C 532.26 1083.30 533.52 1082.56 534.55 1081.56 C 537.80 1078.30 538.55 1072.97 538.55 1068.00 C 538.55 1063.03 535.79 1059.69 532.55 1056.43 C 529.31 1053.17 526.00 1051.18 521.00 1051.18 Z M 611.92 1062.17 C 610.33 1061.35 608.78 1060.50 607.26 1059.62 C 605.80 1060.68 604.44 1061.87 603.18 1063.16 C 599.92 1066.42 595.18 1070.01 595.18 1074.98 C 595.18 1079.95 598.27 1085.17 601.53 1088.42 C 604.79 1091.67 610.00 1092.29 614.97 1092.29 C 619.94 1092.29 623.33 1089.85 626.58 1086.59 C 629.83 1083.33 633.16 1079.95 633.16 1074.98 C 633.15 1073.26 632.81 1071.57 632.16 1069.98 C 625.15 1068.13 618.36 1065.52 611.92 1062.19 Z M 721.00 815.49 C 726.00 815.49 731.27 815.78 734.52 812.49 C 737.77 809.20 737.27 803.94 737.27 798.97 C 737.27 794.00 736.54 789.97 733.27 786.69 C 730.09 783.28 725.66 781.31 721.00 781.25 C 716.00 781.25 711.21 782.69 708.00 785.95 C 704.79 789.21 701.56 794.03 701.56 798.95 C 701.56 803.87 704.92 808.56 708.18 811.82 C 711.44 815.08 716.00 815.49 721.00 815.49 Z M 503.00 849.49 C 498.00 849.49 494.78 853.25 491.52 856.49 C 488.26 859.73 484.41 863.00 484.41 868.00 C 484.41 873.00 487.17 877.32 490.41 880.58 C 493.65 883.84 498.02 887.49 502.99 887.49 C 507.96 887.49 511.99 883.49 515.21 880.22 C 518.43 876.95 522.65 872.97 522.65 868.00 C 522.65 863.03 519.38 858.12 516.12 854.87 C 512.60 851.45 507.90 849.53 503.00 849.50 Z M 739.94 1061.04 C 729.79 1065.33 719.17 1068.40 708.29 1070.17 C 707.58 1071.68 707.20 1073.32 707.18 1074.99 C 707.18 1079.99 708.94 1085.53 712.18 1088.79 C 715.42 1092.05 721.01 1092.49 725.98 1092.49 C 728.15 1092.50 730.31 1092.21 732.40 1091.61 C 734.94 1090.17 737.33 1088.67 739.57 1087.14 C 742.30 1083.93 743.37 1079.59 743.37 1074.99 C 743.37 1069.99 743.18 1064.30 739.93 1060.99 Z M 678.46 1073.31 C 670.05 1073.68 662.46 1073.64 656.46 1073.46 C 655.74 1073.46 655.03 1073.46 654.32 1073.37 C 653.94 1073.65 653.59 1073.95 653.25 1074.27 C 649.99 1077.53 647.25 1083.02 647.25 1087.99 C 647.25 1092.96 652.15 1096.32 655.40 1099.58 C 658.65 1102.84 662.02 1106.04 666.99 1106.04 C 671.84 1106.15 676.55 1104.36 680.09 1101.04 C 683.35 1097.79 684.34 1092.91 684.34 1087.94 C 684.34 1082.97 683.48 1077.94 680.22 1074.71 C 679.67 1074.20 679.09 1073.73 678.46 1073.32 Z M 474.00 971.40 C 475.71 968.45 474.41 964.64 474.41 961.00 C 474.59 957.73 473.84 954.48 472.24 951.62 C 470.49 948.62 469.35 944.89 466.32 943.13 C 463.29 941.37 459.64 941.32 456.00 941.32 C 452.36 941.32 449.68 943.26 446.74 944.96 C 443.90 946.55 441.56 948.91 440.01 951.77 C 439.91 951.93 439.83 952.09 439.74 952.25 C 441.25 961.11 443.31 969.87 445.90 978.48 L 445.90 978.48 C 448.84 980.18 452.35 979.66 455.99 979.66 C 459.63 979.66 463.07 980.07 465.99 978.36 C 468.91 976.65 472.25 974.43 474.00 971.40 Z M 442.43 891.57 C 445.69 894.83 449.03 896.57 454.00 896.57 C 458.97 896.57 463.00 895.57 466.30 892.32 C 469.60 889.07 472.35 884.99 472.35 880.02 C 472.35 875.05 469.35 871.20 466.08 867.94 C 462.81 864.68 459.00 862.50 454.00 862.50 C 449.00 862.50 444.00 863.50 440.77 866.67 C 439.52 872.83 438.52 879.25 437.77 885.93 C 437.77 885.93 437.77 886.11 437.70 886.43 C 439.15 888.26 440.73 889.98 442.43 891.57 Z M 503.00 832.57 C 508.00 832.57 512.21 828.69 515.47 825.44 C 518.73 822.19 520.06 817.94 520.06 812.97 C 520.06 808.00 519.79 802.69 516.54 799.43 C 513.29 796.17 508.00 796.60 503.00 796.60 C 498.00 796.60 493.35 796.84 490.10 800.10 C 486.85 803.36 483.51 808.03 483.51 813.00 C 483.39 818.22 485.40 823.26 489.08 826.96 C 492.75 830.66 497.78 832.69 503.00 832.60 Z M 508.27 1026.52 C 509.97 1023.58 510.08 1019.61 510.08 1015.97 C 510.08 1012.33 508.27 1009.35 506.56 1006.41 C 504.85 1003.47 503.40 999.77 500.37 998.02 C 493.85 994.73 486.15 994.73 479.63 998.02 C 476.63 999.77 475.22 1003.40 473.47 1006.44 C 471.74 1009.32 470.85 1012.62 470.88 1015.98 C 470.88 1019.62 471.08 1022.98 472.78 1025.92 C 474.48 1028.86 476.57 1032.23 479.60 1033.98 C 482.63 1035.73 486.36 1035.05 490.00 1035.05 C 493.38 1035.21 496.75 1034.43 499.72 1032.81 C 502.75 1031.08 506.52 1029.59 508.27 1026.55 Z M 787.33 801.10 C 784.99 798.61 782.39 796.32 779.00 796.32 C 774.00 796.32 770.50 800.99 767.25 804.25 C 764.00 807.51 760.41 811.00 760.41 816.00 C 760.41 821.00 763.65 824.84 766.91 828.09 C 770.17 831.34 774.03 834.79 779.00 834.79 C 783.96 834.70 788.71 832.72 792.26 829.26 C 792.42 829.09 792.56 828.91 792.71 828.73 C 792.10 819.33 790.29 810.04 787.33 801.10 Z M 662.55 774.55 C 666.17 770.94 669.55 766.55 669.55 761.00 C 669.55 755.45 666.82 750.41 663.20 746.79 C 659.46 742.96 654.35 740.76 649.00 740.67 C 643.48 740.67 637.91 742.67 634.29 746.29 C 630.67 749.91 629.52 755.48 629.52 761.00 C 629.52 766.52 631.21 771.55 634.83 775.17 C 638.45 778.79 643.48 781.70 649.00 781.70 C 654.52 781.70 658.94 778.17 662.55 774.55 Z M 551.00 855.58 C 556.00 855.58 561.41 853.92 564.67 850.67 C 567.93 847.42 570.67 841.97 570.67 837.00 C 570.67 832.03 565.89 828.65 562.67 825.39 C 559.45 822.13 556.00 818.70 551.00 818.70 C 546.00 818.70 542.06 821.54 538.80 824.80 C 535.54 828.06 532.43 832.03 532.43 837.00 C 532.43 841.97 534.00 847.48 537.26 850.74 C 540.52 854.00 546.00 855.58 551.00 855.58 Z M 549.00 918.29 C 551.41 918.31 553.80 917.81 556.00 916.83 C 558.52 907.66 562.26 898.87 567.12 890.70 C 565.78 888.81 564.27 887.05 562.61 885.44 C 558.99 881.82 554.61 879.17 549.05 879.17 C 543.78 879.16 538.73 881.28 535.05 885.05 C 531.44 888.67 530.05 893.48 530.05 899.05 C 529.90 904.12 531.88 909.03 535.51 912.58 C 539.03 916.26 543.91 918.33 549.00 918.29 Z M 610.00 837.77 C 615.44 837.59 620.60 835.30 624.39 831.39 C 628.21 827.57 630.39 822.41 630.46 817.00 C 630.46 811.48 627.34 806.90 623.72 803.28 C 620.10 799.66 615.52 797.00 610.00 797.00 C 604.68 796.98 599.57 799.07 595.79 802.82 C 591.94 806.55 589.70 811.64 589.57 817.00 C 589.51 822.46 591.56 827.73 595.29 831.71 C 599.24 835.54 604.50 837.71 610.00 837.77 Z M 506.09 947.66 C 504.38 950.60 503.99 954.36 503.99 958.00 C 503.99 961.64 505.78 964.60 507.48 967.54 C 510.78 973.58 517.12 977.34 524.00 977.33 C 527.64 977.33 531.13 977.15 534.07 975.45 C 537.16 973.71 539.75 971.20 541.59 968.16 C 543.29 965.21 542.94 961.64 542.94 958.00 C 542.94 954.36 542.62 951.17 540.94 948.23 C 539.26 945.29 537.78 941.18 534.74 939.43 C 531.70 937.68 527.66 938.76 524.02 938.76 C 520.66 938.80 517.37 939.77 514.53 941.56 C 511.48 943.32 507.84 944.62 506.09 947.66 Z" fill="#47341b" fill-rule="nonzero" node-id="81" stroke="none" target-height="365.48004" target-width="355.01" target-x="437.7" target-y="740.67"></path><path d="M 593.15 763.00 C 593.15 768.00 591.51 773.00 588.25 776.25 C 584.68 779.66 579.94 781.58 575.00 781.59 C 570.00 781.59 565.56 778.95 562.30 775.70 C 559.04 772.45 556.06 767.97 556.06 763.00 C 556.15 758.00 558.15 753.22 561.63 749.63 C 564.88 746.37 570.03 744.83 575.00 744.83 C 579.97 744.83 584.94 746.55 588.20 749.83 C 591.46 753.11 593.15 758.00 593.15 763.00 Z" fill="#47341b" fill-rule="nonzero" node-id="83" stroke="none" target-height="36.76001" target-width="37.090027" target-x="556.06" target-y="744.83"></path><path d="M 599.08 706.00 C 599.08 711.00 597.56 716.00 594.30 719.30 C 591.04 722.60 585.97 724.12 581.00 724.12 C 576.21 724.09 571.62 722.15 568.26 718.74 C 565.00 715.48 563.62 710.97 563.62 706.00 C 563.58 701.39 565.45 696.97 568.79 693.79 C 572.04 690.53 576.03 687.38 581.00 687.38 C 585.97 687.38 590.16 690.38 593.42 693.58 C 596.68 696.78 599.08 701.00 599.08 706.00 Z" fill="#47341b" fill-rule="nonzero" node-id="85" stroke="none" target-height="36.73999" target-width="35.5" target-x="563.58" target-y="687.38"></path><path d="M 546.44 724.00 C 546.44 729.52 545.16 734.92 541.54 738.54 C 537.92 742.16 532.54 743.19 527.00 743.19 C 521.46 743.19 516.00 742.19 512.42 738.58 C 508.84 734.97 508.13 729.52 508.13 724.00 C 508.13 718.48 509.08 713.32 512.70 709.70 C 516.32 706.08 521.48 704.50 527.00 704.50 C 532.52 704.50 536.83 706.93 540.45 710.50 C 544.07 714.07 546.44 718.48 546.44 724.00 Z" fill="#47341b" fill-rule="nonzero" node-id="87" stroke="none" target-height="38.690002" target-width="38.309998" target-x="508.13" target-y="704.5"></path><path d="M 560.87 806.28 C 560.87 806.28 171.06 456.65 291.35 226.00 C 303.66 202.40 323.35 181.90 348.94 167.81 C 395.57 142.12 473.94 129.46 528.85 279.81 C 528.85 279.81 599.17 508.56 620.85 787.81" fill="#ceae89" fill-rule="nonzero" node-id="89" stroke="none" target-height="676.82" target-width="449.78998" target-x="171.06" target-y="129.46"></path><path d="M 472.57 327.33 C 469.85 327.33 467.21 327.39 464.47 327.44 C 461.64 327.47 458.84 327.89 456.12 328.67 C 458.88 329.50 461.53 330.02 464.22 330.56 C 466.97 331.09 469.77 331.34 472.57 331.33 C 475.37 331.35 478.17 331.10 480.92 330.57 C 483.61 330.02 486.27 329.50 489.03 328.67 C 486.31 327.88 483.50 327.47 480.67 327.44 C 477.93 327.38 475.29 327.33 472.57 327.33 Z M 295.57 306.26 C 292.49 306.01 289.57 305.87 286.57 305.87 C 283.57 305.87 280.65 306.02 277.57 306.27 C 274.56 306.47 271.61 307.17 268.83 308.32 C 268.83 308.53 268.83 308.73 268.83 308.94 C 270.10 309.50 271.40 310.00 272.72 310.42 C 274.22 310.91 275.67 311.35 277.18 311.74 C 283.39 313.24 289.86 313.24 296.07 311.74 C 297.58 311.35 299.07 310.91 300.52 310.42 C 302.08 309.93 303.61 309.33 305.08 308.62 C 302.08 307.26 298.86 306.46 295.58 306.26 Z M 464.00 308.00 C 461.46 307.27 458.87 306.77 456.24 306.50 C 453.63 306.25 451.01 306.17 448.39 306.27 C 445.83 306.34 443.39 306.45 440.93 306.47 C 439.70 306.47 438.47 306.47 437.23 306.47 C 435.99 306.47 434.74 306.47 433.50 306.47 C 431.00 306.47 428.50 306.47 426.06 306.47 C 423.62 306.47 421.16 306.35 418.60 306.27 C 415.98 306.17 413.36 306.25 410.75 306.50 C 408.13 306.77 405.54 307.28 403.00 308.00 C 405.54 308.77 408.06 309.32 410.53 309.93 L 417.89 311.72 C 420.44 312.34 423.03 312.80 425.64 313.09 C 428.25 313.36 430.87 313.50 433.50 313.50 C 434.80 313.50 436.10 313.50 437.41 313.41 C 438.72 313.32 440.03 313.24 441.35 313.10 C 443.96 312.81 446.55 312.35 449.10 311.73 L 456.46 309.94 C 459.00 309.33 461.48 308.77 464.00 308.00 Z M 411.54 347.83 L 403.41 347.83 C 400.61 347.80 397.82 348.08 395.09 348.67 C 397.84 349.30 400.52 349.67 403.22 350.17 C 408.73 351.04 414.35 351.04 419.86 350.17 C 422.56 349.69 425.24 349.29 428.00 348.66 C 425.26 348.06 422.47 347.78 419.67 347.82 Z M 341.40 305.66 C 344.06 306.65 346.80 307.38 349.59 307.85 C 352.39 308.28 355.21 308.50 358.04 308.50 C 359.45 308.50 360.84 308.50 362.26 308.35 C 363.68 308.20 365.09 308.09 366.50 307.86 C 369.29 307.39 372.03 306.65 374.69 305.67 C 377.22 304.76 379.60 303.89 382.14 303.15 C 384.68 302.41 387.30 301.78 390.00 301.00 C 387.30 300.26 384.53 299.84 381.73 299.74 C 378.92 299.67 376.12 299.87 373.35 300.33 C 370.68 300.73 368.22 301.10 365.70 301.27 C 364.44 301.35 363.18 301.44 361.90 301.44 C 360.62 301.44 359.33 301.44 358.04 301.50 C 355.45 301.50 352.89 301.45 350.38 301.27 C 347.87 301.09 345.38 300.75 342.73 300.34 C 339.96 299.88 337.16 299.68 334.35 299.74 C 331.56 299.85 328.79 300.27 326.09 301.00 C 328.78 301.78 331.41 302.38 333.94 303.14 C 336.47 303.90 338.90 304.74 341.43 305.66 Z M 353.65 326.66 C 356.12 326.77 358.59 326.55 361.00 326.00 C 358.60 325.44 356.27 325.00 354.06 324.25 C 351.76 323.41 349.40 322.74 347.00 322.25 C 344.54 321.83 342.04 321.64 339.54 321.67 C 338.27 321.67 336.99 321.75 335.73 321.90 C 334.46 322.05 333.19 322.30 332.03 322.54 C 329.83 323.04 327.60 323.37 325.35 323.54 C 323.07 323.71 320.74 323.82 318.48 323.79 C 316.22 323.76 313.96 323.42 311.48 323.29 C 309.01 323.19 306.54 323.41 304.13 323.95 C 306.52 324.51 308.85 324.95 311.06 325.70 C 313.36 326.54 315.73 327.21 318.13 327.70 C 320.59 328.11 323.09 328.31 325.59 328.28 C 326.86 328.28 328.13 328.20 329.39 328.06 C 330.66 327.91 331.93 327.66 333.10 327.42 C 335.30 326.92 337.53 326.59 339.78 326.42 C 342.05 326.25 344.39 326.14 346.64 326.18 C 348.89 326.22 351.16 326.55 353.68 326.67 Z M 383.43 336.83 C 379.27 336.97 375.19 336.99 371.04 336.99 C 366.89 336.99 362.81 336.99 358.66 336.83 C 354.46 336.66 350.25 336.89 346.09 337.49 C 350.26 338.11 354.36 338.57 358.47 339.15 C 360.54 339.46 362.64 339.64 364.74 339.80 C 366.84 339.96 368.95 339.96 371.04 339.99 C 375.24 340.01 379.45 339.74 383.61 339.16 C 387.72 338.58 391.82 338.11 396.00 337.49 C 391.85 336.89 387.65 336.67 383.46 336.84 Z M 503.86 298.65 C 502.11 298.37 500.35 298.25 498.58 298.28 L 493.79 298.28 L 489.04 298.28 L 484.29 298.28 L 479.50 298.28 C 477.74 298.25 475.97 298.38 474.23 298.66 C 472.46 298.96 470.73 299.47 469.09 300.19 C 470.76 300.96 472.39 301.50 473.97 302.07 C 475.55 302.64 477.03 303.17 478.63 303.70 C 480.31 304.25 482.03 304.66 483.78 304.92 C 485.52 305.16 487.28 305.28 489.04 305.29 C 489.91 305.29 490.78 305.29 491.66 305.20 C 492.54 305.11 493.42 305.06 494.30 304.93 C 496.05 304.67 497.77 304.26 499.45 303.71 C 501.05 303.18 502.54 302.64 504.12 302.08 C 505.70 301.52 507.33 300.97 509.00 300.19 C 507.36 299.48 505.65 298.96 503.89 298.66 Z M 427.22 321.92 C 424.97 322.08 422.81 322.24 420.63 322.31 C 418.45 322.38 416.25 322.40 414.04 322.41 C 411.83 322.42 409.63 322.41 407.45 322.35 C 405.27 322.29 403.10 322.15 400.85 322.01 C 398.55 321.85 396.23 321.85 393.93 322.01 C 391.63 322.16 389.34 322.50 387.09 323.01 C 389.34 323.57 391.57 323.94 393.76 324.43 C 395.95 324.92 398.09 325.43 400.28 325.91 C 402.53 326.45 404.82 326.84 407.12 327.09 C 409.44 327.34 411.76 327.41 414.05 327.43 C 416.34 327.45 418.66 327.31 420.98 327.06 C 423.28 326.79 425.56 326.38 427.81 325.83 C 430.01 325.30 432.13 324.78 434.32 324.31 C 436.51 323.84 438.74 323.41 440.99 322.85 C 438.74 322.33 436.45 321.99 434.14 321.85 C 431.84 321.73 429.54 321.75 427.25 321.93 Z" fill="#fff9ee" fill-rule="nonzero" node-id="91" stroke="none" target-height="52.79001" target-width="240.17001" target-x="268.83" target-y="298.25"></path><path d="M 528.85 279.88 C 473.92 129.50 395.57 142.16 348.94 167.88 C 323.35 181.97 303.66 202.47 291.35 226.07 C 280.22 247.49 273.03 270.74 270.11 294.70 C 275.68 294.79 282.44 294.70 291.70 294.70 C 325.79 294.70 325.79 282.70 359.88 282.70 C 393.97 282.70 393.97 294.70 428.06 294.70 C 462.15 294.70 462.15 282.70 496.24 282.70 C 513.52 282.70 523.30 289.02 532.84 293.55 C 530.30 284.60 528.85 279.88 528.85 279.88 Z" fill="#fff9ee" fill-rule="nonzero" node-id="93" stroke="none" target-height="165.29001" target-width="262.73004" target-x="270.11" target-y="129.5"></path><path d="M 560.86 813.28 C 559.14 813.28 557.47 812.64 556.19 811.49 C 555.19 810.61 457.19 722.22 375.29 606.69 C 327.00 538.58 293.59 474.43 276.00 416.00 C 253.75 342.07 256.82 277.07 285.13 222.79 C 298.45 197.26 319.34 176.14 345.55 161.70 C 377.48 144.12 409.28 140.42 437.55 151.00 C 477.31 165.90 510.25 208.45 535.45 277.47 L 535.57 277.81 C 536.27 280.11 606.37 510.51 627.85 787.35 C 628.15 791.22 625.26 794.59 621.39 794.89 C 617.52 795.19 614.15 792.30 613.85 788.43 C 592.74 516.37 524.44 289.43 522.20 282.09 C 498.47 217.19 468.32 177.50 432.60 164.09 C 408.00 154.89 381.00 158.20 352.32 174.00 C 328.53 187.10 309.59 206.22 297.55 229.30 C 271.00 280.20 268.26 341.63 289.38 411.89 C 306.51 468.83 339.21 531.59 386.58 598.42 C 467.58 712.72 564.58 800.22 565.58 801.09 C 567.74 803.03 568.48 806.10 567.44 808.81 C 566.40 811.51 563.80 813.30 560.90 813.30 Z" fill="#333333" fill-rule="nonzero" node-id="95" stroke="none" target-height="672.88" target-width="374.40002" target-x="253.75" target-y="140.42"></path><path d="M 714.94 750.00 C 714.94 755.00 714.39 759.88 711.14 763.14 C 707.89 766.40 703.00 767.63 698.00 767.63 C 693.26 767.79 688.66 766.03 685.23 762.77 C 681.97 759.52 680.76 754.97 680.76 750.00 C 680.66 745.41 682.47 740.99 685.76 737.79 C 689.01 734.53 693.00 731.64 697.97 731.64 C 702.94 731.64 708.20 733.25 711.46 736.51 C 714.72 739.77 714.94 745.00 714.94 750.00 Z" fill="#47341b" fill-rule="nonzero" node-id="97" stroke="none" target-height="36.149963" target-width="34.28003" target-x="680.66" target-y="731.64"></path><path d="M 773.28 724.00 C 773.28 729.00 771.75 734.23 768.49 737.49 C 765.23 740.75 759.97 741.79 755.00 741.79 C 750.03 741.79 744.80 740.71 741.55 737.45 C 738.30 734.19 737.78 729.00 737.78 724.00 C 737.68 719.42 739.49 715.00 742.78 711.81 C 746.03 708.55 750.00 704.94 754.97 704.94 C 759.99 705.07 764.78 707.08 768.39 710.58 C 771.67 713.84 773.28 719.00 773.28 724.00 Z" fill="#47341b" fill-rule="nonzero" node-id="99" stroke="none" target-height="36.849976" target-width="35.600037" target-x="737.68" target-y="704.94"></path><path d="M 734.66 693.00 C 734.66 698.00 732.03 702.51 728.77 705.77 C 725.51 709.03 720.97 711.84 716.00 711.84 C 711.00 711.80 706.20 709.87 702.56 706.44 C 699.31 703.18 699.00 698.00 699.00 693.00 C 699.00 688.00 700.40 683.93 703.65 680.67 C 706.86 677.29 711.32 675.38 715.98 675.37 C 720.98 675.37 724.82 677.64 728.08 680.90 C 731.34 684.16 734.66 688.00 734.66 693.00 Z" fill="#47341b" fill-rule="nonzero" node-id="101" stroke="none" target-height="36.47003" target-width="35.659973" target-x="699" target-y="675.37"></path><path d="M 743.69 781.13 C 743.69 781.13 1020.69 373.13 876.11 207.92 C 860.86 190.50 839.75 176.86 814.51 169.49 C 765.35 155.15 686.04 158.75 663.51 316.71 C 663.51 316.71 645.07 486.08 685.70 772.42" fill="#ceae89" fill-rule="nonzero" node-id="103" stroke="none" target-height="625.98" target-width="375.62" target-x="645.07" target-y="155.15"></path><path d="M 918.74 278.51 C 911.92 249.11 899.45 223.96 881.38 203.31 C 864.76 184.31 842.32 170.31 816.47 162.77 C 782.24 152.77 750.88 156.07 725.77 172.25 C 695.27 191.90 673.82 230.14 661.77 286.07 C 669.36 287.07 677.82 287.00 693.26 287.00 C 727.35 287.00 727.35 275.00 761.43 275.00 C 795.51 275.00 795.52 287.00 829.61 287.00 C 863.70 287.00 863.70 275.00 897.79 275.00 C 904.93 274.93 912.02 276.12 918.74 278.51 Z" fill="#fff9ee" fill-rule="nonzero" node-id="105" stroke="none" target-height="134.3" target-width="256.96997" target-x="661.77" target-y="152.77"></path><path d="M 829.23 312.60 C 826.97 312.75 824.82 312.92 822.63 312.98 C 820.44 313.04 818.25 313.07 816.04 313.08 C 813.83 313.09 811.63 313.08 809.45 313.03 C 807.27 312.98 805.11 312.83 802.85 312.69 C 800.55 312.52 798.24 312.51 795.93 312.64 C 793.63 312.79 791.34 313.13 789.09 313.64 C 791.35 314.19 793.58 314.56 795.77 315.05 C 797.96 315.54 800.09 316.05 802.29 316.53 C 804.54 317.07 806.83 317.47 809.13 317.72 C 811.45 317.96 813.76 318.04 816.06 318.05 C 818.37 318.05 820.68 317.92 822.98 317.68 C 825.28 317.41 827.57 317.01 829.82 316.46 C 832.01 315.93 834.14 315.40 836.33 314.93 C 838.52 314.46 840.74 314.03 843.00 313.47 C 840.75 312.95 838.46 312.62 836.15 312.47 C 833.84 312.36 831.53 312.40 829.23 312.60 Z M 813.55 338.50 L 805.41 338.50 C 802.61 338.47 799.82 338.75 797.09 339.35 C 799.85 339.97 802.53 340.35 805.23 340.85 C 810.74 341.73 816.36 341.73 821.87 340.85 C 824.57 340.38 827.25 339.97 830.00 339.35 C 827.27 338.74 824.48 338.46 821.68 338.50 Z M 697.55 296.92 C 694.47 296.68 691.55 296.53 688.55 296.54 C 685.55 296.55 682.62 296.69 679.55 296.93 C 676.28 297.14 673.08 297.94 670.10 299.30 C 671.58 300.00 673.10 300.60 674.66 301.09 C 676.15 301.58 677.60 302.01 679.11 302.40 C 682.20 303.17 685.37 303.55 688.56 303.53 C 691.74 303.56 694.91 303.19 698.00 302.41 C 699.51 302.02 701.00 301.59 702.46 301.10 C 704.02 300.60 705.54 300.00 707.01 299.30 C 704.03 297.93 700.82 297.12 697.55 296.92 Z M 755.65 317.34 C 758.12 317.43 760.59 317.21 763.00 316.67 C 760.61 316.11 758.28 315.67 756.07 314.92 C 753.77 314.08 751.40 313.41 749.00 312.92 C 746.54 312.51 744.04 312.31 741.54 312.34 C 740.27 312.35 739.00 312.42 737.74 312.57 C 736.47 312.72 735.20 312.97 734.03 313.21 C 731.83 313.72 729.60 314.05 727.35 314.21 C 725.08 314.38 722.74 314.50 720.49 314.46 C 718.24 314.42 715.96 314.09 713.49 313.96 C 711.02 313.87 708.55 314.09 706.14 314.63 C 708.54 315.18 710.87 315.63 713.08 316.37 C 715.38 317.21 717.74 317.88 720.14 318.37 C 722.60 318.78 725.10 318.98 727.60 318.95 C 728.87 318.94 730.14 318.86 731.40 318.72 C 732.68 318.57 733.94 318.32 735.11 318.08 C 737.31 317.58 739.54 317.24 741.79 317.08 C 744.07 316.90 746.40 316.80 748.66 316.83 C 750.92 316.86 753.13 317.21 755.65 317.34 Z M 866.00 298.67 C 863.47 297.94 860.87 297.44 858.25 297.17 C 855.64 296.91 853.01 296.83 850.39 296.94 C 847.83 297.01 845.39 297.12 842.94 297.14 C 841.70 297.14 840.47 297.14 839.23 297.14 C 837.99 297.14 836.74 297.14 835.50 297.14 C 833.00 297.14 830.50 297.14 828.06 297.14 C 825.62 297.14 823.17 297.02 820.61 296.95 C 817.99 296.84 815.36 296.92 812.75 297.18 C 810.13 297.44 807.53 297.94 805.00 298.67 C 807.55 299.43 810.07 299.98 812.54 300.59 L 819.89 302.39 C 822.45 303.01 825.04 303.47 827.65 303.76 C 830.28 304.05 832.90 304.14 835.50 304.17 C 836.80 304.17 838.10 304.17 839.42 304.07 C 840.74 303.97 842.04 303.91 843.35 303.76 C 845.96 303.47 848.56 303.02 851.11 302.40 L 858.46 300.60 C 860.93 300.00 863.45 299.44 866.00 298.67 Z M 874.55 318.00 C 871.83 318.00 869.19 318.05 866.45 318.10 C 863.62 318.14 860.81 318.55 858.09 319.34 C 860.85 320.16 863.51 320.68 866.20 321.23 C 868.95 321.75 871.75 322.01 874.55 322.00 C 877.35 322.01 880.15 321.76 882.90 321.23 C 885.59 320.69 888.24 320.17 891.00 319.34 C 888.29 318.54 885.48 318.13 882.65 318.10 C 879.91 318.05 877.27 318.00 874.55 318.00 Z M 743.40 296.33 C 746.06 297.31 748.80 298.04 751.59 298.51 C 754.39 298.94 757.22 299.16 760.05 299.17 C 761.45 299.12 762.84 299.12 764.26 299.01 C 765.68 298.90 767.09 298.75 768.50 298.52 C 771.29 298.05 774.03 297.32 776.69 296.34 C 779.23 295.42 781.61 294.55 784.15 293.81 C 786.69 293.07 789.31 292.45 792.00 291.67 C 789.30 290.94 786.53 290.51 783.73 290.40 C 780.93 290.33 778.12 290.53 775.36 291.00 C 772.68 291.40 770.23 291.77 767.71 291.93 C 766.45 292.01 765.19 292.10 763.91 292.11 C 762.63 292.12 761.33 292.11 760.05 292.17 C 757.46 292.17 754.90 292.11 752.39 291.94 C 749.88 291.77 747.39 291.41 744.74 291.01 C 741.97 290.54 739.17 290.34 736.36 290.41 C 733.56 290.51 730.79 290.93 728.09 291.67 C 730.79 292.44 733.42 293.05 735.95 293.81 C 738.48 294.57 740.87 295.41 743.40 296.33 Z M 905.86 289.33 C 904.12 289.05 902.35 288.92 900.59 288.95 L 895.80 288.95 L 891.05 288.95 L 886.29 288.95 L 881.50 288.95 C 879.74 288.92 877.97 289.05 876.23 289.33 C 874.46 289.63 872.73 290.14 871.09 290.86 C 872.76 291.63 874.40 292.17 875.97 292.74 C 877.54 293.31 879.04 293.83 880.64 294.36 C 882.32 294.92 884.04 295.32 885.79 295.58 C 887.53 295.82 889.29 295.95 891.05 295.95 C 891.92 295.95 892.78 295.95 893.66 295.87 C 894.54 295.79 895.43 295.72 896.31 295.59 C 898.06 295.33 899.78 294.93 901.46 294.37 C 903.06 293.85 904.54 293.30 906.13 292.75 C 907.72 292.20 909.33 291.63 911.00 290.86 C 909.36 290.13 907.63 289.62 905.86 289.33 Z M 785.43 327.50 C 781.28 327.65 777.19 327.66 773.05 327.67 C 768.91 327.68 764.82 327.67 760.66 327.50 C 756.46 327.34 752.25 327.56 748.09 328.17 C 752.27 328.78 756.37 329.25 760.48 329.83 C 762.54 330.14 764.65 330.32 766.75 330.47 C 768.85 330.62 770.95 330.63 773.05 330.66 C 777.25 330.69 781.46 330.41 785.62 329.83 C 789.73 329.25 793.83 328.83 798.00 328.17 C 793.84 327.56 789.63 327.33 785.43 327.50 Z" fill="#fff9ee" fill-rule="nonzero" node-id="107" stroke="none" target-height="52.809998" target-width="240.90002" target-x="670.1" target-y="288.92"></path><path d="M 743.69 788.13 C 741.10 788.13 738.71 786.70 737.50 784.40 C 736.29 782.11 736.44 779.33 737.90 777.19 C 738.59 776.19 807.44 674.19 857.75 553.60 C 887.16 483.08 904.56 420.12 909.47 366.46 C 915.47 300.46 902.47 248.70 870.84 212.53 C 855.99 195.53 835.84 183.01 812.55 176.21 C 781.91 167.27 755.26 169.90 733.35 184.02 C 701.35 204.66 680.14 249.60 670.41 317.57 C 669.87 322.74 652.99 492.40 692.58 771.44 C 693.13 775.27 690.48 778.82 686.65 779.37 C 682.82 779.92 679.27 777.27 678.72 773.44 C 657.72 625.14 652.72 508.78 652.32 437.27 C 651.85 359.63 656.45 316.42 656.50 315.99 L 656.50 315.76 C 666.83 243.51 690.12 195.24 725.74 172.29 C 750.85 156.11 782.21 152.83 816.44 162.81 C 842.29 170.36 864.73 184.37 881.35 203.35 C 915.64 242.54 929.78 297.89 923.35 367.87 C 918.35 422.97 900.53 487.35 870.54 559.22 C 819.73 681.07 750.18 784.00 749.49 785.06 C 748.19 786.98 746.01 788.13 743.69 788.13 Z" fill="#333333" fill-rule="nonzero" node-id="109" stroke="none" target-height="635.3" target-width="277.93005" target-x="651.85" target-y="152.83"></path></svg>