<svg height="1200" node-id="1" sillyvg="true" template-height="1200" template-width="1200" version="1.1" viewBox="0 0 1200 1200" width="1200" xmlns="http://www.w3.org/2000/svg" xmlns:xlink="http://www.w3.org/1999/xlink"><defs node-id="73"></defs><path d="M 0.00 0.00 L 1200.00 0.00 L 1200.00 1200.00 L 0.00 1200.00 Z" fill="#d2eeff" fill-rule="nonzero" node-id="75" stroke="none" target-height="1200" target-width="1200" target-x="0" target-y="0"></path><path d="M 677.91 1084.68 C 776.03 1063.36 766.75 1001.01 756.83 966.56 C 753.43 954.48 753.83 941.65 758.00 929.81 C 767.60 902.06 770.00 878.07 768.62 858.03 C 765.63 816.09 734.35 781.62 692.89 774.59 C 391.89 722.77 489.89 1004.16 489.89 1004.16 C 489.89 1004.16 525.59 1062.69 573.04 1086.06 C 573.00 1086.06 642.83 1101.84 677.91 1084.68 Z" fill="#fffbf3" fill-rule="nonzero" node-id="77" stroke="#333333" stroke-linecap="round" stroke-width="14" target-height="379.06995" target-width="384.14" target-x="391.89" target-y="722.77"></path><path d="M 706.35 911.26 C 713.35 906.26 727.18 904.51 735.28 910.38" fill="#ffffff" fill-rule="nonzero" node-id="79" stroke="#333333" stroke-linecap="round" stroke-width="7.74" target-height="6.75" target-width="28.930054" target-x="706.35" target-y="904.51"></path><path d="M 615.12 919.63 C 624.12 911.21 643.24 908.79 652.45 913.14" fill="#ffffff" fill-rule="nonzero" node-id="81" stroke="#333333" stroke-linecap="round" stroke-width="7.74" target-height="10.840027" target-width="37.330017" target-x="615.12" target-y="908.79"></path><path d="M 666.62 1025.13 C 675.15 1026.01 683.12 1025.50 690.06 1022.41" fill="#ffffff" fill-rule="nonzero" node-id="83" stroke="#333333" stroke-linecap="round" stroke-width="7.74" target-height="3.6000366" target-width="23.440002" target-x="666.62" target-y="1022.41"></path><path d="M 693.83 1101.89 C 761.21 1079.97 758.17 1028.89 758.17 1028.89 C 742.82 1071.75 671.82 1074.35 641.49 1073.44 C 625.98 1073.06 610.75 1069.20 596.92 1062.16 C 545.00 1035.43 538.43 977.00 538.43 977.00 C 520.81 859.16 626.63 837.15 626.63 837.15 C 626.63 837.15 765.09 803.43 769.35 887.36 C 769.35 887.36 804.05 800.30 734.68 751.53 C 715.91 738.35 693.85 728.00 671.00 725.87 C 611.38 720.24 441.65 721.09 422.72 885.93 C 422.72 885.93 402.72 1017.86 510.00 1080.15 C 510.00 1080.15 565.00 1118.37 661.19 1108.59 C 672.28 1107.52 683.22 1105.27 693.83 1101.89 Z" fill="#ffeeeb" fill-rule="nonzero" node-id="85" stroke="#333333" stroke-linecap="round" stroke-width="14" target-height="398.13" target-width="401.33" target-x="402.72" target-y="720.24"></path><path d="M 545.87 806.28 C 545.87 806.28 156.06 456.65 276.35 226.00 C 288.66 202.40 308.35 181.90 333.94 167.81 C 380.57 142.12 458.94 129.46 513.85 279.81 C 513.85 279.81 584.17 508.56 605.85 787.81" fill="#ffeeeb" fill-rule="nonzero" node-id="87" stroke="#333333" stroke-linecap="round" stroke-width="14" target-height="676.82" target-width="449.78998" target-x="156.06" target-y="129.46"></path><path d="M 728.69 781.13 C 728.69 781.13 1005.69 373.13 861.11 207.92 C 845.86 190.50 824.75 176.86 799.51 169.49 C 750.35 155.15 671.04 158.75 648.51 316.71 C 648.51 316.71 630.07 486.08 670.70 772.42" fill="#ffeeeb" fill-rule="nonzero" node-id="89" stroke="#333333" stroke-linecap="round" stroke-width="14" target-height="625.98" target-width="375.62" target-x="630.07" target-y="155.15"></path><g node-id="236"><path d="M 638.55 943.26 L 640.43 943.51 L 642.15 944.08 L 643.74 944.97 L 645.16 946.14 L 646.36 947.54 L 647.35 949.19 L 648.07 950.99 L 648.49 952.92 L 648.61 955.03 L 648.38 957.13 L 647.85 959.04 L 647.04 960.79 L 645.96 962.38 L 644.68 963.72 L 643.21 964.81 L 641.57 965.62 L 639.82 966.09 L 637.93 966.24 L 636.05 965.99 L 634.33 965.42 L 632.73 964.53 L 631.32 963.36 L 630.12 961.96 L 629.12 960.31 L 628.41 958.51 L 627.98 956.58 L 627.86 954.47 L 628.10 952.37 L 628.62 950.46 L 629.43 948.71 L 630.52 947.12 L 631.79 945.78 L 633.27 944.69 L 634.91 943.88 L 636.65 943.41 L 638.55 943.26 Z" fill="#352415" fill-rule="nonzero" group-id="1" node-id="93" stroke="none" target-height="22.97998" target-width="20.75" target-x="627.86" target-y="943.26"></path></g><g node-id="237"><path d="M 719.59 936.77 L 721.47 937.01 L 723.19 937.58 L 724.78 938.48 L 726.20 939.65 L 727.40 941.05 L 728.39 942.70 L 729.11 944.49 L 729.53 946.42 L 729.65 948.53 L 729.42 950.63 L 728.89 952.54 L 728.08 954.29 L 727.00 955.89 L 725.72 957.22 L 724.25 958.31 L 722.61 959.12 L 720.86 959.60 L 718.97 959.74 L 717.09 959.50 L 715.37 958.93 L 713.77 958.03 L 712.36 956.86 L 711.16 955.46 L 710.16 953.81 L 709.45 952.02 L 709.02 950.08 L 708.90 947.98 L 709.14 945.88 L 709.66 943.97 L 710.47 942.22 L 711.56 940.62 L 712.83 939.29 L 714.31 938.20 L 715.95 937.39 L 717.70 936.91 L 719.59 936.77 Z" fill="#352415" fill-rule="nonzero" group-id="2" node-id="98" stroke="none" target-height="22.96997" target-width="20.75" target-x="708.9" target-y="936.77"></path></g><g node-id="238"><path d="M 267.05 285.19 L 323.68 267.92 L 339.69 320.41 L 283.06 337.68 Z" fill="#ff8d8d" fill-rule="nonzero" group-id="3" node-id="103" stroke="#333333" stroke-linecap="round" stroke-width="8" target-height="69.75998" target-width="72.640015" target-x="267.05" target-y="267.92"></path></g><path d="M 433.65 329.76 L 339.65 320.44 L 323.65 267.95 L 396.45 207.78 C 399.58 205.20 403.79 204.35 407.68 205.52 C 411.56 206.69 414.61 209.72 415.79 213.60 L 446.44 314.15 C 447.62 318.03 446.79 322.24 444.22 325.38 C 441.65 328.51 437.68 330.16 433.65 329.76 Z" fill="#ff8d8d" fill-rule="nonzero" node-id="106" stroke="#333333" stroke-linecap="round" stroke-width="8" target-height="125.81" target-width="123.97" target-x="323.65" target-y="204.35"></path><path d="M 211.63 397.45 L 284.42 337.29 L 268.42 284.80 L 174.42 275.48 C 170.38 275.08 166.41 276.72 163.84 279.86 C 161.27 283.00 160.44 287.21 161.62 291.09 L 192.27 391.64 C 193.45 395.53 196.50 398.56 200.39 399.73 C 204.28 400.90 208.50 400.04 211.63 397.45 Z" fill="#ff8d8d" fill-rule="nonzero" node-id="108" stroke="#333333" stroke-linecap="round" stroke-width="8" target-height="125.82001" target-width="123.98001" target-x="160.44" target-y="275.08"></path><path d="M 332.01 294.08 L 377.95 280.64" fill="#ff8d8d" fill-rule="nonzero" node-id="110" stroke="none" target-height="13.439972" target-width="45.940002" target-x="332.01" target-y="280.64"></path><path d="M 330.88 290.24 L 377.95 280.64 L 333.13 297.92 C 331.06 298.72 328.74 297.69 327.94 295.62 C 327.14 293.55 328.17 291.23 330.24 290.43 C 330.45 290.35 330.66 290.29 330.88 290.24 Z" fill="#333333" fill-rule="nonzero" node-id="112" stroke="none" target-height="18.079987" target-width="50.809998" target-x="327.14" target-y="280.64"></path><path d="M 275.88 310.40 L 232.28 324.34" fill="#ff8d8d" fill-rule="nonzero" node-id="114" stroke="none" target-height="13.940002" target-width="43.600006" target-x="232.28" target-y="310.4"></path><path d="M 277.10 314.21 L 232.28 324.34 L 274.67 306.59 C 276.04 306.12 277.56 306.43 278.64 307.40 C 279.72 308.36 280.19 309.84 279.87 311.25 C 279.55 312.67 278.49 313.80 277.10 314.21 Z" fill="#333333" fill-rule="nonzero" node-id="116" stroke="none" target-height="18.220001" target-width="47.910004" target-x="232.28" target-y="306.12"></path><path d="M 825.53 273.78 L 872.36 287.78 L 859.38 331.19 L 812.55 317.19 Z" fill="#ff8d8d" fill-rule="nonzero" group-id="4" node-id="120" stroke="#333333" stroke-linecap="round" stroke-width="8" target-height="57.410004" target-width="59.809998" target-x="812.55" target-y="273.78"></path><path d="M 919.77 380.50 L 859.41 331.15 L 872.41 287.75 L 949.95 279.64 C 953.28 279.28 956.57 280.62 958.71 283.20 C 960.85 285.78 961.56 289.26 960.59 292.47 L 935.73 375.62 C 934.78 378.84 932.27 381.37 929.06 382.35 C 925.85 383.34 922.36 382.64 919.77 380.50 Z" fill="#ff8d8d" fill-rule="nonzero" node-id="123" stroke="#333333" stroke-linecap="round" stroke-width="8" target-height="104.06" target-width="102.150024" target-x="859.41" target-y="279.28"></path><path d="M 736.17 325.60 L 813.71 317.49 L 826.71 274.08 L 766.35 224.74 C 763.76 222.61 760.28 221.92 757.07 222.90 C 753.86 223.88 751.36 226.41 750.41 229.62 L 725.55 312.77 C 724.58 315.98 725.29 319.45 727.42 322.03 C 729.56 324.61 732.84 325.95 736.17 325.60 Z" fill="#ff8d8d" fill-rule="nonzero" node-id="125" stroke="#333333" stroke-linecap="round" stroke-width="8" target-height="104.030014" target-width="102.130005" target-x="724.58" target-y="221.92"></path><path d="M 866.17 309.52 L 903.91 321.27" fill="#ff8d8d" fill-rule="nonzero" node-id="127" stroke="none" target-height="11.75" target-width="37.73999" target-x="866.17" target-y="309.52"></path><path d="M 867.36 305.70 L 903.91 321.27 L 865.00 313.34 C 862.82 312.90 861.42 310.78 861.86 308.60 C 862.30 306.42 864.42 305.02 866.60 305.46 C 866.86 305.52 867.11 305.60 867.36 305.70 Z" fill="#333333" fill-rule="nonzero" node-id="129" stroke="none" target-height="16.25" target-width="42.48999" target-x="861.42" target-y="305.02"></path><path d="M 820.13 295.10 L 783.78 284.76" fill="#ff8d8d" fill-rule="nonzero" node-id="131" stroke="none" target-height="10.339996" target-width="36.349976" target-x="783.78" target-y="284.76"></path><path d="M 819.00 299.00 L 783.75 284.81 L 821.19 291.30 C 823.38 291.68 824.85 293.76 824.47 295.95 C 824.09 298.14 822.01 299.61 819.82 299.23 C 819.54 299.18 819.27 299.10 819.00 299.00 Z" fill="#333333" fill-rule="nonzero" node-id="133" stroke="none" target-height="14.799988" target-width="41.099976" target-x="783.75" target-y="284.81"></path><path d="M 462.96 389.12 L 504.63 387.50 L 506.13 426.12 L 464.46 427.74 Z" fill="#ff8d8d" fill-rule="nonzero" group-id="5" node-id="137" stroke="#333333" stroke-linecap="round" stroke-width="8" target-height="40.23999" target-width="43.170013" target-x="462.96" target-y="387.5"></path><path d="M 568.47 449.33 L 506.13 426.14 L 504.63 387.52 L 565.00 359.58 C 567.59 358.38 570.61 358.56 573.05 360.05 C 575.48 361.54 577.02 364.15 577.13 367.00 L 580.00 441.00 C 580.11 443.86 578.79 446.58 576.47 448.26 C 574.15 449.93 571.15 450.33 568.47 449.33 Z" fill="#ff8d8d" fill-rule="nonzero" node-id="140" stroke="#333333" stroke-linecap="round" stroke-width="8" target-height="91.94998" target-width="75.47998" target-x="504.63" target-y="358.38"></path><path d="M 405.10 455.66 L 465.47 427.72 L 464.00 389.09 L 401.66 365.91 C 398.98 364.91 395.98 365.32 393.67 366.99 C 391.35 368.67 390.03 371.39 390.14 374.25 L 393.00 448.25 C 393.12 451.09 394.65 453.69 397.08 455.18 C 399.50 456.66 402.51 456.84 405.10 455.66 Z" fill="#ff8d8d" fill-rule="nonzero" node-id="142" stroke="#333333" stroke-linecap="round" stroke-width="8" target-height="91.92999" target-width="75.44" target-x="390.03" target-y="364.91"></path><path d="M 505.62 406.81 L 539.33 405.89" fill="#ff8d8d" fill-rule="nonzero" node-id="144" stroke="none" target-height="0.9199829" target-width="33.710022" target-x="505.62" target-y="405.89"></path><path d="M 505.51 402.81 L 539.33 405.89 L 505.73 410.81 C 503.52 411.13 501.47 409.60 501.14 407.39 C 500.82 405.19 502.35 403.13 504.56 402.81 C 504.88 402.78 505.19 402.78 505.51 402.81 Z" fill="#333333" fill-rule="nonzero" node-id="146" stroke="none" target-height="8.350006" target-width="38.51001" target-x="500.82" target-y="402.78"></path><path d="M 464.47 407.87 L 432.27 409.55" fill="#ff8d8d" fill-rule="nonzero" node-id="148" stroke="none" target-height="1.6799927" target-width="32.200012" target-x="432.27" target-y="407.87"></path><path d="M 464.68 411.87 L 432.27 409.55 L 464.27 403.88 C 466.46 403.49 468.56 404.95 468.94 407.15 C 469.33 409.34 467.87 411.43 465.68 411.82 C 465.35 411.87 465.01 411.89 464.68 411.87 Z" fill="#333333" fill-rule="nonzero" node-id="150" stroke="none" target-height="8.400024" target-width="37.059998" target-x="432.27" target-y="403.49"></path><path d="M 662.11 471.43 L 693.42 463.01 L 701.22 492.03 L 669.91 500.45 Z" fill="#ff8d8d" fill-rule="nonzero" group-id="6" node-id="154" stroke="#333333" stroke-linecap="round" stroke-width="8" target-height="37.440002" target-width="39.109985" target-x="662.11" target-y="463.01"></path><path d="M 752.47 498.83 L 701.22 492.00 L 693.42 463.00 L 734.35 431.40 C 736.11 430.04 738.43 429.65 740.53 430.36 C 742.63 431.07 744.24 432.79 744.82 434.93 L 759.77 490.51 C 760.35 492.66 759.81 494.95 758.35 496.62 C 756.88 498.30 754.67 499.12 752.47 498.83 Z" fill="#ff8d8d" fill-rule="nonzero" node-id="157" stroke="#333333" stroke-linecap="round" stroke-width="8" target-height="69.47" target-width="66.92999" target-x="693.42" target-y="429.65"></path><path d="M 629.75 531.83 L 670.68 500.23 L 662.88 471.23 L 611.62 464.42 C 609.42 464.13 607.21 464.95 605.75 466.62 C 604.28 468.29 603.75 470.58 604.33 472.73 L 619.28 528.31 C 619.86 530.45 621.47 532.16 623.57 532.87 C 625.68 533.58 627.99 533.19 629.75 531.83 Z" fill="#ff8d8d" fill-rule="nonzero" node-id="159" stroke="#333333" stroke-linecap="round" stroke-width="8" target-height="69.45001" target-width="66.92999" target-x="603.75" target-y="464.13"></path><path d="M 697.50 477.46 L 722.89 470.94" fill="#ff8d8d" fill-rule="nonzero" node-id="161" stroke="none" target-height="6.519989" target-width="25.390015" target-x="697.5" target-y="470.94"></path><path d="M 696.51 473.58 L 722.89 470.94 L 698.50 481.33 C 696.36 481.88 694.18 480.60 693.62 478.45 C 693.07 476.31 694.36 474.13 696.50 473.58 Z" fill="#333333" fill-rule="nonzero" node-id="163" stroke="none" target-height="10.940002" target-width="29.820007" target-x="693.07" target-y="470.94"></path><path d="M 666.50 485.36 L 642.38 492.20" fill="#ff8d8d" fill-rule="nonzero" node-id="165" stroke="none" target-height="6.840027" target-width="24.119995" target-x="642.38" target-y="485.36"></path><path d="M 667.59 489.21 L 642.38 492.21 L 665.38 481.53 C 666.78 481.07 668.31 481.41 669.38 482.42 C 670.45 483.43 670.87 484.94 670.49 486.36 C 670.12 487.78 668.99 488.88 667.56 489.22 Z" fill="#333333" fill-rule="nonzero" node-id="167" stroke="none" target-height="11.139984" target-width="28.48999" target-x="642.38" target-y="481.07"></path><path d="M 334.88 559.13 L 368.11 543.72 L 382.39 574.52 L 349.16 589.93 Z" fill="#ff8d8d" fill-rule="nonzero" group-id="7" node-id="171" stroke="#333333" stroke-linecap="round" stroke-width="8" target-height="46.210022" target-width="47.51001" target-x="334.88" target-y="543.72"></path><path d="M 440.78 572.19 L 382.40 574.50 L 368.12 543.70 L 407.59 500.63 C 409.28 498.78 411.79 497.90 414.27 498.28 C 416.75 498.66 418.88 500.26 419.93 502.54 L 447.30 561.54 C 448.35 563.82 448.20 566.47 446.89 568.61 C 445.58 570.75 443.29 572.09 440.78 572.19 Z" fill="#ff8d8d" fill-rule="nonzero" node-id="174" stroke="#333333" stroke-linecap="round" stroke-width="8" target-height="76.600006" target-width="80.23001" target-x="368.12" target-y="497.9"></path><path d="M 310.51 632.61 L 350.00 589.54 L 335.72 558.74 L 277.32 561.00 C 274.81 561.10 272.52 562.45 271.21 564.59 C 269.90 566.74 269.75 569.39 270.80 571.67 L 298.17 630.67 C 299.22 632.95 301.34 634.56 303.82 634.95 C 306.30 635.34 308.81 634.46 310.51 632.61 Z" fill="#ff8d8d" fill-rule="nonzero" node-id="176" stroke="#333333" stroke-linecap="round" stroke-width="8" target-height="76.60004" target-width="80.25" target-x="269.75" target-y="558.74"></path><path d="M 375.45 559.00 L 402.45 546.84" fill="#ff8d8d" fill-rule="nonzero" node-id="178" stroke="none" target-height="12.159973" target-width="27" target-x="375.45" target-y="546.84"></path><path d="M 373.81 555.36 L 402.45 546.84 L 377.09 562.65 C 375.20 563.83 372.71 563.25 371.53 561.36 C 370.35 559.47 370.93 556.98 372.82 555.80 C 373.13 555.61 373.46 555.46 373.81 555.36 Z" fill="#333333" fill-rule="nonzero" node-id="180" stroke="none" target-height="16.98999" target-width="32.100006" target-x="370.35" target-y="546.84"></path><path d="M 342.46 573.79 L 316.93 586.05" fill="#ff8d8d" fill-rule="nonzero" node-id="182" stroke="none" target-height="12.26001" target-width="25.529999" target-x="316.93" target-y="573.79"></path><path d="M 344.19 577.40 L 316.93 586.05 L 340.72 570.18 C 342.58 568.94 345.09 569.44 346.33 571.30 C 347.57 573.16 347.07 575.67 345.21 576.91 C 344.89 577.11 344.55 577.28 344.19 577.40 Z" fill="#333333" fill-rule="nonzero" node-id="184" stroke="none" target-height="17.109985" target-width="30.640015" target-x="316.93" target-y="568.94"></path><path d="M 773.80 595.22 L 810.10 600.18 L 805.49 633.82 L 769.20 628.85 Z" fill="#ff8d8d" fill-rule="nonzero" group-id="8" node-id="188" stroke="#333333" stroke-linecap="round" stroke-width="8" target-height="38.600037" target-width="40.899963" target-x="769.2" target-y="595.22"></path><path d="M 855.84 663.44 L 805.45 633.86 L 810.05 600.22 L 866.53 585.22 C 868.96 584.58 871.54 585.19 873.43 586.86 C 875.31 588.52 876.23 591.01 875.89 593.50 L 867.08 658.00 C 866.73 660.48 865.17 662.63 862.91 663.72 C 860.66 664.82 858.00 664.71 855.84 663.44 Z" fill="#ff8d8d" fill-rule="nonzero" node-id="191" stroke="#333333" stroke-linecap="round" stroke-width="8" target-height="80.23999" target-width="70.77997" target-x="805.45" target-y="584.58"></path><path d="M 713.57 644.00 L 770.00 629.00 L 774.61 595.37 L 724.26 565.80 C 722.09 564.52 719.43 564.41 717.17 565.51 C 714.90 566.61 713.34 568.77 713.00 571.26 L 704.18 635.69 C 703.82 638.19 704.75 640.70 706.64 642.37 C 708.53 644.05 711.13 644.66 713.57 644.00 Z" fill="#ff8d8d" fill-rule="nonzero" node-id="193" stroke="#333333" stroke-linecap="round" stroke-width="8" target-height="80.25" target-width="70.78998" target-x="703.82" target-y="564.41"></path><path d="M 807.97 617.06 L 837.26 621.41" fill="#ff8d8d" fill-rule="nonzero" node-id="195" stroke="none" target-height="4.3499756" target-width="29.29004" target-x="807.97" target-y="617.06"></path><path d="M 808.55 613.11 L 837.26 621.41 L 807.38 621.00 C 805.15 620.97 803.37 619.14 803.40 616.91 C 803.43 614.68 805.26 612.90 807.49 612.93 C 807.85 612.94 808.21 613.00 808.55 613.11 Z" fill="#333333" fill-rule="nonzero" node-id="197" stroke="none" target-height="8.509949" target-width="33.890015" target-x="803.37" target-y="612.9"></path><path d="M 772.21 611.70 L 744.10 608.23" fill="#ff8d8d" fill-rule="nonzero" node-id="199" stroke="none" target-height="3.4700317" target-width="28.110046" target-x="744.1" target-y="608.23"></path><path d="M 771.72 615.67 L 744.10 608.23 L 772.70 607.73 C 774.93 607.69 776.77 609.47 776.80 611.70 C 776.84 613.92 775.07 615.76 772.84 615.80 C 772.46 615.81 772.09 615.76 771.72 615.67 Z" fill="#333333" fill-rule="nonzero" node-id="201" stroke="none" target-height="8.119995" target-width="32.74005" target-x="744.1" target-y="607.69"></path><path d="M 525.29 641.48 L 561.18 633.42 L 568.65 666.69 L 532.76 674.75 Z" fill="#ff8d8d" fill-rule="nonzero" group-id="9" node-id="205" stroke="#333333" stroke-linecap="round" stroke-width="8.035123" target-height="41.330017" target-width="43.360046" target-x="525.29" target-y="633.42"></path><path d="M 624.82 672.13 L 567.24 662.20 L 559.70 629.10 L 607.29 595.21 C 609.34 593.74 611.98 593.39 614.34 594.29 C 616.70 595.18 618.45 597.20 619.00 599.66 L 633.44 663.07 C 634.00 665.52 633.30 668.09 631.56 669.91 C 629.83 671.74 627.30 672.57 624.82 672.13 Z" fill="#ff8d8d" fill-rule="nonzero" node-id="208" stroke="#333333" stroke-linecap="round" stroke-width="8" target-height="79.17999" target-width="74.29999" target-x="559.7" target-y="593.39"></path><path d="M 484.80 704.00 L 532.40 670.11 L 524.86 637.00 L 467.28 627.06 C 464.81 626.64 462.29 627.48 460.56 629.30 C 458.83 631.12 458.13 633.68 458.69 636.13 L 473.13 699.54 C 473.69 701.99 475.43 703.99 477.77 704.89 C 480.12 705.79 482.75 705.45 484.80 704.00 Z" fill="#ff8d8d" fill-rule="nonzero" node-id="210" stroke="#333333" stroke-linecap="round" stroke-width="8" target-height="79.14996" target-width="74.27002" target-x="458.13" target-y="626.64"></path><path d="M 563.68 645.59 L 592.63 639.34" fill="#ff8d8d" fill-rule="nonzero" node-id="212" stroke="none" target-height="6.25" target-width="28.950012" target-x="563.68" target-y="639.34"></path><path d="M 562.84 641.69 L 592.63 639.34 L 564.52 649.50 C 562.42 650.26 560.11 649.17 559.36 647.07 C 558.60 644.98 559.68 642.67 561.78 641.91 C 562.12 641.79 562.48 641.71 562.84 641.69 Z" fill="#333333" fill-rule="nonzero" node-id="214" stroke="none" target-height="10.919983" target-width="34.03003" target-x="558.6" target-y="639.34"></path><path d="M 528.32 653.17 L 500.80 659.83" fill="#ff8d8d" fill-rule="nonzero" node-id="216" stroke="none" target-height="6.660034" target-width="27.52002" target-x="500.8" target-y="653.17"></path><path d="M 529.26 657.06 L 500.80 659.83 L 527.38 649.28 C 529.45 648.45 531.81 649.46 532.63 651.53 C 533.46 653.61 532.45 655.96 530.38 656.79 C 530.02 656.93 529.64 657.02 529.26 657.06 Z" fill="#333333" fill-rule="nonzero" node-id="218" stroke="none" target-height="11.380005" target-width="32.660034" target-x="500.8" target-y="648.45"></path><path d="M 579.63 996.34 L 565.15 1023.52" fill="none" node-id="220" stroke="#ff8d8d" stroke-linecap="round" stroke-width="8" target-height="27.179993" target-width="14.47998" target-x="565.15" target-y="996.34"></path><path d="M 603.63 996.34 L 589.15 1023.52" fill="none" node-id="222" stroke="#ff8d8d" stroke-linecap="round" stroke-width="8" target-height="27.179993" target-width="14.47998" target-x="589.15" target-y="996.34"></path><path d="M 626.63 996.34 L 612.15 1023.52" fill="none" node-id="224" stroke="#ff8d8d" stroke-linecap="round" stroke-width="8" target-height="27.179993" target-width="14.47998" target-x="612.15" target-y="996.34"></path><path d="M 726.60 998.83 L 714.78 1021.03" fill="none" node-id="226" stroke="#ff8d8d" stroke-linecap="round" stroke-width="8" target-height="22.200012" target-width="11.819946" target-x="714.78" target-y="998.83"></path><path d="M 746.21 998.83 L 734.39 1021.03" fill="none" node-id="228" stroke="#ff8d8d" stroke-linecap="round" stroke-width="8" target-height="22.200012" target-width="11.820007" target-x="734.39" target-y="998.83"></path><path d="M 765.00 998.83 L 753.18 1021.03" fill="none" node-id="230" stroke="#ff8d8d" stroke-linecap="round" stroke-width="8" target-height="22.200012" target-width="11.820007" target-x="753.18" target-y="998.83"></path><path d="M 657.37 950.24 C 658.16 954.77 648.03 952.57 635.79 954.35 C 623.55 956.13 613.87 961.20 613.08 956.68 C 612.29 952.16 621.23 944.13 633.46 942.35 C 645.69 940.57 656.59 945.72 657.37 950.24 Z" fill="#352415" fill-rule="nonzero" node-id="232" stroke="none" target-height="20.630005" target-width="45.869995" target-x="612.29" target-y="940.57"></path><path d="M 737.49 945.44 C 737.71 949.39 729.24 945.30 718.58 945.70 C 707.92 946.10 699.09 950.84 698.87 946.89 C 698.65 942.94 707.12 935.60 717.78 935.20 C 728.44 934.80 737.27 941.48 737.49 945.44 Z" fill="#352415" fill-rule="nonzero" node-id="234" stroke="none" target-height="16.04004" target-width="39.059998" target-x="698.65" target-y="934.8"></path></svg>