<svg height="1200" node-id="1" sillyvg="true" template-height="1200" template-width="1200" version="1.1" viewBox="0 0 1200 1200" width="1200" xmlns="http://www.w3.org/2000/svg" xmlns:xlink="http://www.w3.org/1999/xlink"><defs node-id="21"></defs><path d="M 0.00 0.00 L 1200.00 0.00 L 1200.00 1200.00 L 0.00 1200.00 Z" fill="#ffeefd" fill-rule="nonzero" node-id="23" stroke="none" target-height="1200" target-width="1200" target-x="0" target-y="0"></path><path d="M 686.91 1084.68 C 785.03 1063.36 775.75 1001.01 765.83 966.56 C 762.43 954.48 762.83 941.65 767.00 929.81 C 776.60 902.06 779.00 878.07 777.62 858.03 C 774.63 816.09 743.35 781.62 701.89 774.59 C 400.89 722.77 498.89 1004.16 498.89 1004.16 C 498.89 1004.16 534.59 1062.69 582.04 1086.06 C 582.00 1086.06 651.83 1101.84 686.91 1084.68 Z" fill="#fffbf3" fill-rule="nonzero" node-id="25" stroke="#333333" stroke-linecap="round" stroke-width="14" target-height="379.06995" target-width="384.14" target-x="400.89" target-y="722.77"></path><path d="M 715.35 911.26 C 722.35 906.26 736.18 904.51 744.28 910.38" fill="#ffffff" fill-rule="nonzero" node-id="27" stroke="#333333" stroke-linecap="round" stroke-width="7.74" target-height="6.75" target-width="28.930054" target-x="715.35" target-y="904.51"></path><path d="M 624.12 919.63 C 633.12 911.21 652.24 908.79 661.45 913.14" fill="#ffffff" fill-rule="nonzero" node-id="29" stroke="#333333" stroke-linecap="round" stroke-width="7.74" target-height="10.840027" target-width="37.330017" target-x="624.12" target-y="908.79"></path><path d="M 685.62 1025.13 C 694.15 1026.01 702.12 1025.50 709.06 1022.41" fill="#ffffff" fill-rule="nonzero" node-id="31" stroke="#333333" stroke-linecap="round" stroke-width="7.74" target-height="3.6000366" target-width="23.440002" target-x="685.62" target-y="1022.41"></path><path d="M 705.13 1108.94 C 707.13 1108.30 709.20 1107.13 711.06 1106.43 C 712.92 1105.73 709.56 1091.53 711.40 1090.75 C 713.24 1089.97 719.82 1099.48 721.61 1098.61 C 723.40 1097.74 724.00 1093.95 725.74 1092.98 C 727.48 1092.01 726.67 1086.64 728.35 1085.57 C 730.03 1084.50 740.35 1095.57 742.01 1094.42 C 743.67 1093.27 732.21 1075.08 733.73 1073.81 C 735.25 1072.54 738.34 1073.72 739.73 1072.34 C 741.12 1070.96 743.88 1071.27 745.19 1069.79 C 746.50 1068.31 748.65 1067.79 749.84 1066.17 C 751.03 1064.55 748.29 1060.71 749.34 1059.04 C 750.39 1057.37 752.82 1056.98 753.72 1055.24 C 754.72 1053.34 766.85 1056.75 767.59 1054.95 C 768.41 1052.95 770.50 1050.95 771.07 1049.08 C 771.72 1046.98 770.19 1043.90 770.58 1042.08 C 771.07 1039.81 772.22 1037.39 772.41 1035.66 C 772.84 1031.84 766.50 1037.89 763.70 1036.66 C 763.02 1038.58 772.58 1036.26 771.70 1038.03 C 770.82 1039.80 759.79 1035.92 758.70 1037.57 C 757.61 1039.22 753.43 1037.65 752.09 1039.15 C 750.75 1040.65 756.98 1049.21 755.49 1050.57 C 754.00 1051.93 754.49 1056.42 752.90 1057.63 C 751.31 1058.84 751.34 1063.79 749.61 1064.84 C 747.88 1065.89 743.85 1064.10 742.04 1065.02 C 740.23 1065.94 731.32 1051.47 729.46 1052.28 C 727.60 1053.09 730.61 1065.39 728.71 1066.09 C 726.81 1066.79 721.41 1056.55 719.48 1057.15 C 717.55 1057.75 720.92 1076.79 718.98 1077.30 C 717.04 1077.81 714.17 1076.07 712.21 1076.51 C 710.25 1076.95 706.38 1068.77 704.41 1069.14 C 702.44 1069.51 700.57 1070.49 698.59 1070.80 C 696.61 1071.11 695.96 1082.19 693.98 1082.44 C 692.00 1082.69 688.82 1074.28 686.85 1074.44 C 684.88 1074.60 682.24 1067.85 680.26 1068.00 C 678.28 1068.15 677.12 1083.52 675.16 1083.63 C 673.20 1083.74 670.87 1084.03 668.92 1084.09 C 666.97 1084.15 664.48 1071.43 662.54 1071.45 C 660.44 1071.45 658.43 1074.91 656.54 1074.89 C 654.40 1074.89 652.74 1062.25 650.88 1062.20 C 649.02 1062.15 647.02 1069.12 645.10 1068.96 C 643.18 1068.80 639.65 1081.96 637.74 1081.70 C 635.83 1081.44 637.27 1061.01 635.38 1060.70 C 633.49 1060.39 627.62 1078.34 625.74 1077.87 C 623.86 1077.40 623.31 1071.24 621.46 1070.67 C 619.61 1070.10 617.20 1070.74 615.39 1070.06 C 613.58 1069.38 611.62 1068.55 609.86 1067.77 C 608.10 1066.99 606.48 1065.46 604.76 1064.58 C 603.04 1063.70 596.60 1070.25 594.92 1069.25 C 593.24 1068.25 599.26 1054.42 597.63 1053.33 C 596.00 1052.24 593.96 1051.89 592.40 1050.71 C 590.84 1049.53 594.03 1042.89 592.55 1041.61 C 591.07 1040.33 580.30 1049.37 578.89 1048.01 C 577.48 1046.65 578.42 1042.68 577.09 1041.24 C 575.76 1039.80 583.34 1030.82 582.09 1029.31 C 580.84 1027.80 579.92 1026.67 578.76 1025.10 C 577.60 1023.53 560.60 1033.01 559.52 1031.38 C 558.44 1029.75 555.92 1028.38 554.92 1026.68 C 553.92 1024.98 559.38 1019.24 558.48 1017.52 C 557.58 1015.80 559.48 1012.52 558.65 1010.74 C 557.82 1008.96 566.65 1003.12 565.90 1001.34 C 565.15 999.56 554.49 1001.70 553.85 999.91 C 553.14 997.91 547.55 997.62 546.99 995.83 C 546.36 993.83 553.87 989.54 553.41 987.83 C 552.84 985.63 553.41 983.66 553.07 982.01 C 552.30 978.32 556.41 978.94 556.07 976.01 C 555.77 974.01 552.48 972.53 552.26 970.60 C 552.04 968.67 546.18 967.31 546.01 965.38 C 545.84 963.45 549.78 961.21 549.68 959.27 C 549.58 957.33 551.37 955.42 551.35 953.48 C 551.33 951.54 535.54 949.31 535.60 947.37 C 535.66 945.43 538.87 943.19 539.00 941.26 C 539.13 939.33 545.43 937.68 545.65 935.76 C 545.87 933.84 536.58 930.25 536.88 928.33 C 537.18 926.41 541.00 924.62 541.40 922.72 C 541.80 920.82 540.62 918.04 541.12 916.17 C 541.62 914.30 560.20 917.63 560.79 915.78 C 561.38 913.93 562.13 912.62 562.79 910.78 C 563.45 908.94 554.14 903.20 554.93 901.42 C 555.72 899.64 550.49 894.64 551.39 892.91 C 552.29 891.18 555.27 890.11 556.26 888.43 C 557.25 886.75 571.63 893.57 572.71 891.95 C 573.79 890.33 565.17 882.05 566.34 880.49 C 567.51 878.93 561.69 871.28 562.94 869.79 C 564.19 868.30 570.28 870.46 571.62 869.04 C 572.96 867.62 574.02 865.45 575.43 864.11 C 576.84 862.77 579.35 862.11 580.82 860.89 C 582.29 859.67 592.45 869.03 593.98 867.84 C 595.51 866.65 589.98 856.03 591.57 854.91 C 593.16 853.79 590.49 845.58 592.12 844.55 C 593.75 843.52 602.23 853.19 603.90 852.23 C 605.57 851.27 606.65 849.03 608.35 848.16 C 610.05 847.29 609.87 841.91 611.58 841.16 C 613.47 840.29 620.87 852.62 622.58 851.92 C 624.58 851.11 622.69 841.37 624.39 840.77 C 626.51 840.00 626.57 833.40 628.17 832.91 C 631.75 831.83 631.86 833.85 634.74 833.20 C 637.62 832.55 637.74 836.51 641.44 835.76 C 643.09 835.43 646.65 843.97 648.89 843.58 C 650.68 843.26 651.89 839.04 653.98 838.71 C 655.84 838.42 658.48 843.77 660.55 843.48 C 662.45 843.23 663.72 838.72 665.77 838.48 C 667.82 838.24 669.96 842.48 671.99 842.31 C 674.02 842.14 674.37 823.75 676.40 823.61 C 678.43 823.47 681.21 837.61 683.22 837.52 C 685.23 837.43 686.97 835.52 688.98 835.52 C 690.99 835.52 692.80 837.31 694.81 837.32 C 696.82 837.33 698.66 834.93 700.65 834.99 C 702.64 835.05 704.87 829.36 706.86 829.49 C 708.85 829.62 710.33 835.16 712.31 835.36 C 714.29 835.56 715.46 840.36 717.43 840.62 C 719.40 840.88 722.87 831.28 724.82 831.62 C 726.77 831.96 729.43 829.93 731.35 830.40 C 733.27 830.87 732.89 839.78 734.78 840.40 C 736.67 841.02 740.42 835.98 742.27 836.69 C 744.12 837.40 745.94 838.51 747.72 839.36 C 749.50 840.21 752.56 839.20 754.27 840.20 C 755.98 841.20 750.97 852.01 752.56 853.20 C 754.15 854.39 763.71 845.60 765.17 846.94 C 766.63 848.28 759.17 857.94 760.47 859.49 C 761.77 861.04 777.47 851.90 778.58 853.58 C 779.69 855.26 776.43 860.46 777.33 862.28 C 778.23 864.10 775.83 867.60 776.50 869.52 C 777.17 871.44 770.29 875.17 770.76 877.16 C 771.23 879.15 783.44 878.78 783.76 880.81 C 784.08 882.84 778.25 876.81 778.35 878.81 C 781.35 878.81 774.28 883.94 775.42 880.28 C 775.92 878.65 782.66 878.55 783.25 876.28 C 783.72 874.50 793.33 874.51 793.80 872.39 C 794.21 870.53 778.80 865.27 779.23 863.18 C 779.58 861.28 775.62 858.89 775.91 856.82 C 776.20 854.75 794.42 855.10 794.63 853.04 C 794.84 850.98 786.92 848.24 787.04 846.18 C 787.16 844.12 794.74 842.31 794.77 840.25 C 794.80 838.19 777.35 836.40 777.29 834.36 C 777.23 832.32 783.10 830.36 782.95 828.36 C 782.80 826.36 786.18 824.10 785.95 822.08 C 785.72 820.06 783.08 818.54 782.72 816.53 C 782.36 814.52 793.85 809.90 793.38 807.92 C 792.91 805.94 772.38 809.48 771.75 807.53 C 771.12 805.58 785.31 798.98 784.61 797.07 C 783.91 795.16 787.42 791.16 786.61 789.30 C 785.80 787.44 767.79 793.88 766.85 792.07 C 765.91 790.26 772.85 784.51 771.85 782.77 C 770.85 781.03 771.09 778.50 769.93 776.77 C 768.77 775.04 762.43 777.55 761.17 775.95 C 759.91 774.35 767.10 765.75 765.73 764.22 C 764.36 762.69 752.08 771.92 750.63 770.48 C 749.18 769.04 749.48 766.62 747.94 765.27 C 746.40 763.92 751.13 755.48 749.51 754.21 C 747.89 752.94 749.73 746.82 748.05 745.64 C 746.37 744.46 742.65 746.44 741.05 745.38 C 739.45 744.32 738.58 741.81 736.93 740.80 C 735.28 739.79 736.23 733.80 734.54 732.89 C 732.85 731.98 728.79 734.75 727.08 733.89 C 725.37 733.03 722.27 734.49 720.52 733.67 C 718.77 732.85 711.82 744.00 710.05 743.26 C 708.28 742.52 706.79 742.10 704.98 741.43 C 703.17 740.76 705.19 729.52 703.36 728.93 C 701.53 728.34 701.59 720.21 699.73 719.72 C 697.87 719.23 692.48 732.95 690.60 732.55 C 688.72 732.15 689.30 717.41 687.40 717.12 C 685.50 716.83 682.40 723.32 680.40 723.12 C 678.40 722.92 676.40 723.66 674.26 723.50 C 672.34 723.36 669.56 735.60 667.47 735.50 C 665.38 735.40 663.99 728.19 661.91 728.10 C 659.83 728.01 657.91 730.86 655.85 730.81 C 653.79 730.76 651.94 733.36 649.85 733.34 C 647.76 733.32 646.01 735.48 643.96 735.49 C 641.91 735.50 640.10 733.19 638.05 733.24 C 636.00 733.29 634.23 734.24 632.19 734.24 C 630.15 734.24 627.49 718.90 625.46 719.01 C 623.43 719.12 621.69 723.76 619.66 723.91 C 617.63 724.06 616.36 732.13 614.33 732.31 C 612.30 732.49 609.78 726.42 607.76 726.64 C 605.74 726.86 603.63 726.00 601.62 726.26 C 599.61 726.52 596.54 719.47 594.54 719.77 C 592.54 720.07 591.08 724.41 589.08 724.77 C 587.08 725.13 584.73 723.83 582.74 724.21 C 580.75 724.59 581.13 736.61 579.15 737.03 C 577.17 737.45 574.27 733.26 572.30 733.72 C 570.33 734.18 565.91 725.00 563.95 725.51 C 561.99 726.02 561.73 733.15 559.79 733.70 C 557.85 734.25 557.86 741.18 555.93 741.79 C 554.00 742.40 549.33 734.52 547.42 735.17 C 545.51 735.82 540.96 729.66 539.07 730.36 C 537.18 731.06 536.75 736.23 534.88 736.98 C 533.01 737.73 537.64 753.83 535.80 754.64 C 533.96 755.45 530.29 751.74 528.47 752.64 C 526.65 753.54 527.67 759.56 525.87 760.49 C 524.07 761.42 520.40 758.19 518.63 759.17 C 516.86 760.15 510.99 753.86 509.26 754.90 C 507.53 755.94 506.02 757.43 504.33 758.53 C 502.64 759.63 496.54 754.53 494.88 755.68 C 493.22 756.83 501.73 771.98 500.12 773.20 C 498.51 774.42 484.95 760.51 483.38 761.79 C 481.81 763.07 489.32 775.25 487.80 776.59 C 486.28 777.93 475.55 769.42 474.08 770.82 C 472.61 772.22 485.93 788.47 484.52 789.92 C 483.11 791.37 467.69 779.73 466.34 781.24 C 464.99 782.75 471.94 791.53 470.65 793.10 C 469.36 794.67 463.74 792.80 462.52 794.41 C 461.30 796.02 469.83 804.60 468.67 806.26 C 467.51 807.92 449.98 798.65 448.88 800.36 C 447.78 802.07 466.27 815.75 465.24 817.50 C 464.21 819.25 454.48 815.77 453.52 817.56 C 452.56 819.35 453.60 822.02 452.71 823.84 C 451.82 825.66 438.84 821.92 438.02 823.78 C 437.20 825.64 437.42 828.24 436.66 830.13 C 435.90 832.02 436.37 834.61 435.66 836.52 C 434.95 838.43 444.54 843.89 443.91 845.83 C 443.28 847.77 431.91 846.40 431.37 848.36 C 430.83 850.32 446.66 856.68 446.15 858.65 C 445.64 860.62 435.02 859.96 434.57 861.95 C 434.12 863.94 442.43 867.61 442.04 869.61 C 441.65 871.61 431.21 871.61 430.87 873.61 C 430.53 875.61 427.30 877.23 427.01 879.25 C 426.72 881.27 421.18 882.55 420.95 884.58 C 420.56 887.52 442.87 889.15 442.53 892.95 C 442.38 894.61 434.40 895.78 434.26 898.05 C 434.16 899.85 434.79 901.76 434.72 903.91 C 434.67 905.76 433.40 907.63 433.38 909.72 C 433.38 911.61 421.31 913.72 421.38 915.80 C 421.38 917.71 423.10 919.80 423.18 921.88 C 423.26 923.96 426.67 925.74 426.81 927.77 C 426.95 929.80 433.81 931.15 434.05 933.17 C 434.29 935.19 427.92 937.75 428.15 939.76 C 428.38 941.77 428.72 943.76 429.00 945.76 C 429.28 947.76 435.31 948.76 435.64 950.76 C 435.97 952.76 433.97 955.04 434.35 957.00 C 434.73 958.96 445.08 958.68 445.51 960.63 C 445.94 962.58 447.39 963.94 447.88 965.88 C 448.37 967.82 442.35 971.20 442.88 973.12 C 443.41 975.04 440.53 977.84 441.12 979.75 C 441.71 981.66 446.35 982.10 446.99 983.99 C 447.63 985.88 447.76 987.75 448.47 989.62 C 449.18 991.49 454.80 991.12 455.56 992.97 C 456.32 994.82 445.73 1001.36 446.56 1003.18 C 447.39 1005.00 445.41 1008.18 446.29 1010.01 C 447.17 1011.84 445.89 1014.89 446.82 1016.65 C 447.75 1018.41 451.10 1019.05 452.09 1020.78 C 453.08 1022.51 465.30 1017.45 466.35 1019.14 C 467.40 1020.83 458.94 1028.53 460.05 1030.14 C 461.16 1031.75 471.90 1026.61 473.05 1028.22 C 474.20 1029.83 476.82 1029.93 478.05 1031.50 C 479.28 1033.07 471.67 1041.50 472.95 1043.04 C 474.23 1044.58 467.80 1053.04 469.13 1054.51 C 470.46 1055.98 481.19 1048.91 482.57 1050.34 C 483.95 1051.77 487.10 1051.26 488.57 1052.64 C 490.04 1054.02 493.13 1053.25 494.62 1054.58 C 496.11 1055.91 496.67 1057.92 498.21 1059.19 C 499.75 1060.46 501.16 1061.51 502.74 1062.74 C 504.32 1063.97 498.91 1074.46 500.53 1075.63 C 502.15 1076.80 504.53 1077.18 506.15 1078.29 C 507.77 1079.40 517.88 1067.29 519.57 1068.29 C 521.26 1069.29 513.73 1084.96 515.46 1085.97 C 517.99 1087.59 526.08 1072.25 529.46 1074.18 C 530.92 1075.01 530.26 1079.71 532.33 1080.77 C 533.94 1081.60 533.33 1087.19 535.28 1088.12 C 536.98 1088.91 537.28 1093.27 539.28 1094.12 C 541.03 1094.87 547.28 1084.80 549.20 1085.57 C 551.12 1086.34 553.20 1085.42 555.14 1086.13 C 556.96 1086.79 554.72 1099.13 556.69 1099.74 C 558.66 1100.35 558.93 1106.20 560.90 1106.74 C 562.87 1107.28 564.28 1110.15 566.27 1110.74 C 568.26 1111.33 571.43 1107.39 573.42 1107.88 C 575.41 1108.37 580.87 1093.15 582.87 1093.59 C 584.87 1094.03 583.47 1109.86 585.47 1110.25 C 587.47 1110.64 588.78 1115.25 590.79 1115.56 C 592.80 1115.87 594.79 1117.06 596.79 1117.36 C 598.79 1117.66 602.01 1109.55 604.04 1109.80 C 606.07 1110.05 608.23 1108.33 610.25 1108.53 C 612.27 1108.73 614.77 1101.96 616.80 1102.12 C 618.83 1102.28 619.53 1120.91 621.56 1121.03 C 623.59 1121.15 626.48 1102.56 628.56 1102.64 C 630.64 1102.72 632.09 1121.00 634.12 1121.03 C 636.15 1121.06 638.28 1107.27 640.31 1107.26 C 642.34 1107.25 644.05 1099.38 646.08 1099.33 C 648.11 1099.28 650.15 1105.88 652.17 1105.79 C 654.19 1105.70 656.50 1112.27 658.53 1112.14 C 660.56 1112.01 662.34 1109.14 664.36 1109.01 C 666.38 1108.88 669.04 1115.58 671.06 1115.38 C 672.91 1115.19 674.98 1115.14 676.82 1114.89 C 678.66 1114.64 678.11 1098.69 679.94 1098.39 C 681.77 1098.09 684.36 1103.10 686.18 1102.74 C 688.00 1102.38 693.03 1115.90 694.84 1115.46 C 696.65 1115.02 693.14 1094.25 694.93 1093.75 C 696.72 1093.25 703.36 1109.52 705.13 1108.94 Z" fill="#fffaf0" fill-rule="nonzero" node-id="33" stroke="none" target-height="404.32" target-width="374.28003" target-x="420.56" target-y="716.83"></path><path d="M 705.13 1108.94 C 707.13 1108.30 709.20 1107.13 711.06 1106.43 C 712.92 1105.73 709.56 1091.53 711.40 1090.75 C 713.24 1089.97 719.82 1099.48 721.61 1098.61 C 723.40 1097.74 724.00 1093.95 725.74 1092.98 C 727.48 1092.01 726.67 1086.64 728.35 1085.57 C 730.03 1084.50 740.35 1095.57 742.01 1094.42 C 743.67 1093.27 732.21 1075.08 733.73 1073.81 C 735.25 1072.54 738.34 1073.72 739.73 1072.34 C 741.12 1070.96 743.88 1071.27 745.19 1069.79 C 746.50 1068.31 748.65 1067.79 749.84 1066.17 C 751.03 1064.55 748.29 1060.71 749.34 1059.04 C 750.39 1057.37 752.82 1056.98 753.72 1055.24 C 754.72 1053.34 766.85 1056.75 767.59 1054.95 C 768.41 1052.95 770.50 1050.95 771.07 1049.08 C 771.72 1046.98 770.19 1043.90 770.58 1042.08 C 771.07 1039.81 772.22 1037.39 772.41 1035.66 C 772.84 1031.84 766.50 1037.89 763.70 1036.66 C 763.02 1038.58 772.58 1036.26 771.70 1038.03 C 770.82 1039.80 759.79 1035.92 758.70 1037.57 C 757.61 1039.22 753.43 1037.65 752.09 1039.15 C 750.75 1040.65 756.98 1049.21 755.49 1050.57 C 754.00 1051.93 754.49 1056.42 752.90 1057.63 C 751.31 1058.84 751.34 1063.79 749.61 1064.84 C 747.88 1065.89 743.85 1064.10 742.04 1065.02 C 740.23 1065.94 731.32 1051.47 729.46 1052.28 C 727.60 1053.09 730.61 1065.39 728.71 1066.09 C 726.81 1066.79 721.41 1056.55 719.48 1057.15 C 717.55 1057.75 720.92 1076.79 718.98 1077.30 C 717.04 1077.81 714.17 1076.07 712.21 1076.51 C 710.25 1076.95 706.38 1068.77 704.41 1069.14 C 702.44 1069.51 700.57 1070.49 698.59 1070.80 C 696.61 1071.11 695.96 1082.19 693.98 1082.44 C 692.00 1082.69 688.82 1074.28 686.85 1074.44 C 684.88 1074.60 682.24 1067.85 680.26 1068.00 C 678.28 1068.15 677.12 1083.52 675.16 1083.63 C 673.20 1083.74 670.87 1084.03 668.92 1084.09 C 666.97 1084.15 664.48 1071.43 662.54 1071.45 C 660.44 1071.45 658.43 1074.91 656.54 1074.89 C 654.40 1074.89 652.74 1062.25 650.88 1062.20 C 649.02 1062.15 647.02 1069.12 645.10 1068.96 C 643.18 1068.80 639.65 1081.96 637.74 1081.70 C 635.83 1081.44 637.27 1061.01 635.38 1060.70 C 633.49 1060.39 627.62 1078.34 625.74 1077.87 C 623.86 1077.40 623.31 1071.24 621.46 1070.67 C 619.61 1070.10 617.20 1070.74 615.39 1070.06 C 613.58 1069.38 611.62 1068.55 609.86 1067.77 C 608.10 1066.99 606.48 1065.46 604.76 1064.58 C 603.04 1063.70 596.60 1070.25 594.92 1069.25 C 593.24 1068.25 599.26 1054.42 597.63 1053.33 C 596.00 1052.24 593.96 1051.89 592.40 1050.71 C 590.84 1049.53 594.03 1042.89 592.55 1041.61 C 591.07 1040.33 580.30 1049.37 578.89 1048.01 C 577.48 1046.65 578.42 1042.68 577.09 1041.24 C 575.76 1039.80 583.34 1030.82 582.09 1029.31 C 580.84 1027.80 579.92 1026.67 578.76 1025.10 C 577.60 1023.53 560.60 1033.01 559.52 1031.38 C 558.44 1029.75 555.92 1028.38 554.92 1026.68 C 553.92 1024.98 559.38 1019.24 558.48 1017.52 C 557.58 1015.80 559.48 1012.52 558.65 1010.74 C 557.82 1008.96 566.65 1003.12 565.90 1001.34 C 565.15 999.56 554.49 1001.70 553.85 999.91 C 553.14 997.91 547.55 997.62 546.99 995.83 C 546.36 993.83 553.87 989.54 553.41 987.83 C 552.84 985.63 553.41 983.66 553.07 982.01 C 552.30 978.32 556.41 978.94 556.07 976.01 C 555.77 974.01 552.48 972.53 552.26 970.60 C 552.04 968.67 546.18 967.31 546.01 965.38 C 545.84 963.45 549.78 961.21 549.68 959.27 C 549.58 957.33 551.37 955.42 551.35 953.48 C 551.33 951.54 535.54 949.31 535.60 947.37 C 535.66 945.43 538.87 943.19 539.00 941.26 C 539.13 939.33 545.43 937.68 545.65 935.76 C 545.87 933.84 536.58 930.25 536.88 928.33 C 537.18 926.41 541.00 924.62 541.40 922.72 C 541.80 920.82 540.62 918.04 541.12 916.17 C 541.62 914.30 560.20 917.63 560.79 915.78 C 561.38 913.93 562.13 912.62 562.79 910.78 C 563.45 908.94 554.14 903.20 554.93 901.42 C 555.72 899.64 550.49 894.64 551.39 892.91 C 552.29 891.18 555.27 890.11 556.26 888.43 C 557.25 886.75 571.63 893.57 572.71 891.95 C 573.79 890.33 565.17 882.05 566.34 880.49 C 567.51 878.93 561.69 871.28 562.94 869.79 C 564.19 868.30 570.28 870.46 571.62 869.04 C 572.96 867.62 574.02 865.45 575.43 864.11 C 576.84 862.77 579.35 862.11 580.82 860.89 C 582.29 859.67 592.45 869.03 593.98 867.84 C 595.51 866.65 589.98 856.03 591.57 854.91 C 593.16 853.79 590.49 845.58 592.12 844.55 C 593.75 843.52 602.23 853.19 603.90 852.23 C 605.57 851.27 606.65 849.03 608.35 848.16 C 610.05 847.29 609.87 841.91 611.58 841.16 C 613.47 840.29 620.87 852.62 622.58 851.92 C 624.58 851.11 622.69 841.37 624.39 840.77 C 626.51 840.00 626.57 833.40 628.17 832.91 C 631.75 831.83 631.86 833.85 634.74 833.20 C 637.62 832.55 637.74 836.51 641.44 835.76 C 643.09 835.43 646.65 843.97 648.89 843.58 C 650.68 843.26 651.89 839.04 653.98 838.71 C 655.84 838.42 658.48 843.77 660.55 843.48 C 662.45 843.23 663.72 838.72 665.77 838.48 C 667.82 838.24 669.96 842.48 671.99 842.31 C 674.02 842.14 674.37 823.75 676.40 823.61 C 678.43 823.47 681.21 837.61 683.22 837.52 C 685.23 837.43 686.97 835.52 688.98 835.52 C 690.99 835.52 692.80 837.31 694.81 837.32 C 696.82 837.33 698.66 834.93 700.65 834.99 C 702.64 835.05 704.87 829.36 706.86 829.49 C 708.85 829.62 710.33 835.16 712.31 835.36 C 714.29 835.56 715.46 840.36 717.43 840.62 C 719.40 840.88 722.87 831.28 724.82 831.62 C 726.77 831.96 729.43 829.93 731.35 830.40 C 733.27 830.87 732.89 839.78 734.78 840.40 C 736.67 841.02 740.42 835.98 742.27 836.69 C 744.12 837.40 745.94 838.51 747.72 839.36 C 749.50 840.21 752.56 839.20 754.27 840.20 C 755.98 841.20 750.97 852.01 752.56 853.20 C 754.15 854.39 763.71 845.60 765.17 846.94 C 766.63 848.28 759.17 857.94 760.47 859.49 C 761.77 861.04 777.47 851.90 778.58 853.58 C 779.69 855.26 776.43 860.46 777.33 862.28 C 778.23 864.10 775.83 867.60 776.50 869.52 C 777.17 871.44 770.29 875.17 770.76 877.16 C 771.23 879.15 783.44 878.78 783.76 880.81 C 784.08 882.84 778.25 876.81 778.35 878.81 C 781.35 878.81 774.28 883.94 775.42 880.28 C 775.92 878.65 782.66 878.55 783.25 876.28 C 783.72 874.50 793.33 874.51 793.80 872.39 C 794.21 870.53 778.80 865.27 779.23 863.18 C 779.58 861.28 775.62 858.89 775.91 856.82 C 776.20 854.75 794.42 855.10 794.63 853.04 C 794.84 850.98 786.92 848.24 787.04 846.18 C 787.16 844.12 794.74 842.31 794.77 840.25 C 794.80 838.19 777.35 836.40 777.29 834.36 C 777.23 832.32 783.10 830.36 782.95 828.36 C 782.80 826.36 786.18 824.10 785.95 822.08 C 785.72 820.06 783.08 818.54 782.72 816.53 C 782.36 814.52 793.85 809.90 793.38 807.92 C 792.91 805.94 772.38 809.48 771.75 807.53 C 771.12 805.58 785.31 798.98 784.61 797.07 C 783.91 795.16 787.42 791.16 786.61 789.30 C 785.80 787.44 767.79 793.88 766.85 792.07 C 765.91 790.26 772.85 784.51 771.85 782.77 C 770.85 781.03 771.09 778.50 769.93 776.77 C 768.77 775.04 762.43 777.55 761.17 775.95 C 759.91 774.35 767.10 765.75 765.73 764.22 C 764.36 762.69 752.08 771.92 750.63 770.48 C 749.18 769.04 749.48 766.62 747.94 765.27 C 746.40 763.92 751.13 755.48 749.51 754.21 C 747.89 752.94 749.73 746.82 748.05 745.64 C 746.37 744.46 742.65 746.44 741.05 745.38 C 739.45 744.32 738.58 741.81 736.93 740.80 C 735.28 739.79 736.23 733.80 734.54 732.89 C 732.85 731.98 728.79 734.75 727.08 733.89 C 725.37 733.03 722.27 734.49 720.52 733.67 C 718.77 732.85 711.82 744.00 710.05 743.26 C 708.28 742.52 706.79 742.10 704.98 741.43 C 703.17 740.76 705.19 729.52 703.36 728.93 C 701.53 728.34 701.59 720.21 699.73 719.72 C 697.87 719.23 692.48 732.95 690.60 732.55 C 688.72 732.15 689.30 717.41 687.40 717.12 C 685.50 716.83 682.40 723.32 680.40 723.12 C 678.40 722.92 676.40 723.66 674.26 723.50 C 672.34 723.36 669.56 735.60 667.47 735.50 C 665.38 735.40 663.99 728.19 661.91 728.10 C 659.83 728.01 657.91 730.86 655.85 730.81 C 653.79 730.76 651.94 733.36 649.85 733.34 C 647.76 733.32 646.01 735.48 643.96 735.49 C 641.91 735.50 640.10 733.19 638.05 733.24 C 636.00 733.29 634.23 734.24 632.19 734.24 C 630.15 734.24 627.49 718.90 625.46 719.01 C 623.43 719.12 621.69 723.76 619.66 723.91 C 617.63 724.06 616.36 732.13 614.33 732.31 C 612.30 732.49 609.78 726.42 607.76 726.64 C 605.74 726.86 603.63 726.00 601.62 726.26 C 599.61 726.52 596.54 719.47 594.54 719.77 C 592.54 720.07 591.08 724.41 589.08 724.77 C 587.08 725.13 584.73 723.83 582.74 724.21 C 580.75 724.59 581.13 736.61 579.15 737.03 C 577.17 737.45 574.27 733.26 572.30 733.72 C 570.33 734.18 565.91 725.00 563.95 725.51 C 561.99 726.02 561.73 733.15 559.79 733.70 C 557.85 734.25 557.86 741.18 555.93 741.79 C 554.00 742.40 549.33 734.52 547.42 735.17 C 545.51 735.82 540.96 729.66 539.07 730.36 C 537.18 731.06 536.75 736.23 534.88 736.98 C 533.01 737.73 537.64 753.83 535.80 754.64 C 533.96 755.45 530.29 751.74 528.47 752.64 C 526.65 753.54 527.67 759.56 525.87 760.49 C 524.07 761.42 520.40 758.19 518.63 759.17 C 516.86 760.15 510.99 753.86 509.26 754.90 C 507.53 755.94 506.02 757.43 504.33 758.53 C 502.64 759.63 496.54 754.53 494.88 755.68 C 493.22 756.83 501.73 771.98 500.12 773.20 C 498.51 774.42 484.95 760.51 483.38 761.79 C 481.81 763.07 489.32 775.25 487.80 776.59 C 486.28 777.93 475.55 769.42 474.08 770.82 C 472.61 772.22 485.93 788.47 484.52 789.92 C 483.11 791.37 467.69 779.73 466.34 781.24 C 464.99 782.75 471.94 791.53 470.65 793.10 C 469.36 794.67 463.74 792.80 462.52 794.41 C 461.30 796.02 469.83 804.60 468.67 806.26 C 467.51 807.92 449.98 798.65 448.88 800.36 C 447.78 802.07 466.27 815.75 465.24 817.50 C 464.21 819.25 454.48 815.77 453.52 817.56 C 452.56 819.35 453.60 822.02 452.71 823.84 C 451.82 825.66 438.84 821.92 438.02 823.78 C 437.20 825.64 437.42 828.24 436.66 830.13 C 435.90 832.02 436.37 834.61 435.66 836.52 C 434.95 838.43 444.54 843.89 443.91 845.83 C 443.28 847.77 431.91 846.40 431.37 848.36 C 430.83 850.32 446.66 856.68 446.15 858.65 C 445.64 860.62 435.02 859.96 434.57 861.95 C 434.12 863.94 442.43 867.61 442.04 869.61 C 441.65 871.61 431.21 871.61 430.87 873.61 C 430.53 875.61 427.30 877.23 427.01 879.25 C 426.72 881.27 421.18 882.55 420.95 884.58 C 420.56 887.52 442.87 889.15 442.53 892.95 C 442.38 894.61 434.40 895.78 434.26 898.05 C 434.16 899.85 434.79 901.76 434.72 903.91 C 434.67 905.76 433.40 907.63 433.38 909.72 C 433.38 911.61 421.31 913.72 421.38 915.80 C 421.38 917.71 423.10 919.80 423.18 921.88 C 423.26 923.96 426.67 925.74 426.81 927.77 C 426.95 929.80 433.81 931.15 434.05 933.17 C 434.29 935.19 427.92 937.75 428.15 939.76 C 428.38 941.77 428.72 943.76 429.00 945.76 C 429.28 947.76 435.31 948.76 435.64 950.76 C 435.97 952.76 433.97 955.04 434.35 957.00 C 434.73 958.96 445.08 958.68 445.51 960.63 C 445.94 962.58 447.39 963.94 447.88 965.88 C 448.37 967.82 442.35 971.20 442.88 973.12 C 443.41 975.04 440.53 977.84 441.12 979.75 C 441.71 981.66 446.35 982.10 446.99 983.99 C 447.63 985.88 447.76 987.75 448.47 989.62 C 449.18 991.49 454.80 991.12 455.56 992.97 C 456.32 994.82 445.73 1001.36 446.56 1003.18 C 447.39 1005.00 445.41 1008.18 446.29 1010.01 C 447.17 1011.84 445.89 1014.89 446.82 1016.65 C 447.75 1018.41 451.10 1019.05 452.09 1020.78 C 453.08 1022.51 465.30 1017.45 466.35 1019.14 C 467.40 1020.83 458.94 1028.53 460.05 1030.14 C 461.16 1031.75 471.90 1026.61 473.05 1028.22 C 474.20 1029.83 476.82 1029.93 478.05 1031.50 C 479.28 1033.07 471.67 1041.50 472.95 1043.04 C 474.23 1044.58 467.80 1053.04 469.13 1054.51 C 470.46 1055.98 481.19 1048.91 482.57 1050.34 C 483.95 1051.77 487.10 1051.26 488.57 1052.64 C 490.04 1054.02 493.13 1053.25 494.62 1054.58 C 496.11 1055.91 496.67 1057.92 498.21 1059.19 C 499.75 1060.46 501.16 1061.51 502.74 1062.74 C 504.32 1063.97 498.91 1074.46 500.53 1075.63 C 502.15 1076.80 504.53 1077.18 506.15 1078.29 C 507.77 1079.40 517.88 1067.29 519.57 1068.29 C 521.26 1069.29 513.73 1084.96 515.46 1085.97 C 517.99 1087.59 526.08 1072.25 529.46 1074.18 C 530.92 1075.01 530.26 1079.71 532.33 1080.77 C 533.94 1081.60 533.33 1087.19 535.28 1088.12 C 536.98 1088.91 537.28 1093.27 539.28 1094.12 C 541.03 1094.87 547.28 1084.80 549.20 1085.57 C 551.12 1086.34 553.20 1085.42 555.14 1086.13 C 556.96 1086.79 554.72 1099.13 556.69 1099.74 C 558.66 1100.35 558.93 1106.20 560.90 1106.74 C 562.87 1107.28 564.28 1110.15 566.27 1110.74 C 568.26 1111.33 571.43 1107.39 573.42 1107.88 C 575.41 1108.37 580.87 1093.15 582.87 1093.59 C 584.87 1094.03 583.47 1109.86 585.47 1110.25 C 587.47 1110.64 588.78 1115.25 590.79 1115.56 C 592.80 1115.87 594.79 1117.06 596.79 1117.36 C 598.79 1117.66 602.01 1109.55 604.04 1109.80 C 606.07 1110.05 608.23 1108.33 610.25 1108.53 C 612.27 1108.73 614.77 1101.96 616.80 1102.12 C 618.83 1102.28 619.53 1120.91 621.56 1121.03 C 623.59 1121.15 626.48 1102.56 628.56 1102.64 C 630.64 1102.72 632.09 1121.00 634.12 1121.03 C 636.15 1121.06 638.28 1107.27 640.31 1107.26 C 642.34 1107.25 644.05 1099.38 646.08 1099.33 C 648.11 1099.28 650.15 1105.88 652.17 1105.79 C 654.19 1105.70 656.50 1112.27 658.53 1112.14 C 660.56 1112.01 662.34 1109.14 664.36 1109.01 C 666.38 1108.88 669.04 1115.58 671.06 1115.38 C 672.91 1115.19 674.98 1115.14 676.82 1114.89 C 678.66 1114.64 678.11 1098.69 679.94 1098.39 C 681.77 1098.09 684.36 1103.10 686.18 1102.74 C 688.00 1102.38 693.03 1115.90 694.84 1115.46 C 696.65 1115.02 693.14 1094.25 694.93 1093.75 C 696.72 1093.25 703.36 1109.52 705.13 1108.94 Z" fill="none" node-id="35" stroke="#333333" stroke-linecap="round" stroke-width="12" target-height="404.32" target-width="374.28003" target-x="420.56" target-y="716.83"></path><path d="M 546.26 815.87 C 543.26 813.21 555.39 801.62 551.59 798.08 C 549.96 796.56 552.36 790.20 550.12 788.08 C 548.37 786.41 541.38 789.95 539.28 787.93 C 537.49 786.21 533.90 786.09 531.87 784.12 C 530.06 782.35 525.66 783.02 523.67 781.06 C 521.85 779.27 530.05 767.27 528.09 765.32 C 526.13 763.37 514.75 771.24 512.82 769.32 C 510.89 767.40 508.44 766.24 506.53 764.32 C 504.62 762.40 496.39 766.79 494.53 764.83 C 492.67 762.87 502.53 749.83 500.67 747.83 C 498.81 745.83 492.50 748.33 490.67 746.36 C 488.84 744.39 490.11 739.64 488.26 737.66 C 486.41 735.68 489.31 729.50 487.48 727.52 C 485.65 725.54 474.29 732.52 472.48 730.52 C 470.67 728.52 477.72 718.59 475.91 716.59 C 474.10 714.59 465.08 719.24 463.29 717.24 C 461.50 715.24 470.29 703.90 468.54 701.89 C 466.79 699.88 453.60 708.02 451.83 706.00 C 450.06 703.98 457.52 694.00 455.77 692.00 C 454.02 690.00 441.47 697.33 439.77 695.29 C 438.07 693.25 431.27 695.49 429.54 693.44 C 427.81 691.39 435.21 681.67 433.49 679.62 C 431.77 677.57 440.69 666.77 438.99 664.71 C 437.29 662.65 422.69 671.26 420.99 669.19 C 419.29 667.12 421.49 661.93 419.81 659.85 C 418.13 657.77 423.36 650.25 421.69 648.16 C 420.02 646.07 420.51 642.40 418.86 640.30 C 417.21 638.20 415.21 636.51 413.57 634.40 C 411.93 632.29 400.78 637.59 399.16 635.47 C 397.54 633.35 393.94 632.75 392.33 630.62 C 390.72 628.49 399.13 618.92 397.53 616.78 C 395.93 614.64 383.14 620.78 381.53 618.66 C 379.92 616.54 390.15 605.85 388.58 603.66 C 387.01 601.47 385.32 599.55 383.78 597.37 C 382.24 595.19 362.78 605.63 361.27 603.44 C 359.76 601.25 358.27 598.94 356.76 596.74 C 355.25 594.54 363.48 585.67 361.99 583.46 C 360.50 581.25 363.99 575.74 362.53 573.52 C 361.07 571.30 354.41 572.52 352.96 570.29 C 351.51 568.06 346.84 567.87 345.41 565.63 C 343.98 563.39 342.99 560.82 341.58 558.56 C 340.17 556.30 349.64 547.35 348.24 545.07 C 346.84 542.79 331.69 548.90 330.32 546.61 C 328.95 544.32 340.41 534.45 339.07 532.15 C 337.73 529.85 328.32 532.26 327.00 529.95 C 325.68 527.64 336.42 518.58 335.13 516.25 C 333.84 513.92 327.38 514.56 326.13 512.25 C 324.88 509.94 323.58 507.66 322.34 505.31 C 321.10 502.96 303.65 509.00 302.44 506.64 C 301.23 504.28 311.74 495.89 310.56 493.51 C 309.38 491.13 314.08 485.91 312.93 483.51 C 311.78 481.11 303.48 482.15 302.35 479.74 C 301.22 477.33 293.78 477.74 292.69 475.33 C 291.60 472.92 289.23 470.91 288.17 468.47 C 287.11 466.03 300.45 457.47 299.43 455.02 C 298.41 452.57 282.62 456.08 281.64 453.61 C 280.66 451.14 275.64 450.05 274.64 447.56 C 273.64 445.07 293.85 434.78 292.96 432.28 C 292.07 429.78 291.67 427.28 290.82 424.75 C 289.97 422.22 291.40 419.16 290.59 416.63 C 289.78 414.10 275.19 415.90 274.43 413.35 C 273.67 410.80 285.72 404.67 285.02 402.11 C 284.32 399.55 265.63 401.75 265.02 399.18 C 264.41 396.61 276.35 390.94 275.76 388.35 C 275.17 385.76 265.94 385.06 265.40 382.46 C 264.86 379.86 279.83 374.35 279.40 371.74 C 278.97 369.13 258.65 369.87 258.24 367.25 C 257.83 364.63 266.10 360.66 265.77 358.03 C 265.44 355.40 258.47 353.43 258.21 350.79 C 257.95 348.15 268.81 344.53 268.63 341.88 C 268.45 339.23 258.70 337.12 258.63 334.46 C 258.56 331.80 263.76 328.95 263.74 326.30 C 263.72 323.65 259.20 320.90 259.26 318.25 C 259.32 315.60 274.62 313.67 274.77 311.01 C 274.92 308.35 268.15 305.47 268.39 302.83 C 268.63 300.19 258.76 296.41 259.09 293.77 C 259.42 291.13 272.09 290.32 272.54 287.70 C 272.99 285.08 272.22 282.48 272.75 279.87 C 273.28 277.26 258.88 271.22 259.51 268.64 C 260.14 266.06 280.51 268.74 281.21 266.18 C 281.91 263.62 264.40 255.47 265.21 252.93 C 266.02 250.39 280.05 252.48 280.99 249.98 C 281.93 247.48 287.33 247.15 288.38 244.69 C 289.43 242.23 287.53 238.89 288.68 236.47 C 289.83 234.05 279.47 226.01 280.68 223.64 C 281.89 221.27 299.15 227.94 300.58 225.56 C 302.01 223.18 285.20 209.20 286.78 206.91 C 288.36 204.62 296.78 207.06 298.51 204.91 C 300.24 202.76 305.92 204.04 307.76 201.91 C 309.60 199.78 304.64 191.40 306.60 189.43 C 308.56 187.46 312.22 187.01 314.29 185.16 C 316.36 183.31 312.29 173.58 314.51 171.85 C 316.73 170.12 325.25 176.26 327.51 174.65 C 329.77 173.04 338.51 181.58 340.87 180.10 C 343.23 178.62 338.56 165.54 341.00 164.20 C 343.44 162.86 342.41 154.46 344.85 153.27 C 347.29 152.08 350.43 151.08 352.93 150.04 C 355.43 149.00 364.02 163.66 366.56 162.78 C 369.10 161.90 373.12 167.93 375.72 167.23 C 378.32 166.53 379.89 165.41 382.53 164.90 C 385.17 164.39 385.26 149.57 387.94 149.27 C 390.62 148.97 393.94 162.72 396.59 162.64 C 399.24 162.56 401.46 154.82 404.15 154.99 C 406.84 155.16 409.04 156.42 411.71 156.84 C 414.38 157.26 418.76 149.17 421.39 149.84 C 424.02 150.51 423.66 160.62 426.22 161.53 C 428.78 162.44 431.45 161.78 433.93 162.92 C 436.41 164.06 444.75 153.98 447.13 155.32 C 449.51 156.66 445.51 168.51 447.78 170.04 C 450.05 171.57 458.78 164.32 460.89 166.04 C 463.00 167.76 460.77 174.91 462.81 176.73 C 464.85 178.55 473.28 173.90 475.21 175.85 C 477.14 177.80 468.46 189.69 470.28 191.74 C 472.10 193.79 476.07 193.60 477.79 195.74 C 479.51 197.88 477.14 202.74 478.79 204.95 C 480.44 207.16 494.79 200.20 496.31 202.46 C 497.83 204.72 481.02 218.75 482.47 221.06 C 483.92 223.37 486.90 224.16 488.28 226.52 C 489.66 228.88 504.13 223.57 505.44 225.96 C 506.75 228.35 496.94 236.43 498.18 238.85 C 499.42 241.27 502.02 242.69 503.18 245.15 C 504.34 247.61 506.18 249.49 507.28 251.97 C 508.38 254.45 509.68 256.61 510.75 259.10 C 511.82 261.59 510.19 264.97 511.21 267.49 C 512.23 270.01 509.69 273.62 510.67 276.16 C 511.65 278.70 528.11 275.43 529.05 277.98 C 530.31 281.75 517.37 284.50 518.83 289.51 C 519.45 291.63 518.51 294.61 519.36 297.58 C 520.02 299.88 525.92 300.94 526.70 303.74 C 527.36 306.12 520.49 310.74 521.24 313.47 C 521.90 315.89 529.24 316.61 529.97 319.30 C 530.63 321.75 540.97 321.75 541.64 324.42 C 542.30 326.89 533.85 331.86 534.55 334.52 C 535.20 337.00 546.72 336.76 547.40 339.41 C 548.08 342.06 530.83 349.04 531.50 351.68 C 532.17 354.32 532.39 356.82 533.05 359.45 C 533.71 362.08 553.60 359.74 554.24 362.37 C 554.88 365.00 556.42 367.28 557.06 369.90 C 557.70 372.52 552.06 376.55 552.66 379.17 C 553.26 381.79 550.40 385.00 551.00 387.57 C 551.60 390.14 540.31 395.48 540.92 398.10 C 541.53 400.72 546.35 402.22 546.92 404.83 C 547.49 407.44 564.68 406.17 565.27 408.83 C 565.86 411.49 568.45 413.55 569.04 416.16 C 569.63 418.77 559.89 423.62 560.47 426.24 C 561.05 428.86 572.99 428.90 573.56 431.52 C 574.13 434.14 567.56 438.24 568.16 440.86 C 568.76 443.48 562.66 447.43 563.22 450.05 C 563.78 452.67 574.92 452.99 575.47 455.61 C 576.02 458.23 565.34 463.12 565.88 465.73 C 566.42 468.34 576.16 469.03 576.69 471.65 C 577.22 474.27 581.92 476.01 582.45 478.65 C 582.98 481.29 562.57 487.99 563.09 490.65 C 563.61 493.31 570.47 494.57 570.98 497.19 C 571.49 499.81 583.68 500.13 584.18 502.76 C 584.68 505.39 566.48 511.41 567.00 514.00 C 567.52 516.59 577.44 517.41 577.93 520.00 C 578.42 522.59 592.36 522.73 592.83 525.36 C 593.30 527.99 569.77 534.91 570.24 537.54 C 570.71 540.17 591.12 539.18 591.59 541.81 C 592.06 544.44 584.59 548.42 585.07 551.04 C 585.55 553.66 575.71 558.04 576.16 560.63 C 576.61 563.22 596.69 562.52 597.16 565.15 C 597.63 567.78 582.52 572.95 582.95 575.58 C 583.38 578.21 598.00 578.49 598.43 581.12 C 598.86 583.75 594.43 587.12 594.88 589.76 C 595.33 592.40 582.74 597.02 583.15 599.65 C 583.56 602.28 599.22 602.52 599.62 605.15 C 600.02 607.78 590.13 611.94 590.53 614.57 C 590.93 617.20 589.35 620.08 589.74 622.72 C 590.13 625.36 589.57 628.07 589.95 630.72 C 590.33 633.37 591.88 635.78 592.25 638.41 C 592.62 641.04 607.05 641.71 607.41 644.34 C 607.77 646.97 588.25 652.34 588.60 654.92 C 588.95 657.50 594.30 659.48 594.65 662.12 C 595.00 664.76 607.54 665.79 607.88 668.43 C 608.22 671.07 603.73 674.30 604.06 676.94 C 604.39 679.58 599.88 682.79 600.20 685.43 C 600.52 688.07 610.71 689.50 611.03 692.14 C 611.35 694.78 609.03 697.72 609.39 700.36 C 609.75 703.00 615.71 705.00 616.01 707.64 C 616.31 710.28 598.01 714.95 598.28 717.59 C 598.55 720.23 618.14 720.80 618.42 723.44 C 618.70 726.08 619.20 728.73 619.42 731.37 C 619.64 734.01 600.73 738.57 600.99 741.22 C 601.25 743.87 613.79 745.34 614.00 748.00 C 614.21 750.66 622.51 752.55 622.76 755.20 C 623.01 757.85 616.02 761.15 616.25 763.80 C 616.48 766.45 619.39 768.87 619.61 771.52 C 619.83 774.17 603.06 778.20 603.28 780.85 C 603.50 783.50 617.28 785.05 617.47 787.70" fill="#fffaf0" fill-rule="nonzero" node-id="37" stroke="none" target-height="666.9" target-width="365.18002" target-x="257.83" target-y="148.97"></path><path d="M 546.26 815.87 C 543.26 813.21 555.39 801.62 551.59 798.08 C 549.96 796.56 552.36 790.20 550.12 788.08 C 548.37 786.41 541.38 789.95 539.28 787.93 C 537.49 786.21 533.90 786.09 531.87 784.12 C 530.06 782.35 525.66 783.02 523.67 781.06 C 521.85 779.27 530.05 767.27 528.09 765.32 C 526.13 763.37 514.75 771.24 512.82 769.32 C 510.89 767.40 508.44 766.24 506.53 764.32 C 504.62 762.40 496.39 766.79 494.53 764.83 C 492.67 762.87 502.53 749.83 500.67 747.83 C 498.81 745.83 492.50 748.33 490.67 746.36 C 488.84 744.39 490.11 739.64 488.26 737.66 C 486.41 735.68 489.31 729.50 487.48 727.52 C 485.65 725.54 474.29 732.52 472.48 730.52 C 470.67 728.52 477.72 718.59 475.91 716.59 C 474.10 714.59 465.08 719.24 463.29 717.24 C 461.50 715.24 470.29 703.90 468.54 701.89 C 466.79 699.88 453.60 708.02 451.83 706.00 C 450.06 703.98 457.52 694.00 455.77 692.00 C 454.02 690.00 441.47 697.33 439.77 695.29 C 438.07 693.25 431.27 695.49 429.54 693.44 C 427.81 691.39 435.21 681.67 433.49 679.62 C 431.77 677.57 440.69 666.77 438.99 664.71 C 437.29 662.65 422.69 671.26 420.99 669.19 C 419.29 667.12 421.49 661.93 419.81 659.85 C 418.13 657.77 423.36 650.25 421.69 648.16 C 420.02 646.07 420.51 642.40 418.86 640.30 C 417.21 638.20 415.21 636.51 413.57 634.40 C 411.93 632.29 400.78 637.59 399.16 635.47 C 397.54 633.35 393.94 632.75 392.33 630.62 C 390.72 628.49 399.13 618.92 397.53 616.78 C 395.93 614.64 383.14 620.78 381.53 618.66 C 379.92 616.54 390.15 605.85 388.58 603.66 C 387.01 601.47 385.32 599.55 383.78 597.37 C 382.24 595.19 362.78 605.63 361.27 603.44 C 359.76 601.25 358.27 598.94 356.76 596.74 C 355.25 594.54 363.48 585.67 361.99 583.46 C 360.50 581.25 363.99 575.74 362.53 573.52 C 361.07 571.30 354.41 572.52 352.96 570.29 C 351.51 568.06 346.84 567.87 345.41 565.63 C 343.98 563.39 342.99 560.82 341.58 558.56 C 340.17 556.30 349.64 547.35 348.24 545.07 C 346.84 542.79 331.69 548.90 330.32 546.61 C 328.95 544.32 340.41 534.45 339.07 532.15 C 337.73 529.85 328.32 532.26 327.00 529.95 C 325.68 527.64 336.42 518.58 335.13 516.25 C 333.84 513.92 327.38 514.56 326.13 512.25 C 324.88 509.94 323.58 507.66 322.34 505.31 C 321.10 502.96 303.65 509.00 302.44 506.64 C 301.23 504.28 311.74 495.89 310.56 493.51 C 309.38 491.13 314.08 485.91 312.93 483.51 C 311.78 481.11 303.48 482.15 302.35 479.74 C 301.22 477.33 293.78 477.74 292.69 475.33 C 291.60 472.92 289.23 470.91 288.17 468.47 C 287.11 466.03 300.45 457.47 299.43 455.02 C 298.41 452.57 282.62 456.08 281.64 453.61 C 280.66 451.14 275.64 450.05 274.64 447.56 C 273.64 445.07 293.85 434.78 292.96 432.28 C 292.07 429.78 291.67 427.28 290.82 424.75 C 289.97 422.22 291.40 419.16 290.59 416.63 C 289.78 414.10 275.19 415.90 274.43 413.35 C 273.67 410.80 285.72 404.67 285.02 402.11 C 284.32 399.55 265.63 401.75 265.02 399.18 C 264.41 396.61 276.35 390.94 275.76 388.35 C 275.17 385.76 265.94 385.06 265.40 382.46 C 264.86 379.86 279.83 374.35 279.40 371.74 C 278.97 369.13 258.65 369.87 258.24 367.25 C 257.83 364.63 266.10 360.66 265.77 358.03 C 265.44 355.40 258.47 353.43 258.21 350.79 C 257.95 348.15 268.81 344.53 268.63 341.88 C 268.45 339.23 258.70 337.12 258.63 334.46 C 258.56 331.80 263.76 328.95 263.74 326.30 C 263.72 323.65 259.20 320.90 259.26 318.25 C 259.32 315.60 274.62 313.67 274.77 311.01 C 274.92 308.35 268.15 305.47 268.39 302.83 C 268.63 300.19 258.76 296.41 259.09 293.77 C 259.42 291.13 272.09 290.32 272.54 287.70 C 272.99 285.08 272.22 282.48 272.75 279.87 C 273.28 277.26 258.88 271.22 259.51 268.64 C 260.14 266.06 280.51 268.74 281.21 266.18 C 281.91 263.62 264.40 255.47 265.21 252.93 C 266.02 250.39 280.05 252.48 280.99 249.98 C 281.93 247.48 287.33 247.15 288.38 244.69 C 289.43 242.23 287.53 238.89 288.68 236.47 C 289.83 234.05 279.47 226.01 280.68 223.64 C 281.89 221.27 299.15 227.94 300.58 225.56 C 302.01 223.18 285.20 209.20 286.78 206.91 C 288.36 204.62 296.78 207.06 298.51 204.91 C 300.24 202.76 305.92 204.04 307.76 201.91 C 309.60 199.78 304.64 191.40 306.60 189.43 C 308.56 187.46 312.22 187.01 314.29 185.16 C 316.36 183.31 312.29 173.58 314.51 171.85 C 316.73 170.12 325.25 176.26 327.51 174.65 C 329.77 173.04 338.51 181.58 340.87 180.10 C 343.23 178.62 338.56 165.54 341.00 164.20 C 343.44 162.86 342.41 154.46 344.85 153.27 C 347.29 152.08 350.43 151.08 352.93 150.04 C 355.43 149.00 364.02 163.66 366.56 162.78 C 369.10 161.90 373.12 167.93 375.72 167.23 C 378.32 166.53 379.89 165.41 382.53 164.90 C 385.17 164.39 385.26 149.57 387.94 149.27 C 390.62 148.97 393.94 162.72 396.59 162.64 C 399.24 162.56 401.46 154.82 404.15 154.99 C 406.84 155.16 409.04 156.42 411.71 156.84 C 414.38 157.26 418.76 149.17 421.39 149.84 C 424.02 150.51 423.66 160.62 426.22 161.53 C 428.78 162.44 431.45 161.78 433.93 162.92 C 436.41 164.06 444.75 153.98 447.13 155.32 C 449.51 156.66 445.51 168.51 447.78 170.04 C 450.05 171.57 458.78 164.32 460.89 166.04 C 463.00 167.76 460.77 174.91 462.81 176.73 C 464.85 178.55 473.28 173.90 475.21 175.85 C 477.14 177.80 468.46 189.69 470.28 191.74 C 472.10 193.79 476.07 193.60 477.79 195.74 C 479.51 197.88 477.14 202.74 478.79 204.95 C 480.44 207.16 494.79 200.20 496.31 202.46 C 497.83 204.72 481.02 218.75 482.47 221.06 C 483.92 223.37 486.90 224.16 488.28 226.52 C 489.66 228.88 504.13 223.57 505.44 225.96 C 506.75 228.35 496.94 236.43 498.18 238.85 C 499.42 241.27 502.02 242.69 503.18 245.15 C 504.34 247.61 506.18 249.49 507.28 251.97 C 508.38 254.45 509.68 256.61 510.75 259.10 C 511.82 261.59 510.19 264.97 511.21 267.49 C 512.23 270.01 509.69 273.62 510.67 276.16 C 511.65 278.70 528.11 275.43 529.05 277.98 C 530.31 281.75 517.37 284.50 518.83 289.51 C 519.45 291.63 518.51 294.61 519.36 297.58 C 520.02 299.88 525.92 300.94 526.70 303.74 C 527.36 306.12 520.49 310.74 521.24 313.47 C 521.90 315.89 529.24 316.61 529.97 319.30 C 530.63 321.75 540.97 321.75 541.64 324.42 C 542.30 326.89 533.85 331.86 534.55 334.52 C 535.20 337.00 546.72 336.76 547.40 339.41 C 548.08 342.06 530.83 349.04 531.50 351.68 C 532.17 354.32 532.39 356.82 533.05 359.45 C 533.71 362.08 553.60 359.74 554.24 362.37 C 554.88 365.00 556.42 367.28 557.06 369.90 C 557.70 372.52 552.06 376.55 552.66 379.17 C 553.26 381.79 550.40 385.00 551.00 387.57 C 551.60 390.14 540.31 395.48 540.92 398.10 C 541.53 400.72 546.35 402.22 546.92 404.83 C 547.49 407.44 564.68 406.17 565.27 408.83 C 565.86 411.49 568.45 413.55 569.04 416.16 C 569.63 418.77 559.89 423.62 560.47 426.24 C 561.05 428.86 572.99 428.90 573.56 431.52 C 574.13 434.14 567.56 438.24 568.16 440.86 C 568.76 443.48 562.66 447.43 563.22 450.05 C 563.78 452.67 574.92 452.99 575.47 455.61 C 576.02 458.23 565.34 463.12 565.88 465.73 C 566.42 468.34 576.16 469.03 576.69 471.65 C 577.22 474.27 581.92 476.01 582.45 478.65 C 582.98 481.29 562.57 487.99 563.09 490.65 C 563.61 493.31 570.47 494.57 570.98 497.19 C 571.49 499.81 583.68 500.13 584.18 502.76 C 584.68 505.39 566.48 511.41 567.00 514.00 C 567.52 516.59 577.44 517.41 577.93 520.00 C 578.42 522.59 592.36 522.73 592.83 525.36 C 593.30 527.99 569.77 534.91 570.24 537.54 C 570.71 540.17 591.12 539.18 591.59 541.81 C 592.06 544.44 584.59 548.42 585.07 551.04 C 585.55 553.66 575.71 558.04 576.16 560.63 C 576.61 563.22 596.69 562.52 597.16 565.15 C 597.63 567.78 582.52 572.95 582.95 575.58 C 583.38 578.21 598.00 578.49 598.43 581.12 C 598.86 583.75 594.43 587.12 594.88 589.76 C 595.33 592.40 582.74 597.02 583.15 599.65 C 583.56 602.28 599.22 602.52 599.62 605.15 C 600.02 607.78 590.13 611.94 590.53 614.57 C 590.93 617.20 589.35 620.08 589.74 622.72 C 590.13 625.36 589.57 628.07 589.95 630.72 C 590.33 633.37 591.88 635.78 592.25 638.41 C 592.62 641.04 607.05 641.71 607.41 644.34 C 607.77 646.97 588.25 652.34 588.60 654.92 C 588.95 657.50 594.30 659.48 594.65 662.12 C 595.00 664.76 607.54 665.79 607.88 668.43 C 608.22 671.07 603.73 674.30 604.06 676.94 C 604.39 679.58 599.88 682.79 600.20 685.43 C 600.52 688.07 610.71 689.50 611.03 692.14 C 611.35 694.78 609.03 697.72 609.39 700.36 C 609.75 703.00 615.71 705.00 616.01 707.64 C 616.31 710.28 598.01 714.95 598.28 717.59 C 598.55 720.23 618.14 720.80 618.42 723.44 C 618.70 726.08 619.20 728.73 619.42 731.37 C 619.64 734.01 600.73 738.57 600.99 741.22 C 601.25 743.87 613.79 745.34 614.00 748.00 C 614.21 750.66 622.51 752.55 622.76 755.20 C 623.01 757.85 616.02 761.15 616.25 763.80 C 616.48 766.45 619.39 768.87 619.61 771.52 C 619.83 774.17 603.06 778.20 603.28 780.85 C 603.50 783.50 617.28 785.05 617.47 787.70" fill="none" node-id="39" stroke="#333333" stroke-linecap="round" stroke-width="12" target-height="666.9" target-width="365.18002" target-x="257.83" target-y="148.97"></path><path d="M 736.62 780.39 C 738.85 777.10 745.55 782.94 748.39 778.60 C 749.60 776.74 754.11 776.39 755.77 773.81 C 757.07 771.81 757.21 768.63 758.77 766.18 C 760.09 764.08 758.14 759.66 759.63 757.26 C 760.96 755.12 755.13 748.37 756.63 746.00 C 757.96 743.83 760.44 742.24 761.87 739.88 C 763.20 737.69 758.73 731.88 760.14 729.57 C 761.55 727.26 776.21 733.06 777.60 730.72 C 778.99 728.38 776.83 724.14 778.20 721.80 C 779.57 719.46 788.59 721.73 789.94 719.39 C 791.29 717.05 791.59 714.20 792.94 711.85 C 794.29 709.50 782.85 700.03 784.17 697.68 C 785.49 695.33 791.35 695.68 792.67 693.33 C 793.99 690.98 793.42 687.71 794.67 685.33 C 795.92 682.95 794.12 679.02 795.40 676.66 C 796.68 674.30 793.58 669.66 794.85 667.35 C 796.12 665.04 812.98 671.05 814.23 668.68 C 815.48 666.31 801.23 655.87 802.53 653.49 C 803.83 651.11 816.00 654.57 817.23 652.20 C 818.46 649.83 820.67 647.99 821.89 645.61 C 823.11 643.23 822.15 639.78 823.35 637.39 C 824.55 635.00 820.46 630.03 821.65 627.64 C 822.84 625.25 830.02 625.87 831.20 623.47 C 832.38 621.07 836.87 620.30 838.03 617.90 C 839.19 615.50 833.36 609.77 834.50 607.36 C 835.64 604.95 832.98 600.81 834.11 598.36 C 835.24 595.91 834.20 592.61 835.31 590.19 C 836.42 587.77 842.79 587.80 843.88 585.37 C 844.97 582.94 845.88 580.47 846.96 578.03 C 848.04 575.59 849.90 573.54 850.96 571.10 C 852.02 568.66 858.83 568.69 859.87 566.25 C 860.91 563.81 854.21 558.09 855.24 555.64 C 856.27 553.19 866.00 554.41 867.05 552.00 C 868.10 549.59 859.05 543.00 859.99 540.54 C 860.93 538.08 858.47 534.28 859.44 531.81 C 860.41 529.34 874.35 531.88 875.30 529.40 C 876.25 526.92 873.56 523.03 874.48 520.54 C 875.40 518.05 884.59 518.54 885.48 516.03 C 886.37 513.52 873.56 506.11 874.48 503.61 C 875.40 501.11 886.75 502.21 887.60 499.70 C 888.45 497.19 884.55 493.02 885.38 490.50 C 886.21 487.98 895.03 487.97 895.83 485.44 C 896.63 482.91 883.93 476.11 884.71 473.57 C 885.49 471.03 896.35 471.50 897.10 468.96 C 897.85 466.42 887.60 460.67 888.32 458.11 C 889.04 455.55 897.82 455.22 898.51 452.66 C 899.20 450.10 898.42 447.10 899.08 444.53 C 899.74 441.96 894.18 437.84 894.80 435.26 C 895.42 432.68 899.42 430.92 900.01 428.33 C 900.60 425.74 910.23 425.08 910.78 422.49 C 911.33 419.90 903.07 415.41 903.58 412.81 C 904.09 410.21 910.12 408.59 910.58 405.99 C 911.04 403.39 912.19 400.77 912.58 398.15 C 912.97 395.53 911.67 392.54 912.06 389.92 C 912.45 387.30 898.06 382.68 898.35 380.06 C 898.64 377.44 906.27 375.76 906.55 373.14 C 906.83 370.52 913.62 368.47 913.85 365.84 C 914.08 363.21 909.42 360.14 909.59 357.51 C 909.76 354.88 919.88 352.60 920.00 350.00 C 920.12 347.40 922.29 344.51 922.34 341.87 C 922.39 339.23 916.87 336.32 916.85 333.67 C 916.83 331.02 922.20 328.03 922.11 325.39 C 922.02 322.75 920.81 319.83 920.64 317.20 C 920.47 314.57 905.24 313.00 905.00 310.35 C 904.76 307.70 917.47 303.58 917.13 300.96 C 916.79 298.34 910.62 296.37 910.19 293.76 C 909.76 291.15 911.64 287.98 911.12 285.39 C 910.60 282.80 910.79 279.84 910.12 277.27 C 909.45 274.70 906.19 272.66 905.47 270.12 C 904.75 267.58 899.16 266.51 898.33 264.00 C 897.50 261.49 900.92 257.46 899.98 255.00 C 899.04 252.54 903.53 247.57 902.47 245.14 C 901.41 242.71 882.53 248.68 881.35 246.31 C 880.17 243.94 900.43 230.24 899.13 227.92 C 897.83 225.60 886.62 228.77 885.21 226.52 C 883.80 224.27 876.78 225.91 875.21 223.74 C 873.64 221.57 867.89 223.13 866.21 221.04 C 864.53 218.95 873.44 208.47 871.68 206.46 C 869.92 204.45 873.12 197.09 871.17 195.16 C 869.22 193.23 866.70 191.05 864.63 189.25 C 862.56 187.45 850.31 198.11 848.12 196.45 C 845.93 194.79 842.12 196.45 839.83 194.94 C 837.54 193.43 842.44 180.78 840.06 179.41 C 837.68 178.04 831.22 184.60 828.76 183.41 C 826.30 182.22 826.58 175.48 824.05 174.41 C 821.52 173.34 819.05 172.21 816.45 171.29 C 813.85 170.37 810.78 171.18 808.14 170.41 C 805.66 169.69 803.91 165.75 801.28 165.13 C 798.65 164.51 796.97 158.44 794.28 157.98 C 791.59 157.52 788.60 156.98 785.93 156.66 C 783.26 156.34 780.00 159.22 777.33 159.11 C 774.66 159.00 771.86 164.34 769.19 164.43 C 766.52 164.52 763.31 159.14 760.66 159.43 C 758.01 159.72 754.15 156.11 751.53 156.64 C 748.91 157.17 749.79 172.21 747.22 172.97 C 744.65 173.73 738.22 163.42 735.78 164.42 C 733.34 165.42 728.56 163.14 726.17 164.36 C 723.78 165.58 728.85 180.21 726.57 181.65 C 724.29 183.09 724.94 187.47 722.79 189.11 C 720.64 190.75 721.20 194.11 719.19 195.91 C 717.18 197.71 701.53 185.08 699.66 187.04 C 697.79 189.00 698.94 194.04 697.21 196.09 C 695.48 198.14 704.28 207.99 702.68 210.19 C 701.08 212.39 687.39 206.01 685.93 208.30 C 684.47 210.59 683.86 213.51 682.52 215.87 C 681.18 218.23 683.52 222.52 682.31 224.94 C 681.10 227.36 674.49 227.19 673.37 229.65 C 672.25 232.11 668.86 233.76 667.83 236.27 C 666.80 238.78 666.59 241.75 665.65 244.27 C 664.71 246.79 677.65 254.07 676.83 256.64 C 676.01 259.21 660.12 256.92 659.34 259.51 C 658.56 262.10 662.34 266.03 661.62 268.63 C 660.90 271.23 665.52 275.12 664.88 277.74 C 664.24 280.36 659.38 281.89 658.80 284.53 C 658.22 287.17 659.17 290.04 658.64 292.69 C 658.11 295.34 651.82 296.85 651.34 299.50 C 650.86 302.15 658.99 306.21 658.57 308.87 C 658.15 311.53 651.20 313.24 650.81 315.87 C 650.31 319.87 653.91 319.13 653.48 324.42 C 653.29 326.63 663.66 330.07 663.48 333.18 C 663.32 335.59 649.98 337.39 649.80 340.32 C 649.65 342.80 654.68 345.78 654.53 348.64 C 654.39 351.16 658.70 354.04 658.53 356.85 C 658.41 359.40 647.53 361.63 647.42 364.41 C 647.32 366.99 660.80 370.15 660.71 372.92 C 660.62 375.50 646.71 377.76 646.63 380.51 C 646.55 383.26 650.23 385.90 650.17 388.65 C 650.11 391.25 662.69 394.16 662.64 396.90 C 662.59 399.64 643.40 401.90 643.37 404.64 C 643.34 407.38 651.37 410.03 651.37 412.76 C 651.37 415.49 642.58 418.04 642.57 420.76 C 642.56 423.48 658.08 426.08 658.09 428.76 C 658.10 431.44 664.71 434.01 664.72 436.76 C 664.73 439.51 651.36 442.15 651.39 444.86 C 651.42 447.57 655.76 450.12 655.79 452.86 C 655.82 455.60 662.16 458.04 662.21 460.75 C 662.26 463.46 660.09 466.07 660.15 468.75 C 660.21 471.43 659.15 474.07 659.15 476.75 C 659.15 479.43 644.71 482.48 644.79 485.18 C 644.87 487.88 645.79 490.50 645.87 493.18 C 645.95 495.86 663.93 497.86 664.03 500.56 C 664.13 503.26 654.21 506.25 654.32 508.94 C 654.43 511.63 659.62 514.03 659.74 516.73 C 659.86 519.43 658.56 522.10 658.68 524.79 C 658.80 527.48 659.38 530.08 659.52 532.79 C 659.66 535.50 649.73 538.64 649.88 541.33 C 650.03 544.02 658.20 546.21 658.35 548.90 C 658.50 551.59 668.66 553.59 668.82 556.28 C 668.98 558.97 659.01 562.22 659.19 564.91 C 659.37 567.60 669.19 569.56 669.38 572.24 C 669.57 574.92 662.38 578.04 662.57 580.73 C 662.76 583.42 659.79 586.26 659.99 588.95 C 660.19 591.64 653.66 594.78 653.86 597.46 C 654.06 600.14 651.13 603.05 651.35 605.73 C 651.57 608.41 655.10 610.79 655.35 613.47 C 655.60 616.15 661.28 618.33 661.51 621.01 C 661.74 623.69 670.08 625.59 670.33 628.27 C 670.58 630.95 653.71 635.15 653.96 637.83 C 654.21 640.51 661.96 642.44 662.21 645.12 C 662.46 647.80 672.55 649.46 672.81 652.12 C 673.07 654.78 673.65 657.37 673.92 660.05 C 674.19 662.73 661.76 666.66 662.04 669.33 C 662.32 672.00 661.31 674.79 661.59 677.46 C 661.87 680.13 677.11 681.12 677.40 683.79 C 677.69 686.46 680.02 688.79 680.32 691.51 C 680.62 694.23 665.23 698.61 665.54 701.28 C 665.85 703.95 668.38 706.28 668.70 709.00 C 669.02 711.72 681.37 712.83 681.70 715.50 C 682.03 718.17 664.19 723.04 664.52 725.71 C 664.85 728.38 679.63 729.17 679.98 731.84 C 680.33 734.51 686.23 736.39 686.58 739.05 C 686.93 741.71 678.22 745.53 678.58 748.19 C 678.94 750.85 679.42 753.46 679.78 756.12 C 680.14 758.78 688.85 760.24 689.22 762.91 C 689.59 765.58 672.64 770.70 673.00 773.36" fill="#fffaf0" fill-rule="nonzero" node-id="41" stroke="none" target-height="626.83" target-width="279.83002" target-x="642.56" target-y="156.11"></path><path d="M 736.62 780.39 C 738.85 777.10 745.55 782.94 748.39 778.60 C 749.60 776.74 754.11 776.39 755.77 773.81 C 757.07 771.81 757.21 768.63 758.77 766.18 C 760.09 764.08 758.14 759.66 759.63 757.26 C 760.96 755.12 755.13 748.37 756.63 746.00 C 757.96 743.83 760.44 742.24 761.87 739.88 C 763.20 737.69 758.73 731.88 760.14 729.57 C 761.55 727.26 776.21 733.06 777.60 730.72 C 778.99 728.38 776.83 724.14 778.20 721.80 C 779.57 719.46 788.59 721.73 789.94 719.39 C 791.29 717.05 791.59 714.20 792.94 711.85 C 794.29 709.50 782.85 700.03 784.17 697.68 C 785.49 695.33 791.35 695.68 792.67 693.33 C 793.99 690.98 793.42 687.71 794.67 685.33 C 795.92 682.95 794.12 679.02 795.40 676.66 C 796.68 674.30 793.58 669.66 794.85 667.35 C 796.12 665.04 812.98 671.05 814.23 668.68 C 815.48 666.31 801.23 655.87 802.53 653.49 C 803.83 651.11 816.00 654.57 817.23 652.20 C 818.46 649.83 820.67 647.99 821.89 645.61 C 823.11 643.23 822.15 639.78 823.35 637.39 C 824.55 635.00 820.46 630.03 821.65 627.64 C 822.84 625.25 830.02 625.87 831.20 623.47 C 832.38 621.07 836.87 620.30 838.03 617.90 C 839.19 615.50 833.36 609.77 834.50 607.36 C 835.64 604.95 832.98 600.81 834.11 598.36 C 835.24 595.91 834.20 592.61 835.31 590.19 C 836.42 587.77 842.79 587.80 843.88 585.37 C 844.97 582.94 845.88 580.47 846.96 578.03 C 848.04 575.59 849.90 573.54 850.96 571.10 C 852.02 568.66 858.83 568.69 859.87 566.25 C 860.91 563.81 854.21 558.09 855.24 555.64 C 856.27 553.19 866.00 554.41 867.05 552.00 C 868.10 549.59 859.05 543.00 859.99 540.54 C 860.93 538.08 858.47 534.28 859.44 531.81 C 860.41 529.34 874.35 531.88 875.30 529.40 C 876.25 526.92 873.56 523.03 874.48 520.54 C 875.40 518.05 884.59 518.54 885.48 516.03 C 886.37 513.52 873.56 506.11 874.48 503.61 C 875.40 501.11 886.75 502.21 887.60 499.70 C 888.45 497.19 884.55 493.02 885.38 490.50 C 886.21 487.98 895.03 487.97 895.83 485.44 C 896.63 482.91 883.93 476.11 884.71 473.57 C 885.49 471.03 896.35 471.50 897.10 468.96 C 897.85 466.42 887.60 460.67 888.32 458.11 C 889.04 455.55 897.82 455.22 898.51 452.66 C 899.20 450.10 898.42 447.10 899.08 444.53 C 899.74 441.96 894.18 437.84 894.80 435.26 C 895.42 432.68 899.42 430.92 900.01 428.33 C 900.60 425.74 910.23 425.08 910.78 422.49 C 911.33 419.90 903.07 415.41 903.58 412.81 C 904.09 410.21 910.12 408.59 910.58 405.99 C 911.04 403.39 912.19 400.77 912.58 398.15 C 912.97 395.53 911.67 392.54 912.06 389.92 C 912.45 387.30 898.06 382.68 898.35 380.06 C 898.64 377.44 906.27 375.76 906.55 373.14 C 906.83 370.52 913.62 368.47 913.85 365.84 C 914.08 363.21 909.42 360.14 909.59 357.51 C 909.76 354.88 919.88 352.60 920.00 350.00 C 920.12 347.40 922.29 344.51 922.34 341.87 C 922.39 339.23 916.87 336.32 916.85 333.67 C 916.83 331.02 922.20 328.03 922.11 325.39 C 922.02 322.75 920.81 319.83 920.64 317.20 C 920.47 314.57 905.24 313.00 905.00 310.35 C 904.76 307.70 917.47 303.58 917.13 300.96 C 916.79 298.34 910.62 296.37 910.19 293.76 C 909.76 291.15 911.64 287.98 911.12 285.39 C 910.60 282.80 910.79 279.84 910.12 277.27 C 909.45 274.70 906.19 272.66 905.47 270.12 C 904.75 267.58 899.16 266.51 898.33 264.00 C 897.50 261.49 900.92 257.46 899.98 255.00 C 899.04 252.54 903.53 247.57 902.47 245.14 C 901.41 242.71 882.53 248.68 881.35 246.31 C 880.17 243.94 900.43 230.24 899.13 227.92 C 897.83 225.60 886.62 228.77 885.21 226.52 C 883.80 224.27 876.78 225.91 875.21 223.74 C 873.64 221.57 867.89 223.13 866.21 221.04 C 864.53 218.95 873.44 208.47 871.68 206.46 C 869.92 204.45 873.12 197.09 871.17 195.16 C 869.22 193.23 866.70 191.05 864.63 189.25 C 862.56 187.45 850.31 198.11 848.12 196.45 C 845.93 194.79 842.12 196.45 839.83 194.94 C 837.54 193.43 842.44 180.78 840.06 179.41 C 837.68 178.04 831.22 184.60 828.76 183.41 C 826.30 182.22 826.58 175.48 824.05 174.41 C 821.52 173.34 819.05 172.21 816.45 171.29 C 813.85 170.37 810.78 171.18 808.14 170.41 C 805.66 169.69 803.91 165.75 801.28 165.13 C 798.65 164.51 796.97 158.44 794.28 157.98 C 791.59 157.52 788.60 156.98 785.93 156.66 C 783.26 156.34 780.00 159.22 777.33 159.11 C 774.66 159.00 771.86 164.34 769.19 164.43 C 766.52 164.52 763.31 159.14 760.66 159.43 C 758.01 159.72 754.15 156.11 751.53 156.64 C 748.91 157.17 749.79 172.21 747.22 172.97 C 744.65 173.73 738.22 163.42 735.78 164.42 C 733.34 165.42 728.56 163.14 726.17 164.36 C 723.78 165.58 728.85 180.21 726.57 181.65 C 724.29 183.09 724.94 187.47 722.79 189.11 C 720.64 190.75 721.20 194.11 719.19 195.91 C 717.18 197.71 701.53 185.08 699.66 187.04 C 697.79 189.00 698.94 194.04 697.21 196.09 C 695.48 198.14 704.28 207.99 702.68 210.19 C 701.08 212.39 687.39 206.01 685.93 208.30 C 684.47 210.59 683.86 213.51 682.52 215.87 C 681.18 218.23 683.52 222.52 682.31 224.94 C 681.10 227.36 674.49 227.19 673.37 229.65 C 672.25 232.11 668.86 233.76 667.83 236.27 C 666.80 238.78 666.59 241.75 665.65 244.27 C 664.71 246.79 677.65 254.07 676.83 256.64 C 676.01 259.21 660.12 256.92 659.34 259.51 C 658.56 262.10 662.34 266.03 661.62 268.63 C 660.90 271.23 665.52 275.12 664.88 277.74 C 664.24 280.36 659.38 281.89 658.80 284.53 C 658.22 287.17 659.17 290.04 658.64 292.69 C 658.11 295.34 651.82 296.85 651.34 299.50 C 650.86 302.15 658.99 306.21 658.57 308.87 C 658.15 311.53 651.20 313.24 650.81 315.87 C 650.31 319.87 653.91 319.13 653.48 324.42 C 653.29 326.63 663.66 330.07 663.48 333.18 C 663.32 335.59 649.98 337.39 649.80 340.32 C 649.65 342.80 654.68 345.78 654.53 348.64 C 654.39 351.16 658.70 354.04 658.53 356.85 C 658.41 359.40 647.53 361.63 647.42 364.41 C 647.32 366.99 660.80 370.15 660.71 372.92 C 660.62 375.50 646.71 377.76 646.63 380.51 C 646.55 383.26 650.23 385.90 650.17 388.65 C 650.11 391.25 662.69 394.16 662.64 396.90 C 662.59 399.64 643.40 401.90 643.37 404.64 C 643.34 407.38 651.37 410.03 651.37 412.76 C 651.37 415.49 642.58 418.04 642.57 420.76 C 642.56 423.48 658.08 426.08 658.09 428.76 C 658.10 431.44 664.71 434.01 664.72 436.76 C 664.73 439.51 651.36 442.15 651.39 444.86 C 651.42 447.57 655.76 450.12 655.79 452.86 C 655.82 455.60 662.16 458.04 662.21 460.75 C 662.26 463.46 660.09 466.07 660.15 468.75 C 660.21 471.43 659.15 474.07 659.15 476.75 C 659.15 479.43 644.71 482.48 644.79 485.18 C 644.87 487.88 645.79 490.50 645.87 493.18 C 645.95 495.86 663.93 497.86 664.03 500.56 C 664.13 503.26 654.21 506.25 654.32 508.94 C 654.43 511.63 659.62 514.03 659.74 516.73 C 659.86 519.43 658.56 522.10 658.68 524.79 C 658.80 527.48 659.38 530.08 659.52 532.79 C 659.66 535.50 649.73 538.64 649.88 541.33 C 650.03 544.02 658.20 546.21 658.35 548.90 C 658.50 551.59 668.66 553.59 668.82 556.28 C 668.98 558.97 659.01 562.22 659.19 564.91 C 659.37 567.60 669.19 569.56 669.38 572.24 C 669.57 574.92 662.38 578.04 662.57 580.73 C 662.76 583.42 659.79 586.26 659.99 588.95 C 660.19 591.64 653.66 594.78 653.86 597.46 C 654.06 600.14 651.13 603.05 651.35 605.73 C 651.57 608.41 655.10 610.79 655.35 613.47 C 655.60 616.15 661.28 618.33 661.51 621.01 C 661.74 623.69 670.08 625.59 670.33 628.27 C 670.58 630.95 653.71 635.15 653.96 637.83 C 654.21 640.51 661.96 642.44 662.21 645.12 C 662.46 647.80 672.55 649.46 672.81 652.12 C 673.07 654.78 673.65 657.37 673.92 660.05 C 674.19 662.73 661.76 666.66 662.04 669.33 C 662.32 672.00 661.31 674.79 661.59 677.46 C 661.87 680.13 677.11 681.12 677.40 683.79 C 677.69 686.46 680.02 688.79 680.32 691.51 C 680.62 694.23 665.23 698.61 665.54 701.28 C 665.85 703.95 668.38 706.28 668.70 709.00 C 669.02 711.72 681.37 712.83 681.70 715.50 C 682.03 718.17 664.19 723.04 664.52 725.71 C 664.85 728.38 679.63 729.17 679.98 731.84 C 680.33 734.51 686.23 736.39 686.58 739.05 C 686.93 741.71 678.22 745.53 678.58 748.19 C 678.94 750.85 679.42 753.46 679.78 756.12 C 680.14 758.78 688.85 760.24 689.22 762.91 C 689.59 765.58 672.64 770.70 673.00 773.36" fill="none" node-id="43" stroke="#333333" stroke-linecap="round" stroke-width="12" target-height="626.83" target-width="279.83002" target-x="642.56" target-y="156.11"></path><path d="M 670.88 950.91 C 671.67 955.44 661.53 953.24 649.30 955.02 C 637.07 956.80 627.37 961.87 626.59 957.35 C 625.81 952.83 634.73 944.80 647.00 943.00 C 659.27 941.20 670.09 946.39 670.88 950.91 Z" fill="#352415" fill-rule="nonzero" node-id="45" stroke="none" target-height="20.669983" target-width="45.859985" target-x="625.81" target-y="941.2"></path><path d="M 751.00 946.11 C 751.22 950.06 742.75 945.97 732.09 946.37 C 721.43 946.77 712.60 951.51 712.38 947.56 C 712.16 943.61 720.63 936.27 731.29 935.87 C 741.95 935.47 750.78 942.15 751.00 946.11 Z" fill="#352415" fill-rule="nonzero" node-id="47" stroke="none" target-height="16.04004" target-width="39.059998" target-x="712.16" target-y="935.47"></path><g node-id="58"><path d="M 650.54 943.27 L 652.42 943.51 L 654.14 944.08 L 655.73 944.98 L 657.15 946.15 L 658.35 947.55 L 659.35 949.20 L 660.06 950.99 L 660.49 952.92 L 660.61 955.03 L 660.37 957.13 L 659.85 959.04 L 659.03 960.79 L 657.95 962.39 L 656.68 963.72 L 655.20 964.81 L 653.56 965.62 L 651.81 966.10 L 649.92 966.24 L 648.04 966.00 L 646.32 965.43 L 644.73 964.53 L 643.31 963.36 L 642.11 961.96 L 641.11 960.31 L 640.40 958.52 L 639.97 956.58 L 639.85 954.47 L 640.09 952.38 L 640.61 950.47 L 641.43 948.72 L 642.51 947.12 L 643.78 945.79 L 645.26 944.70 L 646.90 943.89 L 648.65 943.41 L 650.54 943.27 Z" fill="#352415" fill-rule="nonzero" group-id="1" node-id="51" stroke="none" target-height="22.96997" target-width="20.76001" target-x="639.85" target-y="943.27"></path></g><path d="M 731.59 936.76 L 733.47 937.01 L 735.19 937.58 L 736.78 938.47 L 738.20 939.64 L 739.40 941.04 L 740.40 942.69 L 741.11 944.48 L 741.54 946.42 L 741.66 948.53 L 741.42 950.63 L 740.90 952.54 L 740.08 954.29 L 739.00 955.88 L 737.73 957.21 L 736.25 958.31 L 734.61 959.12 L 732.86 959.59 L 730.97 959.73 L 729.09 959.49 L 727.37 958.92 L 725.78 958.03 L 724.36 956.86 L 723.16 955.46 L 722.17 953.80 L 721.45 952.01 L 721.03 950.08 L 720.90 947.97 L 721.14 945.87 L 721.66 943.96 L 722.48 942.21 L 723.56 940.61 L 724.83 939.28 L 726.31 938.19 L 727.95 937.38 L 729.70 936.91 L 731.59 936.76 Z" fill="#352415" fill-rule="nonzero" group-id="2" node-id="56" stroke="none" target-height="22.96997" target-width="20.759949" target-x="720.9" target-y="936.76"></path></svg>