<svg height="1200" node-id="1" sillyvg="true" template-height="1200" template-width="1200" version="1.1" viewBox="0 0 1200 1200" width="1200" xmlns="http://www.w3.org/2000/svg" xmlns:xlink="http://www.w3.org/1999/xlink"><defs node-id="46"><linearGradient gradientUnits="userSpaceOnUse" id="未命名的渐变_28" node-id="5" spreadMethod="pad" x1="423.57" x2="423.57" y1="152.06" y2="806.28"><stop offset="0" stop-color="#efd2a3"></stop><stop offset="0.41" stop-color="#e8bb84"></stop><stop offset="0.76" stop-color="#e4ad71"></stop><stop offset="1" stop-color="#e2a86a"></stop></linearGradient><linearGradient gradientUnits="userSpaceOnUse" id="未命名的渐变_28-2" node-id="10" spreadMethod="pad" x1="767.6" x2="767.6" y1="164.08" y2="781.13"><stop offset="0" stop-color="#efd2a3"></stop><stop offset="0.41" stop-color="#e8bb84"></stop><stop offset="0.76" stop-color="#e4ad71"></stop><stop offset="1" stop-color="#e2a86a"></stop></linearGradient><clipPath id="clip-path" node-id="11"><path d="M 539.87 806.28 C 539.87 806.28 150.06 456.65 270.35 226.00 C 282.66 202.40 302.35 181.90 327.94 167.81 C 374.57 142.12 452.94 129.46 507.85 279.81 C 507.85 279.81 578.17 508.56 599.85 787.81" fill="#000000" fill-rule="nonzero" node-id="69" stroke="none" target-height="676.82" target-width="449.78998" target-x="150.06" target-y="129.46"></path></clipPath><clipPath id="clip-path-2" node-id="13"><path d="M 722.69 781.13 C 722.69 781.13 999.69 373.13 855.11 207.92 C 839.86 190.50 818.75 176.86 793.51 169.49 C 744.35 155.15 665.04 158.75 642.51 316.71 C 642.51 316.71 624.07 486.08 664.70 772.42" fill="#000000" fill-rule="nonzero" node-id="73" stroke="none" target-height="625.98" target-width="375.62" target-x="624.07" target-y="155.15"></path></clipPath></defs><path d="M 0.00 0.00 L 1200.00 0.00 L 1200.00 1200.00 L 0.00 1200.00 Z" fill="#fff9eb" fill-rule="nonzero" node-id="77" stroke="none" target-height="1200" target-width="1200" target-x="0" target-y="0"></path><path d="M 671.91 1084.68 C 770.03 1063.36 760.75 1001.01 750.83 966.56 C 747.43 954.48 747.83 941.65 752.00 929.81 C 761.60 902.06 764.00 878.07 762.62 858.03 C 759.63 816.09 728.35 781.62 686.89 774.59 C 385.89 722.77 483.89 1004.16 483.89 1004.16 C 483.89 1004.16 519.59 1062.69 567.04 1086.06 C 567.00 1086.06 636.83 1101.84 671.91 1084.68 Z" fill="#fffbf3" fill-rule="nonzero" node-id="79" stroke="#333333" stroke-linecap="round" stroke-width="14" target-height="379.06995" target-width="384.14" target-x="385.89" target-y="722.77"></path><path d="M 700.35 911.26 C 707.35 906.26 721.18 904.51 729.28 910.38" fill="#ffffff" fill-rule="nonzero" node-id="81" stroke="#333333" stroke-linecap="round" stroke-width="7.74" target-height="6.75" target-width="28.930054" target-x="700.35" target-y="904.51"></path><path d="M 609.12 919.63 C 618.12 911.21 637.24 908.79 646.45 913.14" fill="#ffffff" fill-rule="nonzero" node-id="83" stroke="#333333" stroke-linecap="round" stroke-width="7.74" target-height="10.840027" target-width="37.330017" target-x="609.12" target-y="908.79"></path><path d="M 670.62 1028.13 L 694.06 1025.41" fill="#ffffff" fill-rule="nonzero" node-id="85" stroke="#333333" stroke-linecap="round" stroke-width="7.74" target-height="2.7199707" target-width="23.440002" target-x="670.62" target-y="1025.41"></path><path d="M 687.83 1101.89 C 755.21 1079.97 752.17 1028.89 752.17 1028.89 C 736.82 1071.75 665.82 1074.35 635.49 1073.44 C 619.98 1073.06 604.75 1069.20 590.92 1062.16 C 539.00 1035.43 532.43 977.00 532.43 977.00 C 514.81 859.16 620.63 837.15 620.63 837.15 C 620.63 837.15 759.09 803.43 763.35 887.36 C 763.35 887.36 798.05 800.30 728.68 751.53 C 709.91 738.35 687.85 728.00 665.00 725.87 C 605.38 720.24 435.65 721.09 416.72 885.93 C 416.72 885.93 396.72 1017.86 504.00 1080.15 C 504.00 1080.15 559.00 1118.37 655.19 1108.59 C 666.28 1107.52 677.22 1105.27 687.83 1101.89 Z" fill="#e2a86a" fill-rule="nonzero" node-id="87" stroke="#333333" stroke-linecap="round" stroke-width="14" target-height="398.13" target-width="401.33" target-x="396.72" target-y="720.24"></path><path d="M 539.87 806.28 C 539.87 806.28 150.06 456.65 270.35 226.00 C 282.66 202.40 302.35 181.90 327.94 167.81 C 374.57 142.12 452.94 129.46 507.85 279.81 C 507.85 279.81 578.17 508.56 599.85 787.81" fill="url(#未命名的渐变_28)" fill-rule="nonzero" node-id="89" stroke="none" target-height="676.82" target-width="449.78998" target-x="150.06" target-y="129.46"></path><g node-id="145"><g clip-path="url(#clip-path)" group-id="1" id="sillyvg_g_0" node-id="91"><path d="M 316.00 409.00 C 314.76 409.00 313.59 408.43 312.83 407.45 C 312.07 406.47 311.81 405.20 312.12 404.00 C 325.30 351.29 354.58 318.29 376.83 299.89 C 400.98 279.89 421.83 272.50 422.68 272.19 C 423.97 271.74 425.40 271.98 426.47 272.82 C 427.55 273.67 428.11 275.00 427.98 276.36 C 424.19 315.48 403.84 350.80 369.12 378.47 C 343.03 399.27 318.40 408.35 317.37 408.73 C 316.93 408.90 316.47 408.99 316.00 409.00 Z" fill="#ffeeb6" fill-rule="nonzero" group-id="1" node-id="93" stroke="none" target-height="137.26001" target-width="116.29999" target-x="311.81" target-y="271.74"></path><path d="M 424.00 276.00 L 424.00 276.00 M 424.00 276.00 C 415.00 369.00 316.00 405.00 316.00 405.00 C 341.00 305.00 424.00 276.00 424.00 276.00 M 424.00 268.00 L 423.68 268.00 C 422.81 268.03 421.94 268.20 421.13 268.52 C 418.60 269.44 397.91 277.28 374.28 296.83 C 359.86 308.74 347.23 322.67 336.79 338.18 C 323.57 357.98 313.91 379.93 308.24 403.05 C 307.52 405.92 308.45 408.95 310.64 410.93 C 312.84 412.91 315.95 413.52 318.73 412.51 C 319.79 412.12 345.02 402.82 371.61 381.62 C 386.64 369.85 399.63 355.69 410.06 339.70 C 422.26 320.85 429.76 299.35 431.94 277.00 C 431.98 276.67 432.00 276.33 432.00 276.00 C 432.00 271.62 428.48 268.05 424.10 268.00 Z M 424.00 284.00 L 424.00 284.00 Z" fill="#333333" fill-rule="nonzero" group-id="1" node-id="95" stroke="none" target-height="145.51999" target-width="124.48001" target-x="307.52" target-y="268"></path><path d="M 394.00 554.00 C 392.83 554.01 391.72 553.51 390.95 552.63 C 390.18 551.76 389.83 550.59 390.00 549.43 C 397.40 497.65 422.63 464.78 442.49 446.32 C 464.05 426.27 483.70 418.58 484.49 418.27 C 485.80 417.73 487.29 417.92 488.42 418.76 C 489.55 419.61 490.15 420.99 490.00 422.40 C 485.75 464.90 460.38 498.30 439.85 518.83 C 417.70 541.00 396.86 553.00 396.00 553.47 C 395.39 553.82 394.70 554.01 394.00 554.00 Z" fill="#ffeeb6" fill-rule="nonzero" group-id="1" node-id="97" stroke="none" target-height="136.28" target-width="100.32001" target-x="389.83" target-y="417.73"></path><path d="M 486.00 422.00 L 486.00 422.00 M 486.00 422.00 C 478.00 502.00 394.00 550.00 394.00 550.00 C 408.00 452.00 486.00 422.00 486.00 422.00 M 486.00 414.00 L 485.70 414.00 C 484.74 414.03 483.79 414.24 482.90 414.61 C 480.44 415.61 460.90 423.74 439.80 443.38 C 426.88 455.39 415.91 469.34 407.30 484.74 C 396.33 504.62 389.13 526.36 386.08 548.86 C 385.61 551.90 386.93 554.95 389.47 556.69 C 392.02 558.42 395.33 558.55 398.00 557.00 C 398.89 556.48 420.19 544.21 442.69 521.71 C 455.34 509.23 466.29 495.13 475.23 479.77 C 485.67 461.40 492.00 442.32 493.94 423.00 C 493.98 422.67 494.00 422.33 494.00 422.00 C 494.00 417.62 490.47 414.05 486.09 414.00 Z M 486.00 430.00 L 486.00 430.00 Z" fill="#333333" fill-rule="nonzero" group-id="1" node-id="99" stroke="none" target-height="144.54999" target-width="108.390015" target-x="385.61" target-y="414"></path><path d="M 478.00 689.00 C 476.77 689.00 475.60 688.42 474.85 687.44 C 474.09 686.47 473.83 685.20 474.14 684.00 C 489.38 627.09 535.98 598.78 537.95 597.60 C 538.56 597.24 539.25 597.05 539.95 597.04 C 541.11 597.03 542.21 597.52 542.98 598.39 C 543.75 599.26 544.10 600.41 543.95 601.56 C 539.66 634.26 522.41 656.20 508.69 668.86 C 493.85 682.54 480.12 688.47 479.55 688.72 C 479.06 688.92 478.53 689.01 478.00 689.00 Z" fill="#ffeeb6" fill-rule="nonzero" group-id="1" node-id="101" stroke="none" target-height="91.97998" target-width="70.26999" target-x="473.83" target-y="597.03"></path><path d="M 540.00 601.00 L 540.00 601.00 M 540.00 601.00 C 532.00 662.00 478.00 685.00 478.00 685.00 C 493.00 629.00 540.00 601.00 540.00 601.00 M 540.00 593.00 L 539.89 593.00 C 538.42 593.02 536.99 593.44 535.75 594.22 C 534.21 595.16 522.41 602.53 508.89 616.42 C 495.80 629.88 478.47 652.34 470.27 682.93 C 469.48 685.89 470.44 689.03 472.75 691.04 C 475.06 693.05 478.31 693.56 481.13 692.36 C 481.74 692.10 496.08 685.91 511.42 671.76 C 531.73 653.00 544.34 629.00 547.90 602.29 C 547.97 601.86 548.00 601.43 548.00 601.00 C 548.00 596.58 544.42 593.00 540.00 593.00 Z M 540.00 609.00 L 540.00 609.00 Z" fill="#333333" fill-rule="nonzero" group-id="1" node-id="103" stroke="none" target-height="100.56" target-width="78.51999" target-x="469.48" target-y="593"></path></g></g><path d="M 539.87 806.28 C 539.87 806.28 150.06 456.65 270.35 226.00 C 282.66 202.40 302.35 181.90 327.94 167.81 C 374.57 142.12 452.94 129.46 507.85 279.81 C 507.85 279.81 578.17 508.56 599.85 787.81" fill="none" node-id="106" stroke="#333333" stroke-linecap="round" stroke-width="14" target-height="676.82" target-width="449.78998" target-x="150.06" target-y="129.46"></path><path d="M 722.69 781.13 C 722.69 781.13 999.69 373.13 855.11 207.92 C 839.86 190.50 818.75 176.86 793.51 169.49 C 744.35 155.15 665.04 158.75 642.51 316.71 C 642.51 316.71 624.07 486.08 664.70 772.42" fill="url(#未命名的渐变_28-2)" fill-rule="nonzero" node-id="108" stroke="none" target-height="625.98" target-width="375.62" target-x="624.07" target-y="155.15"></path><g clip-path="url(#clip-path-2)" group-id="2" id="sillyvg_g_1" node-id="110"><path d="M 706.00 390.00 C 704.59 390.00 703.29 389.26 702.56 388.05 C 701.84 386.84 701.81 385.34 702.48 384.10 C 727.35 338.10 765.57 316.28 793.25 306.10 C 823.19 295.13 847.00 295.00 848.00 295.00 C 849.33 295.00 850.57 295.66 851.31 296.76 C 852.06 297.86 852.20 299.26 851.71 300.49 C 838.20 334.27 808.71 360.49 766.40 376.25 C 747.05 383.50 726.82 388.12 706.25 390.00 Z" fill="#ffeeb6" fill-rule="nonzero" group-id="2" node-id="112" stroke="none" target-height="95" target-width="150.39001" target-x="701.81" target-y="295"></path><path d="M 848.00 299.00 L 848.00 299.00 M 848.00 299.00 C 816.00 379.00 706.00 386.00 706.00 386.00 C 753.00 299.00 848.00 299.00 848.00 299.00 M 848.00 291.00 L 848.00 291.00 C 847.00 291.00 822.48 291.13 791.87 302.36 C 774.27 308.74 757.80 317.88 743.06 329.42 C 724.91 343.81 709.91 361.77 699.00 382.20 C 697.67 384.67 697.73 387.66 699.16 390.08 C 700.59 392.50 703.19 393.99 706.00 394.00 L 706.51 394.00 C 727.47 392.09 748.09 387.38 767.80 380.00 C 786.89 372.87 803.55 363.65 817.32 352.58 C 834.72 338.58 847.51 321.65 855.32 302.21 C 856.40 299.74 856.17 296.89 854.69 294.63 C 853.21 292.37 850.70 291.00 848.00 291.00 Z M 848.00 307.00 L 848.00 307.00 Z" fill="#333333" fill-rule="nonzero" group-id="2" node-id="114" stroke="none" target-height="103" target-width="158.73004" target-x="697.67" target-y="291"></path><path d="M 698.00 522.00 C 698.00 522.00 736.00 460.00 827.00 453.00 C 827.00 453.00 791.00 521.00 698.00 522.00 Z" fill="#ffeeb6" fill-rule="nonzero" group-id="2" node-id="116" stroke="#333333" stroke-linecap="round" stroke-width="8" target-height="69" target-width="129" target-x="698" target-y="453"></path><path d="M 786.00 587.00 C 786.00 587.00 730.00 586.00 690.00 637.00 C 690.00 637.00 763.00 642.00 786.00 587.00 Z" fill="#ffeeb6" fill-rule="nonzero" group-id="2" node-id="118" stroke="#333333" stroke-linecap="round" stroke-width="8" target-height="56" target-width="96" target-x="690" target-y="586"></path></g><path d="M 722.69 781.13 C 722.69 781.13 999.69 373.13 855.11 207.92 C 839.86 190.50 818.75 176.86 793.51 169.49 C 744.35 155.15 665.04 158.75 642.51 316.71 C 642.51 316.71 624.07 486.08 664.70 772.42" fill="none" node-id="121" stroke="#333333" stroke-linecap="round" stroke-width="14" target-height="625.98" target-width="375.62" target-x="624.07" target-y="155.15"></path><path d="M 634.54 943.26 L 636.42 943.51 L 638.14 944.07 L 639.73 944.97 L 641.15 946.14 L 642.35 947.54 L 643.35 949.19 L 644.06 950.98 L 644.49 952.92 L 644.61 955.03 L 644.37 957.13 L 643.85 959.04 L 643.03 960.79 L 641.95 962.38 L 640.68 963.71 L 639.20 964.81 L 637.56 965.62 L 635.81 966.09 L 633.92 966.23 L 632.04 965.99 L 630.32 965.42 L 628.73 964.52 L 627.31 963.35 L 626.11 961.96 L 625.11 960.30 L 624.40 958.51 L 623.97 956.58 L 623.85 954.47 L 624.09 952.37 L 624.61 950.46 L 625.43 948.71 L 626.51 947.11 L 627.78 945.78 L 629.26 944.69 L 630.90 943.88 L 632.65 943.41 L 634.54 943.26 Z" fill="#352415" fill-rule="nonzero" group-id="3" node-id="125" stroke="none" target-height="22.96997" target-width="20.76001" target-x="623.85" target-y="943.26"></path><path d="M 715.59 936.77 L 717.47 937.01 L 719.19 937.58 L 720.78 938.48 L 722.20 939.65 L 723.40 941.04 L 724.40 942.70 L 725.11 944.49 L 725.54 946.42 L 725.66 948.53 L 725.42 950.63 L 724.90 952.54 L 724.08 954.29 L 723.00 955.89 L 721.73 957.22 L 720.25 958.31 L 718.61 959.12 L 716.86 959.60 L 714.97 959.74 L 713.09 959.49 L 711.37 958.93 L 709.78 958.03 L 708.36 956.86 L 707.16 955.46 L 706.17 953.81 L 705.45 952.02 L 705.03 950.08 L 704.90 947.97 L 705.14 945.87 L 705.66 943.97 L 706.48 942.21 L 707.56 940.62 L 708.83 939.29 L 710.31 938.19 L 711.95 937.38 L 713.70 936.91 L 715.59 936.77 Z" fill="#352415" fill-rule="nonzero" group-id="4" node-id="130" stroke="none" target-height="22.96997" target-width="20.759949" target-x="704.9" target-y="936.77"></path><path d="M 652.30 1033.50 C 652.30 1036.50 650.09 1038.86 646.50 1038.86 C 642.91 1038.86 639.64 1036.54 639.64 1033.50 C 639.64 1030.46 642.91 1028.36 646.50 1028.36 C 650.09 1028.36 652.30 1030.46 652.30 1033.50 Z" fill="#352415" fill-rule="nonzero" node-id="133" stroke="none" target-height="10.5" target-width="12.659973" target-x="639.64" target-y="1028.36"></path><path d="M 626.72 1023.21 C 628.90 1022.96 630.81 1025.11 631.09 1027.56 C 631.37 1030.01 629.99 1032.19 627.81 1032.45 C 625.63 1032.71 624.03 1030.87 623.74 1028.45 C 623.45 1026.03 624.54 1023.47 626.72 1023.21 Z" fill="#352415" fill-rule="nonzero" node-id="135" stroke="none" target-height="9.749939" target-width="7.919983" target-x="623.45" target-y="1022.96"></path><path d="M 711.81 1022.00 C 712.82 1021.79 713.87 1022.11 714.59 1022.85 C 715.38 1023.58 716.70 1024.28 716.84 1025.49 C 716.89 1026.72 716.54 1027.93 715.84 1028.94 C 715.20 1029.94 713.97 1030.00 712.84 1030.14 C 711.77 1030.42 710.64 1030.19 709.77 1029.51 C 708.98 1028.78 708.90 1027.66 708.77 1026.45 C 708.64 1025.24 708.45 1024.14 709.04 1023.24 C 709.63 1022.34 710.65 1022.12 711.81 1022.00 Z" fill="#352415" fill-rule="nonzero" node-id="137" stroke="none" target-height="8.630066" target-width="8.440002" target-x="708.45" target-y="1021.79"></path><path d="M 615.92 1033.67 C 617.00 1033.54 616.48 1033.67 616.62 1034.89 C 616.76 1036.11 617.30 1036.03 616.21 1036.16 C 615.12 1036.29 613.47 1036.50 613.32 1035.28 C 613.17 1034.06 614.83 1033.80 615.92 1033.67 Z" fill="#352415" fill-rule="nonzero" node-id="139" stroke="none" target-height="2.959961" target-width="4.130005" target-x="613.17" target-y="1033.54"></path><path d="M 727.82 1026.11 C 727.75 1025.11 728.31 1022.96 729.46 1022.87 C 730.61 1022.78 732.92 1024.71 732.99 1025.74 C 733.06 1026.77 730.99 1027.85 729.83 1027.94 C 729.32 1027.97 728.82 1027.80 728.44 1027.45 C 728.06 1027.11 727.84 1026.62 727.82 1026.11 Z" fill="#352415" fill-rule="nonzero" node-id="141" stroke="none" target-height="5.1899414" target-width="5.3099976" target-x="727.75" target-y="1022.78"></path><path d="M 634.13 1042.87 C 635.22 1042.74 636.58 1044.58 636.73 1045.79 C 636.88 1047.00 636.00 1049.34 634.91 1049.47 C 633.82 1049.60 632.23 1047.56 632.09 1046.34 C 631.95 1045.12 633.05 1043.00 634.13 1042.87 Z" fill="#352415" fill-rule="nonzero" node-id="143" stroke="none" target-height="6.8599854" target-width="4.9299927" target-x="631.95" target-y="1042.74"></path></svg>