<svg height="1200" node-id="1" sillyvg="true" template-height="1200" template-width="1200" version="1.1" viewBox="0 0 1200 1200" width="1200" xmlns="http://www.w3.org/2000/svg" xmlns:xlink="http://www.w3.org/1999/xlink"><defs node-id="83"></defs><path d="M 0.00 0.00 L 1200.00 0.00 L 1200.00 1200.00 L 0.00 1200.00 Z" fill="#f1ffdc" fill-rule="nonzero" node-id="85" stroke="none" target-height="1200" target-width="1200" target-x="0" target-y="0"></path><path d="M 679.91 1094.68 C 778.03 1073.36 768.75 1011.01 758.83 976.56 C 755.43 964.48 755.83 951.65 760.00 939.81 C 769.60 912.06 772.00 888.07 770.62 868.03 C 767.63 826.09 736.35 791.62 694.89 784.59 C 393.89 732.77 491.89 1014.16 491.89 1014.16 C 491.89 1014.16 527.59 1072.69 575.04 1096.06 C 575.00 1096.06 644.83 1111.84 679.91 1094.68 Z" fill="#fffbf3" fill-rule="nonzero" node-id="87" stroke="#333333" stroke-linecap="round" stroke-width="14" target-height="379.06995" target-width="384.14" target-x="393.89" target-y="732.77"></path><path d="M 708.35 921.26 C 715.35 916.26 729.18 914.51 737.28 920.38" fill="#ffffff" fill-rule="nonzero" node-id="89" stroke="#333333" stroke-linecap="round" stroke-width="7.74" target-height="6.75" target-width="28.930054" target-x="708.35" target-y="914.51"></path><path d="M 617.12 929.63 C 626.12 921.21 645.24 918.79 654.45 923.14" fill="#ffffff" fill-rule="nonzero" node-id="91" stroke="#333333" stroke-linecap="round" stroke-width="7.74" target-height="10.840027" target-width="37.330017" target-x="617.12" target-y="918.79"></path><path d="M 678.62 1035.13 C 687.15 1036.01 695.12 1035.50 702.06 1032.41" fill="#ffffff" fill-rule="nonzero" node-id="93" stroke="#333333" stroke-linecap="round" stroke-width="7.74" target-height="3.5999756" target-width="23.440002" target-x="678.62" target-y="1032.41"></path><path d="M 695.83 1111.89 C 763.21 1089.97 760.17 1038.89 760.17 1038.89 C 744.82 1081.75 673.82 1084.35 643.49 1083.44 C 627.98 1083.06 612.75 1079.20 598.92 1072.16 C 547.00 1045.43 540.43 987.00 540.43 987.00 C 522.81 869.16 628.63 847.15 628.63 847.15 C 628.63 847.15 767.09 813.43 771.35 897.36 C 771.35 897.36 806.05 810.30 736.68 761.53 C 717.91 748.35 695.85 738.00 673.00 735.87 C 613.38 730.24 443.65 731.09 424.72 895.93 C 424.72 895.93 404.72 1027.86 512.00 1090.15 C 512.00 1090.15 567.00 1128.37 663.19 1118.59 C 674.28 1117.52 685.22 1115.27 695.83 1111.89 Z" fill="#ffda88" fill-rule="nonzero" node-id="95" stroke="#333333" stroke-linecap="round" stroke-width="14" target-height="398.13" target-width="401.33" target-x="404.72" target-y="730.24"></path><path d="M 547.87 816.28 C 547.87 816.28 158.06 466.65 278.35 236.00 C 290.66 212.40 310.35 191.90 335.94 177.81 C 382.57 152.12 460.94 139.46 515.85 289.81 C 515.85 289.81 586.17 518.56 607.85 797.81" fill="#ffda88" fill-rule="nonzero" node-id="97" stroke="#333333" stroke-linecap="round" stroke-width="14" target-height="676.82" target-width="449.78998" target-x="158.06" target-y="139.46"></path><path d="M 730.69 791.13 C 730.69 791.13 1007.69 383.13 863.11 217.92 C 847.86 200.50 826.75 186.86 801.51 179.49 C 752.35 165.15 673.04 168.75 650.51 326.71 C 650.51 326.71 632.07 496.08 672.70 782.42" fill="#ffda88" fill-rule="nonzero" node-id="99" stroke="#333333" stroke-linecap="round" stroke-width="14" target-height="625.98" target-width="375.62" target-x="632.07" target-y="165.15"></path><g node-id="245"><path d="M 637.20 952.47 L 639.81 952.79 L 642.19 953.50 L 644.38 954.61 L 646.36 956.07 L 648.02 957.81 L 649.39 959.83 L 650.40 962.06 L 650.99 964.45 L 651.16 967.04 L 650.85 969.63 L 650.13 971.98 L 649.01 974.15 L 647.53 976.10 L 645.78 977.75 L 643.73 979.10 L 641.48 980.09 L 639.06 980.67 L 636.43 980.84 L 633.82 980.53 L 631.44 979.82 L 629.25 978.71 L 627.27 977.25 L 625.61 975.51 L 624.24 973.49 L 623.23 971.26 L 622.64 968.87 L 622.47 966.27 L 622.78 963.69 L 623.50 961.34 L 624.62 959.17 L 626.10 957.22 L 627.85 955.57 L 629.90 954.22 L 632.15 953.23 L 634.57 952.65 L 637.20 952.47 Z" fill="#ffffff" fill-rule="nonzero" group-id="1" node-id="103" stroke="#333333" stroke-linecap="round" stroke-width="7.9999995" target-height="28.370056" target-width="28.690002" target-x="622.47" target-y="952.47"></path></g><g node-id="246"><path d="M 719.15 944.78 L 721.76 945.09 L 724.15 945.80 L 726.34 946.91 L 728.32 948.37 L 729.98 950.11 L 731.35 952.14 L 732.35 954.36 L 732.94 956.75 L 733.12 959.35 L 732.80 961.93 L 732.08 964.28 L 730.96 966.45 L 729.49 968.40 L 727.73 970.05 L 725.68 971.40 L 723.43 972.39 L 721.02 972.98 L 718.39 973.15 L 715.78 972.83 L 713.39 972.12 L 711.20 971.02 L 709.22 969.55 L 707.56 967.82 L 706.19 965.79 L 705.19 963.56 L 704.60 961.17 L 704.43 958.58 L 704.74 955.99 L 705.46 953.64 L 706.58 951.47 L 708.05 949.52 L 709.81 947.88 L 711.86 946.52 L 714.11 945.53 L 716.53 944.95 L 719.15 944.78 Z" fill="#ffffff" fill-rule="nonzero" group-id="2" node-id="108" stroke="#333333" stroke-linecap="round" stroke-width="7.9999995" target-height="28.369995" target-width="28.690002" target-x="704.43" target-y="944.78"></path></g><path d="M 327.34 305.12 C 329.07 312.82 322.62 321.26 312.90 323.45 C 303.18 325.64 295.37 320.39 293.64 312.69 C 292.76 308.50 293.59 304.13 295.96 300.56 C 298.33 296.98 302.03 294.51 306.23 293.69 C 315.94 291.55 325.61 297.43 327.34 305.12 Z" fill="#e5912c" fill-rule="nonzero" node-id="111" stroke="none" target-height="34.090027" target-width="36.309998" target-x="292.76" target-y="291.55"></path><path d="M 303.00 322.46 C 303.00 322.46 287.47 296.46 312.00 296.00 C 312.00 296.00 329.07 291.09 321.69 318.26 C 321.69 318.26 318.20 348.92 338.61 343.03 C 346.76 340.58 352.95 333.92 354.79 325.61 C 359.32 305.92 363.24 265.06 319.61 260.37 C 304.23 258.68 288.71 261.78 275.17 269.26 C 258.73 278.41 241.83 295.89 263.45 325.26 C 270.67 335.20 282.38 340.88 294.66 340.39 C 303.78 339.94 310.90 336.08 303.00 322.46 Z" fill="#352415" fill-rule="nonzero" node-id="113" stroke="none" target-height="90.24002" target-width="121.40999" target-x="241.83" target-y="258.68"></path><path d="M 565.92 740.00 C 559.92 742.11 552.60 738.32 549.92 730.69 C 547.24 723.06 550.59 715.62 556.64 713.51 C 562.69 711.40 568.93 715.51 571.64 723.10 C 574.35 730.69 572.00 737.86 565.92 740.00 Z" fill="#e5912c" fill-rule="nonzero" node-id="115" stroke="none" target-height="30.70996" target-width="27.109985" target-x="547.24" target-y="711.4"></path><path d="M 549.86 722.57 C 549.86 722.57 569.40 707.57 572.05 727.36 C 572.05 727.36 577.61 740.68 555.05 737.27 C 555.05 737.27 529.99 737.32 536.65 753.27 C 539.39 759.62 545.35 763.98 552.23 764.69 C 568.54 766.50 601.87 765.83 601.56 730.19 C 601.48 717.63 597.52 705.41 590.22 695.19 C 581.30 682.79 565.62 670.79 543.94 690.99 C 536.59 697.74 533.10 707.73 534.66 717.59 C 535.83 724.84 539.61 730.22 549.86 722.57 Z" fill="#352415" fill-rule="nonzero" node-id="117" stroke="none" target-height="95.71002" target-width="71.880005" target-x="529.99" target-y="670.79"></path><path d="M 480.58 1023.91 C 476.69 1028.23 470.00 1027.83 464.58 1022.91 C 459.16 1017.99 457.65 1011.06 461.58 1006.74 C 465.51 1002.42 473.24 1002.37 478.69 1007.27 C 484.14 1012.17 484.47 1019.59 480.58 1023.91 Z" fill="#e5912c" fill-rule="nonzero" node-id="119" stroke="none" target-height="25.859985" target-width="26.820007" target-x="457.65" target-y="1002.37"></path><path d="M 460.35 1017.19 C 460.35 1017.19 469.35 996.76 480.09 1011.32 C 480.09 1011.32 490.32 1019.49 470.85 1026.64 C 470.85 1026.64 450.94 1037.64 463.18 1047.36 C 468.13 1051.21 474.77 1052.09 480.55 1049.66 C 494.31 1043.98 520.55 1028.92 504.75 1000.66 C 499.20 990.70 490.72 982.70 480.45 977.75 C 467.95 971.75 450.24 969.07 441.81 994.59 C 438.91 1003.17 440.50 1012.63 446.03 1019.80 C 450.18 1025.11 455.53 1027.75 460.35 1017.19 Z" fill="#352415" fill-rule="nonzero" node-id="121" stroke="none" target-height="83.01996" target-width="81.639984" target-x="438.91" target-y="969.07"></path><path d="M 732.47 220.33 C 728.62 214.62 730.64 207.15 737.84 202.33 C 745.04 197.51 753.78 197.67 757.63 203.38 C 761.48 209.09 759.49 218.88 752.29 223.74 C 745.86 228.22 737.03 226.70 732.47 220.33 Z" fill="#e5912c" fill-rule="nonzero" node-id="123" stroke="none" target-height="30.710007" target-width="32.859985" target-x="728.62" target-y="197.51"></path><path d="M 745.69 199.20 C 745.69 199.20 766.58 215.42 746.78 223.57 C 746.78 223.57 734.47 232.98 731.83 208.57 C 731.83 208.57 724.93 182.57 710.21 193.82 C 704.37 198.40 701.46 205.78 702.60 213.12 C 705.18 230.56 714.97 265.00 751.92 254.95 C 764.95 251.44 776.58 243.98 785.20 233.60 C 795.65 220.94 803.84 201.37 776.93 184.37 C 767.90 178.58 756.58 177.69 746.76 182.00 C 739.51 185.24 735.00 190.64 745.69 199.20 Z" fill="#352415" fill-rule="nonzero" node-id="125" stroke="none" target-height="87.31" target-width="102.380005" target-x="701.46" target-y="177.69"></path><path d="M 739.27 384.20 C 739.27 391.32 733.42 396.02 724.44 396.02 C 715.46 396.02 709.38 391.32 709.38 384.20 C 709.38 377.08 715.45 370.80 724.44 370.80 C 733.43 370.80 739.27 377.08 739.27 384.20 Z" fill="#e5912c" fill-rule="nonzero" node-id="127" stroke="none" target-height="25.220001" target-width="29.890015" target-x="709.38" target-y="370.8"></path><path d="M 715.91 394.66 C 715.91 394.66 707.39 368.66 729.09 373.13 C 729.09 373.13 745.09 372.19 733.22 394.66 C 733.22 394.66 724.07 420.98 743.22 419.83 C 750.89 419.29 757.66 414.64 760.93 407.68 C 768.81 391.23 780.36 356.02 742.85 343.25 C 729.64 338.71 715.35 338.36 701.93 342.25 C 685.64 347.06 667.29 359.10 680.53 389.25 C 684.90 399.46 694.08 406.80 705.00 408.82 C 713.14 410.21 720.17 408.22 715.91 394.66 Z" fill="#352415" fill-rule="nonzero" node-id="129" stroke="none" target-height="82.620026" target-width="113.07001" target-x="667.29" target-y="338.36"></path><path d="M 684.25 513.75 C 684.25 513.75 665.00 517.58 671.90 499.22 C 671.90 499.22 674.12 485.07 687.35 498.61 C 687.35 498.61 703.69 510.29 706.35 493.37 C 707.41 486.61 705.35 480.05 701.22 476.18 C 691.38 467.00 669.39 452.00 654.00 483.00 C 648.50 494.07 645.76 506.31 646.00 518.67 C 646.37 533.59 651.31 551.33 674.29 543.97 C 682.01 541.49 688.76 534.54 692.00 525.25 C 694.38 518.36 694.28 511.92 684.25 513.75 Z" fill="#352415" fill-rule="nonzero" node-id="131" stroke="none" target-height="99.33002" target-width="61.649963" target-x="645.76" target-y="452"></path><path d="M 421.14 472.68 C 432.80 482.41 430.72 499.49 419.58 512.85 C 408.44 526.21 390.83 532.74 379.16 523.00 C 367.49 513.26 368.22 492.66 379.36 479.30 C 390.50 465.94 409.47 463.00 421.14 472.68 Z" fill="#e5912c" fill-rule="nonzero" node-id="133" stroke="none" target-height="69.73999" target-width="65.31" target-x="367.49" target-y="463"></path><path d="M 541.68 462.00 C 553.35 471.73 551.93 485.48 540.79 498.84 C 529.65 512.20 513.31 514.74 501.65 505.01 C 489.99 495.28 489.02 483.32 500.16 470.01 C 511.30 456.70 530.00 452.29 541.68 462.00 Z" fill="#e5912c" fill-rule="nonzero" node-id="135" stroke="none" target-height="62.44998" target-width="64.32999" target-x="489.02" target-y="452.29"></path><path d="M 379.58 520.48 C 379.58 520.48 380.94 473.06 420.28 475.48 C 427.48 475.97 434.71 475.21 441.65 473.21 C 456.22 468.93 468.13 458.97 413.09 437.28 C 404.69 433.89 395.61 432.55 386.59 433.38 C 365.36 435.53 336.32 450.94 349.53 523.15 C 349.53 523.20 364.38 575.72 379.58 520.48 Z" fill="#352415" fill-rule="nonzero" node-id="137" stroke="none" target-height="143.16998" target-width="131.81" target-x="336.32" target-y="432.55"></path><path d="M 487.62 893.18 C 497.12 894.76 502.83 905.18 501.02 916.02 C 499.21 926.86 490.26 936.00 480.76 934.38 C 471.26 932.76 465.10 921.21 466.91 910.38 C 468.72 899.55 478.13 891.60 487.62 893.18 Z" fill="#e5912c" fill-rule="nonzero" node-id="139" stroke="none" target-height="44.400024" target-width="37.72998" target-x="465.1" target-y="891.6"></path><path d="M 480.20 932.77 C 480.20 932.77 465.74 906.40 488.05 895.15 C 492.16 893.11 495.88 890.38 499.05 887.06 C 505.64 880.06 508.96 870.79 471.91 876.56 C 466.23 877.40 460.84 879.59 456.17 882.93 C 445.25 890.93 434.31 908.64 464.67 943.93 C 464.63 943.89 489.59 967.85 480.20 932.77 Z" fill="#352415" fill-rule="nonzero" node-id="141" stroke="none" target-height="97.06" target-width="74.649994" target-x="434.31" target-y="870.79"></path><path d="M 802.85 648.08 C 806.98 657.59 802.31 669.97 791.42 674.71 C 780.53 679.45 768.42 674.38 764.25 664.87 C 760.08 655.36 764.70 643.04 775.58 638.31 C 786.46 633.58 798.71 638.58 802.85 648.08 Z" fill="#352415" fill-rule="nonzero" node-id="143" stroke="none" target-height="45.869995" target-width="46.899963" target-x="760.08" target-y="633.58"></path><path d="M 594.57 1071.52 C 596.57 1076.05 593.25 1083.12 586.38 1086.11 C 579.51 1089.10 571.55 1086.92 569.58 1082.39 C 567.61 1077.86 572.22 1072.39 579.10 1069.39 C 585.98 1066.39 592.60 1067.00 594.57 1071.52 Z" fill="#352415" fill-rule="nonzero" node-id="145" stroke="none" target-height="22.70996" target-width="28.960022" target-x="567.61" target-y="1066.39"></path><path d="M 538.16 952.56 C 541.16 959.42 537.16 966.12 529.30 969.56 C 521.44 973.00 512.43 971.94 509.44 965.07 C 506.45 958.20 510.80 948.53 518.67 945.07 C 526.12 941.84 534.79 945.17 538.16 952.56 Z" fill="#352415" fill-rule="nonzero" node-id="147" stroke="none" target-height="31.159973" target-width="34.70996" target-x="506.45" target-y="941.84"></path><path d="M 632.47 744.00 C 635.87 751.80 633.25 762.30 624.32 766.18 C 615.39 770.06 605.32 765.09 601.95 757.29 C 598.58 749.49 601.74 738.71 610.67 734.82 C 619.60 730.93 629.08 736.19 632.47 744.00 Z" fill="#352415" fill-rule="nonzero" node-id="149" stroke="none" target-height="39.130005" target-width="37.289978" target-x="598.58" target-y="730.93"></path><path d="M 394.55 382.21 C 398.68 391.72 393.97 403.21 383.08 407.92 C 372.19 412.63 360.08 408.51 355.95 399.01 C 351.82 389.51 357.76 379.50 368.65 374.76 C 379.54 370.02 390.41 372.71 394.55 382.21 Z" fill="#352415" fill-rule="nonzero" node-id="151" stroke="none" target-height="42.610016" target-width="46.859985" target-x="351.82" target-y="370.02"></path><path d="M 810.06 301.12 C 814.19 310.63 807.18 323.68 796.30 328.42 C 785.42 333.16 773.72 328.24 769.58 318.73 C 765.44 309.22 770.15 298.08 781.04 293.35 C 791.93 288.62 805.92 291.61 810.06 301.12 Z" fill="#352415" fill-rule="nonzero" node-id="153" stroke="none" target-height="44.54001" target-width="48.75" target-x="765.44" target-y="288.62"></path><path d="M 830.70 271.25 C 823.70 265.43 824.57 253.69 831.24 245.70 C 837.91 237.71 847.93 236.40 854.91 242.23 C 861.89 248.06 863.23 258.82 856.56 266.81 C 849.89 274.80 837.69 277.07 830.70 271.25 Z" fill="#e5912c" fill-rule="nonzero" node-id="155" stroke="none" target-height="40.670013" target-width="39.52997" target-x="823.7" target-y="236.4"></path><path d="M 856.16 242.00 C 856.16 242.00 855.34 270.38 831.80 268.90 C 827.49 268.58 823.16 269.02 819.00 270.20 C 810.27 272.77 803.15 278.73 836.09 291.71 C 841.13 293.74 846.59 294.52 852.00 294.00 C 864.71 292.72 882.09 283.50 874.19 240.28 C 874.15 240.32 865.25 208.88 856.16 242.00 Z" fill="#352415" fill-rule="nonzero" node-id="157" stroke="none" target-height="85.639984" target-width="78.94" target-x="803.15" target-y="208.88"></path><path d="M 796.75 598.55 C 796.75 605.43 788.86 610.55 777.61 610.55 C 766.36 610.55 758.86 605.44 758.86 598.55 C 758.86 591.66 766.37 584.09 777.61 584.09 C 788.85 584.09 796.75 591.68 796.75 598.55 Z" fill="#e5912c" fill-rule="nonzero" node-id="159" stroke="none" target-height="26.45996" target-width="37.890015" target-x="758.86" target-y="584.09"></path><path d="M 757.28 598.00 C 757.28 598.00 781.37 584.73 796.42 599.12 C 799.36 601.91 802.74 604.20 806.42 605.89 C 814.57 609.72 824.42 610.97 812.42 585.55 C 810.39 581.37 807.28 577.80 803.42 575.21 C 793.57 568.45 773.90 562.82 743.54 588.35 C 743.49 588.31 723.57 608.70 757.28 598.00 Z" fill="#352415" fill-rule="nonzero" node-id="161" stroke="none" target-height="48.149963" target-width="100.849976" target-x="723.57" target-y="562.82"></path><path d="M 739.00 822.25 C 738.00 827.09 729.64 827.96 720.32 826.00 C 711.00 824.04 704.32 820.00 705.32 815.20 C 706.32 810.40 714.44 807.61 723.76 809.56 C 733.08 811.51 740.00 817.42 739.00 822.25 Z" fill="#e5912c" fill-rule="nonzero" node-id="163" stroke="none" target-height="20.350037" target-width="35.679993" target-x="704.32" target-y="807.61"></path><path d="M 705.09 814.72 C 705.09 814.72 727.04 809.56 737.40 822.30 C 739.48 824.82 741.93 827.02 744.67 828.80 C 750.87 832.91 758.87 835.50 752.67 815.53 C 751.50 812.10 749.43 809.04 746.67 806.69 C 739.50 800.22 724.02 792.84 695.07 805.53 C 695.08 805.53 675.56 816.41 705.09 814.72 Z" fill="#352415" fill-rule="nonzero" node-id="165" stroke="none" target-height="42.659973" target-width="83.31" target-x="675.56" target-y="792.84"></path><path d="M 523.33 817.12 C 526.73 823.12 523.59 833.12 515.33 837.78 C 507.07 842.44 496.05 840.55 492.65 834.57 C 489.25 828.59 493.71 819.00 502.00 814.32 C 510.29 809.64 519.93 811.15 523.33 817.12 Z" fill="#e5912c" fill-rule="nonzero" node-id="167" stroke="none" target-height="32.799988" target-width="37.47998" target-x="489.25" target-y="809.64"></path><path d="M 493.16 833.61 C 493.16 833.61 504.31 811.99 522.49 818.21 C 525.93 819.38 529.54 819.96 533.17 819.92 C 541.06 819.84 548.94 816.80 527.54 799.72 C 524.13 797.01 520.08 795.21 515.78 794.51 C 505.20 792.76 488.00 796.09 478.24 831.00 C 478.24 831.00 473.68 857.00 493.16 833.61 Z" fill="#352415" fill-rule="nonzero" node-id="169" stroke="none" target-height="64.23999" target-width="75.26001" target-x="473.68" target-y="792.76"></path><path d="M 713.60 696.68 C 713.60 708.51 703.74 718.04 693.02 718.04 C 682.30 718.04 675.41 708.51 675.41 696.68 C 675.41 684.85 682.30 674.45 693.02 674.45 C 703.74 674.45 713.60 684.86 713.60 696.68 Z" fill="#e5912c" fill-rule="nonzero" node-id="171" stroke="none" target-height="43.589966" target-width="38.190002" target-x="675.41" target-y="674.45"></path><path d="M 685.36 678.78 C 685.36 678.78 663.91 704.06 687.91 708.97 C 687.91 708.97 721.15 710.24 706.42 686.82 C 703.66 682.29 702.42 677.01 702.86 671.73 C 703.41 665.03 706.68 659.02 718.58 665.73 C 723.49 668.47 727.52 673.65 729.58 680.34 C 733.38 692.50 731.78 711.92 693.50 725.87 C 693.50 725.87 674.77 735.16 664.22 694.35 C 664.22 694.35 658.92 680.68 666.16 670.07 C 670.55 663.63 677.52 661.71 683.39 665.29 C 686.93 667.38 689.28 671.36 685.36 678.78 Z" fill="#352415" fill-rule="nonzero" node-id="173" stroke="none" target-height="76.13995" target-width="74.46002" target-x="658.92" target-y="659.02"></path><path d="M 870.37 428.75 C 870.37 440.99 860.21 450.14 844.97 450.14 C 829.73 450.14 814.77 440.99 814.77 428.75 C 814.77 416.51 829.77 406.36 844.97 406.36 C 860.17 406.36 870.37 416.51 870.37 428.75 Z" fill="#e5912c" fill-rule="nonzero" node-id="175" stroke="none" target-height="43.78003" target-width="55.599976" target-x="814.77" target-y="406.36"></path><path d="M 834.07 410.23 C 834.07 410.23 803.56 436.38 837.70 441.46 C 837.70 441.46 884.99 442.78 864.04 418.55 C 860.26 414.27 858.43 408.62 859.00 402.94 C 859.78 396.01 864.44 389.79 881.38 396.69 C 888.36 399.49 893.97 404.91 897.00 411.80 C 902.39 424.38 900.12 444.47 845.66 458.90 C 845.66 458.90 819.03 468.51 804.01 426.29 C 804.01 426.29 796.48 412.15 806.77 401.17 C 813.08 394.51 822.89 392.53 831.28 396.23 C 836.30 398.44 839.65 402.56 834.07 410.23 Z" fill="#352415" fill-rule="nonzero" node-id="177" stroke="none" target-height="78.72" target-width="105.910034" target-x="796.48" target-y="389.79"></path><path d="M 508.45 471.65 C 508.45 471.65 480.56 495.55 511.77 500.20 C 511.77 500.20 555.00 501.40 535.85 479.26 C 532.38 475.36 530.70 470.19 531.21 465.00 C 531.92 458.66 536.21 453.00 551.66 459.28 C 558.07 461.82 563.22 466.78 566.00 473.09 C 570.94 484.59 568.85 502.95 519.08 516.14 C 519.08 516.14 494.73 524.93 481.01 486.33 C 481.01 486.33 474.12 473.41 483.53 463.33 C 489.30 457.24 498.26 455.44 505.94 458.81 C 510.50 460.87 513.55 464.64 508.45 471.65 Z" fill="#352415" fill-rule="nonzero" node-id="179" stroke="none" target-height="71.92999" target-width="96.82001" target-x="474.12" target-y="453"></path><path d="M 308.19 461.15 C 311.23 463.17 315.22 462.97 318.04 460.65 C 327.60 452.48 356.95 424.31 331.84 405.49 C 331.84 405.49 307.37 387.82 301.84 443.06 C 301.80 443.06 300.36 456.25 308.19 461.15 Z" fill="#352415" fill-rule="nonzero" node-id="181" stroke="none" target-height="75.350006" target-width="56.590027" target-x="300.36" target-y="387.82"></path><path d="M 686.18 1095.34 C 687.08 1102.34 678.50 1107.22 666.18 1108.81 C 653.86 1110.40 641.18 1108.22 640.24 1101.27 C 639.30 1094.32 650.59 1085.47 662.97 1083.88 C 675.35 1082.29 685.29 1088.39 686.18 1095.34 Z" fill="#e5912c" fill-rule="nonzero" node-id="183" stroke="none" target-height="28.109985" target-width="47.78003" target-x="639.3" target-y="1082.29"></path><path d="M 647.51 1089.00 C 647.88 1098.17 652.80 1110.22 677.95 1103.76 C 680.50 1103.13 682.65 1101.42 683.83 1099.07 C 685.04 1096.62 684.83 1093.93 678.21 1094.07 C 672.81 1094.28 667.58 1092.13 663.90 1088.17 C 660.66 1084.60 659.69 1080.41 668.84 1077.95 C 677.94 1075.43 687.67 1078.27 693.99 1085.28 C 698.91 1090.85 701.05 1098.47 689.93 1106.64 C 689.93 1106.64 654.17 1137.87 632.09 1106.52 C 632.09 1106.52 622.41 1089.21 636.99 1082.52 C 639.25 1081.51 641.86 1081.68 643.97 1082.98 C 646.07 1084.27 647.40 1086.53 647.51 1089.00 Z" fill="#352415" fill-rule="nonzero" node-id="185" stroke="none" target-height="62.43994" target-width="78.640015" target-x="622.41" target-y="1075.43"></path><path d="M 527.00 567.25 C 524.40 568.65 522.91 571.49 523.24 574.42 C 524.24 585.05 529.39 619.14 551.24 610.42 C 551.24 610.42 572.11 601.58 540.68 571.42 C 540.65 571.35 533.19 564.05 527.00 567.25 Z" fill="#352415" fill-rule="nonzero" node-id="187" stroke="none" target-height="55.090027" target-width="49.200012" target-x="522.91" target-y="564.05"></path><path d="M 395.00 299.25 C 392.40 300.65 390.91 303.49 391.24 306.42 C 392.29 317.05 397.39 351.14 419.24 342.42 C 419.24 342.42 440.11 333.58 408.68 303.42 C 408.65 303.35 401.19 296.05 395.00 299.25 Z" fill="#352415" fill-rule="nonzero" node-id="189" stroke="none" target-height="55.090027" target-width="49.19998" target-x="390.91" target-y="296.05"></path><path d="M 500.05 768.65 C 462.35 792.41 432.11 831.73 424.73 895.93 C 424.73 895.93 404.73 1027.86 512.01 1090.15 C 512.01 1090.15 567.01 1128.37 663.20 1118.59 C 674.28 1117.52 685.22 1115.27 695.83 1111.89 C 763.21 1089.97 760.17 1038.89 760.17 1038.89 C 744.82 1081.75 673.82 1084.35 643.49 1083.44 C 627.98 1083.06 612.75 1079.20 598.92 1072.16 C 547.00 1045.43 540.43 987.00 540.43 987.00 C 522.81 869.16 628.63 847.15 628.63 847.15 C 628.63 847.15 767.09 813.43 771.35 897.36 C 771.35 897.36 804.15 818.57 746.00 768.97" fill="none" node-id="191" stroke="#333333" stroke-linecap="round" stroke-width="14" target-height="359.71997" target-width="399.42" target-x="404.73" target-y="768.65"></path><path d="M 667.30 735.38 C 646.22 733.76 625.04 733.97 604.00 736.00" fill="none" node-id="193" stroke="#333333" stroke-linecap="round" stroke-width="14" target-height="2.2399902" target-width="63.299988" target-x="604" target-y="733.76"></path><path d="M 548.87 816.28 C 548.87 816.28 159.06 466.65 279.35 236.00 C 291.66 212.40 311.35 191.90 336.94 177.81 C 383.57 152.12 461.94 139.46 516.85 289.81 C 516.85 289.81 587.17 518.56 608.85 797.81" fill="none" node-id="195" stroke="#333333" stroke-linecap="round" stroke-width="14" target-height="676.82" target-width="449.78998" target-x="159.06" target-y="139.46"></path><path d="M 731.69 791.13 C 731.69 791.13 1008.69 383.13 864.11 217.92 C 848.86 200.50 827.75 186.86 802.51 179.49 C 753.35 165.15 674.04 168.75 651.51 326.71 C 651.51 326.71 633.07 496.08 673.70 782.42" fill="none" node-id="197" stroke="#333333" stroke-linecap="round" stroke-width="14" target-height="625.98" target-width="375.62" target-x="633.07" target-y="165.15"></path><path d="M 844.81 333.77 C 841.89 335.69 840.71 338.84 841.62 341.59 C 844.90 351.59 857.54 383.32 882.38 369.69 C 882.38 369.69 906.03 356.19 862.18 334.48 C 862.18 334.48 851.76 329.21 844.81 333.77 Z" fill="#352415" fill-rule="nonzero" node-id="199" stroke="none" target-height="54.110016" target-width="65.32001" target-x="840.71" target-y="329.21"></path><path d="M 674.62 566.48 C 671.57 568.12 669.83 571.45 670.22 574.89 C 671.45 587.35 677.43 627.31 703.04 617.07 C 703.04 617.07 727.51 606.70 690.66 571.29 C 690.66 571.29 681.91 562.74 674.62 566.48 Z" fill="#352415" fill-rule="nonzero" node-id="201" stroke="none" target-height="64.57001" target-width="57.679993" target-x="669.83" target-y="562.74"></path><path d="M 362.37 213.60 C 361.02 202.00 362.25 187.39 372.65 175.41 C 372.65 175.41 375.26 157.98 341.10 172.66 C 332.17 176.40 325.40 183.95 322.63 193.22 C 319.63 203.79 321.79 217.34 344.88 226.99 C 349.08 228.71 353.87 228.07 357.47 225.32 C 361.07 222.56 362.94 218.10 362.37 213.60 Z" fill="#352415" fill-rule="nonzero" node-id="203" stroke="none" target-height="70.73001" target-width="55.630005" target-x="319.63" target-y="157.98"></path><path d="M 480.00 662.41 C 484.08 669.71 487.28 679.72 483.69 690.50 C 483.69 690.50 486.75 702.75 505.32 683.66 C 510.18 678.73 512.58 671.89 511.86 665.00 C 510.95 657.18 505.79 648.81 487.86 648.76 C 484.62 648.79 481.64 650.53 480.03 653.34 C 478.41 656.14 478.40 659.59 480.00 662.41 Z" fill="#352415" fill-rule="nonzero" node-id="205" stroke="none" target-height="53.98999" target-width="34.180023" target-x="478.4" target-y="648.76"></path><path d="M 514.91 1075.78 C 521.16 1076.59 528.66 1079.16 533.58 1086.18 C 533.58 1086.18 542.37 1089.84 539.16 1070.01 C 538.38 1064.84 535.31 1060.29 530.81 1057.62 C 525.67 1054.62 518.28 1054.01 510.19 1064.85 C 508.73 1066.82 508.44 1069.42 509.41 1071.67 C 510.38 1073.92 512.48 1075.49 514.91 1075.78 Z" fill="#352415" fill-rule="nonzero" node-id="207" stroke="none" target-height="35.829956" target-width="33.929993" target-x="508.44" target-y="1054.01"></path><path d="M 521.75 863.06 C 525.09 869.06 527.75 877.24 524.75 886.06 C 524.75 886.06 527.25 896.06 542.47 880.45 C 546.47 876.42 548.45 870.80 547.86 865.15 C 547.12 858.74 542.86 851.88 528.20 851.84 C 525.54 851.86 523.08 853.29 521.75 855.60 C 520.42 857.91 520.42 860.75 521.75 863.06 Z" fill="#352415" fill-rule="nonzero" node-id="209" stroke="none" target-height="44.21997" target-width="28.03003" target-x="520.42" target-y="851.84"></path><path d="M 630.75 799.06 C 634.09 805.06 636.75 813.24 633.75 822.06 C 633.75 822.06 636.25 832.06 651.47 816.45 C 655.47 812.42 657.45 806.80 656.86 801.15 C 656.12 794.74 651.86 787.88 637.20 787.84 C 634.54 787.86 632.08 789.29 630.75 791.60 C 629.42 793.91 629.42 796.75 630.75 799.06 Z" fill="#352415" fill-rule="nonzero" node-id="211" stroke="none" target-height="44.21997" target-width="28.03003" target-x="629.42" target-y="787.84"></path><path d="M 749.47 492.55 C 755.26 502.93 759.81 517.16 754.70 532.48 C 754.70 532.48 759.05 549.89 785.45 522.76 C 792.39 515.76 795.82 506.01 794.80 496.21 C 793.51 485.09 786.17 473.21 760.70 473.13 C 756.09 473.16 751.83 475.63 749.52 479.62 C 747.21 483.62 747.19 488.54 749.47 492.55 Z" fill="#352415" fill-rule="nonzero" node-id="213" stroke="none" target-height="76.76001" target-width="48.630005" target-x="747.19" target-y="473.13"></path><path d="M 700.21 302.13 C 707.53 301.52 716.41 302.79 722.55 310.31 C 722.55 310.31 733.00 312.61 728.04 288.62 C 726.75 282.38 722.98 277.38 717.57 275.28 C 711.40 272.90 702.78 274.00 694.00 289.67 C 690.63 295.79 694.08 302.63 700.21 302.13 Z" fill="#352415" fill-rule="nonzero" node-id="215" stroke="none" target-height="39.70999" target-width="42.369995" target-x="690.63" target-y="272.9"></path><path d="M 466.21 312.13 C 473.53 311.52 482.41 312.79 488.55 320.31 C 488.55 320.31 499.00 322.61 494.04 298.62 C 492.75 292.38 488.98 287.38 483.57 285.28 C 477.40 282.90 468.78 284.00 460.00 299.67 C 456.63 305.79 460.08 312.63 466.21 312.13 Z" fill="#352415" fill-rule="nonzero" node-id="217" stroke="none" target-height="39.70999" target-width="42.369995" target-x="456.63" target-y="282.9"></path><path d="M 812.00 518.41 C 816.08 525.71 819.28 535.72 815.69 546.50 C 815.69 546.50 818.75 558.75 837.32 539.66 C 842.18 534.73 844.58 527.89 843.86 521.00 C 842.95 513.18 837.79 504.81 819.86 504.76 C 816.62 504.79 813.64 506.53 812.03 509.34 C 810.41 512.14 810.40 515.59 812.00 518.41 Z" fill="#352415" fill-rule="nonzero" node-id="219" stroke="none" target-height="53.98999" target-width="34.179993" target-x="810.4" target-y="504.76"></path><path d="M 523.00 382.38 C 523.16 392.43 508.00 398.10 490.08 398.38 C 472.16 398.66 456.70 393.48 456.55 383.38 C 456.40 373.28 471.62 363.33 489.55 363.05 C 507.48 362.77 522.89 372.32 523.00 382.38 Z" fill="#e5912c" fill-rule="nonzero" node-id="221" stroke="none" target-height="35.890015" target-width="66.75998" target-x="456.4" target-y="362.77"></path><path d="M 466.76 367.07 C 465.82 380.20 470.89 398.17 507.76 393.02 C 511.50 392.52 514.84 390.43 516.91 387.28 C 519.03 383.97 519.23 380.11 509.69 379.28 C 501.96 378.71 494.85 374.79 490.24 368.56 C 486.24 362.94 485.48 356.81 498.93 354.77 C 512.31 352.64 525.74 358.26 533.62 369.28 C 539.74 378.02 541.56 389.23 524.38 399.09 C 524.38 399.09 468.38 437.86 441.91 389.59 C 441.91 389.59 430.91 363.35 452.77 356.15 C 456.15 355.05 459.86 355.71 462.67 357.89 C 465.47 360.08 467.00 363.52 466.76 367.07 Z" fill="#352415" fill-rule="nonzero" node-id="223" stroke="none" target-height="85.21997" target-width="110.649994" target-x="430.91" target-y="352.64"></path><path d="M 483.10 599.09 C 484.96 613.54 463.48 630.22 437.76 633.54 C 412.04 636.86 385.16 626.41 383.30 611.96 C 381.44 597.51 405.51 586.23 431.23 582.91 C 456.95 579.59 481.24 584.65 483.10 599.09 Z" fill="#e5912c" fill-rule="nonzero" node-id="225" stroke="none" target-height="57.26996" target-width="103.51999" target-x="381.44" target-y="579.59"></path><path d="M 398.29 586.39 C 399.08 605.39 409.29 630.47 461.56 617.05 C 466.86 615.74 471.32 612.18 473.79 607.31 C 476.30 602.21 475.96 596.62 462.10 596.99 C 450.87 597.42 440.02 592.94 432.36 584.72 C 425.62 577.30 423.61 568.58 442.63 563.46 C 461.65 558.34 482.00 564.00 494.92 578.70 C 505.14 590.29 509.59 606.13 486.46 623.11 C 486.46 623.11 412.14 688.01 366.24 622.85 C 366.24 622.85 346.13 586.85 376.43 572.96 C 381.11 570.85 386.54 571.20 390.92 573.89 C 395.29 576.58 398.05 581.26 398.29 586.39 Z" fill="#352415" fill-rule="nonzero" node-id="227" stroke="none" target-height="129.66998" target-width="163.45999" target-x="346.13" target-y="558.34"></path><path d="M 420.63 254.92 C 411.51 251.70 410.63 238.16 416.39 221.92 C 422.15 205.68 431.49 194.92 440.61 198.18 C 449.73 201.44 454.80 217.18 449.08 233.43 C 443.36 249.68 429.75 258.13 420.63 254.92 Z" fill="#e5912c" fill-rule="nonzero" node-id="229" stroke="none" target-height="63.210007" target-width="44.169983" target-x="410.63" target-y="194.92"></path><path d="M 452.49 211.32 C 440.96 206.09 423.06 204.66 415.40 239.67 C 414.59 243.21 415.37 246.92 417.52 249.84 C 419.80 252.84 423.21 254.32 427.13 245.99 C 430.22 239.19 436.13 234.08 443.30 231.99 C 449.71 230.21 455.48 231.62 452.83 244.43 C 450.29 257.21 440.74 267.46 428.17 270.89 C 418.24 273.49 407.52 271.39 404.36 252.60 C 404.36 252.60 388.08 189.12 440.45 181.38 C 440.45 181.38 467.79 180.20 466.99 202.38 C 466.83 205.78 465.00 208.89 462.10 210.68 C 459.20 212.47 455.60 212.71 452.49 211.32 Z" fill="#352415" fill-rule="nonzero" node-id="231" stroke="none" target-height="93.28999" target-width="79.71002" target-x="388.08" target-y="180.2"></path><path d="M 736.00 1010.00 L 791.48 992.00" fill="#ffffff" fill-rule="nonzero" node-id="233" stroke="#333333" stroke-linecap="round" stroke-width="7.74" target-height="18" target-width="55.47998" target-x="736" target-y="992"></path><path d="M 736.00 1044.00 L 792.36 1060.00" fill="#ffffff" fill-rule="nonzero" node-id="235" stroke="#333333" stroke-linecap="round" stroke-width="7.74" target-height="16" target-width="56.359985" target-x="736" target-y="1044"></path><path d="M 736.00 1027.00 L 795.00 1027.00" fill="#ffffff" fill-rule="nonzero" node-id="237" stroke="#333333" stroke-linecap="round" stroke-width="7.74" target-height="0" target-width="59" target-x="736" target-y="1027"></path><path d="M 641.74 1014.46 L 576.58 1007.59" fill="#ffffff" fill-rule="nonzero" node-id="239" stroke="#333333" stroke-linecap="round" stroke-width="7.74" target-height="6.869995" target-width="65.15997" target-x="576.58" target-y="1007.59"></path><path d="M 647.60 1047.96 L 587.32 1074.75" fill="#ffffff" fill-rule="nonzero" node-id="241" stroke="#333333" stroke-linecap="round" stroke-width="7.74" target-height="26.79004" target-width="60.27997" target-x="587.32" target-y="1047.96"></path><path d="M 644.67 1031.21 L 578.67 1042.76" fill="#ffffff" fill-rule="nonzero" node-id="243" stroke="#333333" stroke-linecap="round" stroke-width="7.74" target-height="11.550049" target-width="66" target-x="578.67" target-y="1031.21"></path></svg>