<svg height="1200" node-id="1" sillyvg="true" template-height="1200" template-width="1200" version="1.1" viewBox="0 0 1200 1200" width="1200" xmlns="http://www.w3.org/2000/svg" xmlns:xlink="http://www.w3.org/1999/xlink"><defs node-id="35"><linearGradient gradientUnits="userSpaceOnUse" id="未命名的渐变_40" node-id="5" spreadMethod="pad" x1="425.57" x2="425.57" y1="806.28" y2="152.06"><stop offset="0" stop-color="#bdced6"></stop><stop offset="0.25" stop-color="#b9cad2"></stop><stop offset="0.49" stop-color="#adbfc8"></stop><stop offset="0.73" stop-color="#9aabb6"></stop><stop offset="0.97" stop-color="#7e909d"></stop><stop offset="1" stop-color="#7a8c99"></stop></linearGradient><linearGradient gradientUnits="userSpaceOnUse" id="未命名的渐变_40-2" node-id="12" spreadMethod="pad" x1="769.6" x2="769.6" y1="781.13" y2="164.08"><stop offset="0" stop-color="#bdced6"></stop><stop offset="0.25" stop-color="#b9cad2"></stop><stop offset="0.49" stop-color="#adbfc8"></stop><stop offset="0.73" stop-color="#9aabb6"></stop><stop offset="0.97" stop-color="#7e909d"></stop><stop offset="1" stop-color="#7a8c99"></stop></linearGradient></defs><path d="M 0.00 0.00 L 1200.00 0.00 L 1200.00 1200.00 L 0.00 1200.00 Z" fill="#edf1f7" fill-rule="nonzero" node-id="66" stroke="none" target-height="1200" target-width="1200" target-x="0" target-y="0"></path><path d="M 673.91 1084.68 C 772.03 1063.36 762.75 1001.01 752.83 966.56 C 749.43 954.48 749.83 941.65 754.00 929.81 C 763.60 902.06 766.00 878.07 764.62 858.03 C 761.63 816.09 730.35 781.62 688.89 774.59 C 387.89 722.77 485.89 1004.16 485.89 1004.16 C 485.89 1004.16 521.59 1062.69 569.04 1086.06 C 569.00 1086.06 638.83 1101.84 673.91 1084.68 Z" fill="#fffbf3" fill-rule="nonzero" node-id="68" stroke="#333333" stroke-linecap="round" stroke-width="14" target-height="379.06995" target-width="384.14" target-x="387.89" target-y="722.77"></path><path d="M 702.35 911.26 C 709.35 906.26 723.18 904.51 731.28 910.38" fill="#ffffff" fill-rule="nonzero" node-id="70" stroke="#333333" stroke-linecap="round" stroke-width="7.74" target-height="6.75" target-width="28.930054" target-x="702.35" target-y="904.51"></path><path d="M 611.12 919.63 C 620.12 911.21 639.24 908.79 648.45 913.14" fill="#ffffff" fill-rule="nonzero" node-id="72" stroke="#333333" stroke-linecap="round" stroke-width="7.74" target-height="10.840027" target-width="37.330017" target-x="611.12" target-y="908.79"></path><path d="M 672.62 1025.13 C 681.15 1026.01 689.12 1025.50 696.06 1022.41" fill="#ffffff" fill-rule="nonzero" node-id="74" stroke="#333333" stroke-linecap="round" stroke-width="7.74" target-height="3.6000366" target-width="23.440002" target-x="672.62" target-y="1022.41"></path><path d="M 689.83 1101.89 C 757.21 1079.97 754.17 1028.89 754.17 1028.89 C 738.82 1071.75 667.82 1074.35 637.49 1073.44 C 621.98 1073.06 606.75 1069.20 592.92 1062.16 C 541.00 1035.43 534.43 977.00 534.43 977.00 C 516.81 859.16 622.63 837.15 622.63 837.15 C 622.63 837.15 761.09 803.43 765.35 887.36 C 765.35 887.36 800.05 800.30 730.68 751.53 C 711.91 738.35 689.85 728.00 667.00 725.87 C 607.38 720.24 437.65 721.09 418.72 885.93 C 418.72 885.93 398.72 1017.86 506.00 1080.15 C 506.00 1080.15 561.00 1118.37 657.19 1108.59 C 668.28 1107.52 679.22 1105.27 689.83 1101.89 Z" fill="#bdced6" fill-rule="nonzero" node-id="76" stroke="#333333" stroke-linecap="round" stroke-width="14" target-height="398.13" target-width="401.33" target-x="398.72" target-y="720.24"></path><path d="M 541.87 806.28 C 541.87 806.28 152.06 456.65 272.35 226.00 C 284.66 202.40 304.35 181.90 329.94 167.81 C 376.57 142.12 454.94 129.46 509.85 279.81 C 509.85 279.81 580.17 508.56 601.85 787.81" fill="url(#未命名的渐变_40)" fill-rule="nonzero" node-id="78" stroke="#333333" stroke-linecap="round" stroke-width="14" target-height="676.82" target-width="449.78998" target-x="152.06" target-y="129.46"></path><path d="M 724.69 781.13 C 724.69 781.13 1001.69 373.13 857.11 207.92 C 841.86 190.50 820.75 176.86 795.51 169.49 C 746.35 155.15 667.04 158.75 644.51 316.71 C 644.51 316.71 626.07 486.08 666.70 772.42" fill="url(#未命名的渐变_40-2)" fill-rule="nonzero" node-id="80" stroke="#333333" stroke-linecap="round" stroke-width="14" target-height="625.98" target-width="375.62" target-x="626.07" target-y="155.15"></path><g node-id="114"><path d="M 631.20 941.48 L 633.81 941.79 L 636.19 942.50 L 638.39 943.61 L 640.36 945.07 L 642.03 946.81 L 643.40 948.83 L 644.40 951.06 L 644.99 953.45 L 645.16 956.05 L 644.85 958.63 L 644.13 960.98 L 643.01 963.15 L 641.53 965.10 L 639.78 966.75 L 637.73 968.10 L 635.48 969.09 L 633.06 969.68 L 630.44 969.85 L 627.82 969.53 L 625.44 968.82 L 623.25 967.71 L 621.27 966.25 L 619.61 964.51 L 618.24 962.49 L 617.24 960.26 L 616.65 957.87 L 616.47 955.28 L 616.79 952.69 L 617.50 950.34 L 618.62 948.17 L 620.10 946.22 L 621.85 944.58 L 623.91 943.22 L 626.16 942.23 L 628.57 941.65 L 631.20 941.48 Z" fill="#ffffff" fill-rule="nonzero" group-id="1" node-id="84" stroke="#333333" stroke-linecap="round" stroke-width="7.9999995" target-height="28.369995" target-width="28.690002" target-x="616.47" target-y="941.48"></path></g><g node-id="115"><path d="M 713.15 933.78 L 715.77 934.09 L 718.15 934.80 L 720.34 935.91 L 722.32 937.38 L 723.98 939.11 L 725.35 941.14 L 726.35 943.36 L 726.94 945.76 L 727.12 948.35 L 726.80 950.93 L 726.09 953.29 L 724.97 955.46 L 723.49 957.41 L 721.74 959.05 L 719.68 960.41 L 717.43 961.40 L 715.02 961.98 L 712.39 962.15 L 709.78 961.84 L 707.40 961.13 L 705.20 960.02 L 703.23 958.55 L 701.57 956.82 L 700.19 954.79 L 699.19 952.56 L 698.60 950.17 L 698.43 947.58 L 698.74 945.00 L 699.46 942.64 L 700.58 940.47 L 702.06 938.52 L 703.81 936.88 L 705.86 935.52 L 708.11 934.53 L 710.53 933.95 L 713.15 933.78 Z" fill="#ffffff" fill-rule="nonzero" group-id="2" node-id="89" stroke="#333333" stroke-linecap="round" stroke-width="7.9999995" target-height="28.369995" target-width="28.690002" target-x="698.43" target-y="933.78"></path></g><path d="M 212.07 480.01 L 467.00 208.00 L 368.00 408.00 L 508.03 426.60 L 217.00 724.00 L 332.00 496.00 L 212.07 480.01 Z" fill="#ffec9c" fill-rule="nonzero" node-id="92" stroke="#333333" stroke-linecap="round" stroke-width="8" target-height="516" target-width="295.96" target-x="212.07" target-y="208"></path><path d="M 767.86 305.68 L 951.00 109.00 L 878.32 251.27 L 974.20 268.44 L 769.00 465.00 L 866.00 308.00 L 767.86 305.68 Z" fill="#ffec9c" fill-rule="nonzero" node-id="94" stroke="#333333" stroke-linecap="round" stroke-width="8" target-height="356" target-width="206.34003" target-x="767.86" target-y="109"></path><path d="M 793.13 559.45 L 881.28 464.96 L 857.89 533.53 L 910.91 538.19 L 797.39 633.50 L 832.28 560.23 L 793.13 559.45 Z" fill="#ffec9c" fill-rule="nonzero" node-id="96" stroke="#333333" stroke-linecap="round" stroke-width="8" target-height="168.54001" target-width="117.77997" target-x="793.13" target-y="464.96"></path><path d="M 328.61 722.31 L 243.49 804.28" fill="#ff8d8d" fill-rule="nonzero" node-id="98" stroke="#333333" stroke-linecap="round" stroke-width="6" target-height="81.97003" target-width="85.11998" target-x="243.49" target-y="722.31"></path><path d="M 280.00 850.00 L 215.49 912.28" fill="#ff8d8d" fill-rule="nonzero" node-id="100" stroke="#333333" stroke-linecap="round" stroke-width="6" target-height="62.28003" target-width="64.509995" target-x="215.49" target-y="850"></path><path d="M 562.61 551.31 L 495.00 616.00" fill="#ff8d8d" fill-rule="nonzero" node-id="102" stroke="#333333" stroke-linecap="round" stroke-width="6" target-height="64.69" target-width="67.609985" target-x="495" target-y="551.31"></path><path d="M 520.00 655.00 L 463.49 709.28" fill="#ff8d8d" fill-rule="nonzero" node-id="104" stroke="#333333" stroke-linecap="round" stroke-width="6" target-height="54.28003" target-width="56.51001" target-x="463.49" target-y="655"></path><path d="M 383.00 951.00 L 338.49 994.28" fill="#ff8d8d" fill-rule="nonzero" node-id="106" stroke="#333333" stroke-linecap="round" stroke-width="6" target-height="43.28003" target-width="44.51001" target-x="338.49" target-y="951"></path><path d="M 878.00 676.00 L 827.49 724.28" fill="#ff8d8d" fill-rule="nonzero" node-id="108" stroke="#333333" stroke-linecap="round" stroke-width="6" target-height="48.28003" target-width="50.51001" target-x="827.49" target-y="676"></path><path d="M 831.00 811.00 L 768.49 871.28" fill="#ff8d8d" fill-rule="nonzero" node-id="110" stroke="#333333" stroke-linecap="round" stroke-width="6" target-height="60.28003" target-width="62.51001" target-x="768.49" target-y="811"></path><path d="M 355.00 1021.00 L 292.49 1081.28" fill="#ff8d8d" fill-rule="nonzero" node-id="112" stroke="#333333" stroke-linecap="round" stroke-width="6" target-height="60.28003" target-width="62.51001" target-x="292.49" target-y="1021"></path></svg>