<svg xml:space="preserve" style="enable-background:new 0 0 1200 1200;" viewBox="0 0 1200 1200" y="0px" x="0px" xmlns:xlink="http://www.w3.org/1999/xlink" xmlns="http://www.w3.org/2000/svg" id="奶朵朵" version="1.1">
<style type="text/css">
	.st0{fill:#F7EBD2;}
	.st1{clip-path:url(#SVGID_2_);}
	.st2{fill:#FFFFFF;}
	.st3{fill:#B3976B;}
	.st4{clip-path:url(#SVGID_4_);}
	.st5{opacity:0.3;clip-path:url(#SVGID_4_);fill:#7A570C;}
	.st6{opacity:0.3;clip-path:url(#SVGID_4_);fill:#664F1E;}
	.st7{fill-rule:evenodd;clip-rule:evenodd;fill:#FFD219;}
	.st8{clip-path:url(#SVGID_4_);fill:#25B83B;}
	.st9{clip-path:url(#SVGID_4_);fill:#B3976B;}
	.st10{clip-path:url(#SVGID_4_);fill:#2E2725;}
	.st11{fill:#FC9799;}
	.st12{fill:#2E2725;}
	.st13{clip-path:url(#SVGID_6_);}
	.st14{opacity:0.3;clip-path:url(#SVGID_6_);fill:#7A570C;}
</style>
<rect height="1200" width="1200" class="st0"></rect>
<g>
	<defs>
		<rect height="1200" width="1200" id="SVGID_1_"></rect>
	</defs>
	<clipPath id="SVGID_2_">
		<use style="overflow:visible;" xlink:href="#SVGID_1_"></use>
	</clipPath>
	<g class="st1" id="head_12_">
		<g>
			<path d="M149.44,384.36l109.59-122.09c2.53-2.81,6.42-3.96,10.07-2.97l97.76,26.58L149.44,384.36z" class="st2"></path>
			<path d="M149.44,389.86c-1.31,0-2.62-0.46-3.67-1.41c-2.26-2.03-2.45-5.51-0.42-7.77L254.94,258.6
				c3.94-4.39,9.92-6.15,15.61-4.6l97.75,26.58c2.93,0.8,4.66,3.82,3.86,6.75c-0.8,2.93-3.82,4.66-6.75,3.86l-97.76-26.58
				c-1.66-0.45-3.39,0.06-4.54,1.33L153.54,388.04C152.45,389.25,150.95,389.86,149.44,389.86z" class="st3"></path>
		</g>
		<path d="M1014.18,385.51c0,0,48.58,23.43,74.56-21.72c16.47-28.63,23.61-70.42,26.39-92.59
			c0.42-3.36,5.14-3.74,6.08-0.49c15.4,53.27,57.54,232.31-81.13,204.92C877.47,443.53,1014.18,385.51,1014.18,385.51z" class="st3"></path>
		<path d="M431.88,264.05c1.84-0.84,1.42-3.56-0.58-3.8c-33.83-4.02-75.86-14.23-115.45-41.22
			c-72.7-49.56-90.9-119.24-95.73-145.47c-0.56-3.05-4.75-3.46-5.91-0.59c-16.99,42.11-73.44,202.77,75.64,251.59
			c2.37,0.78,4.96,0.66,7.24-0.36L431.88,264.05z" class="st3"></path>
		<g>
			<path d="M1037.33,346.87l-146.73-86.31c-6.25-3.89-13.15-6.6-20.38-7.99l-484.68-93.3c-2.08-0.4-3.27,2.28-1.59,3.56
				c0,0,65.47,53.1,87.25,71.1L1037.33,346.87z" class="st2"></path>
			<path d="M1037.33,352.37c-0.95,0-1.91-0.25-2.78-0.76L887.7,265.23c-5.7-3.55-11.92-5.99-18.51-7.26l-470.98-90.66
				c19.55,15.88,60.31,49,76.5,62.38c2.34,1.94,2.67,5.4,0.74,7.74c-1.94,2.34-5.4,2.67-7.74,0.74
				c-21.26-17.57-85.03-69.3-87.16-71.03c-2.72-2.13-3.64-5.8-2.22-8.96c1.43-3.2,4.83-4.97,8.27-4.31l484.68,93.3
				c7.89,1.52,15.36,4.44,22.19,8.68l146.67,86.28c2.62,1.54,3.49,4.91,1.95,7.53C1041.05,351.4,1039.21,352.37,1037.33,352.37z" class="st3"></path>
		</g>
		<g>
			<defs>
				<path d="M768.42,915.76l262.55-64.24c8.92-2.18,15.21-10.16,15.25-19.34l1.89-460.54
					c0.02-5.76-4.05-10.73-9.71-11.83L494.64,254.1c-8.12-1.58-16.53-0.6-24.07,2.8L147.37,398.54c-4.38,1.92-7.2,6.26-7.18,11.04
					l1.89,439.86c0.04,9.96,7.4,18.36,17.26,19.73l209.23,28.89l361.67,26L768.42,915.76z" id="SVGID_3_"></path>
			</defs>
			<clipPath id="SVGID_4_">
				<use style="overflow:visible;" xlink:href="#SVGID_3_"></use>
			</clipPath>
			<g class="st4">
				<path d="M758.42,919.76l271.21-67.6c9.77-2.44,16.64-11.19,16.68-21.26l1.8-461.08c0.03-5.29-3.71-9.85-8.9-10.86
					L494.64,253.1c-8.12-1.58-16.53-0.6-24.07,2.8L147.36,397.55c-4.37,1.92-7.19,6.24-7.18,11.02l0.94,438.33
					c0.03,11.98,8.89,22.11,20.76,23.73l208.71,28.44L758.42,919.76z" class="st2"></path>
				<path d="M758.42,931.76c-0.21,0-0.43-0.01-0.64-0.02l-387.84-20.69c-0.33-0.02-0.66-0.05-0.98-0.09l-208.71-28.44
					c-17.71-2.41-31.1-17.72-31.14-35.59l-0.94-438.33c-0.02-9.55,5.62-18.2,14.37-22.03L465.7,244.94
					c9.84-4.42,20.63-5.67,31.23-3.61l544.57,105.86c10.85,2.11,18.68,11.66,18.61,22.71l-1.8,461.05
					c-0.06,15.58-10.66,29.09-25.78,32.86l-271.21,67.6C760.37,931.64,759.4,931.76,758.42,931.76z M371.71,887.11l385.56,20.56
					l269.46-67.16c4.45-1.11,7.56-5.08,7.58-9.67l1.79-460.27l-543.75-105.7c-5.72-1.11-11.54-0.43-16.85,1.96
					c-0.04,0.02-0.08,0.03-0.12,0.05L152.17,408.54l0.94,438.33c0.01,5.96,4.47,11.06,10.38,11.86L371.71,887.11z" class="st3"></path>
			</g>
			<path d="M139.93,475.84c0,0,49.88,9.57,60.52,65.1c10.64,55.53-35.25,82.97-38.58,109.14
				c-3.33,26.17,7.99,58.08,4.66,75.95c-3.33,17.87-13.97,49.44-44.56,40.51S139.93,475.84,139.93,475.84z" class="st5"></path>
			<path d="M354.74,291.28c0,0-10.64,46.56,34.58,63.85c45.23,17.29,62.84,29.92,59.51,55.2
				c-3.33,25.27-19.67,65.83,2.27,107.11c40.64,76.46,160.31,80.36,235.49,41.16c168.29-87.74,96.19-276.65,95.52-300.59
				s-286.38-53.18-334.26-36.56S354.74,291.28,354.74,291.28z" class="st5"></path>
			<path d="M381.25,901.46l-223.54-31.48c-6.16-0.87-7.06-9.4-1.21-11.53l309.83-112.66
				c9.96-3.64,20.72-4.54,31.14-2.61l530.2,97.52c6.18,1.14,6.64,9.82,0.61,11.6l-29.07,8.6l-264.63,64.94L381.25,901.46z" class="st5"></path>
			<path d="M483.41,698.86c-2.49,0-4.5-2.01-4.5-4.5V285.25c0-2.49,2.01-4.5,4.5-4.5s4.5,2.01,4.5,4.5v409.11
				C487.91,696.84,485.89,698.86,483.41,698.86z" class="st6"></path>
			<g class="st4">
				<path d="M279.47,382.58v39.12c0,1.43,1.44,2.41,2.78,1.89l29.31-11.58c0.77-0.31,1.28-1.05,1.28-1.89v-40.01
					c0-1.46-1.49-2.44-2.83-1.87l-29.31,12.48C279.96,381.04,279.47,381.77,279.47,382.58z" class="st7"></path>
				<path d="M230.24,444.15l29.33-11.59c0.77-0.3,1.28-1.05,1.28-1.88v-38.45c0-1.45-1.48-2.42-2.81-1.86l-29.33,12.49
					c-0.74,0.32-1.23,1.05-1.23,1.86v37.56C227.47,443.7,228.91,444.68,230.24,444.15z" class="st7"></path>
				<path d="M179.22,464.31l29.35-11.6c0.77-0.3,1.27-1.04,1.27-1.87v-36.92c0-1.44-1.47-2.41-2.8-1.85l-29.35,12.49
					c-0.74,0.32-1.22,1.04-1.22,1.85v36.02C176.47,463.86,177.9,464.84,179.22,464.31z" class="st7"></path>
			</g>
			<path d="M744.75,635.01c0,0,21.18,15.87,25.98,48.74c0,0-28.28-3.25-43.97-24.38c-3.62-4.88,3.09-35.13,8.18-32
				C740.14,630.57,744.75,635.01,744.75,635.01z" class="st8"></path>
			<path d="M712.02,679.19c-0.05,0-0.09,0-0.14,0c-1.72-0.03-3.36-0.6-4.73-1.66c-3.5-2.69-4.15-7.72-1.47-11.22
				c29.47-38.33,7.89-91.37,7.67-91.9c-1.7-4.07,0.22-8.77,4.29-10.47c4.07-1.7,8.77,0.23,10.47,4.29c0.42,1,10,24.27,9.13,52.42
				c14.61,4.22,49.57,13.09,89.13,14.36l0,0c2.14,0.07,4.12,0.96,5.58,2.52s2.23,3.59,2.16,5.73c-0.14,4.3-3.71,7.74-7.99,7.74
				c-0.05,0-0.09,0-0.14,0L825.8,651c-38.3-1.22-72.22-9.15-90.24-14.19c-2.68,14.71-8.46,27.9-17.19,39.25
				C716.86,678.02,714.5,679.19,712.02,679.19z" class="st9"></path>
			<path d="M920.43,588c-16.02,0-29-12.98-29-29v-22c0-16.02,12.98-29,29-29s29,12.98,29,29v22
				C949.43,575.02,936.45,588,920.43,588z" class="st10"></path>
			<path d="M644.43,534.95c-16.57,0-30-13.43-30-30V481.9c0-16.57,13.43-30,30-30s30,13.43,30,30v23.05
				C674.43,521.52,661,534.95,644.43,534.95z" class="st10"></path>
		</g>
		<path d="M577.29,190.31l109.92,91.48c2.24,1.9,3.53,4.69,3.53,7.63l2,147.85c0,3.19,3.55,5.09,6.21,3.34l39.32-26
			c1.66-1.1,3.87-0.81,5.19,0.67l37.24,41.68c1.39,1.55,3.73,1.78,5.4,0.53l35.46-26.81c1.52-1.15,3.63-1.07,5.05,0.19l48.51,42.66
			c2.65,2.33,6.79,0.34,6.64-3.18l-5.4-146.03c-0.13-2.92-1.52-5.64-3.83-7.44l-125.1-92.49c-2.43-1.79-5.22-3.01-8.19-3.57
			L577.29,190.31z" class="st11"></path>
		<path d="M881.72,493.51c2.03,16.04,19.65,28.57,41.07,28.57c17.97,0,33.26-8.82,38.93-21.13L881.72,493.51z" class="st2"></path>
		<path d="M922.76,528c-23.82,0-43.59-14.26-45.98-33.17c-0.45-3.52,2.05-6.74,5.57-7.19
			c3.51-0.45,6.74,2.05,7.19,5.57c1.56,12.3,16.16,21.93,33.23,21.93c14.38,0,27.12-6.68,31.69-16.63c1.48-3.22,5.31-4.64,8.53-3.15
			c3.23,1.48,4.64,5.3,3.15,8.53C959.49,518.31,942.06,528,922.76,528z" class="st12"></path>
		<path d="M688.98,451.06c-3.08,0-5.88-2.09-6.66-5.21c-3.37-13.62-19.37-23.98-38.05-24.62
			c-15.57-0.55-29.49,6.8-35.42,18.68c-1.69,3.39-5.82,4.77-9.2,3.08c-3.39-1.69-4.77-5.81-3.08-9.2
			c8.32-16.68,27.22-26.99,48.17-26.27c25.08,0.86,46.01,15.27,50.9,35.04c0.91,3.68-1.33,7.4-5.01,8.31
			C690.08,450.99,689.53,451.06,688.98,451.06z" class="st12"></path>
		<g>
			<path d="M181.6,679.68l22.24-8.87c2.21-0.88,4.7,0.36,5.33,2.66l12.28,45.06l0.7-0.28l13.57-58.31
				c0.3-1.27,1.2-2.32,2.41-2.8l20.68-8.25c2.62-1.05,5.47,0.89,5.47,3.71v88.57c0,1.63-1,3.1-2.51,3.71l-9.57,3.82
				c-2.62,1.05-5.47-0.89-5.47-3.71v-70.55l-0.7,0.28l-15.19,62.36c-0.31,1.25-1.2,2.28-2.4,2.76l-11.82,4.71
				c-2.18,0.87-4.64-0.32-5.3-2.57l-14.2-47.75l-0.7,0.28v73.74c0,1.63-1,3.1-2.51,3.71l-9.34,3.72c-2.62,1.05-5.47-0.89-5.47-3.71
				v-88.57C179.08,681.75,180.08,680.29,181.6,679.68z" class="st11"></path>
			<path d="M290.03,647.49c-1.87,0.75-3.43,1.25-4.68,1.52c-1.25,0.27-2.22,0.17-2.93-0.3
				c-0.7-0.47-1.19-1.35-1.46-2.64c-0.27-1.29-0.41-3.15-0.41-5.58c0-2.33,0.14-4.25,0.41-5.76c0.27-1.51,0.76-2.78,1.46-3.8
				c0.7-1.03,1.68-1.88,2.93-2.57c1.25-0.68,2.81-1.4,4.68-2.15c1.95-0.78,3.53-1.31,4.74-1.61c1.21-0.29,2.17-0.21,2.87,0.26
				c0.7,0.47,1.19,1.35,1.46,2.64c0.27,1.29,0.41,3.11,0.41,5.44c0,2.43-0.14,4.39-0.41,5.9c-0.27,1.51-0.76,2.78-1.46,3.8
				c-0.7,1.03-1.66,1.9-2.87,2.61C293.56,645.96,291.98,646.71,290.03,647.49z M285.26,659.89l7.66-3.06
				c2.65-1.06,5.53,0.89,5.53,3.75v66.91c0,1.65-1.01,3.14-2.54,3.75l-8.9,3.55c-2.65,1.06-5.53-0.89-5.53-3.75v-65.58
				C281.48,663.01,282.98,660.8,285.26,659.89z" class="st11"></path>
			<path d="M333.56,717.06c-3.51,1.4-6.44,2.17-8.78,2.31c-2.34,0.14-4.23-0.29-5.68-1.31
				c-1.44-1.01-2.46-2.64-3.04-4.88c-0.58-2.24-0.88-5.04-0.88-8.4v-83.57c0-2.46,1.5-4.66,3.78-5.57l7.7-3.07
				c2.63-1.05,5.49,0.89,5.49,3.72v76.83c0,3.36,0.39,5.45,1.17,6.25c0.78,0.81,2.15,0.83,4.1,0.05c0.47-0.19,0.97-0.41,1.52-0.68
				l0.02-0.01c0.86-0.42,1.86,0.21,1.86,1.16v11.17c0,1.44-0.77,2.78-2.03,3.49C337.13,715.5,335.39,716.33,333.56,717.06z" class="st11"></path>
			<path d="M404.93,687.76l-12.57,5.01c-2.62,1.05-5.62,0.12-7.2-2.22l-13.43-19.95c-0.56-0.83-1.62-1.16-2.55-0.79h0
				c-0.81,0.32-1.34,1.1-1.34,1.97v28.05c0,1.64-1,3.11-2.52,3.72l-8.97,3.58c-2.63,1.05-5.48-0.89-5.48-3.72v-96.43
				c0-2.46,1.5-4.66,3.78-5.57l7.71-3.08c2.63-1.05,5.48,0.89,5.48,3.72v49.67c0,1.48,1.49,2.49,2.87,1.94l0,0
				c0.49-0.19,0.89-0.57,1.11-1.04l14.8-30.89c0.87-1.81,2.39-3.23,4.25-3.97l11.83-4.72c1.71-0.68,3.36,1.12,2.52,2.76l-19.5,38.4
				c-0.35,0.68-0.27,1.5,0.19,2.11l20.28,26.85C407.4,684.74,406.77,687.02,404.93,687.76z" class="st11"></path>
		</g>
	</g>
	<g class="st1" id="body_11_">
		<g>
			<polygon points="738.86,1159.86 743.86,1209.87 827.86,1209.87 821.86,1157.86" class="st2"></polygon>
			<path d="M827.86,1214.87h-84c-2.57,0-4.72-1.95-4.98-4.5l-5-50.01c-0.14-1.38,0.31-2.76,1.23-3.81
				c0.92-1.04,2.24-1.65,3.63-1.69l83-2c0.04,0,0.08,0,0.12,0c2.53,0,5.67,1.9,5.96,4.43l6,52.01c0.16,1.42-1.29,2.84-2.23,3.9
				C830.65,1214.26,829.29,1214.87,827.86,1214.87z M748.39,1204.87h73.87l-4.83-41.9l-73.04,1.76L748.39,1204.87z" class="st3"></path>
		</g>
		<g>
			<defs>
				<path d="M734.86,1160.86l4.5,49.01h-466.5c0,0-14.15-384.08,257-384.08c112.29,0,191.89,42.5,243.72,101.46
					c84.79,96.46,98.28,233.6,98.28,233.6h-149L734.86,1160.86z" id="SVGID_5_"></path>
			</defs>
			<clipPath id="SVGID_6_">
				<use style="overflow:visible;" xlink:href="#SVGID_5_"></use>
			</clipPath>
			<g class="st13">
				<path d="M863.08,1161.16c4.76-0.16,8.33-4.41,7.65-9.13c-4.6-31.81-25.21-142.93-97.15-224.77
					c-51.83-58.96-131.43-101.46-243.72-101.46c-129.64,0-194.06,87.79-225.99,179.43c0,0-9.73,27.43-18.76,70.92
					c-9.03,43.48-9.47,65.08-9.47,65.08c-3.81,40.76-2.78,68.65-2.78,68.65h468.5l71.97-47.03L863.08,1161.16z" class="st2"></path>
				<path d="M741.36,1219.87H263.23l-0.35-9.63c-0.04-1.16-1-28.87,2.78-69.63c0.11-3.28,1.11-25.28,9.66-66.5
					c9.06-43.65,18.72-71.08,19.12-72.23c18.85-54.09,45.44-97.2,79.01-128.1c41.82-38.48,94.44-57.99,156.41-57.99
					c131.46,0,209.18,57.02,251.23,104.86c44.99,51.18,69.97,113.46,83,156.69c14.09,46.74,17.58,81.1,17.72,82.54l-19.9,1.96
					l9.95-0.98l-9.95,0.98c-0.03-0.34-3.5-34.21-17.1-79.18c-12.46-41.2-36.24-100.46-78.74-148.81
					c-56.39-64.15-138.07-98.07-236.21-98.07c-56.79,0-104.85,17.73-142.87,52.71c-31.12,28.64-55.92,69.02-73.69,120.01
					c-0.11,0.32-9.65,27.46-18.41,69.66c-8.67,41.79-9.26,63.05-9.26,63.26l-0.04,0.71c-2.4,25.71-2.84,46.36-2.86,57.72h458.62
					V1219.87z" class="st3"></path>
			</g>
			<path d="M346.97,917.3c0,0,23.22,15.83,16.88,40.1c-6.33,24.27-17.94,50.65,7.39,75.97
				c25.32,25.32,83.12,0.94,105.51,32.71c23.15,32.84,18.99,62.25-2.11,117.12c-21.1,54.87,43.26,119.23,43.26,119.23l-272.22-33.76
				c0,0-58.03-138.22-6.33-237.41S346.97,917.3,346.97,917.3z" class="st14"></path>
			<path d="M473.8,941.75c10.14-62.6,70.24-52.83,93.78-14.96c8.98,15.96,37.91,14.96,54.87,24.94
				c59.6,35.05,3.45,171.68-80.75,91.48c-14.05-10.68-27.3-16.51-35.98-22.62C477.79,1000.94,470.24,963.73,473.8,941.75z" class="st14"></path>
			<path d="M805.97,965.71c0,0-65.84,12.97-58.86,78.81c6.98,65.84,73.82,55.87,79.81,59.86
				c5.99,3.99,4.67,16.96,20.95,21.93c15.79,4.82,21.92-16.94,21.92-16.94l-21.35-84.69L805.97,965.71z" class="st14"></path>
		</g>
		<path d="M873.09,1156.8c-0.29-2.75-2.76-4.73-5.5-4.44c-0.42,0.04-42.21,4.49-84.83,5.95
			c-79.28,2.73-88.16-7.15-89.14-9.16l-0.23-0.48l-0.33-0.42c-9.67-12.39-22.89-131.91-28.96-204.34c-0.23-2.75-2.65-4.79-5.4-4.57
			c-2.75,0.23-4.8,2.65-4.57,5.4c0.04,0.47,4.02,47.85,9.69,96.84c0.92,7.94,1.81,15.31,2.67,22.16
			c-31.18-37.76-40.36-87.75-40.46-88.29c-0.48-2.72-3.08-4.53-5.79-4.05c-2.72,0.48-4.53,3.07-4.05,5.79
			c0.45,2.52,11.36,62.15,51.37,102.64c0.35,0.35,0.75,0.62,1.16,0.85c7.46,54.63,12.65,68.44,16.14,73.29
			c3.83,7.17,16.36,14.82,71.76,14.82c7.93,0,16.75-0.16,26.53-0.49c42.98-1.48,85.08-5.96,85.5-6
			C871.39,1162.01,873.38,1159.54,873.09,1156.8z" class="st3"></path>
	</g>
</g>
</svg>
