<svg xml:space="preserve" style="enable-background:new 0 0 1200 1200;" viewBox="0 0 1200 1200" y="0px" x="0px" xmlns:xlink="http://www.w3.org/1999/xlink" xmlns="http://www.w3.org/2000/svg" id="孤独患者" version="1.1">
<style type="text/css">
	.st0{fill:#C9F5D7;}
	.st1{clip-path:url(#SVGID_2_);}
	.st2{fill:#22A853;}
	.st3{opacity:0.8;fill:#FFFFFF;}
	.st4{fill:#25B83B;}
	.st5{fill:#FFFFFF;}
	.st6{clip-path:url(#SVGID_4_);}
	.st7{fill:#22A864;}
	.st8{opacity:0.3;clip-path:url(#SVGID_4_);fill:#3E9452;}
	.st9{clip-path:url(#SVGID_4_);fill:#F43B2E;}
	.st10{clip-path:url(#SVGID_4_);fill:#FFFFFF;}
	.st11{fill:#2E2725;}
	.st12{fill-rule:evenodd;clip-rule:evenodd;fill:#0CA1A6;}
	.st13{fill-rule:evenodd;clip-rule:evenodd;fill:#FCC419;}
	.st14{opacity:0.9;clip-path:url(#SVGID_4_);fill:#8FC7AA;}
	.st15{fill:#BDD4BD;}
	.st16{fill:#41C73F;}
	.st17{opacity:0.3;fill:#3E9452;}
	.st18{fill:#AAD654;}
	.st19{fill:#FC8319;}
	.st20{fill:#FCCD11;}
	.st21{fill:#FEDA84;}
	.st22{clip-path:url(#SVGID_6_);fill:#F43B2E;}
	.st23{opacity:0.5;clip-path:url(#SVGID_6_);}
	.st24{fill:#FAF2E1;}
</style>
<rect height="1200" width="1200" class="st0"></rect>
<g>
	<defs>
		<rect height="1200" width="1200" id="SVGID_1_"></rect>
	</defs>
	<clipPath id="SVGID_2_">
		<use style="overflow:visible;" xlink:href="#SVGID_1_"></use>
	</clipPath>
	<g class="st1" id="head_4_">
		<path d="M400.5,243.5c0-71.74-59.9-130.87-131.63-129.99c-71.04,0.87-128.37,58.74-128.37,129.99
			c0,8.17,0.76,16.17,2.2,23.92c0.13,0.7,0.32,1.64,0.51,2.56c0.51,2.51,1.18,4.98,2.01,7.4c4.22,12.3,10.39,23.77,18.39,34.15
			c1.34,1.74,1.21,4.3-0.49,5.7c-0.75,0.62-1.65,0.92-2.55,0.92c-1.2,0-2.38-0.53-3.17-1.55c-8.9-11.52-15.69-24.28-20.22-37.99
			c-0.38-1.15-1.68-1.72-2.76-1.2C87.71,300.1,55.5,347.95,55.5,403.37c0,42.2,18.68,80.04,48.21,105.71
			c-3.37-1.91-6.66-3.94-9.84-6.12c-1.12,5.34-1.59,10.92-1.31,16.65c1.62,33.62,29.18,60.71,62.83,61.77
			c27.84,0.88,51.89-15.76,62.01-39.72c9.89-1.55,19.44-4.14,28.53-7.65c52.41-20.24,89.58-71.1,89.58-130.64
			c0-15.21-2.42-29.85-6.91-43.55c2.14-1.07,4.26-2.19,6.33-3.38C374.1,334.05,400.5,291.85,400.5,243.5z" class="st2"></path>
		<path d="M148.32,392.86c-1.97,0.88-3.75-1.55-2.31-3.16L258.6,264.27c2.53-2.81,6.42-3.96,10.07-2.97l102.65,27.91
			c1.81,0.49,2.01,2.99,0.29,3.76L148.32,392.86z" class="st3"></path>
		<path d="M1152.5,408.91c0-32.96-17.72-61.76-44.15-77.43c-1.76-1.05-4.04-0.59-5.25,1.07
			c-6.52,8.93-14.12,17.04-22.73,24.22c-0.84,0.7-1.86,1.04-2.88,1.04c-1.32,0-2.64-0.58-3.53-1.7c-1.55-1.95-1.08-4.81,0.83-6.41
			c13.04-10.91,23.58-24.08,31.34-39.16c9.21-17.91,13.87-37.26,13.87-57.53c0-36.8-15.86-69.97-41.11-93.03
			c-22.96-20.16-53-32.44-85.77-32.47c-29.52-0.03-56.75,9.75-78.63,26.25c-1.05,0.8-2.56,0.39-3.07-0.83
			c-0.01-0.02-0.02-0.05-0.03-0.07C880.97,79.9,807.84,28.5,722.47,28.5c-54.64,0-100.49,20.1-136.9,54.35
			c-1.66,1.56-1.71,4.17-0.09,5.77c24.73,24.44,39.26,57.77,39.99,93.56c0.04,1.76-1.47,3.15-3.22,3.03
			c-0.66-0.05-1.33-0.12-1.92-0.19c-1.09-0.14-1.95-0.83-1.98-1.79c-1.75-35.58-17.26-67.67-41.51-91.45
			C550.53,65.99,513.95,50,473.5,50c-65.29,0-120.5,41.67-138.67,98.97c-0.88,2.77-1.67,5.58-2.38,8.42
			c-0.12,0.47-0.22,0.95-0.33,1.42c-3.23-0.81-6.54-1.43-9.93-1.82c-2.85-0.32-5.76-0.49-8.69-0.49c-40.82,0-73.9,32.01-73.9,71.5
			s33.09,71.5,73.9,71.5c16.15,0,31.1-5.01,43.26-13.53c0.97-0.67-0.13-13.09-0.13-13.09C383.02,307.52,425.54,330,473.5,330
			c22.78,0,44.34-5.07,63.52-14.11c0.51-0.24,1.01-0.5,1.51-0.75c32.93,67.07,102.91,113.36,183.93,113.36
			c70.46,0,132.56-35.01,169.23-88.23c23.38,28.73,58.72,47.34,98.44,48.2c0.95,0.02,1.91,0.03,2.87,0.03
			c21.62,0,11.69,9.61-16.9,9.61c-0.99,0-1.98-0.01-2.95-0.03c-0.43,3.55-0.65,7.17-0.65,10.83c0,31.05,15.73,58.42,39.66,74.59
			c-9.7,12.22-15.66,33.36-15.66,48.5c0,32.05,26.69,57.87,59.06,56.44c29.05-1.28,52.63-24.88,53.89-53.93
			c0.51-11.66-2.54-22.58-8.14-31.78c-0.74-1.21-2.21-1.73-3.55-1.28c-9.71,3.29-19.86,4.96-30.26,4.96
			c-16.17,0-32.12-4.16-46.14-12.02c-2.04-1.14-2.99-3.69-2.03-5.82c1.1-2.45,4.03-3.38,6.32-2.09
			c12.7,7.15,27.17,10.93,41.85,10.93c9.31,0,18.38-1.5,27.07-4.4c0.86-0.33,1.72-0.66,2.56-1.01
			C1129.65,478.43,1152.5,446.34,1152.5,408.91z" class="st4"></path>
		<path d="M1036.5,354.39c2.2,0.45,3.36-2.5,1.44-3.67l-147.76-90.16c-6.25-3.89-13.15-6.6-20.38-7.99l-484.68-93.3
			c-2.08-0.4-3.27,2.28-1.59,3.56c0,0,65.47,53.1,87.25,71.1c5.76,4.62,12.78,6.77,24.87,9.42
			C583.34,261.36,965.88,339.9,1036.5,354.39z" class="st5"></path>
		<g>
			<defs>
				<path d="M767.99,915.76l262.55-64.24c8.92-2.18,15.21-10.16,15.25-19.34l1.89-460.54
					c0.02-5.76-4.05-10.73-9.71-11.83L494.21,254.1c-8.12-1.58-16.53-0.6-24.07,2.8L146.94,398.54c-4.38,1.92-7.2,6.26-7.18,11.04
					l1.89,439.86c0.04,9.96,7.4,18.36,17.26,19.73l209.23,28.89l361.67,26L767.99,915.76z" id="SVGID_3_"></path>
			</defs>
			<clipPath id="SVGID_4_">
				<use style="overflow:visible;" xlink:href="#SVGID_3_"></use>
			</clipPath>
			<g class="st6">
				<path d="M767.99,915.76l262.55-64.24c8.92-2.18,15.21-10.16,15.25-19.34l1.89-460.54
					c0.02-5.76-4.05-10.73-9.71-11.83L494.21,254.1c-8.12-1.58-16.53-0.6-24.07,2.8L146.94,398.54c-4.38,1.92-7.2,6.26-7.18,11.04
					l1.89,439.86c0.04,9.96,7.4,18.36,17.26,19.73l209.23,28.89l361.67,26L767.99,915.76z" class="st5"></path>
				<path d="M729.82,936.07c-0.29,0-0.57-0.01-0.86-0.03l-361.67-26c-0.26-0.02-0.52-0.05-0.78-0.08l-209.23-28.89
					c-15.68-2.17-27.55-15.74-27.62-31.56l-1.89-439.86c-0.04-9.57,5.6-18.24,14.37-22.08l323.13-141.61
					c9.84-4.43,20.64-5.68,31.24-3.62l543.77,105.7c11.3,2.2,19.47,12.15,19.42,23.66l-1.89,460.53
					c-0.06,14.72-10.09,27.45-24.39,30.95l-262.55,64.24c-0.1,0.02-0.2,0.05-0.3,0.07l-38.17,8.31
					C731.53,935.98,730.68,936.07,729.82,936.07z M369.4,886.13l359.56,25.85l36.33-7.91l262.4-64.21c3.58-0.88,6.08-4.06,6.1-7.74
					l1.89-460.54l-543.77-105.7c-5.71-1.11-11.54-0.43-16.85,1.96c-0.04,0.02-0.08,0.03-0.12,0.05L151.76,409.54l1.89,439.86
					c0.02,3.96,2.99,7.35,6.91,7.89L369.4,886.13z" class="st7"></path>
			</g>
			<path d="M381.87,901.77L157.3,870.14c-6.19-0.87-7.09-9.44-1.21-11.58l311.26-113.18
				c10.01-3.66,20.81-4.56,31.29-2.62l532.63,97.97c6.21,1.14,6.67,9.86,0.62,11.65l-29.21,8.64l-265.85,65.24L381.87,901.77z" class="st8"></path>
			<path d="M783.43,711.82c-2.43,0-4.86-0.21-7.28-0.65c-27.56-4.97-44.61-25.5-45.61-54.91
				c-0.1-2.81,1.01-5.54,3.03-7.49c2.01-1.94,4.76-2.96,7.56-2.75c3.81,0.26,10.25,1.43,20.01,3.19c5.44,0.99,11.61,2.1,18.73,3.32
				c26.76,4.57,37,6.53,40.61,7.77l0,0c3.71,1.28,6.14,4.76,6.05,8.68c-0.28,12.81-6.25,24.92-16.37,33.2
				C802.48,708.46,793.02,711.82,783.43,711.82z M747.28,663c2.01,11.66,8.92,28.31,31.71,32.42c7.48,1.35,14.95-0.65,21.04-5.63
				c4.92-4.02,8.37-9.62,9.79-15.63c-8.69-1.76-24.74-4.5-32.65-5.85c-7.19-1.23-13.41-2.35-18.89-3.34
				C754.12,664.2,750.37,663.52,747.28,663z M815.27,675.42C815.28,675.42,815.28,675.42,815.27,675.42
				C815.28,675.42,815.28,675.42,815.27,675.42z M810.54,668.61c0,0.01,0,0.01,0,0.02C810.54,668.63,810.54,668.62,810.54,668.61z" class="st9"></path>
			<ellipse ry="53" rx="55" cy="582" cx="785" class="st9"></ellipse>
			<path d="M820.61,571c0.37,10.64-8.28,19.57-19.32,19.96c-11.04,0.39-5.3-8.45-5.67-19.09
				c-0.37-10.64-6.71-19.05,4.32-19.44C810.99,552.05,820.24,560.37,820.61,571z" class="st10"></path>
			<g class="st6">
				<path d="M630,461c-24.81,0-45,20.19-45,45c0,5.52,4.48,10,10,10c1.82,0,3.53-0.5,5-1.35V529
					c0,16.57,13.43,30,30,30s30-13.43,30-30v-14.35c1.47,0.85,3.18,1.35,5,1.35c5.52,0,10-4.48,10-10C675,481.19,654.81,461,630,461
					z" class="st11"></path>
				<path d="M930,518c-24.81,0-45,20.19-45,45c0,5.52,4.48,10,10,10c2.25,0,4.33-0.76,6-2.01V586
					c0,16.02,12.98,29,29,29s29-12.98,29-29v-15.01c1.67,1.26,3.75,2.01,6,2.01c5.52,0,10-4.48,10-10C975,538.19,954.81,518,930,518
					z" class="st11"></path>
				<g>
					<path d="M630,528c-4.42,0-8-3.58-8-8v-16c0-4.42,3.58-8,8-8s8,3.58,8,8v16C638,524.42,634.42,528,630,528z" class="st5"></path>
					<path d="M930,585c-4.42,0-8-3.58-8-8v-16c0-4.42,3.58-8,8-8s8,3.58,8,8v16C938,581.42,934.42,585,930,585z" class="st5"></path>
				</g>
				<g>
					<path d="M630,447c7.2,0.78,14.05,2.44,20.43,4.86c3.07,1.17,6.16-1.66,5.26-4.82l-22.39-61.01
						c-1.21-3.66-6.39-3.66-7.6,0l-23.38,57.5c-0.92,2.97,1.77,5.85,4.78,5.07C614.24,446.73,621.95,446.13,630,447z" class="st12"></path>
					<path d="M629,586c-7.64-0.83-14.89-2.64-21.59-5.31c-3.08-1.23-6.25,1.53-5.39,4.73l22.68,82.55
						c1.21,3.66,6.39,3.66,7.6,0l23.37-78.12c0.86-2.93-1.76-5.69-4.74-5.01C644.13,586.4,636.76,586.84,629,586z" class="st12"></path>
					<path d="M930.6,504c7.2,0.78,14.05,2.44,20.43,4.86c3.07,1.17,6.16-1.66,5.26-4.82l-22.39-61.01
						c-1.21-3.66-6.39-3.66-7.6,0l-23.38,57.5c-0.92,2.97,1.77,5.85,4.78,5.07C914.84,503.73,922.56,503.13,930.6,504z" class="st12"></path>
					<path d="M929,643c-7.4-1.14-14.33-2.97-20.71-5.44c-3.05-1.18-6.14,1.6-5.29,4.76l22.7,82.64
						c1.21,3.66,6.39,3.66,7.6,0l23.49-78.46c0.87-2.97-1.81-5.81-4.8-5.03C944.85,643.32,937.1,643.9,929,643z" class="st12"></path>
				</g>
			</g>
			<g class="st6">
				<path d="M279.04,382.58v39.12c0,1.43,1.44,2.41,2.78,1.89l29.31-11.58c0.77-0.31,1.28-1.05,1.28-1.89v-40.01
					c0-1.46-1.49-2.44-2.83-1.87l-29.31,12.48C279.53,381.04,279.04,381.77,279.04,382.58z" class="st13"></path>
				<path d="M229.8,444.15l29.33-11.59c0.77-0.3,1.28-1.05,1.28-1.88v-38.45c0-1.45-1.48-2.42-2.81-1.86l-29.33,12.49
					c-0.74,0.32-1.23,1.05-1.23,1.86v37.56C227.04,443.7,228.48,444.68,229.8,444.15z" class="st13"></path>
				<path d="M178.79,464.31l29.35-11.6c0.77-0.3,1.27-1.04,1.27-1.87v-36.92c0-1.44-1.47-2.41-2.8-1.85l-29.35,12.49
					c-0.74,0.32-1.22,1.04-1.22,1.85v36.02C176.04,463.86,177.47,464.84,178.79,464.31z" class="st13"></path>
			</g>
			<path d="M482.98,698.86c-2.49,0-4.5-2.01-4.5-4.5V285.25c0-2.49,2.01-4.5,4.5-4.5s4.5,2.01,4.5,4.5v409.11
				C487.48,696.84,485.46,698.86,482.98,698.86z" class="st14"></path>
		</g>
		<g>
			<path d="M306.68,556.42c-25.46,0-41.64-14.04-42.37-14.68c-1.86-1.65-2.04-4.49-0.39-6.35
				c1.65-1.86,4.49-2.04,6.35-0.39c0.15,0.13,16.54,14.2,41.28,12.22c2.49-0.2,4.65,1.65,4.84,4.13c0.2,2.48-1.65,4.65-4.13,4.85
				C310.36,556.34,308.49,556.42,306.68,556.42z" class="st15"></path>
			<path d="M317.19,530.44c-39.44,0-60.5-29.83-61.45-31.19c-1.41-2.05-0.9-4.85,1.15-6.26
				c2.05-1.41,4.85-0.9,6.26,1.15c0.89,1.28,22.4,31.43,62.34,26.82c2.46-0.29,4.7,1.48,4.99,3.95c0.29,2.47-1.48,4.7-3.95,4.99
				C323.31,530.26,320.19,530.44,317.19,530.44z" class="st15"></path>
		</g>
		<path d="M452.5,335.5c0-41.42-33.58-75-75-75c-14.31,0-27.69,4.01-39.06,10.97c-13.38-12.39-31.27-19.97-50.94-19.97
			c-41.42,0-75,33.58-75,75c0,31.97,20.01,59.25,48.19,70.05c-3.34,8.66-5.19,18.08-5.19,27.95c0,41.97,33.13,76,74,76
			s74-34.03,74-76c0-6.17-0.73-12.17-2.09-17.92C431.1,396.6,452.5,368.56,452.5,335.5z" class="st16"></path>
		<path d="M578.86,196.31l107.92,89.48c2.24,1.9,3.53,4.69,3.53,7.63l2,147.85c0,3.19,3.55,5.09,6.21,3.34l39.32-26
			c1.66-1.1,3.87-0.81,5.19,0.67l37.24,41.68c1.39,1.55,3.73,1.78,5.4,0.53l35.46-26.81c1.52-1.15,3.63-1.07,5.05,0.19l48.51,42.66
			c2.65,2.33,6.79,0.34,6.64-3.18l-5.4-146.03c-0.13-2.92-1.52-5.64-3.83-7.44l-117.61-89.34c-2.47-1.88-5.35-3.15-8.4-3.73
			L578.86,196.31z" class="st17"></path>
		<g>
			<path d="M839.67,181.63c-0.29,0-0.58-0.02-0.87-0.08c-2.72-0.48-4.54-3.07-4.06-5.79
				c0.16-0.9,4.07-22.39,18.79-45.82c13.66-21.74,39.55-49.2,85.34-56.58c2.72-0.44,5.29,1.42,5.73,4.14
				c0.44,2.73-1.42,5.29-4.14,5.73c-33.8,5.44-60.2,22.95-78.47,52.02c-13.69,21.79-17.37,42.03-17.41,42.23
				C844.16,179.93,842.05,181.63,839.67,181.63z" class="st18"></path>
			<path d="M921.95,109.19l-0.02-0.02c-3.65-3.19-4.49-8.56-1.96-12.69c1.45-2.36,2.96-4.99,4.38-7.56
				c2.59-4.69,8.41-6.51,13.21-4.11l0.03,0.02c5.07,2.54,7.02,8.78,4.28,13.74c-1.45,2.63-3.12,5.54-4.84,8.34
				C933.79,112.17,926.6,113.26,921.95,109.19z" class="st19"></path>
			<path d="M954.47,108.62c-2.31-4.63-5.06-9.33-7.5-13.23c-2.8-4.48-1.63-10.36,2.67-13.43v0
				c4.69-3.35,11.23-2.05,14.29,2.83c2.62,4.18,5.73,9.45,8.45,14.93c2.68,5.39,0.07,11.92-5.61,13.92l0,0
				C961.99,115.32,956.73,113.16,954.47,108.62z" class="st19"></path>
			<path d="M992.49,89.93c-2.56,4.45-8.08,6.25-12.77,4.13c-3.52-1.59-7.8-3.3-12.01-4.43
				c-3.36-0.9-6.84-1.38-9.87-1.64c-4.96-0.42-8.83-4.45-9.1-9.42v0c-0.33-6.06,4.77-11.02,10.81-10.5
				c4.03,0.34,8.72,1.01,13.35,2.25c5.4,1.45,10.73,3.57,15.06,5.52C993.34,78.26,995.44,84.81,992.49,89.93L992.49,89.93z" class="st19"></path>
			<path d="M948.87,69.12L948.87,69.12c-2.67-5.45,0.08-12.01,5.84-13.89c3.85-1.26,8.42-2.48,13.16-3.15
				c5.55-0.78,11.28-0.91,16.04-0.8c5.9,0.13,10.39,5.33,9.67,11.19l0,0.03c-0.62,5.09-4.99,8.89-10.12,8.77
				c-3.86-0.09-8.48,0-12.8,0.61c-3.44,0.48-6.84,1.4-9.73,2.35C956.2,75.78,951.06,73.59,948.87,69.12z" class="st19"></path>
			<path d="M956.63,65.25l-19.29-5.28c0.96-3.53,5.03-17.38,12.04-28.12c3.88-5.95,12.65-5.88,16.59,0.03v0
				c2.21,3.32,2.21,7.6,0.07,10.97C962.48,48.47,958.75,57.55,956.63,65.25z" class="st19"></path>
			<path d="M924.01,58.34c-1.59-2.27-3.53-4.81-5.78-7.32c-3.29-3.67-3.34-9.22-0.19-13.01v0
				c3.91-4.7,11.09-4.81,15.16-0.24c2.73,3.06,5.09,6.12,7.03,8.88c3.83,5.44,1.91,13.01-4.04,16.01l1.67-0.84v0
				C933.03,64.27,927.13,62.79,924.01,58.34z" class="st19"></path>
			<path d="M903.09,71.18L903.09,71.18c-1.72-6.08,2.55-12.26,8.85-12.7c7-0.49,13.28,0.08,16.74,0.53
				c1.54,0.2,2.69,1.48,2.73,3.03l0.35,13.94c0.05,2.07-1.88,3.62-3.9,3.12l0,0c-0.09-0.02-7.02-1.19-14.55-0.67
				C908.63,78.76,904.37,75.71,903.09,71.18z" class="st19"></path>
			<circle r="16.66" cy="73.84" cx="944.18" class="st20"></circle>
		</g>
	</g>
	<g class="st1" id="body_4_">
		<polygon points="736.73,1159.86 741.72,1209.87 826.72,1209.87 820.73,1157.86" class="st21"></polygon>
		<g>
			<defs>
				<path d="M737.72,1160.86l4.5,49.01h-470.5c0,0-14.15-384.08,257-384.08c112.29,0,191.89,42.5,243.72,101.46
					c84.79,96.46,98.28,233.6,98.28,233.6h-179L737.72,1160.86z" id="SVGID_5_"></path>
			</defs>
			<clipPath id="SVGID_6_">
				<use style="overflow:visible;" xlink:href="#SVGID_5_"></use>
			</clipPath>
			<path d="M737.72,1160.86l4.5,49.01h-470.5c0,0-14.15-384.08,257-384.08c112.29,0,191.89,42.5,243.72,101.46
				c84.79,96.46,98.28,233.6,98.28,233.6h-179L737.72,1160.86z" class="st22"></path>
			<g class="st23">
				<g>
					<circle r="27.01" cy="849.38" cx="415.55" class="st24"></circle>
					<circle r="27.01" cy="849.38" cx="503.23" class="st24"></circle>
				</g>
				<g>
					<circle r="27.01" cy="921.56" cx="370.48" class="st24"></circle>
					<circle r="27.01" cy="921.56" cx="458.16" class="st24"></circle>
					<circle r="27.01" cy="921.56" cx="545.83" class="st24"></circle>
				</g>
				<g>
					<circle r="27.01" cy="991.58" cx="326.6" class="st24"></circle>
					<circle r="27.01" cy="991.58" cx="414.28" class="st24"></circle>
					<circle r="27.01" cy="991.58" cx="501.96" class="st24"></circle>
					<circle r="27.01" cy="991.58" cx="589.63" class="st24"></circle>
				</g>
				<g>
					<circle r="27.01" cy="849.38" cx="590.38" class="st24"></circle>
					<circle r="27.01" cy="849.38" cx="678.05" class="st24"></circle>
				</g>
				<g>
					<circle r="27.01" cy="921.56" cx="632.98" class="st24"></circle>
					<circle r="27.01" cy="921.56" cx="720.66" class="st24"></circle>
				</g>
				<g>
					<circle r="27.01" cy="991.58" cx="676.78" class="st24"></circle>
					<circle r="27.01" cy="991.58" cx="764.46" class="st24"></circle>
				</g>
				<g>
					<circle r="27.01" cy="1063.25" cx="282.27" class="st24"></circle>
					<circle r="27.01" cy="1063.25" cx="369.95" class="st24"></circle>
					<circle r="27.01" cy="1063.25" cx="457.63" class="st24"></circle>
				</g>
				<g>
					<circle r="27.01" cy="1135.42" cx="324.88" class="st24"></circle>
					<circle r="27.01" cy="1135.42" cx="412.56" class="st24"></circle>
					<circle r="27.01" cy="1135.42" cx="500.23" class="st24"></circle>
				</g>
				<g>
					<circle r="27.01" cy="1205.45" cx="281" class="st24"></circle>
					<circle r="27.01" cy="1205.45" cx="368.68" class="st24"></circle>
					<circle r="27.01" cy="1205.45" cx="456.36" class="st24"></circle>
					<circle r="27.01" cy="1205.45" cx="544.03" class="st24"></circle>
				</g>
				<g>
					<circle r="27.01" cy="1063.25" cx="544.78" class="st24"></circle>
					<circle r="27.01" cy="1063.25" cx="632.45" class="st24"></circle>
					<circle r="27.01" cy="1063.25" cx="720.13" class="st24"></circle>
					<circle r="27.01" cy="1063.25" cx="807.81" class="st24"></circle>
				</g>
				<g>
					<circle r="27.01" cy="1135.42" cx="587.39" class="st24"></circle>
					<circle r="27.01" cy="1135.42" cx="675.06" class="st24"></circle>
					<circle r="27.01" cy="1135.42" cx="762.74" class="st24"></circle>
					<circle r="27.01" cy="1135.42" cx="850.42" class="st24"></circle>
				</g>
				<g>
					<circle r="27.01" cy="1205.45" cx="631.18" class="st24"></circle>
					<circle r="27.01" cy="1205.45" cx="718.86" class="st24"></circle>
					<circle r="27.01" cy="1205.45" cx="806.54" class="st24"></circle>
				</g>
			</g>
		</g>
		<path d="M876.95,1156.81c-0.29-2.75-2.75-4.75-5.49-4.46c-0.43,0.04-43.47,4.49-87.34,5.95
			c-81.65,2.74-90.67-7.15-91.65-9.16l-0.23-0.48l-0.33-0.42c-9.67-12.39-22.89-131.91-28.96-204.34c-0.23-2.75-2.65-4.79-5.4-4.57
			c-2.75,0.23-4.8,2.65-4.57,5.4c0.04,0.47,4.02,47.85,9.69,96.84c0.92,7.94,1.81,15.31,2.67,22.16
			c-31.18-37.76-40.37-87.75-40.46-88.29c-0.48-2.72-3.08-4.53-5.79-4.05c-2.72,0.48-4.53,3.07-4.05,5.79
			c0.45,2.52,11.36,62.15,51.37,102.64c0.35,0.35,0.75,0.62,1.16,0.85c7.46,54.64,12.65,68.44,16.14,73.29
			c3.84,7.17,16.62,14.81,73.54,14.81c8.14,0,17.19-0.16,27.24-0.49c44.21-1.48,87.56-5.96,87.99-6
			C875.24,1162.02,877.23,1159.56,876.95,1156.81z" class="st5"></path>
	</g>
</g>
</svg>
