<?xml version="1.0" standalone="no"?><!DOCTYPE svg PUBLIC "-//W3C//DTD SVG 1.1//EN"
    "http://www.w3.org/Graphics/SVG/1.1/DTD/svg11.dtd">
<svg height="1200" node-id="1" sillyvg="true" template-height="1200" template-width="1200"
    version="1.1" viewBox="0 0 1200 1200" width="1200" xmlns="http://www.w3.org/2000/svg"
    xmlns:xlink="http://www.w3.org/1999/xlink">
    <defs node-id="75">
        <clipPath id="SVGID_2_" node-id="8">
            <path d="M 0.00 0.00 L 1200.00 0.00 L 1200.00 1200.00 L 0.00 1200.00 Z" fill="#000000"
                fill-rule="nonzero" node-id="78" stroke="none" target-height="1200"
                target-width="1200" target-x="0" target-y="0"></path>
        </clipPath>
        <clipPath id="SVGID_4_" node-id="16">
            <path
                d="M 768.99 915.76 L 1031.54 851.52 C 1040.46 849.34 1046.75 841.36 1046.79 832.18 L 1048.68 371.64 C 1048.70 365.88 1044.63 360.91 1038.97 359.81 L 495.21 254.10 C 487.09 252.52 478.68 253.50 471.14 256.90 L 147.94 398.54 C 143.56 400.46 140.74 404.80 140.76 409.58 L 142.65 849.44 C 142.69 859.40 150.05 867.80 159.91 869.17 L 369.14 898.06 L 730.81 924.06 L 768.99 915.76 Z"
                fill="#000000" fill-rule="nonzero" node-id="82" stroke="none" target-height="671.54"
                target-width="907.95996" target-x="140.74" target-y="252.52"></path>
        </clipPath>
        <clipPath id="SVGID_6_" node-id="27">
            <path
                d="M 956.00 651.17 L 814.36 625.02 L 576.00 595.18 C 576.00 595.18 594.39 658.44 715.34 675.89 C 839.23 693.76 956.00 651.17 956.00 651.17 Z"
                fill="#000000" fill-rule="nonzero" node-id="86" stroke="none"
                target-height="98.58002" target-width="380" target-x="576" target-y="595.18"></path>
        </clipPath>
        <clipPath id="SVGID_8_" node-id="69">
            <path
                d="M 739.06 1164.50 L 742.83 1205.51 C 743.05 1207.85 741.20 1209.88 738.85 1209.88 L 276.65 1209.88 C 274.46 1209.88 272.68 1208.13 272.65 1205.94 C 272.06 1165.43 274.76 825.80 529.74 825.80 C 642.03 825.80 721.63 868.30 773.46 927.26 C 849.15 1013.37 868.02 1131.89 871.20 1156.34 C 871.51 1158.74 869.65 1160.86 867.23 1160.86 L 692.73 1160.86 L 735.08 1160.86 C 737.14 1160.86 738.87 1162.44 739.06 1164.50 Z"
                fill="#000000" fill-rule="nonzero" node-id="90" stroke="none"
                target-height="384.08002" target-width="599.45" target-x="272.06"
                target-y="825.8"></path>
        </clipPath>
    </defs>
    <path d="M 0.00 0.00 L 1200.00 0.00 L 1200.00 1200.00 L 0.00 1200.00 Z" fill="#cec3f7"
        fill-rule="nonzero" node-id="94" stroke="none" target-height="1200" target-width="1200"
        target-x="0" target-y="0"></path>
    <g node-id="265">
        <g node-id="266">
            <g clip-path="url(#SVGID_2_)" group-id="1,2" id="head_2_" node-id="10">
                <path
                    d="M 149.32 392.86 C 147.35 393.74 145.57 391.31 147.01 389.70 L 259.60 264.27 C 262.13 261.46 266.02 260.31 269.67 261.30 L 372.32 289.21 C 374.13 289.70 374.33 292.20 372.61 292.97 L 149.32 392.86 Z"
                    fill="#7743e3" fill-rule="nonzero" group-id="1,2" node-id="99" stroke="none"
                    target-height="133.43" target-width="228.75998" target-x="145.57"
                    target-y="260.31"></path>
                <path
                    d="M 1037.50 354.39 C 1039.70 354.84 1040.86 351.89 1038.94 350.72 L 891.18 260.56 C 884.93 256.67 878.03 253.96 870.80 252.57 L 386.12 159.27 C 384.04 158.87 382.85 161.55 384.53 162.83 C 384.53 162.83 450.00 215.93 471.78 233.93 C 477.54 238.55 484.56 240.70 496.65 243.35 C 584.34 261.36 966.88 339.90 1037.50 354.39 Z"
                    fill="#7f47f0" fill-rule="nonzero" group-id="1,2" node-id="101" stroke="none"
                    target-height="195.97" target-width="658.01" target-x="382.85"
                    target-y="158.87"></path>
                <g clip-path="url(#SVGID_4_)" group-id="1,2,4,6" node-id="105">
                    <path
                        d="M 758.99 924.76 L 1044.81 858.02 C 1046.89 857.50 1048.73 845.80 1048.73 845.80 L 1048.73 360.70 L 495.21 253.10 C 487.09 251.52 478.68 252.50 471.14 255.90 L 140.73 400.70 L 140.73 875.80 L 371.15 904.07 L 758.99 924.76 Z"
                        fill="#7f47f0" fill-rule="nonzero" group-id="1,2,4,6" node-id="107"
                        stroke="none" target-height="673.24" target-width="908" target-x="140.73"
                        target-y="251.52"></path>
                </g>
                <g clip-path="url(#SVGID_4_)" group-id="1,2,4,7" node-id="110">
                    <path
                        d="M 777.46 716.15 C 760.41 716.15 742.84 715.20 725.09 712.95 C 722.50 712.62 720.67 710.26 721.00 707.67 C 721.33 705.08 723.68 703.25 726.28 703.58 C 807.84 713.90 885.74 696.35 924.92 684.98 C 927.42 684.25 930.05 685.69 930.77 688.20 C 931.50 690.70 930.06 693.33 927.55 694.05 C 896.17 703.16 840.37 716.15 777.46 716.15 Z"
                        fill="#5e33aa" fill-rule="nonzero" group-id="1,2,4,7,15" node-id="114"
                        stroke="none" target-height="31.900024" target-width="210.83002"
                        target-x="720.67" target-y="684.25"></path>
                    <path
                        d="M 777.46 716.65 C 759.47 716.65 741.83 715.57 725.02 713.45 C 722.16 713.09 720.13 710.47 720.49 707.61 C 720.85 704.76 723.46 702.72 726.33 703.08 C 807.80 713.38 885.63 695.86 924.77 684.49 C 927.53 683.69 930.44 685.28 931.24 688.05 C 931.63 689.39 931.47 690.80 930.80 692.02 C 930.13 693.24 929.02 694.13 927.68 694.52 C 899.23 702.79 841.87 716.65 777.46 716.65 Z"
                        fill="#5e33aa" fill-rule="nonzero" group-id="1,2,4,7,15" node-id="116"
                        stroke="none" target-height="32.960022" target-width="211.5"
                        target-x="720.13" target-y="683.69"></path>
                    <path
                        d="M 956.00 651.17 L 814.36 625.02 L 576.00 595.18 C 576.00 595.18 594.39 658.44 715.34 675.89 C 839.23 693.76 956.00 651.17 956.00 651.17 Z"
                        fill="#1bfcc6" fill-rule="evenodd" group-id="1,2,4,7" node-id="119"
                        stroke="none" target-height="98.58002" target-width="380" target-x="576"
                        target-y="595.18"></path>
                    <g clip-path="url(#SVGID_6_)" group-id="1,2,4,7,16" node-id="123">
                        <path d="M 695.87 677.70 L 720.85 613.65 L 730.17 617.28 L 705.19 681.33 Z"
                            fill="#3c24b3" fill-opacity="0.35" fill-rule="nonzero"
                            group-id="1,2,4,7,16,20,21" node-id="127" stroke="none"
                            target-height="67.67999" target-width="34.299988" target-x="695.87"
                            target-y="613.65"></path>
                        <path d="M 731.22 615.99 L 740.93 613.61 L 758.29 684.32 L 748.58 686.71 Z"
                            fill="#3c24b3" fill-opacity="0.35" fill-rule="nonzero"
                            group-id="1,2,4,7,16,20,22" node-id="132" stroke="none"
                            target-height="73.10004" target-width="27.070007" target-x="731.22"
                            target-y="613.61"></path>
                        <path d="M 758.73 688.05 L 780.56 618.00 L 790.10 620.97 L 768.27 691.03 Z"
                            fill="#3c24b3" fill-opacity="0.35" fill-rule="nonzero"
                            group-id="1,2,4,7,16,20,23" node-id="137" stroke="none"
                            target-height="73.03003" target-width="31.369995" target-x="758.73"
                            target-y="618"></path>
                        <path d="M 791.03 622.97 L 800.86 621.14 L 813.40 688.54 L 803.57 690.37 Z"
                            fill="#3c24b3" fill-opacity="0.35" fill-rule="nonzero"
                            group-id="1,2,4,7,16,20,24" node-id="142" stroke="none"
                            target-height="69.22998" target-width="22.369995" target-x="791.03"
                            target-y="621.14"></path>
                        <path d="M 813.88 683.70 L 836.88 624.70 L 846.20 628.33 L 823.20 687.33 Z"
                            fill="#3c24b3" fill-opacity="0.35" fill-rule="nonzero"
                            group-id="1,2,4,7,16,20,25" node-id="147" stroke="none"
                            target-height="62.630005" target-width="32.320007" target-x="813.88"
                            target-y="624.7"></path>
                        <path d="M 847.22 631.72 L 857.01 629.72 L 867.36 680.47 L 857.56 682.47 Z"
                            fill="#3c24b3" fill-opacity="0.35" fill-rule="nonzero"
                            group-id="1,2,4,7,16,20,26" node-id="152" stroke="none"
                            target-height="52.75" target-width="20.140015" target-x="847.22"
                            target-y="629.72"></path>
                        <path d="M 865.79 683.72 L 883.99 636.29 L 893.33 639.87 L 875.13 687.31 Z"
                            fill="#3c24b3" fill-opacity="0.35" fill-rule="nonzero"
                            group-id="1,2,4,7,16,20,27" node-id="157" stroke="none"
                            target-height="51.02002" target-width="27.54004" target-x="865.79"
                            target-y="636.29"></path>
                        <path d="M 895.44 641.11 L 905.22 639.02 L 912.37 672.47 L 902.59 674.56 Z"
                            fill="#3c24b3" fill-opacity="0.35" fill-rule="nonzero"
                            group-id="1,2,4,7,16,20,28" node-id="162" stroke="none"
                            target-height="35.539978" target-width="16.929993" target-x="895.44"
                            target-y="639.02"></path>
                        <path d="M 913.73 664.88 L 920.51 644.43 L 930.00 647.57 L 923.22 668.03 Z"
                            fill="#3c24b3" fill-opacity="0.35" fill-rule="nonzero"
                            group-id="1,2,4,7,16,20,29" node-id="167" stroke="none"
                            target-height="23.600037" target-width="16.27002" target-x="913.73"
                            target-y="644.43"></path>
                        <path d="M 668.74 609.13 L 678.54 607.14 L 692.95 678.01 L 683.15 680.00 Z"
                            fill="#3c24b3" fill-opacity="0.35" fill-rule="nonzero"
                            group-id="1,2,4,7,16,20,30" node-id="172" stroke="none"
                            target-height="72.859985" target-width="24.210022" target-x="668.74"
                            target-y="607.14"></path>
                        <path d="M 592.25 637.32 L 606.84 596.45 L 616.26 599.81 L 601.66 640.68 Z"
                            fill="#3c24b3" fill-opacity="0.35" fill-rule="nonzero"
                            group-id="1,2,4,7,16,20,31" node-id="177" stroke="none"
                            target-height="44.22998" target-width="24.01001" target-x="592.25"
                            target-y="596.45"></path>
                    </g>
                    <path
                        d="M 639.71 675.81 C 639.63 675.81 639.55 675.81 639.48 675.80 C 637.29 675.70 635.42 674.18 634.87 672.05 L 617.17 603.24 L 626.85 600.75 L 640.50 653.81 L 658.30 604.27 L 667.71 607.65 L 644.41 672.49 C 643.69 674.49 641.81 675.81 639.71 675.81 Z"
                        fill="#2fb2c1" fill-rule="nonzero" group-id="1,2,4,7" node-id="182"
                        stroke="none" target-height="75.06" target-width="50.54004"
                        target-x="617.17" target-y="600.75"></path>
                    <path
                        d="M 978.00 660.76 C 977.52 660.76 977.04 660.70 976.56 660.57 C 947.27 652.64 862.15 634.52 749.66 622.76 C 607.79 607.92 577.22 596.39 575.99 595.90 C 573.16 594.79 571.77 591.60 572.88 588.77 C 573.99 585.94 577.18 584.55 580.01 585.66 C 590.35 589.61 639.39 600.17 750.80 611.82 C 855.74 622.79 930.28 638.33 962.16 645.72 L 947.66 629.41 C 945.64 627.14 945.85 623.66 948.12 621.65 C 950.39 619.63 953.87 619.84 955.88 622.11 L 982.11 651.62 C 983.73 653.44 983.96 656.10 982.68 658.17 C 981.66 659.80 979.87 660.76 978.00 660.76 Z"
                        fill="#5e33aa" fill-rule="nonzero" group-id="1,2,4,7,17" node-id="186"
                        stroke="none" target-height="76.21002" target-width="412.19"
                        target-x="571.77" target-y="584.55"></path>
                    <path
                        d="M 978.00 661.26 C 977.47 661.26 976.94 661.19 976.43 661.05 C 947.15 653.12 862.07 635.01 749.60 623.25 C 607.67 608.41 577.04 596.85 575.80 596.36 C 574.31 595.77 573.13 594.64 572.49 593.17 C 571.85 591.70 571.82 590.07 572.41 588.58 C 573.62 585.50 577.11 583.98 580.19 585.19 C 590.52 589.13 639.49 599.67 750.85 611.31 C 852.68 621.96 925.53 636.76 960.74 644.87 L 947.28 629.73 C 946.22 628.53 945.68 626.99 945.77 625.39 C 945.86 623.79 946.58 622.32 947.77 621.26 C 948.97 620.20 950.50 619.66 952.11 619.75 C 953.71 619.84 955.18 620.56 956.24 621.75 L 982.47 651.26 C 984.22 653.23 984.47 656.17 983.09 658.40 C 982.00 660.19 980.09 661.26 978.00 661.26 Z"
                        fill="#5e33aa" fill-rule="nonzero" group-id="1,2,4,7,17" node-id="188"
                        stroke="none" target-height="77.28003" target-width="412.64996"
                        target-x="571.82" target-y="583.98"></path>
                </g>
                <g clip-path="url(#SVGID_4_)" group-id="1,2,4,8" node-id="192">
                    <path
                        d="M 643.25 552.73 C 622.78 552.73 606.19 536.14 606.19 515.67 L 606.19 493.79 C 606.19 473.32 622.78 456.73 643.25 456.73 C 663.72 456.73 680.31 473.32 680.31 493.79 L 680.31 515.67 C 680.31 536.13 663.72 552.73 643.25 552.73 Z"
                        fill="#1d0b09" fill-opacity="0.3" fill-rule="nonzero" group-id="1,2,4,8,18"
                        node-id="196" stroke="none" target-height="95.99997"
                        target-width="74.119995" target-x="606.19" target-y="456.73"></path>
                    <path
                        d="M 643.25 536.12 C 630.82 536.12 620.75 526.05 620.75 513.62 L 620.75 497.12 C 620.75 484.69 630.82 474.62 643.25 474.62 C 655.68 474.62 665.75 484.69 665.75 497.12 L 665.75 513.62 C 665.75 526.05 655.68 536.12 643.25 536.12 Z"
                        fill="#ffd219" fill-rule="nonzero" group-id="1,2,4,8" node-id="199"
                        stroke="none" target-height="61.5" target-width="45" target-x="620.75"
                        target-y="474.62"></path>
                    <path
                        d="M 643.25 521.37 C 637.43 521.37 632.71 516.13 632.71 509.66 L 632.71 501.07 C 632.71 494.60 637.43 489.36 643.25 489.36 C 649.07 489.36 653.79 494.60 653.79 501.07 L 653.79 509.66 C 653.79 516.13 649.07 521.37 643.25 521.37 Z"
                        fill="#112033" fill-rule="nonzero" group-id="1,2,4,8" node-id="201"
                        stroke="none" target-height="32.01001" target-width="21.079956"
                        target-x="632.71" target-y="489.36"></path>
                </g>
                <g clip-path="url(#SVGID_4_)" group-id="1,2,4,9" node-id="204">
                    <path
                        d="M 925.44 604.15 C 905.35 604.15 889.06 587.86 889.06 567.77 L 889.06 545.85 C 889.06 525.76 905.35 509.47 925.44 509.47 C 945.53 509.47 961.82 525.76 961.82 545.85 L 961.82 567.77 C 961.82 587.86 945.54 604.15 925.44 604.15 Z"
                        fill="#1d0b09" fill-opacity="0.3" fill-rule="nonzero" group-id="1,2,4,9,19"
                        node-id="208" stroke="none" target-height="94.68002" target-width="72.76001"
                        target-x="889.06" target-y="509.47"></path>
                    <path
                        d="M 925.44 587.63 C 913.43 587.63 903.69 577.89 903.69 565.88 L 903.69 549.38 C 903.69 537.37 913.43 527.63 925.44 527.63 C 937.45 527.63 947.19 537.37 947.19 549.38 L 947.19 565.88 C 947.19 577.89 937.46 587.63 925.44 587.63 Z"
                        fill="#ffd219" fill-rule="nonzero" group-id="1,2,4,9" node-id="211"
                        stroke="none" target-height="60" target-width="43.5" target-x="903.69"
                        target-y="527.63"></path>
                    <path
                        d="M 925.44 573.01 C 920.27 573.01 916.08 568.36 916.08 562.62 L 916.08 552.66 C 916.08 546.92 920.27 542.27 925.44 542.27 C 930.61 542.27 934.80 546.92 934.80 552.66 L 934.80 562.62 C 934.80 568.35 930.61 573.01 925.44 573.01 Z"
                        fill="#112033" fill-rule="nonzero" group-id="1,2,4,9" node-id="213"
                        stroke="none" target-height="30.73999" target-width="18.71997"
                        target-x="916.08" target-y="542.27"></path>
                </g>
                <g clip-path="url(#SVGID_4_)" group-id="1,2,4,10" node-id="216">
                    <path
                        d="M 382.87 901.77 L 158.30 870.14 C 152.11 869.27 151.21 860.70 157.09 858.56 L 468.35 745.38 C 478.36 741.72 489.16 740.82 499.64 742.76 L 1032.27 840.73 C 1038.48 841.87 1038.94 850.59 1032.89 852.38 L 1003.68 861.02 L 737.83 926.26 L 382.87 901.77 Z"
                        fill="#1d0b09" fill-opacity="0.3" fill-rule="nonzero" group-id="1,2,4,10"
                        node-id="218" stroke="none" target-height="185.44" target-width="887.7299"
                        target-x="151.21" target-y="740.82"></path>
                </g>
                <g clip-path="url(#SVGID_4_)" group-id="1,2,4,11" node-id="221">
                    <path
                        d="M 280.04 382.58 L 280.04 421.70 C 280.04 423.13 281.48 424.11 282.82 423.59 L 312.13 412.01 C 312.90 411.70 313.41 410.96 313.41 410.12 L 313.41 370.11 C 313.41 368.65 311.92 367.67 310.58 368.24 L 281.27 380.72 C 280.53 381.04 280.04 381.77 280.04 382.58 Z"
                        fill="#ffffff" fill-opacity="0.3" fill-rule="evenodd" group-id="1,2,4,11"
                        node-id="223" stroke="none" target-height="56.439972"
                        target-width="33.369995" target-x="280.04" target-y="367.67"></path>
                    <path
                        d="M 230.80 444.15 L 260.13 432.56 C 260.90 432.26 261.41 431.51 261.41 430.68 L 261.41 392.23 C 261.41 390.78 259.93 389.81 258.60 390.37 L 229.27 402.86 C 228.53 403.18 228.04 403.91 228.04 404.72 L 228.04 442.28 C 228.04 443.70 229.48 444.68 230.80 444.15 Z"
                        fill="#ffffff" fill-opacity="0.3" fill-rule="evenodd" group-id="1,2,4,11"
                        node-id="225" stroke="none" target-height="54.869995"
                        target-width="33.37001" target-x="228.04" target-y="389.81"></path>
                    <path
                        d="M 179.79 464.31 L 209.14 452.71 C 209.91 452.41 210.41 451.67 210.41 450.84 L 210.41 413.92 C 210.41 412.48 208.94 411.51 207.61 412.07 L 178.26 424.56 C 177.52 424.88 177.04 425.60 177.04 426.41 L 177.04 462.43 C 177.04 463.86 178.47 464.84 179.79 464.31 Z"
                        fill="#ffffff" fill-opacity="0.3" fill-rule="evenodd" group-id="1,2,4,11"
                        node-id="227" stroke="none" target-height="53.329987"
                        target-width="33.37001" target-x="177.04" target-y="411.51"></path>
                </g>
                <g clip-path="url(#SVGID_4_)" group-id="1,2,4,12" node-id="230">
                    <path
                        d="M 483.98 698.86 C 481.49 698.86 479.48 696.85 479.48 694.36 L 479.48 284.25 C 479.48 281.76 481.49 279.75 483.98 279.75 C 486.47 279.75 488.48 281.76 488.48 284.25 L 488.48 694.36 C 488.48 696.84 486.46 698.86 483.98 698.86 Z"
                        fill="#ffffff" fill-opacity="0.8" fill-rule="nonzero" group-id="1,2,4,12"
                        node-id="232" stroke="none" target-height="419.11" target-width="9"
                        target-x="479.48" target-y="279.75"></path>
                </g>
                <path
                    d="M 579.86 196.31 L 687.78 285.79 C 690.02 287.69 691.31 290.48 691.31 293.42 L 693.31 441.27 C 693.31 444.46 696.86 446.36 699.52 444.61 L 738.84 418.61 C 740.50 417.51 742.71 417.80 744.03 419.28 L 781.27 460.96 C 782.66 462.51 785.00 462.74 786.67 461.49 L 822.13 434.68 C 823.65 433.53 825.76 433.61 827.18 434.87 L 875.69 477.53 C 878.34 479.86 882.48 477.87 882.33 474.35 L 876.93 328.32 C 876.80 325.40 875.41 322.68 873.10 320.88 L 755.49 231.54 C 753.02 229.66 750.14 228.39 747.09 227.81 L 579.86 196.31 Z"
                    fill="#fcd514" fill-rule="nonzero" group-id="1,2" node-id="236" stroke="none"
                    target-height="283.55" target-width="302.62" target-x="579.86"
                    target-y="196.31"></path>
                <path
                    d="M 433.48 140.62 L 421.57 58.85 C 421.09 55.58 424.75 53.32 427.46 55.20 L 478.87 90.79 C 480.49 91.91 482.69 91.60 483.94 90.08 L 522.16 43.55 C 523.71 41.67 526.61 41.72 528.09 43.66 L 568.14 96.22 C 569.45 97.94 571.94 98.21 573.59 96.81 L 625.31 53.05 C 627.84 50.91 631.70 52.82 631.53 56.13 L 625.90 165.53 C 625.61 171.10 620.59 175.21 615.08 174.39 L 441.44 148.60 C 437.32 147.99 434.08 144.75 433.48 140.62 Z"
                    fill="#fcd514" fill-rule="nonzero" group-id="1,2" node-id="238" stroke="none"
                    target-height="133.54001" target-width="210.61002" target-x="421.09"
                    target-y="41.67"></path>
                <path
                    d="M 256.24 677.45 C 255.89 677.45 255.54 677.41 255.19 677.33 C 227.22 670.66 214.57 649.65 214.05 648.76 C 212.79 646.62 213.50 643.86 215.64 642.60 C 217.78 641.34 220.54 642.05 221.80 644.19 C 221.90 644.36 233.16 662.82 257.28 668.57 C 259.70 669.15 261.19 671.57 260.61 673.99 C 260.12 676.06 258.28 677.45 256.24 677.45 Z"
                    fill="#ffffff" fill-rule="nonzero" group-id="1,2" node-id="240" stroke="none"
                    target-height="36.109985" target-width="48.40001" target-x="212.79"
                    target-y="641.34"></path>
                <path
                    d="M 277.77 656.81 C 277.48 656.81 277.18 656.78 276.88 656.72 C 232.04 647.68 219.54 607.41 219.03 605.70 C 218.32 603.32 219.67 600.81 222.06 600.10 C 224.44 599.39 226.95 600.74 227.66 603.13 C 228.11 604.62 239.23 639.95 278.66 647.90 C 281.10 648.39 282.67 650.76 282.18 653.20 C 281.75 655.33 279.87 656.81 277.77 656.81 Z"
                    fill="#ffffff" fill-rule="nonzero" group-id="1,2" node-id="242" stroke="none"
                    target-height="57.419983" target-width="64.350006" target-x="218.32"
                    target-y="599.39"></path>
                <path
                    d="M 450.09 255.14 C 395.21 244.82 297.02 212.99 268.00 116.00 C 261.79 95.27 270.86 82.55 260.18 75.90 C 228.27 56.04 167.33 88.24 124.65 124.56 C 94.88 149.89 75.39 177.63 69.51 187.89 C 68.64 189.41 70.01 191.23 71.72 190.82 C 92.33 185.82 174.58 167.97 199.00 195.01 C 221.99 220.47 182.27 274.92 167.33 293.58 C 166.04 295.20 167.76 297.46 169.66 296.65 C 194.71 285.97 274.03 254.57 300.00 273.00 C 315.35 283.90 314.51 302.15 309.76 317.80 C 307.67 321.21 305.72 324.83 303.95 328.69 C 294.43 349.49 291.70 373.35 295.83 399.58 C 300.25 427.66 312.76 458.81 333.02 492.14 C 355.60 529.31 363.79 560.08 354.91 574.45 C 347.98 585.68 330.28 587.90 324.61 587.43 C 316.86 586.80 311.05 583.82 306.14 577.90 C 305.59 577.24 306.09 576.22 306.95 576.26 C 309.49 576.39 312.49 576.34 316.01 575.99 C 326.01 574.99 330.01 570.99 333.88 567.65 C 336.83 565.10 341.00 565.00 341.00 565.00 C 341.00 565.00 344.00 565.00 337.00 558.00 C 329.00 550.00 309.00 544.00 273.00 546.00 C 257.19 546.00 248.94 542.69 245.33 540.62 C 244.12 539.93 242.60 540.61 242.36 541.98 C 240.76 551.10 238.40 579.57 264.00 605.99 C 287.46 630.21 306.35 633.81 314.14 634.12 C 315.80 634.19 316.80 632.31 315.84 630.96 L 313.00 627.00 C 309.80 622.52 310.69 615.18 309.92 606.03 C 309.86 605.30 310.56 604.76 311.25 604.99 C 314.93 606.24 318.84 607.04 322.98 607.37 C 324.03 607.46 325.16 607.50 326.35 607.50 C 339.83 607.50 361.54 601.78 371.93 584.96 C 385.41 563.12 377.86 527.43 350.11 481.76 C 331.21 450.66 319.60 421.97 315.59 396.48 C 312.08 374.19 314.29 354.18 322.14 337.01 C 327.26 325.81 334.25 317.10 341.64 310.41 C 346.29 306.20 351.62 302.83 357.35 300.30 C 392.16 284.95 435.33 265.87 450.55 258.91 C 452.32 258.11 452.00 255.50 450.09 255.14 Z"
                    fill="#211a33" fill-rule="nonzero" group-id="1,2" node-id="244" stroke="none"
                    target-height="578.15" target-width="383.68" target-x="68.64"
                    target-y="56.04"></path>
            </g>
        </g>
        <g clip-path="url(#SVGID_2_)" group-id="1,3" id="body_2_" node-id="64">
            <path d="M 737.73 1159.86 L 742.72 1209.87 L 827.72 1209.87 L 821.73 1157.86 Z"
                fill="#7f47f0" fill-rule="nonzero" group-id="1,3" node-id="248" stroke="none"
                target-height="52.01001" target-width="89.98999" target-x="737.73"
                target-y="1157.86"></path>
            <g clip-path="url(#SVGID_8_)" group-id="1,3,5,13" node-id="252">
                <path
                    d="M 739.06 1164.50 L 742.83 1205.51 C 743.05 1207.85 741.20 1209.88 738.85 1209.88 L 276.65 1209.88 C 274.46 1209.88 272.68 1208.13 272.65 1205.94 C 272.06 1165.43 274.76 825.80 529.74 825.80 C 642.03 825.80 721.63 868.30 773.46 927.26 C 849.15 1013.37 868.02 1131.89 871.20 1156.34 C 871.51 1158.74 869.65 1160.86 867.23 1160.86 L 692.73 1160.86 L 735.08 1160.86 C 737.14 1160.86 738.87 1162.44 739.06 1164.50 Z"
                    fill="#211a33" fill-rule="nonzero" group-id="1,3,5,13" node-id="254"
                    stroke="none" target-height="384.08002" target-width="599.45" target-x="272.06"
                    target-y="825.8"></path>
            </g>
            <g clip-path="url(#SVGID_8_)" group-id="1,3,5,14" node-id="257">
                <path
                    d="M 505.08 1078.48 C 496.96 1064.57 488.59 1050.80 480.18 1037.06 C 479.78 1036.40 479.80 1035.56 480.23 1034.92 C 488.40 1022.96 497.19 1011.45 506.20 1000.11 C 508.61 997.07 509.24 993.23 507.81 989.85 C 506.39 986.46 503.16 984.24 499.09 983.91 C 482.66 982.56 466.17 981.82 449.68 981.26 C 448.98 981.24 448.35 980.85 448.02 980.23 C 441.49 968.18 434.91 956.13 429.12 943.73 C 427.36 939.98 423.36 937.69 418.84 937.93 C 415.34 938.12 412.15 939.99 410.02 942.77 C 400.46 955.24 391.70 968.31 383.18 981.52 C 382.84 982.04 382.28 982.37 381.66 982.41 C 367.63 983.26 353.60 984.60 339.67 986.36 C 336.04 986.82 332.72 989.10 330.83 992.42 C 328.94 995.75 328.82 999.51 330.53 1002.46 C 337.26 1014.07 344.03 1025.66 350.80 1037.24 C 351.13 1037.81 351.16 1038.51 350.86 1039.10 C 343.59 1053.69 336.48 1068.35 329.61 1083.14 C 327.99 1086.61 328.27 1090.38 330.33 1093.20 C 332.35 1095.97 335.68 1097.33 339.27 1096.90 C 339.35 1096.89 339.43 1096.88 339.52 1096.87 C 353.51 1094.93 367.50 1093.11 381.57 1091.83 C 382.33 1091.76 383.06 1092.14 383.45 1092.79 C 390.40 1104.54 397.20 1116.36 403.87 1128.27 C 405.87 1131.89 409.51 1134.24 413.38 1134.33 C 413.40 1134.33 413.41 1134.33 413.43 1134.33 C 417.22 1134.33 421.28 1132.18 423.14 1128.62 C 429.74 1116.03 436.97 1103.79 444.28 1091.59 C 444.65 1090.97 445.33 1090.60 446.06 1090.63 C 462.88 1091.38 479.69 1092.34 496.49 1093.45 C 500.37 1093.72 503.72 1092.04 505.48 1088.93 C 507.24 1085.84 507.09 1081.91 505.08 1078.48 Z M 495.14 997.06 C 488.25 1005.54 481.58 1014.17 475.05 1022.93 C 474.21 1024.06 472.48 1023.97 471.78 1022.74 C 469.41 1018.60 467.00 1014.34 464.52 1009.97 C 461.55 1004.74 458.70 999.62 455.97 994.68 C 455.23 993.34 456.24 991.70 457.78 991.76 C 469.79 992.29 481.79 992.93 493.78 993.85 C 495.35 993.98 496.13 995.83 495.14 997.06 Z M 441.35 992.21 C 445.31 999.30 449.59 1006.84 454.19 1014.64 C 458.17 1021.39 462.00 1027.90 465.78 1034.08 C 466.18 1034.73 466.16 1035.54 465.74 1036.18 C 461.33 1042.76 456.97 1049.68 452.53 1056.61 C 447.75 1064.08 443.02 1071.59 438.34 1079.13 C 437.98 1079.72 437.33 1080.07 436.64 1080.05 C 420.90 1079.73 405.42 1079.99 389.71 1080.98 C 388.97 1081.03 388.27 1080.66 387.90 1080.02 C 379.65 1066.11 371.50 1052.16 363.47 1038.13 C 363.14 1037.55 363.12 1036.85 363.42 1036.26 C 366.89 1029.47 370.56 1022.56 374.40 1015.62 C 378.69 1007.89 383.17 1000.27 387.65 993.02 C 387.99 992.47 388.57 992.13 389.21 992.09 C 396.44 991.71 404.09 991.41 412.05 991.21 C 421.25 990.97 430.50 991.01 439.68 991.20 C 440.28 991.57 440.75 991.85 441.35 992.21 Z M 419.96 951.08 C 424.14 960.24 428.83 969.15 433.57 978.03 C 434.27 979.34 433.32 980.93 431.83 980.92 C 425.10 980.87 418.38 980.91 412.18 981.07 C 407.58 981.19 403.08 981.34 398.70 981.52 C 397.10 981.59 396.10 979.80 396.99 978.47 C 403.30 969.04 409.71 959.70 416.61 950.69 C 417.51 949.50 419.34 949.73 419.96 951.08 Z M 342.70 996.17 C 352.56 994.94 362.45 993.95 372.35 993.19 C 373.94 993.07 375.00 994.79 374.18 996.16 C 371.28 1001.05 368.40 1006.05 365.60 1011.11 C 363.25 1015.35 360.96 1019.59 358.74 1023.79 C 358.01 1025.16 356.06 1025.19 355.30 1023.84 C 350.60 1015.59 345.92 1007.34 341.24 999.09 C 340.55 997.88 341.31 996.35 342.70 996.17 Z M 339.80 1084.00 C 345.21 1072.28 350.80 1060.66 356.49 1049.07 C 356.84 1048.37 357.82 1048.33 358.22 1049.01 C 364.22 1059.27 370.25 1069.51 376.30 1079.74 C 376.66 1080.35 376.27 1081.14 375.56 1081.21 C 363.94 1082.42 352.40 1083.81 340.83 1085.39 C 340.05 1085.48 339.47 1084.70 339.80 1084.00 Z M 411.11 1119.76 C 407.74 1113.90 400.26 1100.93 395.94 1093.59 C 395.19 1092.32 396.06 1090.71 397.53 1090.63 C 407.79 1090.09 417.86 1089.91 428.14 1090.06 C 429.66 1090.08 430.58 1091.75 429.79 1093.05 C 425.27 1100.43 417.85 1113.75 414.54 1119.73 C 413.79 1121.07 411.88 1121.08 411.11 1119.76 Z M 454.39 1080.67 C 452.89 1080.60 452.02 1078.96 452.81 1077.69 C 455.96 1072.62 459.20 1067.47 462.48 1062.32 C 465.47 1057.62 468.46 1052.95 471.41 1048.38 C 472.19 1047.17 473.96 1047.19 474.72 1048.41 C 480.23 1057.23 489.82 1072.96 493.91 1079.68 C 494.73 1081.03 493.70 1082.75 492.12 1082.66 C 484.11 1082.21 465.10 1081.14 454.39 1080.67 Z"
                    fill="#ffffff" fill-rule="nonzero" group-id="1,3,5,14" node-id="259"
                    stroke="none" target-height="196.63995" target-width="181.25" target-x="327.99"
                    target-y="937.69"></path>
            </g>
            <path
                d="M 876.45 1156.86 C 876.19 1154.39 873.98 1152.60 871.51 1152.85 C 871.08 1152.89 828.28 1157.34 784.64 1158.81 C 759.12 1159.67 738.34 1159.36 722.88 1157.88 C 697.86 1155.50 693.70 1150.76 693.02 1149.36 L 692.81 1148.93 L 692.52 1148.55 C 690.09 1145.43 683.33 1128.67 673.12 1040.50 C 667.47 991.66 663.49 944.41 663.45 943.94 C 663.24 941.46 661.07 939.61 658.59 939.83 C 656.11 940.04 654.27 942.21 654.48 944.69 C 654.52 945.16 658.50 992.53 664.17 1041.52 C 665.17 1050.13 666.13 1058.06 667.06 1065.38 C 634.91 1027.37 625.49 976.09 625.39 975.54 C 624.96 973.09 622.62 971.46 620.17 971.90 C 617.72 972.33 616.09 974.67 616.52 977.11 C 616.96 979.62 627.85 1039.10 667.75 1079.49 C 668.13 1079.87 668.57 1080.16 669.03 1080.38 C 677.45 1141.80 682.92 1150.83 685.14 1153.76 C 688.90 1160.65 700.65 1164.81 722.02 1166.84 C 732.08 1167.80 744.27 1168.28 758.46 1168.28 C 766.64 1168.28 775.48 1168.12 784.95 1167.80 C 828.90 1166.32 871.98 1161.85 872.41 1161.80 C 874.92 1161.55 876.71 1159.33 876.45 1156.86 Z"
                fill="#ffffff" fill-rule="nonzero" group-id="1,3" node-id="263" stroke="none"
                target-height="228.67004" target-width="260.62" target-x="616.09"
                target-y="939.61"></path>
        </g>
    </g>
</svg>