<svg height="1200" node-id="1" sillyvg="true" template-height="1200" template-width="1200" version="1.1" viewBox="0 0 1200 1200" width="1200" xmlns="http://www.w3.org/2000/svg" xmlns:xlink="http://www.w3.org/1999/xlink"><defs node-id="46"><clipPath id="SVGID_2_" node-id="8"><path d="M 0.00 0.00 L 1200.00 0.00 L 1200.00 1200.00 L 0.00 1200.00 Z" fill="#000000" fill-rule="nonzero" node-id="49" stroke="none" target-height="1200" target-width="1200" target-x="0" target-y="0"></path></clipPath><clipPath id="SVGID_4_" node-id="15"><path d="M 768.99 917.76 L 1031.54 853.52 C 1040.46 851.34 1046.75 843.36 1046.79 834.18 L 1048.68 373.64 C 1048.70 367.88 1044.63 362.91 1038.97 361.81 L 495.21 256.10 C 487.09 254.52 478.68 255.50 471.14 258.90 L 147.94 400.54 C 143.56 402.46 140.74 406.80 140.76 411.58 L 142.65 851.44 C 142.69 861.40 150.05 869.80 159.91 871.17 L 369.14 900.06 L 730.81 926.06 L 768.99 917.76 Z" fill="#000000" fill-rule="nonzero" node-id="53" stroke="none" target-height="671.54" target-width="907.95996" target-x="140.74" target-y="254.52"></path></clipPath></defs><path d="M 0.00 0.00 L 1200.00 0.00 L 1200.00 1200.00 L 0.00 1200.00 Z" fill="#faefbe" fill-rule="nonzero" node-id="57" stroke="none" target-height="1200" target-width="1200" target-x="0" target-y="0"></path><g node-id="137"><g clip-path="url(#SVGID_2_)" group-id="1" id="sillyvg_g_0" node-id="60"><g clip-path="url(#SVGID_4_)" group-id="1,2,3,5,10" node-id="66"><path d="M 758.99 926.76 L 1044.81 860.02 C 1046.89 859.50 1048.73 847.80 1048.73 847.80 L 1048.73 362.70 L 495.21 255.10 C 487.09 253.52 478.68 254.50 471.14 257.90 L 140.73 402.70 L 140.73 877.80 L 371.15 906.07 L 758.99 926.76 Z" fill="#343330" fill-rule="nonzero" group-id="1,2,3,5,10" node-id="68" stroke="none" target-height="673.24" target-width="908" target-x="140.73" target-y="253.52"></path></g><g clip-path="url(#SVGID_4_)" group-id="1,2,3,5,11" node-id="71"><path d="M 382.87 903.77 L 158.30 872.14 C 152.11 871.27 151.21 862.70 157.09 860.56 L 468.35 747.38 C 478.36 743.72 489.16 742.82 499.64 744.76 L 1032.27 842.73 C 1038.48 843.87 1038.94 852.59 1032.89 854.38 L 1003.68 863.02 L 737.83 926.26 L 382.87 903.77 Z" fill="#1f1e1b" fill-rule="nonzero" group-id="1,2,3,5,11" node-id="73" stroke="none" target-height="183.44" target-width="887.7299" target-x="151.21" target-y="742.82"></path></g><path d="M 1037.50 356.39 C 1039.70 356.84 1040.86 353.89 1038.94 352.72 L 891.18 262.56 C 884.93 258.67 878.03 255.96 870.80 254.57 L 386.12 161.27 C 384.04 160.87 382.85 163.55 384.53 164.83 C 384.53 164.83 450.00 217.93 471.78 235.93 C 477.54 240.55 484.56 242.70 496.65 245.35 C 584.34 263.36 966.88 341.90 1037.50 356.39 Z" fill="#343330" fill-rule="nonzero" group-id="1,2,3" node-id="77" stroke="none" target-height="195.97" target-width="658.01" target-x="382.85" target-y="160.87"></path><path d="M 280.04 384.58 L 280.04 423.70 C 280.04 425.13 281.48 426.11 282.82 425.59 L 312.13 414.01 C 312.90 413.70 313.41 412.96 313.41 412.12 L 313.41 372.11 C 313.41 370.65 311.92 369.67 310.58 370.24 L 281.27 382.72 C 280.53 383.04 280.04 383.77 280.04 384.58 Z" fill="#ffffff" fill-opacity="0.2" fill-rule="evenodd" group-id="1,2,3,6" node-id="81" stroke="none" target-height="56.439972" target-width="33.369995" target-x="280.04" target-y="369.67"></path><path d="M 230.80 446.15 L 260.13 434.56 C 260.90 434.26 261.41 433.51 261.41 432.68 L 261.41 394.23 C 261.41 392.78 259.93 391.81 258.60 392.37 L 229.27 404.86 C 228.53 405.18 228.04 405.91 228.04 406.72 L 228.04 444.28 C 228.04 445.70 229.48 446.68 230.80 446.15 Z" fill="#ffffff" fill-opacity="0.2" fill-rule="evenodd" group-id="1,2,3,6" node-id="83" stroke="none" target-height="54.869995" target-width="33.37001" target-x="228.04" target-y="391.81"></path><path d="M 179.79 466.31 L 209.14 454.71 C 209.91 454.41 210.41 453.67 210.41 452.84 L 210.41 415.92 C 210.41 414.48 208.94 413.51 207.61 414.07 L 178.26 426.56 C 177.52 426.88 177.04 427.60 177.04 428.41 L 177.04 464.43 C 177.04 465.86 178.47 466.84 179.79 466.31 Z" fill="#ffffff" fill-opacity="0.2" fill-rule="evenodd" group-id="1,2,3,6" node-id="85" stroke="none" target-height="53.329987" target-width="33.37001" target-x="177.04" target-y="413.51"></path><path d="M 273.32 698.50 C 273.18 698.50 273.03 698.49 272.89 698.48 C 244.26 695.76 228.81 676.73 228.17 675.92 C 226.62 673.97 226.95 671.14 228.89 669.60 C 230.83 668.05 233.67 668.38 235.21 670.32 C 235.34 670.48 249.05 687.18 273.74 689.53 C 276.21 689.76 278.03 691.96 277.79 694.43 C 277.57 696.75 275.61 698.50 273.32 698.50 Z" fill="#ffffff" fill-rule="nonzero" group-id="1,2,3,7" node-id="90" stroke="none" target-height="30.450012" target-width="51.410004" target-x="226.62" target-y="668.05"></path><path d="M 298.02 672.98 C 297.98 672.98 297.95 672.98 297.91 672.98 C 258.42 672.01 236.82 640.48 232.49 633.45 C 232.34 633.24 232.20 633.02 232.08 632.78 C 231.00 630.62 231.75 627.87 233.87 626.70 C 235.39 625.86 238.28 625.65 240.03 628.51 C 243.54 634.28 262.81 663.12 298.14 663.98 C 300.62 664.04 302.59 666.10 302.53 668.59 C 302.46 671.03 300.46 672.98 298.02 672.98 Z" fill="#ffffff" fill-rule="nonzero" group-id="1,2,3,7" node-id="92" stroke="none" target-height="47.329956" target-width="71.59" target-x="231" target-y="625.65"></path><path d="M 286.36 273.37 C 286.59 272.80 286.25 272.16 285.65 272.03 L 265.30 267.53 C 261.78 266.75 258.11 267.93 255.70 270.61 L 147.01 391.70 C 145.57 393.31 147.34 395.74 149.32 394.86 L 277.56 337.49 C 278.35 337.14 278.81 336.32 278.73 335.46 C 276.45 312.84 279.01 291.99 286.36 273.37 Z" fill="#292927" fill-rule="nonzero" group-id="1,2,3,7,12" node-id="96" stroke="none" target-height="128.98999" target-width="141.01999" target-x="145.57" target-y="266.75"></path><path d="M 372.32 291.21 L 294.73 274.04 C 287.29 291.70 284.55 311.66 286.58 333.45 L 372.61 294.96 C 374.33 294.20 374.14 291.71 372.32 291.21 Z" fill="#343330" fill-rule="nonzero" group-id="1,2,3,7,12" node-id="98" stroke="none" target-height="59.410004" target-width="89.78" target-x="284.55" target-y="274.04"></path><path d="M 396.10 261.85 C 391.94 259.50 385.31 257.53 375.50 259.18 C 371.14 259.91 351.43 267.44 341.77 288.55 C 328.31 317.98 338.62 362.20 371.58 416.44 C 392.29 450.52 405.76 481.55 409.58 508.67 C 413.28 534.90 409.19 557.85 397.46 576.87 C 377.98 608.42 340.60 620.85 311.12 620.86 C 308.59 620.86 307.15 620.76 304.75 620.56 C 274.99 618.13 250.29 604.45 233.31 579.03 C 221.39 561.18 218.56 544.00 218.16 542.10 C 218.16 542.10 210.33 511.21 234.20 508.10 C 258.07 504.99 264.77 535.52 264.77 535.52 L 264.72 535.30 C 264.74 535.40 267.14 545.58 274.12 555.50 C 282.11 566.87 292.49 572.93 305.84 574.02 C 316.04 574.85 340.57 571.00 351.21 553.76 C 364.05 532.96 355.16 495.24 326.18 447.55 C 303.76 410.66 289.95 376.41 285.13 345.74 C 280.76 317.96 283.59 292.85 293.53 271.11 C 311.88 231.00 348.86 215.00 365.85 212.15 C 403.46 205.83 433.03 224.05 445.45 238.31 C 450.69 243.52 453.89 250.40 455.20 253.60 C 455.60 254.58 455.16 255.71 454.20 256.16 L 410.37 276.68 C 409.36 277.15 408.16 276.71 407.71 275.69 C 406.22 272.28 402.46 265.16 396.10 261.85 Z" fill="#1f1e1b" fill-rule="nonzero" group-id="1,2,3,7" node-id="101" stroke="none" target-height="415.02997" target-width="245.27" target-x="210.33" target-y="205.83"></path><path d="M 787.82 613.29 L 787.82 619.52 C 787.34 626.27 785.39 631.10 782.02 633.88 C 778.56 636.74 773.23 637.75 766.13 636.89 C 754.93 635.68 742.08 633.18 729.03 629.68 C 717.53 626.43 714.10 620.37 714.00 620.18 C 712.88 617.96 710.18 617.07 707.96 618.19 C 705.74 619.31 704.85 622.02 705.97 624.23 C 706.47 625.22 711.28 634.01 726.65 638.35 C 740.19 641.99 753.52 644.57 765.11 645.82 C 767.08 646.06 768.97 646.18 770.78 646.18 C 777.74 646.18 783.44 644.38 787.77 640.81 C 788.02 640.61 788.26 640.40 788.49 640.18 C 788.96 639.75 789.72 639.88 790.02 640.45 C 792.44 645.01 796.47 649.75 803.12 651.80 C 803.16 651.81 803.20 651.82 803.23 651.83 C 815.81 655.36 828.27 657.66 838.29 658.31 C 838.39 658.32 838.49 658.32 838.58 658.32 C 841.12 658.32 843.22 656.20 843.07 653.54 C 842.94 651.25 841.00 649.47 838.71 649.32 C 829.33 648.70 817.63 646.52 805.72 643.19 C 797.05 640.47 795.47 628.77 795.46 628.67 C 795.45 628.59 795.42 628.52 795.41 628.44 C 796.14 625.88 796.61 623.06 796.82 619.97 C 796.83 619.87 796.83 613.88 796.83 613.88 L 787.82 613.29 Z" fill="#ffffff" fill-rule="nonzero" group-id="1,2,3,8" node-id="106" stroke="none" target-height="45.03003" target-width="138.37" target-x="704.85" target-y="613.29"></path><path d="M 838.57 659.83 C 838.44 659.83 838.31 659.83 838.18 659.82 C 828.05 659.17 815.49 656.85 802.81 653.29 L 802.66 653.25 C 796.84 651.45 792.24 647.58 788.99 641.74 C 788.90 641.82 788.80 641.90 788.70 641.98 C 782.95 646.73 774.90 648.54 764.91 647.32 C 753.24 646.06 739.86 643.46 726.25 639.81 C 710.25 635.29 705.15 625.97 704.62 624.92 C 703.13 621.97 704.32 618.35 707.27 616.86 C 710.23 615.37 713.84 616.56 715.33 619.51 C 715.33 619.51 718.60 625.18 729.43 628.24 C 742.40 631.72 755.15 634.20 766.28 635.40 C 772.95 636.21 777.92 635.32 781.06 632.73 C 784.09 630.23 785.86 625.77 786.32 619.47 L 786.32 613.29 C 786.32 612.87 786.49 612.48 786.80 612.19 C 787.10 611.91 787.51 611.76 787.92 611.79 L 796.92 612.40 C 797.71 612.45 798.32 613.11 798.32 613.90 C 798.32 619.94 798.31 620.02 798.31 620.09 C 798.10 623.10 797.64 625.94 796.94 628.51 C 797.01 629.02 798.62 639.40 806.16 641.77 C 817.92 645.06 829.53 647.22 838.81 647.84 C 841.92 648.05 844.40 650.47 844.57 653.48 C 844.67 655.16 844.09 656.75 842.94 657.96 C 841.80 659.15 840.21 659.83 838.57 659.83 Z M 787.82 619.52 L 787.82 619.52 L 787.82 619.52 Z" fill="#ffffff" fill-rule="nonzero" group-id="1,2,3,8" node-id="108" stroke="none" target-height="48.070007" target-width="141.53998" target-x="703.13" target-y="611.76"></path><path d="M 796.82 618.90 C 797.05 618.66 797.28 618.41 797.48 618.13 L 821.13 584.81 C 823.70 581.19 821.58 576.12 817.19 575.41 L 769.89 567.76 C 764.90 566.95 761.21 572.30 763.74 576.68 L 787.39 617.65 C 787.52 617.88 796.82 618.90 796.82 618.90 Z" fill="#ffffff" fill-rule="nonzero" group-id="1,2,3" node-id="111" stroke="none" target-height="51.950012" target-width="62.48999" target-x="761.21" target-y="566.95"></path><path d="M 939.72 499.73 C 901.61 499.73 870.72 536.26 870.72 583.77 C 870.72 631.28 901.61 671.76 939.72 671.76 C 977.83 671.76 1008.72 635.23 1008.72 587.72 C 1008.73 540.22 977.83 499.73 939.72 499.73 Z M 939.72 660.76 C 928.17 660.76 918.81 625.45 918.81 584.02 C 918.81 542.59 928.17 510.73 939.72 510.73 C 951.27 510.73 960.63 546.04 960.63 587.47 C 960.63 628.90 951.27 660.76 939.72 660.76 Z" fill="#ffffff" fill-rule="nonzero" group-id="1,2,3" node-id="113" stroke="none" target-height="172.03" target-width="138.01001" target-x="870.72" target-y="499.73"></path><path d="M 625.72 439.72 C 587.06 439.72 555.72 476.25 555.72 523.76 C 555.72 571.27 587.06 611.75 625.72 611.75 C 664.38 611.75 695.72 575.22 695.72 527.71 C 695.73 480.21 664.38 439.72 625.72 439.72 Z M 625.72 600.75 C 614.01 600.75 604.51 565.44 604.51 524.01 C 604.51 482.58 614.01 450.72 625.72 450.72 C 637.44 450.72 646.93 486.03 646.93 527.46 C 646.94 568.89 637.44 600.75 625.72 600.75 Z" fill="#ffffff" fill-rule="nonzero" group-id="1,2,3" node-id="115" stroke="none" target-height="172.03" target-width="140.01001" target-x="555.72" target-y="439.72"></path><path d="M 579.86 198.31 L 687.78 287.79 C 690.02 289.69 691.31 292.48 691.31 295.42 L 693.31 418.27 C 693.31 421.46 696.86 423.36 699.52 421.61 L 738.84 395.61 C 740.50 394.51 742.71 394.80 744.03 396.28 L 781.27 437.96 C 782.66 439.51 785.00 439.74 786.67 438.49 L 822.13 411.68 C 823.65 410.53 825.76 410.61 827.18 411.87 L 875.69 454.53 C 878.34 456.86 882.48 454.87 882.33 451.35 L 876.93 330.32 C 876.80 327.40 875.41 324.68 873.10 322.88 L 755.49 233.54 C 753.02 231.66 750.14 230.39 747.09 229.81 L 579.86 198.31 Z" fill="#f43b2e" fill-rule="nonzero" group-id="1,2,3" node-id="117" stroke="none" target-height="258.55" target-width="302.62" target-x="579.86" target-y="198.31"></path><path d="M 483.98 700.86 C 481.49 700.86 479.48 698.85 479.48 696.36 L 479.48 285.25 C 479.48 282.76 481.49 280.75 483.98 280.75 C 486.47 280.75 488.48 282.76 488.48 285.25 L 488.48 696.36 C 488.48 698.84 486.46 700.86 483.98 700.86 Z" fill="#ffffff" fill-opacity="0.8" fill-rule="nonzero" group-id="1,2,3,9" node-id="121" stroke="none" target-height="420.11" target-width="9" target-x="479.48" target-y="280.75"></path><path d="M 1079.08 564.55 C 1077.76 564.55 1076.21 563.50 1076.14 560.54 C 1075.34 527.47 1068.21 488.25 1019.71 478.38 C 1017.57 477.94 1015.54 477.53 1015.81 475.30 C 1016.08 473.04 1018.24 473.12 1020.73 473.22 C 1030.88 473.62 1049.51 473.03 1060.31 464.65 C 1072.12 455.49 1075.61 428.42 1076.76 419.53 C 1077.02 417.52 1077.38 414.79 1079.84 414.84 C 1082.35 414.91 1082.57 417.92 1082.68 419.37 L 1082.68 419.37 L 1082.89 422.18 C 1083.28 427.37 1083.86 435.20 1083.94 435.84 C 1089.21 480.12 1114.06 487.06 1132.29 488.43 C 1133.52 488.52 1135.81 488.69 1135.78 490.96 C 1135.76 493.25 1133.56 493.37 1131.44 493.48 C 1094.72 495.45 1082.25 512.02 1081.99 559.15 C 1082.02 560.57 1082.09 564.49 1079.13 564.55 C 1079.12 564.55 1079.10 564.55 1079.08 564.55 Z" fill="#fccd11" fill-rule="nonzero" group-id="1,2,3" node-id="124" stroke="none" target-height="149.75998" target-width="120.27008" target-x="1015.54" target-y="414.79"></path><path d="M 1073.12 988.77 C 1088.19 1050.96 1032.70 1083.91 867.61 1072.06 C 863.68 1071.78 860.28 1069.20 858.96 1065.48 C 856.82 1059.46 853.02 1049.38 847.55 1037.08 C 842.66 1026.08 838.66 1018.32 836.03 1013.53 C 834.57 1010.88 836.50 1007.64 839.53 1007.66 C 915.96 1007.98 991.80 989.48 974.78 926.43 C 972.24 917.04 979.74 908.02 989.44 908.80 C 1005.99 910.12 1026.80 919.65 1026.96 964.20 C 1026.96 964.19 1065.40 956.90 1073.12 988.77 Z" fill="#343330" fill-rule="nonzero" group-id="1,2,4" node-id="129" stroke="none" target-height="175.89001" target-width="253.61993" target-x="834.57" target-y="908.02"></path><path d="M 737.73 1161.86 L 742.72 1211.87 L 827.72 1211.87 L 821.73 1159.86 Z" fill="#343330" fill-rule="nonzero" group-id="1,2,4" node-id="131" stroke="none" target-height="52.01001" target-width="89.98999" target-x="737.73" target-y="1159.86"></path><path d="M 738.72 1162.86 L 743.22 1211.87 L 272.72 1211.87 C 272.72 1211.87 258.57 827.79 529.72 827.79 C 642.01 827.79 721.61 870.29 773.44 929.25 C 858.23 1025.71 871.72 1162.85 871.72 1162.85 L 692.72 1162.85 L 738.72 1162.86 Z" fill="#f43b2e" fill-rule="nonzero" group-id="1,2,4" node-id="133" stroke="none" target-height="384.08002" target-width="613.14996" target-x="258.57" target-y="827.79"></path><path d="M 875.95 1158.81 C 875.66 1156.06 873.20 1154.07 870.45 1154.36 C 870.03 1154.40 827.48 1158.85 784.12 1160.31 C 703.41 1163.04 694.45 1153.15 693.48 1151.15 L 693.25 1150.67 L 692.92 1150.25 C 683.25 1137.86 670.03 1018.34 663.96 945.91 C 663.73 943.16 661.30 941.10 658.56 941.34 C 655.81 941.57 653.76 943.99 653.99 946.74 C 654.03 947.21 658.01 994.59 663.68 1043.58 C 664.60 1051.52 665.49 1058.89 666.35 1065.74 C 635.17 1027.98 625.98 977.99 625.89 977.45 C 625.41 974.73 622.81 972.92 620.10 973.40 C 617.38 973.88 615.57 976.47 616.05 979.19 C 616.50 981.71 627.41 1041.33 667.42 1081.83 C 667.77 1082.18 668.17 1082.45 668.58 1082.68 C 676.04 1137.32 681.23 1151.12 684.72 1155.97 C 688.56 1163.14 701.25 1170.78 757.55 1170.78 C 765.61 1170.78 774.56 1170.62 784.51 1170.29 C 828.23 1168.81 871.08 1164.33 871.51 1164.29 C 874.25 1164.01 876.24 1161.55 875.95 1158.81 Z" fill="#ffffff" fill-rule="nonzero" group-id="1,2,4" node-id="135" stroke="none" target-height="229.68005" target-width="260.66998" target-x="615.57" target-y="941.1"></path></g></g></svg>