<svg height="1200" node-id="1" sillyvg="true" template-height="1200" template-width="1200"
    version="1.1" viewBox="0 0 1200 1200" width="1200" xmlns="http://www.w3.org/2000/svg"
    xmlns:xlink="http://www.w3.org/1999/xlink">
    <defs node-id="70">
        <clipPath id="SVGID_2_" node-id="8">
            <path d="M 0.00 0.00 L 1200.00 0.00 L 1200.00 1200.00 L 0.00 1200.00 Z" fill="#000000"
                fill-rule="nonzero" node-id="73" stroke="none" target-height="1200"
                target-width="1200" target-x="0" target-y="0"></path>
        </clipPath>
        <clipPath id="SVGID_4_" node-id="14">
            <path
                d="M 768.99 915.76 L 1031.54 851.52 C 1040.46 849.34 1046.75 841.36 1046.79 832.18 L 1048.68 371.64 C 1048.70 365.88 1044.63 360.91 1038.97 359.81 L 495.21 254.10 C 487.09 252.52 478.68 253.50 471.14 256.90 L 147.94 398.54 C 143.56 400.46 140.74 404.80 140.76 409.58 L 142.65 849.44 C 142.69 859.40 150.05 867.80 159.91 869.17 L 369.14 898.06 L 730.81 924.06 L 768.99 915.76 Z"
                fill="#000000" fill-rule="nonzero" node-id="77" stroke="none" target-height="671.54"
                target-width="907.95996" target-x="140.74" target-y="252.52"></path>
        </clipPath>
        <clipPath id="SVGID_6_" node-id="42">
            <path
                d="M 1037.50 354.39 C 1039.70 354.84 1040.86 351.89 1038.94 350.72 L 891.18 260.56 C 884.93 256.67 878.03 253.96 870.80 252.57 L 386.12 159.27 C 384.04 158.87 382.85 161.55 384.53 162.83 C 384.53 162.83 450.00 215.93 471.78 233.93 C 477.54 238.55 484.56 240.70 496.65 243.35 C 584.34 261.36 966.88 339.90 1037.50 354.39 Z"
                fill="#000000" fill-rule="nonzero" node-id="81" stroke="none" target-height="195.97"
                target-width="658.01" target-x="382.85" target-y="158.87"></path>
        </clipPath>
        <clipPath id="SVGID_8_" node-id="55">
            <path
                d="M 738.72 1160.86 L 743.22 1209.87 L 272.72 1209.87 C 272.72 1209.87 258.57 825.79 529.72 825.79 C 642.01 825.79 721.61 868.29 773.44 927.25 C 858.23 1023.71 871.72 1160.85 871.72 1160.85 L 692.72 1160.85 L 738.72 1160.86 Z"
                fill="#000000" fill-rule="nonzero" node-id="85" stroke="none"
                target-height="384.08002" target-width="613.14996" target-x="258.57"
                target-y="825.79"></path>
        </clipPath>
    </defs>
    <path d="M 0.00 0.00 L 1200.00 0.00 L 1200.00 1200.00 L 0.00 1200.00 Z" fill="#faefbe"
        fill-rule="nonzero" node-id="89" stroke="none" target-height="1200" target-width="1200"
        target-x="0" target-y="0"></path>
    <g node-id="252">
        <g node-id="253">
            <g clip-path="url(#SVGID_2_)" group-id="1,2" id="head_1_" node-id="10">
                <g clip-path="url(#SVGID_4_)" group-id="1,2,4,8" node-id="96">
                    <path
                        d="M 757.57 924.68 C 758.51 924.73 759.46 924.65 760.38 924.43 L 1044.81 858.02 C 1046.54 857.59 1048.10 849.41 1048.58 846.68 C 1048.68 846.11 1048.73 845.54 1048.73 844.97 L 1048.73 368.94 C 1048.73 364.15 1045.34 360.04 1040.64 359.12 L 495.21 253.10 C 487.09 251.52 478.68 252.50 471.14 255.90 L 146.71 398.08 C 143.07 399.67 140.72 403.27 140.72 407.24 L 140.72 866.95 C 140.72 872.00 144.49 876.26 149.50 876.88 L 370.80 904.03 C 371.03 904.06 371.26 904.08 371.48 904.09 L 757.57 924.68 Z"
                        fill="#f7c20a" fill-rule="nonzero" group-id="1,2,4,8" node-id="98"
                        stroke="none" target-height="673.20996" target-width="908.01"
                        target-x="140.72" target-y="251.52"></path>
                </g>
                <g clip-path="url(#SVGID_4_)" group-id="1,2,4,9" node-id="101">
                    <path
                        d="M 1048.16 968.80 L 1048.16 655.70 L 494.64 546.10 C 486.52 544.52 478.11 545.50 470.57 548.90 L 91.18 691.18 L 97.83 961.87 L 1048.16 968.80 Z"
                        fill="#fffae6" fill-rule="nonzero" group-id="1,2,4,9" node-id="103"
                        stroke="none" target-height="424.27997" target-width="956.98004"
                        target-x="91.18" target-y="544.52"></path>
                </g>
                <g clip-path="url(#SVGID_4_)" group-id="1,2,4,10" node-id="106">
                    <path
                        d="M 751.01 664.00 C 748.75 664.00 746.59 662.72 745.57 660.54 C 744.17 657.54 745.46 653.97 748.46 652.56 C 749.81 651.93 782.02 637.00 813.00 637.00 C 816.31 637.00 819.00 639.69 819.00 643.00 C 819.00 646.31 816.31 649.00 813.00 649.00 C 784.74 649.00 753.85 663.29 753.54 663.43 C 752.72 663.82 751.86 664.00 751.01 664.00 Z"
                        fill="#e84a2c" fill-rule="nonzero" group-id="1,2,4,10" node-id="108"
                        stroke="none" target-height="27" target-width="74.83002" target-x="744.17"
                        target-y="637"></path>
                    <path
                        d="M 751.01 667.00 C 747.53 667.00 744.33 664.96 742.85 661.82 C 740.75 657.33 742.69 651.96 747.18 649.86 C 748.56 649.20 781.35 634.00 813.00 634.00 C 817.96 634.00 822.00 638.04 822.00 643.00 C 822.00 647.96 817.96 652.00 813.00 652.00 C 785.49 652.00 755.12 666.01 754.81 666.15 C 753.61 666.71 752.33 667.00 751.01 667.00 Z"
                        fill="#e84a2c" fill-rule="nonzero" group-id="1,2,4,10" node-id="110"
                        stroke="none" target-height="33" target-width="81.25" target-x="740.75"
                        target-y="634"></path>
                </g>
                <g clip-path="url(#SVGID_4_)" group-id="1,2,4,11" node-id="113">
                    <path
                        d="M 797.48 603.43 L 821.13 574.85 C 823.70 571.64 821.58 567.14 817.20 566.51 L 769.90 558.75 C 764.91 558.03 761.22 562.78 763.75 566.67 L 787.40 603.02 C 789.57 606.37 794.95 606.60 797.48 603.43 Z"
                        fill="#2e2725" fill-rule="nonzero" group-id="1,2,4,11" node-id="115"
                        stroke="none" target-height="48.569946" target-width="62.48004"
                        target-x="761.22" target-y="558.03"></path>
                </g>
                <g clip-path="url(#SVGID_4_)" group-id="1,2,4,12" node-id="118">
                    <path
                        d="M 648.55 473.04 L 605.75 466.10 C 601.56 465.52 597.45 467.64 595.50 471.39 C 593.55 475.15 594.17 479.72 597.06 482.82 L 617.00 505.20 L 617.00 525.00 C 617.00 541.57 630.43 555.00 647.00 555.00 C 663.57 555.00 677.00 541.57 677.00 525.00 L 677.00 503.00 C 677.00 486.95 666.25 475.58 648.55 473.04 Z"
                        fill="#2e2725" fill-rule="nonzero" group-id="1,2,4,12" node-id="120"
                        stroke="none" target-height="89.48001" target-width="83.45001"
                        target-x="593.55" target-y="465.52"></path>
                </g>
                <g clip-path="url(#SVGID_4_)" group-id="1,2,4,13" node-id="123">
                    <path
                        d="M 971.74 542.83 C 970.83 538.94 967.69 535.96 963.75 535.26 L 923.75 528.15 C 922.93 528.00 922.11 527.97 921.29 528.03 C 920.86 528.01 920.43 528.00 920.00 528.00 C 903.98 528.00 891.00 540.98 891.00 557.00 L 891.00 579.00 C 891.00 595.02 903.98 608.00 920.00 608.00 C 936.02 608.00 949.00 595.02 949.00 579.00 L 949.00 567.14 L 967.94 553.16 C 971.15 550.78 972.65 546.72 971.74 542.83 Z"
                        fill="#2e2725" fill-rule="nonzero" group-id="1,2,4,13" node-id="125"
                        stroke="none" target-height="80.03003" target-width="81.650024"
                        target-x="891" target-y="527.97"></path>
                </g>
                <g clip-path="url(#SVGID_4_)" group-id="1,2,4,14" node-id="128">
                    <path
                        d="M 382.87 901.77 L 158.30 870.14 C 152.11 869.27 151.21 860.70 157.09 858.56 L 468.35 745.38 C 478.36 741.72 489.16 740.82 499.64 742.76 L 1032.27 840.73 C 1038.48 841.87 1038.94 850.59 1032.89 852.38 L 1003.68 861.02 L 737.83 926.26 L 382.87 901.77 Z"
                        fill="#301a0f" fill-opacity="0.25" fill-rule="nonzero" group-id="1,2,4,14"
                        node-id="130" stroke="none" target-height="185.44" target-width="887.7299"
                        target-x="151.21" target-y="740.82"></path>
                </g>
                <g clip-path="url(#SVGID_4_)" group-id="1,2,4,15" node-id="133">
                    <path
                        d="M 637.51 433.50 C 636.15 433.50 634.77 433.37 633.40 433.11 L 572.90 421.61 C 560.96 419.34 553.13 407.83 555.40 395.89 C 557.16 386.64 564.47 379.85 573.22 378.32 L 562.79 367.89 C 554.20 359.30 554.20 345.37 562.79 336.78 C 571.38 328.19 585.31 328.19 593.90 336.78 L 653.07 395.95 C 659.90 402.78 661.48 413.26 656.96 421.79 C 653.09 429.09 645.54 433.50 637.51 433.50 Z"
                        fill="#302c27" fill-rule="nonzero" group-id="1,2,4,15" node-id="135"
                        stroke="none" target-height="105.31" target-width="108.349976"
                        target-x="553.13" target-y="328.19"></path>
                </g>
                <g clip-path="url(#SVGID_4_)" group-id="1,2,4,16" node-id="138">
                    <path
                        d="M 984.61 500.00 C 983.30 500.00 981.98 499.88 980.65 499.64 L 924.57 489.44 C 915.44 487.78 908.34 480.57 906.81 471.42 C 905.28 462.27 909.66 453.14 917.75 448.61 L 973.67 417.26 C 984.27 411.32 997.68 415.09 1003.62 425.69 C 1009.56 436.29 1005.79 449.70 995.19 455.64 L 992.16 457.34 C 1002.04 460.94 1008.19 471.24 1006.24 481.94 C 1004.29 492.56 995.03 500.00 984.61 500.00 Z"
                        fill="#302c27" fill-rule="nonzero" group-id="1,2,4,16" node-id="140"
                        stroke="none" target-height="88.67999" target-width="104.27997"
                        target-x="905.28" target-y="411.32"></path>
                </g>
                <g clip-path="url(#SVGID_4_)" group-id="1,2,4,17" node-id="143">
                    <path
                        d="M 1100.13 703.88 C 1098.77 703.88 1097.40 703.75 1096.01 703.49 L 995.28 684.42 C 983.34 682.16 975.50 670.65 977.76 658.71 C 980.02 646.77 991.53 638.93 1003.47 641.19 L 1104.20 660.26 C 1116.14 662.52 1123.98 674.03 1121.72 685.97 C 1119.72 696.53 1110.49 703.88 1100.13 703.88 Z"
                        fill="#302c27" fill-rule="nonzero" group-id="1,2,4,17" node-id="145"
                        stroke="none" target-height="64.95001" target-width="148.47998"
                        target-x="975.5" target-y="638.93"></path>
                </g>
                <g clip-path="url(#SVGID_4_)" group-id="1,2,4,18" node-id="148">
                    <path
                        d="M 1100.13 785.88 C 1098.77 785.88 1097.40 785.75 1096.01 785.49 L 995.28 766.42 C 983.34 764.16 975.50 752.65 977.76 740.71 C 980.02 728.77 991.53 720.93 1003.47 723.19 L 1104.20 742.26 C 1116.14 744.52 1123.98 756.03 1121.72 767.97 C 1119.72 778.53 1110.49 785.88 1100.13 785.88 Z"
                        fill="#302c27" fill-rule="nonzero" group-id="1,2,4,18" node-id="150"
                        stroke="none" target-height="64.95001" target-width="148.47998"
                        target-x="975.5" target-y="720.93"></path>
                </g>
                <g clip-path="url(#SVGID_4_)" group-id="1,2,4,19" node-id="153">
                    <path
                        d="M 288.57 638.50 L 288.57 509.15 C 288.57 497.76 297.42 488.06 308.80 487.66 C 320.75 487.24 330.57 496.79 330.57 508.65 L 330.57 592.40 L 457.97 544.85 C 471.82 539.68 486.83 538.40 501.36 541.15 L 568.29 553.82 C 579.69 555.98 587.17 566.96 585.02 578.36 C 582.86 589.76 571.88 597.24 560.48 595.09 L 493.56 582.42 C 486.56 581.10 479.34 581.71 472.67 584.20 L 302.08 647.87 C 295.53 650.31 288.57 645.47 288.57 638.50 Z"
                        fill="#302c27" fill-rule="nonzero" group-id="1,2,4,19" node-id="155"
                        stroke="none" target-height="163.07" target-width="298.59998"
                        target-x="288.57" target-y="487.24"></path>
                </g>
                <g clip-path="url(#SVGID_4_)" group-id="1,2,4,20" node-id="158">
                    <path
                        d="M 362.24 517.31 L 362.24 483.85 C 362.24 473.30 370.62 464.39 381.17 464.35 C 389.41 464.32 396.43 469.54 399.10 476.85 L 414.37 470.92 C 424.37 467.04 435.64 472.19 439.20 482.41 C 442.59 492.14 437.30 502.79 427.70 506.52 L 375.87 526.64 C 369.30 529.17 362.24 524.34 362.24 517.31 Z"
                        fill="#302c27" fill-rule="nonzero" group-id="1,2,4,20" node-id="160"
                        stroke="none" target-height="64.849976" target-width="80.350006"
                        target-x="362.24" target-y="464.32"></path>
                </g>
                <g clip-path="url(#SVGID_4_)" group-id="1,2,4,21" node-id="163">
                    <path
                        d="M 206.00 756.00 L 206.00 542.59 C 206.00 530.66 215.28 520.50 227.20 520.08 C 239.72 519.64 250.00 529.65 250.00 542.07 L 250.00 710.15 L 457.84 633.75 C 471.76 628.63 486.82 627.39 501.39 630.15 L 567.95 642.75 C 579.67 644.97 587.93 655.98 586.13 667.77 C 584.24 680.15 572.49 688.39 560.29 686.08 L 493.21 673.38 C 486.46 672.10 479.48 672.68 473.03 675.05 L 222.15 767.27 C 214.31 770.14 206.00 764.34 206.00 756.00 Z"
                        fill="#302c27" fill-rule="nonzero" group-id="1,2,4,21" node-id="165"
                        stroke="none" target-height="250.5" target-width="381.93" target-x="206"
                        target-y="519.64"></path>
                </g>
                <g clip-path="url(#SVGID_4_)" group-id="1,2,4,22" node-id="168">
                    <path
                        d="M 483.98 698.86 C 481.49 698.86 479.48 696.85 479.48 694.36 L 479.48 284.25 C 479.48 281.76 481.49 279.75 483.98 279.75 C 486.47 279.75 488.48 281.76 488.48 284.25 L 488.48 694.36 C 488.48 696.84 486.46 698.86 483.98 698.86 Z"
                        fill="#ffffff" fill-opacity="0.9" fill-rule="nonzero" group-id="1,2,4,22"
                        node-id="170" stroke="none" target-height="419.11" target-width="9"
                        target-x="479.48" target-y="279.75"></path>
                </g>
                <g clip-path="url(#SVGID_4_)" group-id="1,2,4,23" node-id="173">
                    <path
                        d="M 280.04 382.58 L 280.04 421.70 C 280.04 423.13 281.48 424.11 282.82 423.59 L 312.13 412.01 C 312.90 411.70 313.41 410.96 313.41 410.12 L 313.41 370.11 C 313.41 368.65 311.92 367.67 310.58 368.24 L 281.27 380.72 C 280.53 381.04 280.04 381.77 280.04 382.58 Z"
                        fill="#ffffff" fill-opacity="0.4" fill-rule="evenodd" group-id="1,2,4,23"
                        node-id="175" stroke="none" target-height="56.439972"
                        target-width="33.369995" target-x="280.04" target-y="367.67"></path>
                    <path
                        d="M 230.80 444.15 L 260.13 432.56 C 260.90 432.26 261.41 431.51 261.41 430.68 L 261.41 392.23 C 261.41 390.78 259.93 389.81 258.60 390.37 L 229.27 402.86 C 228.53 403.18 228.04 403.91 228.04 404.72 L 228.04 442.28 C 228.04 443.70 229.48 444.68 230.80 444.15 Z"
                        fill="#ffffff" fill-opacity="0.4" fill-rule="evenodd" group-id="1,2,4,23"
                        node-id="177" stroke="none" target-height="54.869995"
                        target-width="33.37001" target-x="228.04" target-y="389.81"></path>
                    <path
                        d="M 179.79 464.31 L 209.14 452.71 C 209.91 452.41 210.41 451.67 210.41 450.84 L 210.41 413.92 C 210.41 412.48 208.94 411.51 207.61 412.07 L 178.26 424.56 C 177.52 424.88 177.04 425.60 177.04 426.41 L 177.04 462.43 C 177.04 463.86 178.47 464.84 179.79 464.31 Z"
                        fill="#ffffff" fill-opacity="0.4" fill-rule="evenodd" group-id="1,2,4,23"
                        node-id="179" stroke="none" target-height="53.329987"
                        target-width="33.37001" target-x="177.04" target-y="411.51"></path>
                </g>
                <path
                    d="M 149.32 392.86 C 147.35 393.74 145.57 391.31 147.01 389.70 L 255.70 268.62 C 258.11 265.94 261.78 264.76 265.30 265.54 L 372.32 289.22 C 374.13 289.71 374.33 292.21 372.61 292.98 L 149.32 392.86 Z"
                    fill="#e8b109" fill-rule="nonzero" group-id="1,2" node-id="183" stroke="none"
                    target-height="128.97998" target-width="228.75998" target-x="145.57"
                    target-y="264.76"></path>
                <g clip-path="url(#SVGID_6_)" group-id="1,2,5" node-id="187">
                    <path
                        d="M 1037.50 354.39 C 1039.70 354.84 1040.86 351.89 1038.94 350.72 L 891.18 260.56 C 884.93 256.67 878.03 253.96 870.80 252.57 L 386.12 159.27 C 384.04 158.87 382.85 161.55 384.53 162.83 C 384.53 162.83 450.00 215.93 471.78 233.93 C 477.54 238.55 484.56 240.70 496.65 243.35 C 584.34 261.36 966.88 339.90 1037.50 354.39 Z"
                        fill="#f7c20a" fill-rule="nonzero" group-id="1,2,5,24" node-id="189"
                        stroke="none" target-height="195.97" target-width="658.01" target-x="382.85"
                        target-y="158.87"></path>
                </g>
                <path
                    d="M 579.86 196.31 L 687.78 285.79 C 690.02 287.69 691.31 290.48 691.31 293.42 L 693.31 441.27 C 693.31 444.46 696.86 446.36 699.52 444.61 L 738.84 418.61 C 740.50 417.51 742.71 417.80 744.03 419.28 L 781.27 460.96 C 782.66 462.51 785.00 462.74 786.67 461.49 L 822.13 434.68 C 823.65 433.53 825.76 433.61 827.18 434.87 L 875.69 477.53 C 878.34 479.86 882.48 477.87 882.33 474.35 L 876.93 328.32 C 876.80 325.40 875.41 322.68 873.10 320.88 L 755.49 231.54 C 753.02 229.66 750.14 228.39 747.09 227.81 L 579.86 196.31 Z"
                    fill="#fffae6" fill-rule="nonzero" group-id="1,2" node-id="193" stroke="none"
                    target-height="283.55" target-width="302.62" target-x="579.86"
                    target-y="196.31"></path>
                <path
                    d="M 747.88 389.70 C 736.83 389.70 727.88 380.75 727.88 369.70 L 727.88 339.70 C 727.88 328.65 736.83 319.70 747.88 319.70 C 758.93 319.70 767.88 328.65 767.88 339.70 L 767.88 369.70 C 767.88 380.74 758.92 389.70 747.88 389.70 Z"
                    fill="#302c27" fill-rule="nonzero" group-id="1,2" node-id="195" stroke="none"
                    target-height="70" target-width="40" target-x="727.88" target-y="319.7"></path>
                <path
                    d="M 829.88 404.70 C 818.83 404.70 809.88 395.75 809.88 384.70 L 809.88 354.70 C 809.88 343.65 818.83 334.70 829.88 334.70 C 840.93 334.70 849.88 343.65 849.88 354.70 L 849.88 384.70 C 849.88 395.74 840.92 404.70 829.88 404.70 Z"
                    fill="#302c27" fill-rule="nonzero" group-id="1,2" node-id="197" stroke="none"
                    target-height="70" target-width="40" target-x="809.88" target-y="334.7"></path>
            </g>
        </g>
        <g clip-path="url(#SVGID_2_)" group-id="1,3" id="body_1_" node-id="48">
            <path
                d="M 780.35 940.95 C 780.35 940.95 801.49 915.70 876.68 920.12 C 936.08 923.61 967.21 921.72 975.57 920.84 C 977.07 920.68 978.19 922.13 977.63 923.48 C 973.10 934.45 948.40 971.76 887.71 977.96 C 816.35 985.25 772.93 957.71 772.93 957.71 L 780.35 940.95 Z"
                fill="#d63715" fill-rule="evenodd" group-id="1,3" node-id="201" stroke="none"
                target-height="69.54999" target-width="205.26001" target-x="772.93"
                target-y="915.7"></path>
            <path
                d="M 743.72 925.87 C 743.72 925.87 806.55 924.15 840.58 957.87 C 874.61 991.59 906.86 1051.86 915.47 1059.87 C 922.60 1066.50 857.92 1081.38 797.64 1015.87 C 737.36 950.36 743.72 925.87 743.72 925.87 Z"
                fill="#f54431" fill-rule="evenodd" group-id="1,3" node-id="203" stroke="none"
                target-height="157.22998" target-width="185.23999" target-x="737.36"
                target-y="924.15"></path>
            <path d="M 737.73 1159.86 L 742.72 1209.87 L 827.72 1209.87 L 821.73 1157.86 Z"
                fill="#f7ca31" fill-rule="nonzero" group-id="1,3" node-id="205" stroke="none"
                target-height="52.01001" target-width="89.98999" target-x="737.73"
                target-y="1157.86"></path>
            <g clip-path="url(#SVGID_8_)" group-id="1,3,6,25" node-id="209">
                <path
                    d="M 738.72 1160.86 L 743.22 1209.87 L 272.72 1209.87 C 272.72 1209.87 258.57 825.79 529.72 825.79 C 642.01 825.79 721.61 868.29 773.44 927.25 C 858.23 1023.71 871.72 1160.85 871.72 1160.85 L 692.72 1160.85 L 738.72 1160.86 Z"
                    fill="#216ec7" fill-rule="nonzero" group-id="1,3,6,25" node-id="211"
                    stroke="none" target-height="384.08002" target-width="613.14996"
                    target-x="258.57" target-y="825.79"></path>
            </g>
            <g clip-path="url(#SVGID_8_)" group-id="1,3,6,26" node-id="214">
                <path
                    d="M 291.84 938.67 C 284.75 938.67 277.89 934.90 274.26 928.23 C 268.98 918.53 272.55 906.38 282.25 901.10 C 293.42 895.01 326.42 891.66 375.17 891.66 C 471.33 891.66 503.07 895.66 504.37 895.83 C 515.32 897.26 523.04 907.30 521.61 918.25 C 520.18 929.19 510.16 936.90 499.22 935.50 C 498.59 935.42 467.28 931.66 375.16 931.66 C 318.30 931.66 301.97 936.28 299.93 936.94 C 297.32 938.11 294.56 938.67 291.84 938.67 Z M 301.33 936.26 C 301.33 936.26 301.33 936.26 301.33 936.26 C 301.33 936.26 301.33 936.26 301.33 936.26 Z M 301.37 936.24 C 301.36 936.25 301.35 936.25 301.34 936.26 C 301.35 936.25 301.36 936.24 301.37 936.24 Z M 301.39 936.23 C 301.38 936.23 301.38 936.24 301.37 936.24 C 301.38 936.24 301.38 936.23 301.39 936.23 Z"
                    fill="#2e2725" fill-rule="nonzero" group-id="1,3,6,26" node-id="216"
                    stroke="none" target-height="47.01001" target-width="254.05997"
                    target-x="268.98" target-y="891.66"></path>
            </g>
            <g clip-path="url(#SVGID_8_)" group-id="1,3,6,27" node-id="219">
                <path
                    d="M 289.84 1014.67 C 282.75 1014.67 275.89 1010.90 272.26 1004.23 C 266.98 994.53 270.55 982.38 280.25 977.10 C 291.42 971.01 324.42 967.66 373.17 967.66 C 469.33 967.66 501.07 971.66 502.37 971.83 C 513.32 973.26 521.04 983.30 519.61 994.25 C 518.18 1005.19 508.16 1012.90 497.22 1011.50 C 496.59 1011.42 465.28 1007.66 373.16 1007.66 C 316.30 1007.66 299.97 1012.28 297.93 1012.94 C 295.32 1014.11 292.56 1014.67 289.84 1014.67 Z M 299.33 1012.26 C 299.33 1012.26 299.33 1012.26 299.33 1012.26 C 299.33 1012.26 299.33 1012.26 299.33 1012.26 Z M 299.37 1012.24 C 299.36 1012.25 299.35 1012.25 299.34 1012.26 C 299.35 1012.25 299.36 1012.24 299.37 1012.24 Z M 299.39 1012.23 C 299.38 1012.23 299.38 1012.24 299.37 1012.24 C 299.38 1012.24 299.38 1012.23 299.39 1012.23 Z"
                    fill="#2e2725" fill-rule="nonzero" group-id="1,3,6,27" node-id="221"
                    stroke="none" target-height="47.01001" target-width="254.05997"
                    target-x="266.98" target-y="967.66"></path>
            </g>
            <g clip-path="url(#SVGID_8_)" group-id="1,3,6,28" node-id="224">
                <path
                    d="M 279.84 1092.70 C 272.75 1092.70 265.89 1088.93 262.26 1082.26 C 256.98 1072.56 260.55 1060.41 270.25 1055.13 C 281.50 1049.00 314.79 1045.62 363.98 1045.62 C 461.06 1045.62 493.10 1049.66 494.41 1049.83 C 505.36 1051.26 513.08 1061.30 511.65 1072.25 C 510.22 1083.19 500.21 1090.90 489.27 1089.50 L 489.27 1089.50 C 488.96 1089.46 457.50 1085.62 363.97 1085.62 C 306.45 1085.62 289.98 1090.30 287.94 1090.96 C 285.33 1092.15 282.57 1092.70 279.84 1092.70 Z M 289.37 1090.27 C 289.37 1090.28 289.36 1090.28 289.37 1090.27 C 289.36 1090.28 289.37 1090.28 289.37 1090.27 Z M 289.39 1090.26 C 289.39 1090.26 289.38 1090.27 289.37 1090.27 C 289.38 1090.27 289.38 1090.27 289.39 1090.26 Z"
                    fill="#2e2725" fill-rule="nonzero" group-id="1,3,6,28" node-id="226"
                    stroke="none" target-height="47.079956" target-width="256.1" target-x="256.98"
                    target-y="1045.62"></path>
            </g>
            <g clip-path="url(#SVGID_8_)" group-id="1,3,6,29" node-id="229">
                <path
                    d="M 269.84 1175.84 C 262.75 1175.84 255.89 1172.07 252.26 1165.40 C 246.98 1155.70 250.55 1143.55 260.25 1138.27 C 271.82 1131.97 306.23 1128.50 357.15 1128.50 C 457.84 1128.50 491.04 1132.68 492.41 1132.86 C 503.36 1134.29 511.08 1144.33 509.65 1155.28 C 508.22 1166.22 498.20 1173.93 487.26 1172.53 C 486.66 1172.45 453.85 1168.50 357.15 1168.50 C 297.08 1168.50 280.05 1173.42 277.98 1174.09 C 275.35 1175.27 272.58 1175.84 269.84 1175.84 Z M 277.78 1174.16 C 277.78 1174.16 277.78 1174.16 277.78 1174.16 C 277.78 1174.16 277.78 1174.16 277.78 1174.16 Z M 279.37 1173.41 L 279.37 1173.41 C 279.37 1173.41 279.37 1173.41 279.37 1173.41 Z M 279.39 1173.40 C 279.39 1173.40 279.38 1173.40 279.38 1173.41 C 279.38 1173.40 279.38 1173.40 279.39 1173.40 Z"
                    fill="#2e2725" fill-rule="nonzero" group-id="1,3,6,29" node-id="231"
                    stroke="none" target-height="47.339966" target-width="264.09998"
                    target-x="246.98" target-y="1128.5"></path>
            </g>
            <g clip-path="url(#SVGID_8_)" group-id="1,3,6,30" node-id="234">
                <path
                    d="M 720.07 995.91 C 719.89 990.85 723.57 986.48 728.58 985.73 C 747.63 982.86 797.60 975.57 810.14 976.13 C 825.73 976.83 868.30 1087.12 874.46 1091.55 C 879.81 1095.39 802.91 1116.29 773.55 1120.76 C 765.00 1122.01 759.18 1118.40 756.26 1113.59 C 742.14 1090.37 721.00 1022.72 720.07 995.91 Z"
                    fill="#000000" fill-opacity="0.2" fill-rule="nonzero" group-id="1,3,6,30"
                    node-id="236" stroke="none" target-height="146.44" target-width="159.91998"
                    target-x="719.89" target-y="975.57"></path>
            </g>
            <path
                d="M 876.95 1156.81 C 876.66 1154.06 874.20 1152.07 871.46 1152.36 C 871.03 1152.40 828.24 1156.85 784.62 1158.31 C 703.42 1161.04 694.45 1151.16 693.47 1149.15 L 693.24 1148.67 L 692.91 1148.25 C 683.24 1135.86 670.02 1016.34 663.95 943.91 C 663.72 941.16 661.30 939.10 658.55 939.34 C 655.80 939.57 653.75 941.99 653.98 944.74 C 654.02 945.21 658.00 992.59 663.67 1041.58 C 664.59 1049.52 665.48 1056.89 666.34 1063.74 C 635.20 1026.03 626.00 976.11 625.88 975.45 C 625.40 972.73 622.80 970.92 620.09 971.40 C 617.37 971.88 615.56 974.47 616.04 977.19 C 616.48 979.71 627.40 1039.34 667.41 1079.83 C 667.76 1080.18 668.16 1080.45 668.57 1080.68 C 676.03 1135.32 681.22 1149.12 684.71 1153.97 C 688.55 1161.14 701.28 1168.78 757.89 1168.78 C 765.99 1168.78 774.99 1168.62 784.99 1168.29 C 828.96 1166.81 872.05 1162.33 872.48 1162.29 C 875.24 1162.01 877.24 1159.56 876.95 1156.81 Z"
                fill="#ffffff" fill-rule="nonzero" group-id="1,3" node-id="240" stroke="none"
                target-height="229.68005" target-width="261.68" target-x="615.56"
                target-y="939.1"></path>
            <path
                d="M 692.43 858.12 C 695.94 860.34 694.19 864.77 690.04 864.50 C 658.26 862.40 568.94 862.52 500.13 906.29 C 469.27 925.92 345.69 1009.74 355.86 963.77 C 359.67 946.55 349.60 926.70 348.71 904.84 C 348.16 891.45 354.18 877.92 359.75 871.62 C 388.05 839.61 456.54 811.00 537.50 816.88 C 625.84 823.29 672.58 845.58 692.43 858.12 Z"
                fill="#f54431" fill-rule="evenodd" group-id="1,3" node-id="242" stroke="none"
                target-height="198.73999" target-width="350.25" target-x="345.69"
                target-y="811"></path>
            <path
                d="M 722.28 982.87 C 721.93 977.82 725.45 973.33 730.43 972.40 C 749.37 968.87 799.05 959.84 811.61 959.96 C 813.56 959.98 816.99 961.69 819.77 964.69 C 839.19 985.66 874.40 1069.38 879.93 1073.06 C 885.45 1076.74 808.00 1101.45 779.39 1106.86 C 771.01 1108.99 766.22 1105.42 763.50 1101.48 C 748.64 1079.98 724.19 1010.19 722.28 982.87 Z"
                fill="#ffffff" fill-rule="nonzero" group-id="1,3,7" node-id="246" stroke="none"
                target-height="149.14996" target-width="163.52002" target-x="721.93"
                target-y="959.84"></path>
            <path
                d="M 758.99 1021.00 C 754.37 1021.00 750.21 1017.77 749.22 1013.07 C 748.08 1007.67 751.53 1002.36 756.93 1001.22 L 808.93 990.22 C 814.33 989.08 819.64 992.53 820.78 997.93 C 821.92 1003.33 818.47 1008.64 813.07 1009.78 L 761.07 1020.78 C 760.37 1020.93 759.68 1021.00 758.99 1021.00 Z"
                fill="#de4526" fill-rule="nonzero" group-id="1,3,7" node-id="248" stroke="none"
                target-height="31.919983" target-width="73.839966" target-x="748.08"
                target-y="989.08"></path>
            <path
                d="M 777.99 1065.00 C 773.53 1065.00 769.46 1061.99 768.31 1057.47 C 766.95 1052.12 770.18 1046.67 775.53 1045.31 L 826.53 1032.31 C 831.88 1030.94 837.33 1034.18 838.69 1039.53 C 840.05 1044.88 836.82 1050.33 831.47 1051.69 L 780.47 1064.69 C 779.64 1064.90 778.81 1065.00 777.99 1065.00 Z"
                fill="#de4526" fill-rule="nonzero" group-id="1,3,7" node-id="250" stroke="none"
                target-height="34.06006" target-width="73.099976" target-x="766.95"
                target-y="1030.94"></path>
        </g>
    </g>
</svg>