<svg xml:space="preserve" style="enable-background:new 0 0 1200 1200;" viewBox="0 0 1200 1200" y="0px" x="0px" xmlns:xlink="http://www.w3.org/1999/xlink" xmlns="http://www.w3.org/2000/svg" id="喵小天" version="1.1">
<style type="text/css">
	.st0{fill:#FAEFBE;}
	.st1{clip-path:url(#SVGID_2_);}
	.st2{clip-path:url(#SVGID_4_);fill:#343330;}
	.st3{clip-path:url(#SVGID_4_);fill:#1F1E1B;}
	.st4{fill:#343330;}
	.st5{opacity:0.2;}
	.st6{fill-rule:evenodd;clip-rule:evenodd;fill:#FFFFFF;}
	.st7{fill:#FFFFFF;}
	.st8{fill:#292927;}
	.st9{fill:#1F1E1B;}
	.st10{fill:#F43B2E;}
	.st11{opacity:0.8;fill:#FFFFFF;}
	.st12{fill:#FCCD11;}
</style>
<rect height="1200" width="1200" class="st0"></rect>
<g id="剪切蒙版">
	<defs>
		<rect height="1200" width="1200" id="SVGID_1_"></rect>
	</defs>
	<clipPath id="SVGID_2_">
		<use style="overflow:visible;" xlink:href="#SVGID_1_"></use>
	</clipPath>
	<g class="st1">
		<g>
			<g>
				<defs>
					<path d="M768.99,917.76l262.55-64.24c8.92-2.18,15.21-10.16,15.25-19.34l1.89-460.54
						c0.02-5.76-4.05-10.73-9.71-11.83L495.21,256.1c-8.12-1.58-16.53-0.6-24.07,2.8L147.94,400.54c-4.38,1.92-7.2,6.26-7.18,11.04
						l1.89,439.86c0.04,9.96,7.4,18.36,17.26,19.73l209.23,28.89l361.67,26L768.99,917.76z" id="SVGID_3_"></path>
				</defs>
				<clipPath id="SVGID_4_">
					<use style="overflow:visible;" xlink:href="#SVGID_3_"></use>
				</clipPath>
				<path d="M758.99,926.76l285.82-66.74c2.08-0.52,3.92-12.22,3.92-12.22V362.7L495.21,255.1
					c-8.12-1.58-16.53-0.6-24.07,2.8l-330.41,144.8v475.1l230.42,28.27L758.99,926.76z" class="st2"></path>
				<path d="M382.87,903.77L158.3,872.14c-6.19-0.87-7.09-9.44-1.21-11.58l311.26-113.18
					c10.01-3.66,20.81-4.56,31.29-2.62l532.63,97.97c6.21,1.14,6.67,9.86,0.62,11.65l-29.21,8.64l-265.85,63.24L382.87,903.77z" class="st3"></path>
			</g>
			<path d="M1037.5,356.39c2.2,0.45,3.36-2.5,1.44-3.67l-147.76-90.16c-6.25-3.89-13.15-6.6-20.38-7.99l-484.68-93.3
				c-2.08-0.4-3.27,2.28-1.59,3.56c0,0,65.47,53.1,87.25,71.1c5.76,4.62,12.78,6.77,24.87,9.42
				C584.34,263.36,966.88,341.9,1037.5,356.39z" class="st4"></path>
			<g class="st5">
				<path d="M280.04,384.58v39.12c0,1.43,1.44,2.41,2.78,1.89l29.31-11.58c0.77-0.31,1.28-1.05,1.28-1.89v-40.01
					c0-1.46-1.49-2.44-2.83-1.87l-29.31,12.48C280.53,383.04,280.04,383.77,280.04,384.58z" class="st6"></path>
				<path d="M230.8,446.15l29.33-11.59c0.77-0.3,1.28-1.05,1.28-1.88v-38.45c0-1.45-1.48-2.42-2.81-1.86l-29.33,12.49
					c-0.74,0.32-1.23,1.05-1.23,1.86v37.56C228.04,445.7,229.48,446.68,230.8,446.15z" class="st6"></path>
				<path d="M179.79,466.31l29.35-11.6c0.77-0.3,1.27-1.04,1.27-1.87v-36.92c0-1.44-1.47-2.41-2.8-1.85l-29.35,12.49
					c-0.74,0.32-1.22,1.04-1.22,1.85v36.02C177.04,465.86,178.47,466.84,179.79,466.31z" class="st6"></path>
			</g>
			<g>
				<path d="M273.32,698.5c-0.14,0-0.29-0.01-0.43-0.02c-28.63-2.72-44.08-21.75-44.72-22.56
					c-1.55-1.95-1.22-4.78,0.72-6.32c1.94-1.55,4.78-1.22,6.32,0.72c0.13,0.16,13.84,16.86,38.53,19.21
					c2.47,0.23,4.29,2.43,4.05,4.9C277.57,696.75,275.61,698.5,273.32,698.5z" class="st7"></path>
				<path d="M298.02,672.98c-0.04,0-0.07,0-0.11,0c-39.49-0.97-61.09-32.5-65.42-39.53c-0.15-0.21-0.29-0.43-0.41-0.67
					c-1.08-2.16-0.33-4.91,1.79-6.08c1.52-0.84,4.41-1.05,6.16,1.81c3.51,5.77,22.78,34.61,58.11,35.47
					c2.48,0.06,4.45,2.12,4.39,4.61C302.46,671.03,300.46,672.98,298.02,672.98z" class="st7"></path>
				<g>
					<path d="M286.36,273.37c0.23-0.57-0.11-1.21-0.71-1.34l-20.35-4.5c-3.52-0.78-7.19,0.4-9.6,3.08L147.01,391.7
						c-1.44,1.61,0.33,4.04,2.31,3.16l128.24-57.37c0.79-0.35,1.25-1.17,1.17-2.03C276.45,312.84,279.01,291.99,286.36,273.37z" class="st8"></path>
					<path d="M372.32,291.21l-77.59-17.17c-7.44,17.66-10.18,37.62-8.15,59.41l86.03-38.49
						C374.33,294.2,374.14,291.71,372.32,291.21z" class="st4"></path>
				</g>
				<path d="M396.1,261.85c-4.16-2.35-10.79-4.32-20.6-2.67c-4.36,0.73-24.07,8.26-33.73,29.37
					c-13.46,29.43-3.15,73.65,29.81,127.89c20.71,34.08,34.18,65.11,38,92.23c3.7,26.23-0.39,49.18-12.12,68.2
					c-19.48,31.55-56.86,43.98-86.34,43.99c-2.53,0-3.97-0.1-6.37-0.3c-29.76-2.43-54.46-16.11-71.44-41.53
					c-11.92-17.85-14.75-35.03-15.15-36.93c0,0-7.83-30.89,16.04-34c23.87-3.11,30.57,27.42,30.57,27.42l-0.05-0.22
					c0.02,0.1,2.42,10.28,9.4,20.2c7.99,11.37,18.37,17.43,31.72,18.52c10.2,0.83,34.73-3.02,45.37-20.26
					c12.84-20.8,3.95-58.52-25.03-106.21c-22.42-36.89-36.23-71.14-41.05-101.81c-4.37-27.78-1.54-52.89,8.4-74.63
					c18.35-40.11,55.33-56.11,72.32-58.96c37.61-6.32,67.18,11.9,79.6,26.16c5.24,5.21,8.44,12.09,9.75,15.29
					c0.4,0.98-0.04,2.11-1,2.56l-43.83,20.52c-1.01,0.47-2.21,0.03-2.66-0.99C406.22,272.28,402.46,265.16,396.1,261.85z" class="st9"></path>
			</g>
			<g>
				<path d="M787.82,613.29v6.23c-0.48,6.75-2.43,11.58-5.8,14.36c-3.46,2.86-8.79,3.87-15.89,3.01
					c-11.2-1.21-24.05-3.71-37.1-7.21c-11.5-3.25-14.93-9.31-15.03-9.5c-1.12-2.22-3.82-3.11-6.04-1.99
					c-2.22,1.12-3.11,3.83-1.99,6.04c0.5,0.99,5.31,9.78,20.68,14.12c13.54,3.64,26.87,6.22,38.46,7.47
					c1.97,0.24,3.86,0.36,5.67,0.36c6.96,0,12.66-1.8,16.99-5.37c0.25-0.2,0.49-0.41,0.72-0.63c0.47-0.43,1.23-0.3,1.53,0.27
					c2.42,4.56,6.45,9.3,13.1,11.35c0.04,0.01,0.08,0.02,0.11,0.03c12.58,3.53,25.04,5.83,35.06,6.48c0.1,0.01,0.2,0.01,0.29,0.01
					c2.54,0,4.64-2.12,4.49-4.78c-0.13-2.29-2.07-4.07-4.36-4.22c-9.38-0.62-21.08-2.8-32.99-6.13
					c-8.67-2.72-10.25-14.42-10.26-14.52c-0.01-0.08-0.04-0.15-0.05-0.23c0.73-2.56,1.2-5.38,1.41-8.47
					c0.01-0.1,0.01-6.09,0.01-6.09L787.82,613.29z" class="st7"></path>
				<path d="M838.57,659.83c-0.13,0-0.26,0-0.39-0.01c-10.13-0.65-22.69-2.97-35.37-6.53l-0.15-0.04
					c-5.82-1.8-10.42-5.67-13.67-11.51c-0.09,0.08-0.19,0.16-0.29,0.24c-5.75,4.75-13.8,6.56-23.79,5.34
					c-11.67-1.26-25.05-3.86-38.66-7.51c-16-4.52-21.1-13.84-21.63-14.89c-1.49-2.95-0.3-6.57,2.65-8.06
					c2.96-1.49,6.57-0.3,8.06,2.65c0,0,3.27,5.67,14.1,8.73c12.97,3.48,25.72,5.96,36.85,7.16c6.67,0.81,11.64-0.08,14.78-2.67
					c3.03-2.5,4.8-6.96,5.26-13.26v-6.18c0-0.42,0.17-0.81,0.48-1.1c0.3-0.28,0.71-0.43,1.12-0.4l9,0.61c0.79,0.05,1.4,0.71,1.4,1.5
					c0,6.04-0.01,6.12-0.01,6.19c-0.21,3.01-0.67,5.85-1.37,8.42c0.07,0.51,1.68,10.89,9.22,13.26c11.76,3.29,23.37,5.45,32.65,6.07
					c3.11,0.21,5.59,2.63,5.76,5.64c0.1,1.68-0.48,3.27-1.63,4.48C841.8,659.15,840.21,659.83,838.57,659.83z M787.82,619.52
					L787.82,619.52L787.82,619.52z" class="st7"></path>
			</g>
			<path d="M796.82,618.9c0.23-0.24,0.46-0.49,0.66-0.77l23.65-33.32c2.57-3.62,0.45-8.69-3.94-9.4l-47.3-7.65
				c-4.99-0.81-8.68,4.54-6.15,8.92l23.65,40.97C787.52,617.88,796.82,618.9,796.82,618.9z" class="st7"></path>
			<path d="M939.72,499.73c-38.11,0-69,36.53-69,84.04c0,47.51,30.89,87.99,69,87.99c38.11,0,69-36.53,69-84.04
				C1008.73,540.22,977.83,499.73,939.72,499.73z M939.72,660.76c-11.55,0-20.91-35.31-20.91-76.74c0-41.43,9.36-73.29,20.91-73.29
				c11.55,0,20.91,35.31,20.91,76.74S951.27,660.76,939.72,660.76z" class="st7"></path>
			<path d="M625.72,439.72c-38.66,0-70,36.53-70,84.04c0,47.51,31.34,87.99,70,87.99c38.66,0,70-36.53,70-84.04
				C695.73,480.21,664.38,439.72,625.72,439.72z M625.72,600.75c-11.71,0-21.21-35.31-21.21-76.74c0-41.43,9.5-73.29,21.21-73.29
				c11.72,0,21.21,35.31,21.21,76.74C646.94,568.89,637.44,600.75,625.72,600.75z" class="st7"></path>
			<path d="M579.86,198.31l107.92,89.48c2.24,1.9,3.53,4.69,3.53,7.63l2,122.85c0,3.19,3.55,5.09,6.21,3.34l39.32-26
				c1.66-1.1,3.87-0.81,5.19,0.67l37.24,41.68c1.39,1.55,3.73,1.78,5.4,0.53l35.46-26.81c1.52-1.15,3.63-1.07,5.05,0.19l48.51,42.66
				c2.65,2.33,6.79,0.34,6.64-3.18l-5.4-121.03c-0.13-2.92-1.52-5.64-3.83-7.44l-117.61-89.34c-2.47-1.88-5.35-3.15-8.4-3.73
				L579.86,198.31z" class="st10"></path>
			<path d="M483.98,700.86c-2.49,0-4.5-2.01-4.5-4.5V285.25c0-2.49,2.01-4.5,4.5-4.5s4.5,2.01,4.5,4.5v411.11
				C488.48,698.84,486.46,700.86,483.98,700.86z" class="st11"></path>
			<path d="M1079.08,564.55c-1.32,0-2.87-1.05-2.94-4.01c-0.8-33.07-7.93-72.29-56.43-82.16
				c-2.14-0.44-4.17-0.85-3.9-3.08c0.27-2.26,2.43-2.18,4.92-2.08c10.15,0.4,28.78-0.19,39.58-8.57
				c11.81-9.16,15.3-36.23,16.45-45.12c0.26-2.01,0.62-4.74,3.08-4.69c2.51,0.07,2.73,3.08,2.84,4.53v0l0.21,2.81
				c0.39,5.19,0.97,13.02,1.05,13.66c5.27,44.28,30.12,51.22,48.35,52.59c1.23,0.09,3.52,0.26,3.49,2.53
				c-0.02,2.29-2.22,2.41-4.34,2.52c-36.72,1.97-49.19,18.54-49.45,65.67c0.03,1.42,0.1,5.34-2.86,5.4
				C1079.12,564.55,1079.1,564.55,1079.08,564.55z" class="st12"></path>
		</g>
		<g>
			<path d="M1073.12,988.77c15.07,62.19-40.42,95.14-205.51,83.29c-3.93-0.28-7.33-2.86-8.65-6.58
				c-2.14-6.02-5.94-16.1-11.41-28.4c-4.89-11-8.89-18.76-11.52-23.55c-1.46-2.65,0.47-5.89,3.5-5.87
				c76.43,0.32,152.27-18.18,135.25-81.23c-2.54-9.39,4.96-18.41,14.66-17.63c16.55,1.32,37.36,10.85,37.52,55.4
				C1026.96,964.19,1065.4,956.9,1073.12,988.77z" class="st4"></path>
			<polygon points="737.73,1161.86 742.72,1211.87 827.72,1211.87 821.73,1159.86" class="st4"></polygon>
			<path d="M738.72,1162.86l4.5,49.01h-470.5c0,0-14.15-384.08,257-384.08c112.29,0,191.89,42.5,243.72,101.46
				c84.79,96.46,98.28,233.6,98.28,233.6h-179L738.72,1162.86z" class="st10"></path>
			<path d="M875.95,1158.81c-0.29-2.75-2.75-4.74-5.5-4.45c-0.42,0.04-42.97,4.49-86.33,5.95
				c-80.71,2.73-89.67-7.16-90.64-9.16l-0.23-0.48l-0.33-0.42c-9.67-12.39-22.89-131.91-28.96-204.34c-0.23-2.75-2.66-4.81-5.4-4.57
				c-2.75,0.23-4.8,2.65-4.57,5.4c0.04,0.47,4.02,47.85,9.69,96.84c0.92,7.94,1.81,15.31,2.67,22.16
				c-31.18-37.76-40.37-87.75-40.46-88.29c-0.48-2.72-3.08-4.53-5.79-4.05c-2.72,0.48-4.53,3.07-4.05,5.79
				c0.45,2.52,11.36,62.14,51.37,102.64c0.35,0.35,0.75,0.62,1.16,0.85c7.46,54.64,12.65,68.44,16.14,73.29
				c3.84,7.17,16.53,14.81,72.83,14.81c8.06,0,17.01-0.16,26.96-0.49c43.72-1.48,86.57-5.96,87-6
				C874.25,1164.01,876.24,1161.55,875.95,1158.81z" class="st7"></path>
		</g>
	</g>
</g>
</svg>
