<svg height="1200" node-id="1" sillyvg="true" template-height="1200" template-width="1200"
    version="1.1" viewBox="0 0 1200 1200" width="1200" xmlns="http://www.w3.org/2000/svg"
    xmlns:xlink="http://www.w3.org/1999/xlink">
    <defs node-id="65">
        <clipPath id="SVGID_2_" node-id="8">
            <path d="M 0.00 0.00 L 1200.00 0.00 L 1200.00 1200.00 L 0.00 1200.00 Z" fill="#000000"
                fill-rule="nonzero" node-id="68" stroke="none" target-height="1200"
                target-width="1200" target-x="0" target-y="0"></path>
        </clipPath>
        <clipPath id="SVGID_4_" node-id="22">
            <path
                d="M 768.42 915.76 L 1030.97 851.52 C 1039.89 849.34 1046.18 841.36 1046.22 832.18 L 1048.11 371.64 C 1048.13 365.88 1044.06 360.91 1038.40 359.81 L 494.64 254.10 C 486.52 252.52 478.11 253.50 470.57 256.90 L 147.37 398.54 C 142.99 400.46 140.17 404.80 140.19 409.58 L 142.08 849.44 C 142.12 859.40 149.48 867.80 159.34 869.17 L 368.57 898.06 L 730.24 924.06 L 768.42 915.76 Z"
                fill="#000000" fill-rule="nonzero" node-id="72" stroke="none" target-height="671.54"
                target-width="907.96" target-x="140.17" target-y="252.52"></path>
        </clipPath>
        <clipPath id="SVGID_6_" node-id="55">
            <path
                d="M 734.86 1160.86 L 739.36 1209.87 L 272.86 1209.87 C 272.86 1209.87 258.71 825.79 529.86 825.79 C 642.15 825.79 721.75 868.29 773.58 927.25 C 858.37 1023.71 871.86 1160.85 871.86 1160.85 L 722.86 1160.85 L 734.86 1160.86 Z"
                fill="#000000" fill-rule="nonzero" node-id="76" stroke="none"
                target-height="384.08002" target-width="613.15" target-x="258.71"
                target-y="825.79"></path>
        </clipPath>
    </defs>
    <path d="M 0.00 0.00 L 1200.00 0.00 L 1200.00 1200.00 L 0.00 1200.00 Z" fill="#f7ebd2"
        fill-rule="nonzero" node-id="80" stroke="none" target-height="1200" target-width="1200"
        target-x="0" target-y="0"></path>
    <g node-id="217">
        <g node-id="218">
            <g clip-path="url(#SVGID_2_)" group-id="1,2" id="head_12_" node-id="10">
                <path
                    d="M 149.44 384.36 L 259.03 262.27 C 261.56 259.46 265.45 258.31 269.10 259.30 L 366.86 285.88 L 149.44 384.36 Z"
                    fill="#ffffff" fill-rule="nonzero" group-id="1,2,4" node-id="87" stroke="none"
                    target-height="126.04999" target-width="217.41998" target-x="149.44"
                    target-y="258.31"></path>
                <path
                    d="M 149.44 389.86 C 148.13 389.86 146.82 389.40 145.77 388.45 C 143.51 386.42 143.32 382.94 145.35 380.68 L 254.94 258.60 C 258.88 254.21 264.86 252.45 270.55 254.00 L 368.30 280.58 C 371.23 281.38 372.96 284.40 372.16 287.33 C 371.36 290.26 368.34 291.99 365.41 291.19 L 267.65 264.61 C 265.99 264.16 264.26 264.67 263.11 265.94 L 153.54 388.04 C 152.45 389.25 150.95 389.86 149.44 389.86 Z"
                    fill="#b3976b" fill-rule="nonzero" group-id="1,2,4" node-id="89" stroke="none"
                    target-height="137.40999" target-width="229.63998" target-x="143.32"
                    target-y="252.45"></path>
                <path
                    d="M 1014.18 385.51 C 1014.18 385.51 1062.76 408.94 1088.74 363.79 C 1105.21 335.16 1112.35 293.37 1115.13 271.20 C 1115.55 267.84 1120.27 267.46 1121.21 270.71 C 1136.61 323.98 1178.75 503.02 1040.08 475.63 C 877.47 443.53 1014.18 385.51 1014.18 385.51 Z"
                    fill="#b3976b" fill-rule="nonzero" group-id="1,2" node-id="92" stroke="none"
                    target-height="235.56" target-width="301.28003" target-x="877.47"
                    target-y="267.46"></path>
                <path
                    d="M 431.88 264.05 C 433.72 263.21 433.30 260.49 431.30 260.25 C 397.47 256.23 355.44 246.02 315.85 219.03 C 243.15 169.47 224.95 99.79 220.12 73.56 C 219.56 70.51 215.37 70.10 214.21 72.97 C 197.22 115.08 140.77 275.74 289.85 324.56 C 292.22 325.34 294.81 325.22 297.09 324.20 L 431.88 264.05 Z"
                    fill="#b3976b" fill-rule="nonzero" group-id="1,2" node-id="94" stroke="none"
                    target-height="255.23999" target-width="292.95" target-x="140.77"
                    target-y="70.1"></path>
                <path
                    d="M 1037.33 346.87 L 890.60 260.56 C 884.35 256.67 877.45 253.96 870.22 252.57 L 385.54 159.27 C 383.46 158.87 382.27 161.55 383.95 162.83 C 383.95 162.83 449.42 215.93 471.20 233.93 L 1037.33 346.87 Z"
                    fill="#ffffff" fill-rule="nonzero" group-id="1,2,5" node-id="98" stroke="none"
                    target-height="188" target-width="655.05994" target-x="382.27"
                    target-y="158.87"></path>
                <path
                    d="M 1037.33 352.37 C 1036.38 352.37 1035.42 352.12 1034.55 351.61 L 887.70 265.23 C 882.00 261.68 875.78 259.24 869.19 257.97 L 398.21 167.31 C 417.76 183.19 458.52 216.31 474.71 229.69 C 477.05 231.63 477.38 235.09 475.45 237.43 C 473.51 239.77 470.05 240.10 467.71 238.17 C 446.45 220.60 382.68 168.87 380.55 167.14 C 377.83 165.01 376.91 161.34 378.33 158.18 C 379.76 154.98 383.16 153.21 386.60 153.87 L 871.28 247.17 C 879.17 248.69 886.64 251.61 893.47 255.85 L 1040.14 342.13 C 1042.76 343.67 1043.63 347.04 1042.09 349.66 C 1041.05 351.40 1039.21 352.37 1037.33 352.37 Z"
                    fill="#b3976b" fill-rule="nonzero" group-id="1,2,5" node-id="100" stroke="none"
                    target-height="199.15999" target-width="666.72" target-x="376.91"
                    target-y="153.21"></path>
                <g clip-path="url(#SVGID_4_)" group-id="1,2,6,10" node-id="105">
                    <path
                        d="M 758.42 919.76 L 1029.63 852.16 C 1039.40 849.72 1046.27 840.97 1046.31 830.90 L 1048.11 369.82 C 1048.14 364.53 1044.40 359.97 1039.21 358.96 L 494.64 253.10 C 486.52 251.52 478.11 252.50 470.57 255.90 L 147.36 397.55 C 142.99 399.47 140.17 403.79 140.18 408.57 L 141.12 846.90 C 141.15 858.88 150.01 869.01 161.88 870.63 L 370.59 899.07 L 758.42 919.76 Z"
                        fill="#ffffff" fill-rule="nonzero" group-id="1,2,6,10" node-id="107"
                        stroke="none" target-height="668.24" target-width="907.97003"
                        target-x="140.17" target-y="251.52"></path>
                    <path
                        d="M 758.42 931.76 C 758.21 931.76 757.99 931.75 757.78 931.74 L 369.94 911.05 C 369.61 911.03 369.28 911.00 368.96 910.96 L 160.25 882.52 C 142.54 880.11 129.15 864.80 129.11 846.93 L 128.17 408.60 C 128.15 399.05 133.79 390.40 142.54 386.57 L 465.70 244.94 C 475.54 240.52 486.33 239.27 496.93 241.33 L 1041.50 347.19 C 1052.35 349.30 1060.18 358.85 1060.11 369.90 L 1058.31 830.95 C 1058.25 846.53 1047.65 860.04 1032.53 863.81 L 761.32 931.41 C 760.37 931.64 759.40 931.76 758.42 931.76 Z M 371.71 887.11 L 757.27 907.67 L 1026.73 840.51 C 1031.18 839.40 1034.29 835.43 1034.31 830.84 L 1036.10 370.57 L 492.35 264.87 C 486.63 263.76 480.81 264.44 475.50 266.83 C 475.46 266.85 475.42 266.86 475.38 266.88 L 152.17 408.54 L 153.11 846.87 C 153.12 852.83 157.58 857.93 163.49 858.73 L 371.71 887.11 Z"
                        fill="#b3976b" fill-rule="nonzero" group-id="1,2,6,10" node-id="109"
                        stroke="none" target-height="692.49" target-width="932.03" target-x="128.15"
                        target-y="239.27"></path>
                </g>
                <g clip-path="url(#SVGID_4_)" group-id="1,2,6,11" node-id="112">
                    <path
                        d="M 139.93 475.84 C 139.93 475.84 189.81 485.41 200.45 540.94 C 211.09 596.47 165.20 623.91 161.87 650.08 C 158.54 676.25 169.86 708.16 166.53 726.03 C 163.20 743.90 152.56 775.47 121.97 766.54 C 91.38 757.61 139.93 475.84 139.93 475.84 Z"
                        fill="#7a570c" fill-opacity="0.3" fill-rule="nonzero" group-id="1,2,6,11"
                        node-id="114" stroke="none" target-height="299.62997" target-width="119.71"
                        target-x="91.38" target-y="475.84"></path>
                </g>
                <g clip-path="url(#SVGID_4_)" group-id="1,2,6,12" node-id="117">
                    <path
                        d="M 354.74 291.28 C 354.74 291.28 344.10 337.84 389.32 355.13 C 434.55 372.42 452.16 385.05 448.83 410.33 C 445.50 435.60 429.16 476.16 451.10 517.44 C 491.74 593.90 611.41 597.80 686.59 558.60 C 854.88 470.86 782.78 281.95 782.11 258.01 C 781.44 234.07 495.73 204.83 447.85 221.45 C 399.97 238.07 354.74 291.28 354.74 291.28 Z"
                        fill="#7a570c" fill-opacity="0.3" fill-rule="nonzero" group-id="1,2,6,12"
                        node-id="119" stroke="none" target-height="392.96997" target-width="510.78"
                        target-x="344.1" target-y="204.83"></path>
                </g>
                <g clip-path="url(#SVGID_4_)" group-id="1,2,6,13" node-id="122">
                    <path
                        d="M 381.25 901.46 L 157.71 869.98 C 151.55 869.11 150.65 860.58 156.50 858.45 L 466.33 745.79 C 476.29 742.15 487.05 741.25 497.47 743.18 L 1027.67 840.70 C 1033.85 841.84 1034.31 850.52 1028.28 852.30 L 999.21 860.90 L 734.58 925.84 L 381.25 901.46 Z"
                        fill="#7a570c" fill-opacity="0.3" fill-rule="nonzero" group-id="1,2,6,13"
                        node-id="124" stroke="none" target-height="184.59003"
                        target-width="883.66003" target-x="150.65" target-y="741.25"></path>
                </g>
                <g clip-path="url(#SVGID_4_)" group-id="1,2,6,14" node-id="127">
                    <path
                        d="M 483.41 698.86 C 480.92 698.86 478.91 696.85 478.91 694.36 L 478.91 285.25 C 478.91 282.76 480.92 280.75 483.41 280.75 C 485.90 280.75 487.91 282.76 487.91 285.25 L 487.91 694.36 C 487.91 696.84 485.89 698.86 483.41 698.86 Z"
                        fill="#664f1e" fill-opacity="0.3" fill-rule="nonzero" group-id="1,2,6,14"
                        node-id="129" stroke="none" target-height="418.11" target-width="9"
                        target-x="478.91" target-y="280.75"></path>
                </g>
                <g clip-path="url(#SVGID_4_)" group-id="1,2,6,15" node-id="132">
                    <path
                        d="M 279.47 382.58 L 279.47 421.70 C 279.47 423.13 280.91 424.11 282.25 423.59 L 311.56 412.01 C 312.33 411.70 312.84 410.96 312.84 410.12 L 312.84 370.11 C 312.84 368.65 311.35 367.67 310.01 368.24 L 280.70 380.72 C 279.96 381.04 279.47 381.77 279.47 382.58 Z"
                        fill="#ffd219" fill-rule="evenodd" group-id="1,2,6,15" node-id="134"
                        stroke="none" target-height="56.439972" target-width="33.369995"
                        target-x="279.47" target-y="367.67"></path>
                    <path
                        d="M 230.24 444.15 L 259.57 432.56 C 260.34 432.26 260.85 431.51 260.85 430.68 L 260.85 392.23 C 260.85 390.78 259.37 389.81 258.04 390.37 L 228.71 402.86 C 227.97 403.18 227.48 403.91 227.48 404.72 L 227.48 442.28 C 227.47 443.70 228.91 444.68 230.24 444.15 Z"
                        fill="#ffd219" fill-rule="evenodd" group-id="1,2,6,15" node-id="136"
                        stroke="none" target-height="54.869995" target-width="33.380005"
                        target-x="227.47" target-y="389.81"></path>
                    <path
                        d="M 179.22 464.31 L 208.57 452.71 C 209.34 452.41 209.84 451.67 209.84 450.84 L 209.84 413.92 C 209.84 412.48 208.37 411.51 207.04 412.07 L 177.69 424.56 C 176.95 424.88 176.47 425.60 176.47 426.41 L 176.47 462.43 C 176.47 463.86 177.90 464.84 179.22 464.31 Z"
                        fill="#ffd219" fill-rule="evenodd" group-id="1,2,6,15" node-id="138"
                        stroke="none" target-height="53.329987" target-width="33.369995"
                        target-x="176.47" target-y="411.51"></path>
                </g>
                <g clip-path="url(#SVGID_4_)" group-id="1,2,6,16" node-id="141">
                    <path
                        d="M 744.75 635.01 C 744.75 635.01 765.93 650.88 770.73 683.75 C 770.73 683.75 742.45 680.50 726.76 659.37 C 723.14 654.49 729.85 624.24 734.94 627.37 C 740.14 630.57 744.75 635.01 744.75 635.01 Z"
                        fill="#25b83b" fill-rule="nonzero" group-id="1,2,6,16" node-id="143"
                        stroke="none" target-height="59.51001" target-width="47.589966"
                        target-x="723.14" target-y="624.24"></path>
                </g>
                <g clip-path="url(#SVGID_4_)" group-id="1,2,6,17" node-id="146">
                    <path
                        d="M 712.02 679.19 C 711.97 679.19 711.93 679.19 711.88 679.19 C 710.16 679.16 708.52 678.59 707.15 677.53 C 703.65 674.84 703.00 669.81 705.68 666.31 C 735.15 627.98 713.57 574.94 713.35 574.41 C 711.65 570.34 713.57 565.64 717.64 563.94 C 721.71 562.24 726.41 564.17 728.11 568.23 C 728.53 569.23 738.11 592.50 737.24 620.65 C 751.85 624.87 786.81 633.74 826.37 635.01 L 826.37 635.01 C 828.51 635.08 830.49 635.97 831.95 637.53 C 833.41 639.09 834.18 641.12 834.11 643.26 C 833.97 647.56 830.40 651.00 826.12 651.00 C 826.07 651.00 826.03 651.00 825.98 651.00 L 825.80 651.00 C 787.50 649.78 753.58 641.85 735.56 636.81 C 732.88 651.52 727.10 664.71 718.37 676.06 C 716.86 678.02 714.50 679.19 712.02 679.19 Z"
                        fill="#b3976b" fill-rule="nonzero" group-id="1,2,6,17" node-id="148"
                        stroke="none" target-height="116.95001" target-width="131.18" target-x="703"
                        target-y="562.24"></path>
                </g>
                <g clip-path="url(#SVGID_4_)" group-id="1,2,6,18" node-id="151">
                    <path
                        d="M 920.43 588.00 C 904.41 588.00 891.43 575.02 891.43 559.00 L 891.43 537.00 C 891.43 520.98 904.41 508.00 920.43 508.00 C 936.45 508.00 949.43 520.98 949.43 537.00 L 949.43 559.00 C 949.43 575.02 936.45 588.00 920.43 588.00 Z"
                        fill="#2e2725" fill-rule="nonzero" group-id="1,2,6,18" node-id="153"
                        stroke="none" target-height="80" target-width="58" target-x="891.43"
                        target-y="508"></path>
                </g>
                <g clip-path="url(#SVGID_4_)" group-id="1,2,6,19" node-id="156">
                    <path
                        d="M 644.43 534.95 C 627.86 534.95 614.43 521.52 614.43 504.95 L 614.43 481.90 C 614.43 465.33 627.86 451.90 644.43 451.90 C 661.00 451.90 674.43 465.33 674.43 481.90 L 674.43 504.95 C 674.43 521.52 661.00 534.95 644.43 534.95 Z"
                        fill="#2e2725" fill-rule="nonzero" group-id="1,2,6,19" node-id="158"
                        stroke="none" target-height="83.05002" target-width="60" target-x="614.43"
                        target-y="451.9"></path>
                </g>
                <path
                    d="M 577.29 190.31 L 687.21 281.79 C 689.45 283.69 690.74 286.48 690.74 289.42 L 692.74 437.27 C 692.74 440.46 696.29 442.36 698.95 440.61 L 738.27 414.61 C 739.93 413.51 742.14 413.80 743.46 415.28 L 780.70 456.96 C 782.09 458.51 784.43 458.74 786.10 457.49 L 821.56 430.68 C 823.08 429.53 825.19 429.61 826.61 430.87 L 875.12 473.53 C 877.77 475.86 881.91 473.87 881.76 470.35 L 876.36 324.32 C 876.23 321.40 874.84 318.68 872.53 316.88 L 747.43 224.39 C 745.00 222.60 742.21 221.38 739.24 220.82 L 577.29 190.31 Z"
                    fill="#fc9799" fill-rule="nonzero" group-id="1,2" node-id="162" stroke="none"
                    target-height="285.55" target-width="304.62" target-x="577.29"
                    target-y="190.31"></path>
                <path
                    d="M 881.72 493.51 C 883.75 509.55 901.37 522.08 922.79 522.08 C 940.76 522.08 956.05 513.26 961.72 500.95 L 881.72 493.51 Z"
                    fill="#ffffff" fill-rule="nonzero" group-id="1,2" node-id="164" stroke="none"
                    target-height="28.570007" target-width="80" target-x="881.72"
                    target-y="493.51"></path>
                <path
                    d="M 922.76 528.00 C 898.94 528.00 879.17 513.74 876.78 494.83 C 876.33 491.31 878.83 488.09 882.35 487.64 C 885.86 487.19 889.09 489.69 889.54 493.21 C 891.10 505.51 905.70 515.14 922.77 515.14 C 937.15 515.14 949.89 508.46 954.46 498.51 C 955.94 495.29 959.77 493.87 962.99 495.36 C 966.22 496.84 967.63 500.66 966.14 503.89 C 959.49 518.31 942.06 528.00 922.76 528.00 Z"
                    fill="#2e2725" fill-rule="nonzero" group-id="1,2" node-id="166" stroke="none"
                    target-height="40.809998" target-width="91.29999" target-x="876.33"
                    target-y="487.19"></path>
                <path
                    d="M 688.98 451.06 C 685.90 451.06 683.10 448.97 682.32 445.85 C 678.95 432.23 662.95 421.87 644.27 421.23 C 628.70 420.68 614.78 428.03 608.85 439.91 C 607.16 443.30 603.03 444.68 599.65 442.99 C 596.26 441.30 594.88 437.18 596.57 433.79 C 604.89 417.11 623.79 406.80 644.74 407.52 C 669.82 408.38 690.75 422.79 695.64 442.56 C 696.55 446.24 694.31 449.96 690.63 450.87 C 690.08 450.99 689.53 451.06 688.98 451.06 Z"
                    fill="#2e2725" fill-rule="nonzero" group-id="1,2" node-id="168" stroke="none"
                    target-height="44.26001" target-width="101.66998" target-x="594.88"
                    target-y="406.8"></path>
                <path
                    d="M 181.60 679.68 L 203.84 670.81 C 206.05 669.93 208.54 671.17 209.17 673.47 L 221.45 718.53 L 222.15 718.25 L 235.72 659.94 C 236.02 658.67 236.92 657.62 238.13 657.14 L 258.81 648.89 C 261.43 647.84 264.28 649.78 264.28 652.60 L 264.28 741.17 C 264.28 742.80 263.28 744.27 261.77 744.88 L 252.20 748.70 C 249.58 749.75 246.73 747.81 246.73 744.99 L 246.73 674.44 L 246.03 674.72 L 230.84 737.08 C 230.53 738.33 229.64 739.36 228.44 739.84 L 216.62 744.55 C 214.44 745.42 211.98 744.23 211.32 741.98 L 197.12 694.23 L 196.42 694.51 L 196.42 768.25 C 196.42 769.88 195.42 771.35 193.91 771.96 L 184.57 775.68 C 181.95 776.73 179.10 774.79 179.10 771.97 L 179.10 683.40 C 179.08 681.75 180.08 680.29 181.60 679.68 Z"
                    fill="#fc9799" fill-rule="nonzero" group-id="1,2,7" node-id="172" stroke="none"
                    target-height="128.88995" target-width="85.2" target-x="179.08"
                    target-y="647.84"></path>
                <path
                    d="M 290.03 647.49 C 288.16 648.24 286.60 648.74 285.35 649.01 C 284.10 649.28 283.13 649.18 282.42 648.71 C 281.72 648.24 281.23 647.36 280.96 646.07 C 280.69 644.78 280.55 642.92 280.55 640.49 C 280.55 638.16 280.69 636.24 280.96 634.73 C 281.23 633.22 281.72 631.95 282.42 630.93 C 283.12 629.90 284.10 629.05 285.35 628.36 C 286.60 627.68 288.16 626.96 290.03 626.21 C 291.98 625.43 293.56 624.90 294.77 624.60 C 295.98 624.31 296.94 624.39 297.64 624.86 C 298.34 625.33 298.83 626.21 299.10 627.50 C 299.37 628.79 299.51 630.61 299.51 632.94 C 299.51 635.37 299.37 637.33 299.10 638.84 C 298.83 640.35 298.34 641.62 297.64 642.64 C 296.94 643.67 295.98 644.54 294.77 645.25 C 293.56 645.96 291.98 646.71 290.03 647.49 Z M 285.26 659.89 L 292.92 656.83 C 295.57 655.77 298.45 657.72 298.45 660.58 L 298.45 727.49 C 298.45 729.14 297.44 730.63 295.91 731.24 L 287.01 734.79 C 284.36 735.85 281.48 733.90 281.48 731.04 L 281.48 665.46 C 281.48 663.01 282.98 660.80 285.26 659.89 Z"
                    fill="#fc9799" fill-rule="nonzero" group-id="1,2,7" node-id="174" stroke="none"
                    target-height="111.53998" target-width="18.960022" target-x="280.55"
                    target-y="624.31"></path>
                <path
                    d="M 333.56 717.06 C 330.05 718.46 327.12 719.23 324.78 719.37 C 322.44 719.51 320.55 719.08 319.10 718.06 C 317.66 717.05 316.64 715.42 316.06 713.18 C 315.48 710.94 315.18 708.14 315.18 704.78 L 315.18 621.21 C 315.18 618.75 316.68 616.55 318.96 615.64 L 326.66 612.57 C 329.29 611.52 332.15 613.46 332.15 616.29 L 332.15 693.12 C 332.15 696.48 332.54 698.57 333.32 699.37 C 334.10 700.18 335.47 700.20 337.42 699.42 C 337.89 699.23 338.39 699.01 338.94 698.74 L 338.96 698.73 C 339.82 698.31 340.82 698.94 340.82 699.89 L 340.82 711.06 C 340.82 712.50 340.05 713.84 338.79 714.55 C 337.13 715.50 335.39 716.33 333.56 717.06 Z"
                    fill="#fc9799" fill-rule="nonzero" group-id="1,2,7" node-id="176" stroke="none"
                    target-height="107.98999" target-width="25.640015" target-x="315.18"
                    target-y="611.52"></path>
                <path
                    d="M 404.93 687.76 L 392.36 692.77 C 389.74 693.82 386.74 692.89 385.16 690.55 L 371.73 670.60 C 371.17 669.77 370.11 669.44 369.18 669.81 L 369.18 669.81 C 368.37 670.13 367.84 670.91 367.84 671.78 L 367.84 699.83 C 367.84 701.47 366.84 702.94 365.32 703.55 L 356.35 707.13 C 353.72 708.18 350.87 706.24 350.87 703.41 L 350.87 606.98 C 350.87 604.52 352.37 602.32 354.65 601.41 L 362.36 598.33 C 364.99 597.28 367.84 599.22 367.84 602.05 L 367.84 651.72 C 367.84 653.20 369.33 654.21 370.71 653.66 L 370.71 653.66 C 371.20 653.47 371.60 653.09 371.82 652.62 L 386.62 621.73 C 387.49 619.92 389.01 618.50 390.87 617.76 L 402.70 613.04 C 404.41 612.36 406.06 614.16 405.22 615.80 L 385.72 654.20 C 385.37 654.88 385.45 655.70 385.91 656.31 L 406.19 683.16 C 407.40 684.74 406.77 687.02 404.93 687.76 Z"
                    fill="#fc9799" fill-rule="nonzero" group-id="1,2,7" node-id="178" stroke="none"
                    target-height="110.89996" target-width="56.53" target-x="350.87"
                    target-y="597.28"></path>
            </g>
        </g>
        <g clip-path="url(#SVGID_2_)" group-id="1,3" id="body_11_" node-id="48">
            <path d="M 738.86 1159.86 L 743.86 1209.87 L 827.86 1209.87 L 821.86 1157.86 Z"
                fill="#ffffff" fill-rule="nonzero" group-id="1,3,8" node-id="185" stroke="none"
                target-height="52.01001" target-width="89" target-x="738.86"
                target-y="1157.86"></path>
            <path
                d="M 827.86 1214.87 L 743.86 1214.87 C 741.29 1214.87 739.14 1212.92 738.88 1210.37 L 733.88 1160.36 C 733.74 1158.98 734.19 1157.60 735.11 1156.55 C 736.03 1155.51 737.35 1154.90 738.74 1154.86 L 821.74 1152.86 C 821.78 1152.86 821.82 1152.86 821.86 1152.86 C 824.39 1152.86 827.53 1154.76 827.82 1157.29 L 833.82 1209.30 C 833.98 1210.72 832.53 1212.14 831.59 1213.20 C 830.65 1214.26 829.29 1214.87 827.86 1214.87 Z M 748.39 1204.87 L 822.26 1204.87 L 817.43 1162.97 L 744.39 1164.73 L 748.39 1204.87 Z"
                fill="#b3976b" fill-rule="nonzero" group-id="1,3,8" node-id="187" stroke="none"
                target-height="62.01001" target-width="100.23999" target-x="733.74"
                target-y="1152.86"></path>
            <g clip-path="url(#SVGID_6_)" group-id="1,3,9,20" node-id="192">
                <path
                    d="M 863.08 1161.16 C 867.84 1161.00 871.41 1156.75 870.73 1152.03 C 866.13 1120.22 845.52 1009.10 773.58 927.26 C 721.75 868.30 642.15 825.80 529.86 825.80 C 400.22 825.80 335.80 913.59 303.87 1005.23 C 303.87 1005.23 294.14 1032.66 285.11 1076.15 C 276.08 1119.63 275.64 1141.23 275.64 1141.23 C 271.83 1181.99 272.86 1209.88 272.86 1209.88 L 741.36 1209.88 L 813.33 1162.85 L 863.08 1161.16 Z"
                    fill="#ffffff" fill-rule="nonzero" group-id="1,3,9,20" node-id="194"
                    stroke="none" target-height="384.08002" target-width="599.57996"
                    target-x="271.83" target-y="825.8"></path>
                <path
                    d="M 741.36 1219.87 L 263.23 1219.87 L 262.88 1210.24 C 262.84 1209.08 261.88 1181.37 265.66 1140.61 C 265.77 1137.33 266.77 1115.33 275.32 1074.11 C 284.38 1030.46 294.04 1003.03 294.44 1001.88 C 313.29 947.79 339.88 904.68 373.45 873.78 C 415.27 835.30 467.89 815.79 529.86 815.79 C 661.32 815.79 739.04 872.81 781.09 920.65 C 826.08 971.83 851.06 1034.11 864.09 1077.34 C 878.18 1124.08 881.67 1158.44 881.81 1159.88 L 861.91 1161.84 L 871.86 1160.86 L 861.91 1161.84 C 861.88 1161.50 858.41 1127.63 844.81 1082.66 C 832.35 1041.46 808.57 982.20 766.07 933.85 C 709.68 869.70 628.00 835.78 529.86 835.78 C 473.07 835.78 425.01 853.51 386.99 888.49 C 355.87 917.13 331.07 957.51 313.30 1008.50 C 313.19 1008.82 303.65 1035.96 294.89 1078.16 C 286.22 1119.95 285.63 1141.21 285.63 1141.42 L 285.59 1142.13 C 283.19 1167.84 282.75 1188.49 282.73 1199.85 L 741.35 1199.85 L 741.35 1219.87 Z"
                    fill="#b3976b" fill-rule="nonzero" group-id="1,3,9,20" node-id="196"
                    stroke="none" target-height="404.08002" target-width="619.93" target-x="261.88"
                    target-y="815.79"></path>
            </g>
            <g clip-path="url(#SVGID_6_)" group-id="1,3,9,21" node-id="199">
                <path
                    d="M 346.97 917.30 C 346.97 917.30 370.19 933.13 363.85 957.40 C 357.52 981.67 345.91 1008.05 371.24 1033.37 C 396.56 1058.69 454.36 1034.31 476.75 1066.08 C 499.90 1098.92 495.74 1128.33 474.64 1183.20 C 453.54 1238.07 517.90 1302.43 517.90 1302.43 L 245.68 1268.67 C 245.68 1268.67 187.65 1130.45 239.35 1031.26 C 291.05 932.07 346.97 917.30 346.97 917.30 Z"
                    fill="#7a570c" fill-opacity="0.3" fill-rule="nonzero" group-id="1,3,9,21"
                    node-id="201" stroke="none" target-height="385.13007" target-width="330.25003"
                    target-x="187.65" target-y="917.3"></path>
            </g>
            <g clip-path="url(#SVGID_6_)" group-id="1,3,9,22" node-id="204">
                <path
                    d="M 473.80 941.75 C 483.94 879.15 544.04 888.92 567.58 926.79 C 576.56 942.75 605.49 941.75 622.45 951.73 C 682.05 986.78 625.90 1123.41 541.70 1043.21 C 527.65 1032.53 514.40 1026.70 505.72 1020.59 C 477.79 1000.94 470.24 963.73 473.80 941.75 Z"
                    fill="#7a570c" fill-opacity="0.3" fill-rule="nonzero" group-id="1,3,9,22"
                    node-id="206" stroke="none" target-height="244.26001" target-width="211.81"
                    target-x="470.24" target-y="879.15"></path>
            </g>
            <g clip-path="url(#SVGID_6_)" group-id="1,3,9,23" node-id="209">
                <path
                    d="M 805.97 965.71 C 805.97 965.71 740.13 978.68 747.11 1044.52 C 754.09 1110.36 820.93 1100.39 826.92 1104.38 C 832.91 1108.37 831.59 1121.34 847.87 1126.31 C 863.66 1131.13 869.79 1109.37 869.79 1109.37 L 848.44 1024.68 L 805.97 965.71 Z"
                    fill="#7a570c" fill-opacity="0.3" fill-rule="nonzero" group-id="1,3,9,23"
                    node-id="211" stroke="none" target-height="165.41998" target-width="129.65997"
                    target-x="740.13" target-y="965.71"></path>
            </g>
            <path
                d="M 873.09 1156.80 C 872.80 1154.05 870.33 1152.07 867.59 1152.36 C 867.17 1152.40 825.38 1156.85 782.76 1158.31 C 703.48 1161.04 694.60 1151.16 693.62 1149.15 L 693.39 1148.67 L 693.06 1148.25 C 683.39 1135.86 670.17 1016.34 664.10 943.91 C 663.87 941.16 661.45 939.12 658.70 939.34 C 655.95 939.57 653.90 941.99 654.13 944.74 C 654.17 945.21 658.15 992.59 663.82 1041.58 C 664.74 1049.52 665.63 1056.89 666.49 1063.74 C 635.31 1025.98 626.13 975.99 626.03 975.45 C 625.55 972.73 622.95 970.92 620.24 971.40 C 617.52 971.88 615.71 974.47 616.19 977.19 C 616.64 979.71 627.55 1039.34 667.56 1079.83 C 667.91 1080.18 668.31 1080.45 668.72 1080.68 C 676.18 1135.31 681.37 1149.12 684.86 1153.97 C 688.69 1161.14 701.22 1168.79 756.62 1168.79 C 764.55 1168.79 773.37 1168.63 783.15 1168.30 C 826.13 1166.82 868.23 1162.34 868.65 1162.30 C 871.39 1162.01 873.38 1159.54 873.09 1156.80 Z"
                fill="#b3976b" fill-rule="nonzero" group-id="1,3" node-id="215" stroke="none"
                target-height="229.67004" target-width="257.66998" target-x="615.71"
                target-y="939.12"></path>
        </g>
    </g>
</svg>