<svg height="1200" node-id="1" sillyvg="true" template-height="1200" template-width="1200"
    version="1.1" viewBox="0 0 1200 1200" width="1200" xmlns="http://www.w3.org/2000/svg"
    xmlns:xlink="http://www.w3.org/1999/xlink">
    <defs node-id="76">
        <clipPath id="SVGID_2_" node-id="8">
            <path d="M 0.00 0.00 L 1200.00 0.00 L 1200.00 1200.00 L 0.00 1200.00 Z" fill="#000000"
                fill-rule="nonzero" node-id="79" stroke="none" target-height="1200"
                target-width="1200" target-x="0" target-y="0"></path>
        </clipPath>
        <clipPath id="SVGID_4_" node-id="17">
            <path
                d="M 768.99 915.76 L 1031.54 851.52 C 1040.46 849.34 1046.75 841.36 1046.79 832.18 L 1048.68 371.64 C 1048.70 365.88 1044.63 360.91 1038.97 359.81 L 495.21 254.10 C 487.09 252.52 478.68 253.50 471.14 256.90 L 147.94 398.54 C 143.56 400.46 140.74 404.80 140.76 409.58 L 142.65 849.44 C 142.69 859.40 150.05 867.80 159.91 869.17 L 369.14 898.06 L 730.81 924.06 L 768.99 915.76 Z"
                fill="#000000" fill-rule="nonzero" node-id="83" stroke="none" target-height="671.54"
                target-width="907.95996" target-x="140.74" target-y="252.52"></path>
        </clipPath>
        <clipPath id="SVGID_6_" node-id="59">
            <path
                d="M 738.72 1160.86 L 743.22 1209.87 L 272.72 1209.87 C 272.72 1209.87 258.57 825.79 529.72 825.79 C 642.01 825.79 721.61 868.29 773.44 927.25 C 858.23 1023.71 871.72 1160.85 871.72 1160.85 L 692.72 1160.85 L 738.72 1160.86 Z"
                fill="#000000" fill-rule="nonzero" node-id="87" stroke="none"
                target-height="384.08002" target-width="613.14996" target-x="258.57"
                target-y="825.79"></path>
        </clipPath>
    </defs>
    <path d="M 0.00 0.00 L 1200.00 0.00 L 1200.00 1200.00 L 0.00 1200.00 Z" fill="#e9edf0"
        fill-rule="nonzero" node-id="91" stroke="none" target-height="1200" target-width="1200"
        target-x="0" target-y="0"></path>
    <g node-id="241">
        <g node-id="242">
            <g clip-path="url(#SVGID_2_)" group-id="1,2" id="head_6_" node-id="10">
                <path
                    d="M 623.43 80.08 L 544.87 212.15 C 543.87 213.80 542.22 214.78 539.99 215.08 C 538.84 215.19 537.64 215.07 536.46 214.64 C 535.69 214.36 534.90 213.89 534.11 213.25 L 496.20 181.72 C 494.12 179.99 491.15 179.61 488.88 180.76 L 457.32 196.82 C 455.53 197.78 453.55 197.85 451.39 197.06 C 450.49 196.73 449.76 196.32 449.19 195.84 C 448.02 194.92 447.21 193.84 446.77 192.51 C 446.33 191.20 446.31 189.93 446.77 188.68 L 457.15 160.15 C 458.02 157.76 459.80 155.80 462.19 154.57 L 567.49 100.66 C 568.62 100.08 567.85 98.38 566.67 98.84 L 454.76 142.44 C 453.68 142.76 452.44 142.51 451.56 141.77 L 416.91 112.91 C 414.63 111.11 413.82 108.91 414.56 106.29 C 415.31 103.78 417.10 102.36 419.92 102.05 L 615.65 70.34 C 616.92 70.16 618.12 70.31 619.32 70.74 C 620.74 71.26 621.88 72.07 622.76 73.16 C 624.56 75.47 624.74 77.79 623.43 80.08 L 623.43 80.08 Z"
                    fill="#7f47f0" fill-rule="nonzero" group-id="1,2" node-id="96" stroke="none"
                    target-height="145.03" target-width="210.91998" target-x="413.82"
                    target-y="70.16"></path>
                <path
                    d="M 1094.77 292.38 L 1078.21 234.22 C 1077.15 230.50 1074.04 227.72 1070.22 227.09 L 1006.90 216.66 C 1006.33 216.57 1006.39 215.72 1006.97 215.71 L 1067.00 214.13 C 1069.59 214.06 1071.43 211.59 1070.76 209.08 L 1061.40 174.58 C 1060.84 172.53 1058.78 171.27 1056.70 171.72 L 914.50 202.28 C 911.04 203.02 910.18 207.57 913.13 209.53 L 1022.49 281.89 C 1025.34 283.73 1028.95 282.99 1030.96 280.33 L 1037.45 270.97 L 1090.61 295.92 C 1092.94 297.02 1095.48 294.86 1094.77 292.38 Z"
                    fill="#ff8119" fill-rule="nonzero" group-id="1,2" node-id="98" stroke="none"
                    target-height="125.749985" target-width="185.29999" target-x="910.18"
                    target-y="171.27"></path>
                <path
                    d="M 794.92 138.66 L 703.23 268.73 C 702.72 269.53 701.88 269.95 700.94 269.90 C 700.00 269.85 699.20 269.46 698.65 268.72 L 667.96 222.62 C 666.99 221.04 665.27 220.13 663.41 219.92 C 661.54 219.70 659.75 220.31 658.39 221.65 L 639.61 239.45 C 638.75 240.23 637.68 240.41 636.65 240.00 C 635.61 239.59 634.96 238.62 635.02 237.45 L 634.96 187.09 C 634.94 185.21 634.21 183.53 632.75 182.28 L 606.34 159.77 C 605.44 159.02 605.14 157.95 605.55 156.91 C 605.84 155.87 606.70 155.09 607.88 155.04 L 792.32 134.42 C 793.38 134.24 794.41 134.76 794.95 135.73 C 795.50 136.69 795.56 137.75 794.92 138.66 L 794.92 138.66 Z"
                    fill="#40ccf5" fill-rule="nonzero" group-id="1,2" node-id="100" stroke="none"
                    target-height="135.71" target-width="190.41998" target-x="605.14"
                    target-y="134.24"></path>
                <g clip-path="url(#SVGID_4_)" group-id="1,2,4,8" node-id="104">
                    <path
                        d="M 758.99 924.76 L 1044.81 858.02 C 1046.89 857.50 1048.73 845.80 1048.73 845.80 L 1048.73 360.70 L 495.21 253.10 C 487.09 251.52 478.68 252.50 471.14 255.90 L 140.73 400.70 L 140.73 875.80 L 371.15 904.07 L 758.99 924.76 Z"
                        fill="#072d4d" fill-rule="nonzero" group-id="1,2,4,8" node-id="106"
                        stroke="none" target-height="673.24" target-width="908" target-x="140.73"
                        target-y="251.52"></path>
                </g>
                <g clip-path="url(#SVGID_4_)" group-id="1,2,4,9" node-id="109">
                    <path
                        d="M 382.87 901.77 L 158.30 870.14 C 152.11 869.27 151.21 860.70 157.09 858.56 L 468.35 745.38 C 478.36 741.72 489.16 740.82 499.64 742.76 L 1032.27 840.73 C 1038.48 841.87 1038.94 850.59 1032.89 852.38 L 1003.68 861.02 L 737.83 926.26 L 382.87 901.77 Z"
                        fill="#071b33" fill-opacity="0.9" fill-rule="nonzero" group-id="1,2,4,9"
                        node-id="111" stroke="none" target-height="185.44" target-width="887.7299"
                        target-x="151.21" target-y="740.82"></path>
                </g>
                <g clip-path="url(#SVGID_4_)" group-id="1,2,4,10" node-id="114">
                    <path
                        d="M 280.04 382.58 L 280.04 421.70 C 280.04 423.13 281.48 424.11 282.82 423.59 L 312.13 412.01 C 312.90 411.70 313.41 410.96 313.41 410.12 L 313.41 370.11 C 313.41 368.65 311.92 367.67 310.58 368.24 L 281.27 380.72 C 280.53 381.04 280.04 381.77 280.04 382.58 Z"
                        fill="#ffffff" fill-opacity="0.6" fill-rule="evenodd" group-id="1,2,4,10"
                        node-id="116" stroke="none" target-height="56.439972"
                        target-width="33.369995" target-x="280.04" target-y="367.67"></path>
                    <path
                        d="M 230.80 444.15 L 260.13 432.56 C 260.90 432.26 261.41 431.51 261.41 430.68 L 261.41 392.23 C 261.41 390.78 259.93 389.81 258.60 390.37 L 229.27 402.86 C 228.53 403.18 228.04 403.91 228.04 404.72 L 228.04 442.28 C 228.04 443.70 229.48 444.68 230.80 444.15 Z"
                        fill="#ffffff" fill-opacity="0.6" fill-rule="evenodd" group-id="1,2,4,10"
                        node-id="118" stroke="none" target-height="54.869995"
                        target-width="33.37001" target-x="228.04" target-y="389.81"></path>
                    <path
                        d="M 179.79 464.31 L 209.14 452.71 C 209.91 452.41 210.41 451.67 210.41 450.84 L 210.41 413.92 C 210.41 412.48 208.94 411.51 207.61 412.07 L 178.26 424.56 C 177.52 424.88 177.04 425.60 177.04 426.41 L 177.04 462.43 C 177.04 463.86 178.47 464.84 179.79 464.31 Z"
                        fill="#ffffff" fill-opacity="0.6" fill-rule="evenodd" group-id="1,2,4,10"
                        node-id="120" stroke="none" target-height="53.329987"
                        target-width="33.37001" target-x="177.04" target-y="411.51"></path>
                </g>
                <g clip-path="url(#SVGID_4_)" group-id="1,2,4,11" node-id="123">
                    <path
                        d="M 813.00 644.00 C 782.18 644.00 750.09 631.11 748.74 630.56 C 745.67 629.31 744.19 625.81 745.44 622.74 C 746.69 619.67 750.19 618.19 753.25 619.44 L 753.25 619.44 C 753.57 619.57 784.57 632.00 813.00 632.00 C 816.31 632.00 819.00 634.69 819.00 638.00 C 819.00 641.31 816.31 644.00 813.00 644.00 Z"
                        fill="#ffffff" fill-rule="nonzero" group-id="1,2,4,11" node-id="125"
                        stroke="none" target-height="25.809998" target-width="74.81"
                        target-x="744.19" target-y="618.19"></path>
                    <path
                        d="M 813.00 647.00 C 781.61 647.00 748.99 633.90 747.61 633.34 C 745.38 632.44 743.64 630.72 742.71 628.50 C 741.77 626.29 741.76 623.84 742.66 621.61 C 744.53 617.01 749.79 614.79 754.38 616.66 C 754.68 616.78 785.26 629.00 813.00 629.00 C 817.96 629.00 822.00 633.04 822.00 638.00 C 822.00 642.96 817.96 647.00 813.00 647.00 Z"
                        fill="#ffffff" fill-rule="nonzero" group-id="1,2,4,11" node-id="127"
                        stroke="none" target-height="32.210022" target-width="80.23999"
                        target-x="741.76" target-y="614.79"></path>
                </g>
                <g clip-path="url(#SVGID_4_)" group-id="1,2,4,12" node-id="130">
                    <path
                        d="M 921.00 608.00 C 904.98 608.00 892.00 595.02 892.00 579.00 L 892.00 557.00 C 892.00 540.98 904.98 528.00 921.00 528.00 C 937.02 528.00 950.00 540.98 950.00 557.00 L 950.00 579.00 C 950.00 595.02 937.02 608.00 921.00 608.00 Z"
                        fill="#ffffff" fill-rule="nonzero" group-id="1,2,4,12" node-id="132"
                        stroke="none" target-height="80" target-width="58" target-x="892"
                        target-y="528"></path>
                    <path d="M 923.00 538.00 L 957.62 544.15 L 925.31 568.00 Z" fill="#ffffff"
                        fill-rule="nonzero" group-id="1,2,4,12,21" node-id="136" stroke="none"
                        target-height="30" target-width="34.619995" target-x="923"
                        target-y="538"></path>
                    <path
                        d="M 925.31 578.00 C 923.90 578.00 922.48 577.70 921.15 577.09 C 917.84 575.58 915.62 572.39 915.34 568.76 L 913.03 538.76 C 912.79 535.68 914.00 532.66 916.29 530.58 C 918.58 528.50 921.71 527.61 924.75 528.15 L 959.37 534.30 C 963.30 535.00 966.45 537.97 967.36 541.87 C 968.27 545.77 966.78 549.82 963.56 552.20 L 931.25 576.05 C 929.50 577.34 927.41 578.00 925.31 578.00 Z"
                        fill="#ffffff" fill-rule="nonzero" group-id="1,2,4,12,21" node-id="138"
                        stroke="none" target-height="50.390015" target-width="55.48004"
                        target-x="912.79" target-y="527.61"></path>
                </g>
                <g clip-path="url(#SVGID_4_)" group-id="1,2,4,13" node-id="142">
                    <path
                        d="M 646.00 556.95 C 629.43 556.95 616.00 543.52 616.00 526.95 L 616.00 503.90 C 616.00 487.33 629.43 473.90 646.00 473.90 C 662.57 473.90 676.00 487.33 676.00 503.90 L 676.00 526.95 C 676.00 543.52 662.57 556.95 646.00 556.95 Z"
                        fill="#ffffff" fill-rule="nonzero" group-id="1,2,4,13" node-id="144"
                        stroke="none" target-height="83.05002" target-width="60" target-x="616"
                        target-y="473.9"></path>
                    <path d="M 648.10 484.00 L 682.71 490.15 L 650.40 514.00 Z" fill="#ffffff"
                        fill-rule="nonzero" group-id="1,2,4,13,22" node-id="148" stroke="none"
                        target-height="30" target-width="34.610046" target-x="648.1"
                        target-y="484"></path>
                    <path
                        d="M 650.40 524.00 C 648.99 524.00 647.57 523.70 646.24 523.09 C 642.93 521.58 640.71 518.39 640.43 514.76 L 638.12 484.76 C 637.88 481.68 639.09 478.66 641.38 476.58 C 643.67 474.50 646.80 473.61 649.84 474.15 L 684.46 480.30 C 688.39 481.00 691.54 483.97 692.45 487.87 C 693.36 491.77 691.87 495.82 688.65 498.20 L 656.34 522.05 C 654.59 523.34 652.50 524.00 650.40 524.00 Z"
                        fill="#ffffff" fill-rule="nonzero" group-id="1,2,4,13,22" node-id="150"
                        stroke="none" target-height="50.390015" target-width="55.47998"
                        target-x="637.88" target-y="473.61"></path>
                </g>
                <g clip-path="url(#SVGID_4_)" group-id="1,2,4,14" node-id="154">
                    <path
                        d="M 207.95 526.77 C 207.95 525.21 208.90 523.80 210.35 523.22 L 262.11 502.57 C 273.99 497.83 283.94 495.09 291.94 494.36 C 299.94 493.63 306.34 494.90 311.14 498.18 C 315.94 501.46 319.37 506.75 321.43 514.04 C 323.49 521.33 324.52 530.72 324.52 542.20 C 324.52 554.60 323.38 565.49 321.09 574.87 C 318.80 584.26 315.15 592.60 310.12 599.89 C 305.09 607.18 298.61 613.55 290.69 618.98 C 282.77 624.42 273.24 629.36 262.12 633.79 L 245.10 640.58 C 243.65 641.16 242.70 642.56 242.70 644.13 L 242.70 697.46 C 242.70 699.02 241.75 700.43 240.30 701.01 L 213.20 711.82 C 210.69 712.82 207.97 710.97 207.97 708.27 L 207.97 526.77 Z M 257.55 602.28 C 263.49 599.91 268.44 597.43 272.41 594.85 C 276.37 592.27 279.61 589.20 282.12 585.64 C 284.63 582.09 286.42 578.05 287.49 573.52 C 288.55 568.99 289.09 563.54 289.09 557.16 C 289.09 551.15 288.55 546.26 287.49 542.49 C 286.42 538.72 284.63 536.07 282.12 534.52 C 279.61 532.97 276.33 532.46 272.29 532.97 C 268.25 533.49 263.34 534.90 257.55 537.21 L 245.10 542.18 C 243.65 542.76 242.70 544.16 242.70 545.73 L 242.70 602.58 C 242.70 605.28 245.43 607.13 247.93 606.13 L 257.55 602.28 Z"
                        fill="#2697fa" fill-rule="nonzero" group-id="1,2,4,14,23" node-id="158"
                        stroke="none" target-height="219.19" target-width="116.56999"
                        target-x="207.95" target-y="493.63"></path>
                    <path
                        d="M 370.69 651.20 C 364.21 653.79 358.04 655.78 352.17 657.18 C 348.25 658.12 344.72 658.84 341.57 659.35 C 339.26 659.72 337.17 657.92 337.17 655.58 L 337.17 629.20 C 337.17 627.25 338.63 625.61 340.58 625.41 C 341.61 625.30 342.71 625.17 343.88 625.00 C 346.45 624.65 349.16 624.13 352.01 623.46 C 354.86 622.79 357.73 622.01 360.64 621.12 C 363.54 620.23 366.28 619.27 368.85 618.24 C 372.31 616.86 375.08 615.56 377.15 614.33 C 379.22 613.10 380.81 611.84 381.93 610.52 C 383.05 609.21 383.77 607.75 384.11 606.14 C 384.45 604.54 384.61 602.67 384.61 600.53 C 384.61 599.06 384.41 597.80 384.02 596.75 C 383.63 595.70 382.85 594.91 381.67 594.38 C 380.50 593.85 378.82 593.51 376.64 593.38 C 374.46 593.25 371.53 593.38 367.84 593.78 C 361.47 594.58 356.25 594.70 352.17 594.12 C 348.09 593.54 344.88 592.12 342.53 589.84 C 340.18 587.57 338.56 584.44 337.67 580.45 C 336.77 576.46 336.33 571.33 336.33 565.05 C 336.33 556.90 337.39 549.63 339.51 543.23 C 341.63 536.84 344.68 531.14 348.64 526.15 C 352.60 521.16 357.41 516.84 363.05 513.18 C 368.69 509.53 374.98 506.32 381.90 503.55 C 389.16 500.65 395.20 498.75 400.00 497.83 C 402.94 497.27 405.58 496.89 407.93 496.69 C 410.16 496.50 412.07 498.26 412.07 500.50 L 412.07 524.83 C 412.07 526.76 410.62 528.38 408.70 528.62 C 408.11 528.70 407.47 528.79 406.79 528.90 C 404.50 529.28 402.01 529.77 399.33 530.37 C 396.65 530.97 393.91 531.66 391.12 532.44 C 388.33 533.22 385.76 534.08 383.41 535.01 C 378.05 537.15 374.22 539.45 371.93 541.90 C 369.64 544.35 368.49 547.25 368.49 550.59 C 368.49 552.19 368.68 553.45 369.08 554.37 C 369.47 555.29 370.28 555.93 371.51 556.31 C 372.74 556.69 374.47 556.83 376.71 556.74 C 378.94 556.65 381.85 556.43 385.43 556.07 C 392.69 555.45 398.47 555.61 402.78 556.57 C 407.08 557.53 410.35 559.30 412.58 561.88 C 414.81 564.47 416.27 567.96 416.94 572.37 C 417.61 576.78 417.95 582.13 417.95 588.41 C 417.95 595.36 417.17 601.85 415.60 607.89 C 414.03 613.93 411.44 619.54 407.81 624.73 C 404.18 629.92 399.35 634.72 393.31 639.13 C 387.28 643.58 379.74 647.59 370.69 651.20 Z"
                        fill="#2697fa" fill-rule="nonzero" group-id="1,2,4,14,24" node-id="163"
                        stroke="none" target-height="163.21997" target-width="81.620026"
                        target-x="336.33" target-y="496.5"></path>
                </g>
                <g clip-path="url(#SVGID_4_)" group-id="1,2,4,15" node-id="167">
                    <path
                        d="M 913.18 609.18 C 910.86 606.82 912.21 603.84 915.49 603.39 C 930.33 601.36 965.66 597.37 968.49 615.55 C 971.06 632.09 941.33 637.89 913.18 609.18 Z"
                        fill="#40ccf5" fill-rule="nonzero" group-id="1,2,4,15" node-id="169"
                        stroke="none" target-height="40.52002" target-width="60.200012"
                        target-x="910.86" target-y="597.37"></path>
                </g>
                <g clip-path="url(#SVGID_4_)" group-id="1,2,4,16" node-id="172">
                    <path
                        d="M 653.00 557.87 C 656.08 556.05 655.79 552.57 652.49 551.19 C 637.56 544.92 600.24 530.35 593.48 549.05 C 586.55 568.22 615.58 579.96 653.00 557.87 Z"
                        fill="#40ccf5" fill-rule="nonzero" group-id="1,2,4,16" node-id="174"
                        stroke="none" target-height="49.610046" target-width="69.53003"
                        target-x="586.55" target-y="530.35"></path>
                </g>
                <g clip-path="url(#SVGID_4_)" group-id="1,2,4,17" node-id="177">
                    <path
                        d="M 483.98 698.86 C 481.49 698.86 479.48 696.85 479.48 694.36 L 479.48 284.25 C 479.48 281.76 481.49 279.75 483.98 279.75 C 486.47 279.75 488.48 281.76 488.48 284.25 L 488.48 694.36 C 488.48 696.84 486.46 698.86 483.98 698.86 Z"
                        fill="#ffffff" fill-opacity="0.8" fill-rule="nonzero" group-id="1,2,4,17"
                        node-id="179" stroke="none" target-height="419.11" target-width="9"
                        target-x="479.48" target-y="279.75"></path>
                </g>
                <path
                    d="M 1037.50 354.39 C 1039.70 354.84 1040.86 351.89 1038.94 350.72 L 891.18 260.56 C 884.93 256.67 878.03 253.96 870.80 252.57 L 386.12 159.27 C 384.04 158.87 382.85 161.55 384.53 162.83 C 384.53 162.83 450.00 215.93 471.78 233.93 C 477.54 238.55 484.56 240.70 496.65 243.35 C 584.34 261.36 966.88 339.90 1037.50 354.39 Z"
                    fill="#072d4d" fill-rule="nonzero" group-id="1,2" node-id="183" stroke="none"
                    target-height="195.97" target-width="658.01" target-x="382.85"
                    target-y="158.87"></path>
                <path
                    d="M 149.32 392.86 C 147.35 393.74 145.57 391.31 147.01 389.70 L 259.60 264.27 C 262.13 261.46 266.02 260.31 269.67 261.30 L 372.32 289.21 C 374.13 289.70 374.33 292.20 372.61 292.97 L 149.32 392.86 Z"
                    fill="#072d4d" fill-rule="nonzero" group-id="1,2" node-id="185" stroke="none"
                    target-height="133.43" target-width="228.75998" target-x="145.57"
                    target-y="260.31"></path>
                <path
                    d="M 579.86 196.31 L 687.78 285.79 C 690.02 287.69 691.31 290.48 691.31 293.42 L 693.31 441.27 C 693.31 444.46 696.86 446.36 699.52 444.61 L 738.84 418.61 C 740.50 417.51 742.71 417.80 744.03 419.28 L 781.27 460.96 C 782.66 462.51 785.00 462.74 786.67 461.49 L 822.13 434.68 C 823.65 433.53 825.76 433.61 827.18 434.87 L 875.69 477.53 C 878.34 479.86 882.48 477.87 882.33 474.35 L 876.93 328.32 C 876.80 325.40 875.41 322.68 873.10 320.88 L 755.49 231.54 C 753.02 229.66 750.14 228.39 747.09 227.81 L 579.86 196.31 Z"
                    fill="#2697fa" fill-rule="nonzero" group-id="1,2" node-id="187" stroke="none"
                    target-height="283.55" target-width="302.62" target-x="579.86"
                    target-y="196.31"></path>
                <path
                    d="M 127.18 230.82 L 211.52 364.86 L 236.54 354.13 L 256.91 326.75 C 258.03 325.13 259.89 324.26 261.88 324.14 C 263.87 324.02 265.73 324.76 267.10 326.25 L 276.37 336.00 L 293.07 328.48 L 293.82 290.95 C 293.94 288.96 294.81 287.22 296.43 285.98 L 325.63 263.61 C 326.62 262.86 327.00 261.75 326.62 260.63 C 326.37 259.51 325.50 258.64 324.26 258.52 L 130.15 226.46 C 129.03 226.21 127.91 226.71 127.29 227.70 C 126.68 228.70 126.56 229.82 127.18 230.82 L 127.18 230.82 Z"
                    fill="#f54431" fill-rule="nonzero" group-id="1,2" node-id="189" stroke="none"
                    target-height="138.64998" target-width="200.44" target-x="126.56"
                    target-y="226.21"></path>
                <path
                    d="M 432.37 221.44 L 255.62 150.32 C 253.65 149.50 251.40 149.86 249.78 151.25 C 248.17 152.64 247.47 154.82 247.99 156.88 L 290.24 329.84 L 376.26 291.67 C 377.68 291.03 378.60 289.62 378.60 288.06 L 378.60 281.66 C 378.60 280.17 378.01 278.73 376.95 277.68 L 314.16 214.89 C 312.41 213.14 314.77 210.40 316.76 211.87 L 387.37 264.01 C 389.46 265.57 392.35 265.50 394.35 263.83 L 433.79 230.97 C 435.30 229.71 436.04 227.75 435.75 225.81 C 435.47 223.85 434.18 222.20 432.37 221.44 L 432.37 221.44 Z M 432.37 221.44"
                    fill="#2e72fa" fill-rule="nonzero" group-id="1,2" node-id="191" stroke="none"
                    target-height="180.34" target-width="188.57" target-x="247.47"
                    target-y="149.5"></path>
            </g>
        </g>
        <g clip-path="url(#SVGID_2_)" group-id="1,3" id="body_6_" node-id="51">
            <path d="M 737.73 1159.86 L 742.72 1209.87 L 827.72 1209.87 L 821.73 1157.86 Z"
                fill="#f7ca31" fill-rule="nonzero" group-id="1,3" node-id="195" stroke="none"
                target-height="52.01001" target-width="89.98999" target-x="737.73"
                target-y="1157.86"></path>
            <path
                d="M 760.48 1127.67 C 849.51 1125.20 943.00 1145.02 971.85 1151.74 C 977.01 1152.94 982.21 1149.86 983.63 1144.76 C 989.98 1121.81 1002.47 1062.22 967.97 1042.00 C 946.63 1046.79 854.66 1048.68 758.28 1043.75 L 760.48 1127.67 Z"
                fill="#ffffff" fill-rule="nonzero" group-id="1,3,5" node-id="199" stroke="none"
                target-height="110.93994" target-width="244.18994" target-x="758.28"
                target-y="1042"></path>
            <path
                d="M 974.13 1156.00 C 973.08 1156.00 972.01 1155.88 970.94 1155.63 C 944.11 1149.38 849.66 1129.19 760.59 1131.66 C 759.53 1131.68 758.50 1131.29 757.73 1130.57 C 756.96 1129.84 756.51 1128.83 756.48 1127.77 L 754.28 1043.85 C 754.25 1042.74 754.69 1041.66 755.49 1040.88 C 756.29 1040.10 757.38 1039.70 758.49 1039.75 C 835.84 1043.71 941.49 1043.84 967.10 1038.09 C 968.09 1037.87 969.12 1038.03 970.00 1038.54 C 1006.63 1060.01 994.43 1120.71 987.49 1145.81 C 985.78 1151.96 980.24 1156.00 974.13 1156.00 Z M 775.88 1123.46 C 861.08 1123.46 947.23 1141.90 972.75 1147.85 C 975.84 1148.57 978.92 1146.74 979.76 1143.69 C 982.67 1133.17 987.50 1112.52 987.10 1092.43 C 986.66 1069.96 979.97 1054.43 967.21 1046.23 C 943.27 1050.78 855.73 1052.54 762.38 1047.96 L 764.36 1123.57 C 768.20 1123.50 772.04 1123.46 775.88 1123.46 Z"
                fill="#9fb7c7" fill-rule="nonzero" group-id="1,3,5" node-id="201" stroke="none"
                target-height="118.130005" target-width="252.38" target-x="754.25"
                target-y="1037.87"></path>
            <g clip-path="url(#SVGID_6_)" group-id="1,3,6,18" node-id="206">
                <path
                    d="M 738.72 1160.86 L 743.22 1209.87 L 272.72 1209.87 C 272.72 1209.87 258.57 825.79 529.72 825.79 C 642.01 825.79 721.61 868.29 773.44 927.25 C 858.23 1023.71 871.72 1160.85 871.72 1160.85 L 692.72 1160.85 L 738.72 1160.86 Z"
                    fill="#a3bac9" fill-rule="nonzero" group-id="1,3,6,18" node-id="208"
                    stroke="none" target-height="384.08002" target-width="613.14996"
                    target-x="258.57" target-y="825.79"></path>
            </g>
            <g clip-path="url(#SVGID_6_)" group-id="1,3,6,19" node-id="211">
                <path
                    d="M 381.55 982.87 C 395.93 980.91 409.35 979.30 422.90 977.97 C 427.68 977.50 431.43 973.69 431.87 968.91 C 433.17 954.82 435.87 936.92 436.98 923.86 C 437.20 921.30 435.00 919.21 432.45 919.55 C 417.52 921.53 403.33 923.93 390.04 926.54 C 385.80 927.38 382.58 930.85 382.06 935.15 C 380.56 947.60 378.26 964.72 377.02 978.55 C 376.79 981.12 379.00 983.22 381.55 982.87 Z"
                    fill="#a63700" fill-rule="nonzero" group-id="1,3,6,19" node-id="213"
                    stroke="none" target-height="64.00995" target-width="60.410004"
                    target-x="376.79" target-y="919.21"></path>
                <path
                    d="M 353.52 935.01 C 307.36 946.74 278.00 959.00 278.00 959.00 C 278.00 959.00 197.00 1046.00 268.00 1011.00 C 287.51 1001.38 314.62 994.11 344.79 988.61 C 349.15 987.82 352.47 984.26 352.95 979.86 C 354.28 967.45 356.89 952.01 358.48 939.37 C 358.83 936.58 356.25 934.31 353.52 935.01 Z"
                    fill="#093c66" fill-rule="nonzero" group-id="1,3,6,19" node-id="215"
                    stroke="none" target-height="111.69" target-width="161.82999" target-x="197"
                    target-y="934.31"></path>
                <path
                    d="M 464.83 924.30 C 463.47 937.44 460.75 955.93 459.69 970.36 C 459.51 972.79 461.53 974.82 463.96 974.65 C 483.83 973.32 499.35 972.62 508.34 972.28 C 513.32 972.09 517.39 968.27 517.90 963.32 L 522.55 918.36 C 522.79 916.01 520.95 913.96 518.58 913.95 C 503.13 913.84 488.56 914.36 474.08 915.36 C 469.23 915.70 465.33 919.47 464.83 924.30 Z"
                    fill="#7f47f0" fill-rule="nonzero" group-id="1,3,6,19" node-id="217"
                    stroke="none" target-height="60.97998" target-width="63.27997" target-x="459.51"
                    target-y="913.84"></path>
            </g>
            <g clip-path="url(#SVGID_6_)" group-id="1,3,6,20" node-id="220">
                <path
                    d="M 369.38 1070.55 C 384.04 1068.98 398.68 1067.75 412.66 1066.78 C 417.56 1066.44 421.49 1062.61 421.94 1057.72 C 423.22 1043.66 425.22 1025.86 426.40 1012.89 C 426.63 1010.38 424.51 1008.28 422.01 1008.55 C 407.00 1010.14 392.73 1012.17 379.35 1014.44 C 375.09 1015.16 371.78 1018.56 371.15 1022.84 C 369.33 1035.25 366.58 1052.33 364.98 1066.13 C 364.67 1068.67 366.83 1070.82 369.38 1070.55 Z"
                    fill="#2ea8fa" fill-rule="nonzero" group-id="1,3,6,20" node-id="222"
                    stroke="none" target-height="62.539917" target-width="61.95999"
                    target-x="364.67" target-y="1008.28"></path>
                <path
                    d="M 340.67 1019.89 C 294.27 1030.27 265.50 1039.94 265.50 1039.94 C 265.50 1039.94 182.25 1126.79 254.14 1093.66 C 273.88 1084.56 301.15 1078.02 331.42 1073.32 C 335.85 1072.63 339.29 1069.09 339.82 1064.63 C 341.29 1052.25 343.74 1036.89 345.51 1024.33 C 345.90 1021.58 343.39 1019.28 340.67 1019.89 Z"
                    fill="#ff8119" fill-rule="nonzero" group-id="1,3,6,20" node-id="224"
                    stroke="none" target-height="107.51001" target-width="163.65" target-x="182.25"
                    target-y="1019.28"></path>
                <path
                    d="M 454.30 1015.46 C 453.02 1028.58 450.98 1046.92 449.78 1061.23 C 449.58 1063.62 451.53 1065.65 453.93 1065.55 C 473.94 1064.74 490.21 1064.47 499.77 1064.37 C 505.02 1064.32 509.33 1060.22 509.65 1054.98 L 512.36 1009.51 C 512.49 1007.24 510.71 1005.33 508.44 1005.27 C 492.97 1004.89 478.38 1005.84 463.86 1006.45 C 458.86 1006.66 454.78 1010.49 454.30 1015.46 Z"
                    fill="#1a1715" fill-rule="nonzero" group-id="1,3,6,20" node-id="226"
                    stroke="none" target-height="60.76001" target-width="62.910004"
                    target-x="449.58" target-y="1004.89"></path>
            </g>
            <path
                d="M 670.98 1081.33 C 669.69 1081.33 668.40 1080.83 667.42 1079.84 C 627.41 1039.34 616.50 979.71 616.05 977.20 C 615.57 974.48 617.38 971.89 620.10 971.41 C 622.82 970.93 625.41 972.74 625.89 975.46 C 626.02 976.18 636.79 1034.63 674.52 1072.81 C 676.46 1074.77 676.44 1077.94 674.48 1079.88 C 673.52 1080.85 672.25 1081.33 670.98 1081.33 Z"
                fill="#ffffff" fill-rule="nonzero" group-id="1,3" node-id="230" stroke="none"
                target-height="110.39996" target-width="60.890015" target-x="615.57"
                target-y="970.93"></path>
            <path
                d="M 499.39 1086.19 C 499.39 1086.19 491.30 1079.11 490.28 1092.26 C 489.27 1105.41 497.36 1118.56 505.46 1116.54 C 513.55 1114.52 516.59 1090.24 507.48 1072.03 C 504.44 1063.94 484.36 1052.09 478.14 1083.16 C 472.07 1113.51 490.28 1136.78 503.43 1136.78 C 513.55 1136.78 528.75 1127.80 529.73 1095.30 C 530.74 1061.91 510.51 1043.70 495.33 1042.69 C 483.17 1041.88 458.99 1052.40 459.92 1096.31 C 460.93 1143.86 501.40 1156.00 501.40 1156.00 C 501.40 1156.00 593.01 1141.51 682.00 1134.10 C 681.99 1134.17 677.43 1110.44 673.97 1086.69 C 670.50 1062.94 668.12 1039.19 668.42 1039.22 C 574.77 1033.68 492.81 1025.99 492.81 1025.99 L 507.99 1047.24"
                fill="#ffffff" fill-rule="nonzero" group-id="1,3,7" node-id="234" stroke="none"
                target-height="130.01001" target-width="223.01001" target-x="458.99"
                target-y="1025.99"></path>
            <path
                d="M 501.42 1160.00 C 501.03 1160.00 500.64 1159.94 500.27 1159.83 C 499.82 1159.70 489.20 1156.44 478.42 1146.99 C 468.47 1138.27 456.49 1122.41 455.94 1096.39 C 455.37 1069.47 464.05 1055.40 471.44 1048.34 C 478.34 1041.75 487.37 1038.14 495.61 1038.69 C 496.10 1038.72 496.58 1038.77 497.07 1038.83 L 489.56 1028.32 C 488.65 1027.05 488.57 1025.36 489.35 1024.00 C 490.13 1022.64 491.63 1021.87 493.19 1022.01 C 494.01 1022.09 576.16 1029.75 668.66 1035.22 C 668.74 1035.23 668.83 1035.23 668.91 1035.24 C 671.05 1035.51 672.60 1037.42 672.40 1039.57 C 672.40 1039.58 672.40 1039.60 672.40 1039.61 C 672.51 1042.65 674.78 1064.52 677.93 1086.09 C 681.18 1108.33 685.52 1131.29 685.90 1133.16 C 685.95 1133.37 685.98 1133.59 686.00 1133.82 C 686.14 1136.00 684.51 1137.89 682.34 1138.07 C 594.53 1145.38 502.95 1159.79 502.03 1159.93 C 501.83 1159.98 501.62 1160.00 501.42 1160.00 Z M 494.04 1046.65 C 489.39 1046.65 482.76 1048.59 476.96 1054.13 C 470.73 1060.08 463.42 1072.21 463.93 1096.22 C 464.80 1137.05 496.09 1149.90 501.75 1151.89 C 511.63 1150.35 595.37 1137.51 677.25 1130.48 C 676.77 1127.89 676.11 1124.28 675.34 1119.97 C 673.91 1111.87 671.82 1099.63 670.01 1087.25 C 667.99 1073.45 666.52 1060.89 665.82 1054.64 C 665.21 1049.17 664.80 1045.51 664.58 1042.99 C 590.85 1038.57 524.31 1032.83 501.12 1030.76 L 510.45 1043.82 C 523.78 1052.33 534.46 1070.78 533.72 1095.40 C 532.71 1128.88 516.76 1140.76 503.42 1140.76 C 497.11 1140.76 490.24 1136.80 484.58 1129.90 C 474.57 1117.69 470.69 1099.92 474.20 1082.36 C 476.23 1072.19 481.07 1059.87 492.57 1058.94 C 500.75 1058.28 508.70 1064.29 511.12 1070.40 C 518.43 1085.17 518.34 1103.68 514.01 1113.09 C 511.68 1118.15 508.59 1119.86 506.40 1120.41 C 502.71 1121.33 498.82 1120.27 495.45 1117.43 C 489.29 1112.23 485.51 1101.75 486.27 1091.95 C 486.73 1085.97 488.70 1082.23 492.14 1080.83 C 496.89 1078.89 501.49 1082.74 502.00 1083.18 C 503.66 1084.63 503.83 1087.16 502.38 1088.82 C 500.93 1090.48 498.42 1090.65 496.76 1089.21 C 496.32 1088.84 495.63 1088.45 495.20 1088.32 C 494.96 1088.73 494.46 1089.87 494.25 1092.55 C 493.62 1100.71 497.06 1108.30 500.62 1111.31 C 502.01 1112.49 503.31 1112.93 504.47 1112.65 C 504.87 1112.55 505.80 1111.83 506.75 1109.75 C 510.23 1102.18 510.12 1086.29 503.88 1073.81 C 503.82 1073.68 503.76 1073.56 503.71 1073.43 C 502.63 1070.56 497.75 1066.55 493.21 1066.93 C 488.12 1067.34 484.15 1073.38 482.04 1083.94 C 478.99 1099.17 482.25 1114.46 490.76 1124.84 C 494.83 1129.81 499.56 1132.77 503.41 1132.77 C 513.17 1132.77 524.87 1122.92 525.72 1095.17 C 526.41 1072.53 517.02 1057.90 506.89 1051.09 C 506.17 1050.89 505.51 1050.49 504.99 1049.91 C 501.58 1047.96 498.15 1046.88 495.06 1046.68 C 494.75 1046.66 494.40 1046.65 494.04 1046.65 Z"
                fill="#9fb7c7" fill-rule="nonzero" group-id="1,3,7" node-id="236" stroke="none"
                target-height="138.13" target-width="230.77002" target-x="455.37"
                target-y="1021.87"></path>
            <path
                d="M 758.26 1168.80 C 701.34 1168.80 688.56 1161.16 684.72 1153.99 C 680.52 1148.14 673.84 1129.30 663.69 1041.59 C 658.02 992.60 654.04 945.22 654.00 944.75 C 653.77 942.00 655.81 939.58 658.57 939.35 C 661.31 939.11 663.74 941.16 663.97 943.92 C 670.03 1016.35 683.26 1135.87 692.93 1148.26 L 693.26 1148.68 L 693.49 1149.16 C 694.47 1151.17 703.47 1161.05 785.14 1158.32 C 829.01 1156.85 872.05 1152.41 872.48 1152.37 C 875.23 1152.09 877.68 1154.08 877.97 1156.83 C 878.26 1159.58 876.26 1162.04 873.51 1162.32 C 873.08 1162.36 829.73 1166.84 785.52 1168.32 C 775.45 1168.64 766.40 1168.80 758.26 1168.80 Z"
                fill="#ffffff" fill-rule="nonzero" group-id="1,3" node-id="239" stroke="none"
                target-height="229.69006" target-width="224.48999" target-x="653.77"
                target-y="939.11"></path>
        </g>
    </g>
</svg>