<?xml version="1.0" standalone="no"?><!DOCTYPE svg PUBLIC "-//W3C//DTD SVG 1.1//EN"
    "http://www.w3.org/Graphics/SVG/1.1/DTD/svg11.dtd">
<svg height="1200" node-id="1" sillyvg="true" template-height="1200" template-width="1200"
    version="1.1" viewBox="0 0 1200 1200" width="1200" xmlns="http://www.w3.org/2000/svg"
    xmlns:xlink="http://www.w3.org/1999/xlink">
    <defs node-id="61">
        <clipPath id="SVGID_2_" node-id="8">
            <path d="M 0.00 0.00 L 1200.00 0.00 L 1200.00 1200.00 L 0.00 1200.00 Z" fill="#000000"
                fill-rule="nonzero" node-id="64" stroke="none" target-height="1200"
                target-width="1200" target-x="0" target-y="0"></path>
        </clipPath>
        <clipPath id="SVGID_4_" node-id="25">
            <path
                d="M 768.99 915.76 L 1031.54 851.52 C 1040.46 849.34 1046.75 841.36 1046.79 832.18 L 1048.68 371.64 C 1048.70 365.88 1044.63 360.91 1038.97 359.81 L 495.21 254.10 C 487.09 252.52 478.68 253.50 471.14 256.90 L 147.94 398.54 C 143.56 400.46 140.74 404.80 140.76 409.58 L 142.65 849.44 C 142.69 859.40 150.05 867.80 159.91 869.17 L 369.14 898.06 L 730.81 924.06 L 768.99 915.76 Z"
                fill="#000000" fill-rule="nonzero" node-id="68" stroke="none" target-height="671.54"
                target-width="907.95996" target-x="140.74" target-y="252.52"></path>
        </clipPath>
        <clipPath id="SVGID_6_" node-id="53">
            <path
                d="M 738.72 1160.86 L 743.22 1209.87 L 272.72 1209.87 C 272.72 1209.87 258.57 825.79 529.72 825.79 C 642.01 825.79 721.61 868.29 773.44 927.25 C 858.23 1023.71 871.72 1160.85 871.72 1160.85 L 722.72 1160.85 L 738.72 1160.86 Z"
                fill="#000000" fill-rule="nonzero" node-id="72" stroke="none"
                target-height="384.08002" target-width="613.14996" target-x="258.57"
                target-y="825.79"></path>
        </clipPath>
    </defs>
    <path d="M 0.00 0.00 L 1200.00 0.00 L 1200.00 1200.00 L 0.00 1200.00 Z" fill="#fce3d7"
        fill-rule="nonzero" node-id="76" stroke="none" target-height="1200" target-width="1200"
        target-x="0" target-y="0"></path>
    <g node-id="199">
        <g node-id="200">
            <g clip-path="url(#SVGID_2_)" group-id="1,2" id="head_7_" node-id="10">
                <path d="M 582.47 188.92 L 585.98 102.13 L 530.02 99.87 L 526.86 178.22 Z"
                    fill="#f28d00" fill-rule="nonzero" group-id="1,2" node-id="81" stroke="none"
                    target-height="89.049995" target-width="59.119995" target-x="526.86"
                    target-y="99.87"></path>
                <path
                    d="M 447.15 152.95 C 447.26 154.13 447.38 157.74 447.51 162.95 L 503.86 173.80 C 503.56 161.27 503.21 150.78 502.86 147.22 C 501.93 137.89 494.40 103.77 488.59 81.25 C 487.19 75.81 481.59 72.61 476.19 74.14 L 441.56 83.94 C 436.34 85.42 433.24 90.79 434.60 96.05 C 440.48 118.78 446.39 147.56 447.15 152.95 Z"
                    fill="#f2b60c" fill-rule="nonzero" group-id="1,2,4" node-id="85" stroke="none"
                    target-height="101.19" target-width="70.619995" target-x="433.24"
                    target-y="72.61"></path>
                <path
                    d="M 466.77 240.17 L 466.72 240.13 L 466.67 240.09 C 462.18 236.38 455.79 231.14 448.48 225.17 C 448.69 240.63 448.87 253.61 449.00 257.84 L 476.88 246.04 C 473.09 244.49 469.83 242.63 466.77 240.17 Z"
                    fill="#f2b60c" fill-rule="nonzero" group-id="1,2,4" node-id="87" stroke="none"
                    target-height="32.67" target-width="28.399994" target-x="448.48"
                    target-y="225.17"></path>
                <path
                    d="M 872.31 244.72 C 880.52 246.30 888.27 249.34 895.37 253.75 L 903.95 258.98 C 905.36 256.51 906.97 253.79 908.81 250.81 C 915.63 239.76 941.48 229.55 961.97 224.72 C 967.10 223.51 970.44 218.56 969.59 213.36 L 966.61 195.24 L 963.78 177.84 C 962.86 172.15 957.33 168.42 951.71 169.69 C 944.56 171.31 934.42 173.93 923.55 177.77 C 893.44 188.43 872.45 203.10 861.15 221.40 C 856.94 228.23 853.32 234.58 850.27 240.48 L 872.31 244.72 Z"
                    fill="#f2b60c" fill-rule="nonzero" group-id="1,2" node-id="90" stroke="none"
                    target-height="90.56001" target-width="120.16998" target-x="850.27"
                    target-y="168.42"></path>
                <path
                    d="M 631.22 198.31 L 630.08 155.59 L 643.30 93.63 C 644.45 88.23 641.01 82.92 635.61 81.76 L 600.40 74.25 C 595.00 73.10 589.69 76.54 588.53 81.94 L 573.92 150.42 L 574.91 187.47 L 631.22 198.31 Z"
                    fill="#fab90a" fill-rule="nonzero" group-id="1,2" node-id="92" stroke="none"
                    target-height="125.21" target-width="70.53003" target-x="573.92"
                    target-y="73.1"></path>
                <path
                    d="M 489.55 171.04 L 541.23 180.99 L 530.06 93.75 C 529.36 88.27 524.35 84.40 518.87 85.10 L 489.11 88.91 C 483.63 89.61 479.76 94.62 480.46 100.10 L 489.55 171.04 Z"
                    fill="#ffd219" fill-rule="nonzero" group-id="1,2" node-id="94" stroke="none"
                    target-height="96.590004" target-width="61.46997" target-x="479.76"
                    target-y="84.4"></path>
                <path
                    d="M 666.00 178.71 L 666.00 205.00 L 718.00 215.01 L 718.00 171.29 L 710.56 121.45 C 709.70 115.68 704.09 111.86 698.41 113.18 L 664.46 121.07 C 659.21 122.29 655.87 127.46 656.91 132.75 L 666.00 178.71 Z"
                    fill="#f28d00" fill-rule="nonzero" group-id="1,2" node-id="96" stroke="none"
                    target-height="103.149994" target-width="62.130005" target-x="655.87"
                    target-y="111.86"></path>
                <path
                    d="M 782.26 227.39 L 783.86 179.97 L 790.02 142.16 C 790.90 136.74 787.25 131.61 781.83 130.69 L 750.28 125.32 C 744.81 124.39 739.63 128.09 738.73 133.56 L 732.12 174.02 L 729.58 217.23 L 782.26 227.39 Z"
                    fill="#f2b60c" fill-rule="nonzero" group-id="1,2" node-id="98" stroke="none"
                    target-height="103" target-width="61.320007" target-x="729.58"
                    target-y="124.39"></path>
                <path
                    d="M 827.58 236.11 C 837.58 200.59 855.54 180.26 865.35 171.32 C 869.07 167.93 869.71 162.32 866.83 158.20 L 848.77 132.29 C 845.49 127.52 838.88 126.53 834.33 130.10 C 828.47 134.70 820.29 142.17 811.45 153.58 C 795.48 174.19 783.59 198.99 776.42 226.26 L 827.58 236.11 Z"
                    fill="#ffd219" fill-rule="nonzero" group-id="1,2" node-id="100" stroke="none"
                    target-height="109.58" target-width="93.29004" target-x="776.42"
                    target-y="126.53"></path>
                <path
                    d="M 953.74 289.37 C 956.95 287.89 959.74 286.70 961.95 285.90 C 963.39 285.38 964.92 285.18 966.44 285.34 C 974.38 286.18 986.00 287.69 994.79 289.00 C 1000.09 289.79 1005.08 286.27 1006.10 281.01 L 1011.79 251.59 C 1012.87 246.02 1009.10 240.66 1003.49 239.81 C 992.63 238.15 975.92 235.80 965.78 235.08 C 957.67 234.50 946.45 235.73 906.85 257.15 C 905.80 257.72 904.75 258.29 903.71 258.86 L 953.74 289.37 Z"
                    fill="#ffd219" fill-rule="nonzero" group-id="1,2" node-id="102" stroke="none"
                    target-height="55.29001" target-width="109.15997" target-x="903.71"
                    target-y="234.5"></path>
                <g clip-path="url(#SVGID_4_)" group-id="1,2,5,8" node-id="106">
                    <path
                        d="M 758.99 924.76 L 1044.81 858.02 C 1046.89 857.50 1048.73 845.80 1048.73 845.80 L 1048.73 360.70 L 495.21 253.10 C 487.09 251.52 478.68 252.50 471.14 255.90 L 140.73 400.70 L 140.73 875.80 L 371.15 904.07 L 758.99 924.76 Z"
                        fill="#f44f2e" fill-rule="nonzero" group-id="1,2,5,8" node-id="108"
                        stroke="none" target-height="673.24" target-width="908" target-x="140.73"
                        target-y="251.52"></path>
                </g>
                <g clip-path="url(#SVGID_4_)" group-id="1,2,5,9" node-id="111">
                    <path
                        d="M 833.50 643.79 C 833.47 643.79 833.44 643.79 833.40 643.79 C 782.86 642.99 741.24 628.48 739.50 627.86 C 736.38 626.76 734.74 623.33 735.84 620.20 C 736.94 617.08 740.37 615.44 743.50 616.54 C 744.03 616.73 785.17 631.02 833.60 631.78 C 836.91 631.83 839.56 634.56 839.50 637.87 C 839.45 641.17 836.77 643.79 833.50 643.79 Z"
                        fill="#ffffff" fill-rule="nonzero" group-id="1,2,5,9" node-id="113"
                        stroke="none" target-height="28.349976" target-width="104.82001"
                        target-x="734.74" target-y="615.44"></path>
                    <path
                        d="M 833.50 646.79 L 833.31 646.79 C 782.34 645.99 740.26 631.32 738.50 630.69 C 733.82 629.04 731.36 623.88 733.01 619.20 C 734.66 614.52 739.81 612.06 744.49 613.71 C 744.89 613.85 785.86 628.03 833.63 628.78 C 836.03 628.82 838.28 629.79 839.95 631.52 C 841.62 633.25 842.52 635.52 842.48 637.93 C 842.42 642.82 838.39 646.79 833.50 646.79 Z"
                        fill="#ffffff" fill-rule="nonzero" group-id="1,2,5,9" node-id="115"
                        stroke="none" target-height="34.72998" target-width="111.160034"
                        target-x="731.36" target-y="612.06"></path>
                </g>
                <g clip-path="url(#SVGID_4_)" group-id="1,2,5,10" node-id="118">
                    <path
                        d="M 921.00 609.00 C 904.98 609.00 892.00 596.02 892.00 580.00 L 892.00 558.00 C 892.00 541.98 904.98 529.00 921.00 529.00 C 937.02 529.00 950.00 541.98 950.00 558.00 L 950.00 580.00 C 950.00 596.02 937.02 609.00 921.00 609.00 Z"
                        fill="#ffffff" fill-rule="nonzero" group-id="1,2,5,10" node-id="120"
                        stroke="none" target-height="80" target-width="58" target-x="892"
                        target-y="529"></path>
                </g>
                <g clip-path="url(#SVGID_4_)" group-id="1,2,5,11" node-id="123">
                    <path
                        d="M 626.46 560.95 C 621.89 560.95 617.40 558.71 614.72 554.59 C 610.50 548.11 612.33 539.44 618.80 535.22 L 645.60 517.75 L 616.55 488.70 C 611.08 483.23 611.08 474.37 616.55 468.90 C 622.02 463.43 630.88 463.43 636.35 468.90 L 674.21 506.76 C 678.04 510.59 679.92 515.88 679.36 521.27 C 678.80 526.66 675.87 531.45 671.34 534.41 L 634.11 558.68 C 631.73 560.21 629.08 560.95 626.46 560.95 Z"
                        fill="#ffffff" fill-rule="nonzero" group-id="1,2,5,11" node-id="125"
                        stroke="none" target-height="97.52002" target-width="69.41998"
                        target-x="610.5" target-y="463.43"></path>
                </g>
                <g clip-path="url(#SVGID_4_)" group-id="1,2,5,12" node-id="128">
                    <path
                        d="M 382.87 901.77 L 158.30 870.14 C 152.11 869.27 151.21 860.70 157.09 858.56 L 468.35 745.38 C 478.36 741.72 489.16 740.82 499.64 742.76 L 1032.27 840.73 C 1038.48 841.87 1038.94 850.59 1032.89 852.38 L 1003.68 861.02 L 737.83 926.26 L 382.87 901.77 Z"
                        fill="#1d0b09" fill-opacity="0.27" fill-rule="nonzero" group-id="1,2,5,12"
                        node-id="130" stroke="none" target-height="185.44" target-width="887.7299"
                        target-x="151.21" target-y="740.82"></path>
                </g>
                <g clip-path="url(#SVGID_4_)" group-id="1,2,5,13" node-id="133">
                    <path
                        d="M 280.04 382.58 L 280.04 421.70 C 280.04 423.13 281.48 424.11 282.82 423.59 L 312.13 412.01 C 312.90 411.70 313.41 410.96 313.41 410.12 L 313.41 370.11 C 313.41 368.65 311.92 367.67 310.58 368.24 L 281.27 380.72 C 280.53 381.04 280.04 381.77 280.04 382.58 Z"
                        fill="#ffffff" fill-opacity="0.8" fill-rule="evenodd" group-id="1,2,5,13"
                        node-id="135" stroke="none" target-height="56.439972"
                        target-width="33.369995" target-x="280.04" target-y="367.67"></path>
                    <path
                        d="M 230.80 444.15 L 260.13 432.56 C 260.90 432.26 261.41 431.51 261.41 430.68 L 261.41 392.23 C 261.41 390.78 259.93 389.81 258.60 390.37 L 229.27 402.86 C 228.53 403.18 228.04 403.91 228.04 404.72 L 228.04 442.28 C 228.04 443.70 229.48 444.68 230.80 444.15 Z"
                        fill="#ffffff" fill-opacity="0.8" fill-rule="evenodd" group-id="1,2,5,13"
                        node-id="137" stroke="none" target-height="54.869995"
                        target-width="33.37001" target-x="228.04" target-y="389.81"></path>
                    <path
                        d="M 179.79 464.31 L 209.14 452.71 C 209.91 452.41 210.41 451.67 210.41 450.84 L 210.41 413.92 C 210.41 412.48 208.94 411.51 207.61 412.07 L 178.26 424.56 C 177.52 424.88 177.04 425.60 177.04 426.41 L 177.04 462.43 C 177.04 463.86 178.47 464.84 179.79 464.31 Z"
                        fill="#ffffff" fill-opacity="0.8" fill-rule="evenodd" group-id="1,2,5,13"
                        node-id="139" stroke="none" target-height="53.329987"
                        target-width="33.37001" target-x="177.04" target-y="411.51"></path>
                </g>
                <g clip-path="url(#SVGID_4_)" group-id="1,2,5,14" node-id="142">
                    <path
                        d="M 1072.69 408.02 C 1044.28 426.74 1006.61 440.17 963.76 446.84 C 915.82 454.30 862.93 453.44 806.55 444.27 C 740.31 433.50 675.33 417.44 618.64 395.96 C 555.42 372.66 505.26 337.83 488.97 325.82 C 485.30 323.12 482.01 323.59 479.24 327.21 C 464.26 346.72 407.45 412.66 293.48 458.20 C 181.97 502.76 101.97 476.03 101.97 476.03 L 122.00 512.00 C 122.00 512.00 206.66 531.41 295.81 498.43 C 384.35 464.13 441.23 427.72 480.06 377.58 C 483.56 372.89 485.99 372.00 490.03 374.37 C 565.27 422.59 677.68 461.81 800.13 481.73 C 833.14 487.10 865.34 489.74 896.15 489.74 C 974.93 489.74 1044.53 467.47 1094.70 434.41 L 1072.69 408.02 Z"
                        fill="#ffd219" fill-rule="nonzero" group-id="1,2,5,14" node-id="144"
                        stroke="none" target-height="208.28998" target-width="992.73"
                        target-x="101.97" target-y="323.12"></path>
                </g>
                <g clip-path="url(#SVGID_4_)" group-id="1,2,5,15" node-id="147">
                    <path
                        d="M 483.98 698.86 C 481.49 698.86 479.48 696.85 479.48 694.36 L 479.48 284.25 C 479.48 281.76 481.49 279.75 483.98 279.75 C 486.47 279.75 488.48 281.76 488.48 284.25 L 488.48 694.36 C 488.48 696.84 486.46 698.86 483.98 698.86 Z"
                        fill="#ffffff" fill-opacity="0.9" fill-rule="nonzero" group-id="1,2,5,15"
                        node-id="149" stroke="none" target-height="419.11" target-width="9"
                        target-x="479.48" target-y="279.75"></path>
                </g>
                <path
                    d="M 378.21 290.64 L 379.01 249.34 C 379.89 211.70 396.80 143.02 403.38 117.53 C 404.77 112.16 410.27 108.94 415.63 110.37 L 450.50 119.64 C 455.77 121.04 458.94 126.39 457.64 131.69 C 449.86 163.32 435.67 229.52 434.99 258.64 L 434.73 265.91 L 378.21 290.64 Z"
                    fill="#ffd219" fill-rule="nonzero" group-id="1,2" node-id="153" stroke="none"
                    target-height="181.70001" target-width="80.73001" target-x="378.21"
                    target-y="108.94"></path>
                <path
                    d="M 1037.50 354.39 C 1039.70 354.84 1040.86 351.89 1038.94 350.72 L 891.18 260.56 C 884.93 256.67 878.03 253.96 870.80 252.57 L 386.12 159.27 C 384.04 158.87 382.85 161.55 384.53 162.83 C 384.53 162.83 450.00 215.93 471.78 233.93 C 477.54 238.55 484.56 240.70 496.65 243.35 C 584.34 261.36 966.88 339.90 1037.50 354.39 Z"
                    fill="#f44f2e" fill-rule="nonzero" group-id="1,2,6" node-id="157" stroke="none"
                    target-height="195.97" target-width="658.01" target-x="382.85"
                    target-y="158.87"></path>
                <path
                    d="M 149.32 392.86 C 147.35 393.74 145.57 391.31 147.01 389.70 L 255.70 268.62 C 258.11 265.94 261.78 264.76 265.30 265.54 L 372.32 289.22 C 374.13 289.71 374.33 292.21 372.61 292.98 L 149.32 392.86 Z"
                    fill="#e84a2c" fill-rule="nonzero" group-id="1,2" node-id="160" stroke="none"
                    target-height="128.97998" target-width="228.75998" target-x="145.57"
                    target-y="264.76"></path>
                <path
                    d="M 318.50 310.92 C 318.33 309.94 301.55 212.26 296.73 189.13 C 292.49 168.77 289.17 127.72 287.76 108.29 C 287.36 102.75 291.55 97.95 297.09 97.60 L 346.99 94.38 C 352.47 94.03 357.21 98.15 357.61 103.62 C 359.13 124.38 362.16 159.97 365.26 174.85 C 368.92 192.40 387.16 286.58 387.16 286.58 L 321.00 316.00 L 318.50 310.92 Z"
                    fill="#f2ad0c" fill-rule="nonzero" group-id="1,2" node-id="162" stroke="none"
                    target-height="221.97" target-width="99.80002" target-x="287.36"
                    target-y="94.03"></path>
                <path
                    d="M 285.89 338.12 L 263.15 214.00 L 245.76 175.45 C 243.49 170.42 245.73 164.49 250.76 162.22 L 287.22 145.78 C 292.25 143.51 298.18 145.75 300.45 150.78 L 320.85 196.00 L 342.36 313.41 L 285.89 338.12 Z"
                    fill="#ffd219" fill-rule="nonzero" group-id="1,2" node-id="164" stroke="none"
                    target-height="194.61" target-width="98.86998" target-x="243.49"
                    target-y="143.51"></path>
                <path
                    d="M 232.07 355.97 C 227.03 344.37 194.10 300.88 162.97 262.58 C 159.50 258.31 160.13 252.04 164.38 248.54 L 187.56 229.50 C 191.84 225.98 198.17 226.62 201.67 230.92 C 221.03 254.75 267.83 313.42 277.74 335.63 C 277.81 335.76 232.07 355.97 232.07 355.97 Z"
                    fill="#fabe19" fill-rule="nonzero" group-id="1,2" node-id="166" stroke="none"
                    target-height="129.99" target-width="118.31" target-x="159.5"
                    target-y="225.98"></path>
                <path
                    d="M 579.86 196.31 L 687.78 285.79 C 690.02 287.69 691.31 290.48 691.31 293.42 L 693.31 441.27 C 693.31 444.46 696.86 446.36 699.52 444.61 L 738.84 418.61 C 740.50 417.51 742.71 417.80 744.03 419.28 L 781.27 460.96 C 782.66 462.51 785.00 462.74 786.67 461.49 L 822.13 434.68 C 823.65 433.53 825.76 433.61 827.18 434.87 L 875.69 477.53 C 878.34 479.86 882.48 477.87 882.33 474.35 L 876.93 328.32 C 876.80 325.40 875.41 322.68 873.10 320.88 L 755.49 231.54 C 753.02 229.66 750.14 228.39 747.09 227.81 L 579.86 196.31 Z"
                    fill="#25b83b" fill-rule="nonzero" group-id="1,2" node-id="168" stroke="none"
                    target-height="283.55" target-width="302.62" target-x="579.86"
                    target-y="196.31"></path>
            </g>
        </g>
        <g clip-path="url(#SVGID_2_)" group-id="1,3" id="body_7_" node-id="48">
            <path d="M 737.73 1159.86 L 742.72 1209.87 L 827.72 1209.87 L 821.73 1157.86 Z"
                fill="#fab90a" fill-rule="nonzero" group-id="1,3" node-id="172" stroke="none"
                target-height="52.01001" target-width="89.98999" target-x="737.73"
                target-y="1157.86"></path>
            <g clip-path="url(#SVGID_6_)" group-id="1,3,7,16" node-id="176">
                <path
                    d="M 738.72 1160.86 L 743.22 1209.87 L 272.72 1209.87 C 272.72 1209.87 258.57 825.79 529.72 825.79 C 642.01 825.79 721.61 868.29 773.44 927.25 C 858.23 1023.71 871.72 1160.85 871.72 1160.85 L 738.72 1160.86 Z"
                    fill="#ffffff" fill-rule="nonzero" group-id="1,3,7,16" node-id="178"
                    stroke="none" target-height="384.08002" target-width="613.14996"
                    target-x="258.57" target-y="825.79"></path>
            </g>
            <g clip-path="url(#SVGID_6_)" group-id="1,3,7,17" node-id="181">
                <path
                    d="M 794.88 1165.70 C 785.91 1095.79 766.62 994.28 725.68 907.66 C 701.24 855.95 680.37 833.84 680.16 833.62 L 694.56 819.74 C 695.48 820.69 717.35 843.63 743.11 897.75 C 766.56 947.01 798.02 1033.03 814.71 1163.15 L 794.88 1165.70 Z"
                    fill="#f44f2e" fill-rule="nonzero" group-id="1,3,7,17" node-id="183"
                    stroke="none" target-height="345.95996" target-width="134.55005"
                    target-x="680.16" target-y="819.74"></path>
            </g>
            <g clip-path="url(#SVGID_6_)" group-id="1,3,7,18" node-id="186">
                <path
                    d="M 749.87 1165.63 C 736.55 1056.26 713.80 973.94 697.05 924.14 C 678.90 870.18 663.71 841.71 663.56 841.43 L 681.16 831.94 C 681.80 833.13 697.12 861.76 715.78 917.11 C 732.90 967.90 756.15 1051.83 769.72 1163.22 L 749.87 1165.63 Z"
                    fill="#f44f2e" fill-rule="nonzero" group-id="1,3,7,18" node-id="188"
                    stroke="none" target-height="333.69" target-width="106.15997" target-x="663.56"
                    target-y="831.94"></path>
            </g>
            <g clip-path="url(#SVGID_6_)" group-id="1,3,7,19" node-id="191">
                <path
                    d="M 743.22 1219.87 L 263.09 1219.87 L 262.74 1210.24 C 262.66 1208.06 260.90 1155.98 272.20 1089.57 C 278.85 1050.46 288.69 1014.56 301.44 982.87 C 317.53 942.89 338.34 909.48 363.30 883.59 C 406.65 838.61 462.65 815.80 529.73 815.80 C 661.19 815.80 738.91 872.82 780.96 920.66 C 825.95 971.84 850.93 1034.12 863.96 1077.35 C 878.05 1124.09 881.54 1158.45 881.68 1159.89 L 861.78 1161.85 C 861.75 1161.52 858.28 1127.64 844.68 1082.68 C 832.22 1041.48 808.44 982.22 765.94 933.87 C 709.55 869.72 627.87 835.80 529.73 835.80 C 468.31 835.80 417.18 856.53 377.74 897.43 C 325.08 952.04 302.04 1033.65 291.98 1092.50 C 283.75 1140.67 282.64 1181.90 282.61 1199.88 L 743.23 1199.88 L 743.23 1219.87 Z"
                    fill="#ffd219" fill-rule="nonzero" group-id="1,3,7,19" node-id="193"
                    stroke="none" target-height="404.07" target-width="620.78" target-x="260.9"
                    target-y="815.8"></path>
            </g>
            <path
                d="M 874.95 1156.80 C 874.66 1154.05 872.20 1152.08 869.45 1152.35 C 869.03 1152.39 826.74 1156.84 783.62 1158.30 C 703.38 1161.03 694.45 1151.14 693.48 1149.14 L 693.25 1148.66 L 692.92 1148.24 C 683.25 1135.85 670.03 1016.33 663.96 943.90 C 663.73 941.15 661.30 939.11 658.56 939.33 C 655.81 939.56 653.76 941.98 653.99 944.73 C 654.03 945.20 658.01 992.58 663.68 1041.57 C 664.60 1049.51 665.49 1056.88 666.35 1063.73 C 635.21 1026.02 626.01 976.10 625.89 975.44 C 625.41 972.72 622.82 970.90 620.10 971.39 C 617.38 971.87 615.57 974.46 616.05 977.18 C 616.49 979.70 627.41 1039.33 667.42 1079.82 C 667.77 1080.17 668.17 1080.44 668.58 1080.67 C 676.04 1135.31 681.23 1149.11 684.72 1153.96 C 688.56 1161.13 701.20 1168.78 757.19 1168.77 C 765.21 1168.77 774.11 1168.61 784.01 1168.28 C 827.48 1166.80 870.08 1162.32 870.51 1162.28 C 873.25 1162.01 875.24 1159.55 874.95 1156.80 Z"
                fill="#ffd219" fill-rule="nonzero" group-id="1,3" node-id="197" stroke="none"
                target-height="229.67004" target-width="259.66998" target-x="615.57"
                target-y="939.11"></path>
        </g>
    </g>
</svg>