<svg height="1200" node-id="1" sillyvg="true" template-height="1200" template-width="1200"
    version="1.1" viewBox="0 0 1200 1200" width="1200" xmlns="http://www.w3.org/2000/svg"
    xmlns:xlink="http://www.w3.org/1999/xlink">
    <defs node-id="117">
        <clipPath id="SVGID_2_" node-id="8">
            <path d="M 0.00 0.00 L 1200.00 0.00 L 1200.00 1200.00 L 0.00 1200.00 Z" fill="#000000"
                fill-rule="nonzero" node-id="120" stroke="none" target-height="1200"
                target-width="1200" target-x="0" target-y="0"></path>
        </clipPath>
        <clipPath id="SVGID_4_" node-id="18">
            <path
                d="M 767.99 915.76 L 1030.54 851.52 C 1039.46 849.34 1045.75 841.36 1045.79 832.18 L 1047.68 371.64 C 1047.70 365.88 1043.63 360.91 1037.97 359.81 L 494.21 254.10 C 486.09 252.52 477.68 253.50 470.14 256.90 L 146.94 398.54 C 142.56 400.46 139.74 404.80 139.76 409.58 L 141.65 849.44 C 141.69 859.40 149.05 867.80 158.91 869.17 L 368.14 898.06 L 729.81 924.06 L 767.99 915.76 Z"
                fill="#000000" fill-rule="nonzero" node-id="124" stroke="none"
                target-height="671.54" target-width="907.95996" target-x="139.74"
                target-y="252.52"></path>
        </clipPath>
        <clipPath id="SVGID_6_" node-id="63">
            <path
                d="M 737.72 1160.86 L 742.22 1209.87 L 271.72 1209.87 C 271.72 1209.87 257.57 825.79 528.72 825.79 C 641.01 825.79 720.61 868.29 772.44 927.25 C 857.23 1023.71 870.72 1160.85 870.72 1160.85 L 691.72 1160.85 L 737.72 1160.86 Z"
                fill="#000000" fill-rule="nonzero" node-id="128" stroke="none"
                target-height="384.08002" target-width="613.14996" target-x="257.57"
                target-y="825.79"></path>
        </clipPath>
    </defs>
    <path d="M 0.00 0.00 L 1200.00 0.00 L 1200.00 1200.00 L 0.00 1200.00 Z" fill="#c9f5d7"
        fill-rule="nonzero" node-id="132" stroke="none" target-height="1200" target-width="1200"
        target-x="0" target-y="0"></path>
    <g node-id="377">
        <g node-id="378">
            <g clip-path="url(#SVGID_2_)" group-id="1,2" id="head_4_" node-id="10">
                <path
                    d="M 400.50 243.50 C 400.50 171.76 340.60 112.63 268.87 113.51 C 197.83 114.38 140.50 172.25 140.50 243.50 C 140.50 251.67 141.26 259.67 142.70 267.42 C 142.83 268.12 143.02 269.06 143.21 269.98 C 143.72 272.49 144.39 274.96 145.22 277.38 C 149.44 289.68 155.61 301.15 163.61 311.53 C 164.95 313.27 164.82 315.83 163.12 317.23 C 162.37 317.85 161.47 318.15 160.57 318.15 C 159.37 318.15 158.19 317.62 157.40 316.60 C 148.50 305.08 141.71 292.32 137.18 278.61 C 136.80 277.46 135.50 276.89 134.42 277.41 C 87.71 300.10 55.50 347.95 55.50 403.37 C 55.50 445.57 74.18 483.41 103.71 509.08 C 100.34 507.17 97.05 505.14 93.87 502.96 C 92.75 508.30 92.28 513.88 92.56 519.61 C 94.18 553.23 121.74 580.32 155.39 581.38 C 183.23 582.26 207.28 565.62 217.40 541.66 C 227.29 540.11 236.84 537.52 245.93 534.01 C 298.34 513.77 335.51 462.91 335.51 403.37 C 335.51 388.16 333.09 373.52 328.60 359.82 C 330.74 358.75 332.86 357.63 334.93 356.44 C 374.10 334.05 400.50 291.85 400.50 243.50 Z"
                    fill="#22a853" fill-rule="nonzero" group-id="1,2" node-id="137" stroke="none"
                    target-height="469.63" target-width="345" target-x="55.5"
                    target-y="112.63"></path>
                <path
                    d="M 148.32 392.86 C 146.35 393.74 144.57 391.31 146.01 389.70 L 258.60 264.27 C 261.13 261.46 265.02 260.31 268.67 261.30 L 371.32 289.21 C 373.13 289.70 373.33 292.20 371.61 292.97 L 148.32 392.86 Z"
                    fill="#ffffff" fill-opacity="0.8" fill-rule="nonzero" group-id="1,2,4"
                    node-id="141" stroke="none" target-height="133.43" target-width="228.75998"
                    target-x="144.57" target-y="260.31"></path>
                <path
                    d="M 1152.50 408.91 C 1152.50 375.95 1134.78 347.15 1108.35 331.48 C 1106.59 330.43 1104.31 330.89 1103.10 332.55 C 1096.58 341.48 1088.98 349.59 1080.37 356.77 C 1079.53 357.47 1078.51 357.81 1077.49 357.81 C 1076.17 357.81 1074.85 357.23 1073.96 356.11 C 1072.41 354.16 1072.88 351.30 1074.79 349.70 C 1087.83 338.79 1098.37 325.62 1106.13 310.54 C 1115.34 292.63 1120.00 273.28 1120.00 253.01 C 1120.00 216.21 1104.14 183.04 1078.89 159.98 C 1055.93 139.82 1025.89 127.54 993.12 127.51 C 963.60 127.48 936.37 137.26 914.49 153.76 C 913.44 154.56 911.93 154.15 911.42 152.93 C 911.41 152.91 911.40 152.88 911.39 152.86 C 880.97 79.90 807.84 28.50 722.47 28.50 C 667.83 28.50 621.98 48.60 585.57 82.85 C 583.91 84.41 583.86 87.02 585.48 88.62 C 610.21 113.06 624.74 146.39 625.47 182.18 C 625.51 183.94 624.00 185.33 622.25 185.21 C 621.59 185.16 620.92 185.09 620.33 185.02 C 619.24 184.88 618.38 184.19 618.35 183.23 C 616.60 147.65 601.09 115.56 576.84 91.78 C 550.53 65.99 513.95 50.00 473.50 50.00 C 408.21 50.00 353.00 91.67 334.83 148.97 C 333.95 151.74 333.16 154.55 332.45 157.39 C 332.33 157.86 332.23 158.34 332.12 158.81 C 328.89 158.00 325.58 157.38 322.19 156.99 C 319.34 156.67 316.43 156.50 313.50 156.50 C 272.68 156.50 239.60 188.51 239.60 228.00 C 239.60 267.49 272.69 299.50 313.50 299.50 C 329.65 299.50 344.60 294.49 356.76 285.97 C 357.73 285.30 356.63 272.88 356.63 272.88 C 383.02 307.52 425.54 330.00 473.50 330.00 C 496.28 330.00 517.84 324.93 537.02 315.89 C 537.53 315.65 538.03 315.39 538.53 315.14 C 571.46 382.21 641.44 428.50 722.46 428.50 C 792.92 428.50 855.02 393.49 891.69 340.27 C 915.07 369.00 950.41 387.61 990.13 388.47 C 991.08 388.49 992.04 388.50 993.00 388.50 C 1014.62 388.50 1004.69 398.11 976.10 398.11 C 975.11 398.11 974.12 398.10 973.15 398.08 C 972.72 401.63 972.50 405.25 972.50 408.91 C 972.50 439.96 988.23 467.33 1012.16 483.50 C 1002.46 495.72 996.50 516.86 996.50 532.00 C 996.50 564.05 1023.19 589.87 1055.56 588.44 C 1084.61 587.16 1108.19 563.56 1109.45 534.51 C 1109.96 522.85 1106.91 511.93 1101.31 502.73 C 1100.57 501.52 1099.10 501.00 1097.76 501.45 C 1088.05 504.74 1077.90 506.41 1067.50 506.41 C 1051.33 506.41 1035.38 502.25 1021.36 494.39 C 1019.32 493.25 1018.37 490.70 1019.33 488.57 C 1020.43 486.12 1023.36 485.19 1025.65 486.48 C 1038.35 493.63 1052.82 497.41 1067.50 497.41 C 1076.81 497.41 1085.88 495.91 1094.57 493.01 C 1095.43 492.68 1096.29 492.35 1097.13 492.00 C 1129.65 478.43 1152.50 446.34 1152.50 408.91 Z"
                    fill="#25b83b" fill-rule="nonzero" group-id="1,2" node-id="144" stroke="none"
                    target-height="561.37" target-width="912.9" target-x="239.6"
                    target-y="28.5"></path>
                <path
                    d="M 1036.50 354.39 C 1038.70 354.84 1039.86 351.89 1037.94 350.72 L 890.18 260.56 C 883.93 256.67 877.03 253.96 869.80 252.57 L 385.12 159.27 C 383.04 158.87 381.85 161.55 383.53 162.83 C 383.53 162.83 449.00 215.93 470.78 233.93 C 476.54 238.55 483.56 240.70 495.65 243.35 C 583.34 261.36 965.88 339.90 1036.50 354.39 Z"
                    fill="#ffffff" fill-rule="nonzero" group-id="1,2" node-id="146" stroke="none"
                    target-height="195.97" target-width="658.01" target-x="381.85"
                    target-y="158.87"></path>
                <g clip-path="url(#SVGID_4_)" group-id="1,2,5,10" node-id="150">
                    <path
                        d="M 767.99 915.76 L 1030.54 851.52 C 1039.46 849.34 1045.75 841.36 1045.79 832.18 L 1047.68 371.64 C 1047.70 365.88 1043.63 360.91 1037.97 359.81 L 494.21 254.10 C 486.09 252.52 477.68 253.50 470.14 256.90 L 146.94 398.54 C 142.56 400.46 139.74 404.80 139.76 409.58 L 141.65 849.44 C 141.69 859.40 149.05 867.80 158.91 869.17 L 368.14 898.06 L 729.81 924.06 L 767.99 915.76 Z"
                        fill="#ffffff" fill-rule="nonzero" group-id="1,2,5,10" node-id="152"
                        stroke="none" target-height="671.54" target-width="907.95996"
                        target-x="139.74" target-y="252.52"></path>
                    <path
                        d="M 729.82 936.07 C 729.53 936.07 729.25 936.06 728.96 936.04 L 367.29 910.04 C 367.03 910.02 366.77 909.99 366.51 909.96 L 157.28 881.07 C 141.60 878.90 129.73 865.33 129.66 849.51 L 127.77 409.65 C 127.73 400.08 133.37 391.41 142.14 387.57 L 465.27 245.96 C 475.11 241.53 485.91 240.28 496.51 242.34 L 1040.28 348.04 C 1051.58 350.24 1059.75 360.19 1059.70 371.70 L 1057.81 832.23 C 1057.75 846.95 1047.72 859.68 1033.42 863.18 L 770.87 927.42 C 770.77 927.44 770.67 927.47 770.57 927.49 L 732.40 935.80 C 731.53 935.98 730.68 936.07 729.82 936.07 Z M 369.40 886.13 L 728.96 911.98 L 765.29 904.07 L 1027.69 839.86 C 1031.27 838.98 1033.77 835.80 1033.79 832.12 L 1035.68 371.58 L 491.91 265.88 C 486.20 264.77 480.37 265.45 475.06 267.84 C 475.02 267.86 474.98 267.87 474.94 267.89 L 151.76 409.54 L 153.65 849.40 C 153.67 853.36 156.64 856.75 160.56 857.29 L 369.40 886.13 Z"
                        fill="#22a864" fill-rule="nonzero" group-id="1,2,5,10" node-id="154"
                        stroke="none" target-height="695.79004" target-width="932.02"
                        target-x="127.73" target-y="240.28"></path>
                </g>
                <g clip-path="url(#SVGID_4_)" group-id="1,2,5,11" node-id="157">
                    <path
                        d="M 381.87 901.77 L 157.30 870.14 C 151.11 869.27 150.21 860.70 156.09 858.56 L 467.35 745.38 C 477.36 741.72 488.16 740.82 498.64 742.76 L 1031.27 840.73 C 1037.48 841.87 1037.94 850.59 1031.89 852.38 L 1002.68 861.02 L 736.83 926.26 L 381.87 901.77 Z"
                        fill="#3e9452" fill-opacity="0.3" fill-rule="nonzero" group-id="1,2,5,11"
                        node-id="159" stroke="none" target-height="185.44" target-width="887.7299"
                        target-x="150.21" target-y="740.82"></path>
                </g>
                <g clip-path="url(#SVGID_4_)" group-id="1,2,5,12" node-id="162">
                    <path
                        d="M 783.43 711.82 C 781.00 711.82 778.57 711.61 776.15 711.17 C 748.59 706.20 731.54 685.67 730.54 656.26 C 730.44 653.45 731.55 650.72 733.57 648.77 C 735.58 646.83 738.33 645.81 741.13 646.02 C 744.94 646.28 751.38 647.45 761.14 649.21 C 766.58 650.20 772.75 651.31 779.87 652.53 C 806.63 657.10 816.87 659.06 820.48 660.30 L 820.48 660.30 C 824.19 661.58 826.62 665.06 826.53 668.98 C 826.25 681.79 820.28 693.90 810.16 702.18 C 802.48 708.46 793.02 711.82 783.43 711.82 Z M 747.28 663.00 C 749.29 674.66 756.20 691.31 778.99 695.42 C 786.47 696.77 793.94 694.77 800.03 689.79 C 804.95 685.77 808.40 680.17 809.82 674.16 C 801.13 672.40 785.08 669.66 777.17 668.31 C 769.98 667.08 763.76 665.96 758.28 664.97 C 754.12 664.20 750.37 663.52 747.28 663.00 Z M 815.27 675.42 C 815.28 675.42 815.28 675.42 815.27 675.42 C 815.28 675.42 815.28 675.42 815.27 675.42 Z M 810.54 668.61 C 810.54 668.62 810.54 668.62 810.54 668.63 C 810.54 668.63 810.54 668.62 810.54 668.61 Z"
                        fill="#f43b2e" fill-rule="nonzero" group-id="1,2,5,12" node-id="164"
                        stroke="none" target-height="66.01001" target-width="96.17999"
                        target-x="730.44" target-y="645.81"></path>
                </g>
                <g clip-path="url(#SVGID_4_)" group-id="1,2,5,13" node-id="167">
                    <path
                        d="M 840.00 582.00 C 840.00 611.27 815.38 635.00 785.00 635.00 C 754.62 635.00 730.00 611.27 730.00 582.00 C 730.00 552.73 754.62 529.00 785.00 529.00 C 815.38 529.00 840.00 552.73 840.00 582.00 Z"
                        fill="#f43b2e" fill-rule="nonzero" group-id="1,2,5,13" node-id="169"
                        stroke="none" target-height="106" target-width="110" target-x="730"
                        target-y="529"></path>
                </g>
                <g clip-path="url(#SVGID_4_)" group-id="1,2,5,14" node-id="172">
                    <path
                        d="M 820.61 571.00 C 820.98 581.64 812.33 590.57 801.29 590.96 C 790.25 591.35 795.99 582.51 795.62 571.87 C 795.25 561.23 788.91 552.82 799.94 552.43 C 810.99 552.05 820.24 560.37 820.61 571.00 Z"
                        fill="#ffffff" fill-rule="nonzero" group-id="1,2,5,14" node-id="174"
                        stroke="none" target-height="39.299988" target-width="32.070007"
                        target-x="788.91" target-y="552.05"></path>
                </g>
                <g clip-path="url(#SVGID_4_)" group-id="1,2,5,15" node-id="177">
                    <path
                        d="M 630.00 461.00 C 605.19 461.00 585.00 481.19 585.00 506.00 C 585.00 511.52 589.48 516.00 595.00 516.00 C 596.82 516.00 598.53 515.50 600.00 514.65 L 600.00 529.00 C 600.00 545.57 613.43 559.00 630.00 559.00 C 646.57 559.00 660.00 545.57 660.00 529.00 L 660.00 514.65 C 661.47 515.50 663.18 516.00 665.00 516.00 C 670.52 516.00 675.00 511.52 675.00 506.00 C 675.00 481.19 654.81 461.00 630.00 461.00 Z"
                        fill="#2e2725" fill-rule="nonzero" group-id="1,2,5,15" node-id="179"
                        stroke="none" target-height="98" target-width="90" target-x="585"
                        target-y="461"></path>
                    <path
                        d="M 930.00 518.00 C 905.19 518.00 885.00 538.19 885.00 563.00 C 885.00 568.52 889.48 573.00 895.00 573.00 C 897.25 573.00 899.33 572.24 901.00 570.99 L 901.00 586.00 C 901.00 602.02 913.98 615.00 930.00 615.00 C 946.02 615.00 959.00 602.02 959.00 586.00 L 959.00 570.99 C 960.67 572.25 962.75 573.00 965.00 573.00 C 970.52 573.00 975.00 568.52 975.00 563.00 C 975.00 538.19 954.81 518.00 930.00 518.00 Z"
                        fill="#2e2725" fill-rule="nonzero" group-id="1,2,5,15" node-id="181"
                        stroke="none" target-height="97" target-width="90" target-x="885"
                        target-y="518"></path>
                    <path
                        d="M 630.00 528.00 C 625.58 528.00 622.00 524.42 622.00 520.00 L 622.00 504.00 C 622.00 499.58 625.58 496.00 630.00 496.00 C 634.42 496.00 638.00 499.58 638.00 504.00 L 638.00 520.00 C 638.00 524.42 634.42 528.00 630.00 528.00 Z"
                        fill="#ffffff" fill-rule="nonzero" group-id="1,2,5,15,20" node-id="185"
                        stroke="none" target-height="32" target-width="16" target-x="622"
                        target-y="496"></path>
                    <path
                        d="M 930.00 585.00 C 925.58 585.00 922.00 581.42 922.00 577.00 L 922.00 561.00 C 922.00 556.58 925.58 553.00 930.00 553.00 C 934.42 553.00 938.00 556.58 938.00 561.00 L 938.00 577.00 C 938.00 581.42 934.42 585.00 930.00 585.00 Z"
                        fill="#ffffff" fill-rule="nonzero" group-id="1,2,5,15,20" node-id="187"
                        stroke="none" target-height="32" target-width="16" target-x="922"
                        target-y="553"></path>
                    <path
                        d="M 630.00 447.00 C 637.20 447.78 644.05 449.44 650.43 451.86 C 653.50 453.03 656.59 450.20 655.69 447.04 L 633.30 386.03 C 632.09 382.37 626.91 382.37 625.70 386.03 L 602.32 443.53 C 601.40 446.50 604.09 449.38 607.10 448.60 C 614.24 446.73 621.95 446.13 630.00 447.00 Z"
                        fill="#0ca1a6" fill-rule="evenodd" group-id="1,2,5,15,21" node-id="192"
                        stroke="none" target-height="70.66" target-width="55.190002"
                        target-x="601.4" target-y="382.37"></path>
                    <path
                        d="M 629.00 586.00 C 621.36 585.17 614.11 583.36 607.41 580.69 C 604.33 579.46 601.16 582.22 602.02 585.42 L 624.70 667.97 C 625.91 671.63 631.09 671.63 632.30 667.97 L 655.67 589.85 C 656.53 586.92 653.91 584.16 650.93 584.84 C 644.13 586.40 636.76 586.84 629.00 586.00 Z"
                        fill="#0ca1a6" fill-rule="evenodd" group-id="1,2,5,15,21" node-id="194"
                        stroke="none" target-height="92.16998" target-width="55.370056"
                        target-x="601.16" target-y="579.46"></path>
                    <path
                        d="M 930.60 504.00 C 937.80 504.78 944.65 506.44 951.03 508.86 C 954.10 510.03 957.19 507.20 956.29 504.04 L 933.90 443.03 C 932.69 439.37 927.51 439.37 926.30 443.03 L 902.92 500.53 C 902.00 503.50 904.69 506.38 907.70 505.60 C 914.84 503.73 922.56 503.13 930.60 504.00 Z"
                        fill="#0ca1a6" fill-rule="evenodd" group-id="1,2,5,15,21" node-id="196"
                        stroke="none" target-height="70.66" target-width="55.190002" target-x="902"
                        target-y="439.37"></path>
                    <path
                        d="M 929.00 643.00 C 921.60 641.86 914.67 640.03 908.29 637.56 C 905.24 636.38 902.15 639.16 903.00 642.32 L 925.70 724.96 C 926.91 728.62 932.09 728.62 933.30 724.96 L 956.79 646.50 C 957.66 643.53 954.98 640.69 951.99 641.47 C 944.85 643.32 937.10 643.90 929.00 643.00 Z"
                        fill="#0ca1a6" fill-rule="evenodd" group-id="1,2,5,15,21" node-id="198"
                        stroke="none" target-height="92.23999" target-width="55.50995"
                        target-x="902.15" target-y="636.38"></path>
                </g>
                <g clip-path="url(#SVGID_4_)" group-id="1,2,5,16" node-id="202">
                    <path
                        d="M 279.04 382.58 L 279.04 421.70 C 279.04 423.13 280.48 424.11 281.82 423.59 L 311.13 412.01 C 311.90 411.70 312.41 410.96 312.41 410.12 L 312.41 370.11 C 312.41 368.65 310.92 367.67 309.58 368.24 L 280.27 380.72 C 279.53 381.04 279.04 381.77 279.04 382.58 Z"
                        fill="#fcc419" fill-rule="evenodd" group-id="1,2,5,16" node-id="204"
                        stroke="none" target-height="56.439972" target-width="33.369995"
                        target-x="279.04" target-y="367.67"></path>
                    <path
                        d="M 229.80 444.15 L 259.13 432.56 C 259.90 432.26 260.41 431.51 260.41 430.68 L 260.41 392.23 C 260.41 390.78 258.93 389.81 257.60 390.37 L 228.27 402.86 C 227.53 403.18 227.04 403.91 227.04 404.72 L 227.04 442.28 C 227.04 443.70 228.48 444.68 229.80 444.15 Z"
                        fill="#fcc419" fill-rule="evenodd" group-id="1,2,5,16" node-id="206"
                        stroke="none" target-height="54.869995" target-width="33.37001"
                        target-x="227.04" target-y="389.81"></path>
                    <path
                        d="M 178.79 464.31 L 208.14 452.71 C 208.91 452.41 209.41 451.67 209.41 450.84 L 209.41 413.92 C 209.41 412.48 207.94 411.51 206.61 412.07 L 177.26 424.56 C 176.52 424.88 176.04 425.60 176.04 426.41 L 176.04 462.43 C 176.04 463.86 177.47 464.84 178.79 464.31 Z"
                        fill="#fcc419" fill-rule="evenodd" group-id="1,2,5,16" node-id="208"
                        stroke="none" target-height="53.329987" target-width="33.37001"
                        target-x="176.04" target-y="411.51"></path>
                </g>
                <g clip-path="url(#SVGID_4_)" group-id="1,2,5,17" node-id="211">
                    <path
                        d="M 482.98 698.86 C 480.49 698.86 478.48 696.85 478.48 694.36 L 478.48 285.25 C 478.48 282.76 480.49 280.75 482.98 280.75 C 485.47 280.75 487.48 282.76 487.48 285.25 L 487.48 694.36 C 487.48 696.84 485.46 698.86 482.98 698.86 Z"
                        fill="#8fc7aa" fill-opacity="0.9" fill-rule="nonzero" group-id="1,2,5,17"
                        node-id="213" stroke="none" target-height="418.11" target-width="9"
                        target-x="478.48" target-y="280.75"></path>
                </g>
                <path
                    d="M 306.68 556.42 C 281.22 556.42 265.04 542.38 264.31 541.74 C 262.45 540.09 262.27 537.25 263.92 535.39 C 265.57 533.53 268.41 533.35 270.27 535.00 C 270.42 535.13 286.81 549.20 311.55 547.22 C 314.04 547.02 316.20 548.87 316.39 551.35 C 316.59 553.83 314.74 556.00 312.26 556.20 C 310.36 556.34 308.49 556.42 306.68 556.42 Z"
                    fill="#bdd4bd" fill-rule="nonzero" group-id="1,2,6" node-id="219" stroke="none"
                    target-height="23.070007" target-width="54.320007" target-x="262.27"
                    target-y="533.35"></path>
                <path
                    d="M 317.19 530.44 C 277.75 530.44 256.69 500.61 255.74 499.25 C 254.33 497.20 254.84 494.40 256.89 492.99 C 258.94 491.58 261.74 492.09 263.15 494.14 C 264.04 495.42 285.55 525.57 325.49 520.96 C 327.95 520.67 330.19 522.44 330.48 524.91 C 330.77 527.38 329.00 529.61 326.53 529.90 C 323.31 530.26 320.19 530.44 317.19 530.44 Z"
                    fill="#bdd4bd" fill-rule="nonzero" group-id="1,2,6" node-id="221" stroke="none"
                    target-height="38.860016" target-width="76.43999" target-x="254.33"
                    target-y="491.58"></path>
                <path
                    d="M 452.50 335.50 C 452.50 294.08 418.92 260.50 377.50 260.50 C 363.19 260.50 349.81 264.51 338.44 271.47 C 325.06 259.08 307.17 251.50 287.50 251.50 C 246.08 251.50 212.50 285.08 212.50 326.50 C 212.50 358.47 232.51 385.75 260.69 396.55 C 257.35 405.21 255.50 414.63 255.50 424.50 C 255.50 466.47 288.63 500.50 329.50 500.50 C 370.37 500.50 403.50 466.47 403.50 424.50 C 403.50 418.33 402.77 412.33 401.41 406.58 C 431.10 396.60 452.50 368.56 452.50 335.50 Z"
                    fill="#41c73f" fill-rule="nonzero" group-id="1,2" node-id="224" stroke="none"
                    target-height="249" target-width="240" target-x="212.5" target-y="251.5"></path>
                <path
                    d="M 578.86 196.31 L 686.78 285.79 C 689.02 287.69 690.31 290.48 690.31 293.42 L 692.31 441.27 C 692.31 444.46 695.86 446.36 698.52 444.61 L 737.84 418.61 C 739.50 417.51 741.71 417.80 743.03 419.28 L 780.27 460.96 C 781.66 462.51 784.00 462.74 785.67 461.49 L 821.13 434.68 C 822.65 433.53 824.76 433.61 826.18 434.87 L 874.69 477.53 C 877.34 479.86 881.48 477.87 881.33 474.35 L 875.93 328.32 C 875.80 325.40 874.41 322.68 872.10 320.88 L 754.49 231.54 C 752.02 229.66 749.14 228.39 746.09 227.81 L 578.86 196.31 Z"
                    fill="#3e9452" fill-opacity="0.3" fill-rule="nonzero" group-id="1,2,7"
                    node-id="228" stroke="none" target-height="283.55" target-width="302.62"
                    target-x="578.86" target-y="196.31"></path>
                <path
                    d="M 839.67 181.63 C 839.38 181.63 839.09 181.61 838.80 181.55 C 836.08 181.07 834.26 178.48 834.74 175.76 C 834.90 174.86 838.81 153.37 853.53 129.94 C 867.19 108.20 893.08 80.74 938.87 73.36 C 941.59 72.92 944.16 74.78 944.60 77.50 C 945.04 80.23 943.18 82.79 940.46 83.23 C 906.66 88.67 880.26 106.18 861.99 135.25 C 848.30 157.04 844.62 177.28 844.58 177.48 C 844.16 179.93 842.05 181.63 839.67 181.63 Z"
                    fill="#aad654" fill-rule="nonzero" group-id="1,2,8" node-id="233" stroke="none"
                    target-height="108.71001" target-width="110.77997" target-x="834.26"
                    target-y="72.92"></path>
                <path
                    d="M 921.95 109.19 L 921.93 109.17 C 918.28 105.98 917.44 100.61 919.97 96.48 C 921.42 94.12 922.93 91.49 924.35 88.92 C 926.94 84.23 932.76 82.41 937.56 84.81 L 937.59 84.83 C 942.66 87.37 944.61 93.61 941.87 98.57 C 940.42 101.20 938.75 104.11 937.03 106.91 C 933.79 112.17 926.60 113.26 921.95 109.19 Z"
                    fill="#fc8319" fill-rule="nonzero" group-id="1,2,8" node-id="235" stroke="none"
                    target-height="30.849998" target-width="27.169983" target-x="917.44"
                    target-y="82.41"></path>
                <path
                    d="M 954.47 108.62 C 952.16 103.99 949.41 99.29 946.97 95.39 C 944.17 90.91 945.34 85.03 949.64 81.96 L 949.64 81.96 C 954.33 78.61 960.87 79.91 963.93 84.79 C 966.55 88.97 969.66 94.24 972.38 99.72 C 975.06 105.11 972.45 111.64 966.77 113.64 L 966.77 113.64 C 961.99 115.32 956.73 113.16 954.47 108.62 Z"
                    fill="#fc8319" fill-rule="nonzero" group-id="1,2,8" node-id="237" stroke="none"
                    target-height="36.71" target-width="30.890015" target-x="944.17"
                    target-y="78.61"></path>
                <path
                    d="M 992.49 89.93 C 989.93 94.38 984.41 96.18 979.72 94.06 C 976.20 92.47 971.92 90.76 967.71 89.63 C 964.35 88.73 960.87 88.25 957.84 87.99 C 952.88 87.57 949.01 83.54 948.74 78.57 L 948.74 78.57 C 948.41 72.51 953.51 67.55 959.55 68.07 C 963.58 68.41 968.27 69.08 972.90 70.32 C 978.30 71.77 983.63 73.89 987.96 75.84 C 993.34 78.26 995.44 84.81 992.49 89.93 L 992.49 89.93 Z"
                    fill="#fc8319" fill-rule="nonzero" group-id="1,2,8" node-id="239" stroke="none"
                    target-height="28.629997" target-width="47.03003" target-x="948.41"
                    target-y="67.55"></path>
                <path
                    d="M 948.87 69.12 L 948.87 69.12 C 946.20 63.67 948.95 57.11 954.71 55.23 C 958.56 53.97 963.13 52.75 967.87 52.08 C 973.42 51.30 979.15 51.17 983.91 51.28 C 989.81 51.41 994.30 56.61 993.58 62.47 L 993.58 62.50 C 992.96 67.59 988.59 71.39 983.46 71.27 C 979.60 71.18 974.98 71.27 970.66 71.88 C 967.22 72.36 963.82 73.28 960.93 74.23 C 956.20 75.78 951.06 73.59 948.87 69.12 Z"
                    fill="#fc8319" fill-rule="nonzero" group-id="1,2,8" node-id="241" stroke="none"
                    target-height="24.61" target-width="48.099976" target-x="946.2"
                    target-y="51.17"></path>
                <path
                    d="M 956.63 65.25 L 937.34 59.97 C 938.30 56.44 942.37 42.59 949.38 31.85 C 953.26 25.90 962.03 25.97 965.97 31.88 L 965.97 31.88 C 968.18 35.20 968.18 39.48 966.04 42.85 C 962.48 48.47 958.75 57.55 956.63 65.25 Z"
                    fill="#fc8319" fill-rule="nonzero" group-id="1,2,8" node-id="243" stroke="none"
                    target-height="39.35" target-width="30.839966" target-x="937.34"
                    target-y="25.9"></path>
                <path
                    d="M 924.01 58.34 C 922.42 56.07 920.48 53.53 918.23 51.02 C 914.94 47.35 914.89 41.80 918.04 38.01 L 918.04 38.01 C 921.95 33.31 929.13 33.20 933.20 37.77 C 935.93 40.83 938.29 43.89 940.23 46.65 C 944.06 52.09 942.14 59.66 936.19 62.66 L 937.86 61.82 L 937.86 61.82 C 933.03 64.27 927.13 62.79 924.01 58.34 Z"
                    fill="#fc8319" fill-rule="nonzero" group-id="1,2,8" node-id="245" stroke="none"
                    target-height="31.069996" target-width="29.169983" target-x="914.89"
                    target-y="33.2"></path>
                <path
                    d="M 903.09 71.18 L 903.09 71.18 C 901.37 65.10 905.64 58.92 911.94 58.48 C 918.94 57.99 925.22 58.56 928.68 59.01 C 930.22 59.21 931.37 60.49 931.41 62.04 L 931.76 75.98 C 931.81 78.05 929.88 79.60 927.86 79.10 L 927.86 79.10 C 927.77 79.08 920.84 77.91 913.31 78.43 C 908.63 78.76 904.37 75.71 903.09 71.18 Z"
                    fill="#fc8319" fill-rule="nonzero" group-id="1,2,8" node-id="247" stroke="none"
                    target-height="21.609997" target-width="30.440002" target-x="901.37"
                    target-y="57.99"></path>
                <path
                    d="M 960.84 73.84 C 960.84 83.04 953.38 90.50 944.18 90.50 C 934.98 90.50 927.52 83.04 927.52 73.84 C 927.52 64.64 934.98 57.18 944.18 57.18 C 953.38 57.18 960.84 64.64 960.84 73.84 Z"
                    fill="#fccd11" fill-rule="nonzero" group-id="1,2,8" node-id="249" stroke="none"
                    target-height="33.32" target-width="33.320007" target-x="927.52"
                    target-y="57.18"></path>
            </g>
        </g>
        <g clip-path="url(#SVGID_2_)" group-id="1,3" id="body_4_" node-id="58">
            <path d="M 736.73 1159.86 L 741.72 1209.87 L 826.72 1209.87 L 820.73 1157.86 Z"
                fill="#feda84" fill-rule="nonzero" group-id="1,3" node-id="254" stroke="none"
                target-height="52.01001" target-width="89.98999" target-x="736.73"
                target-y="1157.86"></path>
            <g clip-path="url(#SVGID_6_)" group-id="1,3,9,18" node-id="258">
                <path
                    d="M 737.72 1160.86 L 742.22 1209.87 L 271.72 1209.87 C 271.72 1209.87 257.57 825.79 528.72 825.79 C 641.01 825.79 720.61 868.29 772.44 927.25 C 857.23 1023.71 870.72 1160.85 870.72 1160.85 L 691.72 1160.85 L 737.72 1160.86 Z"
                    fill="#f43b2e" fill-rule="nonzero" group-id="1,3,9,18" node-id="260"
                    stroke="none" target-height="384.08002" target-width="613.14996"
                    target-x="257.57" target-y="825.79"></path>
            </g>
            <g clip-path="url(#SVGID_6_)" group-id="1,3,9,19" node-id="263">
                <path
                    d="M 442.56 849.38 C 442.56 864.30 430.47 876.39 415.55 876.39 C 400.63 876.39 388.54 864.30 388.54 849.38 C 388.54 834.46 400.63 822.37 415.55 822.37 C 430.47 822.37 442.56 834.46 442.56 849.38 Z"
                    fill="#faf2e1" fill-opacity="0.5" fill-rule="nonzero" group-id="1,3,9,19,22"
                    node-id="267" stroke="none" target-height="54.02002" target-width="54.01999"
                    target-x="388.54" target-y="822.37"></path>
                <path
                    d="M 530.24 849.38 C 530.24 864.30 518.15 876.39 503.23 876.39 C 488.31 876.39 476.22 864.30 476.22 849.38 C 476.22 834.46 488.31 822.37 503.23 822.37 C 518.15 822.37 530.24 834.46 530.24 849.38 Z"
                    fill="#faf2e1" fill-opacity="0.5" fill-rule="nonzero" group-id="1,3,9,19,22"
                    node-id="269" stroke="none" target-height="54.02002" target-width="54.01999"
                    target-x="476.22" target-y="822.37"></path>
                <path
                    d="M 397.49 921.56 C 397.49 936.48 385.40 948.57 370.48 948.57 C 355.56 948.57 343.47 936.48 343.47 921.56 C 343.47 906.64 355.56 894.55 370.48 894.55 C 385.40 894.55 397.49 906.64 397.49 921.56 Z"
                    fill="#faf2e1" fill-opacity="0.5" fill-rule="nonzero" group-id="1,3,9,19,23"
                    node-id="274" stroke="none" target-height="54.02002" target-width="54.01999"
                    target-x="343.47" target-y="894.55"></path>
                <path
                    d="M 485.17 921.56 C 485.17 936.48 473.08 948.57 458.16 948.57 C 443.24 948.57 431.15 936.48 431.15 921.56 C 431.15 906.64 443.24 894.55 458.16 894.55 C 473.08 894.55 485.17 906.64 485.17 921.56 Z"
                    fill="#faf2e1" fill-opacity="0.5" fill-rule="nonzero" group-id="1,3,9,19,23"
                    node-id="276" stroke="none" target-height="54.02002" target-width="54.02002"
                    target-x="431.15" target-y="894.55"></path>
                <path
                    d="M 572.84 921.56 C 572.84 936.48 560.75 948.57 545.83 948.57 C 530.91 948.57 518.82 936.48 518.82 921.56 C 518.82 906.64 530.91 894.55 545.83 894.55 C 560.75 894.55 572.84 906.64 572.84 921.56 Z"
                    fill="#faf2e1" fill-opacity="0.5" fill-rule="nonzero" group-id="1,3,9,19,23"
                    node-id="278" stroke="none" target-height="54.02002" target-width="54.02002"
                    target-x="518.82" target-y="894.55"></path>
                <path
                    d="M 353.61 991.58 C 353.61 1006.50 341.52 1018.59 326.60 1018.59 C 311.68 1018.59 299.59 1006.50 299.59 991.58 C 299.59 976.66 311.68 964.57 326.60 964.57 C 341.52 964.57 353.61 976.66 353.61 991.58 Z"
                    fill="#faf2e1" fill-opacity="0.5" fill-rule="nonzero" group-id="1,3,9,19,24"
                    node-id="283" stroke="none" target-height="54.02002" target-width="54.01999"
                    target-x="299.59" target-y="964.57"></path>
                <path
                    d="M 441.29 991.58 C 441.29 1006.50 429.20 1018.59 414.28 1018.59 C 399.36 1018.59 387.27 1006.50 387.27 991.58 C 387.27 976.66 399.36 964.57 414.28 964.57 C 429.20 964.57 441.29 976.66 441.29 991.58 Z"
                    fill="#faf2e1" fill-opacity="0.5" fill-rule="nonzero" group-id="1,3,9,19,24"
                    node-id="285" stroke="none" target-height="54.02002" target-width="54.02002"
                    target-x="387.27" target-y="964.57"></path>
                <path
                    d="M 528.97 991.58 C 528.97 1006.50 516.88 1018.59 501.96 1018.59 C 487.04 1018.59 474.95 1006.50 474.95 991.58 C 474.95 976.66 487.04 964.57 501.96 964.57 C 516.88 964.57 528.97 976.66 528.97 991.58 Z"
                    fill="#faf2e1" fill-opacity="0.5" fill-rule="nonzero" group-id="1,3,9,19,24"
                    node-id="287" stroke="none" target-height="54.02002" target-width="54.01996"
                    target-x="474.95" target-y="964.57"></path>
                <path
                    d="M 616.64 991.58 C 616.64 1006.50 604.55 1018.59 589.63 1018.59 C 574.71 1018.59 562.62 1006.50 562.62 991.58 C 562.62 976.66 574.71 964.57 589.63 964.57 C 604.55 964.57 616.64 976.66 616.64 991.58 Z"
                    fill="#faf2e1" fill-opacity="0.5" fill-rule="nonzero" group-id="1,3,9,19,24"
                    node-id="289" stroke="none" target-height="54.02002" target-width="54.02002"
                    target-x="562.62" target-y="964.57"></path>
                <path
                    d="M 617.39 849.38 C 617.39 864.30 605.30 876.39 590.38 876.39 C 575.46 876.39 563.37 864.30 563.37 849.38 C 563.37 834.46 575.46 822.37 590.38 822.37 C 605.30 822.37 617.39 834.46 617.39 849.38 Z"
                    fill="#faf2e1" fill-opacity="0.5" fill-rule="nonzero" group-id="1,3,9,19,25"
                    node-id="294" stroke="none" target-height="54.02002" target-width="54.02002"
                    target-x="563.37" target-y="822.37"></path>
                <path
                    d="M 705.06 849.38 C 705.06 864.30 692.97 876.39 678.05 876.39 C 663.13 876.39 651.04 864.30 651.04 849.38 C 651.04 834.46 663.13 822.37 678.05 822.37 C 692.97 822.37 705.06 834.46 705.06 849.38 Z"
                    fill="#faf2e1" fill-opacity="0.5" fill-rule="nonzero" group-id="1,3,9,19,25"
                    node-id="296" stroke="none" target-height="54.02002" target-width="54.02002"
                    target-x="651.04" target-y="822.37"></path>
                <path
                    d="M 659.99 921.56 C 659.99 936.48 647.90 948.57 632.98 948.57 C 618.06 948.57 605.97 936.48 605.97 921.56 C 605.97 906.64 618.06 894.55 632.98 894.55 C 647.90 894.55 659.99 906.64 659.99 921.56 Z"
                    fill="#faf2e1" fill-opacity="0.5" fill-rule="nonzero" group-id="1,3,9,19,26"
                    node-id="301" stroke="none" target-height="54.02002" target-width="54.02002"
                    target-x="605.97" target-y="894.55"></path>
                <path
                    d="M 747.67 921.56 C 747.67 936.48 735.58 948.57 720.66 948.57 C 705.74 948.57 693.65 936.48 693.65 921.56 C 693.65 906.64 705.74 894.55 720.66 894.55 C 735.58 894.55 747.67 906.64 747.67 921.56 Z"
                    fill="#faf2e1" fill-opacity="0.5" fill-rule="nonzero" group-id="1,3,9,19,26"
                    node-id="303" stroke="none" target-height="54.02002" target-width="54.01996"
                    target-x="693.65" target-y="894.55"></path>
                <path
                    d="M 703.79 991.58 C 703.79 1006.50 691.70 1018.59 676.78 1018.59 C 661.86 1018.59 649.77 1006.50 649.77 991.58 C 649.77 976.66 661.86 964.57 676.78 964.57 C 691.70 964.57 703.79 976.66 703.79 991.58 Z"
                    fill="#faf2e1" fill-opacity="0.5" fill-rule="nonzero" group-id="1,3,9,19,27"
                    node-id="308" stroke="none" target-height="54.02002" target-width="54.01996"
                    target-x="649.77" target-y="964.57"></path>
                <path
                    d="M 791.47 991.58 C 791.47 1006.50 779.38 1018.59 764.46 1018.59 C 749.54 1018.59 737.45 1006.50 737.45 991.58 C 737.45 976.66 749.54 964.57 764.46 964.57 C 779.38 964.57 791.47 976.66 791.47 991.58 Z"
                    fill="#faf2e1" fill-opacity="0.5" fill-rule="nonzero" group-id="1,3,9,19,27"
                    node-id="310" stroke="none" target-height="54.02002" target-width="54.01996"
                    target-x="737.45" target-y="964.57"></path>
                <path
                    d="M 309.28 1063.25 C 309.28 1078.17 297.19 1090.26 282.27 1090.26 C 267.35 1090.26 255.26 1078.17 255.26 1063.25 C 255.26 1048.33 267.35 1036.24 282.27 1036.24 C 297.19 1036.24 309.28 1048.33 309.28 1063.25 Z"
                    fill="#faf2e1" fill-opacity="0.5" fill-rule="nonzero" group-id="1,3,9,19,28"
                    node-id="315" stroke="none" target-height="54.02002" target-width="54.020004"
                    target-x="255.26" target-y="1036.24"></path>
                <path
                    d="M 396.96 1063.25 C 396.96 1078.17 384.87 1090.26 369.95 1090.26 C 355.03 1090.26 342.94 1078.17 342.94 1063.25 C 342.94 1048.33 355.03 1036.24 369.95 1036.24 C 384.87 1036.24 396.96 1048.33 396.96 1063.25 Z"
                    fill="#faf2e1" fill-opacity="0.5" fill-rule="nonzero" group-id="1,3,9,19,28"
                    node-id="317" stroke="none" target-height="54.02002" target-width="54.01999"
                    target-x="342.94" target-y="1036.24"></path>
                <path
                    d="M 484.64 1063.25 C 484.64 1078.17 472.55 1090.26 457.63 1090.26 C 442.71 1090.26 430.62 1078.17 430.62 1063.25 C 430.62 1048.33 442.71 1036.24 457.63 1036.24 C 472.55 1036.24 484.64 1048.33 484.64 1063.25 Z"
                    fill="#faf2e1" fill-opacity="0.5" fill-rule="nonzero" group-id="1,3,9,19,28"
                    node-id="319" stroke="none" target-height="54.02002" target-width="54.02002"
                    target-x="430.62" target-y="1036.24"></path>
                <path
                    d="M 351.89 1135.42 C 351.89 1150.34 339.80 1162.43 324.88 1162.43 C 309.96 1162.43 297.87 1150.34 297.87 1135.42 C 297.87 1120.50 309.96 1108.41 324.88 1108.41 C 339.80 1108.41 351.89 1120.50 351.89 1135.42 Z"
                    fill="#faf2e1" fill-opacity="0.5" fill-rule="nonzero" group-id="1,3,9,19,29"
                    node-id="324" stroke="none" target-height="54.02002" target-width="54.02002"
                    target-x="297.87" target-y="1108.41"></path>
                <path
                    d="M 439.57 1135.42 C 439.57 1150.34 427.48 1162.43 412.56 1162.43 C 397.64 1162.43 385.55 1150.34 385.55 1135.42 C 385.55 1120.50 397.64 1108.41 412.56 1108.41 C 427.48 1108.41 439.57 1120.50 439.57 1135.42 Z"
                    fill="#faf2e1" fill-opacity="0.5" fill-rule="nonzero" group-id="1,3,9,19,29"
                    node-id="326" stroke="none" target-height="54.02002" target-width="54.02002"
                    target-x="385.55" target-y="1108.41"></path>
                <path
                    d="M 527.24 1135.42 C 527.24 1150.34 515.15 1162.43 500.23 1162.43 C 485.31 1162.43 473.22 1150.34 473.22 1135.42 C 473.22 1120.50 485.31 1108.41 500.23 1108.41 C 515.15 1108.41 527.24 1120.50 527.24 1135.42 Z"
                    fill="#faf2e1" fill-opacity="0.5" fill-rule="nonzero" group-id="1,3,9,19,29"
                    node-id="328" stroke="none" target-height="54.02002" target-width="54.01999"
                    target-x="473.22" target-y="1108.41"></path>
                <path
                    d="M 308.01 1205.45 C 308.01 1220.37 295.92 1232.46 281.00 1232.46 C 266.08 1232.46 253.99 1220.37 253.99 1205.45 C 253.99 1190.53 266.08 1178.44 281.00 1178.44 C 295.92 1178.44 308.01 1190.53 308.01 1205.45 Z"
                    fill="#faf2e1" fill-opacity="0.5" fill-rule="nonzero" group-id="1,3,9,19,30"
                    node-id="333" stroke="none" target-height="54.02002" target-width="54.020004"
                    target-x="253.99" target-y="1178.44"></path>
                <path
                    d="M 395.69 1205.45 C 395.69 1220.37 383.60 1232.46 368.68 1232.46 C 353.76 1232.46 341.67 1220.37 341.67 1205.45 C 341.67 1190.53 353.76 1178.44 368.68 1178.44 C 383.60 1178.44 395.69 1190.53 395.69 1205.45 Z"
                    fill="#faf2e1" fill-opacity="0.5" fill-rule="nonzero" group-id="1,3,9,19,30"
                    node-id="335" stroke="none" target-height="54.02002" target-width="54.01999"
                    target-x="341.67" target-y="1178.44"></path>
                <path
                    d="M 483.37 1205.45 C 483.37 1220.37 471.28 1232.46 456.36 1232.46 C 441.44 1232.46 429.35 1220.37 429.35 1205.45 C 429.35 1190.53 441.44 1178.44 456.36 1178.44 C 471.28 1178.44 483.37 1190.53 483.37 1205.45 Z"
                    fill="#faf2e1" fill-opacity="0.5" fill-rule="nonzero" group-id="1,3,9,19,30"
                    node-id="337" stroke="none" target-height="54.02002" target-width="54.01999"
                    target-x="429.35" target-y="1178.44"></path>
                <path
                    d="M 571.04 1205.45 C 571.04 1220.37 558.95 1232.46 544.03 1232.46 C 529.11 1232.46 517.02 1220.37 517.02 1205.45 C 517.02 1190.53 529.11 1178.44 544.03 1178.44 C 558.95 1178.44 571.04 1190.53 571.04 1205.45 Z"
                    fill="#faf2e1" fill-opacity="0.5" fill-rule="nonzero" group-id="1,3,9,19,30"
                    node-id="339" stroke="none" target-height="54.02002" target-width="54.01996"
                    target-x="517.02" target-y="1178.44"></path>
                <path
                    d="M 571.79 1063.25 C 571.79 1078.17 559.70 1090.26 544.78 1090.26 C 529.86 1090.26 517.77 1078.17 517.77 1063.25 C 517.77 1048.33 529.86 1036.24 544.78 1036.24 C 559.70 1036.24 571.79 1048.33 571.79 1063.25 Z"
                    fill="#faf2e1" fill-opacity="0.5" fill-rule="nonzero" group-id="1,3,9,19,31"
                    node-id="344" stroke="none" target-height="54.02002" target-width="54.01996"
                    target-x="517.77" target-y="1036.24"></path>
                <path
                    d="M 659.46 1063.25 C 659.46 1078.17 647.37 1090.26 632.45 1090.26 C 617.53 1090.26 605.44 1078.17 605.44 1063.25 C 605.44 1048.33 617.53 1036.24 632.45 1036.24 C 647.37 1036.24 659.46 1048.33 659.46 1063.25 Z"
                    fill="#faf2e1" fill-opacity="0.5" fill-rule="nonzero" group-id="1,3,9,19,31"
                    node-id="346" stroke="none" target-height="54.02002" target-width="54.02002"
                    target-x="605.44" target-y="1036.24"></path>
                <path
                    d="M 747.14 1063.25 C 747.14 1078.17 735.05 1090.26 720.13 1090.26 C 705.21 1090.26 693.12 1078.17 693.12 1063.25 C 693.12 1048.33 705.21 1036.24 720.13 1036.24 C 735.05 1036.24 747.14 1048.33 747.14 1063.25 Z"
                    fill="#faf2e1" fill-opacity="0.5" fill-rule="nonzero" group-id="1,3,9,19,31"
                    node-id="348" stroke="none" target-height="54.02002" target-width="54.02002"
                    target-x="693.12" target-y="1036.24"></path>
                <path
                    d="M 834.82 1063.25 C 834.82 1078.17 822.73 1090.26 807.81 1090.26 C 792.89 1090.26 780.80 1078.17 780.80 1063.25 C 780.80 1048.33 792.89 1036.24 807.81 1036.24 C 822.73 1036.24 834.82 1048.33 834.82 1063.25 Z"
                    fill="#faf2e1" fill-opacity="0.5" fill-rule="nonzero" group-id="1,3,9,19,31"
                    node-id="350" stroke="none" target-height="54.02002" target-width="54.02002"
                    target-x="780.8" target-y="1036.24"></path>
                <path
                    d="M 614.40 1135.42 C 614.40 1150.34 602.31 1162.43 587.39 1162.43 C 572.47 1162.43 560.38 1150.34 560.38 1135.42 C 560.38 1120.50 572.47 1108.41 587.39 1108.41 C 602.31 1108.41 614.40 1120.50 614.40 1135.42 Z"
                    fill="#faf2e1" fill-opacity="0.5" fill-rule="nonzero" group-id="1,3,9,19,32"
                    node-id="355" stroke="none" target-height="54.02002" target-width="54.02002"
                    target-x="560.38" target-y="1108.41"></path>
                <path
                    d="M 702.07 1135.42 C 702.07 1150.34 689.98 1162.43 675.06 1162.43 C 660.14 1162.43 648.05 1150.34 648.05 1135.42 C 648.05 1120.50 660.14 1108.41 675.06 1108.41 C 689.98 1108.41 702.07 1120.50 702.07 1135.42 Z"
                    fill="#faf2e1" fill-opacity="0.5" fill-rule="nonzero" group-id="1,3,9,19,32"
                    node-id="357" stroke="none" target-height="54.02002" target-width="54.02002"
                    target-x="648.05" target-y="1108.41"></path>
                <path
                    d="M 789.75 1135.42 C 789.75 1150.34 777.66 1162.43 762.74 1162.43 C 747.82 1162.43 735.73 1150.34 735.73 1135.42 C 735.73 1120.50 747.82 1108.41 762.74 1108.41 C 777.66 1108.41 789.75 1120.50 789.75 1135.42 Z"
                    fill="#faf2e1" fill-opacity="0.5" fill-rule="nonzero" group-id="1,3,9,19,32"
                    node-id="359" stroke="none" target-height="54.02002" target-width="54.02002"
                    target-x="735.73" target-y="1108.41"></path>
                <path
                    d="M 877.43 1135.42 C 877.43 1150.34 865.34 1162.43 850.42 1162.43 C 835.50 1162.43 823.41 1150.34 823.41 1135.42 C 823.41 1120.50 835.50 1108.41 850.42 1108.41 C 865.34 1108.41 877.43 1120.50 877.43 1135.42 Z"
                    fill="#faf2e1" fill-opacity="0.5" fill-rule="nonzero" group-id="1,3,9,19,32"
                    node-id="361" stroke="none" target-height="54.02002" target-width="54.02002"
                    target-x="823.41" target-y="1108.41"></path>
                <path
                    d="M 658.19 1205.45 C 658.19 1220.37 646.10 1232.46 631.18 1232.46 C 616.26 1232.46 604.17 1220.37 604.17 1205.45 C 604.17 1190.53 616.26 1178.44 631.18 1178.44 C 646.10 1178.44 658.19 1190.53 658.19 1205.45 Z"
                    fill="#faf2e1" fill-opacity="0.5" fill-rule="nonzero" group-id="1,3,9,19,33"
                    node-id="366" stroke="none" target-height="54.02002" target-width="54.02002"
                    target-x="604.17" target-y="1178.44"></path>
                <path
                    d="M 745.87 1205.45 C 745.87 1220.37 733.78 1232.46 718.86 1232.46 C 703.94 1232.46 691.85 1220.37 691.85 1205.45 C 691.85 1190.53 703.94 1178.44 718.86 1178.44 C 733.78 1178.44 745.87 1190.53 745.87 1205.45 Z"
                    fill="#faf2e1" fill-opacity="0.5" fill-rule="nonzero" group-id="1,3,9,19,33"
                    node-id="368" stroke="none" target-height="54.02002" target-width="54.02002"
                    target-x="691.85" target-y="1178.44"></path>
                <path
                    d="M 833.55 1205.45 C 833.55 1220.37 821.46 1232.46 806.54 1232.46 C 791.62 1232.46 779.53 1220.37 779.53 1205.45 C 779.53 1190.53 791.62 1178.44 806.54 1178.44 C 821.46 1178.44 833.55 1190.53 833.55 1205.45 Z"
                    fill="#faf2e1" fill-opacity="0.5" fill-rule="nonzero" group-id="1,3,9,19,33"
                    node-id="370" stroke="none" target-height="54.02002" target-width="54.01996"
                    target-x="779.53" target-y="1178.44"></path>
            </g>
            <path
                d="M 876.95 1156.81 C 876.66 1154.06 874.20 1152.06 871.46 1152.35 C 871.03 1152.39 827.99 1156.84 784.12 1158.30 C 702.47 1161.04 693.45 1151.15 692.47 1149.14 L 692.24 1148.66 L 691.91 1148.24 C 682.24 1135.85 669.02 1016.33 662.95 943.90 C 662.72 941.15 660.30 939.11 657.55 939.33 C 654.80 939.56 652.75 941.98 652.98 944.73 C 653.02 945.20 657.00 992.58 662.67 1041.57 C 663.59 1049.51 664.48 1056.88 665.34 1063.73 C 634.16 1025.97 624.97 975.98 624.88 975.44 C 624.40 972.72 621.80 970.91 619.09 971.39 C 616.37 971.87 614.56 974.46 615.04 977.18 C 615.49 979.70 626.40 1039.33 666.41 1079.82 C 666.76 1080.17 667.16 1080.44 667.57 1080.67 C 675.03 1135.31 680.22 1149.11 683.71 1153.96 C 687.55 1161.13 700.33 1168.77 757.25 1168.77 C 765.39 1168.77 774.44 1168.61 784.49 1168.28 C 828.70 1166.80 872.05 1162.32 872.48 1162.28 C 875.24 1162.02 877.23 1159.56 876.95 1156.81 Z"
                fill="#ffffff" fill-rule="nonzero" group-id="1,3" node-id="375" stroke="none"
                target-height="229.66003" target-width="262.66998" target-x="614.56"
                target-y="939.11"></path>
        </g>
    </g>
</svg>