<svg height="1200" node-id="1" sillyvg="true" template-height="1200" template-width="1200" version="1.1" viewBox="0 0 1200 1200" width="1200" xmlns="http://www.w3.org/2000/svg" xmlns:xlink="http://www.w3.org/1999/xlink"><defs node-id="58"><clipPath id="SVGID_2_" node-id="8"><path d="M 0.00 0.00 L 1200.00 0.00 L 1200.00 1200.00 L 0.00 1200.00 Z" fill="#000000" fill-rule="nonzero" node-id="61" stroke="none" target-height="1200" target-width="1200" target-x="0" target-y="0"></path></clipPath><clipPath id="SVGID_4_" node-id="16"><path d="M 336.02 318.35 L 214.94 100.25 L 213.46 96.90 L 212.63 93.53 L 212.42 90.10 L 212.80 86.68 L 213.72 83.45 L 215.21 80.34 L 217.20 77.55 L 219.69 75.12 L 222.72 73.05 L 240.20 63.35 L 243.56 61.87 L 246.93 61.05 L 250.35 60.84 L 253.77 61.21 L 257.01 62.14 L 260.11 63.63 L 262.91 65.62 L 265.33 68.10 L 267.40 71.13 L 383.64 280.49 L 336.02 318.35 Z" fill="#000000" fill-rule="nonzero" node-id="65" stroke="none" target-height="257.51" target-width="171.22002" target-x="212.42" target-y="60.84"></path></clipPath><clipPath id="SVGID_6_" node-id="22"><path d="M 768.99 915.76 L 1031.54 851.52 C 1040.46 849.34 1046.75 841.36 1046.79 832.18 L 1048.68 371.64 C 1048.70 365.88 1044.63 360.91 1038.97 359.81 L 495.21 254.10 C 487.09 252.52 478.68 253.50 471.14 256.90 L 147.94 398.54 C 143.56 400.46 140.74 404.80 140.76 409.58 L 142.65 849.44 C 142.69 859.40 150.05 867.80 159.91 869.17 L 369.14 898.06 L 730.81 924.06 L 768.99 915.76 Z" fill="#000000" fill-rule="nonzero" node-id="69" stroke="none" target-height="671.54" target-width="907.95996" target-x="140.74" target-y="252.52"></path></clipPath></defs><path d="M 0.00 0.00 L 1200.00 0.00 L 1200.00 1200.00 L 0.00 1200.00 Z" fill="#ededed" fill-rule="nonzero" node-id="73" stroke="none" target-height="1200" target-width="1200" target-x="0" target-y="0"></path><g node-id="184"><g node-id="185"><g clip-path="url(#SVGID_2_)" group-id="1,2" id="head_3_" node-id="10"><path d="M 149.32 392.86 C 147.35 393.74 145.57 391.31 147.01 389.70 L 255.70 268.62 C 258.11 265.94 261.78 264.76 265.30 265.54 L 372.32 289.22 C 374.13 289.71 374.33 292.21 372.61 292.98 L 149.32 392.86 Z" fill="#e84a2c" fill-rule="nonzero" group-id="1,2" node-id="78" stroke="none" target-height="128.97998" target-width="228.75998" target-x="145.57" target-y="264.76"></path><path d="M 1037.50 354.39 C 1039.70 354.84 1040.86 351.89 1038.94 350.72 L 891.18 260.56 C 884.93 256.67 878.03 253.96 870.80 252.57 L 386.12 159.27 C 384.04 158.87 382.85 161.55 384.53 162.83 C 384.53 162.83 450.00 215.93 471.78 233.93 C 477.54 238.55 484.56 240.70 496.65 243.35 C 584.34 261.36 966.88 339.90 1037.50 354.39 Z" fill="#f44f2e" fill-rule="nonzero" group-id="1,2" node-id="80" stroke="none" target-height="195.97" target-width="658.01" target-x="382.85" target-y="158.87"></path><g clip-path="url(#SVGID_4_)" group-id="1,2,4" node-id="84"><path d="M 252.97 55.53 L 311.06 40.49 L 419.05 457.51 L 360.96 472.55 Z" fill="#2e2725" fill-rule="nonzero" group-id="1,2,4,7" node-id="86" stroke="none" target-height="432.06" target-width="166.07999" target-x="252.97" target-y="40.49"></path></g><g clip-path="url(#SVGID_6_)" group-id="1,2,5,8" node-id="92"><path d="M 758.99 924.76 L 1044.81 858.02 C 1046.89 857.50 1048.73 845.80 1048.73 845.80 L 1048.73 360.70 L 495.21 253.10 C 487.09 251.52 478.68 252.50 471.14 255.90 L 140.73 400.70 L 140.73 875.80 L 371.15 904.07 L 758.99 924.76 Z" fill="#f44f2e" fill-rule="nonzero" group-id="1,2,5,8" node-id="94" stroke="none" target-height="673.24" target-width="908" target-x="140.73" target-y="251.52"></path></g><g clip-path="url(#SVGID_6_)" group-id="1,2,5,9" node-id="97"><path d="M 339.72 519.12 C 339.72 541.66 339.72 604.11 339.72 626.63 C 339.81 632.10 339.87 634.71 334.34 638.01 C 322.68 644.41 294.67 657.59 276.72 647.87 C 253.57 635.34 238.72 608.23 238.72 579.87 C 238.72 546.85 244.51 523.06 260.72 509.87 C 282.17 492.41 320.19 503.67 334.27 508.76 C 339.62 510.56 339.54 513.93 339.72 519.12 Z" fill="#fcde65" fill-rule="evenodd" group-id="1,2,5,9" node-id="99" stroke="none" target-height="165.18002" target-width="101.149994" target-x="238.72" target-y="492.41"></path></g><g clip-path="url(#SVGID_6_)" group-id="1,2,5,10" node-id="102"><path d="M 323.58 563.37 C 299.05 540.71 266.85 551.61 265.49 552.08 C 263.15 552.90 261.91 555.46 262.73 557.80 C 263.54 560.14 266.11 561.38 268.45 560.58 C 268.63 560.52 279.77 556.80 293.12 558.68 C 277.03 567.64 273.23 586.03 273.05 586.97 C 272.57 589.40 274.16 591.76 276.59 592.24 C 276.88 592.30 277.18 592.33 277.47 592.33 C 279.57 592.33 281.45 590.85 281.88 588.71 C 282.06 587.80 286.59 566.48 307.19 563.28 C 307.35 563.26 307.50 563.20 307.65 563.16 C 311.02 564.86 314.34 567.09 317.48 569.99 C 318.35 570.79 319.44 571.18 320.53 571.18 C 321.74 571.18 322.95 570.69 323.84 569.73 C 325.52 567.90 325.41 565.06 323.58 563.37 Z" fill="#cca033" fill-rule="nonzero" group-id="1,2,5,10" node-id="104" stroke="none" target-height="51.619995" target-width="63.609985" target-x="261.91" target-y="540.71"></path></g><g clip-path="url(#SVGID_6_)" group-id="1,2,5,11" node-id="107"><path d="M 947.15 464.71 L 644.84 407.76 C 601.14 399.53 560.72 433.04 560.72 477.51 L 560.72 543.67 C 560.72 582.68 588.49 616.16 626.82 623.38 L 674.25 632.31 C 678.98 633.20 682.40 637.33 682.40 642.14 L 682.40 671.88 C 682.40 701.20 703.31 726.34 732.13 731.69 L 837.77 751.31 C 867.70 756.87 895.33 733.90 895.33 703.46 L 895.33 686.01 C 895.33 679.75 901.02 675.02 907.18 676.18 L 924.63 679.47 C 962.08 686.53 996.73 657.80 996.73 619.68 L 996.73 524.48 C 996.72 495.24 975.90 470.12 947.15 464.71 Z" fill="#fffae6" fill-rule="evenodd" group-id="1,2,5,11" node-id="109" stroke="none" target-height="357.34" target-width="436.01" target-x="560.72" target-y="399.53"></path><path d="M 757.01 652.55 C 754.75 652.55 752.59 651.27 751.57 649.09 C 750.17 646.09 751.46 642.52 754.46 641.11 C 755.56 640.59 781.77 628.44 807.01 628.44 C 810.32 628.44 813.01 631.13 813.01 634.44 C 813.01 637.75 810.32 640.44 807.01 640.44 C 784.49 640.44 759.80 651.86 759.55 651.97 C 758.72 652.37 757.86 652.55 757.01 652.55 Z" fill="#e84a2c" fill-rule="nonzero" group-id="1,2,5,11,17" node-id="113" stroke="none" target-height="24.109985" target-width="62.840027" target-x="750.17" target-y="628.44"></path><path d="M 757.01 655.55 C 753.53 655.55 750.33 653.51 748.85 650.36 C 746.75 645.87 748.69 640.50 753.18 638.40 C 754.31 637.87 781.07 625.45 807.00 625.45 C 811.96 625.45 816.00 629.49 816.00 634.45 C 816.00 639.41 811.96 643.45 807.00 643.45 C 785.19 643.45 761.06 654.59 760.82 654.70 C 759.61 655.26 758.33 655.55 757.01 655.55 Z" fill="#e84a2c" fill-rule="nonzero" group-id="1,2,5,11,17" node-id="115" stroke="none" target-height="30.099976" target-width="69.25" target-x="746.75" target-y="625.45"></path><path d="M 797.48 603.93 L 821.13 575.35 C 823.70 572.14 821.58 567.64 817.20 567.01 L 769.90 559.25 C 764.91 558.53 761.22 563.28 763.75 567.17 L 787.40 603.52 C 789.57 606.87 794.95 607.10 797.48 603.93 Z" fill="#2e2725" fill-rule="nonzero" group-id="1,2,5,11" node-id="118" stroke="none" target-height="48.569946" target-width="62.48004" target-x="761.22" target-y="558.53"></path><path d="M 646.00 556.00 C 629.43 556.00 616.00 542.57 616.00 526.00 L 616.00 504.00 C 616.00 487.43 629.43 474.00 646.00 474.00 C 662.57 474.00 676.00 487.43 676.00 504.00 L 676.00 526.00 C 676.00 542.57 662.57 556.00 646.00 556.00 Z" fill="#2e2725" fill-rule="nonzero" group-id="1,2,5,11" node-id="120" stroke="none" target-height="82" target-width="60" target-x="616" target-y="474"></path><path d="M 921.00 608.00 C 904.98 608.00 892.00 595.02 892.00 579.00 L 892.00 557.00 C 892.00 540.98 904.98 528.00 921.00 528.00 C 937.02 528.00 950.00 540.98 950.00 557.00 L 950.00 579.00 C 950.00 595.02 937.02 608.00 921.00 608.00 Z" fill="#2e2725" fill-rule="nonzero" group-id="1,2,5,11" node-id="122" stroke="none" target-height="80" target-width="58" target-x="892" target-y="528"></path></g><g clip-path="url(#SVGID_6_)" group-id="1,2,5,12" node-id="125"><path d="M 280.04 382.58 L 280.04 421.70 C 280.04 423.13 281.48 424.11 282.82 423.59 L 312.13 412.01 C 312.90 411.70 313.41 410.96 313.41 410.12 L 313.41 370.11 C 313.41 368.65 311.92 367.67 310.58 368.24 L 281.27 380.72 C 280.53 381.04 280.04 381.77 280.04 382.58 Z" fill="#ffffff" fill-opacity="0.8" fill-rule="evenodd" group-id="1,2,5,12" node-id="127" stroke="none" target-height="56.439972" target-width="33.369995" target-x="280.04" target-y="367.67"></path><path d="M 230.80 444.15 L 260.13 432.56 C 260.90 432.26 261.41 431.51 261.41 430.68 L 261.41 392.23 C 261.41 390.78 259.93 389.81 258.60 390.37 L 229.27 402.86 C 228.53 403.18 228.04 403.91 228.04 404.72 L 228.04 442.28 C 228.04 443.70 229.48 444.68 230.80 444.15 Z" fill="#ffffff" fill-opacity="0.8" fill-rule="evenodd" group-id="1,2,5,12" node-id="129" stroke="none" target-height="54.869995" target-width="33.37001" target-x="228.04" target-y="389.81"></path><path d="M 179.79 464.31 L 209.14 452.71 C 209.91 452.41 210.41 451.67 210.41 450.84 L 210.41 413.92 C 210.41 412.48 208.94 411.51 207.61 412.07 L 178.26 424.56 C 177.52 424.88 177.04 425.60 177.04 426.41 L 177.04 462.43 C 177.04 463.86 178.47 464.84 179.79 464.31 Z" fill="#ffffff" fill-opacity="0.8" fill-rule="evenodd" group-id="1,2,5,12" node-id="131" stroke="none" target-height="53.329987" target-width="33.37001" target-x="177.04" target-y="411.51"></path></g><g clip-path="url(#SVGID_6_)" group-id="1,2,5,13" node-id="134"><path d="M 247.46 707.94 C 247.06 707.94 246.66 707.89 246.26 707.78 C 218.54 700.13 206.63 678.70 206.14 677.79 C 204.95 675.61 205.76 672.87 207.95 671.69 C 210.13 670.50 212.87 671.31 214.05 673.50 C 214.15 673.68 224.75 692.51 248.65 699.10 C 251.05 699.76 252.45 702.24 251.79 704.63 C 251.25 706.63 249.44 707.94 247.46 707.94 Z" fill="#ffffff" fill-rule="nonzero" group-id="1,2,5,13" node-id="136" stroke="none" target-height="37.440002" target-width="47.5" target-x="204.95" target-y="670.5"></path></g><g clip-path="url(#SVGID_6_)" group-id="1,2,5,14" node-id="139"><path d="M 269.70 688.06 C 269.35 688.06 269.00 688.02 268.65 687.94 C 224.15 677.34 213.07 636.66 212.62 634.93 C 211.99 632.53 213.43 630.07 215.84 629.44 C 218.25 628.81 220.70 630.25 221.33 632.66 C 221.73 634.17 231.61 669.86 270.74 679.18 C 273.16 679.76 274.65 682.18 274.07 684.60 C 273.58 686.67 271.73 688.06 269.70 688.06 Z" fill="#ffffff" fill-rule="nonzero" group-id="1,2,5,14" node-id="141" stroke="none" target-height="59.25" target-width="62.65999" target-x="211.99" target-y="628.81"></path></g><g clip-path="url(#SVGID_6_)" group-id="1,2,5,15" node-id="144"><path d="M 483.98 698.86 C 481.49 698.86 479.48 696.85 479.48 694.36 L 479.48 284.25 C 479.48 281.76 481.49 279.75 483.98 279.75 C 486.47 279.75 488.48 281.76 488.48 284.25 L 488.48 694.36 C 488.48 696.84 486.46 698.86 483.98 698.86 Z" fill="#ffffff" fill-opacity="0.9" fill-rule="nonzero" group-id="1,2,5,15" node-id="146" stroke="none" target-height="419.11" target-width="9" target-x="479.48" target-y="279.75"></path></g><g clip-path="url(#SVGID_6_)" group-id="1,2,5,16" node-id="149"><path d="M 382.87 901.77 L 158.30 870.14 C 152.11 869.27 151.21 860.70 157.09 858.56 L 468.35 745.38 C 478.36 741.72 489.16 740.82 499.64 742.76 L 1032.27 840.73 C 1038.48 841.87 1038.94 850.59 1032.89 852.38 L 1003.68 861.02 L 737.83 926.26 L 382.87 901.77 Z" fill="#1d0b09" fill-opacity="0.25" fill-rule="nonzero" group-id="1,2,5,16" node-id="151" stroke="none" target-height="185.44" target-width="887.7299" target-x="151.21" target-y="740.82"></path></g><path d="M 579.86 196.31 L 687.78 285.79 C 690.02 287.69 691.31 290.48 691.31 293.42 L 693.31 441.27 C 693.31 444.46 696.86 446.36 699.52 444.61 L 738.84 418.61 C 740.50 417.51 742.71 417.80 744.03 419.28 L 781.27 460.96 C 782.66 462.51 785.00 462.74 786.67 461.49 L 822.13 434.68 C 823.65 433.53 825.76 433.61 827.18 434.87 L 875.69 477.53 C 878.34 479.86 882.48 477.87 882.33 474.35 L 876.93 328.32 C 876.80 325.40 875.41 322.68 873.10 320.88 L 755.49 231.54 C 753.02 229.66 750.14 228.39 747.09 227.81 L 579.86 196.31 Z" fill="#fcde65" fill-rule="nonzero" group-id="1,2" node-id="155" stroke="none" target-height="283.55" target-width="302.62" target-x="579.86" target-y="196.31"></path><path d="M 1053.74 457.37 L 855.31 422.68 C 846.29 421.10 838.12 416.38 832.26 409.35 L 832.26 409.35 C 826.44 402.38 823.26 393.58 823.28 384.50 L 823.40 309.99 C 823.42 299.22 828.27 289.02 836.61 282.21 L 836.61 282.21 C 844.96 275.40 855.92 272.69 866.48 274.83 L 913.69 284.40 C 922.52 286.19 930.45 290.98 936.15 297.95 L 936.15 297.95 C 941.85 304.92 944.96 313.65 944.96 322.66 L 944.96 353.17 C 944.96 358.43 940.89 362.79 935.64 363.15 L 903.10 365.37 C 901.94 365.45 900.96 364.53 900.96 363.37 L 900.96 330.00 C 900.96 328.10 899.62 326.46 897.75 326.08 L 872.16 320.89 C 869.68 320.39 867.37 322.28 867.37 324.80 L 867.29 376.88 C 867.29 378.82 868.67 380.48 870.58 380.82 L 1055.81 414.28 C 1057.74 414.63 1059.14 416.33 1059.10 418.29 L 1058.43 453.51 C 1058.38 455.96 1056.16 457.79 1053.74 457.37 Z" fill="#2e2725" fill-rule="nonzero" group-id="1,2" node-id="157" stroke="none" target-height="185.1" target-width="235.88" target-x="823.26" target-y="272.69"></path><path d="M 135.38 498.96 L 134.80 468.90 C 134.72 464.82 137.14 461.10 140.90 459.50 L 475.00 317.90 C 478.84 316.27 482.90 315.22 487.05 314.78 L 487.05 314.78 C 491.07 314.35 495.14 314.50 499.12 315.21 L 705.04 352.41 C 707.49 352.85 709.74 350.98 709.75 348.49 L 710.00 290.37 C 710.01 288.46 708.66 286.81 706.79 286.43 L 680.98 281.25 C 678.50 280.75 676.19 282.65 676.19 285.17 L 676.19 323.00 C 676.19 324.42 674.75 325.39 673.43 324.85 L 642.13 312.05 C 636.12 309.59 632.19 303.74 632.19 297.24 L 632.19 270.45 C 632.19 259.68 637.02 249.47 645.36 242.65 L 645.36 242.65 C 653.69 235.82 664.65 233.10 675.21 235.22 L 722.72 244.76 C 731.58 246.54 739.55 251.34 745.26 258.34 L 745.26 258.34 C 750.97 265.34 754.07 274.11 754.03 283.15 L 753.69 362.81 C 753.64 373.49 748.88 383.61 740.66 390.44 L 740.66 390.44 C 732.45 397.27 721.63 400.12 711.12 398.22 L 497.39 359.61 C 493.64 358.93 489.77 359.34 486.24 360.79 L 140.90 502.58 C 138.30 503.65 135.43 501.77 135.38 498.96 Z" fill="#2e2725" fill-rule="nonzero" group-id="1,2" node-id="159" stroke="none" target-height="270.55" target-width="619.35" target-x="134.72" target-y="233.1"></path><path d="M 212.31 499.89 C 210.25 499.89 208.18 499.26 206.39 497.95 L 177.80 476.93 C 173.35 473.66 172.40 467.40 175.67 462.95 C 178.94 458.50 185.20 457.55 189.65 460.82 L 218.24 481.84 C 222.69 485.11 223.64 491.37 220.37 495.82 C 218.42 498.48 215.39 499.89 212.31 499.89 Z" fill="#fcd514" fill-rule="nonzero" group-id="1,2,6" node-id="163" stroke="none" target-height="42.340027" target-width="51.240005" target-x="172.4" target-y="457.55"></path><path d="M 186.37 536.89 C 185.21 536.89 184.03 536.69 182.88 536.26 L 118.83 512.38 C 113.66 510.45 111.02 504.69 112.95 499.52 C 114.88 494.35 120.64 491.71 125.81 493.64 L 189.86 517.52 C 195.03 519.45 197.67 525.21 195.74 530.38 C 194.24 534.40 190.42 536.89 186.37 536.89 Z" fill="#fcd514" fill-rule="nonzero" group-id="1,2,6" node-id="165" stroke="none" target-height="45.180023" target-width="86.65" target-x="111.02" target-y="491.71"></path><path d="M 128.04 589.31 C 123.25 589.31 119.01 585.85 118.19 580.97 C 117.27 575.52 120.95 570.37 126.39 569.45 L 181.59 560.16 C 187.03 559.24 192.19 562.91 193.11 568.36 C 194.03 573.81 190.35 578.96 184.91 579.88 L 129.71 589.17 C 129.15 589.27 128.59 589.31 128.04 589.31 Z" fill="#fcd514" fill-rule="nonzero" group-id="1,2,6" node-id="167" stroke="none" target-height="30.070007" target-width="76.76" target-x="117.27" target-y="559.24"></path></g></g><g clip-path="url(#SVGID_2_)" group-id="1,3" id="body_3_" node-id="50"><path d="M 785.72 942.87 C 785.72 942.87 807.73 917.61 882.72 924.87 C 941.96 930.60 968.14 929.77 976.52 929.17 C 978.02 929.06 979.10 930.59 978.49 931.96 C 973.58 943.10 952.59 980.66 891.72 984.86 C 820.15 989.80 777.72 959.86 777.72 959.86 L 785.72 942.87 Z" fill="#2e72fa" fill-rule="evenodd" group-id="1,3" node-id="172" stroke="none" target-height="72.19" target-width="201.38" target-x="777.72" target-y="917.61"></path><path d="M 748.72 925.87 C 748.72 925.87 811.55 919.15 845.58 952.87 C 879.61 986.59 911.86 1061.86 920.47 1069.87 C 927.60 1076.50 862.92 1081.38 802.64 1015.87 C 742.36 950.36 748.72 925.87 748.72 925.87 Z" fill="#2697fa" fill-rule="evenodd" group-id="1,3" node-id="174" stroke="none" target-height="162.22998" target-width="185.23999" target-x="742.36" target-y="919.15"></path><path d="M 737.73 1159.86 L 742.72 1209.87 L 827.72 1209.87 L 821.73 1157.86 Z" fill="#feda84" fill-rule="nonzero" group-id="1,3" node-id="176" stroke="none" target-height="52.01001" target-width="89.98999" target-x="737.73" target-y="1157.86"></path><path d="M 738.72 1160.86 L 743.22 1209.87 L 272.72 1209.87 C 272.72 1209.87 258.57 825.79 529.72 825.79 C 642.01 825.79 721.61 868.29 773.44 927.25 C 858.23 1023.71 871.72 1160.85 871.72 1160.85 L 692.72 1160.85 L 738.72 1160.86 Z" fill="#1f1e1b" fill-rule="nonzero" group-id="1,3" node-id="178" stroke="none" target-height="384.08002" target-width="613.14996" target-x="258.57" target-y="825.79"></path><path d="M 876.45 1156.86 C 876.19 1154.39 873.98 1152.60 871.51 1152.85 C 871.08 1152.89 828.28 1157.34 784.64 1158.81 C 759.12 1159.67 738.34 1159.36 722.88 1157.88 C 697.86 1155.50 693.70 1150.76 693.02 1149.36 L 692.81 1148.93 L 692.52 1148.55 C 690.09 1145.43 683.33 1128.67 673.12 1040.50 C 667.47 991.66 663.49 944.41 663.45 943.94 C 663.24 941.46 661.06 939.61 658.59 939.83 C 656.11 940.04 654.27 942.21 654.48 944.69 C 654.52 945.16 658.50 992.53 664.17 1041.52 C 665.17 1050.13 666.13 1058.06 667.06 1065.38 C 634.91 1027.37 625.49 976.09 625.39 975.54 C 624.96 973.09 622.62 971.46 620.17 971.90 C 617.72 972.33 616.09 974.67 616.52 977.11 C 616.96 979.62 627.85 1039.10 667.75 1079.49 C 668.13 1079.87 668.57 1080.16 669.03 1080.38 C 677.45 1141.80 682.92 1150.83 685.14 1153.76 C 688.90 1160.65 700.65 1164.81 722.02 1166.84 C 732.08 1167.80 744.27 1168.28 758.46 1168.28 C 766.64 1168.28 775.48 1168.12 784.95 1167.80 C 828.90 1166.32 871.98 1161.85 872.41 1161.80 C 874.92 1161.55 876.71 1159.33 876.45 1156.86 Z" fill="#ffffff" fill-rule="nonzero" group-id="1,3" node-id="180" stroke="none" target-height="228.67004" target-width="260.62" target-x="616.09" target-y="939.61"></path><path d="M 692.43 858.12 C 695.94 860.34 694.19 864.77 690.04 864.50 C 658.26 862.40 568.94 862.52 500.13 906.29 C 469.27 925.92 345.69 1009.74 355.86 963.77 C 359.67 946.55 349.60 926.70 348.71 904.84 C 348.16 891.45 354.18 877.92 359.75 871.62 C 388.05 839.61 456.54 811.00 537.50 816.88 C 625.84 823.29 672.58 845.58 692.43 858.12 Z" fill="#2697fa" fill-rule="evenodd" group-id="1,3" node-id="182" stroke="none" target-height="198.73999" target-width="350.25" target-x="345.69" target-y="811"></path></g></g></svg>