<svg xml:space="preserve" style="enable-background:new 0 0 1200 1200;" viewBox="0 0 1200 1200" y="0px" x="0px" xmlns:xlink="http://www.w3.org/1999/xlink" xmlns="http://www.w3.org/2000/svg" id="丧小野" version="1.1">
<style type="text/css">
	.st0{fill:#CBF5D9;}
	.st1{clip-path:url(#SVGID_2_);}
	.st2{fill:#31A369;}
	.st3{fill:#FAB2B8;}
	.st4{fill:#E38D91;}
	.st5{fill:#35B374;}
	.st6{opacity:0.5;fill:#37B374;}
	.st7{clip-path:url(#SVGID_4_);fill:#37B374;}
	.st8{opacity:0.3;clip-path:url(#SVGID_4_);fill:#1F4D31;}
	.st9{opacity:0.36;clip-path:url(#SVGID_4_);fill:#374F3A;}
	.st10{opacity:0.36;clip-path:url(#SVGID_4_);fill:#332F2E;}
	.st11{opacity:0.4;clip-path:url(#SVGID_4_);fill:#374F3A;}
	.st12{clip-path:url(#SVGID_4_);fill:#222E24;}
	.st13{opacity:0.8;}
	.st14{fill-rule:evenodd;clip-rule:evenodd;fill:#FFFFFF;}
	.st15{fill:#C7A168;}
	.st16{opacity:0.9;fill:#FFFFFF;}
	.st17{fill:#37B374;}
	.st18{fill:#755E4A;}
	.st19{fill:#FFFFFF;}
	.st20{fill:#35B371;}
</style>
<rect height="1200" width="1200" class="st0"></rect>
<g>
	<defs>
		<rect height="1200" width="1200" id="SVGID_1_"></rect>
	</defs>
	<clipPath id="SVGID_2_">
		<use style="overflow:visible;" xlink:href="#SVGID_1_"></use>
	</clipPath>
	<g class="st1" id="head_5_">
		<path d="M148.32,392.86c-1.97,0.88-3.75-1.55-2.31-3.16L258.6,264.27c2.53-2.81,6.42-3.96,10.07-2.97l102.65,27.91
			c1.81,0.49,2.01,2.99,0.29,3.76L148.32,392.86z" class="st2"></path>
		<path d="M953.49,336.82c0,0,1.88-2.8,2.75-4.75c6.17-13.98,9.49-29.5,9.2-45.83
			c-1.03-57.86-47.92-105.15-105.77-106.63c-26.42-0.68-50.78,8.08-69.95,23.15c-0.28-0.7-0.55-1.39-0.84-2.09
			c-25.33-60.73-86.21-103.52-157.29-103.52c-45.23,0-82.13,15.61-112.29,43.77c-1.66,1.55-1.72,4.16-0.11,5.76
			c20.83,20.83,32.84,49.31,32.84,79.76c-0.03,0.56-0.12,2.21-0.12,2.21l-6.92-0.55c0,0-0.02-0.69-0.04-1.03
			c-1.19-30.06-14.17-57.19-34.6-77.24c-21.89-21.47-52.35-34.78-86.02-34.78c-54.35,0-100.32,34.69-115.44,82.39
			c-0.73,2.31-1.39,4.65-1.98,7.01c-0.1,0.39-0.18,0.79-0.27,1.18c-2.69-0.68-5.45-1.19-8.27-1.51c-2.37-0.27-4.79-0.41-7.24-0.41
			c-33.98,0-61.52,26.65-61.52,59.52s27.54,59.52,61.52,59.52c13.45,0,26.88-5.76,37.01-10.26c0.77-0.34,115.92-52.43,148.99-67.46
			c5.77-2.62,10.22-3.35,16.42-2.08L953.49,336.82z" class="st3"></path>
		<g>
			<path d="M276.29,255.33c-2.49,0-4.5-2.01-4.5-4.5c0-35.1,29.45-63.66,65.64-63.66c2.49,0,4.5,2.01,4.5,4.5
				s-2.01,4.5-4.5,4.5c-31.23,0-56.64,24.52-56.64,54.66C280.79,253.31,278.78,255.33,276.29,255.33z" class="st4"></path>
			<path d="M760.44,189.67c-8.65,0-16.92,1.64-24.5,4.58c-8.72-8.61-15.86-18.53-21.22-29.56
				c-1.09-2.23-3.78-3.16-6.02-2.08c-2.23,1.09-3.17,3.78-2.08,6.02c5.34,10.97,12.3,20.91,20.72,29.69
				c-19.73,11.11-33.04,31.83-33.04,55.51c0,2.76,2.24,5,5,5s5-2.24,5-5c0-21.37,12.9-39.89,31.59-48.69c0.08,0,0.17,0.02,0.25,0.02
				c1.22,0,2.44-0.5,3.33-1.47c0.03-0.04,0.05-0.08,0.09-0.12c6.46-2.51,13.51-3.9,20.89-3.9c2.76,0,5-2.24,5-5
				S763.2,189.67,760.44,189.67z" class="st4"></path>
			<path d="M459.38,202.83c-20.61-3.63-35.96-20.23-37.33-40.36c-0.02-0.28-0.08-0.55-0.14-0.82
				c0.14-3.67-0.1-7.38-0.75-11.09c-0.48-2.72-3.07-4.54-5.79-4.06c-2.72,0.48-4.54,3.07-4.06,5.79c2.01,11.38-0.69,22.9-7.61,32.43
				c-6.95,9.58-17.31,16.01-29.18,18.1c-2.72,0.48-4.54,3.07-4.06,5.79c0.43,2.43,2.54,4.13,4.92,4.13c0.29,0,0.58-0.03,0.87-0.08
				c14.44-2.55,27.06-10.39,35.54-22.08c2.01-2.77,3.71-5.67,5.13-8.68c7.37,15.75,22.33,27.52,40.71,30.76
				c0.29,0.05,0.59,0.08,0.87,0.08c2.38,0,4.49-1.71,4.92-4.13C463.92,205.9,462.1,203.31,459.38,202.83z" class="st4"></path>
			<path d="M387.35,259.99c-0.48-2.72-3.07-4.53-5.79-4.06c-18.42,3.24-36.68-6.53-43.42-23.24
				c-0.04-0.11-0.11-0.2-0.16-0.3c-0.97-2.83-2.21-5.61-3.75-8.29c-1.38-2.39-4.44-3.21-6.83-1.83c-2.39,1.38-3.21,4.44-1.83,6.83
				c10.5,18.18,3.68,41.84-15.19,52.73c-2.39,1.38-3.21,4.44-1.83,6.83c0.93,1.6,2.61,2.5,4.33,2.5c0.85,0,1.71-0.22,2.5-0.67
				c14.34-8.28,23.08-22.49,24.79-37.52c9.06,8.57,21.37,13.57,34.33,13.57c2.91,0,5.85-0.25,8.79-0.77
				C386.02,265.3,387.83,262.71,387.35,259.99z" class="st4"></path>
			<path d="M897.6,225.34c-14.88-5.42-23.67-20.72-20.44-35.6c0.08-0.39,0.11-0.78,0.1-1.16
				c0.18-1.51,0.28-3.04,0.28-4.59c0-2.76-2.24-5-5-5s-5,2.24-5,5c0,16.79-14.2,30.46-31.65,30.46c-2.76,0-5,2.24-5,5s2.24,5,5,5
				c13.3,0,25.16-6.1,32.79-15.56c3.97,11.57,13.12,21.33,25.5,25.84c0.56,0.21,1.14,0.3,1.71,0.3c2.04,0,3.96-1.26,4.7-3.29
				C901.53,229.15,900.19,226.28,897.6,225.34z" class="st4"></path>
			<path d="M622.58,125.38c-2.74-0.25-5.18,1.79-5.42,4.54c-0.24,2.75,1.79,5.18,4.55,5.42
				c8.73,0.76,16.79,3.55,23.8,7.83c-3.04,12.06-8.22,23.39-15.45,33.71c-1.58,2.26-1.03,5.38,1.23,6.96
				c0.87,0.61,1.87,0.9,2.86,0.9c1.58,0,3.13-0.74,4.1-2.13c7.12-10.16,12.43-21.22,15.85-32.95
				c12.12,11.16,19.14,27.61,17.59,45.26c-0.24,2.75,1.79,5.18,4.55,5.42c0.15,0.01,0.29,0.02,0.44,0.02c2.56,0,4.75-1.96,4.98-4.56
				C684.8,160.1,658.29,128.51,622.58,125.38z" class="st4"></path>
			<path d="M410.3,226.01c-2.04,0-3.96-1.26-4.7-3.29c-0.94-2.59,0.39-5.46,2.99-6.41c19.73-7.18,41.14-7.78,63.63-1.79
				c2.67,0.71,4.25,3.45,3.54,6.12c-0.71,2.67-3.44,4.25-6.12,3.54c-20.48-5.46-39.87-4.94-57.64,1.52
				C411.44,225.92,410.87,226.01,410.3,226.01z" class="st4"></path>
		</g>
		<path d="M1036.5,354.39c2.2,0.45,3.36-2.5,1.44-3.67l-147.76-90.16c-6.25-3.89-13.15-6.6-20.38-7.99l-484.68-93.3
			c-2.08-0.4-3.27,2.28-1.59,3.56c0,0,65.47,53.1,87.25,71.1c5.76,4.62,12.78,6.77,24.87,9.42
			C583.34,261.36,965.88,339.9,1036.5,354.39z" class="st5"></path>
		<path d="M1099.3,514.57c58.43,1.58,60.7,66.02,60.7,108.91c0,42.89-23.79,87.63-95.52,90.63
			c-7.17,0.3-15.3,0.45-24.15,0.45c-79.95,0-219.54-12.55-257.18-43.07c-8.76-9.31-1.67-21.78,11.17-22.42
			c43.45-2.17,168.86-2.17,202.74-25.73s39.82-44.17,51.42-74.2C1056.53,528.31,1076.76,514.57,1099.3,514.57 M1099.46,502.57h-0.16
			c-13.48,0-26.48,3.99-37.59,11.55c-11.15,7.58-19.59,18.2-24.42,30.7c-0.83,2.16-1.64,4.27-2.43,6.34
			c-9.78,25.63-16.24,42.56-44.65,62.33c-7.37,5.13-26.08,12.27-73.33,17.12c-33.53,3.44-70.58,4.65-97.63,5.53
			c-10.04,0.33-18.71,0.61-25.52,0.95c-11.19,0.56-20.89,7.06-24.72,16.56c-3.59,8.9-1.57,18.64,5.41,26.06l0.56,0.59l0.63,0.51
			c18.72,15.17,58.62,27.13,118.62,35.54c45.59,6.39,100.21,10.21,146.12,10.21c8.99,0,17.29-0.16,24.65-0.46
			c36.4-1.52,64.37-13.1,83.16-34.41c15.61-17.71,23.86-41.3,23.86-68.21c0-23.62-0.71-50.78-9.16-74.05
			c-5.01-13.78-12.34-24.71-21.78-32.48c-11.06-9.1-25-13.94-41.44-14.38L1099.46,502.57L1099.46,502.57z" class="st6"></path>
		<g>
			<defs>
				<path d="M767.99,915.76l262.55-64.24c8.92-2.18,15.21-10.16,15.25-19.34l1.89-460.54
					c0.02-5.76-4.05-10.73-9.71-11.83L494.21,254.1c-8.12-1.58-16.53-0.6-24.07,2.8L146.94,398.54c-4.38,1.92-7.2,6.26-7.18,11.04
					l1.89,439.86c0.04,9.96,7.4,18.36,17.26,19.73l209.23,28.89l361.67,26L767.99,915.76z" id="SVGID_3_"></path>
			</defs>
			<clipPath id="SVGID_4_">
				<use style="overflow:visible;" xlink:href="#SVGID_3_"></use>
			</clipPath>
			<path d="M767.99,915.76l262.55-64.24c8.92-2.18,15.21-10.16,15.25-19.34l1.89-460.54
				c0.02-5.76-4.05-10.73-9.71-11.83L494.21,254.1c-8.12-1.58-16.53-0.6-24.07,2.8L146.94,398.54c-4.38,1.92-7.2,6.26-7.18,11.04
				l1.89,439.86c0.04,9.96,7.4,18.36,17.26,19.73l209.23,28.89l361.67,26L767.99,915.76z" class="st7"></path>
			<path d="M381.87,901.77L157.3,870.14c-6.19-0.87-7.09-9.44-1.21-11.58l311.26-113.18
				c10.01-3.66,20.81-4.56,31.29-2.62l532.63,97.97c6.21,1.14,6.67,9.86,0.62,11.65l-29.21,8.64l-265.85,65.24L381.87,901.77z" class="st8"></path>
			<path d="M593,696c-4.42,0-8-3.58-8-8v-75.1c0-14.81-6.34-28.96-17.4-38.82l-25.92-23.1c-3.3-2.94-3.59-8-0.65-11.3
				c2.94-3.3,8-3.59,11.29-0.65l25.92,23.1C592.71,575.02,601,593.52,601,612.9V688C601,692.42,597.42,696,593,696z" class="st9"></path>
			<path d="M957,778c-4.42,0-8-3.58-8-8v-75.1c0-19.37,8.29-37.87,22.75-50.76l25.92-23.1
				c3.3-2.94,8.36-2.65,11.29,0.65c2.94,3.3,2.65,8.36-0.65,11.3l-25.92,23.1c-11.06,9.86-17.4,24.01-17.4,38.82V770
				C965,774.42,961.42,778,957,778z" class="st9"></path>
			<path d="M805,604c-5.52,0-10-4.48-10-10v-14c0-5.52,4.48-10,10-10s10,4.48,10,10v14C815,599.52,810.52,604,805,604z" class="st10"></path>
			<path d="M765,598c-5.52,0-10-4.48-10-10v-12c0-5.52,4.48-10,10-10s10,4.48,10,10v12C775,593.52,770.52,598,765,598z" class="st10"></path>
			<path d="M1059.63,483.01c-11.69-10.25-22.08-20.84-31.3-31.42l9.87-8.15c2.34-1.93,2.67-5.4,0.74-7.74
				c-1.94-2.34-5.4-2.67-7.74-0.74l-9.95,8.22c-4.42-5.41-8.54-10.79-12.37-16.09l10.35-6.62c2.56-1.64,3.3-5.04,1.67-7.6
				c-1.64-2.56-5.04-3.31-7.6-1.67l-10.73,6.87c-3.76-5.56-7.19-10.99-10.34-16.25l11.66-5.62c2.74-1.32,3.89-4.6,2.57-7.34
				c-1.32-2.74-4.6-3.89-7.34-2.57l-12.41,5.97c-2.87-5.16-5.44-10.09-7.73-14.73l12.14-4.5c2.85-1.06,4.3-4.22,3.25-7.07
				c-1.05-2.85-4.22-4.3-7.07-3.25l-13.04,4.83c-7.97-17.62-11.2-29.07-11.3-29.41c-0.8-2.93-3.82-4.66-6.75-3.86
				c-2.93,0.8-4.66,3.82-3.86,6.75c0.17,0.64,3.4,12.32,11.5,30.38l-9.75,3.61c-2.85,1.06-4.3,4.22-3.25,7.07
				c0.82,2.22,2.92,3.59,5.16,3.59c0.63,0,1.28-0.11,1.91-0.34l10.61-3.93c1.47,3.01,3.05,6.13,4.76,9.38
				c1.07,2.03,2.21,4.13,3.41,6.3l-10.79,5.19c-2.74,1.32-3.89,4.6-2.57,7.34c0.95,1.97,2.91,3.12,4.96,3.12
				c0.8,0,1.61-0.18,2.38-0.55l11.51-5.54c3.29,5.51,6.97,11.34,11.06,17.38l-10.71,6.85c-2.56,1.64-3.3,5.04-1.67,7.6
				c1.05,1.64,2.83,2.54,4.64,2.54c1.01,0,2.04-0.28,2.96-0.87l11.09-7.1c4.05,5.6,8.43,11.34,13.18,17.15l-9.84,8.13
				c-2.34,1.93-2.67,5.4-0.74,7.74c1.09,1.32,2.66,2,4.24,2c1.23,0,2.47-0.41,3.5-1.26l9.93-8.2c9.52,10.93,20.33,21.98,32.53,32.69
				c1.04,0.92,2.34,1.37,3.62,1.37c1.53,0,3.05-0.63,4.14-1.87C1062.14,488.49,1061.91,485.02,1059.63,483.01z" class="st11"></path>
			<path d="M276.12,831.35c-4.52-11.59-9.69-22.66-15.25-33.16l12.49-6.75c2.67-1.44,3.67-4.78,2.23-7.45
				c-1.44-2.67-4.78-3.67-7.45-2.23l-12.57,6.79c-4.06-7.1-8.29-13.92-12.6-20.43l12.89-7.82c2.6-1.58,3.43-4.96,1.85-7.55
				c-1.58-2.6-4.96-3.43-7.55-1.85l-13.39,8.13c-5.24-7.44-10.54-14.44-15.78-20.95l13.75-11.21c2.35-1.92,2.71-5.38,0.79-7.74
				c-1.92-2.35-5.38-2.71-7.74-0.79l-13.8,11.26c-5.35-6.31-10.56-12.09-15.48-17.3l11.13-11.04c2.16-2.14,2.17-5.62,0.03-7.78
				c-2.14-2.16-5.62-2.17-7.78-0.03l-11.04,10.95c-5.18-5.22-10.14-9.97-14.77-14.22l8.84-10.22c1.99-2.3,1.74-5.77-0.56-7.76
				c-2.3-1.99-5.77-1.74-7.76,0.56l-8.72,10.08c-13.82-12.06-23.14-18.58-23.74-19c-2.49-1.73-5.92-1.11-7.65,1.38
				c-1.73,2.49-1.12,5.92,1.38,7.65c0.28,0.2,9.32,6.57,22.77,18.34l-8.04,9.3c-1.99,2.3-1.74,5.77,0.56,7.76
				c1.04,0.9,2.32,1.34,3.6,1.34c1.54,0,3.07-0.64,4.16-1.9l7.9-9.14c4.44,4.09,9.19,8.65,14.15,13.64l-10.08,9.99
				c-2.16,2.14-2.17,5.62-0.03,7.78c1.08,1.08,2.49,1.63,3.91,1.63c1.4,0,2.8-0.53,3.87-1.59l9.99-9.9
				c4.83,5.12,9.79,10.62,14.78,16.49l-12.87,10.49c-2.35,1.92-2.71,5.38-0.79,7.74c1.09,1.33,2.67,2.02,4.26,2.02
				c1.22,0,2.45-0.41,3.47-1.24l12.93-10.55c5.01,6.21,10.01,12.77,14.9,19.69l-14.66,8.9c-2.6,1.58-3.43,4.96-1.85,7.55
				c1.03,1.71,2.85,2.65,4.71,2.65c0.97,0,1.96-0.26,2.85-0.8l15.19-9.22c4.25,6.39,8.38,13.04,12.34,19.94l-15.24,8.23
				c-2.67,1.44-3.67,4.78-2.23,7.45c1,1.84,2.89,2.89,4.84,2.89c0.88,0,1.78-0.21,2.61-0.66l15.33-8.28
				c5.38,10.16,10.34,20.81,14.68,31.94c0.85,2.17,2.93,3.5,5.12,3.5c0.67,0,1.34-0.12,2-0.38
				C275.83,837.37,277.23,834.18,276.12,831.35z" class="st11"></path>
			<path d="M654.78,505.21c-0.63-0.8-0.57-1.94,0.15-2.66l18.63-18.63c6.25-6.25,6.25-16.38,0-22.63
				c-6.25-6.25-16.38-6.25-22.63,0l-15.75,15.75c-0.84,0.84-2.23,0.77-2.98-0.17L614.76,455c-5.67-7.11-16.16-8.11-23.08-2.05
				c-6.48,5.68-7.04,15.6-1.67,22.34l19.7,24.71c0.63,0.8,0.57,1.94-0.15,2.66l-18.63,18.63c-6.25,6.25-6.25,16.38,0,22.63
				c3.12,3.12,7.22,4.69,11.31,4.69s8.19-1.56,11.31-4.69l15.75-15.75c0.84-0.84,2.23-0.77,2.98,0.17l17.44,21.89
				c3.16,3.96,7.82,6.03,12.52,6.03c3.55,0,7.12-1.17,10.09-3.59c6.86-5.58,7.65-15.81,2.14-22.73L654.78,505.21z" class="st12"></path>
			<path d="M953.78,560.21c-0.63-0.8-0.57-1.94,0.15-2.66l17.63-17.63c6.25-6.25,6.25-16.38,0-22.63
				c-6.25-6.25-16.38-6.25-22.63,0l-14.75,14.75c-0.84,0.84-2.23,0.77-2.98-0.17l-16.44-20.63c-5.67-7.11-16.16-8.11-23.08-2.05
				c-6.48,5.68-7.04,15.6-1.67,22.34l18.7,23.46c0.63,0.8,0.57,1.94-0.15,2.66l-17.63,17.63c-6.25,6.25-6.25,16.38,0,22.63
				c3.12,3.12,7.22,4.69,11.31,4.69s8.19-1.56,11.31-4.69l14.75-14.75c0.84-0.84,2.23-0.77,2.98,0.17l16.44,20.63
				c3.16,3.96,7.82,6.03,12.52,6.03c3.55,0,7.12-1.17,10.09-3.59c6.86-5.58,7.65-15.81,2.14-22.72L953.78,560.21z" class="st12"></path>
			<path d="M538,416c-2.76,0-5-2.24-5-5V289c0-2.76,2.24-5,5-5s5,2.24,5,5v122C543,413.76,540.76,416,538,416z" class="st9"></path>
			<path d="M563,389c-2.76,0-5-2.24-5-5v-90c0-2.76,2.24-5,5-5s5,2.24,5,5v90C568,386.76,565.76,389,563,389z" class="st9"></path>
			<path d="M588,357c-2.76,0-5-2.24-5-5v-54c0-2.76,2.24-5,5-5s5,2.24,5,5v54C593,354.76,590.76,357,588,357z" class="st9"></path>
		</g>
		<g class="st13">
			<path d="M279.04,382.58v39.12c0,1.43,1.44,2.41,2.78,1.89l29.31-11.58c0.77-0.31,1.28-1.05,1.28-1.89v-40.01
				c0-1.46-1.49-2.44-2.83-1.87l-29.31,12.48C279.53,381.04,279.04,381.77,279.04,382.58z" class="st14"></path>
			<path d="M229.8,444.15l29.33-11.59c0.77-0.3,1.28-1.05,1.28-1.88v-38.45c0-1.45-1.48-2.42-2.81-1.86l-29.33,12.49
				c-0.74,0.32-1.23,1.05-1.23,1.86v37.56C227.04,443.7,228.48,444.68,229.8,444.15z" class="st14"></path>
			<path d="M178.79,464.31l29.35-11.6c0.77-0.3,1.27-1.04,1.27-1.87v-36.92c0-1.44-1.47-2.41-2.8-1.85l-29.35,12.49
				c-0.74,0.32-1.22,1.04-1.22,1.85v36.02C176.04,463.86,177.47,464.84,178.79,464.31z" class="st14"></path>
		</g>
		<path d="M578.86,196.31l107.92,89.48c2.24,1.9,3.53,4.69,3.53,7.63l2,147.85c0,3.19,3.55,5.09,6.21,3.34l39.32-26
			c1.66-1.1,3.87-0.81,5.19,0.67l37.24,41.68c1.39,1.55,3.73,1.78,5.4,0.53l35.46-26.81c1.52-1.15,3.63-1.07,5.05,0.19l48.51,42.66
			c2.65,2.33,6.79,0.34,6.64-3.18l-5.4-146.03c-0.13-2.92-1.52-5.64-3.83-7.44l-117.61-89.34c-2.47-1.88-5.35-3.15-8.4-3.73
			L578.86,196.31z" class="st15"></path>
		<path d="M482.98,698.86c-2.49,0-4.5-2.01-4.5-4.5V284.25c0-2.49,2.01-4.5,4.5-4.5s4.5,2.01,4.5,4.5v410.11
			C487.48,696.84,485.46,698.86,482.98,698.86z" class="st16"></path>
		<path d="M389.47,545.5L389.47,545.5c-6.57,2.63-13.71-2.21-13.71-9.28v-58.76c0-3.94,2.31-7.5,5.9-9.12v0
			c6.62-2.98,14.1,1.86,14.1,9.12v58.76C395.75,540.3,393.27,543.98,389.47,545.5z" class="st3"></path>
		<path d="M406,277c0,0-30,11-30,36v91.75c0,4.43-2.54,8.46-6.54,10.37l0,0c-7.63,3.65-16.46-1.91-16.46-10.37v-21.29
			c0-7.26-7.49-12.1-14.1-9.12l0,0c-3.59,1.61-5.9,5.18-5.9,9.12v193.67c0,8.34-5.17,15.8-12.98,18.73l-8.43,3.16
			c-1.56,0.59-2.6,2.08-2.6,3.75v61.6c0,6.47-3.78,12.34-9.67,15.02l0,0c-10.92,4.97-23.33-3.02-23.33-15.02V480.64
			c0-2.67-2.73-4.48-5.19-3.44l0,0c-13.19,5.6-27.81-4.08-27.81-18.41v-94.62c0-7.32,4-14.05,10.42-17.56L315,313L406,277z" class="st3"></path>
		<path d="M783.15,671.5c-8.76-9.31-1.67-21.78,11.17-22.42c43.45-2.17,168.87-2.17,202.74-25.73
			s39.82-44.17,51.42-74.2c8.05-20.84,28.28-34.58,50.82-34.58c58.43,1.58,60.7,66.02,60.7,108.91s-23.79,87.63-95.52,90.63
			C992.54,717.13,824.96,705.4,783.15,671.5z" class="st14"></path>
	</g>
	<g class="st1" id="body_5_">
		<polygon points="736.73,1159.86 741.72,1209.87 826.72,1209.87 820.73,1157.86" class="st17"></polygon>
		<path d="M737.72,1160.86l4.5,49.01h-470.5c0,0-14.15-384.08,257-384.08c112.29,0,191.89,42.5,243.72,101.46
			c84.79,96.46,98.28,233.6,98.28,233.6h-179L737.72,1160.86z" class="st18"></path>
		<path d="M876.95,1156.81c-0.29-2.75-2.75-4.74-5.49-4.46c-0.43,0.04-43.47,4.49-87.34,5.95
			c-81.67,2.73-90.67-7.15-91.65-9.16l-0.23-0.48l-0.33-0.42c-9.67-12.39-22.89-131.91-28.96-204.34c-0.23-2.75-2.65-4.81-5.4-4.57
			c-2.75,0.23-4.8,2.65-4.57,5.4c0.04,0.47,4.02,47.85,9.69,96.84c0.92,7.94,1.81,15.31,2.67,22.16
			c-31.18-37.76-40.37-87.75-40.46-88.29c-0.48-2.72-3.08-4.53-5.79-4.05c-2.72,0.48-4.53,3.07-4.05,5.79
			c0.45,2.52,11.36,62.14,51.37,102.64c0.35,0.35,0.75,0.62,1.16,0.85c7.46,54.64,12.65,68.44,16.14,73.29
			c3.84,7.17,16.62,14.81,73.54,14.81c8.14,0,17.19-0.16,27.24-0.49c44.21-1.48,87.56-5.96,87.99-6
			C875.24,1162.02,877.23,1159.56,876.95,1156.81z" class="st19"></path>
		<g>
			<path d="M343.86,1237.82c-0.83-10.07-1.95-34.62,1.63-74.69c0.29-3.25-3.88-4.83-5.8-2.2l-41.79,57.18
				c-1.64,2.25-0.75,5.43,1.82,6.5l39.69,16.44C341.65,1241.97,344.06,1240.22,343.86,1237.82z" class="st20"></path>
			<path d="M350.6,1123.19c3.11-18.22,8.01-44.59,12.75-66.5c0.66-3.04-2.96-5.15-5.29-3.08l-41.96,37.36
				c-1.88,1.67-1.92,4.59-0.1,6.32l29.21,27.69C347.08,1126.74,350.17,1125.72,350.6,1123.19z" class="st20"></path>
			<path d="M375.14,1022.13c6.92-25.04,14.12-51.17,21.11-70.7c1.09-3.03-2.45-5.61-5-3.64l-42.32,32.71
				c-1.7,1.32-2.17,3.69-1.09,5.55l21.4,36.82C370.69,1025.35,374.38,1024.88,375.14,1022.13z" class="st20"></path>
			<path d="M412.26,916.79c9.39-19.32,17.33-32.88,22.13-40.57c1.18-1.9-0.96-4.11-2.9-2.99l-29.74,17.22
				c-1.85,1.07-2.63,3.34-1.83,5.32l8.41,20.9C409.03,918.39,411.45,918.47,412.26,916.79z" class="st20"></path>
		</g>
	</g>
</g>
</svg>
