<svg height="1200" node-id="1" sillyvg="true" template-height="1200" template-width="1200" version="1.1" viewBox="0 0 1200 1200" width="1200" xmlns="http://www.w3.org/2000/svg" xmlns:xlink="http://www.w3.org/1999/xlink"><defs node-id="60"><clipPath id="SVGID_2_" node-id="8"><path d="M 0.00 0.00 L 1200.00 0.00 L 1200.00 1200.00 L 0.00 1200.00 Z" fill="#000000" fill-rule="nonzero" node-id="63" stroke="none" target-height="1200" target-width="1200" target-x="0" target-y="0"></path></clipPath><clipPath id="SVGID_4_" node-id="16"><path d="M 768.82 915.76 L 1031.37 851.52 C 1040.29 849.34 1046.58 841.36 1046.62 832.18 L 1048.51 371.64 C 1048.53 365.88 1044.46 360.91 1038.80 359.81 L 495.04 254.10 C 486.92 252.52 478.51 253.50 470.97 256.90 L 147.78 398.54 C 143.40 400.46 140.58 404.80 140.60 409.58 L 142.49 849.44 C 142.53 859.40 149.89 867.80 159.75 869.17 L 368.98 898.06 L 730.65 924.06 L 768.82 915.76 Z" fill="#000000" fill-rule="nonzero" node-id="67" stroke="none" target-height="671.54" target-width="907.95" target-x="140.58" target-y="252.52"></path></clipPath><clipPath id="SVGID_6_" node-id="45"><path d="M 738.56 1160.86 L 743.06 1209.87 L 272.56 1209.87 C 272.56 1209.87 258.41 825.79 529.56 825.79 C 641.85 825.79 721.45 868.29 773.28 927.25 C 858.07 1023.71 871.56 1160.85 871.56 1160.85 L 722.56 1160.85 L 738.56 1160.86 Z" fill="#000000" fill-rule="nonzero" node-id="71" stroke="none" target-height="384.08002" target-width="613.15" target-x="258.41" target-y="825.79"></path></clipPath></defs><path d="M 0.00 0.00 L 1200.00 0.00 L 1200.00 1200.00 L 0.00 1200.00 Z" fill="#ffe5d7" fill-rule="nonzero" node-id="75" stroke="none" target-height="1200" target-width="1200" target-x="0" target-y="0"></path><g node-id="198"><g node-id="199"><g clip-path="url(#SVGID_2_)" group-id="1,2" id="head_10_" node-id="10"><g clip-path="url(#SVGID_4_)" group-id="1,2,4,10" node-id="82"><path d="M 758.82 924.76 L 1044.64 858.02 C 1046.72 857.50 1048.56 845.80 1048.56 845.80 L 1048.56 360.70 L 495.04 253.10 C 486.92 251.52 478.51 252.50 470.97 255.90 L 140.56 400.70 L 140.56 875.80 L 370.98 904.07 L 758.82 924.76 Z" fill="#ffb3b5" fill-rule="nonzero" group-id="1,2,4,10" node-id="84" stroke="none" target-height="673.24" target-width="908.00006" target-x="140.56" target-y="251.52"></path></g><g clip-path="url(#SVGID_4_)" group-id="1,2,4,11" node-id="87"><path d="M 920.83 601.00 C 904.81 601.00 891.83 588.02 891.83 572.00 L 891.83 558.00 C 891.83 541.98 904.81 529.00 920.83 529.00 C 936.85 529.00 949.83 541.98 949.83 558.00 L 949.83 572.00 C 949.83 588.02 936.85 601.00 920.83 601.00 Z" fill="#2e2725" fill-rule="nonzero" group-id="1,2,4,11" node-id="89" stroke="none" target-height="72" target-width="58" target-x="891.83" target-y="529"></path></g><g clip-path="url(#SVGID_4_)" group-id="1,2,4,12" node-id="92"><path d="M 643.83 549.00 C 627.26 549.00 613.83 535.57 613.83 519.00 L 613.83 504.24 C 613.83 487.67 627.26 474.24 643.83 474.24 C 660.40 474.24 673.83 487.67 673.83 504.24 L 673.83 519.00 C 673.83 535.57 660.40 549.00 643.83 549.00 Z" fill="#2e2725" fill-rule="nonzero" group-id="1,2,4,12" node-id="94" stroke="none" target-height="74.76001" target-width="60" target-x="613.83" target-y="474.24"></path></g><g clip-path="url(#SVGID_4_)" group-id="1,2,4,13" node-id="97"><path d="M 653.09 588.24 C 652.88 588.24 652.66 588.22 652.44 588.19 C 649.98 587.83 648.27 585.55 648.63 583.09 C 649.89 574.38 647.44 565.64 641.54 557.82 C 633.35 546.95 619.77 539.50 604.27 537.39 C 601.81 537.05 600.08 534.78 600.42 532.32 C 600.76 529.86 603.03 528.14 605.49 528.47 C 623.35 530.91 639.11 539.64 648.73 552.41 C 655.99 562.05 659.12 573.41 657.54 584.38 C 657.21 586.62 655.29 588.24 653.09 588.24 Z" fill="#ffd8d6" fill-rule="nonzero" group-id="1,2,4,13" node-id="99" stroke="none" target-height="60.099976" target-width="59.039978" target-x="600.08" target-y="528.14"></path></g><g clip-path="url(#SVGID_4_)" group-id="1,2,4,14" node-id="102"><path d="M 909.77 628.87 C 909.62 628.87 909.47 628.86 909.31 628.85 C 906.84 628.60 905.03 626.40 905.28 623.92 C 906.38 612.97 912.03 602.85 921.17 595.45 C 932.53 586.25 948.20 581.97 964.15 583.73 C 966.62 584.00 968.40 586.22 968.13 588.69 C 967.86 591.16 965.64 592.95 963.16 592.67 C 949.58 591.18 936.34 594.74 926.82 602.44 C 919.55 608.32 915.08 616.27 914.22 624.82 C 914.01 627.14 912.05 628.87 909.77 628.87 Z" fill="#ffd8d6" fill-rule="nonzero" group-id="1,2,4,14" node-id="104" stroke="none" target-height="46.900024" target-width="63.369995" target-x="905.03" target-y="581.97"></path></g><g clip-path="url(#SVGID_4_)" group-id="1,2,4,15" node-id="107"><path d="M 788.32 660.88 C 785.28 660.88 782.27 659.56 780.23 657.06 C 777.09 653.21 768.40 643.07 755.48 632.04 C 739.22 618.17 724.88 610.31 724.74 610.23 C 720.86 608.12 719.42 603.27 721.53 599.38 C 723.64 595.50 728.49 594.06 732.37 596.16 C 733.01 596.51 748.25 604.83 765.87 619.86 C 776.58 629.00 784.64 637.63 789.34 643.03 C 793.63 640.23 800.44 636.02 810.69 630.23 C 832.46 617.93 845.71 613.89 846.26 613.73 C 850.50 612.46 854.95 614.87 856.22 619.10 C 857.49 623.33 855.08 627.79 850.85 629.06 C 850.75 629.09 838.57 632.86 818.55 644.17 C 804.42 652.16 797.28 656.88 794.29 658.99 C 792.49 660.26 790.40 660.88 788.32 660.88 Z" fill="#f56262" fill-rule="nonzero" group-id="1,2,4,15" node-id="109" stroke="none" target-height="66.82001" target-width="138.07" target-x="719.42" target-y="594.06"></path></g><g clip-path="url(#SVGID_4_)" group-id="1,2,4,16" node-id="112"><path d="M 382.70 901.77 L 158.13 870.14 C 151.94 869.27 151.04 860.70 156.92 858.56 L 468.18 745.38 C 478.19 741.72 488.99 740.82 499.47 742.76 L 1032.10 840.73 C 1038.31 841.87 1038.77 850.59 1032.72 852.38 L 1003.51 861.02 L 737.66 926.26 L 382.70 901.77 Z" fill="#b31111" fill-opacity="0.27" fill-rule="nonzero" group-id="1,2,4,16" node-id="114" stroke="none" target-height="185.44" target-width="887.73004" target-x="151.04" target-y="740.82"></path></g><g clip-path="url(#SVGID_4_)" group-id="1,2,4,17" node-id="117"><path d="M 279.88 382.58 L 279.88 421.70 C 279.88 423.13 281.32 424.11 282.66 423.59 L 311.97 412.01 C 312.74 411.70 313.25 410.96 313.25 410.12 L 313.25 370.11 C 313.25 368.65 311.76 367.67 310.42 368.24 L 281.11 380.72 C 280.36 381.04 279.88 381.77 279.88 382.58 Z" fill="#ffffff" fill-opacity="0.9" fill-rule="evenodd" group-id="1,2,4,17" node-id="119" stroke="none" target-height="56.439972" target-width="33.369995" target-x="279.88" target-y="367.67"></path><path d="M 230.64 444.15 L 259.97 432.56 C 260.74 432.26 261.25 431.51 261.25 430.68 L 261.25 392.23 C 261.25 390.78 259.77 389.81 258.44 390.37 L 229.11 402.86 C 228.37 403.18 227.88 403.91 227.88 404.72 L 227.88 442.28 C 227.88 443.70 229.31 444.68 230.64 444.15 Z" fill="#ffffff" fill-opacity="0.9" fill-rule="evenodd" group-id="1,2,4,17" node-id="121" stroke="none" target-height="54.869995" target-width="33.369995" target-x="227.88" target-y="389.81"></path><path d="M 179.62 464.31 L 208.97 452.71 C 209.74 452.41 210.24 451.67 210.24 450.84 L 210.24 413.92 C 210.24 412.48 208.77 411.51 207.44 412.07 L 178.09 424.56 C 177.35 424.88 176.87 425.60 176.87 426.41 L 176.87 462.43 C 176.87 463.86 178.30 464.84 179.62 464.31 Z" fill="#ffffff" fill-opacity="0.9" fill-rule="evenodd" group-id="1,2,4,17" node-id="123" stroke="none" target-height="53.329987" target-width="33.37001" target-x="176.87" target-y="411.51"></path></g><g clip-path="url(#SVGID_4_)" group-id="1,2,4,18" node-id="126"><path d="M 483.81 698.86 C 481.32 698.86 479.31 696.85 479.31 694.36 L 479.31 284.25 C 479.31 281.76 481.32 279.75 483.81 279.75 C 486.30 279.75 488.31 281.76 488.31 284.25 L 488.31 694.36 C 488.31 696.84 486.29 698.86 483.81 698.86 Z" fill="#ffffff" fill-opacity="0.9" fill-rule="nonzero" group-id="1,2,4,18" node-id="128" stroke="none" target-height="419.11" target-width="9" target-x="479.31" target-y="279.75"></path></g><path d="M 1037.33 354.39 C 1039.53 354.84 1040.69 351.89 1038.77 350.72 L 891.01 260.56 C 884.76 256.67 877.86 253.96 870.63 252.57 L 385.95 159.27 C 383.87 158.87 382.68 161.55 384.36 162.83 C 384.36 162.83 449.83 215.93 471.61 233.93 C 477.37 238.55 484.39 240.70 496.48 243.35 C 584.18 261.36 966.71 339.90 1037.33 354.39 Z" fill="#ffb3b5" fill-rule="nonzero" group-id="1,2" node-id="132" stroke="none" target-height="195.97" target-width="658.00995" target-x="382.68" target-y="158.87"></path><path d="M 378.04 165.37 C 377.08 164.53 375.97 163.88 374.76 163.46 C 363.39 159.50 345.04 152.35 345.04 147.38 C 345.04 128.89 439.06 114.90 555.04 114.90 C 671.02 114.90 765.04 128.89 765.04 147.38 C 765.04 165.87 671.02 179.86 555.04 179.86 C 551.84 179.86 548.65 179.85 545.48 179.83 C 544.27 179.82 544.09 181.55 545.27 181.80 L 577.62 188.65 C 583.72 189.94 589.95 190.51 596.18 190.36 C 742.40 186.82 855.04 164.67 855.04 136.85 C 855.04 106.47 720.73 81.85 555.04 81.85 C 389.35 81.85 255.04 106.47 255.04 136.85 C 255.04 156.20 309.52 172.80 391.89 182.31 C 393.84 182.54 394.92 180.11 393.44 178.82 L 378.04 165.37 Z" fill="#fcde65" fill-rule="nonzero" group-id="1,2" node-id="134" stroke="none" target-height="108.659996" target-width="600" target-x="255.04" target-y="81.85"></path><path d="M 149.15 392.86 C 147.18 393.74 145.40 391.31 146.84 389.70 L 255.53 268.62 C 257.94 265.94 261.61 264.76 265.13 265.54 L 372.15 289.22 C 373.96 289.71 374.16 292.21 372.44 292.98 L 149.15 392.86 Z" fill="#f09a9d" fill-rule="nonzero" group-id="1,2" node-id="136" stroke="none" target-height="128.97998" target-width="228.76001" target-x="145.4" target-y="264.76"></path><path d="M 579.69 196.31 L 687.61 285.79 C 689.85 287.69 691.14 290.48 691.14 293.42 L 693.14 441.27 C 693.14 444.46 696.69 446.36 699.35 444.61 L 738.67 418.61 C 740.33 417.51 742.54 417.80 743.86 419.28 L 781.10 460.96 C 782.49 462.51 784.83 462.74 786.50 461.49 L 821.96 434.68 C 823.48 433.53 825.59 433.61 827.01 434.87 L 875.52 477.53 C 878.17 479.86 882.31 477.87 882.16 474.35 L 876.76 328.32 C 876.63 325.40 875.24 322.68 872.93 320.88 L 755.32 231.54 C 752.85 229.66 749.97 228.39 746.92 227.81 L 579.69 196.31 Z" fill="#5cb8e6" fill-rule="nonzero" group-id="1,2" node-id="138" stroke="none" target-height="283.55" target-width="302.62" target-x="579.69" target-y="196.31"></path><path d="M 280.25 679.46 C 266.26 679.46 253.05 672.49 244.93 660.82 L 236.59 648.84 C 235.09 646.69 234.66 644.01 235.41 641.49 C 236.08 639.24 237.61 637.40 239.66 636.35 L 224.65 642.45 C 220.02 644.33 215.17 645.28 210.23 645.28 C 197.55 645.28 185.61 638.89 178.30 628.18 L 175.02 623.42 C 173.54 621.27 173.12 618.59 173.87 616.08 C 174.61 613.60 176.40 611.62 178.78 610.66 L 280.03 569.54 L 158.40 618.80 C 153.29 620.87 147.92 621.93 142.44 621.93 C 128.86 621.93 115.89 615.29 107.74 604.16 L 96.38 588.65 C 94.13 585.58 93.39 581.85 94.36 578.42 C 95.36 574.91 98.02 572.05 101.67 570.57 L 343.60 474.33 C 348.74 472.24 354.13 471.18 359.58 471.18 C 383.49 471.18 402.94 491.16 402.94 515.72 L 402.94 589.14 C 402.94 615.78 387.35 639.32 363.22 649.12 L 296.21 676.33 C 291.10 678.41 285.73 679.46 280.25 679.46 C 280.25 679.46 280.25 679.46 280.25 679.46 Z" fill="#ffffff" fill-rule="nonzero" group-id="1,2,5" node-id="142" stroke="none" target-height="208.28003" target-width="309.55" target-x="93.39" target-y="471.18"></path><path d="M 359.59 475.69 C 380.15 475.69 398.45 492.77 398.45 515.73 L 398.45 589.15 C 398.45 613.78 383.81 635.91 361.54 644.96 L 294.53 672.17 C 289.88 674.06 285.04 674.97 280.26 674.97 C 268.00 674.97 256.10 668.99 248.63 658.26 L 240.29 646.28 C 238.82 644.16 239.67 641.19 242.02 640.23 L 303.57 615.24 C 305.82 614.33 306.92 611.71 306.03 609.40 C 305.35 607.63 303.70 606.55 301.96 606.55 C 301.43 606.55 300.88 606.65 300.35 606.87 L 222.96 638.30 C 218.80 639.99 214.49 640.80 210.24 640.80 C 199.27 640.80 188.67 635.39 182.03 625.67 L 178.74 620.89 C 177.28 618.77 178.14 615.81 180.48 614.86 L 298.72 566.85 C 300.97 565.94 302.07 563.32 301.18 561.01 C 300.50 559.24 298.85 558.16 297.11 558.16 C 296.58 558.16 296.03 558.26 295.50 558.48 L 156.72 614.67 C 152.07 616.56 147.23 617.47 142.45 617.47 C 130.50 617.47 118.89 611.80 111.38 601.54 L 100.01 586.00 C 96.92 581.78 98.58 576.69 103.37 574.74 L 345.27 478.51 C 350.03 476.58 354.87 475.69 359.59 475.69 M 359.59 466.69 C 353.56 466.69 347.61 467.86 341.91 470.17 L 100.04 566.39 L 100.01 566.40 L 99.98 566.41 C 95.04 568.42 91.41 572.35 90.04 577.20 C 88.69 581.97 89.68 587.12 92.75 591.32 L 104.11 606.83 C 113.11 619.11 127.44 626.44 142.44 626.44 C 148.50 626.44 154.45 625.28 160.10 622.98 L 169.02 619.37 C 169.16 621.71 169.94 623.99 171.31 625.98 L 174.60 630.76 C 182.73 642.66 196.05 649.79 210.22 649.79 C 215.74 649.79 221.16 648.73 226.33 646.63 L 230.56 644.91 C 230.73 647.22 231.51 649.46 232.87 651.42 L 241.21 663.40 C 250.18 676.28 264.76 683.97 280.23 683.97 C 286.29 683.97 292.23 682.81 297.89 680.51 L 364.90 653.30 C 377.52 648.18 388.22 639.38 395.83 627.87 C 403.42 616.40 407.43 603.01 407.43 589.16 L 407.43 515.74 C 407.44 488.68 385.98 466.69 359.59 466.69 L 359.59 466.69 Z" fill="#ffb3b5" fill-rule="nonzero" group-id="1,2,5" node-id="144" stroke="none" target-height="217.27997" target-width="318.75" target-x="88.69" target-y="466.69"></path></g></g><g clip-path="url(#SVGID_2_)" group-id="1,3" id="body_9_" node-id="37"><path d="M 1006.41 1005.69 L 1005.76 1005.23 C 1004.64 1004.43 1003.19 1004.24 1001.90 1004.73 L 865.73 1056.32 C 862.00 1057.73 859.98 1061.78 861.10 1065.61 L 861.10 1065.61 C 862.39 1070.01 867.23 1072.30 871.45 1070.49 L 1005.64 1012.85 C 1006.96 1012.28 1007.88 1011.08 1008.10 1009.66 L 1008.10 1009.66 C 1008.33 1008.13 1007.68 1006.60 1006.41 1005.69 Z" fill="#5cb8e6" fill-rule="nonzero" group-id="1,3,6" node-id="151" stroke="none" target-height="68.06006" target-width="148.35004" target-x="859.98" target-y="1004.24"></path><path d="M 1051.85 916.70 L 1071.06 953.57 C 1071.94 955.26 1073.69 956.31 1075.59 956.29 L 1117.16 955.95 C 1121.67 955.91 1123.98 961.35 1120.82 964.57 L 1091.70 994.23 C 1090.37 995.59 1089.91 997.58 1090.51 999.38 L 1103.68 1038.81 C 1105.11 1043.09 1100.65 1046.96 1096.62 1044.95 L 1059.41 1026.42 C 1057.71 1025.57 1055.67 1025.75 1054.14 1026.88 L 1020.71 1051.59 C 1017.08 1054.27 1012.02 1051.23 1012.69 1046.77 L 1018.82 1005.65 C 1019.10 1003.77 1018.30 1001.89 1016.75 1000.78 L 982.92 976.62 C 979.25 974.00 980.58 968.25 985.03 967.50 L 1026.03 960.62 C 1027.91 960.30 1029.45 958.96 1030.02 957.15 L 1042.54 917.51 C 1043.88 913.21 1049.76 912.70 1051.85 916.70 Z" fill="#fcd514" fill-rule="nonzero" group-id="1,3,6" node-id="153" stroke="none" target-height="141.57" target-width="144.72998" target-x="979.25" target-y="912.7"></path><path d="M 737.56 1159.86 L 742.56 1209.87 L 827.56 1209.87 L 821.56 1157.86 Z" fill="#ffb3b5" fill-rule="nonzero" group-id="1,3" node-id="156" stroke="none" target-height="52.01001" target-width="90" target-x="737.56" target-y="1157.86"></path><g clip-path="url(#SVGID_6_)" group-id="1,3,7,19" node-id="160"><path d="M 738.56 1160.86 L 743.06 1209.87 L 272.56 1209.87 C 272.56 1209.87 258.41 825.79 529.56 825.79 C 641.85 825.79 721.45 868.29 773.28 927.25 C 858.07 1023.71 871.56 1160.85 871.56 1160.85 L 738.56 1160.86 Z" fill="#ffffff" fill-rule="nonzero" group-id="1,3,7,19" node-id="162" stroke="none" target-height="384.08002" target-width="613.15" target-x="258.41" target-y="825.79"></path></g><g clip-path="url(#SVGID_6_)" group-id="1,3,7,20" node-id="165"><path d="M 774.94 1141.90 C 749.69 1142.34 731.88 1141.16 719.83 1139.69 C 705.05 1137.89 707.05 1121.93 717.13 1123.16 C 734.98 1125.35 770.65 1127.38 831.87 1122.02 C 836.18 1121.64 840.06 1124.61 840.84 1128.86 L 840.84 1128.86 C 841.72 1133.72 838.23 1138.29 833.30 1138.71 C 810.60 1140.67 791.06 1141.62 774.94 1141.90 Z" fill="#fcde65" fill-rule="nonzero" group-id="1,3,7,20" node-id="167" stroke="none" target-height="20.699951" target-width="136.66998" target-x="705.05" target-y="1121.64"></path></g><g clip-path="url(#SVGID_6_)" group-id="1,3,7,21" node-id="170"><path d="M 861.61 1161.84 C 861.58 1161.51 858.11 1127.63 844.51 1082.67 C 832.05 1041.47 808.27 982.21 765.77 933.86 C 709.38 869.70 627.70 835.79 529.56 835.79 C 472.77 835.79 424.71 853.52 386.69 888.50 C 355.57 917.14 330.77 957.52 313.00 1008.51 L 294.11 1001.93 C 312.98 947.79 339.57 904.68 373.14 873.78 C 414.96 835.30 467.58 815.79 529.55 815.79 C 661.01 815.79 738.73 872.81 780.78 920.65 C 825.77 971.83 850.75 1034.11 863.78 1077.34 C 877.87 1124.08 881.36 1158.43 881.50 1159.88 L 861.61 1161.84 Z" fill="#5cb9e6" fill-rule="nonzero" group-id="1,3,7,21" node-id="172" stroke="none" target-height="346.05" target-width="587.39" target-x="294.11" target-y="815.79"></path></g><g clip-path="url(#SVGID_6_)" group-id="1,3,7,22" node-id="175"><path d="M 743.06 1219.87 L 262.92 1219.87 L 262.57 1210.24 C 262.53 1209.07 261.56 1181.22 265.38 1140.29 L 285.29 1142.15 C 282.89 1167.86 282.45 1188.51 282.43 1199.87 L 743.05 1199.87 L 743.05 1219.87 Z" fill="#5cb9e6" fill-rule="nonzero" group-id="1,3,7,22" node-id="177" stroke="none" target-height="79.579956" target-width="481.5" target-x="261.56" target-y="1140.29"></path></g><path d="M 874.78 1156.80 C 874.49 1154.05 872.03 1152.08 869.28 1152.35 C 868.86 1152.39 826.57 1156.84 783.45 1158.30 C 703.21 1161.03 694.28 1151.14 693.31 1149.14 L 693.08 1148.66 L 692.75 1148.24 C 683.08 1135.85 669.86 1016.33 663.79 943.90 C 663.56 941.15 661.14 939.11 658.39 939.33 C 655.64 939.56 653.59 941.98 653.82 944.73 C 653.86 945.20 657.84 992.58 663.51 1041.57 C 664.43 1049.51 665.32 1056.88 666.18 1063.73 C 635.04 1026.02 625.84 976.10 625.72 975.44 C 625.24 972.72 622.64 970.90 619.93 971.39 C 617.21 971.87 615.40 974.46 615.88 977.18 C 616.32 979.70 627.24 1039.33 667.25 1079.82 C 667.60 1080.17 668.00 1080.44 668.41 1080.67 C 675.87 1135.31 681.06 1149.11 684.55 1153.96 C 688.39 1161.13 701.03 1168.78 757.02 1168.77 C 765.04 1168.77 773.94 1168.61 783.84 1168.28 C 827.31 1166.80 869.91 1162.32 870.34 1162.28 C 873.08 1162.01 875.07 1159.55 874.78 1156.80 Z" fill="#5cb8e6" fill-rule="nonzero" group-id="1,3" node-id="181" stroke="none" target-height="229.67004" target-width="259.66998" target-x="615.4" target-y="939.11"></path><path d="M 492.95 1128.47 C 477.81 1128.47 459.22 1125.11 439.14 1114.01 C 421.65 1104.34 399.44 1087.45 392.95 1061.88 C 388.75 1045.32 392.74 1030.82 397.89 1022.77 C 408.71 1005.84 441.25 1002.27 497.52 1001.62 C 526.68 1001.28 547.68 996.69 561.58 993.65 C 575.18 990.68 582.67 989.04 587.61 993.48 C 592.33 997.73 593.02 1005.51 589.50 1014.82 C 585.33 1025.86 576.11 1036.82 564.21 1044.89 C 549.35 1054.97 530.67 1060.41 510.20 1060.62 C 489.27 1060.83 473.02 1060.35 461.90 1059.18 C 459.15 1058.89 457.16 1056.43 457.45 1053.68 C 457.74 1050.93 460.19 1048.95 462.95 1049.23 C 473.69 1050.36 489.55 1050.83 510.10 1050.62 C 548.16 1050.23 573.09 1029.96 580.14 1011.29 C 582.46 1005.16 581.71 1001.74 580.96 1000.96 C 579.11 1000.05 570.94 1001.84 563.72 1003.42 C 549.43 1006.55 527.83 1011.27 497.64 1011.62 C 447.41 1012.20 414.61 1015.17 406.32 1028.16 C 402.30 1034.44 399.23 1045.96 402.65 1059.42 C 405.75 1071.62 415.43 1089.47 443.98 1105.26 C 494.24 1133.05 535.18 1109.21 538.88 1105.00 C 540.54 1102.79 543.64 1102.38 545.85 1104.03 C 548.06 1105.69 548.48 1108.85 546.82 1111.06 C 544.08 1114.71 530.98 1123.05 511.73 1126.71 C 506.37 1127.74 500.04 1128.47 492.95 1128.47 Z M 581.00 1000.98 L 581.00 1000.98 L 581.00 1000.98 Z" fill="#f59397" fill-rule="nonzero" group-id="1,3,8" node-id="185" stroke="none" target-height="144.01007" target-width="204.27002" target-x="388.75" target-y="989.04"></path><path d="M 499.09 1097.64 C 493.19 1097.64 486.86 1097.24 480.04 1096.34 C 477.30 1095.98 475.38 1093.47 475.74 1090.73 C 476.10 1087.99 478.61 1086.07 481.35 1086.43 C 507.63 1089.90 530.19 1085.86 546.56 1074.73 C 558.87 1066.37 563.53 1056.82 563.58 1056.73 C 564.77 1054.25 567.74 1053.18 570.23 1054.35 C 572.72 1055.52 573.79 1058.48 572.63 1060.97 C 572.41 1061.44 567.05 1072.69 552.76 1082.60 C 542.26 1089.89 524.99 1097.64 499.09 1097.64 Z" fill="#f59397" fill-rule="nonzero" group-id="1,3,8" node-id="187" stroke="none" target-height="44.45996" target-width="98.40997" target-x="475.38" target-y="1053.18"></path><path d="M 274.18 1116.28 C 305.38 1114.19 327.95 1099.38 343.65 1080.70 C 358.60 1062.92 377.24 1025.35 358.58 1012.66 C 339.92 999.98 305.13 1007.75 281.53 1004.97 C 257.92 1002.19 236.38 988.56 224.22 995.49 C 212.06 1002.42 215.25 1030.27 255.51 1042.62 C 274.83 1048.37 289.22 1048.76 299.70 1046.94 C 299.70 1046.94 221.98 1007.88 216.06 1036.04 C 210.13 1064.20 236.92 1071.99 236.92 1071.99 C 236.92 1071.99 226.85 1061.34 222.77 1068.41 C 218.68 1075.49 223.02 1117.78 274.18 1116.28 Z" fill="#ffffff" fill-rule="nonzero" group-id="1,3,9" node-id="192" stroke="none" target-height="129.22003" target-width="167.10999" target-x="210.13" target-y="988.56"></path><path d="M 270.64 1121.40 C 255.77 1121.40 239.97 1115.87 230.33 1107.09 C 224.28 1101.59 221.00 1095.17 220.82 1088.55 C 220.75 1085.79 222.92 1083.49 225.68 1083.42 C 228.44 1083.39 230.74 1085.52 230.81 1088.28 C 230.94 1093.13 234.28 1097.17 237.06 1099.70 C 245.53 1107.41 260.65 1112.19 273.85 1111.30 C 300.26 1109.53 322.46 1098.15 339.83 1077.49 C 350.20 1065.16 360.13 1042.77 358.10 1028.09 C 357.38 1022.90 355.31 1019.21 351.77 1016.80 C 340.79 1009.34 323.85 1009.86 307.47 1010.37 C 298.55 1010.65 289.33 1010.93 280.94 1009.95 C 271.18 1008.80 261.80 1005.90 253.53 1003.34 C 242.07 999.79 232.17 996.73 226.69 999.85 C 223.94 1001.42 222.59 1004.88 223.06 1009.12 C 224.08 1018.29 233.52 1030.66 256.97 1037.86 C 273.05 1042.65 287.16 1044.06 298.84 1042.04 C 301.56 1041.58 304.15 1043.39 304.62 1046.11 C 305.09 1048.83 303.27 1051.42 300.55 1051.89 C 287.33 1054.18 271.69 1052.68 254.08 1047.43 C 218.70 1036.57 213.79 1016.20 213.12 1010.22 C 212.21 1002.02 215.51 994.72 221.74 991.17 C 230.99 985.89 242.81 989.55 256.49 993.79 C 264.73 996.34 273.25 998.98 282.11 1000.02 C 289.76 1000.92 298.21 1000.66 307.16 1000.38 C 325.14 999.82 343.73 999.25 357.39 1008.53 C 363.24 1012.50 366.91 1018.79 368.00 1026.72 C 370.53 1045.01 359.31 1069.84 347.47 1083.92 C 328.28 1106.75 303.73 1119.31 274.50 1121.28 C 273.24 1121.36 271.94 1121.40 270.64 1121.40 Z" fill="#f59397" fill-rule="nonzero" group-id="1,3,9" node-id="194" stroke="none" target-height="135.51001" target-width="158.31999" target-x="212.21" target-y="985.89"></path><path d="M 272.72 1083.19 C 272.65 1083.19 272.57 1083.19 272.50 1083.19 C 228.94 1081.28 217.58 1055.35 217.12 1054.25 C 216.05 1051.70 217.25 1048.77 219.80 1047.71 C 222.33 1046.65 225.25 1047.83 226.33 1050.36 C 226.75 1051.32 236.16 1071.59 272.94 1073.21 C 275.70 1073.33 277.84 1075.67 277.72 1078.42 C 277.60 1081.10 275.38 1083.19 272.72 1083.19 Z" fill="#f59397" fill-rule="nonzero" group-id="1,3,9" node-id="196" stroke="none" target-height="36.539917" target-width="61.789993" target-x="216.05" target-y="1046.65"></path></g></g></svg>