<svg xml:space="preserve" style="enable-background:new 0 0 1200 1200;" viewBox="0 0 1200 1200" y="0px" x="0px" xmlns:xlink="http://www.w3.org/1999/xlink" xmlns="http://www.w3.org/2000/svg" id="波天使" version="1.1">
<style type="text/css">
	.st0{fill:#FFE5D7;}
	.st1{clip-path:url(#SVGID_2_);}
	.st2{fill:none;stroke:#F2B60C;stroke-width:56;stroke-miterlimit:10;}
	.st3{clip-path:url(#SVGID_4_);fill:#FFB3B5;}
	.st4{clip-path:url(#SVGID_4_);fill:#2E2725;}
	.st5{clip-path:url(#SVGID_4_);fill:#FFD8D6;}
	.st6{clip-path:url(#SVGID_4_);fill:#F56262;}
	.st7{opacity:0.27;clip-path:url(#SVGID_4_);fill:#B31111;}
	.st8{opacity:0.9;clip-path:url(#SVGID_4_);}
	.st9{fill-rule:evenodd;clip-rule:evenodd;fill:#FFFFFF;}
	.st10{opacity:0.9;clip-path:url(#SVGID_4_);fill:#FFFFFF;}
	.st11{fill:#FFB3B5;}
	.st12{fill:#FCDE65;}
	.st13{fill:#F09A9D;}
	.st14{fill:#5CB8E6;}
	.st15{fill:#FFFFFF;}
	.st16{fill:#FCD514;}
	.st17{clip-path:url(#SVGID_6_);fill:#FFFFFF;}
	.st18{clip-path:url(#SVGID_6_);fill:#FCDE65;}
	.st19{clip-path:url(#SVGID_6_);fill:#5CB9E6;}
	.st20{fill:#F59397;}
</style>
<rect height="1200" width="1200" class="st0"></rect>
<g>
	<defs>
		<rect height="1200" width="1200" id="SVGID_1_"></rect>
	</defs>
	<clipPath id="SVGID_2_">
		<use style="overflow:visible;" xlink:href="#SVGID_1_"></use>
	</clipPath>
	<g class="st1" id="head_10_">
		<g>
			<path d="M463.83,214" class="st2"></path>
		</g>
		<g>
			<defs>
				<path d="M768.82,915.76l262.55-64.24c8.92-2.18,15.21-10.16,15.25-19.34l1.89-460.54
					c0.02-5.76-4.05-10.73-9.71-11.83L495.04,254.1c-8.12-1.58-16.53-0.6-24.07,2.8L147.78,398.54c-4.38,1.92-7.2,6.26-7.18,11.04
					l1.89,439.86c0.04,9.96,7.4,18.36,17.26,19.73l209.23,28.89l361.67,26L768.82,915.76z" id="SVGID_3_"></path>
			</defs>
			<clipPath id="SVGID_4_">
				<use style="overflow:visible;" xlink:href="#SVGID_3_"></use>
			</clipPath>
			<path d="M758.82,924.76l285.82-66.74c2.08-0.52,3.92-12.22,3.92-12.22V360.7L495.04,253.1
				c-8.12-1.58-16.53-0.6-24.07,2.8l-330.41,144.8v475.1l230.42,28.27L758.82,924.76z" class="st3"></path>
			<path d="M920.83,601c-16.02,0-29-12.98-29-29v-14c0-16.02,12.98-29,29-29s29,12.98,29,29v14
				C949.83,588.02,936.85,601,920.83,601z" class="st4"></path>
			<path d="M643.83,549c-16.57,0-30-13.43-30-30v-14.76c0-16.57,13.43-30,30-30c16.57,0,30,13.43,30,30V519
				C673.83,535.57,660.4,549,643.83,549z" class="st4"></path>
			<path d="M653.09,588.24c-0.21,0-0.43-0.02-0.65-0.05c-2.46-0.36-4.17-2.64-3.81-5.1c1.26-8.71-1.19-17.45-7.09-25.27
				c-8.19-10.87-21.77-18.32-37.27-20.43c-2.46-0.34-4.19-2.61-3.85-5.07c0.34-2.46,2.61-4.18,5.07-3.85
				c17.86,2.44,33.62,11.17,43.24,23.94c7.26,9.64,10.39,21,8.81,31.97C657.21,586.62,655.29,588.24,653.09,588.24z" class="st5"></path>
			<path d="M909.77,628.87c-0.15,0-0.3-0.01-0.46-0.02c-2.47-0.25-4.28-2.45-4.03-4.93
				c1.1-10.95,6.75-21.07,15.89-28.47c11.36-9.2,27.03-13.48,42.98-11.72c2.47,0.27,4.25,2.49,3.98,4.96
				c-0.27,2.47-2.49,4.26-4.97,3.98c-13.58-1.49-26.82,2.07-36.34,9.77c-7.27,5.88-11.74,13.83-12.6,22.38
				C914.01,627.14,912.05,628.87,909.77,628.87z" class="st5"></path>
			<path d="M788.32,660.88c-3.04,0-6.05-1.32-8.09-3.82c-3.14-3.85-11.83-13.99-24.75-25.02
				c-16.26-13.87-30.6-21.73-30.74-21.81c-3.88-2.11-5.32-6.96-3.21-10.85c2.11-3.88,6.96-5.32,10.84-3.22
				c0.64,0.35,15.88,8.67,33.5,23.7c10.71,9.14,18.77,17.77,23.47,23.17c4.29-2.8,11.1-7.01,21.35-12.8
				c21.77-12.3,35.02-16.34,35.57-16.5c4.24-1.27,8.69,1.14,9.96,5.37c1.27,4.23-1.14,8.69-5.37,9.96
				c-0.1,0.03-12.28,3.8-32.3,15.11c-14.13,7.99-21.27,12.71-24.26,14.82C792.49,660.26,790.4,660.88,788.32,660.88z" class="st6"></path>
			<path d="M382.7,901.77l-224.57-31.63c-6.19-0.87-7.09-9.44-1.21-11.58l311.26-113.18
				c10.01-3.66,20.81-4.56,31.29-2.62l532.63,97.97c6.21,1.14,6.67,9.86,0.62,11.65l-29.21,8.64l-265.85,65.24L382.7,901.77z" class="st7"></path>
			<g class="st8">
				<path d="M279.88,382.58v39.12c0,1.43,1.44,2.41,2.78,1.89l29.31-11.58c0.77-0.31,1.28-1.05,1.28-1.89v-40.01
					c0-1.46-1.49-2.44-2.83-1.87l-29.31,12.48C280.36,381.04,279.88,381.77,279.88,382.58z" class="st9"></path>
				<path d="M230.64,444.15l29.33-11.59c0.77-0.3,1.28-1.05,1.28-1.88v-38.45c0-1.45-1.48-2.42-2.81-1.86l-29.33,12.49
					c-0.74,0.32-1.23,1.05-1.23,1.86v37.56C227.88,443.7,229.31,444.68,230.64,444.15z" class="st9"></path>
				<path d="M179.62,464.31l29.35-11.6c0.77-0.3,1.27-1.04,1.27-1.87v-36.92c0-1.44-1.47-2.41-2.8-1.85l-29.35,12.49
					c-0.74,0.32-1.22,1.04-1.22,1.85v36.02C176.87,463.86,178.3,464.84,179.62,464.31z" class="st9"></path>
			</g>
			<path d="M483.81,698.86c-2.49,0-4.5-2.01-4.5-4.5V284.25c0-2.49,2.01-4.5,4.5-4.5s4.5,2.01,4.5,4.5v410.11
				C488.31,696.84,486.29,698.86,483.81,698.86z" class="st10"></path>
		</g>
		<path d="M1037.33,354.39c2.2,0.45,3.36-2.5,1.44-3.67l-147.76-90.16c-6.25-3.89-13.15-6.6-20.38-7.99l-484.68-93.3
			c-2.08-0.4-3.27,2.28-1.59,3.56c0,0,65.47,53.1,87.25,71.1c5.76,4.62,12.78,6.77,24.87,9.42
			C584.18,261.36,966.71,339.9,1037.33,354.39z" class="st11"></path>
		<path d="M378.04,165.37c-0.96-0.84-2.07-1.49-3.28-1.91c-11.37-3.96-29.72-11.11-29.72-16.08
			c0-18.49,94.02-32.48,210-32.48s210,13.99,210,32.48c0,18.49-94.02,32.48-210,32.48c-3.2,0-6.39-0.01-9.56-0.03
			c-1.21-0.01-1.39,1.72-0.21,1.97l32.35,6.85c6.1,1.29,12.33,1.86,18.56,1.71c146.22-3.54,258.86-25.69,258.86-53.51
			c0-30.38-134.31-55-300-55s-300,24.62-300,55c0,19.35,54.48,35.95,136.85,45.46c1.95,0.23,3.03-2.2,1.55-3.49L378.04,165.37z" class="st12"></path>
		<path d="M149.15,392.86c-1.97,0.88-3.75-1.55-2.31-3.16l108.69-121.08c2.41-2.68,6.08-3.86,9.6-3.08l107.02,23.68
			c1.81,0.49,2.01,2.99,0.29,3.76L149.15,392.86z" class="st13"></path>
		<path d="M579.69,196.31l107.92,89.48c2.24,1.9,3.53,4.69,3.53,7.63l2,147.85c0,3.19,3.55,5.09,6.21,3.34l39.32-26
			c1.66-1.1,3.87-0.81,5.19,0.67l37.24,41.68c1.39,1.55,3.73,1.78,5.4,0.53l35.46-26.81c1.52-1.15,3.63-1.07,5.05,0.19l48.51,42.66
			c2.65,2.33,6.79,0.34,6.64-3.18l-5.4-146.03c-0.13-2.92-1.52-5.64-3.83-7.44l-117.61-89.34c-2.47-1.88-5.35-3.15-8.4-3.73
			L579.69,196.31z" class="st14"></path>
		<g>
			<path d="M280.25,679.46c-13.99,0-27.2-6.97-35.32-18.64l-8.34-11.98c-1.5-2.15-1.93-4.83-1.18-7.35
				c0.67-2.25,2.2-4.09,4.25-5.14l-15.01,6.1c-4.63,1.88-9.48,2.83-14.42,2.83c-12.68,0-24.62-6.39-31.93-17.1l-3.28-4.76
				c-1.48-2.15-1.9-4.83-1.15-7.34c0.74-2.48,2.53-4.46,4.91-5.42l101.25-41.12l-121.63,49.26c-5.11,2.07-10.48,3.13-15.96,3.13
				c-13.58,0-26.55-6.64-34.7-17.77l-11.36-15.51c-2.25-3.07-2.99-6.8-2.02-10.23c1-3.51,3.66-6.37,7.31-7.85l241.93-96.24
				c5.14-2.09,10.53-3.15,15.98-3.15c23.91,0,43.36,19.98,43.36,44.54v73.42c0,26.64-15.59,50.18-39.72,59.98l-67.01,27.21
				C291.1,678.41,285.73,679.46,280.25,679.46C280.25,679.46,280.25,679.46,280.25,679.46z" class="st15"></path>
			<path d="M359.59,475.69c20.56,0,38.86,17.08,38.86,40.04v73.42c0,24.63-14.64,46.76-36.91,55.81l-67.01,27.21
				c-4.65,1.89-9.49,2.8-14.27,2.8c-12.26,0-24.16-5.98-31.63-16.71l-8.34-11.98c-1.47-2.12-0.62-5.09,1.73-6.05l61.55-24.99
				c2.25-0.91,3.35-3.53,2.46-5.84c-0.68-1.77-2.33-2.85-4.07-2.85c-0.53,0-1.08,0.1-1.61,0.32l-77.39,31.43
				c-4.16,1.69-8.47,2.5-12.72,2.5c-10.97,0-21.57-5.41-28.21-15.13l-3.29-4.78c-1.46-2.12-0.6-5.08,1.74-6.03l118.24-48.01
				c2.25-0.91,3.35-3.53,2.46-5.84c-0.68-1.77-2.33-2.85-4.07-2.85c-0.53,0-1.08,0.1-1.61,0.32l-138.78,56.19
				c-4.65,1.89-9.49,2.8-14.27,2.8c-11.95,0-23.56-5.67-31.07-15.93L100.01,586c-3.09-4.22-1.43-9.31,3.36-11.26l241.9-96.23
				C350.03,476.58,354.87,475.69,359.59,475.69 M359.59,466.69c-6.03,0-11.98,1.17-17.68,3.48l-241.87,96.22l-0.03,0.01l-0.03,0.01
				c-4.94,2.01-8.57,5.94-9.94,10.79c-1.35,4.77-0.36,9.92,2.71,14.12l11.36,15.51c9,12.28,23.33,19.61,38.33,19.61
				c6.06,0,12.01-1.16,17.66-3.46l8.92-3.61c0.14,2.34,0.92,4.62,2.29,6.61l3.29,4.78c8.13,11.9,21.45,19.03,35.62,19.03
				c5.52,0,10.94-1.06,16.11-3.16l4.23-1.72c0.17,2.31,0.95,4.55,2.31,6.51l8.34,11.98c8.97,12.88,23.55,20.57,39.02,20.57
				c6.06,0,12-1.16,17.66-3.46l67.01-27.21c12.62-5.12,23.32-13.92,30.93-25.43c7.59-11.47,11.6-24.86,11.6-38.71v-73.42
				C407.44,488.68,385.98,466.69,359.59,466.69L359.59,466.69z" class="st11"></path>
		</g>
	</g>
	<g class="st1" id="body_9_">
		<g>
			<path d="M1006.41,1005.69l-0.65-0.46c-1.12-0.8-2.57-0.99-3.86-0.5l-136.17,51.59c-3.73,1.41-5.75,5.46-4.63,9.29v0
				c1.29,4.4,6.13,6.69,10.35,4.88l134.19-57.64c1.32-0.57,2.24-1.77,2.46-3.19l0,0C1008.33,1008.13,1007.68,1006.6,1006.41,1005.69
				z" class="st14"></path>
			<path d="M1051.85,916.7l19.21,36.87c0.88,1.69,2.63,2.74,4.53,2.72l41.57-0.34c4.51-0.04,6.82,5.4,3.66,8.62
				l-29.12,29.66c-1.33,1.36-1.79,3.35-1.19,5.15l13.17,39.43c1.43,4.28-3.03,8.15-7.06,6.14l-37.21-18.53
				c-1.7-0.85-3.74-0.67-5.27,0.46l-33.43,24.71c-3.63,2.68-8.69-0.36-8.02-4.82l6.13-41.12c0.28-1.88-0.52-3.76-2.07-4.87
				l-33.83-24.16c-3.67-2.62-2.34-8.37,2.11-9.12l41-6.88c1.88-0.32,3.42-1.66,3.99-3.47l12.52-39.64
				C1043.88,913.21,1049.76,912.7,1051.85,916.7z" class="st16"></path>
		</g>
		<polygon points="737.56,1159.86 742.56,1209.87 827.56,1209.87 821.56,1157.86" class="st11"></polygon>
		<g>
			<defs>
				<path d="M738.56,1160.86l4.5,49.01h-470.5c0,0-14.15-384.08,257-384.08c112.29,0,191.89,42.5,243.72,101.46
					c84.79,96.46,98.28,233.6,98.28,233.6h-149L738.56,1160.86z" id="SVGID_5_"></path>
			</defs>
			<clipPath id="SVGID_6_">
				<use style="overflow:visible;" xlink:href="#SVGID_5_"></use>
			</clipPath>
			<path d="M738.56,1160.86l4.5,49.01h-470.5c0,0-14.15-384.08,257-384.08c112.29,0,191.89,42.5,243.72,101.46
				c84.79,96.46,98.28,233.6,98.28,233.6L738.56,1160.86z" class="st17"></path>
			<path d="M774.94,1141.9c-25.25,0.44-43.06-0.74-55.11-2.21c-14.78-1.8-12.78-17.76-2.7-16.53
				c17.85,2.19,53.52,4.22,114.74-1.14c4.31-0.38,8.19,2.59,8.97,6.84l0,0c0.88,4.86-2.61,9.43-7.54,9.85
				C810.6,1140.67,791.06,1141.62,774.94,1141.9z" class="st18"></path>
			<path d="M861.61,1161.84c-0.03-0.33-3.5-34.21-17.1-79.17c-12.46-41.2-36.24-100.46-78.74-148.81
				c-56.39-64.16-138.07-98.07-236.21-98.07c-56.79,0-104.85,17.73-142.87,52.71c-31.12,28.64-55.92,69.02-73.69,120.01l-18.89-6.58
				c18.87-54.14,45.46-97.25,79.03-128.15c41.82-38.48,94.44-57.99,156.41-57.99c131.46,0,209.18,57.02,251.23,104.86
				c44.99,51.18,69.97,113.46,83,156.69c14.09,46.74,17.58,81.09,17.72,82.54L861.61,1161.84z" class="st19"></path>
			<path d="M743.06,1219.87H262.92l-0.35-9.63c-0.04-1.17-1.01-29.02,2.81-69.95l19.91,1.86
				c-2.4,25.71-2.84,46.36-2.86,57.72h460.62V1219.87z" class="st19"></path>
		</g>
		<path d="M874.78,1156.8c-0.29-2.75-2.75-4.72-5.5-4.45c-0.42,0.04-42.71,4.49-85.83,5.95
			c-80.24,2.73-89.17-7.16-90.14-9.16l-0.23-0.48l-0.33-0.42c-9.67-12.39-22.89-131.91-28.96-204.34c-0.23-2.75-2.65-4.79-5.4-4.57
			c-2.75,0.23-4.8,2.65-4.57,5.4c0.04,0.47,4.02,47.85,9.69,96.84c0.92,7.94,1.81,15.31,2.67,22.16
			c-31.14-37.71-40.34-87.63-40.46-88.29c-0.48-2.72-3.08-4.54-5.79-4.05c-2.72,0.48-4.53,3.07-4.05,5.79
			c0.44,2.52,11.36,62.15,51.37,102.64c0.35,0.35,0.75,0.62,1.16,0.85c7.46,54.64,12.65,68.44,16.14,73.29
			c3.84,7.17,16.48,14.82,72.47,14.81c8.02,0,16.92-0.16,26.82-0.49c43.47-1.48,86.07-5.96,86.5-6
			C873.08,1162.01,875.07,1159.55,874.78,1156.8z" class="st14"></path>
		<g>
			<path d="M492.95,1128.47c-15.14,0-33.73-3.36-53.81-14.46c-17.49-9.67-39.7-26.56-46.19-52.13
				c-4.2-16.56-0.21-31.06,4.94-39.11c10.82-16.93,43.36-20.5,99.63-21.15c29.16-0.34,50.16-4.93,64.06-7.97
				c13.6-2.97,21.09-4.61,26.03-0.17c4.72,4.25,5.41,12.03,1.89,21.34c-4.17,11.04-13.39,22-25.29,30.07
				c-14.86,10.08-33.54,15.52-54.01,15.73c-20.93,0.21-37.18-0.27-48.3-1.44c-2.75-0.29-4.74-2.75-4.45-5.5
				c0.29-2.75,2.74-4.73,5.5-4.45c10.74,1.13,26.6,1.6,47.15,1.39c38.06-0.39,62.99-20.66,70.04-39.33
				c2.32-6.13,1.57-9.55,0.82-10.33c-1.85-0.91-10.02,0.88-17.24,2.46c-14.29,3.13-35.89,7.85-66.08,8.2
				c-50.23,0.58-83.03,3.55-91.32,16.54c-4.02,6.28-7.09,17.8-3.67,31.26c3.1,12.2,12.78,30.05,41.33,45.84
				c50.26,27.79,91.2,3.95,94.9-0.26c1.66-2.21,4.76-2.62,6.97-0.97c2.21,1.66,2.63,4.82,0.97,7.03
				c-2.74,3.65-15.84,11.99-35.09,15.65C506.37,1127.74,500.04,1128.47,492.95,1128.47z M581,1000.98L581,1000.98L581,1000.98z" class="st20"></path>
			<path d="M499.09,1097.64c-5.9,0-12.23-0.4-19.05-1.3c-2.74-0.36-4.66-2.87-4.3-5.61c0.36-2.74,2.87-4.66,5.61-4.3
				c26.28,3.47,48.84-0.57,65.21-11.7c12.31-8.36,16.97-17.91,17.02-18c1.19-2.48,4.16-3.55,6.65-2.38c2.49,1.17,3.56,4.13,2.4,6.62
				c-0.22,0.47-5.58,11.72-19.87,21.63C542.26,1089.89,524.99,1097.64,499.09,1097.64z" class="st20"></path>
		</g>
		<g>
			<path d="M274.18,1116.28c31.2-2.09,53.77-16.9,69.47-35.58c14.95-17.78,33.59-55.35,14.93-68.04
				c-18.66-12.68-53.45-4.91-77.05-7.69c-23.61-2.78-45.15-16.41-57.31-9.48s-8.97,34.78,31.29,47.13
				c19.32,5.75,33.71,6.14,44.19,4.32c0,0-77.72-39.06-83.64-10.9c-5.93,28.16,20.86,35.95,20.86,35.95s-10.07-10.65-14.15-3.58
				C218.68,1075.49,223.02,1117.78,274.18,1116.28z" class="st15"></path>
			<path d="M270.64,1121.4c-14.87,0-30.67-5.53-40.31-14.31c-6.05-5.5-9.33-11.92-9.51-18.54
				c-0.07-2.76,2.1-5.06,4.86-5.13c2.76-0.03,5.06,2.1,5.13,4.86c0.13,4.85,3.47,8.89,6.25,11.42c8.47,7.71,23.59,12.49,36.79,11.6
				c26.41-1.77,48.61-13.15,65.98-33.81c10.37-12.33,20.3-34.72,18.27-49.4c-0.72-5.19-2.79-8.88-6.33-11.29
				c-10.98-7.46-27.92-6.94-44.3-6.43c-8.92,0.28-18.14,0.56-26.53-0.42c-9.76-1.15-19.14-4.05-27.41-6.61
				c-11.46-3.55-21.36-6.61-26.84-3.49c-2.75,1.57-4.1,5.03-3.63,9.27c1.02,9.17,10.46,21.54,33.91,28.74
				c16.08,4.79,30.19,6.2,41.87,4.18c2.72-0.46,5.31,1.35,5.78,4.07s-1.35,5.31-4.07,5.78c-13.22,2.29-28.86,0.79-46.47-4.46
				c-35.38-10.86-40.29-31.23-40.96-37.21c-0.91-8.2,2.39-15.5,8.62-19.05c9.25-5.28,21.07-1.62,34.75,2.62
				c8.24,2.55,16.76,5.19,25.62,6.23c7.65,0.9,16.1,0.64,25.05,0.36c17.98-0.56,36.57-1.13,50.23,8.15
				c5.85,3.97,9.52,10.26,10.61,18.19c2.53,18.29-8.69,43.12-20.53,57.2c-19.19,22.83-43.74,35.39-72.97,37.36
				C273.24,1121.36,271.94,1121.4,270.64,1121.4z" class="st20"></path>
			<path d="M272.72,1083.19c-0.07,0-0.15,0-0.22,0c-43.56-1.91-54.92-27.84-55.38-28.94
				c-1.07-2.55,0.13-5.48,2.68-6.54c2.53-1.06,5.45,0.12,6.53,2.65c0.42,0.96,9.83,21.23,46.61,22.85c2.76,0.12,4.9,2.46,4.78,5.21
				C277.6,1081.1,275.38,1083.19,272.72,1083.19z" class="st20"></path>
		</g>
	</g>
</g>
</svg>
