<svg height="1200" node-id="1" sillyvg="true" template-height="1200" template-width="1200" version="1.1" viewBox="0 0 1200 1200" width="1200" xmlns="http://www.w3.org/2000/svg" xmlns:xlink="http://www.w3.org/1999/xlink"><defs node-id="60"><clipPath id="SVGID_2_" node-id="8"><path d="M 0.00 0.00 L 1200.00 0.00 L 1200.00 1200.00 L 0.00 1200.00 Z" fill="#000000" fill-rule="nonzero" node-id="63" stroke="none" target-height="1200" target-width="1200" target-x="0" target-y="0"></path></clipPath><clipPath id="SVGID_4_" node-id="26"><path d="M 767.99 915.76 L 1030.54 851.52 C 1039.46 849.34 1045.75 841.36 1045.79 832.18 L 1047.68 371.64 C 1047.70 365.88 1043.63 360.91 1037.97 359.81 L 494.21 254.10 C 486.09 252.52 477.68 253.50 470.14 256.90 L 146.94 398.54 C 142.56 400.46 139.74 404.80 139.76 409.58 L 141.65 849.44 C 141.69 859.40 149.05 867.80 158.91 869.17 L 368.14 898.06 L 729.81 924.06 L 767.99 915.76 Z" fill="#000000" fill-rule="nonzero" node-id="67" stroke="none" target-height="671.54" target-width="907.95996" target-x="139.74" target-y="252.52"></path></clipPath></defs><path d="M 0.00 0.00 L 1200.00 0.00 L 1200.00 1200.00 L 0.00 1200.00 Z" fill="#cbf5d9" fill-rule="nonzero" node-id="71" stroke="none" target-height="1200" target-width="1200" target-x="0" target-y="0"></path><g node-id="212"><g node-id="213"><g clip-path="url(#SVGID_2_)" group-id="1,2" id="head_5_" node-id="10"><path d="M 148.32 392.86 C 146.35 393.74 144.57 391.31 146.01 389.70 L 258.60 264.27 C 261.13 261.46 265.02 260.31 268.67 261.30 L 371.32 289.21 C 373.13 289.70 373.33 292.20 371.61 292.97 L 148.32 392.86 Z" fill="#31a369" fill-rule="nonzero" group-id="1,2" node-id="76" stroke="none" target-height="133.43" target-width="228.75998" target-x="144.57" target-y="260.31"></path><path d="M 953.49 336.82 C 953.49 336.82 955.37 334.02 956.24 332.07 C 962.41 318.09 965.73 302.57 965.44 286.24 C 964.41 228.38 917.52 181.09 859.67 179.61 C 833.25 178.93 808.89 187.69 789.72 202.76 C 789.44 202.06 789.17 201.37 788.88 200.67 C 763.55 139.94 702.67 97.15 631.59 97.15 C 586.36 97.15 549.46 112.76 519.30 140.92 C 517.64 142.47 517.58 145.08 519.19 146.68 C 540.02 167.51 552.03 195.99 552.03 226.44 C 552.00 227.00 551.91 228.65 551.91 228.65 L 544.99 228.10 C 544.99 228.10 544.97 227.41 544.95 227.07 C 543.76 197.01 530.78 169.88 510.35 149.83 C 488.46 128.36 458.00 115.05 424.33 115.05 C 369.98 115.05 324.01 149.74 308.89 197.44 C 308.16 199.75 307.50 202.09 306.91 204.45 C 306.81 204.84 306.73 205.24 306.64 205.63 C 303.95 204.95 301.19 204.44 298.37 204.12 C 296.00 203.85 293.58 203.71 291.13 203.71 C 257.15 203.71 229.61 230.36 229.61 263.23 C 229.61 296.10 257.15 322.75 291.13 322.75 C 304.58 322.75 318.01 316.99 328.14 312.49 C 328.91 312.15 444.06 260.06 477.13 245.03 C 482.90 242.41 487.35 241.68 493.55 242.95 L 953.49 336.82 Z" fill="#fab2b8" fill-rule="nonzero" group-id="1,2" node-id="78" stroke="none" target-height="239.67001" target-width="736.12" target-x="229.61" target-y="97.15"></path><path d="M 276.29 255.33 C 273.80 255.33 271.79 253.32 271.79 250.83 C 271.79 215.73 301.24 187.17 337.43 187.17 C 339.92 187.17 341.93 189.18 341.93 191.67 C 341.93 194.16 339.92 196.17 337.43 196.17 C 306.20 196.17 280.79 220.69 280.79 250.83 C 280.79 253.31 278.78 255.33 276.29 255.33 Z" fill="#e38d91" fill-rule="nonzero" group-id="1,2,4" node-id="82" stroke="none" target-height="68.16" target-width="70.139984" target-x="271.79" target-y="187.17"></path><path d="M 760.44 189.67 C 751.79 189.67 743.52 191.31 735.94 194.25 C 727.22 185.64 720.08 175.72 714.72 164.69 C 713.63 162.46 710.94 161.53 708.70 162.61 C 706.47 163.70 705.53 166.39 706.62 168.63 C 711.96 179.60 718.92 189.54 727.34 198.32 C 707.61 209.43 694.30 230.15 694.30 253.83 C 694.30 256.59 696.54 258.83 699.30 258.83 C 702.06 258.83 704.30 256.59 704.30 253.83 C 704.30 232.46 717.20 213.94 735.89 205.14 C 735.97 205.14 736.06 205.16 736.14 205.16 C 737.36 205.16 738.58 204.66 739.47 203.69 C 739.50 203.65 739.52 203.61 739.56 203.57 C 746.02 201.06 753.07 199.67 760.45 199.67 C 763.21 199.67 765.45 197.43 765.45 194.67 C 765.45 191.91 763.20 189.67 760.44 189.67 Z" fill="#e38d91" fill-rule="nonzero" group-id="1,2,4" node-id="84" stroke="none" target-height="97.29999" target-width="71.150024" target-x="694.3" target-y="161.53"></path><path d="M 459.38 202.83 C 438.77 199.20 423.42 182.60 422.05 162.47 C 422.03 162.19 421.97 161.92 421.91 161.65 C 422.05 157.98 421.81 154.27 421.16 150.56 C 420.68 147.84 418.09 146.02 415.37 146.50 C 412.65 146.98 410.83 149.57 411.31 152.29 C 413.32 163.67 410.62 175.19 403.70 184.72 C 396.75 194.30 386.39 200.73 374.52 202.82 C 371.80 203.30 369.98 205.89 370.46 208.61 C 370.89 211.04 373.00 212.74 375.38 212.74 C 375.67 212.74 375.96 212.71 376.25 212.66 C 390.69 210.11 403.31 202.27 411.79 190.58 C 413.80 187.81 415.50 184.91 416.92 181.90 C 424.29 197.65 439.25 209.42 457.63 212.66 C 457.92 212.71 458.22 212.74 458.50 212.74 C 460.88 212.74 462.99 211.03 463.42 208.61 C 463.92 205.90 462.10 203.31 459.38 202.83 Z" fill="#e38d91" fill-rule="nonzero" group-id="1,2,4" node-id="86" stroke="none" target-height="66.72" target-width="93.94" target-x="369.98" target-y="146.02"></path><path d="M 387.35 259.99 C 386.87 257.27 384.28 255.46 381.56 255.93 C 363.14 259.17 344.88 249.40 338.14 232.69 C 338.10 232.58 338.03 232.49 337.98 232.39 C 337.01 229.56 335.77 226.78 334.23 224.10 C 332.85 221.71 329.79 220.89 327.40 222.27 C 325.01 223.65 324.19 226.71 325.57 229.10 C 336.07 247.28 329.25 270.94 310.38 281.83 C 307.99 283.21 307.17 286.27 308.55 288.66 C 309.48 290.26 311.16 291.16 312.88 291.16 C 313.73 291.16 314.59 290.94 315.38 290.49 C 329.72 282.21 338.46 268.00 340.17 252.97 C 349.23 261.54 361.54 266.54 374.50 266.54 C 377.41 266.54 380.35 266.29 383.29 265.77 C 386.02 265.30 387.83 262.71 387.35 259.99 Z" fill="#e38d91" fill-rule="nonzero" group-id="1,2,4" node-id="88" stroke="none" target-height="70.270004" target-width="80.65997" target-x="307.17" target-y="220.89"></path><path d="M 897.60 225.34 C 882.72 219.92 873.93 204.62 877.16 189.74 C 877.24 189.35 877.27 188.96 877.26 188.58 C 877.44 187.07 877.54 185.54 877.54 183.99 C 877.54 181.23 875.30 178.99 872.54 178.99 C 869.78 178.99 867.54 181.23 867.54 183.99 C 867.54 200.78 853.34 214.45 835.89 214.45 C 833.13 214.45 830.89 216.69 830.89 219.45 C 830.89 222.21 833.13 224.45 835.89 224.45 C 849.19 224.45 861.05 218.35 868.68 208.89 C 872.65 220.46 881.80 230.22 894.18 234.73 C 894.74 234.94 895.32 235.03 895.89 235.03 C 897.93 235.03 899.85 233.77 900.59 231.74 C 901.53 229.15 900.19 226.28 897.60 225.34 Z" fill="#e38d91" fill-rule="nonzero" group-id="1,2,4" node-id="90" stroke="none" target-height="56.039993" target-width="70.640015" target-x="830.89" target-y="178.99"></path><path d="M 622.58 125.38 C 619.84 125.13 617.40 127.17 617.16 129.92 C 616.92 132.67 618.95 135.10 621.71 135.34 C 630.44 136.10 638.50 138.89 645.51 143.17 C 642.47 155.23 637.29 166.56 630.06 176.88 C 628.48 179.14 629.03 182.26 631.29 183.84 C 632.16 184.45 633.16 184.74 634.15 184.74 C 635.73 184.74 637.28 184.00 638.25 182.61 C 645.37 172.45 650.68 161.39 654.10 149.66 C 666.22 160.82 673.24 177.27 671.69 194.92 C 671.45 197.67 673.48 200.10 676.24 200.34 C 676.39 200.35 676.53 200.36 676.68 200.36 C 679.24 200.36 681.43 198.40 681.66 195.80 C 684.80 160.10 658.29 128.51 622.58 125.38 Z" fill="#e38d91" fill-rule="nonzero" group-id="1,2,4" node-id="92" stroke="none" target-height="75.23" target-width="67.880005" target-x="616.92" target-y="125.13"></path><path d="M 410.30 226.01 C 408.26 226.01 406.34 224.75 405.60 222.72 C 404.66 220.13 405.99 217.26 408.59 216.31 C 428.32 209.13 449.73 208.53 472.22 214.52 C 474.89 215.23 476.47 217.97 475.76 220.64 C 475.05 223.31 472.32 224.89 469.64 224.18 C 449.16 218.72 429.77 219.24 412.00 225.70 C 411.44 225.92 410.87 226.01 410.30 226.01 Z" fill="#e38d91" fill-rule="nonzero" group-id="1,2,4" node-id="94" stroke="none" target-height="17.479996" target-width="71.81" target-x="404.66" target-y="208.53"></path><path d="M 1036.50 354.39 C 1038.70 354.84 1039.86 351.89 1037.94 350.72 L 890.18 260.56 C 883.93 256.67 877.03 253.96 869.80 252.57 L 385.12 159.27 C 383.04 158.87 381.85 161.55 383.53 162.83 C 383.53 162.83 449.00 215.93 470.78 233.93 C 476.54 238.55 483.56 240.70 495.65 243.35 C 583.34 261.36 965.88 339.90 1036.50 354.39 Z" fill="#35b374" fill-rule="nonzero" group-id="1,2" node-id="97" stroke="none" target-height="195.97" target-width="658.01" target-x="381.85" target-y="158.87"></path><path d="M 1099.30 514.57 C 1157.73 516.15 1160.00 580.59 1160.00 623.48 C 1160.00 666.37 1136.21 711.11 1064.48 714.11 C 1057.31 714.41 1049.18 714.56 1040.33 714.56 C 960.38 714.56 820.79 702.01 783.15 671.49 C 774.39 662.18 781.48 649.71 794.32 649.07 C 837.77 646.90 963.18 646.90 997.06 623.34 C 1030.94 599.78 1036.88 579.17 1048.48 549.14 C 1056.53 528.31 1076.76 514.57 1099.30 514.57 M 1099.46 502.57 L 1099.30 502.57 C 1085.82 502.57 1072.82 506.56 1061.71 514.12 C 1050.56 521.70 1042.12 532.32 1037.29 544.82 C 1036.46 546.98 1035.65 549.09 1034.86 551.16 C 1025.08 576.79 1018.62 593.72 990.21 613.49 C 982.84 618.62 964.13 625.76 916.88 630.61 C 883.35 634.05 846.30 635.26 819.25 636.14 C 809.21 636.47 800.54 636.75 793.73 637.09 C 782.54 637.65 772.84 644.15 769.01 653.65 C 765.42 662.55 767.44 672.29 774.42 679.71 L 774.98 680.30 L 775.61 680.81 C 794.33 695.98 834.23 707.94 894.23 716.35 C 939.82 722.74 994.44 726.56 1040.35 726.56 C 1049.34 726.56 1057.64 726.40 1065.00 726.10 C 1101.40 724.58 1129.37 713.00 1148.16 691.69 C 1163.77 673.98 1172.02 650.39 1172.02 623.48 C 1172.02 599.86 1171.31 572.70 1162.86 549.43 C 1157.85 535.65 1150.52 524.72 1141.08 516.95 C 1130.02 507.85 1116.08 503.01 1099.64 502.57 L 1099.46 502.57 L 1099.46 502.57 Z" fill="#37b374" fill-opacity="0.5" fill-rule="nonzero" group-id="1,2,5" node-id="101" stroke="none" target-height="223.98999" target-width="406.60004" target-x="765.42" target-y="502.57"></path><g clip-path="url(#SVGID_4_)" group-id="1,2,6,10" node-id="106"><path d="M 767.99 915.76 L 1030.54 851.52 C 1039.46 849.34 1045.75 841.36 1045.79 832.18 L 1047.68 371.64 C 1047.70 365.88 1043.63 360.91 1037.97 359.81 L 494.21 254.10 C 486.09 252.52 477.68 253.50 470.14 256.90 L 146.94 398.54 C 142.56 400.46 139.74 404.80 139.76 409.58 L 141.65 849.44 C 141.69 859.40 149.05 867.80 158.91 869.17 L 368.14 898.06 L 729.81 924.06 L 767.99 915.76 Z" fill="#37b374" fill-rule="nonzero" group-id="1,2,6,10" node-id="108" stroke="none" target-height="671.54" target-width="907.95996" target-x="139.74" target-y="252.52"></path></g><g clip-path="url(#SVGID_4_)" group-id="1,2,6,11" node-id="111"><path d="M 381.87 901.77 L 157.30 870.14 C 151.11 869.27 150.21 860.70 156.09 858.56 L 467.35 745.38 C 477.36 741.72 488.16 740.82 498.64 742.76 L 1031.27 840.73 C 1037.48 841.87 1037.94 850.59 1031.89 852.38 L 1002.68 861.02 L 736.83 926.26 L 381.87 901.77 Z" fill="#1f4d31" fill-opacity="0.3" fill-rule="nonzero" group-id="1,2,6,11" node-id="113" stroke="none" target-height="185.44" target-width="887.7299" target-x="150.21" target-y="740.82"></path></g><g clip-path="url(#SVGID_4_)" group-id="1,2,6,12" node-id="116"><path d="M 593.00 696.00 C 588.58 696.00 585.00 692.42 585.00 688.00 L 585.00 612.90 C 585.00 598.09 578.66 583.94 567.60 574.08 L 541.68 550.98 C 538.38 548.04 538.09 542.98 541.03 539.68 C 543.97 536.38 549.03 536.09 552.32 539.03 L 578.24 562.13 C 592.71 575.02 601.00 593.52 601.00 612.90 L 601.00 688.00 C 601.00 692.42 597.42 696.00 593.00 696.00 Z" fill="#374f3a" fill-opacity="0.36" fill-rule="nonzero" group-id="1,2,6,12" node-id="118" stroke="none" target-height="159.90997" target-width="62.909973" target-x="538.09" target-y="536.09"></path></g><g clip-path="url(#SVGID_4_)" group-id="1,2,6,13" node-id="121"><path d="M 957.00 778.00 C 952.58 778.00 949.00 774.42 949.00 770.00 L 949.00 694.90 C 949.00 675.53 957.29 657.03 971.75 644.14 L 997.67 621.04 C 1000.97 618.10 1006.03 618.39 1008.96 621.69 C 1011.90 624.99 1011.61 630.05 1008.31 632.99 L 982.39 656.09 C 971.33 665.95 964.99 680.10 964.99 694.91 L 964.99 770.00 C 965.00 774.42 961.42 778.00 957.00 778.00 Z" fill="#374f3a" fill-opacity="0.36" fill-rule="nonzero" group-id="1,2,6,13" node-id="123" stroke="none" target-height="159.90002" target-width="62.900024" target-x="949" target-y="618.1"></path></g><g clip-path="url(#SVGID_4_)" group-id="1,2,6,14" node-id="126"><path d="M 805.00 604.00 C 799.48 604.00 795.00 599.52 795.00 594.00 L 795.00 580.00 C 795.00 574.48 799.48 570.00 805.00 570.00 C 810.52 570.00 815.00 574.48 815.00 580.00 L 815.00 594.00 C 815.00 599.52 810.52 604.00 805.00 604.00 Z" fill="#332f2e" fill-opacity="0.36" fill-rule="nonzero" group-id="1,2,6,14" node-id="128" stroke="none" target-height="34" target-width="20" target-x="795" target-y="570"></path></g><g clip-path="url(#SVGID_4_)" group-id="1,2,6,15" node-id="131"><path d="M 765.00 598.00 C 759.48 598.00 755.00 593.52 755.00 588.00 L 755.00 576.00 C 755.00 570.48 759.48 566.00 765.00 566.00 C 770.52 566.00 775.00 570.48 775.00 576.00 L 775.00 588.00 C 775.00 593.52 770.52 598.00 765.00 598.00 Z" fill="#332f2e" fill-opacity="0.36" fill-rule="nonzero" group-id="1,2,6,15" node-id="133" stroke="none" target-height="32" target-width="20" target-x="755" target-y="566"></path></g><g clip-path="url(#SVGID_4_)" group-id="1,2,6,16" node-id="136"><path d="M 1059.63 483.01 C 1047.94 472.76 1037.55 462.17 1028.33 451.59 L 1038.20 443.44 C 1040.54 441.51 1040.87 438.04 1038.94 435.70 C 1037.00 433.36 1033.54 433.03 1031.20 434.96 L 1021.25 443.18 C 1016.83 437.77 1012.71 432.39 1008.88 427.09 L 1019.23 420.47 C 1021.79 418.83 1022.53 415.43 1020.90 412.87 C 1019.26 410.31 1015.86 409.56 1013.30 411.20 L 1002.57 418.07 C 998.81 412.51 995.38 407.08 992.23 401.82 L 1003.89 396.20 C 1006.63 394.88 1007.78 391.60 1006.46 388.86 C 1005.14 386.12 1001.86 384.97 999.12 386.29 L 986.71 392.26 C 983.84 387.10 981.27 382.17 978.98 377.53 L 991.12 373.03 C 993.97 371.97 995.42 368.81 994.37 365.96 C 993.32 363.11 990.15 361.66 987.30 362.71 L 974.26 367.54 C 966.29 349.92 963.06 338.47 962.96 338.13 C 962.16 335.20 959.14 333.47 956.21 334.27 C 953.28 335.07 951.55 338.09 952.35 341.02 C 952.52 341.66 955.75 353.34 963.85 371.40 L 954.10 375.01 C 951.25 376.07 949.80 379.23 950.85 382.08 C 951.67 384.30 953.77 385.67 956.01 385.67 C 956.64 385.67 957.29 385.56 957.92 385.33 L 968.53 381.40 C 970.00 384.41 971.58 387.53 973.29 390.78 C 974.36 392.81 975.50 394.91 976.70 397.08 L 965.91 402.27 C 963.17 403.59 962.02 406.87 963.34 409.61 C 964.29 411.58 966.25 412.73 968.30 412.73 C 969.10 412.73 969.91 412.55 970.68 412.18 L 982.19 406.64 C 985.48 412.15 989.16 417.98 993.25 424.02 L 982.54 430.87 C 979.98 432.51 979.24 435.91 980.87 438.47 C 981.92 440.11 983.70 441.01 985.51 441.01 C 986.52 441.01 987.55 440.73 988.47 440.14 L 999.56 433.04 C 1003.61 438.64 1007.99 444.38 1012.74 450.19 L 1002.90 458.32 C 1000.56 460.25 1000.23 463.72 1002.16 466.06 C 1003.25 467.38 1004.82 468.06 1006.40 468.06 C 1007.63 468.06 1008.87 467.65 1009.90 466.80 L 1019.83 458.60 C 1029.35 469.53 1040.16 480.58 1052.36 491.29 C 1053.40 492.21 1054.70 492.66 1055.98 492.66 C 1057.51 492.66 1059.03 492.03 1060.12 490.79 C 1062.14 488.49 1061.91 485.02 1059.63 483.01 Z" fill="#374f3a" fill-opacity="0.4" fill-rule="nonzero" group-id="1,2,6,16" node-id="138" stroke="none" target-height="159.19" target-width="112.34003" target-x="949.8" target-y="333.47"></path></g><g clip-path="url(#SVGID_4_)" group-id="1,2,6,17" node-id="141"><path d="M 276.12 831.35 C 271.60 819.76 266.43 808.69 260.87 798.19 L 273.36 791.44 C 276.03 790.00 277.03 786.66 275.59 783.99 C 274.15 781.32 270.81 780.32 268.14 781.76 L 255.57 788.55 C 251.51 781.45 247.28 774.63 242.97 768.12 L 255.86 760.30 C 258.46 758.72 259.29 755.34 257.71 752.75 C 256.13 750.15 252.75 749.32 250.16 750.90 L 236.77 759.03 C 231.53 751.59 226.23 744.59 220.99 738.08 L 234.74 726.87 C 237.09 724.95 237.45 721.49 235.53 719.13 C 233.61 716.78 230.15 716.42 227.79 718.34 L 213.99 729.60 C 208.64 723.29 203.43 717.51 198.51 712.30 L 209.64 701.26 C 211.80 699.12 211.81 695.64 209.67 693.48 C 207.53 691.32 204.05 691.31 201.89 693.45 L 190.85 704.40 C 185.67 699.18 180.71 694.43 176.08 690.18 L 184.92 679.96 C 186.91 677.66 186.66 674.19 184.36 672.20 C 182.06 670.21 178.59 670.46 176.60 672.76 L 167.88 682.84 C 154.06 670.78 144.74 664.26 144.14 663.84 C 141.65 662.11 138.22 662.73 136.49 665.22 C 134.76 667.71 135.37 671.14 137.87 672.87 C 138.15 673.07 147.19 679.44 160.64 691.21 L 152.60 700.51 C 150.61 702.81 150.86 706.28 153.16 708.27 C 154.20 709.17 155.48 709.61 156.76 709.61 C 158.30 709.61 159.83 708.97 160.92 707.71 L 168.82 698.57 C 173.26 702.66 178.01 707.22 182.97 712.21 L 172.89 722.20 C 170.73 724.34 170.72 727.82 172.86 729.98 C 173.94 731.06 175.35 731.61 176.77 731.61 C 178.17 731.61 179.57 731.08 180.64 730.02 L 190.63 720.12 C 195.46 725.24 200.42 730.74 205.41 736.61 L 192.54 747.10 C 190.19 749.02 189.83 752.48 191.75 754.84 C 192.84 756.17 194.42 756.86 196.01 756.86 C 197.23 756.86 198.46 756.45 199.48 755.62 L 212.41 745.07 C 217.42 751.28 222.42 757.84 227.31 764.76 L 212.65 773.66 C 210.05 775.24 209.22 778.62 210.80 781.21 C 211.83 782.92 213.65 783.86 215.51 783.86 C 216.48 783.86 217.47 783.60 218.36 783.06 L 233.55 773.84 C 237.80 780.23 241.93 786.88 245.89 793.78 L 230.65 802.01 C 227.98 803.45 226.98 806.79 228.42 809.46 C 229.42 811.30 231.31 812.35 233.26 812.35 C 234.14 812.35 235.04 812.14 235.87 811.69 L 251.20 803.41 C 256.58 813.57 261.54 824.22 265.88 835.35 C 266.73 837.52 268.81 838.85 271.00 838.85 C 271.67 838.85 272.34 838.73 273.00 838.47 C 275.83 837.37 277.23 834.18 276.12 831.35 Z" fill="#374f3a" fill-opacity="0.4" fill-rule="nonzero" group-id="1,2,6,17" node-id="143" stroke="none" target-height="176.73999" target-width="142.47002" target-x="134.76" target-y="662.11"></path></g><g clip-path="url(#SVGID_4_)" group-id="1,2,6,18" node-id="146"><path d="M 654.78 505.21 C 654.15 504.41 654.21 503.27 654.93 502.55 L 673.56 483.92 C 679.81 477.67 679.81 467.54 673.56 461.29 C 667.31 455.04 657.18 455.04 650.93 461.29 L 635.18 477.04 C 634.34 477.88 632.95 477.81 632.20 476.87 L 614.76 455.00 C 609.09 447.89 598.60 446.89 591.68 452.95 C 585.20 458.63 584.64 468.55 590.01 475.29 L 609.71 500.00 C 610.34 500.80 610.28 501.94 609.56 502.66 L 590.93 521.29 C 584.68 527.54 584.68 537.67 590.93 543.92 C 594.05 547.04 598.15 548.61 602.24 548.61 C 606.33 548.61 610.43 547.05 613.55 543.92 L 629.30 528.17 C 630.14 527.33 631.53 527.40 632.28 528.34 L 649.72 550.23 C 652.88 554.19 657.54 556.26 662.24 556.26 C 665.79 556.26 669.36 555.09 672.33 552.67 C 679.19 547.09 679.98 536.86 674.47 529.94 L 654.78 505.21 Z" fill="#222e24" fill-rule="nonzero" group-id="1,2,6,18" node-id="148" stroke="none" target-height="109.369995" target-width="95.339966" target-x="584.64" target-y="446.89"></path></g><g clip-path="url(#SVGID_4_)" group-id="1,2,6,19" node-id="151"><path d="M 953.78 560.21 C 953.15 559.41 953.21 558.27 953.93 557.55 L 971.56 539.92 C 977.81 533.67 977.81 523.54 971.56 517.29 C 965.31 511.04 955.18 511.04 948.93 517.29 L 934.18 532.04 C 933.34 532.88 931.95 532.81 931.20 531.87 L 914.76 511.24 C 909.09 504.13 898.60 503.13 891.68 509.19 C 885.20 514.87 884.64 524.79 890.01 531.53 L 908.71 554.99 C 909.34 555.79 909.28 556.93 908.56 557.65 L 890.93 575.28 C 884.68 581.53 884.68 591.66 890.93 597.91 C 894.05 601.03 898.15 602.60 902.24 602.60 C 906.33 602.60 910.43 601.04 913.55 597.91 L 928.30 583.16 C 929.14 582.32 930.53 582.39 931.28 583.33 L 947.72 603.96 C 950.88 607.92 955.54 609.99 960.24 609.99 C 963.79 609.99 967.36 608.82 970.33 606.40 C 977.19 600.82 977.98 590.59 972.47 583.68 L 953.78 560.21 Z" fill="#222e24" fill-rule="nonzero" group-id="1,2,6,19" node-id="153" stroke="none" target-height="106.859985" target-width="93.339966" target-x="884.64" target-y="503.13"></path></g><g clip-path="url(#SVGID_4_)" group-id="1,2,6,20" node-id="156"><path d="M 538.00 416.00 C 535.24 416.00 533.00 413.76 533.00 411.00 L 533.00 289.00 C 533.00 286.24 535.24 284.00 538.00 284.00 C 540.76 284.00 543.00 286.24 543.00 289.00 L 543.00 411.00 C 543.00 413.76 540.76 416.00 538.00 416.00 Z" fill="#374f3a" fill-opacity="0.36" fill-rule="nonzero" group-id="1,2,6,20" node-id="158" stroke="none" target-height="132" target-width="10" target-x="533" target-y="284"></path></g><g clip-path="url(#SVGID_4_)" group-id="1,2,6,21" node-id="161"><path d="M 563.00 389.00 C 560.24 389.00 558.00 386.76 558.00 384.00 L 558.00 294.00 C 558.00 291.24 560.24 289.00 563.00 289.00 C 565.76 289.00 568.00 291.24 568.00 294.00 L 568.00 384.00 C 568.00 386.76 565.76 389.00 563.00 389.00 Z" fill="#374f3a" fill-opacity="0.36" fill-rule="nonzero" group-id="1,2,6,21" node-id="163" stroke="none" target-height="100" target-width="10" target-x="558" target-y="289"></path></g><g clip-path="url(#SVGID_4_)" group-id="1,2,6,22" node-id="166"><path d="M 588.00 357.00 C 585.24 357.00 583.00 354.76 583.00 352.00 L 583.00 298.00 C 583.00 295.24 585.24 293.00 588.00 293.00 C 590.76 293.00 593.00 295.24 593.00 298.00 L 593.00 352.00 C 593.00 354.76 590.76 357.00 588.00 357.00 Z" fill="#374f3a" fill-opacity="0.36" fill-rule="nonzero" group-id="1,2,6,22" node-id="168" stroke="none" target-height="64" target-width="10" target-x="583" target-y="293"></path></g><path d="M 279.04 382.58 L 279.04 421.70 C 279.04 423.13 280.48 424.11 281.82 423.59 L 311.13 412.01 C 311.90 411.70 312.41 410.96 312.41 410.12 L 312.41 370.11 C 312.41 368.65 310.92 367.67 309.58 368.24 L 280.27 380.72 C 279.53 381.04 279.04 381.77 279.04 382.58 Z" fill="#ffffff" fill-opacity="0.8" fill-rule="evenodd" group-id="1,2,7" node-id="174" stroke="none" target-height="56.439972" target-width="33.369995" target-x="279.04" target-y="367.67"></path><path d="M 229.80 444.15 L 259.13 432.56 C 259.90 432.26 260.41 431.51 260.41 430.68 L 260.41 392.23 C 260.41 390.78 258.93 389.81 257.60 390.37 L 228.27 402.86 C 227.53 403.18 227.04 403.91 227.04 404.72 L 227.04 442.28 C 227.04 443.70 228.48 444.68 229.80 444.15 Z" fill="#ffffff" fill-opacity="0.8" fill-rule="evenodd" group-id="1,2,7" node-id="176" stroke="none" target-height="54.869995" target-width="33.37001" target-x="227.04" target-y="389.81"></path><path d="M 178.79 464.31 L 208.14 452.71 C 208.91 452.41 209.41 451.67 209.41 450.84 L 209.41 413.92 C 209.41 412.48 207.94 411.51 206.61 412.07 L 177.26 424.56 C 176.52 424.88 176.04 425.60 176.04 426.41 L 176.04 462.43 C 176.04 463.86 177.47 464.84 178.79 464.31 Z" fill="#ffffff" fill-opacity="0.8" fill-rule="evenodd" group-id="1,2,7" node-id="178" stroke="none" target-height="53.329987" target-width="33.37001" target-x="176.04" target-y="411.51"></path><path d="M 578.86 196.31 L 686.78 285.79 C 689.02 287.69 690.31 290.48 690.31 293.42 L 692.31 441.27 C 692.31 444.46 695.86 446.36 698.52 444.61 L 737.84 418.61 C 739.50 417.51 741.71 417.80 743.03 419.28 L 780.27 460.96 C 781.66 462.51 784.00 462.74 785.67 461.49 L 821.13 434.68 C 822.65 433.53 824.76 433.61 826.18 434.87 L 874.69 477.53 C 877.34 479.86 881.48 477.87 881.33 474.35 L 875.93 328.32 C 875.80 325.40 874.41 322.68 872.10 320.88 L 754.49 231.54 C 752.02 229.66 749.14 228.39 746.09 227.81 L 578.86 196.31 Z" fill="#c7a168" fill-rule="nonzero" group-id="1,2" node-id="181" stroke="none" target-height="283.55" target-width="302.62" target-x="578.86" target-y="196.31"></path><path d="M 482.98 698.86 C 480.49 698.86 478.48 696.85 478.48 694.36 L 478.48 284.25 C 478.48 281.76 480.49 279.75 482.98 279.75 C 485.47 279.75 487.48 281.76 487.48 284.25 L 487.48 694.36 C 487.48 696.84 485.46 698.86 482.98 698.86 Z" fill="#ffffff" fill-opacity="0.9" fill-rule="nonzero" group-id="1,2,8" node-id="185" stroke="none" target-height="419.11" target-width="9" target-x="478.48" target-y="279.75"></path><path d="M 389.47 545.50 L 389.47 545.50 C 382.90 548.13 375.76 543.29 375.76 536.22 L 375.76 477.46 C 375.76 473.52 378.07 469.96 381.66 468.34 L 381.66 468.34 C 388.28 465.36 395.76 470.20 395.76 477.46 L 395.76 536.22 C 395.75 540.30 393.27 543.98 389.47 545.50 Z" fill="#fab2b8" fill-rule="nonzero" group-id="1,2" node-id="188" stroke="none" target-height="82.77002" target-width="20" target-x="375.76" target-y="465.36"></path><path d="M 406.00 277.00 C 406.00 277.00 376.00 288.00 376.00 313.00 L 376.00 404.75 C 376.00 409.18 373.46 413.21 369.46 415.12 L 369.46 415.12 C 361.83 418.77 353.00 413.21 353.00 404.75 L 353.00 383.46 C 353.00 376.20 345.51 371.36 338.90 374.34 L 338.90 374.34 C 335.31 375.95 333.00 379.52 333.00 383.46 L 333.00 577.13 C 333.00 585.47 327.83 592.93 320.02 595.86 L 311.59 599.02 C 310.03 599.61 308.99 601.10 308.99 602.77 L 308.99 664.37 C 308.99 670.84 305.21 676.71 299.32 679.39 L 299.32 679.39 C 288.40 684.36 275.99 676.37 275.99 664.37 L 275.99 480.64 C 275.99 477.97 273.26 476.16 270.80 477.20 L 270.80 477.20 C 257.61 482.80 242.99 473.12 242.99 458.79 L 242.99 364.17 C 242.99 356.85 246.99 350.12 253.41 346.61 L 315.00 313.00 L 406.00 277.00 Z" fill="#fab2b8" fill-rule="nonzero" group-id="1,2" node-id="190" stroke="none" target-height="407.36" target-width="163.01" target-x="242.99" target-y="277"></path><path d="M 783.15 671.50 C 774.39 662.19 781.48 649.72 794.32 649.08 C 837.77 646.91 963.19 646.91 997.06 623.35 C 1030.93 599.79 1036.88 579.18 1048.48 549.15 C 1056.53 528.31 1076.76 514.57 1099.30 514.57 C 1157.73 516.15 1160.00 580.59 1160.00 623.48 C 1160.00 666.37 1136.21 711.11 1064.48 714.11 C 992.54 717.13 824.96 705.40 783.15 671.50 Z" fill="#ffffff" fill-rule="evenodd" group-id="1,2" node-id="192" stroke="none" target-height="202.56" target-width="385.61" target-x="774.39" target-y="514.57"></path></g></g><g clip-path="url(#SVGID_2_)" group-id="1,3" id="body_5_" node-id="50"><path d="M 736.73 1159.86 L 741.72 1209.87 L 826.72 1209.87 L 820.73 1157.86 Z" fill="#37b374" fill-rule="nonzero" group-id="1,3" node-id="196" stroke="none" target-height="52.01001" target-width="89.98999" target-x="736.73" target-y="1157.86"></path><path d="M 737.72 1160.86 L 742.22 1209.87 L 271.72 1209.87 C 271.72 1209.87 257.57 825.79 528.72 825.79 C 641.01 825.79 720.61 868.29 772.44 927.25 C 857.23 1023.71 870.72 1160.85 870.72 1160.85 L 691.72 1160.85 L 737.72 1160.86 Z" fill="#755e4a" fill-rule="nonzero" group-id="1,3" node-id="198" stroke="none" target-height="384.08002" target-width="613.14996" target-x="257.57" target-y="825.79"></path><path d="M 876.95 1156.81 C 876.66 1154.06 874.20 1152.07 871.46 1152.35 C 871.03 1152.39 827.99 1156.84 784.12 1158.30 C 702.45 1161.03 693.45 1151.15 692.47 1149.14 L 692.24 1148.66 L 691.91 1148.24 C 682.24 1135.85 669.02 1016.33 662.95 943.90 C 662.72 941.15 660.30 939.09 657.55 939.33 C 654.80 939.56 652.75 941.98 652.98 944.73 C 653.02 945.20 657.00 992.58 662.67 1041.57 C 663.59 1049.51 664.48 1056.88 665.34 1063.73 C 634.16 1025.97 624.97 975.98 624.88 975.44 C 624.40 972.72 621.80 970.91 619.09 971.39 C 616.37 971.87 614.56 974.46 615.04 977.18 C 615.49 979.70 626.40 1039.32 666.41 1079.82 C 666.76 1080.17 667.16 1080.44 667.57 1080.67 C 675.03 1135.31 680.22 1149.11 683.71 1153.96 C 687.55 1161.13 700.33 1168.77 757.25 1168.77 C 765.39 1168.77 774.44 1168.61 784.49 1168.28 C 828.70 1166.80 872.05 1162.32 872.48 1162.28 C 875.24 1162.02 877.23 1159.56 876.95 1156.81 Z" fill="#ffffff" fill-rule="nonzero" group-id="1,3" node-id="200" stroke="none" target-height="229.68" target-width="262.66998" target-x="614.56" target-y="939.09"></path><path d="M 343.86 1237.82 C 343.03 1227.75 341.91 1203.20 345.49 1163.13 C 345.78 1159.88 341.61 1158.30 339.69 1160.93 L 297.90 1218.11 C 296.26 1220.36 297.15 1223.54 299.72 1224.61 L 339.41 1241.05 C 341.65 1241.97 344.06 1240.22 343.86 1237.82 Z" fill="#35b371" fill-rule="nonzero" group-id="1,3,9" node-id="204" stroke="none" target-height="83.66992" target-width="49.51999" target-x="296.26" target-y="1158.3"></path><path d="M 350.60 1123.19 C 353.71 1104.97 358.61 1078.60 363.35 1056.69 C 364.01 1053.65 360.39 1051.54 358.06 1053.61 L 316.10 1090.97 C 314.22 1092.64 314.18 1095.56 316.00 1097.29 L 345.21 1124.98 C 347.08 1126.74 350.17 1125.72 350.60 1123.19 Z" fill="#35b371" fill-rule="nonzero" group-id="1,3,9" node-id="206" stroke="none" target-height="75.19995" target-width="49.830017" target-x="314.18" target-y="1051.54"></path><path d="M 375.14 1022.13 C 382.06 997.09 389.26 970.96 396.25 951.43 C 397.34 948.40 393.80 945.82 391.25 947.79 L 348.93 980.50 C 347.23 981.82 346.76 984.19 347.84 986.05 L 369.24 1022.87 C 370.69 1025.35 374.38 1024.88 375.14 1022.13 Z" fill="#35b371" fill-rule="nonzero" group-id="1,3,9" node-id="208" stroke="none" target-height="79.52997" target-width="50.579987" target-x="346.76" target-y="945.82"></path><path d="M 412.26 916.79 C 421.65 897.47 429.59 883.91 434.39 876.22 C 435.57 874.32 433.43 872.11 431.49 873.23 L 401.75 890.45 C 399.90 891.52 399.12 893.79 399.92 895.77 L 408.33 916.67 C 409.03 918.39 411.45 918.47 412.26 916.79 Z" fill="#35b371" fill-rule="nonzero" group-id="1,3,9" node-id="210" stroke="none" target-height="46.359985" target-width="36.450012" target-x="399.12" target-y="872.11"></path></g></g></svg>